%TF.GenerationSoftware,KiCad,Pcbnew,8.0.5*%
%TF.CreationDate,2024-09-18T15:37:43+10:00*%
%TF.ProjectId,mppt-board,6d707074-2d62-46f6-9172-642e6b696361,rev?*%
%TF.SameCoordinates,Original*%
%TF.FileFunction,Legend,Top*%
%TF.FilePolarity,Positive*%
%FSLAX46Y46*%
G04 Gerber Fmt 4.6, Leading zero omitted, Abs format (unit mm)*
G04 Created by KiCad (PCBNEW 8.0.5) date 2024-09-18 15:37:43*
%MOMM*%
%LPD*%
G01*
G04 APERTURE LIST*
G04 Aperture macros list*
%AMRoundRect*
0 Rectangle with rounded corners*
0 $1 Rounding radius*
0 $2 $3 $4 $5 $6 $7 $8 $9 X,Y pos of 4 corners*
0 Add a 4 corners polygon primitive as box body*
4,1,4,$2,$3,$4,$5,$6,$7,$8,$9,$2,$3,0*
0 Add four circle primitives for the rounded corners*
1,1,$1+$1,$2,$3*
1,1,$1+$1,$4,$5*
1,1,$1+$1,$6,$7*
1,1,$1+$1,$8,$9*
0 Add four rect primitives between the rounded corners*
20,1,$1+$1,$2,$3,$4,$5,0*
20,1,$1+$1,$4,$5,$6,$7,0*
20,1,$1+$1,$6,$7,$8,$9,0*
20,1,$1+$1,$8,$9,$2,$3,0*%
G04 Aperture macros list end*
%ADD10C,0.100000*%
%ADD11C,0.150000*%
%ADD12C,0.250000*%
%ADD13C,0.120000*%
%ADD14R,5.750000X20.000000*%
%ADD15R,1.200000X1.500000*%
%ADD16RoundRect,0.250000X-1.425000X0.362500X-1.425000X-0.362500X1.425000X-0.362500X1.425000X0.362500X0*%
%ADD17RoundRect,0.250000X-0.262500X-0.450000X0.262500X-0.450000X0.262500X0.450000X-0.262500X0.450000X0*%
%ADD18RoundRect,0.250000X0.262500X0.450000X-0.262500X0.450000X-0.262500X-0.450000X0.262500X-0.450000X0*%
%ADD19C,6.400000*%
%ADD20R,2.400000X2.400000*%
%ADD21C,2.400000*%
%ADD22RoundRect,0.150000X-0.825000X-0.150000X0.825000X-0.150000X0.825000X0.150000X-0.825000X0.150000X0*%
%ADD23RoundRect,0.250000X-0.475000X0.250000X-0.475000X-0.250000X0.475000X-0.250000X0.475000X0.250000X0*%
%ADD24RoundRect,0.150000X-0.512500X-0.150000X0.512500X-0.150000X0.512500X0.150000X-0.512500X0.150000X0*%
%ADD25RoundRect,0.250000X0.475000X-0.250000X0.475000X0.250000X-0.475000X0.250000X-0.475000X-0.250000X0*%
%ADD26R,1.700000X1.700000*%
%ADD27O,1.700000X1.700000*%
%ADD28RoundRect,0.250000X-0.250000X-0.475000X0.250000X-0.475000X0.250000X0.475000X-0.250000X0.475000X0*%
%ADD29RoundRect,0.250000X-0.350000X0.850000X-0.350000X-0.850000X0.350000X-0.850000X0.350000X0.850000X0*%
%ADD30RoundRect,0.249997X-2.650003X2.950003X-2.650003X-2.950003X2.650003X-2.950003X2.650003X2.950003X0*%
%ADD31RoundRect,0.250000X0.250000X0.475000X-0.250000X0.475000X-0.250000X-0.475000X0.250000X-0.475000X0*%
%ADD32RoundRect,0.250000X-0.850000X-0.350000X0.850000X-0.350000X0.850000X0.350000X-0.850000X0.350000X0*%
%ADD33RoundRect,0.249997X-2.950003X-2.650003X2.950003X-2.650003X2.950003X2.650003X-2.950003X2.650003X0*%
G04 APERTURE END LIST*
D10*
X83622419Y-95410401D02*
X84336704Y-95410401D01*
X84336704Y-95410401D02*
X84479561Y-95458020D01*
X84479561Y-95458020D02*
X84574800Y-95553258D01*
X84574800Y-95553258D02*
X84622419Y-95696115D01*
X84622419Y-95696115D02*
X84622419Y-95791353D01*
X84622419Y-94458020D02*
X84622419Y-94934210D01*
X84622419Y-94934210D02*
X83622419Y-94934210D01*
X84527180Y-93553258D02*
X84574800Y-93600877D01*
X84574800Y-93600877D02*
X84622419Y-93743734D01*
X84622419Y-93743734D02*
X84622419Y-93838972D01*
X84622419Y-93838972D02*
X84574800Y-93981829D01*
X84574800Y-93981829D02*
X84479561Y-94077067D01*
X84479561Y-94077067D02*
X84384323Y-94124686D01*
X84384323Y-94124686D02*
X84193847Y-94172305D01*
X84193847Y-94172305D02*
X84050990Y-94172305D01*
X84050990Y-94172305D02*
X83860514Y-94124686D01*
X83860514Y-94124686D02*
X83765276Y-94077067D01*
X83765276Y-94077067D02*
X83670038Y-93981829D01*
X83670038Y-93981829D02*
X83622419Y-93838972D01*
X83622419Y-93838972D02*
X83622419Y-93743734D01*
X83622419Y-93743734D02*
X83670038Y-93600877D01*
X83670038Y-93600877D02*
X83717657Y-93553258D01*
X83622419Y-92838972D02*
X84336704Y-92838972D01*
X84336704Y-92838972D02*
X84479561Y-92886591D01*
X84479561Y-92886591D02*
X84574800Y-92981829D01*
X84574800Y-92981829D02*
X84622419Y-93124686D01*
X84622419Y-93124686D02*
X84622419Y-93219924D01*
X84622419Y-91886591D02*
X84622419Y-92362781D01*
X84622419Y-92362781D02*
X83622419Y-92362781D01*
X84527180Y-90981829D02*
X84574800Y-91029448D01*
X84574800Y-91029448D02*
X84622419Y-91172305D01*
X84622419Y-91172305D02*
X84622419Y-91267543D01*
X84622419Y-91267543D02*
X84574800Y-91410400D01*
X84574800Y-91410400D02*
X84479561Y-91505638D01*
X84479561Y-91505638D02*
X84384323Y-91553257D01*
X84384323Y-91553257D02*
X84193847Y-91600876D01*
X84193847Y-91600876D02*
X84050990Y-91600876D01*
X84050990Y-91600876D02*
X83860514Y-91553257D01*
X83860514Y-91553257D02*
X83765276Y-91505638D01*
X83765276Y-91505638D02*
X83670038Y-91410400D01*
X83670038Y-91410400D02*
X83622419Y-91267543D01*
X83622419Y-91267543D02*
X83622419Y-91172305D01*
X83622419Y-91172305D02*
X83670038Y-91029448D01*
X83670038Y-91029448D02*
X83717657Y-90981829D01*
X83622419Y-90267543D02*
X84336704Y-90267543D01*
X84336704Y-90267543D02*
X84479561Y-90315162D01*
X84479561Y-90315162D02*
X84574800Y-90410400D01*
X84574800Y-90410400D02*
X84622419Y-90553257D01*
X84622419Y-90553257D02*
X84622419Y-90648495D01*
X84622419Y-89315162D02*
X84622419Y-89791352D01*
X84622419Y-89791352D02*
X83622419Y-89791352D01*
X84527180Y-88410400D02*
X84574800Y-88458019D01*
X84574800Y-88458019D02*
X84622419Y-88600876D01*
X84622419Y-88600876D02*
X84622419Y-88696114D01*
X84622419Y-88696114D02*
X84574800Y-88838971D01*
X84574800Y-88838971D02*
X84479561Y-88934209D01*
X84479561Y-88934209D02*
X84384323Y-88981828D01*
X84384323Y-88981828D02*
X84193847Y-89029447D01*
X84193847Y-89029447D02*
X84050990Y-89029447D01*
X84050990Y-89029447D02*
X83860514Y-88981828D01*
X83860514Y-88981828D02*
X83765276Y-88934209D01*
X83765276Y-88934209D02*
X83670038Y-88838971D01*
X83670038Y-88838971D02*
X83622419Y-88696114D01*
X83622419Y-88696114D02*
X83622419Y-88600876D01*
X83622419Y-88600876D02*
X83670038Y-88458019D01*
X83670038Y-88458019D02*
X83717657Y-88410400D01*
X83622419Y-87696114D02*
X84336704Y-87696114D01*
X84336704Y-87696114D02*
X84479561Y-87743733D01*
X84479561Y-87743733D02*
X84574800Y-87838971D01*
X84574800Y-87838971D02*
X84622419Y-87981828D01*
X84622419Y-87981828D02*
X84622419Y-88077066D01*
X84622419Y-86743733D02*
X84622419Y-87219923D01*
X84622419Y-87219923D02*
X83622419Y-87219923D01*
X84527180Y-85838971D02*
X84574800Y-85886590D01*
X84574800Y-85886590D02*
X84622419Y-86029447D01*
X84622419Y-86029447D02*
X84622419Y-86124685D01*
X84622419Y-86124685D02*
X84574800Y-86267542D01*
X84574800Y-86267542D02*
X84479561Y-86362780D01*
X84479561Y-86362780D02*
X84384323Y-86410399D01*
X84384323Y-86410399D02*
X84193847Y-86458018D01*
X84193847Y-86458018D02*
X84050990Y-86458018D01*
X84050990Y-86458018D02*
X83860514Y-86410399D01*
X83860514Y-86410399D02*
X83765276Y-86362780D01*
X83765276Y-86362780D02*
X83670038Y-86267542D01*
X83670038Y-86267542D02*
X83622419Y-86124685D01*
X83622419Y-86124685D02*
X83622419Y-86029447D01*
X83622419Y-86029447D02*
X83670038Y-85886590D01*
X83670038Y-85886590D02*
X83717657Y-85838971D01*
D11*
X84033333Y-74954819D02*
X83557143Y-74954819D01*
X83557143Y-74954819D02*
X83557143Y-73954819D01*
X84890476Y-74954819D02*
X84319048Y-74954819D01*
X84604762Y-74954819D02*
X84604762Y-73954819D01*
X84604762Y-73954819D02*
X84509524Y-74097676D01*
X84509524Y-74097676D02*
X84414286Y-74192914D01*
X84414286Y-74192914D02*
X84319048Y-74240533D01*
X84454819Y-51166666D02*
X84454819Y-51642856D01*
X84454819Y-51642856D02*
X83454819Y-51642856D01*
X83550057Y-50880951D02*
X83502438Y-50833332D01*
X83502438Y-50833332D02*
X83454819Y-50738094D01*
X83454819Y-50738094D02*
X83454819Y-50499999D01*
X83454819Y-50499999D02*
X83502438Y-50404761D01*
X83502438Y-50404761D02*
X83550057Y-50357142D01*
X83550057Y-50357142D02*
X83645295Y-50309523D01*
X83645295Y-50309523D02*
X83740533Y-50309523D01*
X83740533Y-50309523D02*
X83883390Y-50357142D01*
X83883390Y-50357142D02*
X84454819Y-50928570D01*
X84454819Y-50928570D02*
X84454819Y-50309523D01*
X66954819Y-72666666D02*
X66478628Y-72999999D01*
X66954819Y-73238094D02*
X65954819Y-73238094D01*
X65954819Y-73238094D02*
X65954819Y-72857142D01*
X65954819Y-72857142D02*
X66002438Y-72761904D01*
X66002438Y-72761904D02*
X66050057Y-72714285D01*
X66050057Y-72714285D02*
X66145295Y-72666666D01*
X66145295Y-72666666D02*
X66288152Y-72666666D01*
X66288152Y-72666666D02*
X66383390Y-72714285D01*
X66383390Y-72714285D02*
X66431009Y-72761904D01*
X66431009Y-72761904D02*
X66478628Y-72857142D01*
X66478628Y-72857142D02*
X66478628Y-73238094D01*
X66954819Y-71714285D02*
X66954819Y-72285713D01*
X66954819Y-71999999D02*
X65954819Y-71999999D01*
X65954819Y-71999999D02*
X66097676Y-72095237D01*
X66097676Y-72095237D02*
X66192914Y-72190475D01*
X66192914Y-72190475D02*
X66240533Y-72285713D01*
X74833333Y-67304819D02*
X74500000Y-66828628D01*
X74261905Y-67304819D02*
X74261905Y-66304819D01*
X74261905Y-66304819D02*
X74642857Y-66304819D01*
X74642857Y-66304819D02*
X74738095Y-66352438D01*
X74738095Y-66352438D02*
X74785714Y-66400057D01*
X74785714Y-66400057D02*
X74833333Y-66495295D01*
X74833333Y-66495295D02*
X74833333Y-66638152D01*
X74833333Y-66638152D02*
X74785714Y-66733390D01*
X74785714Y-66733390D02*
X74738095Y-66781009D01*
X74738095Y-66781009D02*
X74642857Y-66828628D01*
X74642857Y-66828628D02*
X74261905Y-66828628D01*
X75214286Y-66400057D02*
X75261905Y-66352438D01*
X75261905Y-66352438D02*
X75357143Y-66304819D01*
X75357143Y-66304819D02*
X75595238Y-66304819D01*
X75595238Y-66304819D02*
X75690476Y-66352438D01*
X75690476Y-66352438D02*
X75738095Y-66400057D01*
X75738095Y-66400057D02*
X75785714Y-66495295D01*
X75785714Y-66495295D02*
X75785714Y-66590533D01*
X75785714Y-66590533D02*
X75738095Y-66733390D01*
X75738095Y-66733390D02*
X75166667Y-67304819D01*
X75166667Y-67304819D02*
X75785714Y-67304819D01*
X73658333Y-58954819D02*
X73325000Y-58478628D01*
X73086905Y-58954819D02*
X73086905Y-57954819D01*
X73086905Y-57954819D02*
X73467857Y-57954819D01*
X73467857Y-57954819D02*
X73563095Y-58002438D01*
X73563095Y-58002438D02*
X73610714Y-58050057D01*
X73610714Y-58050057D02*
X73658333Y-58145295D01*
X73658333Y-58145295D02*
X73658333Y-58288152D01*
X73658333Y-58288152D02*
X73610714Y-58383390D01*
X73610714Y-58383390D02*
X73563095Y-58431009D01*
X73563095Y-58431009D02*
X73467857Y-58478628D01*
X73467857Y-58478628D02*
X73086905Y-58478628D01*
X73991667Y-57954819D02*
X74658333Y-57954819D01*
X74658333Y-57954819D02*
X74229762Y-58954819D01*
X77920833Y-74454819D02*
X77587500Y-73978628D01*
X77349405Y-74454819D02*
X77349405Y-73454819D01*
X77349405Y-73454819D02*
X77730357Y-73454819D01*
X77730357Y-73454819D02*
X77825595Y-73502438D01*
X77825595Y-73502438D02*
X77873214Y-73550057D01*
X77873214Y-73550057D02*
X77920833Y-73645295D01*
X77920833Y-73645295D02*
X77920833Y-73788152D01*
X77920833Y-73788152D02*
X77873214Y-73883390D01*
X77873214Y-73883390D02*
X77825595Y-73931009D01*
X77825595Y-73931009D02*
X77730357Y-73978628D01*
X77730357Y-73978628D02*
X77349405Y-73978628D01*
X78825595Y-73454819D02*
X78349405Y-73454819D01*
X78349405Y-73454819D02*
X78301786Y-73931009D01*
X78301786Y-73931009D02*
X78349405Y-73883390D01*
X78349405Y-73883390D02*
X78444643Y-73835771D01*
X78444643Y-73835771D02*
X78682738Y-73835771D01*
X78682738Y-73835771D02*
X78777976Y-73883390D01*
X78777976Y-73883390D02*
X78825595Y-73931009D01*
X78825595Y-73931009D02*
X78873214Y-74026247D01*
X78873214Y-74026247D02*
X78873214Y-74264342D01*
X78873214Y-74264342D02*
X78825595Y-74359580D01*
X78825595Y-74359580D02*
X78777976Y-74407200D01*
X78777976Y-74407200D02*
X78682738Y-74454819D01*
X78682738Y-74454819D02*
X78444643Y-74454819D01*
X78444643Y-74454819D02*
X78349405Y-74407200D01*
X78349405Y-74407200D02*
X78301786Y-74359580D01*
X82333333Y-64804819D02*
X82000000Y-64328628D01*
X81761905Y-64804819D02*
X81761905Y-63804819D01*
X81761905Y-63804819D02*
X82142857Y-63804819D01*
X82142857Y-63804819D02*
X82238095Y-63852438D01*
X82238095Y-63852438D02*
X82285714Y-63900057D01*
X82285714Y-63900057D02*
X82333333Y-63995295D01*
X82333333Y-63995295D02*
X82333333Y-64138152D01*
X82333333Y-64138152D02*
X82285714Y-64233390D01*
X82285714Y-64233390D02*
X82238095Y-64281009D01*
X82238095Y-64281009D02*
X82142857Y-64328628D01*
X82142857Y-64328628D02*
X81761905Y-64328628D01*
X83190476Y-64138152D02*
X83190476Y-64804819D01*
X82952381Y-63757200D02*
X82714286Y-64471485D01*
X82714286Y-64471485D02*
X83333333Y-64471485D01*
X65738095Y-90254819D02*
X65738095Y-89254819D01*
X65738095Y-89731009D02*
X66309523Y-89731009D01*
X66309523Y-90254819D02*
X66309523Y-89254819D01*
X66690476Y-89254819D02*
X67309523Y-89254819D01*
X67309523Y-89254819D02*
X66976190Y-89635771D01*
X66976190Y-89635771D02*
X67119047Y-89635771D01*
X67119047Y-89635771D02*
X67214285Y-89683390D01*
X67214285Y-89683390D02*
X67261904Y-89731009D01*
X67261904Y-89731009D02*
X67309523Y-89826247D01*
X67309523Y-89826247D02*
X67309523Y-90064342D01*
X67309523Y-90064342D02*
X67261904Y-90159580D01*
X67261904Y-90159580D02*
X67214285Y-90207200D01*
X67214285Y-90207200D02*
X67119047Y-90254819D01*
X67119047Y-90254819D02*
X66833333Y-90254819D01*
X66833333Y-90254819D02*
X66738095Y-90207200D01*
X66738095Y-90207200D02*
X66690476Y-90159580D01*
X93333333Y-65359580D02*
X93285714Y-65407200D01*
X93285714Y-65407200D02*
X93142857Y-65454819D01*
X93142857Y-65454819D02*
X93047619Y-65454819D01*
X93047619Y-65454819D02*
X92904762Y-65407200D01*
X92904762Y-65407200D02*
X92809524Y-65311961D01*
X92809524Y-65311961D02*
X92761905Y-65216723D01*
X92761905Y-65216723D02*
X92714286Y-65026247D01*
X92714286Y-65026247D02*
X92714286Y-64883390D01*
X92714286Y-64883390D02*
X92761905Y-64692914D01*
X92761905Y-64692914D02*
X92809524Y-64597676D01*
X92809524Y-64597676D02*
X92904762Y-64502438D01*
X92904762Y-64502438D02*
X93047619Y-64454819D01*
X93047619Y-64454819D02*
X93142857Y-64454819D01*
X93142857Y-64454819D02*
X93285714Y-64502438D01*
X93285714Y-64502438D02*
X93333333Y-64550057D01*
X93714286Y-64550057D02*
X93761905Y-64502438D01*
X93761905Y-64502438D02*
X93857143Y-64454819D01*
X93857143Y-64454819D02*
X94095238Y-64454819D01*
X94095238Y-64454819D02*
X94190476Y-64502438D01*
X94190476Y-64502438D02*
X94238095Y-64550057D01*
X94238095Y-64550057D02*
X94285714Y-64645295D01*
X94285714Y-64645295D02*
X94285714Y-64740533D01*
X94285714Y-64740533D02*
X94238095Y-64883390D01*
X94238095Y-64883390D02*
X93666667Y-65454819D01*
X93666667Y-65454819D02*
X94285714Y-65454819D01*
X74833333Y-73454819D02*
X74500000Y-72978628D01*
X74261905Y-73454819D02*
X74261905Y-72454819D01*
X74261905Y-72454819D02*
X74642857Y-72454819D01*
X74642857Y-72454819D02*
X74738095Y-72502438D01*
X74738095Y-72502438D02*
X74785714Y-72550057D01*
X74785714Y-72550057D02*
X74833333Y-72645295D01*
X74833333Y-72645295D02*
X74833333Y-72788152D01*
X74833333Y-72788152D02*
X74785714Y-72883390D01*
X74785714Y-72883390D02*
X74738095Y-72931009D01*
X74738095Y-72931009D02*
X74642857Y-72978628D01*
X74642857Y-72978628D02*
X74261905Y-72978628D01*
X75166667Y-72454819D02*
X75785714Y-72454819D01*
X75785714Y-72454819D02*
X75452381Y-72835771D01*
X75452381Y-72835771D02*
X75595238Y-72835771D01*
X75595238Y-72835771D02*
X75690476Y-72883390D01*
X75690476Y-72883390D02*
X75738095Y-72931009D01*
X75738095Y-72931009D02*
X75785714Y-73026247D01*
X75785714Y-73026247D02*
X75785714Y-73264342D01*
X75785714Y-73264342D02*
X75738095Y-73359580D01*
X75738095Y-73359580D02*
X75690476Y-73407200D01*
X75690476Y-73407200D02*
X75595238Y-73454819D01*
X75595238Y-73454819D02*
X75309524Y-73454819D01*
X75309524Y-73454819D02*
X75214286Y-73407200D01*
X75214286Y-73407200D02*
X75166667Y-73359580D01*
X76238095Y-65454819D02*
X76238095Y-66264342D01*
X76238095Y-66264342D02*
X76285714Y-66359580D01*
X76285714Y-66359580D02*
X76333333Y-66407200D01*
X76333333Y-66407200D02*
X76428571Y-66454819D01*
X76428571Y-66454819D02*
X76619047Y-66454819D01*
X76619047Y-66454819D02*
X76714285Y-66407200D01*
X76714285Y-66407200D02*
X76761904Y-66359580D01*
X76761904Y-66359580D02*
X76809523Y-66264342D01*
X76809523Y-66264342D02*
X76809523Y-65454819D01*
X77190476Y-65454819D02*
X77809523Y-65454819D01*
X77809523Y-65454819D02*
X77476190Y-65835771D01*
X77476190Y-65835771D02*
X77619047Y-65835771D01*
X77619047Y-65835771D02*
X77714285Y-65883390D01*
X77714285Y-65883390D02*
X77761904Y-65931009D01*
X77761904Y-65931009D02*
X77809523Y-66026247D01*
X77809523Y-66026247D02*
X77809523Y-66264342D01*
X77809523Y-66264342D02*
X77761904Y-66359580D01*
X77761904Y-66359580D02*
X77714285Y-66407200D01*
X77714285Y-66407200D02*
X77619047Y-66454819D01*
X77619047Y-66454819D02*
X77333333Y-66454819D01*
X77333333Y-66454819D02*
X77238095Y-66407200D01*
X77238095Y-66407200D02*
X77190476Y-66359580D01*
X85833333Y-68559580D02*
X85785714Y-68607200D01*
X85785714Y-68607200D02*
X85642857Y-68654819D01*
X85642857Y-68654819D02*
X85547619Y-68654819D01*
X85547619Y-68654819D02*
X85404762Y-68607200D01*
X85404762Y-68607200D02*
X85309524Y-68511961D01*
X85309524Y-68511961D02*
X85261905Y-68416723D01*
X85261905Y-68416723D02*
X85214286Y-68226247D01*
X85214286Y-68226247D02*
X85214286Y-68083390D01*
X85214286Y-68083390D02*
X85261905Y-67892914D01*
X85261905Y-67892914D02*
X85309524Y-67797676D01*
X85309524Y-67797676D02*
X85404762Y-67702438D01*
X85404762Y-67702438D02*
X85547619Y-67654819D01*
X85547619Y-67654819D02*
X85642857Y-67654819D01*
X85642857Y-67654819D02*
X85785714Y-67702438D01*
X85785714Y-67702438D02*
X85833333Y-67750057D01*
X86785714Y-68654819D02*
X86214286Y-68654819D01*
X86500000Y-68654819D02*
X86500000Y-67654819D01*
X86500000Y-67654819D02*
X86404762Y-67797676D01*
X86404762Y-67797676D02*
X86309524Y-67892914D01*
X86309524Y-67892914D02*
X86214286Y-67940533D01*
X75750595Y-50004819D02*
X75750595Y-50814342D01*
X75750595Y-50814342D02*
X75798214Y-50909580D01*
X75798214Y-50909580D02*
X75845833Y-50957200D01*
X75845833Y-50957200D02*
X75941071Y-51004819D01*
X75941071Y-51004819D02*
X76131547Y-51004819D01*
X76131547Y-51004819D02*
X76226785Y-50957200D01*
X76226785Y-50957200D02*
X76274404Y-50909580D01*
X76274404Y-50909580D02*
X76322023Y-50814342D01*
X76322023Y-50814342D02*
X76322023Y-50004819D01*
X76750595Y-50100057D02*
X76798214Y-50052438D01*
X76798214Y-50052438D02*
X76893452Y-50004819D01*
X76893452Y-50004819D02*
X77131547Y-50004819D01*
X77131547Y-50004819D02*
X77226785Y-50052438D01*
X77226785Y-50052438D02*
X77274404Y-50100057D01*
X77274404Y-50100057D02*
X77322023Y-50195295D01*
X77322023Y-50195295D02*
X77322023Y-50290533D01*
X77322023Y-50290533D02*
X77274404Y-50433390D01*
X77274404Y-50433390D02*
X76702976Y-51004819D01*
X76702976Y-51004819D02*
X77322023Y-51004819D01*
X103238095Y-58654819D02*
X103238095Y-57654819D01*
X103238095Y-58131009D02*
X103809523Y-58131009D01*
X103809523Y-58654819D02*
X103809523Y-57654819D01*
X104238095Y-57750057D02*
X104285714Y-57702438D01*
X104285714Y-57702438D02*
X104380952Y-57654819D01*
X104380952Y-57654819D02*
X104619047Y-57654819D01*
X104619047Y-57654819D02*
X104714285Y-57702438D01*
X104714285Y-57702438D02*
X104761904Y-57750057D01*
X104761904Y-57750057D02*
X104809523Y-57845295D01*
X104809523Y-57845295D02*
X104809523Y-57940533D01*
X104809523Y-57940533D02*
X104761904Y-58083390D01*
X104761904Y-58083390D02*
X104190476Y-58654819D01*
X104190476Y-58654819D02*
X104809523Y-58654819D01*
X71679580Y-54166666D02*
X71727200Y-54214285D01*
X71727200Y-54214285D02*
X71774819Y-54357142D01*
X71774819Y-54357142D02*
X71774819Y-54452380D01*
X71774819Y-54452380D02*
X71727200Y-54595237D01*
X71727200Y-54595237D02*
X71631961Y-54690475D01*
X71631961Y-54690475D02*
X71536723Y-54738094D01*
X71536723Y-54738094D02*
X71346247Y-54785713D01*
X71346247Y-54785713D02*
X71203390Y-54785713D01*
X71203390Y-54785713D02*
X71012914Y-54738094D01*
X71012914Y-54738094D02*
X70917676Y-54690475D01*
X70917676Y-54690475D02*
X70822438Y-54595237D01*
X70822438Y-54595237D02*
X70774819Y-54452380D01*
X70774819Y-54452380D02*
X70774819Y-54357142D01*
X70774819Y-54357142D02*
X70822438Y-54214285D01*
X70822438Y-54214285D02*
X70870057Y-54166666D01*
X70774819Y-53833332D02*
X70774819Y-53214285D01*
X70774819Y-53214285D02*
X71155771Y-53547618D01*
X71155771Y-53547618D02*
X71155771Y-53404761D01*
X71155771Y-53404761D02*
X71203390Y-53309523D01*
X71203390Y-53309523D02*
X71251009Y-53261904D01*
X71251009Y-53261904D02*
X71346247Y-53214285D01*
X71346247Y-53214285D02*
X71584342Y-53214285D01*
X71584342Y-53214285D02*
X71679580Y-53261904D01*
X71679580Y-53261904D02*
X71727200Y-53309523D01*
X71727200Y-53309523D02*
X71774819Y-53404761D01*
X71774819Y-53404761D02*
X71774819Y-53690475D01*
X71774819Y-53690475D02*
X71727200Y-53785713D01*
X71727200Y-53785713D02*
X71679580Y-53833332D01*
X66166666Y-75044819D02*
X66166666Y-75759104D01*
X66166666Y-75759104D02*
X66119047Y-75901961D01*
X66119047Y-75901961D02*
X66023809Y-75997200D01*
X66023809Y-75997200D02*
X65880952Y-76044819D01*
X65880952Y-76044819D02*
X65785714Y-76044819D01*
X66595238Y-75140057D02*
X66642857Y-75092438D01*
X66642857Y-75092438D02*
X66738095Y-75044819D01*
X66738095Y-75044819D02*
X66976190Y-75044819D01*
X66976190Y-75044819D02*
X67071428Y-75092438D01*
X67071428Y-75092438D02*
X67119047Y-75140057D01*
X67119047Y-75140057D02*
X67166666Y-75235295D01*
X67166666Y-75235295D02*
X67166666Y-75330533D01*
X67166666Y-75330533D02*
X67119047Y-75473390D01*
X67119047Y-75473390D02*
X66547619Y-76044819D01*
X66547619Y-76044819D02*
X67166666Y-76044819D01*
X78838095Y-65854819D02*
X78838095Y-66664342D01*
X78838095Y-66664342D02*
X78885714Y-66759580D01*
X78885714Y-66759580D02*
X78933333Y-66807200D01*
X78933333Y-66807200D02*
X79028571Y-66854819D01*
X79028571Y-66854819D02*
X79219047Y-66854819D01*
X79219047Y-66854819D02*
X79314285Y-66807200D01*
X79314285Y-66807200D02*
X79361904Y-66759580D01*
X79361904Y-66759580D02*
X79409523Y-66664342D01*
X79409523Y-66664342D02*
X79409523Y-65854819D01*
X80409523Y-66854819D02*
X79838095Y-66854819D01*
X80123809Y-66854819D02*
X80123809Y-65854819D01*
X80123809Y-65854819D02*
X80028571Y-65997676D01*
X80028571Y-65997676D02*
X79933333Y-66092914D01*
X79933333Y-66092914D02*
X79838095Y-66140533D01*
X85833333Y-52179580D02*
X85785714Y-52227200D01*
X85785714Y-52227200D02*
X85642857Y-52274819D01*
X85642857Y-52274819D02*
X85547619Y-52274819D01*
X85547619Y-52274819D02*
X85404762Y-52227200D01*
X85404762Y-52227200D02*
X85309524Y-52131961D01*
X85309524Y-52131961D02*
X85261905Y-52036723D01*
X85261905Y-52036723D02*
X85214286Y-51846247D01*
X85214286Y-51846247D02*
X85214286Y-51703390D01*
X85214286Y-51703390D02*
X85261905Y-51512914D01*
X85261905Y-51512914D02*
X85309524Y-51417676D01*
X85309524Y-51417676D02*
X85404762Y-51322438D01*
X85404762Y-51322438D02*
X85547619Y-51274819D01*
X85547619Y-51274819D02*
X85642857Y-51274819D01*
X85642857Y-51274819D02*
X85785714Y-51322438D01*
X85785714Y-51322438D02*
X85833333Y-51370057D01*
X86166667Y-51274819D02*
X86833333Y-51274819D01*
X86833333Y-51274819D02*
X86404762Y-52274819D01*
X70359580Y-63166666D02*
X70407200Y-63214285D01*
X70407200Y-63214285D02*
X70454819Y-63357142D01*
X70454819Y-63357142D02*
X70454819Y-63452380D01*
X70454819Y-63452380D02*
X70407200Y-63595237D01*
X70407200Y-63595237D02*
X70311961Y-63690475D01*
X70311961Y-63690475D02*
X70216723Y-63738094D01*
X70216723Y-63738094D02*
X70026247Y-63785713D01*
X70026247Y-63785713D02*
X69883390Y-63785713D01*
X69883390Y-63785713D02*
X69692914Y-63738094D01*
X69692914Y-63738094D02*
X69597676Y-63690475D01*
X69597676Y-63690475D02*
X69502438Y-63595237D01*
X69502438Y-63595237D02*
X69454819Y-63452380D01*
X69454819Y-63452380D02*
X69454819Y-63357142D01*
X69454819Y-63357142D02*
X69502438Y-63214285D01*
X69502438Y-63214285D02*
X69550057Y-63166666D01*
X69788152Y-62309523D02*
X70454819Y-62309523D01*
X69407200Y-62547618D02*
X70121485Y-62785713D01*
X70121485Y-62785713D02*
X70121485Y-62166666D01*
X105954819Y-84238094D02*
X104954819Y-84238094D01*
X104954819Y-84238094D02*
X104954819Y-83999999D01*
X104954819Y-83999999D02*
X105002438Y-83857142D01*
X105002438Y-83857142D02*
X105097676Y-83761904D01*
X105097676Y-83761904D02*
X105192914Y-83714285D01*
X105192914Y-83714285D02*
X105383390Y-83666666D01*
X105383390Y-83666666D02*
X105526247Y-83666666D01*
X105526247Y-83666666D02*
X105716723Y-83714285D01*
X105716723Y-83714285D02*
X105811961Y-83761904D01*
X105811961Y-83761904D02*
X105907200Y-83857142D01*
X105907200Y-83857142D02*
X105954819Y-83999999D01*
X105954819Y-83999999D02*
X105954819Y-84238094D01*
X105954819Y-82714285D02*
X105954819Y-83285713D01*
X105954819Y-82999999D02*
X104954819Y-82999999D01*
X104954819Y-82999999D02*
X105097676Y-83095237D01*
X105097676Y-83095237D02*
X105192914Y-83190475D01*
X105192914Y-83190475D02*
X105240533Y-83285713D01*
X63738095Y-63037200D02*
X63880952Y-63084819D01*
X63880952Y-63084819D02*
X64119047Y-63084819D01*
X64119047Y-63084819D02*
X64214285Y-63037200D01*
X64214285Y-63037200D02*
X64261904Y-62989580D01*
X64261904Y-62989580D02*
X64309523Y-62894342D01*
X64309523Y-62894342D02*
X64309523Y-62799104D01*
X64309523Y-62799104D02*
X64261904Y-62703866D01*
X64261904Y-62703866D02*
X64214285Y-62656247D01*
X64214285Y-62656247D02*
X64119047Y-62608628D01*
X64119047Y-62608628D02*
X63928571Y-62561009D01*
X63928571Y-62561009D02*
X63833333Y-62513390D01*
X63833333Y-62513390D02*
X63785714Y-62465771D01*
X63785714Y-62465771D02*
X63738095Y-62370533D01*
X63738095Y-62370533D02*
X63738095Y-62275295D01*
X63738095Y-62275295D02*
X63785714Y-62180057D01*
X63785714Y-62180057D02*
X63833333Y-62132438D01*
X63833333Y-62132438D02*
X63928571Y-62084819D01*
X63928571Y-62084819D02*
X64166666Y-62084819D01*
X64166666Y-62084819D02*
X64309523Y-62132438D01*
X65309523Y-62989580D02*
X65261904Y-63037200D01*
X65261904Y-63037200D02*
X65119047Y-63084819D01*
X65119047Y-63084819D02*
X65023809Y-63084819D01*
X65023809Y-63084819D02*
X64880952Y-63037200D01*
X64880952Y-63037200D02*
X64785714Y-62941961D01*
X64785714Y-62941961D02*
X64738095Y-62846723D01*
X64738095Y-62846723D02*
X64690476Y-62656247D01*
X64690476Y-62656247D02*
X64690476Y-62513390D01*
X64690476Y-62513390D02*
X64738095Y-62322914D01*
X64738095Y-62322914D02*
X64785714Y-62227676D01*
X64785714Y-62227676D02*
X64880952Y-62132438D01*
X64880952Y-62132438D02*
X65023809Y-62084819D01*
X65023809Y-62084819D02*
X65119047Y-62084819D01*
X65119047Y-62084819D02*
X65261904Y-62132438D01*
X65261904Y-62132438D02*
X65309523Y-62180057D01*
X66261904Y-63084819D02*
X65690476Y-63084819D01*
X65976190Y-63084819D02*
X65976190Y-62084819D01*
X65976190Y-62084819D02*
X65880952Y-62227676D01*
X65880952Y-62227676D02*
X65785714Y-62322914D01*
X65785714Y-62322914D02*
X65690476Y-62370533D01*
X65738095Y-58654819D02*
X65738095Y-57654819D01*
X65738095Y-58131009D02*
X66309523Y-58131009D01*
X66309523Y-58654819D02*
X66309523Y-57654819D01*
X67309523Y-58654819D02*
X66738095Y-58654819D01*
X67023809Y-58654819D02*
X67023809Y-57654819D01*
X67023809Y-57654819D02*
X66928571Y-57797676D01*
X66928571Y-57797676D02*
X66833333Y-57892914D01*
X66833333Y-57892914D02*
X66738095Y-57940533D01*
X83833333Y-56359580D02*
X83785714Y-56407200D01*
X83785714Y-56407200D02*
X83642857Y-56454819D01*
X83642857Y-56454819D02*
X83547619Y-56454819D01*
X83547619Y-56454819D02*
X83404762Y-56407200D01*
X83404762Y-56407200D02*
X83309524Y-56311961D01*
X83309524Y-56311961D02*
X83261905Y-56216723D01*
X83261905Y-56216723D02*
X83214286Y-56026247D01*
X83214286Y-56026247D02*
X83214286Y-55883390D01*
X83214286Y-55883390D02*
X83261905Y-55692914D01*
X83261905Y-55692914D02*
X83309524Y-55597676D01*
X83309524Y-55597676D02*
X83404762Y-55502438D01*
X83404762Y-55502438D02*
X83547619Y-55454819D01*
X83547619Y-55454819D02*
X83642857Y-55454819D01*
X83642857Y-55454819D02*
X83785714Y-55502438D01*
X83785714Y-55502438D02*
X83833333Y-55550057D01*
X84738095Y-55454819D02*
X84261905Y-55454819D01*
X84261905Y-55454819D02*
X84214286Y-55931009D01*
X84214286Y-55931009D02*
X84261905Y-55883390D01*
X84261905Y-55883390D02*
X84357143Y-55835771D01*
X84357143Y-55835771D02*
X84595238Y-55835771D01*
X84595238Y-55835771D02*
X84690476Y-55883390D01*
X84690476Y-55883390D02*
X84738095Y-55931009D01*
X84738095Y-55931009D02*
X84785714Y-56026247D01*
X84785714Y-56026247D02*
X84785714Y-56264342D01*
X84785714Y-56264342D02*
X84738095Y-56359580D01*
X84738095Y-56359580D02*
X84690476Y-56407200D01*
X84690476Y-56407200D02*
X84595238Y-56454819D01*
X84595238Y-56454819D02*
X84357143Y-56454819D01*
X84357143Y-56454819D02*
X84261905Y-56407200D01*
X84261905Y-56407200D02*
X84214286Y-56359580D01*
X93969761Y-67075057D02*
X93874523Y-67027438D01*
X93874523Y-67027438D02*
X93779285Y-66932200D01*
X93779285Y-66932200D02*
X93636428Y-66789342D01*
X93636428Y-66789342D02*
X93541190Y-66741723D01*
X93541190Y-66741723D02*
X93445952Y-66741723D01*
X93493571Y-66979819D02*
X93398333Y-66932200D01*
X93398333Y-66932200D02*
X93303095Y-66836961D01*
X93303095Y-66836961D02*
X93255476Y-66646485D01*
X93255476Y-66646485D02*
X93255476Y-66313152D01*
X93255476Y-66313152D02*
X93303095Y-66122676D01*
X93303095Y-66122676D02*
X93398333Y-66027438D01*
X93398333Y-66027438D02*
X93493571Y-65979819D01*
X93493571Y-65979819D02*
X93684047Y-65979819D01*
X93684047Y-65979819D02*
X93779285Y-66027438D01*
X93779285Y-66027438D02*
X93874523Y-66122676D01*
X93874523Y-66122676D02*
X93922142Y-66313152D01*
X93922142Y-66313152D02*
X93922142Y-66646485D01*
X93922142Y-66646485D02*
X93874523Y-66836961D01*
X93874523Y-66836961D02*
X93779285Y-66932200D01*
X93779285Y-66932200D02*
X93684047Y-66979819D01*
X93684047Y-66979819D02*
X93493571Y-66979819D01*
X94874523Y-66979819D02*
X94303095Y-66979819D01*
X94588809Y-66979819D02*
X94588809Y-65979819D01*
X94588809Y-65979819D02*
X94493571Y-66122676D01*
X94493571Y-66122676D02*
X94398333Y-66217914D01*
X94398333Y-66217914D02*
X94303095Y-66265533D01*
X83833333Y-58954819D02*
X83500000Y-58478628D01*
X83261905Y-58954819D02*
X83261905Y-57954819D01*
X83261905Y-57954819D02*
X83642857Y-57954819D01*
X83642857Y-57954819D02*
X83738095Y-58002438D01*
X83738095Y-58002438D02*
X83785714Y-58050057D01*
X83785714Y-58050057D02*
X83833333Y-58145295D01*
X83833333Y-58145295D02*
X83833333Y-58288152D01*
X83833333Y-58288152D02*
X83785714Y-58383390D01*
X83785714Y-58383390D02*
X83738095Y-58431009D01*
X83738095Y-58431009D02*
X83642857Y-58478628D01*
X83642857Y-58478628D02*
X83261905Y-58478628D01*
X84690476Y-57954819D02*
X84500000Y-57954819D01*
X84500000Y-57954819D02*
X84404762Y-58002438D01*
X84404762Y-58002438D02*
X84357143Y-58050057D01*
X84357143Y-58050057D02*
X84261905Y-58192914D01*
X84261905Y-58192914D02*
X84214286Y-58383390D01*
X84214286Y-58383390D02*
X84214286Y-58764342D01*
X84214286Y-58764342D02*
X84261905Y-58859580D01*
X84261905Y-58859580D02*
X84309524Y-58907200D01*
X84309524Y-58907200D02*
X84404762Y-58954819D01*
X84404762Y-58954819D02*
X84595238Y-58954819D01*
X84595238Y-58954819D02*
X84690476Y-58907200D01*
X84690476Y-58907200D02*
X84738095Y-58859580D01*
X84738095Y-58859580D02*
X84785714Y-58764342D01*
X84785714Y-58764342D02*
X84785714Y-58526247D01*
X84785714Y-58526247D02*
X84738095Y-58431009D01*
X84738095Y-58431009D02*
X84690476Y-58383390D01*
X84690476Y-58383390D02*
X84595238Y-58335771D01*
X84595238Y-58335771D02*
X84404762Y-58335771D01*
X84404762Y-58335771D02*
X84309524Y-58383390D01*
X84309524Y-58383390D02*
X84261905Y-58431009D01*
X84261905Y-58431009D02*
X84214286Y-58526247D01*
X73783333Y-56859580D02*
X73735714Y-56907200D01*
X73735714Y-56907200D02*
X73592857Y-56954819D01*
X73592857Y-56954819D02*
X73497619Y-56954819D01*
X73497619Y-56954819D02*
X73354762Y-56907200D01*
X73354762Y-56907200D02*
X73259524Y-56811961D01*
X73259524Y-56811961D02*
X73211905Y-56716723D01*
X73211905Y-56716723D02*
X73164286Y-56526247D01*
X73164286Y-56526247D02*
X73164286Y-56383390D01*
X73164286Y-56383390D02*
X73211905Y-56192914D01*
X73211905Y-56192914D02*
X73259524Y-56097676D01*
X73259524Y-56097676D02*
X73354762Y-56002438D01*
X73354762Y-56002438D02*
X73497619Y-55954819D01*
X73497619Y-55954819D02*
X73592857Y-55954819D01*
X73592857Y-55954819D02*
X73735714Y-56002438D01*
X73735714Y-56002438D02*
X73783333Y-56050057D01*
X74640476Y-55954819D02*
X74450000Y-55954819D01*
X74450000Y-55954819D02*
X74354762Y-56002438D01*
X74354762Y-56002438D02*
X74307143Y-56050057D01*
X74307143Y-56050057D02*
X74211905Y-56192914D01*
X74211905Y-56192914D02*
X74164286Y-56383390D01*
X74164286Y-56383390D02*
X74164286Y-56764342D01*
X74164286Y-56764342D02*
X74211905Y-56859580D01*
X74211905Y-56859580D02*
X74259524Y-56907200D01*
X74259524Y-56907200D02*
X74354762Y-56954819D01*
X74354762Y-56954819D02*
X74545238Y-56954819D01*
X74545238Y-56954819D02*
X74640476Y-56907200D01*
X74640476Y-56907200D02*
X74688095Y-56859580D01*
X74688095Y-56859580D02*
X74735714Y-56764342D01*
X74735714Y-56764342D02*
X74735714Y-56526247D01*
X74735714Y-56526247D02*
X74688095Y-56431009D01*
X74688095Y-56431009D02*
X74640476Y-56383390D01*
X74640476Y-56383390D02*
X74545238Y-56335771D01*
X74545238Y-56335771D02*
X74354762Y-56335771D01*
X74354762Y-56335771D02*
X74259524Y-56383390D01*
X74259524Y-56383390D02*
X74211905Y-56431009D01*
X74211905Y-56431009D02*
X74164286Y-56526247D01*
X105391666Y-72474819D02*
X105391666Y-73189104D01*
X105391666Y-73189104D02*
X105344047Y-73331961D01*
X105344047Y-73331961D02*
X105248809Y-73427200D01*
X105248809Y-73427200D02*
X105105952Y-73474819D01*
X105105952Y-73474819D02*
X105010714Y-73474819D01*
X106391666Y-73474819D02*
X105820238Y-73474819D01*
X106105952Y-73474819D02*
X106105952Y-72474819D01*
X106105952Y-72474819D02*
X106010714Y-72617676D01*
X106010714Y-72617676D02*
X105915476Y-72712914D01*
X105915476Y-72712914D02*
X105820238Y-72760533D01*
X103238095Y-90254819D02*
X103238095Y-89254819D01*
X103238095Y-89731009D02*
X103809523Y-89731009D01*
X103809523Y-90254819D02*
X103809523Y-89254819D01*
X104714285Y-89588152D02*
X104714285Y-90254819D01*
X104476190Y-89207200D02*
X104238095Y-89921485D01*
X104238095Y-89921485D02*
X104857142Y-89921485D01*
D12*
%TO.C,L1*%
X72450000Y-75500000D02*
X95950000Y-75500000D01*
X72450000Y-76270000D02*
X72450000Y-75500000D01*
X72450000Y-97500000D02*
X72450000Y-96730000D01*
X72450000Y-97500000D02*
X95950000Y-97500000D01*
X95950000Y-75500000D02*
X95950000Y-76270000D01*
X95950000Y-96730000D02*
X95950000Y-97500000D01*
D13*
%TO.C,L2*%
X79876000Y-50876000D02*
X79876000Y-54124000D01*
X79876000Y-54124000D02*
X80600000Y-54124000D01*
X80600000Y-50876000D02*
X79876000Y-50876000D01*
X82400000Y-50876000D02*
X83124000Y-50876000D01*
X83124000Y-50876000D02*
X83124000Y-54124000D01*
X83124000Y-54124000D02*
X82400000Y-54124000D01*
%TO.C,R1*%
X67790000Y-68822936D02*
X67790000Y-73177064D01*
X71210000Y-68822936D02*
X71210000Y-73177064D01*
%TO.C,R2*%
X74772936Y-67765000D02*
X75227064Y-67765000D01*
X74772936Y-69235000D02*
X75227064Y-69235000D01*
%TO.C,R7*%
X77139564Y-57765000D02*
X76685436Y-57765000D01*
X77139564Y-59235000D02*
X76685436Y-59235000D01*
%TO.C,R5*%
X80860436Y-73265000D02*
X81314564Y-73265000D01*
X80860436Y-74735000D02*
X81314564Y-74735000D01*
%TO.C,R4*%
X82272936Y-65265000D02*
X82727064Y-65265000D01*
X82272936Y-66735000D02*
X82727064Y-66735000D01*
%TO.C,C2*%
X87139000Y-57817000D02*
X87139000Y-57183000D01*
X87179000Y-58257000D02*
X87179000Y-56743000D01*
X87219000Y-58528000D02*
X87219000Y-56472000D01*
X87259000Y-58741000D02*
X87259000Y-56259000D01*
X87299000Y-58922000D02*
X87299000Y-56078000D01*
X87339000Y-59083000D02*
X87339000Y-55917000D01*
X87379000Y-59228000D02*
X87379000Y-55772000D01*
X87419000Y-59361000D02*
X87419000Y-55639000D01*
X87459000Y-59484000D02*
X87459000Y-55516000D01*
X87499000Y-59600000D02*
X87499000Y-55400000D01*
X87539000Y-59709000D02*
X87539000Y-55291000D01*
X87579000Y-59812000D02*
X87579000Y-55188000D01*
X87619000Y-59910000D02*
X87619000Y-55090000D01*
X87659000Y-60004000D02*
X87659000Y-54996000D01*
X87699000Y-60094000D02*
X87699000Y-54906000D01*
X87739000Y-60181000D02*
X87739000Y-54819000D01*
X87779000Y-60264000D02*
X87779000Y-54736000D01*
X87819000Y-60344000D02*
X87819000Y-54656000D01*
X87859000Y-60421000D02*
X87859000Y-54579000D01*
X87899000Y-60496000D02*
X87899000Y-54504000D01*
X87939000Y-60569000D02*
X87939000Y-54431000D01*
X87979000Y-60640000D02*
X87979000Y-54360000D01*
X88019000Y-60708000D02*
X88019000Y-54292000D01*
X88059000Y-60775000D02*
X88059000Y-54225000D01*
X88099000Y-60839000D02*
X88099000Y-54161000D01*
X88139000Y-60902000D02*
X88139000Y-54098000D01*
X88179000Y-60964000D02*
X88179000Y-54036000D01*
X88219000Y-61024000D02*
X88219000Y-53976000D01*
X88259000Y-61083000D02*
X88259000Y-53917000D01*
X88299000Y-61140000D02*
X88299000Y-53860000D01*
X88339000Y-61196000D02*
X88339000Y-53804000D01*
X88379000Y-61250000D02*
X88379000Y-53750000D01*
X88419000Y-61304000D02*
X88419000Y-53696000D01*
X88459000Y-61356000D02*
X88459000Y-53644000D01*
X88499000Y-61407000D02*
X88499000Y-53593000D01*
X88539000Y-61457000D02*
X88539000Y-53543000D01*
X88579000Y-61507000D02*
X88579000Y-53493000D01*
X88619000Y-61555000D02*
X88619000Y-53445000D01*
X88659000Y-61602000D02*
X88659000Y-53398000D01*
X88699000Y-61648000D02*
X88699000Y-53352000D01*
X88739000Y-61694000D02*
X88739000Y-53306000D01*
X88779000Y-61738000D02*
X88779000Y-53262000D01*
X88819000Y-61782000D02*
X88819000Y-53218000D01*
X88859000Y-61825000D02*
X88859000Y-53175000D01*
X88899000Y-61867000D02*
X88899000Y-53133000D01*
X88939000Y-61908000D02*
X88939000Y-53092000D01*
X88979000Y-61949000D02*
X88979000Y-53051000D01*
X89019000Y-61989000D02*
X89019000Y-53011000D01*
X89059000Y-62028000D02*
X89059000Y-52972000D01*
X89099000Y-62067000D02*
X89099000Y-52933000D01*
X89139000Y-62105000D02*
X89139000Y-52895000D01*
X89179000Y-62142000D02*
X89179000Y-52858000D01*
X89219000Y-62178000D02*
X89219000Y-52822000D01*
X89259000Y-62214000D02*
X89259000Y-52786000D01*
X89299000Y-62250000D02*
X89299000Y-52750000D01*
X89339000Y-62285000D02*
X89339000Y-52715000D01*
X89379000Y-62319000D02*
X89379000Y-52681000D01*
X89419000Y-62352000D02*
X89419000Y-52648000D01*
X89459000Y-62385000D02*
X89459000Y-52615000D01*
X89499000Y-62418000D02*
X89499000Y-52582000D01*
X89539000Y-62450000D02*
X89539000Y-52550000D01*
X89579000Y-56060000D02*
X89579000Y-52518000D01*
X89579000Y-62482000D02*
X89579000Y-58940000D01*
X89619000Y-56060000D02*
X89619000Y-52488000D01*
X89619000Y-62512000D02*
X89619000Y-58940000D01*
X89659000Y-56060000D02*
X89659000Y-52457000D01*
X89659000Y-62543000D02*
X89659000Y-58940000D01*
X89699000Y-56060000D02*
X89699000Y-52427000D01*
X89699000Y-62573000D02*
X89699000Y-58940000D01*
X89739000Y-56060000D02*
X89739000Y-52398000D01*
X89739000Y-62602000D02*
X89739000Y-58940000D01*
X89779000Y-56060000D02*
X89779000Y-52369000D01*
X89779000Y-62631000D02*
X89779000Y-58940000D01*
X89819000Y-56060000D02*
X89819000Y-52340000D01*
X89819000Y-62660000D02*
X89819000Y-58940000D01*
X89859000Y-56060000D02*
X89859000Y-52312000D01*
X89859000Y-62688000D02*
X89859000Y-58940000D01*
X89899000Y-56060000D02*
X89899000Y-52284000D01*
X89899000Y-62716000D02*
X89899000Y-58940000D01*
X89939000Y-56060000D02*
X89939000Y-52257000D01*
X89939000Y-62743000D02*
X89939000Y-58940000D01*
X89979000Y-56060000D02*
X89979000Y-52230000D01*
X89979000Y-62770000D02*
X89979000Y-58940000D01*
X90019000Y-56060000D02*
X90019000Y-52204000D01*
X90019000Y-62796000D02*
X90019000Y-58940000D01*
X90059000Y-56060000D02*
X90059000Y-52178000D01*
X90059000Y-62822000D02*
X90059000Y-58940000D01*
X90099000Y-56060000D02*
X90099000Y-52153000D01*
X90099000Y-62847000D02*
X90099000Y-58940000D01*
X90139000Y-56060000D02*
X90139000Y-52128000D01*
X90139000Y-62872000D02*
X90139000Y-58940000D01*
X90179000Y-56060000D02*
X90179000Y-52103000D01*
X90179000Y-62897000D02*
X90179000Y-58940000D01*
X90219000Y-56060000D02*
X90219000Y-52079000D01*
X90219000Y-62921000D02*
X90219000Y-58940000D01*
X90259000Y-56060000D02*
X90259000Y-52055000D01*
X90259000Y-62945000D02*
X90259000Y-58940000D01*
X90299000Y-56060000D02*
X90299000Y-52032000D01*
X90299000Y-62968000D02*
X90299000Y-58940000D01*
X90339000Y-56060000D02*
X90339000Y-52009000D01*
X90339000Y-62991000D02*
X90339000Y-58940000D01*
X90379000Y-56060000D02*
X90379000Y-51986000D01*
X90379000Y-63014000D02*
X90379000Y-58940000D01*
X90419000Y-56060000D02*
X90419000Y-51964000D01*
X90419000Y-63036000D02*
X90419000Y-58940000D01*
X90459000Y-56060000D02*
X90459000Y-51942000D01*
X90459000Y-63058000D02*
X90459000Y-58940000D01*
X90499000Y-56060000D02*
X90499000Y-51920000D01*
X90499000Y-63080000D02*
X90499000Y-58940000D01*
X90539000Y-56060000D02*
X90539000Y-51899000D01*
X90539000Y-63101000D02*
X90539000Y-58940000D01*
X90579000Y-56060000D02*
X90579000Y-51878000D01*
X90579000Y-63122000D02*
X90579000Y-58940000D01*
X90619000Y-56060000D02*
X90619000Y-51858000D01*
X90619000Y-63142000D02*
X90619000Y-58940000D01*
X90659000Y-56060000D02*
X90659000Y-51838000D01*
X90659000Y-63162000D02*
X90659000Y-58940000D01*
X90699000Y-56060000D02*
X90699000Y-51818000D01*
X90699000Y-63182000D02*
X90699000Y-58940000D01*
X90739000Y-56060000D02*
X90739000Y-51798000D01*
X90739000Y-63202000D02*
X90739000Y-58940000D01*
X90779000Y-56060000D02*
X90779000Y-51779000D01*
X90779000Y-63221000D02*
X90779000Y-58940000D01*
X90819000Y-56060000D02*
X90819000Y-51761000D01*
X90819000Y-63239000D02*
X90819000Y-58940000D01*
X90859000Y-56060000D02*
X90859000Y-51742000D01*
X90859000Y-63258000D02*
X90859000Y-58940000D01*
X90899000Y-56060000D02*
X90899000Y-51724000D01*
X90899000Y-63276000D02*
X90899000Y-58940000D01*
X90939000Y-56060000D02*
X90939000Y-51707000D01*
X90939000Y-63293000D02*
X90939000Y-58940000D01*
X90979000Y-56060000D02*
X90979000Y-51689000D01*
X90979000Y-63311000D02*
X90979000Y-58940000D01*
X91019000Y-56060000D02*
X91019000Y-51672000D01*
X91019000Y-63328000D02*
X91019000Y-58940000D01*
X91059000Y-56060000D02*
X91059000Y-51655000D01*
X91059000Y-63345000D02*
X91059000Y-58940000D01*
X91099000Y-56060000D02*
X91099000Y-51639000D01*
X91099000Y-63361000D02*
X91099000Y-58940000D01*
X91139000Y-56060000D02*
X91139000Y-51623000D01*
X91139000Y-63377000D02*
X91139000Y-58940000D01*
X91179000Y-56060000D02*
X91179000Y-51607000D01*
X91179000Y-63393000D02*
X91179000Y-58940000D01*
X91219000Y-56060000D02*
X91219000Y-51592000D01*
X91219000Y-63408000D02*
X91219000Y-58940000D01*
X91259000Y-56060000D02*
X91259000Y-51576000D01*
X91259000Y-63424000D02*
X91259000Y-58940000D01*
X91299000Y-56060000D02*
X91299000Y-51561000D01*
X91299000Y-63439000D02*
X91299000Y-58940000D01*
X91339000Y-56060000D02*
X91339000Y-51547000D01*
X91339000Y-63453000D02*
X91339000Y-58940000D01*
X91379000Y-56060000D02*
X91379000Y-51533000D01*
X91379000Y-63467000D02*
X91379000Y-58940000D01*
X91419000Y-56060000D02*
X91419000Y-51519000D01*
X91419000Y-63481000D02*
X91419000Y-58940000D01*
X91459000Y-56060000D02*
X91459000Y-51505000D01*
X91459000Y-63495000D02*
X91459000Y-58940000D01*
X91499000Y-56060000D02*
X91499000Y-51492000D01*
X91499000Y-63508000D02*
X91499000Y-58940000D01*
X91539000Y-56060000D02*
X91539000Y-51479000D01*
X91539000Y-63521000D02*
X91539000Y-58940000D01*
X91579000Y-56060000D02*
X91579000Y-51466000D01*
X91579000Y-63534000D02*
X91579000Y-58940000D01*
X91619000Y-56060000D02*
X91619000Y-51453000D01*
X91619000Y-63547000D02*
X91619000Y-58940000D01*
X91659000Y-56060000D02*
X91659000Y-51441000D01*
X91659000Y-63559000D02*
X91659000Y-58940000D01*
X91699000Y-56060000D02*
X91699000Y-51429000D01*
X91699000Y-63571000D02*
X91699000Y-58940000D01*
X91739000Y-56060000D02*
X91739000Y-51417000D01*
X91739000Y-63583000D02*
X91739000Y-58940000D01*
X91779000Y-56060000D02*
X91779000Y-51406000D01*
X91779000Y-63594000D02*
X91779000Y-58940000D01*
X91819000Y-56060000D02*
X91819000Y-51395000D01*
X91819000Y-63605000D02*
X91819000Y-58940000D01*
X91859000Y-56060000D02*
X91859000Y-51384000D01*
X91859000Y-63616000D02*
X91859000Y-58940000D01*
X91899000Y-56060000D02*
X91899000Y-51374000D01*
X91899000Y-63626000D02*
X91899000Y-58940000D01*
X91939000Y-56060000D02*
X91939000Y-51363000D01*
X91939000Y-63637000D02*
X91939000Y-58940000D01*
X91979000Y-56060000D02*
X91979000Y-51354000D01*
X91979000Y-63646000D02*
X91979000Y-58940000D01*
X92019000Y-56060000D02*
X92019000Y-51344000D01*
X92019000Y-63656000D02*
X92019000Y-58940000D01*
X92059000Y-56060000D02*
X92059000Y-51334000D01*
X92059000Y-63666000D02*
X92059000Y-58940000D01*
X92099000Y-56060000D02*
X92099000Y-51325000D01*
X92099000Y-63675000D02*
X92099000Y-58940000D01*
X92139000Y-56060000D02*
X92139000Y-51316000D01*
X92139000Y-63684000D02*
X92139000Y-58940000D01*
X92179000Y-56060000D02*
X92179000Y-51308000D01*
X92179000Y-63692000D02*
X92179000Y-58940000D01*
X92219000Y-56060000D02*
X92219000Y-51299000D01*
X92219000Y-63701000D02*
X92219000Y-58940000D01*
X92259000Y-56060000D02*
X92259000Y-51291000D01*
X92259000Y-63709000D02*
X92259000Y-58940000D01*
X92299000Y-56060000D02*
X92299000Y-51284000D01*
X92299000Y-63716000D02*
X92299000Y-58940000D01*
X92339000Y-56060000D02*
X92339000Y-51276000D01*
X92339000Y-63724000D02*
X92339000Y-58940000D01*
X92379000Y-56060000D02*
X92379000Y-51269000D01*
X92379000Y-63731000D02*
X92379000Y-58940000D01*
X92419000Y-56060000D02*
X92419000Y-51262000D01*
X92419000Y-63738000D02*
X92419000Y-58940000D01*
X92459000Y-63745000D02*
X92459000Y-51255000D01*
X92499000Y-63752000D02*
X92499000Y-51248000D01*
X92539000Y-63758000D02*
X92539000Y-51242000D01*
X92579000Y-63764000D02*
X92579000Y-51236000D01*
X92619000Y-63769000D02*
X92619000Y-51231000D01*
X92659000Y-63775000D02*
X92659000Y-51225000D01*
X92699000Y-63780000D02*
X92699000Y-51220000D01*
X92739000Y-63785000D02*
X92739000Y-51215000D01*
X92779000Y-63790000D02*
X92779000Y-51210000D01*
X92820000Y-63794000D02*
X92820000Y-51206000D01*
X92860000Y-63798000D02*
X92860000Y-51202000D01*
X92900000Y-63802000D02*
X92900000Y-51198000D01*
X92940000Y-63806000D02*
X92940000Y-51194000D01*
X92980000Y-63809000D02*
X92980000Y-51191000D01*
X93020000Y-63812000D02*
X93020000Y-51188000D01*
X93060000Y-63815000D02*
X93060000Y-51185000D01*
X93100000Y-63818000D02*
X93100000Y-51182000D01*
X93140000Y-63820000D02*
X93140000Y-51180000D01*
X93180000Y-63822000D02*
X93180000Y-51178000D01*
X93220000Y-63824000D02*
X93220000Y-51176000D01*
X93260000Y-63826000D02*
X93260000Y-51174000D01*
X93300000Y-63827000D02*
X93300000Y-51173000D01*
X93340000Y-63828000D02*
X93340000Y-51172000D01*
X93380000Y-63829000D02*
X93380000Y-51171000D01*
X93420000Y-63830000D02*
X93420000Y-51170000D01*
X93460000Y-63830000D02*
X93460000Y-51170000D01*
X93500000Y-63830000D02*
X93500000Y-51170000D01*
X99692082Y-61700000D02*
X99692082Y-60450000D01*
X100317082Y-61075000D02*
X99067082Y-61075000D01*
X99870000Y-57500000D02*
G75*
G02*
X87130000Y-57500000I-6370000J0D01*
G01*
X87130000Y-57500000D02*
G75*
G02*
X99870000Y-57500000I6370000J0D01*
G01*
%TO.C,R3*%
X74772936Y-70265000D02*
X75227064Y-70265000D01*
X74772936Y-71735000D02*
X75227064Y-71735000D01*
%TO.C,U3*%
X77000000Y-59940000D02*
X75050000Y-59940000D01*
X77000000Y-59940000D02*
X78950000Y-59940000D01*
X77000000Y-65060000D02*
X75050000Y-65060000D01*
X77000000Y-65060000D02*
X78950000Y-65060000D01*
X74300000Y-60035000D02*
X74060000Y-59705000D01*
X74540000Y-59705000D01*
X74300000Y-60035000D01*
G36*
X74300000Y-60035000D02*
G01*
X74060000Y-59705000D01*
X74540000Y-59705000D01*
X74300000Y-60035000D01*
G37*
%TO.C,C1*%
X85265000Y-70438748D02*
X85265000Y-70961252D01*
X86735000Y-70438748D02*
X86735000Y-70961252D01*
%TO.C,U2*%
X76512500Y-51390000D02*
X75712500Y-51390000D01*
X76512500Y-51390000D02*
X77312500Y-51390000D01*
X76512500Y-54510000D02*
X75712500Y-54510000D01*
X76512500Y-54510000D02*
X77312500Y-54510000D01*
X75212500Y-51440000D02*
X74972500Y-51110000D01*
X75452500Y-51110000D01*
X75212500Y-51440000D01*
G36*
X75212500Y-51440000D02*
G01*
X74972500Y-51110000D01*
X75452500Y-51110000D01*
X75212500Y-51440000D01*
G37*
%TO.C,C3*%
X72265000Y-54261252D02*
X72265000Y-53738748D01*
X73735000Y-54261252D02*
X73735000Y-53738748D01*
%TO.C,J2*%
X65170000Y-76590000D02*
X66500000Y-76590000D01*
X65170000Y-77920000D02*
X65170000Y-76590000D01*
X65170000Y-79190000D02*
X65170000Y-86870000D01*
X65170000Y-79190000D02*
X67830000Y-79190000D01*
X65170000Y-86870000D02*
X67830000Y-86870000D01*
X67830000Y-79190000D02*
X67830000Y-86870000D01*
%TO.C,U1*%
X81000000Y-67440000D02*
X79050000Y-67440000D01*
X81000000Y-67440000D02*
X82950000Y-67440000D01*
X81000000Y-72560000D02*
X79050000Y-72560000D01*
X81000000Y-72560000D02*
X82950000Y-72560000D01*
X78300000Y-67535000D02*
X78060000Y-67205000D01*
X78540000Y-67205000D01*
X78300000Y-67535000D01*
G36*
X78300000Y-67535000D02*
G01*
X78060000Y-67205000D01*
X78540000Y-67205000D01*
X78300000Y-67535000D01*
G37*
%TO.C,C7*%
X85238748Y-52765000D02*
X85761252Y-52765000D01*
X85238748Y-54235000D02*
X85761252Y-54235000D01*
%TO.C,C4*%
X71265000Y-62738748D02*
X71265000Y-63261252D01*
X72735000Y-62738748D02*
X72735000Y-63261252D01*
%TO.C,D1*%
X97550000Y-80190000D02*
X97820000Y-80190000D01*
X97550000Y-86610000D02*
X97550000Y-80190000D01*
X104450000Y-80190000D02*
X104180000Y-80190000D01*
X104450000Y-86610000D02*
X104450000Y-80190000D01*
X104470000Y-79010000D02*
X104140000Y-78770000D01*
X104470000Y-78530000D01*
X104470000Y-79010000D01*
G36*
X104470000Y-79010000D02*
G01*
X104140000Y-78770000D01*
X104470000Y-78530000D01*
X104470000Y-79010000D01*
G37*
%TO.C,SC1*%
X63670000Y-63630000D02*
X65000000Y-63630000D01*
X63670000Y-64960000D02*
X63670000Y-63630000D01*
X63670000Y-66230000D02*
X63670000Y-68830000D01*
X63670000Y-66230000D02*
X66330000Y-66230000D01*
X63670000Y-68830000D02*
X66330000Y-68830000D01*
X66330000Y-66230000D02*
X66330000Y-68830000D01*
%TO.C,C5*%
X81261252Y-55265000D02*
X80738748Y-55265000D01*
X81261252Y-56735000D02*
X80738748Y-56735000D01*
%TO.C,Q1*%
X90755000Y-67575000D02*
X90755000Y-67845000D01*
X90755000Y-74475000D02*
X90755000Y-74205000D01*
X97175000Y-67575000D02*
X90755000Y-67575000D01*
X97175000Y-74475000D02*
X90755000Y-74475000D01*
X89335000Y-67885000D02*
X89095000Y-67555000D01*
X89575000Y-67555000D01*
X89335000Y-67885000D01*
G36*
X89335000Y-67885000D02*
G01*
X89095000Y-67555000D01*
X89575000Y-67555000D01*
X89335000Y-67885000D01*
G37*
%TO.C,R6*%
X81227064Y-57765000D02*
X80772936Y-57765000D01*
X81227064Y-59235000D02*
X80772936Y-59235000D01*
%TO.C,C6*%
X77211252Y-55265000D02*
X76688748Y-55265000D01*
X77211252Y-56735000D02*
X76688748Y-56735000D01*
%TO.C,J1*%
X104395000Y-68980000D02*
X104395000Y-66380000D01*
X104395000Y-71580000D02*
X104395000Y-70250000D01*
X105725000Y-71580000D02*
X104395000Y-71580000D01*
X107055000Y-66380000D02*
X104395000Y-66380000D01*
X107055000Y-68980000D02*
X104395000Y-68980000D01*
X107055000Y-68980000D02*
X107055000Y-66380000D01*
%TD*%
%LPC*%
D14*
%TO.C,L1*%
X75000000Y-86500000D03*
X93400000Y-86500000D03*
%TD*%
D15*
%TO.C,L2*%
X81500000Y-51150000D03*
X81500000Y-53850000D03*
%TD*%
D16*
%TO.C,R1*%
X69500000Y-68037500D03*
X69500000Y-73962500D03*
%TD*%
D17*
%TO.C,R2*%
X74087500Y-68500000D03*
X75912500Y-68500000D03*
%TD*%
D18*
%TO.C,R7*%
X77825000Y-58500000D03*
X76000000Y-58500000D03*
%TD*%
D17*
%TO.C,R5*%
X80175000Y-74000000D03*
X82000000Y-74000000D03*
%TD*%
%TO.C,R4*%
X81587500Y-66000000D03*
X83412500Y-66000000D03*
%TD*%
D19*
%TO.C,H3*%
X66500000Y-94000000D03*
%TD*%
D20*
%TO.C,C2*%
X96000000Y-57500000D03*
D21*
X91000000Y-57500000D03*
%TD*%
D17*
%TO.C,R3*%
X74087500Y-71000000D03*
X75912500Y-71000000D03*
%TD*%
D22*
%TO.C,U3*%
X74525000Y-60595000D03*
X74525000Y-61865000D03*
X74525000Y-63135000D03*
X74525000Y-64405000D03*
X79475000Y-64405000D03*
X79475000Y-63135000D03*
X79475000Y-61865000D03*
X79475000Y-60595000D03*
%TD*%
D23*
%TO.C,C1*%
X86000000Y-69750000D03*
X86000000Y-71650000D03*
%TD*%
D24*
%TO.C,U2*%
X75375000Y-52000000D03*
X75375000Y-52950000D03*
X75375000Y-53900000D03*
X77650000Y-53900000D03*
X77650000Y-52000000D03*
%TD*%
D19*
%TO.C,H2*%
X104000000Y-54000000D03*
%TD*%
D25*
%TO.C,C3*%
X73000000Y-54950000D03*
X73000000Y-53050000D03*
%TD*%
D26*
%TO.C,J2*%
X66500000Y-77920000D03*
D27*
X66500000Y-80460000D03*
X66500000Y-83000000D03*
X66500000Y-85540000D03*
%TD*%
D22*
%TO.C,U1*%
X78525000Y-68095000D03*
X78525000Y-69365000D03*
X78525000Y-70635000D03*
X78525000Y-71905000D03*
X83475000Y-71905000D03*
X83475000Y-70635000D03*
X83475000Y-69365000D03*
X83475000Y-68095000D03*
%TD*%
D28*
%TO.C,C7*%
X84550000Y-53500000D03*
X86450000Y-53500000D03*
%TD*%
D23*
%TO.C,C4*%
X72000000Y-62050000D03*
X72000000Y-63950000D03*
%TD*%
D29*
%TO.C,D1*%
X103280000Y-78460000D03*
D30*
X101000000Y-84760000D03*
D29*
X98720000Y-78460000D03*
%TD*%
D26*
%TO.C,SC1*%
X65000000Y-64960000D03*
D27*
X65000000Y-67500000D03*
%TD*%
D19*
%TO.C,H1*%
X66500000Y-54000000D03*
%TD*%
D31*
%TO.C,C5*%
X81950000Y-56000000D03*
X80050000Y-56000000D03*
%TD*%
D32*
%TO.C,Q1*%
X89025000Y-68745000D03*
D33*
X95325000Y-71025000D03*
D32*
X89025000Y-73305000D03*
%TD*%
D18*
%TO.C,R6*%
X81912500Y-58500000D03*
X80087500Y-58500000D03*
%TD*%
D31*
%TO.C,C6*%
X77900000Y-56000000D03*
X76000000Y-56000000D03*
%TD*%
D26*
%TO.C,J1*%
X105725000Y-70250000D03*
D27*
X105725000Y-67710000D03*
%TD*%
D19*
%TO.C,H4*%
X104000000Y-94000000D03*
%TD*%
%LPD*%
M02*
