%TF.GenerationSoftware,KiCad,Pcbnew,8.0.5*%
%TF.CreationDate,2024-09-18T15:37:43+10:00*%
%TF.ProjectId,mppt-board,6d707074-2d62-46f6-9172-642e6b696361,rev?*%
%TF.SameCoordinates,Original*%
%TF.FileFunction,Copper,L3,Inr*%
%TF.FilePolarity,Positive*%
%FSLAX46Y46*%
G04 Gerber Fmt 4.6, Leading zero omitted, Abs format (unit mm)*
G04 Created by KiCad (PCBNEW 8.0.5) date 2024-09-18 15:37:43*
%MOMM*%
%LPD*%
G01*
G04 APERTURE LIST*
%TA.AperFunction,ComponentPad*%
%ADD10C,6.400000*%
%TD*%
%TA.AperFunction,ComponentPad*%
%ADD11R,2.400000X2.400000*%
%TD*%
%TA.AperFunction,ComponentPad*%
%ADD12C,2.400000*%
%TD*%
%TA.AperFunction,ComponentPad*%
%ADD13R,1.700000X1.700000*%
%TD*%
%TA.AperFunction,ComponentPad*%
%ADD14O,1.700000X1.700000*%
%TD*%
%TA.AperFunction,ViaPad*%
%ADD15C,0.600000*%
%TD*%
G04 APERTURE END LIST*
D10*
%TO.N,GND*%
%TO.C,H3*%
X66500000Y-94000000D03*
%TD*%
D11*
%TO.N,Net-(D1-A)*%
%TO.C,C2*%
X96000000Y-57500000D03*
D12*
%TO.N,GND*%
X91000000Y-57500000D03*
%TD*%
D10*
%TO.N,GND*%
%TO.C,H2*%
X104000000Y-54000000D03*
%TD*%
D13*
%TO.N,VCC*%
%TO.C,J2*%
X66500000Y-77920000D03*
D14*
%TO.N,/swclk*%
X66500000Y-80460000D03*
%TO.N,/swdio*%
X66500000Y-83000000D03*
%TO.N,GND*%
X66500000Y-85540000D03*
%TD*%
D13*
%TO.N,VBUS*%
%TO.C,SC1*%
X65000000Y-64960000D03*
D14*
%TO.N,Net-(SC1--)*%
X65000000Y-67500000D03*
%TD*%
D10*
%TO.N,GND*%
%TO.C,H1*%
X66500000Y-54000000D03*
%TD*%
D13*
%TO.N,Net-(D1-A)*%
%TO.C,J1*%
X105725000Y-70250000D03*
D14*
%TO.N,GND*%
X105725000Y-67710000D03*
%TD*%
D10*
%TO.N,GND*%
%TO.C,H4*%
X104000000Y-94000000D03*
%TD*%
D15*
%TO.N,*%
X107500000Y-68500000D03*
X107500000Y-67250000D03*
X104750000Y-65750000D03*
X105750000Y-65750000D03*
%TO.N,GND*%
X106680000Y-60960000D03*
X88900000Y-63500000D03*
X66040000Y-60960000D03*
X98000000Y-93000000D03*
X81280000Y-96520000D03*
X87500000Y-71750000D03*
X91000000Y-55000000D03*
X66750000Y-75000000D03*
X81280000Y-81280000D03*
X106680000Y-88900000D03*
X71500000Y-53000000D03*
X85750000Y-55000000D03*
X99060000Y-91440000D03*
X93000000Y-59500000D03*
X86360000Y-50800000D03*
X81280000Y-76200000D03*
X87250000Y-73250000D03*
X70750000Y-65000000D03*
X101600000Y-88900000D03*
X89000000Y-74500000D03*
X86000000Y-72750000D03*
X106680000Y-66040000D03*
X103000000Y-80500000D03*
X71120000Y-91440000D03*
X88250000Y-57500000D03*
X93250000Y-55250000D03*
X86360000Y-66040000D03*
X66750000Y-74000000D03*
X86360000Y-96520000D03*
X86360000Y-81280000D03*
X93250000Y-57250000D03*
X70500000Y-64000000D03*
X91440000Y-66040000D03*
X67500000Y-75500000D03*
X75000000Y-58500000D03*
X89000000Y-72000000D03*
X76750000Y-72750000D03*
X86360000Y-60960000D03*
X86500000Y-55000000D03*
X97250000Y-83500000D03*
X86360000Y-86360000D03*
X81280000Y-86360000D03*
X83750000Y-64250000D03*
X88750000Y-59750000D03*
X84750000Y-65000000D03*
X74750000Y-56000000D03*
X72500000Y-71000000D03*
X93500000Y-97500000D03*
X97750000Y-80500000D03*
X76750000Y-73750000D03*
X73000000Y-51750000D03*
X101600000Y-50800000D03*
X74750000Y-57250000D03*
X71500000Y-72250000D03*
X71120000Y-55880000D03*
X73250000Y-74500000D03*
X68250000Y-75500000D03*
X88750000Y-55500000D03*
X100250000Y-80500000D03*
X71120000Y-76200000D03*
X77000000Y-59750000D03*
X69000000Y-75500000D03*
X96520000Y-66040000D03*
X74750000Y-59500000D03*
X81280000Y-91440000D03*
X87750000Y-53500000D03*
X75000000Y-97750000D03*
X86500000Y-52000000D03*
X72000000Y-65250000D03*
X84750000Y-66000000D03*
X104140000Y-88900000D03*
X76000000Y-59750000D03*
X103000000Y-75000000D03*
X71120000Y-86360000D03*
X71120000Y-81280000D03*
X96520000Y-50800000D03*
X72500000Y-70000000D03*
X91440000Y-50800000D03*
X86360000Y-91440000D03*
X99060000Y-88900000D03*
X71120000Y-50800000D03*
X86360000Y-76200000D03*
X70500000Y-96750000D03*
X78500000Y-73000000D03*
X99060000Y-96520000D03*
X91250000Y-60000000D03*
X66040000Y-71120000D03*
%TO.N,VCC*%
X81750000Y-60550000D03*
X70500000Y-61500000D03*
X82450000Y-60550000D03*
X81800000Y-59900000D03*
X82450000Y-59900000D03*
%TO.N,/V_{drop}*%
X76500000Y-61000000D03*
X81000000Y-70500000D03*
%TO.N,/swdio*%
X77900000Y-62000000D03*
%TO.N,/swclk*%
X77750000Y-61000000D03*
%TD*%
%TA.AperFunction,Conductor*%
%TO.N,GND*%
G36*
X103502702Y-50000617D02*
G01*
X103886771Y-50017386D01*
X103897504Y-50018326D01*
X104191114Y-50056980D01*
X104255009Y-50085247D01*
X104293480Y-50143571D01*
X104294311Y-50213436D01*
X104257239Y-50272659D01*
X104194033Y-50302438D01*
X104168438Y-50303749D01*
X104000002Y-50294922D01*
X103999999Y-50294922D01*
X103612712Y-50315219D01*
X103229676Y-50375886D01*
X103229669Y-50375887D01*
X102855063Y-50476262D01*
X102493005Y-50615244D01*
X102147456Y-50791310D01*
X101822206Y-51002531D01*
X101564648Y-51211095D01*
X101564648Y-51211096D01*
X103059301Y-52705748D01*
X102957670Y-52779588D01*
X102779588Y-52957670D01*
X102705748Y-53059300D01*
X101211096Y-51564648D01*
X101211095Y-51564648D01*
X101002531Y-51822206D01*
X100791310Y-52147456D01*
X100615244Y-52493005D01*
X100476262Y-52855063D01*
X100375887Y-53229669D01*
X100375886Y-53229676D01*
X100315219Y-53612712D01*
X100294922Y-53999999D01*
X100294922Y-54000000D01*
X100315219Y-54387287D01*
X100375886Y-54770323D01*
X100375887Y-54770330D01*
X100476262Y-55144936D01*
X100615244Y-55506994D01*
X100791310Y-55852543D01*
X101002531Y-56177793D01*
X101211095Y-56435350D01*
X101211096Y-56435350D01*
X102705748Y-54940698D01*
X102779588Y-55042330D01*
X102957670Y-55220412D01*
X103059300Y-55294251D01*
X101564648Y-56788903D01*
X101564649Y-56788904D01*
X101822206Y-56997468D01*
X102147456Y-57208689D01*
X102493005Y-57384755D01*
X102855063Y-57523737D01*
X103229669Y-57624112D01*
X103229676Y-57624113D01*
X103612712Y-57684780D01*
X103999999Y-57705078D01*
X104000001Y-57705078D01*
X104387287Y-57684780D01*
X104770323Y-57624113D01*
X104770330Y-57624112D01*
X105144936Y-57523737D01*
X105506994Y-57384755D01*
X105852543Y-57208689D01*
X106177783Y-56997476D01*
X106177785Y-56997475D01*
X106435349Y-56788902D01*
X104940698Y-55294251D01*
X105042330Y-55220412D01*
X105220412Y-55042330D01*
X105294251Y-54940698D01*
X106788902Y-56435349D01*
X106997475Y-56177785D01*
X106997476Y-56177783D01*
X107208689Y-55852543D01*
X107384755Y-55506994D01*
X107523737Y-55144936D01*
X107624112Y-54770330D01*
X107624113Y-54770323D01*
X107684780Y-54387287D01*
X107705078Y-54000000D01*
X107705078Y-53999999D01*
X107696250Y-53831562D01*
X107712399Y-53763584D01*
X107762736Y-53715128D01*
X107831279Y-53701579D01*
X107896267Y-53727237D01*
X107937066Y-53783958D01*
X107943019Y-53808886D01*
X107981671Y-54102472D01*
X107982614Y-54113249D01*
X107999382Y-54497297D01*
X107999500Y-54502706D01*
X107999500Y-66401928D01*
X107979815Y-66468967D01*
X107927011Y-66514722D01*
X107857853Y-66524666D01*
X107834546Y-66518970D01*
X107679257Y-66464632D01*
X107679249Y-66464630D01*
X107500004Y-66444435D01*
X107499996Y-66444435D01*
X107320750Y-66464630D01*
X107320745Y-66464631D01*
X107150476Y-66524211D01*
X106997737Y-66620184D01*
X106870181Y-66747740D01*
X106868731Y-66749559D01*
X106867497Y-66750424D01*
X106865260Y-66752662D01*
X106864867Y-66752269D01*
X106811539Y-66789695D01*
X106741728Y-66792540D01*
X106684109Y-66759921D01*
X106596078Y-66671891D01*
X106402578Y-66536399D01*
X106353774Y-66513642D01*
X106301335Y-66467470D01*
X106282183Y-66400276D01*
X106302399Y-66333395D01*
X106318489Y-66313588D01*
X106379816Y-66252262D01*
X106475789Y-66099522D01*
X106535368Y-65929255D01*
X106536327Y-65920743D01*
X106555565Y-65750003D01*
X106555565Y-65749996D01*
X106535369Y-65570750D01*
X106535368Y-65570745D01*
X106515945Y-65515238D01*
X106475789Y-65400478D01*
X106379816Y-65247738D01*
X106252262Y-65120184D01*
X106244992Y-65115616D01*
X106099523Y-65024211D01*
X105929254Y-64964631D01*
X105929249Y-64964630D01*
X105750004Y-64944435D01*
X105749996Y-64944435D01*
X105570750Y-64964630D01*
X105570737Y-64964633D01*
X105400479Y-65024209D01*
X105315971Y-65077309D01*
X105248734Y-65096309D01*
X105184029Y-65077309D01*
X105099520Y-65024209D01*
X104929262Y-64964633D01*
X104929249Y-64964630D01*
X104750004Y-64944435D01*
X104749996Y-64944435D01*
X104570750Y-64964630D01*
X104570745Y-64964631D01*
X104400476Y-65024211D01*
X104247737Y-65120184D01*
X104120184Y-65247737D01*
X104024211Y-65400476D01*
X103964631Y-65570745D01*
X103964630Y-65570750D01*
X103944435Y-65749996D01*
X103944435Y-65750003D01*
X103964630Y-65929249D01*
X103964631Y-65929254D01*
X104024211Y-66099523D01*
X104082666Y-66192553D01*
X104120184Y-66252262D01*
X104247738Y-66379816D01*
X104323977Y-66427720D01*
X104399844Y-66475391D01*
X104400478Y-66475789D01*
X104570745Y-66535368D01*
X104570750Y-66535369D01*
X104647308Y-66543994D01*
X104692073Y-66549038D01*
X104756488Y-66576104D01*
X104796043Y-66633698D01*
X104798182Y-66703535D01*
X104765873Y-66759939D01*
X104686886Y-66838926D01*
X104551400Y-67032420D01*
X104551399Y-67032422D01*
X104451570Y-67246507D01*
X104451567Y-67246513D01*
X104394364Y-67459999D01*
X104394364Y-67460000D01*
X105291988Y-67460000D01*
X105259075Y-67517007D01*
X105225000Y-67644174D01*
X105225000Y-67775826D01*
X105259075Y-67902993D01*
X105291988Y-67960000D01*
X104394364Y-67960000D01*
X104451567Y-68173486D01*
X104451570Y-68173492D01*
X104551399Y-68387578D01*
X104686894Y-68581082D01*
X104808946Y-68703134D01*
X104842431Y-68764457D01*
X104837447Y-68834149D01*
X104795575Y-68890082D01*
X104764598Y-68906997D01*
X104632671Y-68956202D01*
X104632664Y-68956206D01*
X104517455Y-69042452D01*
X104517452Y-69042455D01*
X104431206Y-69157664D01*
X104431202Y-69157671D01*
X104380908Y-69292517D01*
X104374501Y-69352116D01*
X104374500Y-69352135D01*
X104374500Y-71147870D01*
X104374501Y-71147876D01*
X104380908Y-71207483D01*
X104431202Y-71342328D01*
X104431206Y-71342335D01*
X104517452Y-71457544D01*
X104517455Y-71457547D01*
X104632664Y-71543793D01*
X104632671Y-71543797D01*
X104767517Y-71594091D01*
X104767516Y-71594091D01*
X104774444Y-71594835D01*
X104827127Y-71600500D01*
X106622872Y-71600499D01*
X106682483Y-71594091D01*
X106817331Y-71543796D01*
X106932546Y-71457546D01*
X107018796Y-71342331D01*
X107069091Y-71207483D01*
X107075500Y-71147873D01*
X107075499Y-69374313D01*
X107095184Y-69307275D01*
X107147987Y-69261520D01*
X107217146Y-69251576D01*
X107240452Y-69257272D01*
X107264154Y-69265566D01*
X107320740Y-69285367D01*
X107320750Y-69285369D01*
X107499996Y-69305565D01*
X107500000Y-69305565D01*
X107500004Y-69305565D01*
X107679249Y-69285369D01*
X107679251Y-69285368D01*
X107679255Y-69285368D01*
X107679258Y-69285366D01*
X107679262Y-69285366D01*
X107834545Y-69231030D01*
X107904324Y-69227468D01*
X107964951Y-69262196D01*
X107997179Y-69324190D01*
X107999500Y-69348071D01*
X107999500Y-93497293D01*
X107999382Y-93502702D01*
X107982614Y-93886750D01*
X107981671Y-93897527D01*
X107943019Y-94191113D01*
X107914752Y-94255009D01*
X107856428Y-94293480D01*
X107786563Y-94294311D01*
X107727340Y-94257239D01*
X107697561Y-94194033D01*
X107696250Y-94168437D01*
X107705078Y-94000000D01*
X107705078Y-93999999D01*
X107684780Y-93612712D01*
X107624113Y-93229676D01*
X107624112Y-93229669D01*
X107523737Y-92855063D01*
X107384755Y-92493005D01*
X107208689Y-92147456D01*
X106997468Y-91822206D01*
X106788904Y-91564649D01*
X106788903Y-91564648D01*
X105294251Y-93059300D01*
X105220412Y-92957670D01*
X105042330Y-92779588D01*
X104940698Y-92705748D01*
X106435350Y-91211096D01*
X106435350Y-91211095D01*
X106177793Y-91002531D01*
X105852543Y-90791310D01*
X105506994Y-90615244D01*
X105144936Y-90476262D01*
X104770330Y-90375887D01*
X104770323Y-90375886D01*
X104387287Y-90315219D01*
X104000001Y-90294922D01*
X103999999Y-90294922D01*
X103612712Y-90315219D01*
X103229676Y-90375886D01*
X103229669Y-90375887D01*
X102855063Y-90476262D01*
X102493005Y-90615244D01*
X102147456Y-90791310D01*
X101822206Y-91002531D01*
X101564648Y-91211095D01*
X101564648Y-91211096D01*
X103059301Y-92705748D01*
X102957670Y-92779588D01*
X102779588Y-92957670D01*
X102705748Y-93059300D01*
X101211096Y-91564648D01*
X101211095Y-91564648D01*
X101002531Y-91822206D01*
X100791310Y-92147456D01*
X100615244Y-92493005D01*
X100476262Y-92855063D01*
X100375887Y-93229669D01*
X100375886Y-93229676D01*
X100315219Y-93612712D01*
X100294922Y-93999999D01*
X100294922Y-94000000D01*
X100315219Y-94387287D01*
X100375886Y-94770323D01*
X100375887Y-94770330D01*
X100476262Y-95144936D01*
X100615244Y-95506994D01*
X100791310Y-95852543D01*
X101002531Y-96177793D01*
X101211095Y-96435350D01*
X101211096Y-96435350D01*
X102705748Y-94940698D01*
X102779588Y-95042330D01*
X102957670Y-95220412D01*
X103059300Y-95294251D01*
X101564648Y-96788903D01*
X101564649Y-96788904D01*
X101822206Y-96997468D01*
X102147456Y-97208689D01*
X102493005Y-97384755D01*
X102855063Y-97523737D01*
X103229669Y-97624112D01*
X103229676Y-97624113D01*
X103612712Y-97684780D01*
X103999999Y-97705078D01*
X104000001Y-97705078D01*
X104168437Y-97696250D01*
X104236415Y-97712399D01*
X104284871Y-97762736D01*
X104298420Y-97831279D01*
X104272762Y-97896267D01*
X104216041Y-97937066D01*
X104191113Y-97943019D01*
X103897527Y-97981671D01*
X103886750Y-97982614D01*
X103502703Y-97999382D01*
X103497294Y-97999500D01*
X67002706Y-97999500D01*
X66997297Y-97999382D01*
X66613249Y-97982614D01*
X66602474Y-97981671D01*
X66513376Y-97969941D01*
X66308886Y-97943019D01*
X66244990Y-97914752D01*
X66206519Y-97856428D01*
X66205688Y-97786563D01*
X66242760Y-97727340D01*
X66305966Y-97697561D01*
X66331562Y-97696250D01*
X66499999Y-97705078D01*
X66500001Y-97705078D01*
X66887287Y-97684780D01*
X67270323Y-97624113D01*
X67270330Y-97624112D01*
X67644936Y-97523737D01*
X68006994Y-97384755D01*
X68352543Y-97208689D01*
X68677783Y-96997476D01*
X68677785Y-96997475D01*
X68935349Y-96788902D01*
X67440698Y-95294251D01*
X67542330Y-95220412D01*
X67720412Y-95042330D01*
X67794251Y-94940698D01*
X69288902Y-96435349D01*
X69497475Y-96177785D01*
X69497476Y-96177783D01*
X69708689Y-95852543D01*
X69884755Y-95506994D01*
X70023737Y-95144936D01*
X70124112Y-94770330D01*
X70124113Y-94770323D01*
X70184780Y-94387287D01*
X70205078Y-94000000D01*
X70205078Y-93999999D01*
X70184780Y-93612712D01*
X70124113Y-93229676D01*
X70124112Y-93229669D01*
X70023737Y-92855063D01*
X69884755Y-92493005D01*
X69708689Y-92147456D01*
X69497468Y-91822206D01*
X69288904Y-91564649D01*
X69288903Y-91564648D01*
X67794251Y-93059300D01*
X67720412Y-92957670D01*
X67542330Y-92779588D01*
X67440698Y-92705748D01*
X68935350Y-91211096D01*
X68935350Y-91211095D01*
X68677793Y-91002531D01*
X68352543Y-90791310D01*
X68006994Y-90615244D01*
X67644936Y-90476262D01*
X67270330Y-90375887D01*
X67270323Y-90375886D01*
X66887287Y-90315219D01*
X66500001Y-90294922D01*
X66499999Y-90294922D01*
X66112712Y-90315219D01*
X65729676Y-90375886D01*
X65729669Y-90375887D01*
X65355063Y-90476262D01*
X64993005Y-90615244D01*
X64647456Y-90791310D01*
X64322206Y-91002531D01*
X64064648Y-91211095D01*
X64064648Y-91211096D01*
X65559301Y-92705748D01*
X65457670Y-92779588D01*
X65279588Y-92957670D01*
X65205748Y-93059301D01*
X63711096Y-91564648D01*
X63711095Y-91564648D01*
X63502531Y-91822206D01*
X63291310Y-92147456D01*
X63115244Y-92493005D01*
X62976262Y-92855063D01*
X62875887Y-93229669D01*
X62875886Y-93229676D01*
X62815219Y-93612712D01*
X62794922Y-93999999D01*
X62794922Y-94000001D01*
X62803749Y-94168438D01*
X62787600Y-94236415D01*
X62737263Y-94284871D01*
X62668719Y-94298420D01*
X62603732Y-94272761D01*
X62562933Y-94216040D01*
X62556981Y-94191118D01*
X62518326Y-93897504D01*
X62517386Y-93886771D01*
X62500618Y-93502702D01*
X62500500Y-93497293D01*
X62500500Y-67499999D01*
X63644341Y-67499999D01*
X63644341Y-67500000D01*
X63664936Y-67735403D01*
X63664938Y-67735413D01*
X63726094Y-67963655D01*
X63726096Y-67963659D01*
X63726097Y-67963663D01*
X63813211Y-68150478D01*
X63825965Y-68177830D01*
X63825967Y-68177834D01*
X63926035Y-68320745D01*
X63961505Y-68371401D01*
X64128599Y-68538495D01*
X64225384Y-68606265D01*
X64322165Y-68674032D01*
X64322167Y-68674033D01*
X64322170Y-68674035D01*
X64536337Y-68773903D01*
X64764592Y-68835063D01*
X64952918Y-68851539D01*
X64999999Y-68855659D01*
X65000000Y-68855659D01*
X65000001Y-68855659D01*
X65039234Y-68852226D01*
X65235408Y-68835063D01*
X65463663Y-68773903D01*
X65677830Y-68674035D01*
X65871401Y-68538495D01*
X66038495Y-68371401D01*
X66174035Y-68177830D01*
X66273903Y-67963663D01*
X66335063Y-67735408D01*
X66355659Y-67500000D01*
X66335063Y-67264592D01*
X66288626Y-67091285D01*
X66273905Y-67036344D01*
X66273904Y-67036343D01*
X66273903Y-67036337D01*
X66174035Y-66822171D01*
X66153287Y-66792540D01*
X66038496Y-66628600D01*
X65980112Y-66570216D01*
X65916567Y-66506671D01*
X65883084Y-66445351D01*
X65888068Y-66375659D01*
X65929939Y-66319725D01*
X65960915Y-66302810D01*
X66092331Y-66253796D01*
X66207546Y-66167546D01*
X66293796Y-66052331D01*
X66344091Y-65917483D01*
X66350500Y-65857873D01*
X66350499Y-64062128D01*
X66344946Y-64010469D01*
X66344091Y-64002516D01*
X66293797Y-63867671D01*
X66293793Y-63867664D01*
X66207547Y-63752455D01*
X66207544Y-63752452D01*
X66092335Y-63666206D01*
X66092328Y-63666202D01*
X65957482Y-63615908D01*
X65957483Y-63615908D01*
X65897883Y-63609501D01*
X65897881Y-63609500D01*
X65897873Y-63609500D01*
X65897864Y-63609500D01*
X64102129Y-63609500D01*
X64102123Y-63609501D01*
X64042516Y-63615908D01*
X63907671Y-63666202D01*
X63907664Y-63666206D01*
X63792455Y-63752452D01*
X63792452Y-63752455D01*
X63706206Y-63867664D01*
X63706202Y-63867671D01*
X63655908Y-64002517D01*
X63650570Y-64052172D01*
X63649501Y-64062123D01*
X63649500Y-64062135D01*
X63649500Y-65857870D01*
X63649501Y-65857876D01*
X63655908Y-65917483D01*
X63706202Y-66052328D01*
X63706206Y-66052335D01*
X63792452Y-66167544D01*
X63792455Y-66167547D01*
X63907664Y-66253793D01*
X63907671Y-66253797D01*
X64039081Y-66302810D01*
X64095015Y-66344681D01*
X64119432Y-66410145D01*
X64104580Y-66478418D01*
X64083430Y-66506673D01*
X63961503Y-66628600D01*
X63825965Y-66822169D01*
X63825964Y-66822171D01*
X63726098Y-67036335D01*
X63726094Y-67036344D01*
X63664938Y-67264586D01*
X63664936Y-67264596D01*
X63644341Y-67499999D01*
X62500500Y-67499999D01*
X62500500Y-54502706D01*
X62500618Y-54497297D01*
X62506894Y-54353553D01*
X62517386Y-54113226D01*
X62518325Y-54102497D01*
X62556981Y-53808883D01*
X62585247Y-53744990D01*
X62643571Y-53706519D01*
X62713436Y-53705688D01*
X62772659Y-53742760D01*
X62802438Y-53805966D01*
X62803749Y-53831561D01*
X62794922Y-53999998D01*
X62794922Y-54000000D01*
X62815219Y-54387287D01*
X62875886Y-54770323D01*
X62875887Y-54770330D01*
X62976262Y-55144936D01*
X63115244Y-55506994D01*
X63291310Y-55852543D01*
X63502531Y-56177793D01*
X63711095Y-56435350D01*
X63711096Y-56435350D01*
X65205747Y-54940698D01*
X65279588Y-55042330D01*
X65457670Y-55220412D01*
X65559300Y-55294251D01*
X64064648Y-56788903D01*
X64064649Y-56788904D01*
X64322206Y-56997468D01*
X64647456Y-57208689D01*
X64993005Y-57384755D01*
X65355063Y-57523737D01*
X65729669Y-57624112D01*
X65729676Y-57624113D01*
X66112712Y-57684780D01*
X66499999Y-57705078D01*
X66500001Y-57705078D01*
X66887287Y-57684780D01*
X67270323Y-57624113D01*
X67270330Y-57624112D01*
X67644936Y-57523737D01*
X68006994Y-57384755D01*
X68352543Y-57208689D01*
X68677783Y-56997476D01*
X68677785Y-56997475D01*
X68935349Y-56788902D01*
X67440698Y-55294251D01*
X67542330Y-55220412D01*
X67720412Y-55042330D01*
X67794251Y-54940698D01*
X69288902Y-56435349D01*
X69497475Y-56177785D01*
X69497476Y-56177783D01*
X69708689Y-55852543D01*
X69884755Y-55506994D01*
X69894208Y-55482369D01*
X69936610Y-55426837D01*
X70002304Y-55403044D01*
X70070432Y-55418545D01*
X70114966Y-55460835D01*
X70125298Y-55477278D01*
X70170512Y-55530546D01*
X70278279Y-55625869D01*
X70408540Y-55686972D01*
X70461567Y-55703132D01*
X70473823Y-55706867D01*
X70475097Y-55707273D01*
X70475373Y-55707339D01*
X70475375Y-55707340D01*
X70475381Y-55707342D01*
X70526261Y-55715188D01*
X70617573Y-55729269D01*
X70617574Y-55729269D01*
X70617580Y-55729270D01*
X70760197Y-55710247D01*
X70825695Y-55691738D01*
X70827069Y-55691372D01*
X70827420Y-55691250D01*
X70827434Y-55691247D01*
X70827438Y-55691246D01*
X70924969Y-55647901D01*
X70958903Y-55632820D01*
X70958909Y-55632817D01*
X70958909Y-55632816D01*
X70958918Y-55632813D01*
X70979369Y-55619961D01*
X71004378Y-55607917D01*
X71040759Y-55595187D01*
X71067822Y-55589010D01*
X71106118Y-55584696D01*
X71133880Y-55584696D01*
X71172173Y-55589010D01*
X71199237Y-55595187D01*
X71235620Y-55607918D01*
X71260636Y-55619966D01*
X71293266Y-55640469D01*
X71314975Y-55657781D01*
X71342217Y-55685023D01*
X71359530Y-55706733D01*
X71380033Y-55739364D01*
X71392080Y-55764380D01*
X71404808Y-55800754D01*
X71410987Y-55827826D01*
X71415301Y-55866116D01*
X71415301Y-55893882D01*
X71410987Y-55932172D01*
X71404809Y-55959243D01*
X71392082Y-55995615D01*
X71380035Y-56020631D01*
X71359531Y-56053264D01*
X71342217Y-56074975D01*
X71314975Y-56102217D01*
X71293266Y-56119529D01*
X71260636Y-56140032D01*
X71235618Y-56152081D01*
X71199243Y-56164809D01*
X71172172Y-56170987D01*
X71133882Y-56175301D01*
X71106116Y-56175301D01*
X71067826Y-56170987D01*
X71040755Y-56164809D01*
X71004380Y-56152081D01*
X70979361Y-56140032D01*
X70958921Y-56127188D01*
X70864224Y-56080687D01*
X70864216Y-56080684D01*
X70864214Y-56080683D01*
X70815888Y-56062938D01*
X70713583Y-56037104D01*
X70569706Y-56037104D01*
X70538846Y-56041541D01*
X70500545Y-56047049D01*
X70500540Y-56047050D01*
X70500536Y-56047051D01*
X70362498Y-56087583D01*
X70362492Y-56087586D01*
X70241462Y-56165368D01*
X70241451Y-56165376D01*
X70188659Y-56211120D01*
X70094433Y-56319861D01*
X70094430Y-56319865D01*
X70034664Y-56450731D01*
X70014976Y-56517779D01*
X69994500Y-56660198D01*
X69994500Y-60370500D01*
X69974815Y-60437539D01*
X69922011Y-60483294D01*
X69870500Y-60494500D01*
X69124000Y-60494500D01*
X69123991Y-60494500D01*
X69123990Y-60494501D01*
X69016549Y-60506052D01*
X69016537Y-60506054D01*
X68965027Y-60517260D01*
X68862502Y-60551383D01*
X68862496Y-60551386D01*
X68741462Y-60629171D01*
X68741451Y-60629179D01*
X68688659Y-60674923D01*
X68594433Y-60783664D01*
X68594430Y-60783668D01*
X68534664Y-60914534D01*
X68514976Y-60981582D01*
X68507441Y-61033991D01*
X68494500Y-61124000D01*
X68494500Y-63999996D01*
X68494500Y-65876000D01*
X68494501Y-65876009D01*
X68506052Y-65983450D01*
X68506054Y-65983462D01*
X68517260Y-66034972D01*
X68551383Y-66137497D01*
X68551386Y-66137503D01*
X68629171Y-66258537D01*
X68629179Y-66258548D01*
X68674923Y-66311340D01*
X68674926Y-66311343D01*
X68674930Y-66311347D01*
X68783664Y-66405567D01*
X68783667Y-66405568D01*
X68783668Y-66405569D01*
X68912992Y-66464631D01*
X68914541Y-66465338D01*
X68981580Y-66485023D01*
X68981584Y-66485024D01*
X69124000Y-66505500D01*
X69124003Y-66505500D01*
X70454315Y-66505500D01*
X70584319Y-66488497D01*
X70632074Y-66475788D01*
X70645940Y-66472098D01*
X70645944Y-66472096D01*
X70645954Y-66472094D01*
X70704111Y-66448177D01*
X70773594Y-66440884D01*
X70802784Y-66450065D01*
X70834675Y-66464630D01*
X70836226Y-66465338D01*
X70903265Y-66485023D01*
X70903269Y-66485024D01*
X71045685Y-66505500D01*
X71045688Y-66505500D01*
X71318579Y-66505500D01*
X71336561Y-66505179D01*
X71336571Y-66505178D01*
X71336606Y-66505178D01*
X71345452Y-66504862D01*
X71363469Y-66503896D01*
X71363476Y-66503894D01*
X71363857Y-66503874D01*
X71431855Y-66519939D01*
X71480373Y-66570216D01*
X71494500Y-66627696D01*
X71494500Y-69152103D01*
X71496871Y-69201002D01*
X71496872Y-69201018D01*
X71499190Y-69224870D01*
X71506284Y-69273338D01*
X71506284Y-69273339D01*
X71533854Y-69352128D01*
X71553805Y-69409145D01*
X71586032Y-69471138D01*
X71592956Y-69484458D01*
X71600792Y-69491716D01*
X71669890Y-69588055D01*
X71783289Y-69676611D01*
X71807872Y-69690692D01*
X71843918Y-69711341D01*
X71977664Y-69764358D01*
X71988000Y-69765309D01*
X72120940Y-69777549D01*
X72187563Y-69774148D01*
X72189600Y-69774097D01*
X72190711Y-69773988D01*
X72190718Y-69773988D01*
X72190724Y-69773988D01*
X72331911Y-69746278D01*
X72420764Y-69715186D01*
X72447820Y-69709011D01*
X72486118Y-69704696D01*
X72513880Y-69704696D01*
X72552173Y-69709010D01*
X72579237Y-69715187D01*
X72615620Y-69727918D01*
X72640636Y-69739966D01*
X72673266Y-69760469D01*
X72694975Y-69777781D01*
X72722216Y-69805022D01*
X72739528Y-69826731D01*
X72760031Y-69859361D01*
X72772080Y-69884379D01*
X72784809Y-69920757D01*
X72790987Y-69947827D01*
X72795301Y-69986115D01*
X72795301Y-70013881D01*
X72790987Y-70052172D01*
X72784808Y-70079247D01*
X72772080Y-70115619D01*
X72760036Y-70140630D01*
X72744668Y-70165089D01*
X72687670Y-70291599D01*
X72668669Y-70356310D01*
X72648216Y-70493563D01*
X72649074Y-70499995D01*
X72667233Y-70636176D01*
X72667234Y-70636179D01*
X72667590Y-70637439D01*
X72667597Y-70637466D01*
X72686242Y-70703443D01*
X72686244Y-70703450D01*
X72744673Y-70834918D01*
X72760033Y-70859362D01*
X72772079Y-70884376D01*
X72784809Y-70920753D01*
X72790987Y-70947825D01*
X72795301Y-70986117D01*
X72795301Y-71013882D01*
X72790987Y-71052172D01*
X72784809Y-71079243D01*
X72772081Y-71115618D01*
X72760032Y-71140636D01*
X72739529Y-71173266D01*
X72722217Y-71194975D01*
X72694975Y-71222217D01*
X72673266Y-71239529D01*
X72640636Y-71260032D01*
X72615618Y-71272081D01*
X72579243Y-71284809D01*
X72552171Y-71290987D01*
X72533691Y-71293069D01*
X72513876Y-71295302D01*
X72486114Y-71295302D01*
X72432662Y-71289280D01*
X72428369Y-71289126D01*
X72355461Y-71286520D01*
X72355449Y-71286521D01*
X72332795Y-71287445D01*
X72317689Y-71288062D01*
X72279313Y-71292584D01*
X72240933Y-71297107D01*
X72105127Y-71344630D01*
X72105123Y-71344632D01*
X72043137Y-71376857D01*
X71926226Y-71460712D01*
X71926222Y-71460716D01*
X71837673Y-71574108D01*
X71837667Y-71574117D01*
X71802943Y-71634738D01*
X71802940Y-71634744D01*
X71749924Y-71768492D01*
X71736733Y-71911769D01*
X71740295Y-71981542D01*
X71768006Y-72122730D01*
X71768008Y-72122739D01*
X71784808Y-72170752D01*
X71790986Y-72197817D01*
X71795302Y-72236119D01*
X71795302Y-72263880D01*
X71792575Y-72288080D01*
X71790987Y-72302175D01*
X71784809Y-72329243D01*
X71772081Y-72365618D01*
X71760032Y-72390636D01*
X71739529Y-72423266D01*
X71722218Y-72444974D01*
X71678882Y-72488309D01*
X71678882Y-72488311D01*
X71642728Y-72528558D01*
X71642718Y-72528570D01*
X71626076Y-72549221D01*
X71594433Y-72593103D01*
X71534660Y-72723983D01*
X71527022Y-72749995D01*
X71527023Y-72749996D01*
X71514976Y-72791022D01*
X71507618Y-72842201D01*
X71495963Y-72923268D01*
X71494500Y-72933441D01*
X71494500Y-75781782D01*
X71478638Y-75835799D01*
X71481372Y-75837150D01*
X71477441Y-75845103D01*
X71432705Y-75981834D01*
X71432702Y-75981845D01*
X71420648Y-76050663D01*
X71416109Y-76198907D01*
X71415980Y-76198903D01*
X71415510Y-76212030D01*
X71411349Y-76248967D01*
X71410988Y-76252176D01*
X71404809Y-76279244D01*
X71392080Y-76315620D01*
X71380032Y-76340636D01*
X71359529Y-76373266D01*
X71342217Y-76394975D01*
X71314975Y-76422217D01*
X71293266Y-76439529D01*
X71260636Y-76460032D01*
X71235618Y-76472081D01*
X71199243Y-76484809D01*
X71172172Y-76490987D01*
X71133882Y-76495301D01*
X71106118Y-76495301D01*
X71067818Y-76490986D01*
X71040756Y-76484809D01*
X71004378Y-76472080D01*
X70979364Y-76460034D01*
X70946731Y-76439529D01*
X70925023Y-76422217D01*
X70897781Y-76394975D01*
X70880469Y-76373266D01*
X70870692Y-76357706D01*
X70870691Y-76357705D01*
X70867454Y-76352553D01*
X70866993Y-76351819D01*
X70866986Y-76351809D01*
X70866745Y-76351425D01*
X70859965Y-76340636D01*
X70847918Y-76315619D01*
X70835190Y-76279245D01*
X70829011Y-76252175D01*
X70824491Y-76212058D01*
X70824041Y-76198665D01*
X70823852Y-76198670D01*
X70820628Y-76058302D01*
X70820628Y-76058301D01*
X70820628Y-76058295D01*
X70810202Y-75992901D01*
X70770826Y-75862496D01*
X70724870Y-75790988D01*
X70693042Y-75741462D01*
X70693033Y-75741451D01*
X70647289Y-75688659D01*
X70647285Y-75688656D01*
X70647283Y-75688653D01*
X70538549Y-75594433D01*
X70538546Y-75594431D01*
X70538544Y-75594430D01*
X70407678Y-75534664D01*
X70407673Y-75534662D01*
X70407672Y-75534662D01*
X70340633Y-75514977D01*
X70340635Y-75514977D01*
X70340630Y-75514976D01*
X70278560Y-75506052D01*
X70198213Y-75494500D01*
X69683440Y-75494500D01*
X69683438Y-75494500D01*
X69629389Y-75497397D01*
X69629388Y-75497397D01*
X69603055Y-75500229D01*
X69603028Y-75500232D01*
X69549632Y-75508885D01*
X69549630Y-75508885D01*
X69414825Y-75559166D01*
X69353500Y-75592651D01*
X69238322Y-75678873D01*
X69238309Y-75678884D01*
X69194974Y-75722218D01*
X69173268Y-75739528D01*
X69140637Y-75760032D01*
X69115618Y-75772081D01*
X69079243Y-75784809D01*
X69052172Y-75790987D01*
X69013882Y-75795301D01*
X68986117Y-75795301D01*
X68947819Y-75790986D01*
X68920751Y-75784808D01*
X68832910Y-75754070D01*
X68808388Y-75746185D01*
X68796232Y-75742616D01*
X68771330Y-75735990D01*
X68771332Y-75735990D01*
X68628049Y-75722799D01*
X68558272Y-75726362D01*
X68417090Y-75754071D01*
X68417087Y-75754072D01*
X68329244Y-75784809D01*
X68302173Y-75790987D01*
X68263881Y-75795301D01*
X68236117Y-75795301D01*
X68197819Y-75790986D01*
X68170751Y-75784808D01*
X68082910Y-75754070D01*
X68058388Y-75746185D01*
X68046232Y-75742616D01*
X68021330Y-75735990D01*
X68021332Y-75735990D01*
X67878049Y-75722799D01*
X67808272Y-75726362D01*
X67667090Y-75754071D01*
X67667087Y-75754072D01*
X67579244Y-75784809D01*
X67552173Y-75790987D01*
X67513881Y-75795301D01*
X67486116Y-75795301D01*
X67447826Y-75790987D01*
X67420755Y-75784809D01*
X67384380Y-75772081D01*
X67359362Y-75760032D01*
X67326732Y-75739529D01*
X67305023Y-75722217D01*
X67261698Y-75678892D01*
X67261690Y-75678884D01*
X67261683Y-75678877D01*
X67261659Y-75678855D01*
X67221441Y-75642728D01*
X67221429Y-75642718D01*
X67200778Y-75626076D01*
X67156896Y-75594433D01*
X67026022Y-75534663D01*
X66958977Y-75514976D01*
X66896907Y-75506052D01*
X66816560Y-75494500D01*
X65124000Y-75494500D01*
X65123991Y-75494500D01*
X65123990Y-75494501D01*
X65016549Y-75506052D01*
X65016537Y-75506054D01*
X64965027Y-75517260D01*
X64862502Y-75551383D01*
X64862496Y-75551386D01*
X64741462Y-75629171D01*
X64741451Y-75629179D01*
X64688659Y-75674923D01*
X64594433Y-75783664D01*
X64594430Y-75783668D01*
X64534664Y-75914534D01*
X64514976Y-75981582D01*
X64502093Y-76071192D01*
X64495210Y-76119066D01*
X64494500Y-76124001D01*
X64494500Y-76731403D01*
X64497392Y-76785397D01*
X64500228Y-76811780D01*
X64500232Y-76811811D01*
X64508883Y-76865199D01*
X64508884Y-76865202D01*
X64559165Y-77000012D01*
X64559170Y-77000023D01*
X64592648Y-77061334D01*
X64592650Y-77061336D01*
X64678866Y-77176512D01*
X64717119Y-77205149D01*
X64794048Y-77262740D01*
X64821077Y-77277499D01*
X64855349Y-77296215D01*
X64855359Y-77296220D01*
X64855370Y-77296226D01*
X64855375Y-77296228D01*
X64855407Y-77296241D01*
X64990177Y-77346509D01*
X64990180Y-77346509D01*
X64990185Y-77346511D01*
X65034348Y-77349669D01*
X65099810Y-77374086D01*
X65141682Y-77430019D01*
X65149500Y-77473353D01*
X65149500Y-78817870D01*
X65149501Y-78817876D01*
X65155908Y-78877483D01*
X65206202Y-79012328D01*
X65206206Y-79012335D01*
X65292452Y-79127544D01*
X65292455Y-79127547D01*
X65407664Y-79213793D01*
X65407671Y-79213797D01*
X65539081Y-79262810D01*
X65595015Y-79304681D01*
X65619432Y-79370145D01*
X65604580Y-79438418D01*
X65583430Y-79466673D01*
X65461503Y-79588600D01*
X65325965Y-79782169D01*
X65325964Y-79782171D01*
X65226098Y-79996335D01*
X65226094Y-79996344D01*
X65164938Y-80224586D01*
X65164936Y-80224596D01*
X65144341Y-80459999D01*
X65144341Y-80460000D01*
X65164936Y-80695403D01*
X65164938Y-80695413D01*
X65226094Y-80923655D01*
X65226096Y-80923659D01*
X65226097Y-80923663D01*
X65325965Y-81137830D01*
X65325967Y-81137834D01*
X65461501Y-81331395D01*
X65461506Y-81331402D01*
X65628597Y-81498493D01*
X65628603Y-81498498D01*
X65814158Y-81628425D01*
X65857783Y-81683002D01*
X65864977Y-81752500D01*
X65833454Y-81814855D01*
X65814158Y-81831575D01*
X65628597Y-81961505D01*
X65461505Y-82128597D01*
X65325965Y-82322169D01*
X65325964Y-82322171D01*
X65226098Y-82536335D01*
X65226094Y-82536344D01*
X65164938Y-82764586D01*
X65164936Y-82764596D01*
X65144341Y-82999999D01*
X65144341Y-83000000D01*
X65164936Y-83235403D01*
X65164938Y-83235413D01*
X65226094Y-83463655D01*
X65226096Y-83463659D01*
X65226097Y-83463663D01*
X65325965Y-83677830D01*
X65325967Y-83677834D01*
X65461501Y-83871395D01*
X65461506Y-83871402D01*
X65628597Y-84038493D01*
X65628603Y-84038498D01*
X65814594Y-84168730D01*
X65858219Y-84223307D01*
X65865413Y-84292805D01*
X65833890Y-84355160D01*
X65814595Y-84371880D01*
X65628922Y-84501890D01*
X65628920Y-84501891D01*
X65461891Y-84668920D01*
X65461886Y-84668926D01*
X65326400Y-84862420D01*
X65326399Y-84862422D01*
X65226570Y-85076507D01*
X65226567Y-85076513D01*
X65169364Y-85289999D01*
X65169364Y-85290000D01*
X66066988Y-85290000D01*
X66034075Y-85347007D01*
X66000000Y-85474174D01*
X66000000Y-85605826D01*
X66034075Y-85732993D01*
X66066988Y-85790000D01*
X65169364Y-85790000D01*
X65226567Y-86003486D01*
X65226570Y-86003492D01*
X65326399Y-86217578D01*
X65461894Y-86411082D01*
X65628917Y-86578105D01*
X65822421Y-86713600D01*
X66036507Y-86813429D01*
X66036516Y-86813433D01*
X66250000Y-86870634D01*
X66250000Y-85973012D01*
X66307007Y-86005925D01*
X66434174Y-86040000D01*
X66565826Y-86040000D01*
X66692993Y-86005925D01*
X66750000Y-85973012D01*
X66750000Y-86870633D01*
X66963483Y-86813433D01*
X66963492Y-86813429D01*
X67177578Y-86713600D01*
X67371082Y-86578105D01*
X67538105Y-86411082D01*
X67673600Y-86217578D01*
X67773429Y-86003492D01*
X67773432Y-86003486D01*
X67830636Y-85790000D01*
X66933012Y-85790000D01*
X66965925Y-85732993D01*
X67000000Y-85605826D01*
X67000000Y-85474174D01*
X66965925Y-85347007D01*
X66933012Y-85290000D01*
X67830636Y-85290000D01*
X67830635Y-85289999D01*
X67773432Y-85076513D01*
X67773429Y-85076507D01*
X67673600Y-84862422D01*
X67673599Y-84862420D01*
X67538113Y-84668926D01*
X67538108Y-84668920D01*
X67371078Y-84501890D01*
X67185405Y-84371879D01*
X67141780Y-84317302D01*
X67134588Y-84247804D01*
X67166110Y-84185449D01*
X67185406Y-84168730D01*
X67371401Y-84038495D01*
X67538495Y-83871401D01*
X67674035Y-83677830D01*
X67773903Y-83463663D01*
X67835063Y-83235408D01*
X67855659Y-83000000D01*
X67835063Y-82764592D01*
X67773903Y-82536337D01*
X67674035Y-82322171D01*
X67538495Y-82128599D01*
X67538494Y-82128597D01*
X67371402Y-81961506D01*
X67371396Y-81961501D01*
X67185842Y-81831575D01*
X67142217Y-81776998D01*
X67135023Y-81707500D01*
X67166546Y-81645145D01*
X67185842Y-81628425D01*
X67208026Y-81612891D01*
X67371401Y-81498495D01*
X67538495Y-81331401D01*
X67674035Y-81137830D01*
X67773903Y-80923663D01*
X67835063Y-80695408D01*
X67855659Y-80460000D01*
X67835063Y-80224592D01*
X67773903Y-79996337D01*
X67674035Y-79782171D01*
X67569239Y-79632506D01*
X67546912Y-79566300D01*
X67563922Y-79498533D01*
X67614870Y-79450720D01*
X67683580Y-79438042D01*
X67722326Y-79448588D01*
X67759001Y-79465338D01*
X67826040Y-79485023D01*
X67826044Y-79485024D01*
X67968460Y-79505500D01*
X67968463Y-79505500D01*
X87125990Y-79505500D01*
X87126000Y-79505500D01*
X87233456Y-79493947D01*
X87284967Y-79482741D01*
X87333243Y-79466673D01*
X87387497Y-79448616D01*
X87387501Y-79448613D01*
X87387504Y-79448613D01*
X87508543Y-79370825D01*
X87561347Y-79325070D01*
X87655567Y-79216336D01*
X87715338Y-79085459D01*
X87735023Y-79018420D01*
X87735024Y-79018416D01*
X87755500Y-78876000D01*
X87755500Y-76718595D01*
X87749982Y-76644108D01*
X87744597Y-76607962D01*
X87728161Y-76535094D01*
X87667059Y-76404832D01*
X87632695Y-76352541D01*
X87632052Y-76351425D01*
X87628687Y-76346441D01*
X87572062Y-76282424D01*
X87542391Y-76219168D01*
X87551628Y-76149912D01*
X87571227Y-76119071D01*
X87655567Y-76021740D01*
X87715338Y-75890863D01*
X87735023Y-75823824D01*
X87735024Y-75823820D01*
X87755500Y-75681404D01*
X87755500Y-74166378D01*
X87749195Y-74086786D01*
X87743047Y-74048226D01*
X87736728Y-74022082D01*
X87724291Y-73970628D01*
X87724290Y-73970626D01*
X87672394Y-73865619D01*
X87660543Y-73841639D01*
X87625838Y-73791106D01*
X87625695Y-73790864D01*
X87620986Y-73784040D01*
X87523482Y-73678241D01*
X87523481Y-73678239D01*
X87408741Y-73609369D01*
X87400118Y-73604193D01*
X87335704Y-73577127D01*
X87335705Y-73577127D01*
X87335702Y-73577126D01*
X87196478Y-73540836D01*
X87192119Y-73540027D01*
X87192179Y-73539701D01*
X87170757Y-73534809D01*
X87134381Y-73522081D01*
X87109362Y-73510032D01*
X87076732Y-73489529D01*
X87055023Y-73472217D01*
X87027782Y-73444976D01*
X87010469Y-73423266D01*
X86983256Y-73379956D01*
X86976257Y-73367216D01*
X86942075Y-73295301D01*
X86938275Y-73287306D01*
X86910685Y-73242386D01*
X86908477Y-73239529D01*
X86844604Y-73156871D01*
X86844603Y-73156870D01*
X86731204Y-73068314D01*
X86728140Y-73066559D01*
X86670580Y-73033587D01*
X86670572Y-73033583D01*
X86670567Y-73033581D01*
X86641554Y-73022081D01*
X86536814Y-72980564D01*
X86536810Y-72980563D01*
X86393537Y-72967376D01*
X86323762Y-72970939D01*
X86213237Y-72988621D01*
X86213131Y-72987960D01*
X86079240Y-73034809D01*
X86052170Y-73040987D01*
X86013881Y-73045301D01*
X85986115Y-73045301D01*
X85947826Y-73040987D01*
X85920756Y-73034809D01*
X85884380Y-73022081D01*
X85859365Y-73010035D01*
X85826727Y-72989526D01*
X85805023Y-72972217D01*
X85777783Y-72944977D01*
X85760470Y-72923268D01*
X85751623Y-72909188D01*
X85751623Y-72909187D01*
X85751622Y-72909186D01*
X85739967Y-72890638D01*
X85727918Y-72865619D01*
X85715190Y-72829245D01*
X85709011Y-72802175D01*
X85704696Y-72763870D01*
X85704697Y-72736111D01*
X85709010Y-72697825D01*
X85715186Y-72670761D01*
X85727919Y-72634373D01*
X85739966Y-72609361D01*
X85760469Y-72576731D01*
X85777777Y-72555026D01*
X85805026Y-72527777D01*
X85826731Y-72510469D01*
X85859361Y-72489966D01*
X85884373Y-72477919D01*
X85920761Y-72465186D01*
X85947822Y-72459010D01*
X85986118Y-72454696D01*
X86013880Y-72454696D01*
X86052173Y-72459010D01*
X86079237Y-72465187D01*
X86115620Y-72477918D01*
X86140633Y-72489964D01*
X86173262Y-72510466D01*
X86174195Y-72511052D01*
X86187499Y-72521117D01*
X86187659Y-72520921D01*
X86269933Y-72587918D01*
X86269935Y-72587919D01*
X86269936Y-72587920D01*
X86311922Y-72615512D01*
X86403254Y-72662991D01*
X86543193Y-72696439D01*
X86612768Y-72702845D01*
X86612773Y-72702845D01*
X86756466Y-72695511D01*
X86892273Y-72647991D01*
X86954267Y-72615764D01*
X86954619Y-72615512D01*
X87025180Y-72564903D01*
X87071184Y-72531908D01*
X87159741Y-72418509D01*
X87194470Y-72357882D01*
X87247490Y-72224131D01*
X87260681Y-72080857D01*
X87257281Y-72014232D01*
X87257229Y-72012197D01*
X87257120Y-72011078D01*
X87257120Y-72011073D01*
X87229410Y-71869886D01*
X87229407Y-71869877D01*
X87215191Y-71829250D01*
X87209011Y-71802177D01*
X87204696Y-71763871D01*
X87204697Y-71736111D01*
X87209010Y-71697829D01*
X87215186Y-71670761D01*
X87227919Y-71634373D01*
X87239966Y-71609361D01*
X87260469Y-71576731D01*
X87277777Y-71555026D01*
X87305027Y-71527776D01*
X87326724Y-71510472D01*
X87370614Y-71482894D01*
X87384874Y-71475413D01*
X87387490Y-71474022D01*
X87387504Y-71474017D01*
X87508543Y-71396229D01*
X87561347Y-71350474D01*
X87655567Y-71241740D01*
X87715338Y-71110863D01*
X87735023Y-71043824D01*
X87735024Y-71043820D01*
X87755500Y-70901404D01*
X87755500Y-66558595D01*
X87749982Y-66484108D01*
X87744597Y-66447962D01*
X87728161Y-66375094D01*
X87667059Y-66244832D01*
X87632695Y-66192541D01*
X87632052Y-66191425D01*
X87628687Y-66186441D01*
X87572062Y-66122424D01*
X87542391Y-66059168D01*
X87551628Y-65989912D01*
X87571227Y-65959071D01*
X87655567Y-65861740D01*
X87715338Y-65730863D01*
X87735023Y-65663824D01*
X87735024Y-65663820D01*
X87755500Y-65521404D01*
X87755500Y-61478595D01*
X87749982Y-61404108D01*
X87744597Y-61367962D01*
X87728161Y-61295094D01*
X87667059Y-61164832D01*
X87632695Y-61112541D01*
X87632052Y-61111425D01*
X87628687Y-61106441D01*
X87572062Y-61042424D01*
X87542391Y-60979168D01*
X87551628Y-60909912D01*
X87571227Y-60879071D01*
X87655567Y-60781740D01*
X87715338Y-60650863D01*
X87735023Y-60583824D01*
X87735024Y-60583820D01*
X87755500Y-60441404D01*
X87755500Y-57499995D01*
X89295233Y-57499995D01*
X89295233Y-57500004D01*
X89314273Y-57754079D01*
X89370968Y-58002477D01*
X89370973Y-58002494D01*
X89464058Y-58239671D01*
X89464057Y-58239671D01*
X89591454Y-58460327D01*
X89591461Y-58460338D01*
X89633452Y-58512991D01*
X89633453Y-58512992D01*
X90435387Y-57711058D01*
X90440889Y-57731591D01*
X90519881Y-57868408D01*
X90631592Y-57980119D01*
X90768409Y-58059111D01*
X90788940Y-58064612D01*
X89986813Y-58866738D01*
X90147616Y-58976371D01*
X90147624Y-58976376D01*
X90377176Y-59086921D01*
X90377174Y-59086921D01*
X90620652Y-59162024D01*
X90620658Y-59162026D01*
X90872595Y-59199999D01*
X90872604Y-59200000D01*
X91127396Y-59200000D01*
X91127404Y-59199999D01*
X91379341Y-59162026D01*
X91379347Y-59162024D01*
X91622824Y-59086921D01*
X91852376Y-58976376D01*
X91852377Y-58976375D01*
X92013185Y-58866738D01*
X91211060Y-58064612D01*
X91231591Y-58059111D01*
X91368408Y-57980119D01*
X91480119Y-57868408D01*
X91559111Y-57731591D01*
X91564612Y-57711059D01*
X92366544Y-58512992D01*
X92366546Y-58512991D01*
X92408544Y-58460330D01*
X92535941Y-58239671D01*
X92629026Y-58002494D01*
X92629031Y-58002477D01*
X92685726Y-57754079D01*
X92704767Y-57500004D01*
X92704767Y-57499995D01*
X92685726Y-57245920D01*
X92629031Y-56997522D01*
X92629026Y-56997505D01*
X92535941Y-56760328D01*
X92535942Y-56760328D01*
X92408545Y-56539672D01*
X92366545Y-56487006D01*
X91564612Y-57288939D01*
X91559111Y-57268409D01*
X91480119Y-57131592D01*
X91368408Y-57019881D01*
X91231591Y-56940889D01*
X91211059Y-56935387D01*
X91894310Y-56252135D01*
X94299500Y-56252135D01*
X94299500Y-58747870D01*
X94299501Y-58747876D01*
X94305908Y-58807483D01*
X94356202Y-58942328D01*
X94356206Y-58942335D01*
X94442452Y-59057544D01*
X94442455Y-59057547D01*
X94557664Y-59143793D01*
X94557671Y-59143797D01*
X94692517Y-59194091D01*
X94692516Y-59194091D01*
X94699444Y-59194835D01*
X94752127Y-59200500D01*
X97247872Y-59200499D01*
X97307483Y-59194091D01*
X97442331Y-59143796D01*
X97557546Y-59057546D01*
X97643796Y-58942331D01*
X97694091Y-58807483D01*
X97700500Y-58747873D01*
X97700499Y-56252128D01*
X97694091Y-56192517D01*
X97688599Y-56177793D01*
X97643797Y-56057671D01*
X97643793Y-56057664D01*
X97557547Y-55942455D01*
X97557544Y-55942452D01*
X97442335Y-55856206D01*
X97442328Y-55856202D01*
X97307482Y-55805908D01*
X97307483Y-55805908D01*
X97247883Y-55799501D01*
X97247881Y-55799500D01*
X97247873Y-55799500D01*
X97247864Y-55799500D01*
X94752129Y-55799500D01*
X94752123Y-55799501D01*
X94692516Y-55805908D01*
X94557671Y-55856202D01*
X94557664Y-55856206D01*
X94442455Y-55942452D01*
X94442452Y-55942455D01*
X94356206Y-56057664D01*
X94356202Y-56057671D01*
X94305908Y-56192517D01*
X94299501Y-56252116D01*
X94299501Y-56252123D01*
X94299500Y-56252135D01*
X91894310Y-56252135D01*
X92013185Y-56133260D01*
X91852384Y-56023628D01*
X91852376Y-56023623D01*
X91622823Y-55913078D01*
X91622825Y-55913078D01*
X91379347Y-55837975D01*
X91379341Y-55837973D01*
X91127404Y-55800000D01*
X90872595Y-55800000D01*
X90620658Y-55837973D01*
X90620652Y-55837975D01*
X90377175Y-55913078D01*
X90147622Y-56023625D01*
X90147609Y-56023632D01*
X89986813Y-56133259D01*
X90788941Y-56935387D01*
X90768409Y-56940889D01*
X90631592Y-57019881D01*
X90519881Y-57131592D01*
X90440889Y-57268409D01*
X90435387Y-57288941D01*
X89633452Y-56487006D01*
X89591457Y-56539667D01*
X89464058Y-56760328D01*
X89370973Y-56997505D01*
X89370968Y-56997522D01*
X89314273Y-57245920D01*
X89295233Y-57499995D01*
X87755500Y-57499995D01*
X87755500Y-55681440D01*
X87755178Y-55663394D01*
X87754862Y-55654548D01*
X87753896Y-55636531D01*
X87751576Y-55625868D01*
X87723313Y-55495945D01*
X87723312Y-55495939D01*
X87698895Y-55430475D01*
X87629944Y-55304200D01*
X87528207Y-55202460D01*
X87472274Y-55160588D01*
X87472268Y-55160583D01*
X87472262Y-55160579D01*
X87382403Y-55111514D01*
X87332997Y-55062109D01*
X87318145Y-54993836D01*
X87342561Y-54928371D01*
X87380976Y-54897420D01*
X87380043Y-54895968D01*
X87394064Y-54886957D01*
X87508543Y-54813385D01*
X87561347Y-54767630D01*
X87655567Y-54658896D01*
X87715338Y-54528019D01*
X87735023Y-54460980D01*
X87735024Y-54460976D01*
X87755500Y-54318560D01*
X87755500Y-54183440D01*
X87752603Y-54129400D01*
X87749769Y-54103042D01*
X87741114Y-54049630D01*
X87690832Y-53914821D01*
X87657347Y-53853498D01*
X87571123Y-53738317D01*
X87527782Y-53694976D01*
X87510469Y-53673266D01*
X87489966Y-53640636D01*
X87477918Y-53615619D01*
X87465190Y-53579245D01*
X87459011Y-53552175D01*
X87454696Y-53513870D01*
X87454697Y-53486111D01*
X87459010Y-53447829D01*
X87465188Y-53420758D01*
X87477919Y-53384373D01*
X87489961Y-53359368D01*
X87510470Y-53326729D01*
X87527775Y-53305030D01*
X87571122Y-53261685D01*
X87607288Y-53221422D01*
X87623922Y-53200780D01*
X87655567Y-53156896D01*
X87715338Y-53026019D01*
X87735023Y-52958980D01*
X87735024Y-52958976D01*
X87755500Y-52816560D01*
X87755500Y-52681440D01*
X87755178Y-52663394D01*
X87754862Y-52654548D01*
X87753896Y-52636531D01*
X87723312Y-52495939D01*
X87698895Y-52430475D01*
X87682254Y-52400000D01*
X87675729Y-52388050D01*
X87629944Y-52304200D01*
X87528207Y-52202460D01*
X87472274Y-52160588D01*
X87472268Y-52160583D01*
X87472262Y-52160580D01*
X87345984Y-52091628D01*
X87205400Y-52061047D01*
X87205394Y-52061046D01*
X87205393Y-52061046D01*
X87182162Y-52059384D01*
X87135703Y-52056062D01*
X87135700Y-52056062D01*
X86992189Y-52066326D01*
X86857385Y-52116606D01*
X86796057Y-52150093D01*
X86796056Y-52150093D01*
X86697958Y-52223527D01*
X86689622Y-52229252D01*
X86640637Y-52260032D01*
X86615618Y-52272081D01*
X86579243Y-52284809D01*
X86552172Y-52290987D01*
X86513882Y-52295301D01*
X86486116Y-52295301D01*
X86447827Y-52290987D01*
X86420755Y-52284808D01*
X86384381Y-52272080D01*
X86359365Y-52260033D01*
X86326731Y-52239528D01*
X86305021Y-52222215D01*
X86277778Y-52194972D01*
X86260466Y-52173264D01*
X86252498Y-52160583D01*
X86239964Y-52140636D01*
X86227920Y-52115627D01*
X86215187Y-52079238D01*
X86209011Y-52052175D01*
X86204696Y-52013870D01*
X86204697Y-51986111D01*
X86205149Y-51982098D01*
X86209010Y-51947825D01*
X86215189Y-51920756D01*
X86227917Y-51884382D01*
X86239965Y-51859364D01*
X86258892Y-51829243D01*
X86266998Y-51816343D01*
X86292157Y-51771364D01*
X86303345Y-51748726D01*
X86323797Y-51701411D01*
X86354380Y-51560819D01*
X86359364Y-51491127D01*
X86349100Y-51347616D01*
X86298818Y-51212807D01*
X86265333Y-51151484D01*
X86179109Y-51036303D01*
X86137781Y-50994975D01*
X86120469Y-50973266D01*
X86099966Y-50940636D01*
X86087918Y-50915619D01*
X86075190Y-50879245D01*
X86069011Y-50852174D01*
X86064696Y-50813870D01*
X86064697Y-50786111D01*
X86069010Y-50747829D01*
X86075188Y-50720758D01*
X86075190Y-50720753D01*
X86087919Y-50684373D01*
X86099962Y-50659367D01*
X86120470Y-50626729D01*
X86137771Y-50605034D01*
X86173181Y-50569626D01*
X86185692Y-50556661D01*
X86191724Y-50550183D01*
X86203805Y-50536735D01*
X86281592Y-50415695D01*
X86310439Y-50352528D01*
X86310614Y-50352148D01*
X86310617Y-50352139D01*
X86310619Y-50352136D01*
X86351153Y-50214083D01*
X86351152Y-50124499D01*
X86370836Y-50057462D01*
X86423639Y-50011706D01*
X86475152Y-50000500D01*
X103434108Y-50000500D01*
X103497294Y-50000500D01*
X103502702Y-50000617D01*
G37*
%TD.AperFunction*%
%TA.AperFunction,Conductor*%
G36*
X81332173Y-75909010D02*
G01*
X81359237Y-75915187D01*
X81395620Y-75927918D01*
X81420636Y-75939966D01*
X81453266Y-75960469D01*
X81474975Y-75977781D01*
X81502219Y-76005025D01*
X81519529Y-76026730D01*
X81540032Y-76059361D01*
X81552080Y-76084377D01*
X81564809Y-76120755D01*
X81570987Y-76147822D01*
X81575302Y-76186115D01*
X81575302Y-76213881D01*
X81571348Y-76248971D01*
X81571345Y-76249003D01*
X81570983Y-76252208D01*
X81564808Y-76279244D01*
X81552081Y-76315617D01*
X81540032Y-76340636D01*
X81519529Y-76373266D01*
X81502217Y-76394975D01*
X81474975Y-76422217D01*
X81453266Y-76439529D01*
X81420636Y-76460032D01*
X81395618Y-76472081D01*
X81359243Y-76484809D01*
X81332172Y-76490987D01*
X81293882Y-76495301D01*
X81266118Y-76495301D01*
X81227818Y-76490986D01*
X81200756Y-76484809D01*
X81164378Y-76472080D01*
X81139364Y-76460034D01*
X81106731Y-76439529D01*
X81085023Y-76422217D01*
X81057781Y-76394975D01*
X81040469Y-76373266D01*
X81030692Y-76357706D01*
X81030691Y-76357705D01*
X81027454Y-76352553D01*
X81026993Y-76351819D01*
X81026986Y-76351809D01*
X81026745Y-76351425D01*
X81019965Y-76340636D01*
X81007918Y-76315619D01*
X80995190Y-76279245D01*
X80989011Y-76252175D01*
X80984696Y-76213870D01*
X80984697Y-76186111D01*
X80989010Y-76147825D01*
X80995186Y-76120761D01*
X81007919Y-76084373D01*
X81019966Y-76059361D01*
X81040469Y-76026731D01*
X81057779Y-76005025D01*
X81085026Y-75977777D01*
X81106731Y-75960469D01*
X81139361Y-75939966D01*
X81164373Y-75927919D01*
X81200761Y-75915186D01*
X81227822Y-75909010D01*
X81266118Y-75904696D01*
X81293880Y-75904696D01*
X81332173Y-75909010D01*
G37*
%TD.AperFunction*%
%TA.AperFunction,Conductor*%
G36*
X86412173Y-75909010D02*
G01*
X86439237Y-75915187D01*
X86475620Y-75927918D01*
X86500636Y-75939966D01*
X86533266Y-75960469D01*
X86554975Y-75977781D01*
X86584906Y-76007712D01*
X86597058Y-76021844D01*
X86637289Y-76076453D01*
X86661083Y-76104198D01*
X86661091Y-76104207D01*
X86671954Y-76115124D01*
X86705285Y-76176531D01*
X86700125Y-76246210D01*
X86678590Y-76282825D01*
X86593314Y-76383294D01*
X86586458Y-76390734D01*
X86554975Y-76422217D01*
X86533266Y-76439529D01*
X86500636Y-76460032D01*
X86475618Y-76472081D01*
X86439243Y-76484809D01*
X86412172Y-76490987D01*
X86373882Y-76495301D01*
X86346118Y-76495301D01*
X86307818Y-76490986D01*
X86280756Y-76484809D01*
X86244378Y-76472080D01*
X86219364Y-76460034D01*
X86186731Y-76439529D01*
X86165023Y-76422217D01*
X86137781Y-76394975D01*
X86120469Y-76373266D01*
X86110692Y-76357706D01*
X86110691Y-76357705D01*
X86107454Y-76352553D01*
X86106993Y-76351819D01*
X86106986Y-76351809D01*
X86106745Y-76351425D01*
X86099965Y-76340636D01*
X86087918Y-76315619D01*
X86075190Y-76279245D01*
X86069011Y-76252175D01*
X86064696Y-76213870D01*
X86064697Y-76186111D01*
X86069010Y-76147825D01*
X86075186Y-76120761D01*
X86087919Y-76084373D01*
X86099966Y-76059361D01*
X86120469Y-76026731D01*
X86137779Y-76005025D01*
X86165026Y-75977777D01*
X86186731Y-75960469D01*
X86219361Y-75939966D01*
X86244373Y-75927919D01*
X86280761Y-75915186D01*
X86307822Y-75909010D01*
X86346118Y-75904696D01*
X86373880Y-75904696D01*
X86412173Y-75909010D01*
G37*
%TD.AperFunction*%
%TA.AperFunction,Conductor*%
G36*
X73302173Y-74209010D02*
G01*
X73329237Y-74215187D01*
X73365620Y-74227918D01*
X73390636Y-74239966D01*
X73423266Y-74260469D01*
X73444975Y-74277781D01*
X73472217Y-74305023D01*
X73489530Y-74326733D01*
X73510033Y-74359364D01*
X73522080Y-74384378D01*
X73530814Y-74409337D01*
X73530848Y-74409439D01*
X73534810Y-74420761D01*
X73540987Y-74447827D01*
X73545301Y-74486116D01*
X73545301Y-74513882D01*
X73540987Y-74552172D01*
X73534809Y-74579243D01*
X73522081Y-74615618D01*
X73510032Y-74640636D01*
X73489529Y-74673266D01*
X73472217Y-74694975D01*
X73444975Y-74722217D01*
X73423266Y-74739529D01*
X73390636Y-74760032D01*
X73365618Y-74772081D01*
X73329243Y-74784809D01*
X73302172Y-74790987D01*
X73263882Y-74795301D01*
X73236116Y-74795301D01*
X73197826Y-74790987D01*
X73170755Y-74784809D01*
X73134380Y-74772081D01*
X73109362Y-74760032D01*
X73076732Y-74739529D01*
X73055023Y-74722217D01*
X73027782Y-74694976D01*
X73010469Y-74673267D01*
X72989963Y-74640632D01*
X72977919Y-74615623D01*
X72965188Y-74579240D01*
X72959012Y-74552175D01*
X72954697Y-74513875D01*
X72954697Y-74486111D01*
X72959010Y-74447829D01*
X72959011Y-74447827D01*
X72959010Y-74447825D01*
X72965186Y-74420761D01*
X72977919Y-74384373D01*
X72989966Y-74359361D01*
X73010469Y-74326731D01*
X73027777Y-74305026D01*
X73055026Y-74277777D01*
X73076731Y-74260469D01*
X73109361Y-74239966D01*
X73134373Y-74227919D01*
X73170761Y-74215186D01*
X73197822Y-74209010D01*
X73236118Y-74204696D01*
X73263880Y-74204696D01*
X73302173Y-74209010D01*
G37*
%TD.AperFunction*%
%TA.AperFunction,Conductor*%
G36*
X76802173Y-72459010D02*
G01*
X76829239Y-72465188D01*
X76865623Y-72477919D01*
X76890636Y-72489964D01*
X76923264Y-72510466D01*
X76944972Y-72527778D01*
X76972217Y-72555023D01*
X76989529Y-72576732D01*
X77010032Y-72609362D01*
X77022081Y-72634380D01*
X77039245Y-72683433D01*
X77044061Y-72701440D01*
X77051234Y-72739537D01*
X77051242Y-72739568D01*
X77053346Y-72747479D01*
X77051554Y-72817326D01*
X77038506Y-72845322D01*
X76994672Y-72915082D01*
X76994668Y-72915091D01*
X76980097Y-72947433D01*
X76937670Y-73041599D01*
X76918667Y-73106318D01*
X76918666Y-73106320D01*
X76898215Y-73243587D01*
X76917239Y-73386197D01*
X76936244Y-73453449D01*
X76994673Y-73584918D01*
X77010033Y-73609362D01*
X77022079Y-73634376D01*
X77034809Y-73670753D01*
X77040987Y-73697825D01*
X77045301Y-73736117D01*
X77045301Y-73763882D01*
X77040987Y-73802172D01*
X77034809Y-73829243D01*
X77022081Y-73865618D01*
X77010032Y-73890636D01*
X76989529Y-73923266D01*
X76972217Y-73944975D01*
X76944975Y-73972217D01*
X76923266Y-73989529D01*
X76890636Y-74010032D01*
X76865618Y-74022081D01*
X76829243Y-74034809D01*
X76802172Y-74040987D01*
X76763882Y-74045301D01*
X76736116Y-74045301D01*
X76697827Y-74040987D01*
X76670758Y-74034809D01*
X76634384Y-74022082D01*
X76609363Y-74010033D01*
X76576730Y-73989528D01*
X76555022Y-73972216D01*
X76527781Y-73944975D01*
X76510469Y-73923266D01*
X76489966Y-73890636D01*
X76477918Y-73865619D01*
X76465190Y-73829245D01*
X76459011Y-73802177D01*
X76454696Y-73763870D01*
X76454697Y-73736113D01*
X76459012Y-73697816D01*
X76465189Y-73670749D01*
X76477916Y-73634381D01*
X76489962Y-73609369D01*
X76505320Y-73584927D01*
X76505325Y-73584918D01*
X76505328Y-73584914D01*
X76562331Y-73458393D01*
X76581331Y-73393688D01*
X76601783Y-73256421D01*
X76590692Y-73173268D01*
X76582761Y-73113809D01*
X76582760Y-73113805D01*
X76580644Y-73106318D01*
X76563760Y-73046567D01*
X76505329Y-72915089D01*
X76489963Y-72890634D01*
X76477918Y-72865623D01*
X76465188Y-72829245D01*
X76459011Y-72802181D01*
X76454696Y-72763871D01*
X76454697Y-72736112D01*
X76454697Y-72736111D01*
X76459010Y-72697825D01*
X76465186Y-72670761D01*
X76477919Y-72634373D01*
X76489966Y-72609361D01*
X76510469Y-72576731D01*
X76527777Y-72555026D01*
X76555026Y-72527777D01*
X76576731Y-72510469D01*
X76609361Y-72489966D01*
X76634373Y-72477919D01*
X76670761Y-72465186D01*
X76697822Y-72459010D01*
X76736118Y-72454696D01*
X76763880Y-72454696D01*
X76802173Y-72459010D01*
G37*
%TD.AperFunction*%
%TA.AperFunction,Conductor*%
G36*
X78552173Y-72709010D02*
G01*
X78579237Y-72715187D01*
X78615620Y-72727918D01*
X78640636Y-72739966D01*
X78673266Y-72760469D01*
X78694975Y-72777781D01*
X78722219Y-72805025D01*
X78739532Y-72826734D01*
X78749248Y-72842197D01*
X78749247Y-72842197D01*
X78749250Y-72842201D01*
X78760033Y-72859363D01*
X78772079Y-72884376D01*
X78782824Y-72915084D01*
X78784808Y-72920752D01*
X78790987Y-72947826D01*
X78795301Y-72986117D01*
X78795301Y-73013882D01*
X78790987Y-73052172D01*
X78784809Y-73079243D01*
X78772081Y-73115618D01*
X78760032Y-73140636D01*
X78739529Y-73173266D01*
X78722217Y-73194975D01*
X78694975Y-73222217D01*
X78673266Y-73239529D01*
X78640636Y-73260032D01*
X78615618Y-73272081D01*
X78579243Y-73284809D01*
X78552172Y-73290987D01*
X78513882Y-73295301D01*
X78486116Y-73295301D01*
X78447826Y-73290987D01*
X78420756Y-73284809D01*
X78384380Y-73272081D01*
X78359363Y-73260034D01*
X78359360Y-73260032D01*
X78357024Y-73258564D01*
X78357023Y-73258564D01*
X78342199Y-73249249D01*
X78326732Y-73239530D01*
X78305025Y-73222219D01*
X78277783Y-73194977D01*
X78260472Y-73173271D01*
X78239962Y-73140630D01*
X78227916Y-73115615D01*
X78227283Y-73113805D01*
X78210747Y-73066550D01*
X78205933Y-73048551D01*
X78205616Y-73046866D01*
X78198750Y-73010406D01*
X78196658Y-73002546D01*
X78198435Y-72932702D01*
X78211486Y-72904687D01*
X78260474Y-72826722D01*
X78277776Y-72805027D01*
X78305026Y-72777777D01*
X78326731Y-72760469D01*
X78359361Y-72739966D01*
X78384373Y-72727919D01*
X78420761Y-72715186D01*
X78447822Y-72709010D01*
X78486118Y-72704696D01*
X78513880Y-72704696D01*
X78552173Y-72709010D01*
G37*
%TD.AperFunction*%
%TA.AperFunction,Conductor*%
G36*
X86412173Y-65749010D02*
G01*
X86439237Y-65755187D01*
X86475620Y-65767918D01*
X86500636Y-65779966D01*
X86533266Y-65800469D01*
X86554975Y-65817781D01*
X86584906Y-65847712D01*
X86597058Y-65861844D01*
X86637289Y-65916453D01*
X86661083Y-65944198D01*
X86661091Y-65944207D01*
X86671954Y-65955124D01*
X86705285Y-66016531D01*
X86700125Y-66086210D01*
X86678590Y-66122825D01*
X86593314Y-66223294D01*
X86586458Y-66230734D01*
X86554975Y-66262217D01*
X86533266Y-66279529D01*
X86500636Y-66300032D01*
X86475618Y-66312081D01*
X86439243Y-66324809D01*
X86412172Y-66330987D01*
X86373882Y-66335301D01*
X86346116Y-66335301D01*
X86307826Y-66330987D01*
X86280755Y-66324809D01*
X86244380Y-66312081D01*
X86219362Y-66300032D01*
X86186732Y-66279529D01*
X86165023Y-66262217D01*
X86137782Y-66234976D01*
X86120469Y-66213267D01*
X86103613Y-66186441D01*
X86075445Y-66141611D01*
X86072403Y-66137504D01*
X86049504Y-66106587D01*
X86025420Y-66040999D01*
X86040620Y-65972802D01*
X86054610Y-65952542D01*
X86100576Y-65898390D01*
X86120470Y-65866727D01*
X86137774Y-65845029D01*
X86165026Y-65817777D01*
X86186731Y-65800469D01*
X86219361Y-65779966D01*
X86244373Y-65767919D01*
X86280761Y-65755186D01*
X86307822Y-65749010D01*
X86346118Y-65744696D01*
X86373880Y-65744696D01*
X86412173Y-65749010D01*
G37*
%TD.AperFunction*%
%TA.AperFunction,Conductor*%
G36*
X84587823Y-64700799D02*
G01*
X84715035Y-64704693D01*
X84731631Y-64705202D01*
X84731631Y-64705201D01*
X84731635Y-64705202D01*
X84736106Y-64704697D01*
X84763879Y-64704696D01*
X84802175Y-64709010D01*
X84829239Y-64715188D01*
X84865620Y-64727918D01*
X84890630Y-64739961D01*
X84923273Y-64760473D01*
X84944975Y-64777781D01*
X84972217Y-64805023D01*
X84989529Y-64826732D01*
X85010032Y-64859362D01*
X85022080Y-64884377D01*
X85025894Y-64895276D01*
X85025895Y-64895280D01*
X85034809Y-64920756D01*
X85040987Y-64947826D01*
X85045301Y-64986116D01*
X85045301Y-65013881D01*
X85040987Y-65052172D01*
X85034808Y-65079245D01*
X85022080Y-65115619D01*
X85010035Y-65140633D01*
X84994672Y-65165083D01*
X84937667Y-65291608D01*
X84918667Y-65356314D01*
X84898216Y-65493571D01*
X84898216Y-65493573D01*
X84898216Y-65493575D01*
X84915116Y-65620283D01*
X84917239Y-65636201D01*
X84936237Y-65703431D01*
X84936562Y-65704269D01*
X84937382Y-65706007D01*
X84994663Y-65834900D01*
X84994665Y-65834904D01*
X84994669Y-65834912D01*
X84994673Y-65834919D01*
X84994674Y-65834920D01*
X85019861Y-65875006D01*
X85019868Y-65875017D01*
X85025756Y-65884387D01*
X85034556Y-65898391D01*
X85034565Y-65898403D01*
X85060494Y-65933411D01*
X85084577Y-65998999D01*
X85069377Y-66067195D01*
X85055387Y-66087455D01*
X85009420Y-66141611D01*
X84989527Y-66173270D01*
X84972216Y-66194976D01*
X84944975Y-66222217D01*
X84923266Y-66239529D01*
X84890636Y-66260032D01*
X84865618Y-66272081D01*
X84829243Y-66284809D01*
X84802172Y-66290987D01*
X84763882Y-66295301D01*
X84736116Y-66295301D01*
X84697826Y-66290987D01*
X84670755Y-66284809D01*
X84634380Y-66272081D01*
X84609362Y-66260032D01*
X84576732Y-66239529D01*
X84555023Y-66222217D01*
X84527782Y-66194976D01*
X84510469Y-66173267D01*
X84490578Y-66141611D01*
X84489961Y-66140629D01*
X84477919Y-66115623D01*
X84465188Y-66079240D01*
X84459012Y-66052176D01*
X84454697Y-66013879D01*
X84454697Y-65986113D01*
X84459012Y-65947816D01*
X84465189Y-65920749D01*
X84477915Y-65884382D01*
X84489962Y-65859369D01*
X84505320Y-65834927D01*
X84505324Y-65834920D01*
X84505328Y-65834914D01*
X84562331Y-65708393D01*
X84581331Y-65643688D01*
X84601783Y-65506421D01*
X84591016Y-65425702D01*
X84582761Y-65363809D01*
X84582760Y-65363805D01*
X84582409Y-65362564D01*
X84563760Y-65296567D01*
X84505329Y-65165089D01*
X84489960Y-65140630D01*
X84477919Y-65115627D01*
X84452714Y-65043597D01*
X84448733Y-65029644D01*
X84440870Y-64994363D01*
X84440866Y-64994353D01*
X84440865Y-64994345D01*
X84423972Y-64944444D01*
X84423968Y-64944435D01*
X84423967Y-64944432D01*
X84386364Y-64863195D01*
X84376069Y-64794089D01*
X84404769Y-64730386D01*
X84463353Y-64692312D01*
X84520286Y-64688969D01*
X84587823Y-64700799D01*
G37*
%TD.AperFunction*%
%TA.AperFunction,Conductor*%
G36*
X72052173Y-64959010D02*
G01*
X72079237Y-64965187D01*
X72115620Y-64977918D01*
X72140636Y-64989966D01*
X72173266Y-65010469D01*
X72194975Y-65027781D01*
X72222219Y-65055025D01*
X72239532Y-65076734D01*
X72249248Y-65092197D01*
X72249247Y-65092197D01*
X72249250Y-65092201D01*
X72260033Y-65109363D01*
X72272079Y-65134376D01*
X72282824Y-65165084D01*
X72284808Y-65170752D01*
X72290987Y-65197826D01*
X72295301Y-65236117D01*
X72295301Y-65263880D01*
X72291438Y-65298184D01*
X72290988Y-65302174D01*
X72284809Y-65329245D01*
X72272717Y-65363804D01*
X72272083Y-65365615D01*
X72260034Y-65390634D01*
X72239529Y-65423267D01*
X72222217Y-65444975D01*
X72194975Y-65472217D01*
X72173266Y-65489529D01*
X72140636Y-65510032D01*
X72115619Y-65522080D01*
X72079242Y-65534809D01*
X72055884Y-65540146D01*
X72055928Y-65540370D01*
X72055915Y-65540372D01*
X72055930Y-65540468D01*
X72053519Y-65540836D01*
X71975137Y-65556012D01*
X71975133Y-65556013D01*
X71959211Y-65560425D01*
X71889349Y-65559355D01*
X71831157Y-65520685D01*
X71826835Y-65515238D01*
X71810615Y-65493571D01*
X71763683Y-65430877D01*
X71763678Y-65430872D01*
X71763673Y-65430866D01*
X71763659Y-65430852D01*
X71754000Y-65419989D01*
X71709665Y-65363809D01*
X71708684Y-65362566D01*
X71671790Y-65324912D01*
X71624371Y-65285895D01*
X71585110Y-65228099D01*
X71583329Y-65158252D01*
X71619593Y-65098530D01*
X71669437Y-65070815D01*
X71710809Y-65059125D01*
X71842289Y-65000693D01*
X71859358Y-64989966D01*
X71884377Y-64977918D01*
X71920754Y-64965189D01*
X71947822Y-64959010D01*
X71986118Y-64954696D01*
X72013880Y-64954696D01*
X72052173Y-64959010D01*
G37*
%TD.AperFunction*%
%TA.AperFunction,Conductor*%
G36*
X70552173Y-63709010D02*
G01*
X70579237Y-63715187D01*
X70615620Y-63727918D01*
X70640636Y-63739966D01*
X70673266Y-63760469D01*
X70694975Y-63777781D01*
X70722215Y-63805021D01*
X70739528Y-63826731D01*
X70760033Y-63859365D01*
X70772079Y-63884378D01*
X70782687Y-63914691D01*
X70782691Y-63914703D01*
X70784811Y-63920763D01*
X70790987Y-63947826D01*
X70795301Y-63986116D01*
X70795301Y-64013881D01*
X70790987Y-64052172D01*
X70784810Y-64079240D01*
X70775897Y-64104713D01*
X70748475Y-64240750D01*
X70748474Y-64240760D01*
X70747909Y-64249993D01*
X70747909Y-64249996D01*
X70744349Y-64308075D01*
X70754954Y-64446434D01*
X70754955Y-64446439D01*
X70754956Y-64446440D01*
X70805238Y-64581249D01*
X70838723Y-64642572D01*
X70924947Y-64757753D01*
X70986345Y-64819151D01*
X70995997Y-64830008D01*
X71041305Y-64887423D01*
X71041308Y-64887426D01*
X71041309Y-64887427D01*
X71078202Y-64925081D01*
X71078208Y-64925086D01*
X71078213Y-64925091D01*
X71125626Y-64964103D01*
X71164887Y-65021898D01*
X71166669Y-65091745D01*
X71130406Y-65151468D01*
X71080559Y-65179183D01*
X71039199Y-65190870D01*
X71039183Y-65190875D01*
X71039167Y-65190882D01*
X70907709Y-65249305D01*
X70907703Y-65249309D01*
X70890627Y-65260038D01*
X70865611Y-65272084D01*
X70854659Y-65275916D01*
X70854596Y-65275937D01*
X70837748Y-65281833D01*
X70837741Y-65281836D01*
X70805291Y-65298184D01*
X70736564Y-65310765D01*
X70692313Y-65297465D01*
X70662226Y-65281825D01*
X70634380Y-65272081D01*
X70609363Y-65260033D01*
X70576730Y-65239528D01*
X70555022Y-65222216D01*
X70527783Y-65194977D01*
X70510470Y-65173268D01*
X70505328Y-65165085D01*
X70505328Y-65165084D01*
X70505327Y-65165083D01*
X70501623Y-65159188D01*
X70501623Y-65159187D01*
X70501622Y-65159186D01*
X70489967Y-65140638D01*
X70477918Y-65115619D01*
X70465190Y-65079245D01*
X70459011Y-65052175D01*
X70454696Y-65013870D01*
X70454697Y-64986111D01*
X70459010Y-64947825D01*
X70465189Y-64920756D01*
X70474104Y-64895280D01*
X70501525Y-64759235D01*
X70505649Y-64691923D01*
X70505423Y-64688969D01*
X70495044Y-64553563D01*
X70493417Y-64549199D01*
X70444761Y-64418750D01*
X70411276Y-64357427D01*
X70325052Y-64242246D01*
X70325047Y-64242241D01*
X70325042Y-64242235D01*
X70277782Y-64194976D01*
X70260469Y-64173266D01*
X70239966Y-64140636D01*
X70227918Y-64115619D01*
X70215190Y-64079245D01*
X70209011Y-64052175D01*
X70204696Y-64013870D01*
X70204697Y-63986111D01*
X70205100Y-63982533D01*
X70209010Y-63947825D01*
X70215186Y-63920761D01*
X70227919Y-63884373D01*
X70239966Y-63859361D01*
X70260469Y-63826731D01*
X70277777Y-63805026D01*
X70305026Y-63777777D01*
X70326731Y-63760469D01*
X70359361Y-63739966D01*
X70384373Y-63727919D01*
X70420761Y-63715186D01*
X70447822Y-63709010D01*
X70486118Y-63704696D01*
X70513880Y-63704696D01*
X70552173Y-63709010D01*
G37*
%TD.AperFunction*%
%TA.AperFunction,Conductor*%
G36*
X83802173Y-63959010D02*
G01*
X83829239Y-63965188D01*
X83865623Y-63977919D01*
X83890636Y-63989964D01*
X83923264Y-64010466D01*
X83944972Y-64027778D01*
X83972217Y-64055023D01*
X83989529Y-64076732D01*
X84010032Y-64109362D01*
X84022081Y-64134381D01*
X84047279Y-64206396D01*
X84051267Y-64220371D01*
X84059123Y-64255618D01*
X84059125Y-64255623D01*
X84076028Y-64305557D01*
X84109932Y-64378807D01*
X84113633Y-64386802D01*
X84123928Y-64455909D01*
X84095227Y-64519612D01*
X84036642Y-64557685D01*
X83979710Y-64561028D01*
X83912177Y-64549200D01*
X83912172Y-64549199D01*
X83835954Y-64546866D01*
X83768363Y-64544797D01*
X83768362Y-64544797D01*
X83768361Y-64544797D01*
X83768355Y-64544797D01*
X83763866Y-64545303D01*
X83736113Y-64545301D01*
X83697826Y-64540987D01*
X83670758Y-64534809D01*
X83634384Y-64522082D01*
X83609363Y-64510033D01*
X83576730Y-64489528D01*
X83555022Y-64472216D01*
X83527783Y-64444977D01*
X83510471Y-64423269D01*
X83489964Y-64390633D01*
X83477915Y-64365613D01*
X83475051Y-64357429D01*
X83465188Y-64329241D01*
X83459011Y-64302175D01*
X83454696Y-64263870D01*
X83454697Y-64236111D01*
X83459010Y-64197825D01*
X83465186Y-64170761D01*
X83477919Y-64134373D01*
X83489966Y-64109361D01*
X83510469Y-64076731D01*
X83527777Y-64055026D01*
X83555026Y-64027777D01*
X83576731Y-64010469D01*
X83609361Y-63989966D01*
X83634373Y-63977919D01*
X83670761Y-63965186D01*
X83697822Y-63959010D01*
X83736118Y-63954696D01*
X83763880Y-63954696D01*
X83802173Y-63959010D01*
G37*
%TD.AperFunction*%
%TA.AperFunction,Conductor*%
G36*
X86412173Y-60669010D02*
G01*
X86439237Y-60675187D01*
X86475620Y-60687918D01*
X86500636Y-60699966D01*
X86533266Y-60720469D01*
X86554975Y-60737781D01*
X86584906Y-60767712D01*
X86597058Y-60781844D01*
X86637289Y-60836453D01*
X86661083Y-60864198D01*
X86661091Y-60864207D01*
X86671954Y-60875124D01*
X86705285Y-60936531D01*
X86700125Y-61006210D01*
X86678590Y-61042825D01*
X86593314Y-61143294D01*
X86586458Y-61150734D01*
X86554975Y-61182217D01*
X86533266Y-61199529D01*
X86500636Y-61220032D01*
X86475618Y-61232081D01*
X86439243Y-61244809D01*
X86412172Y-61250987D01*
X86373882Y-61255301D01*
X86346117Y-61255301D01*
X86307825Y-61250987D01*
X86280756Y-61244809D01*
X86244376Y-61232079D01*
X86219362Y-61220033D01*
X86186731Y-61199529D01*
X86165023Y-61182217D01*
X86137783Y-61154977D01*
X86120475Y-61133275D01*
X86099960Y-61100627D01*
X86087918Y-61075621D01*
X86075187Y-61039238D01*
X86069011Y-61012175D01*
X86064696Y-60973870D01*
X86064697Y-60946111D01*
X86069010Y-60907825D01*
X86075186Y-60880761D01*
X86087919Y-60844373D01*
X86099966Y-60819361D01*
X86120469Y-60786731D01*
X86137777Y-60765026D01*
X86165026Y-60737777D01*
X86186731Y-60720469D01*
X86219361Y-60699966D01*
X86244373Y-60687919D01*
X86280761Y-60675186D01*
X86307822Y-60669010D01*
X86346118Y-60664696D01*
X86373880Y-60664696D01*
X86412173Y-60669010D01*
G37*
%TD.AperFunction*%
%TA.AperFunction,Conductor*%
G36*
X74987910Y-58088789D02*
G01*
X75038245Y-58127077D01*
X75038481Y-58126869D01*
X75039527Y-58128052D01*
X75040141Y-58128519D01*
X75041418Y-58130190D01*
X75087713Y-58182530D01*
X75163288Y-58246677D01*
X75170727Y-58253533D01*
X75222216Y-58305022D01*
X75239528Y-58326731D01*
X75260031Y-58359361D01*
X75272080Y-58384379D01*
X75284809Y-58420757D01*
X75290987Y-58447827D01*
X75295301Y-58486114D01*
X75295301Y-58513882D01*
X75290986Y-58552178D01*
X75284809Y-58579245D01*
X75280127Y-58592625D01*
X75268005Y-58627270D01*
X75248137Y-58701921D01*
X75241236Y-58739077D01*
X75241234Y-58739094D01*
X75232975Y-58815904D01*
X75232975Y-58815911D01*
X75249083Y-58958896D01*
X75267284Y-59028717D01*
X75269652Y-59033509D01*
X75279752Y-59057546D01*
X75317372Y-59147076D01*
X75322446Y-59159150D01*
X75402736Y-59257750D01*
X75413295Y-59270717D01*
X75464674Y-59318066D01*
X75583277Y-59399521D01*
X75583282Y-59399522D01*
X75583283Y-59399523D01*
X75720014Y-59444259D01*
X75720018Y-59444260D01*
X75720024Y-59444262D01*
X75788846Y-59456317D01*
X75932657Y-59460720D01*
X75986119Y-59454696D01*
X76013881Y-59454696D01*
X76052177Y-59459010D01*
X76079244Y-59465188D01*
X76115619Y-59477916D01*
X76140633Y-59489963D01*
X76158637Y-59501275D01*
X76165089Y-59505329D01*
X76165091Y-59505330D01*
X76165093Y-59505331D01*
X76192997Y-59517903D01*
X76291607Y-59562331D01*
X76356312Y-59581331D01*
X76493579Y-59601783D01*
X76614827Y-59585610D01*
X76636190Y-59582761D01*
X76636191Y-59582760D01*
X76636196Y-59582760D01*
X76703433Y-59563760D01*
X76834914Y-59505328D01*
X76859371Y-59489959D01*
X76884379Y-59477916D01*
X76920758Y-59465186D01*
X76947807Y-59459012D01*
X76986126Y-59454695D01*
X77013879Y-59454695D01*
X77052171Y-59459010D01*
X77079237Y-59465187D01*
X77115620Y-59477918D01*
X77140638Y-59489967D01*
X77159186Y-59501622D01*
X77159187Y-59501623D01*
X77159188Y-59501623D01*
X77165083Y-59505327D01*
X77165084Y-59505328D01*
X77173270Y-59510471D01*
X77194977Y-59527783D01*
X77222219Y-59555025D01*
X77239532Y-59576734D01*
X77249248Y-59592197D01*
X77249247Y-59592197D01*
X77249250Y-59592201D01*
X77260033Y-59609363D01*
X77272079Y-59634376D01*
X77281157Y-59660320D01*
X77284808Y-59670752D01*
X77290987Y-59697825D01*
X77295301Y-59736115D01*
X77295301Y-59763881D01*
X77290986Y-59802178D01*
X77284809Y-59829246D01*
X77268978Y-59874490D01*
X77262566Y-59894088D01*
X77259628Y-59903726D01*
X77254010Y-59923606D01*
X77254009Y-59923607D01*
X77237899Y-60066575D01*
X77237899Y-60066580D01*
X77240035Y-60136417D01*
X77240340Y-60138618D01*
X77240802Y-60140791D01*
X77264905Y-60278402D01*
X77257081Y-60347832D01*
X77230448Y-60387474D01*
X77212681Y-60405240D01*
X77151362Y-60438725D01*
X77081670Y-60433743D01*
X77037319Y-60405241D01*
X77002262Y-60370184D01*
X76849523Y-60274211D01*
X76679254Y-60214631D01*
X76679249Y-60214630D01*
X76500004Y-60194435D01*
X76499996Y-60194435D01*
X76320746Y-60214631D01*
X76320742Y-60214632D01*
X76264254Y-60234397D01*
X76194475Y-60237958D01*
X76137427Y-60206806D01*
X76049526Y-60122419D01*
X76049524Y-60122417D01*
X75992748Y-60081695D01*
X75992745Y-60081693D01*
X75992743Y-60081692D01*
X75885250Y-60025811D01*
X75876473Y-60020784D01*
X75826731Y-59989529D01*
X75805022Y-59972216D01*
X75763661Y-59930855D01*
X75754002Y-59919991D01*
X75708688Y-59862571D01*
X75708683Y-59862565D01*
X75671790Y-59824912D01*
X75630559Y-59790987D01*
X75588339Y-59756247D01*
X75458078Y-59695147D01*
X75458076Y-59695146D01*
X75434038Y-59687820D01*
X75391240Y-59674778D01*
X75309008Y-59662098D01*
X75249042Y-59652851D01*
X75249039Y-59652851D01*
X75249038Y-59652851D01*
X75106430Y-59671872D01*
X75039206Y-59690868D01*
X75039184Y-59690875D01*
X75039170Y-59690880D01*
X74907702Y-59749309D01*
X74890626Y-59760038D01*
X74865616Y-59772081D01*
X74829245Y-59784808D01*
X74802172Y-59790987D01*
X74763881Y-59795301D01*
X74736116Y-59795301D01*
X74697826Y-59790987D01*
X74670756Y-59784809D01*
X74634380Y-59772081D01*
X74609365Y-59760035D01*
X74576727Y-59739526D01*
X74555023Y-59722217D01*
X74527780Y-59694974D01*
X74510471Y-59673270D01*
X74502334Y-59660320D01*
X74502332Y-59660317D01*
X74489966Y-59640637D01*
X74477919Y-59615622D01*
X74465190Y-59579246D01*
X74459011Y-59552175D01*
X74454696Y-59513870D01*
X74454697Y-59486111D01*
X74459010Y-59447825D01*
X74465186Y-59420761D01*
X74477919Y-59384373D01*
X74489962Y-59359367D01*
X74510471Y-59326726D01*
X74527777Y-59305026D01*
X74575055Y-59257750D01*
X74658785Y-59147079D01*
X74691706Y-59088223D01*
X74742185Y-58958957D01*
X74755375Y-58815682D01*
X74754956Y-58807483D01*
X74751974Y-58749056D01*
X74751922Y-58747026D01*
X74751812Y-58745894D01*
X74741749Y-58694628D01*
X74724102Y-58604715D01*
X74715189Y-58579244D01*
X74709011Y-58552177D01*
X74704696Y-58513870D01*
X74704697Y-58486110D01*
X74709010Y-58447822D01*
X74715188Y-58420756D01*
X74727918Y-58384375D01*
X74739967Y-58359357D01*
X74750693Y-58342289D01*
X74798080Y-58245158D01*
X74815997Y-58195581D01*
X74821175Y-58174390D01*
X74856211Y-58113942D01*
X74918368Y-58082031D01*
X74987910Y-58088789D01*
G37*
%TD.AperFunction*%
%TA.AperFunction,Conductor*%
G36*
X74821537Y-56833466D02*
G01*
X74865379Y-56887869D01*
X74866997Y-56891981D01*
X74867608Y-56893619D01*
X74893823Y-56941628D01*
X74901093Y-56954942D01*
X74901094Y-56954944D01*
X74972206Y-57049939D01*
X74977932Y-57058276D01*
X75010031Y-57109360D01*
X75022080Y-57134379D01*
X75034809Y-57170757D01*
X75040987Y-57197827D01*
X75045301Y-57236115D01*
X75045301Y-57263881D01*
X75040987Y-57302172D01*
X75034808Y-57329247D01*
X75022080Y-57365619D01*
X75010038Y-57390626D01*
X74999312Y-57407698D01*
X74999310Y-57407702D01*
X74951918Y-57504839D01*
X74934007Y-57554401D01*
X74933997Y-57554431D01*
X74928822Y-57575609D01*
X74893784Y-57636058D01*
X74831627Y-57667968D01*
X74762085Y-57661208D01*
X74711747Y-57622918D01*
X74711514Y-57623125D01*
X74710475Y-57621951D01*
X74709859Y-57621482D01*
X74708585Y-57619816D01*
X74708580Y-57619808D01*
X74664322Y-57569771D01*
X74663023Y-57568227D01*
X74662288Y-57567471D01*
X74662286Y-57567469D01*
X74662285Y-57567468D01*
X74586708Y-57503319D01*
X74579269Y-57496463D01*
X74527783Y-57444977D01*
X74510469Y-57423266D01*
X74502416Y-57410449D01*
X74502409Y-57410440D01*
X74489963Y-57390632D01*
X74477918Y-57365619D01*
X74465190Y-57329245D01*
X74459011Y-57302175D01*
X74454696Y-57263870D01*
X74454697Y-57236111D01*
X74459010Y-57197825D01*
X74465186Y-57170761D01*
X74477919Y-57134373D01*
X74489962Y-57109366D01*
X74517615Y-57065356D01*
X74526050Y-57053533D01*
X74580491Y-56985981D01*
X74608992Y-56941634D01*
X74639934Y-56879818D01*
X74687544Y-56828682D01*
X74755243Y-56811402D01*
X74821537Y-56833466D01*
G37*
%TD.AperFunction*%
%TA.AperFunction,Conductor*%
G36*
X74802173Y-55709010D02*
G01*
X74829239Y-55715188D01*
X74865623Y-55727919D01*
X74890636Y-55739964D01*
X74923264Y-55760466D01*
X74944972Y-55777778D01*
X74972216Y-55805022D01*
X74989529Y-55826731D01*
X75010035Y-55859366D01*
X75022080Y-55884379D01*
X75025406Y-55893882D01*
X75034809Y-55920753D01*
X75040987Y-55947822D01*
X75045301Y-55986111D01*
X75045302Y-55986114D01*
X75045302Y-56013882D01*
X75040988Y-56052172D01*
X75034810Y-56079242D01*
X75023314Y-56112098D01*
X75022083Y-56115615D01*
X75010035Y-56140633D01*
X74982386Y-56184636D01*
X74973944Y-56196470D01*
X74919507Y-56264021D01*
X74919505Y-56264025D01*
X74891004Y-56308372D01*
X74860064Y-56370182D01*
X74812453Y-56421319D01*
X74744754Y-56438597D01*
X74678460Y-56416531D01*
X74634619Y-56362127D01*
X74633007Y-56358031D01*
X74632392Y-56356381D01*
X74598907Y-56295058D01*
X74527776Y-56200039D01*
X74522074Y-56191737D01*
X74489961Y-56140630D01*
X74477919Y-56115622D01*
X74465190Y-56079245D01*
X74459011Y-56052175D01*
X74454696Y-56013870D01*
X74454697Y-55986111D01*
X74459010Y-55947829D01*
X74465186Y-55920761D01*
X74477919Y-55884373D01*
X74489966Y-55859361D01*
X74510469Y-55826731D01*
X74527777Y-55805026D01*
X74555026Y-55777777D01*
X74576731Y-55760469D01*
X74609361Y-55739966D01*
X74634373Y-55727919D01*
X74670761Y-55715186D01*
X74697822Y-55709010D01*
X74736118Y-55704696D01*
X74763880Y-55704696D01*
X74802173Y-55709010D01*
G37*
%TD.AperFunction*%
%TA.AperFunction,Conductor*%
G36*
X85802175Y-54709010D02*
G01*
X85829241Y-54715188D01*
X85917090Y-54745928D01*
X85941656Y-54753826D01*
X85953786Y-54757387D01*
X85978665Y-54764008D01*
X86121940Y-54777199D01*
X86188563Y-54773798D01*
X86190600Y-54773747D01*
X86191711Y-54773638D01*
X86191718Y-54773638D01*
X86191724Y-54773638D01*
X86332911Y-54745928D01*
X86420764Y-54715186D01*
X86447820Y-54709011D01*
X86486118Y-54704696D01*
X86513880Y-54704696D01*
X86552173Y-54709010D01*
X86579237Y-54715187D01*
X86615620Y-54727918D01*
X86640637Y-54739966D01*
X86674667Y-54761349D01*
X86693196Y-54775593D01*
X86693830Y-54776184D01*
X86693839Y-54776192D01*
X86700317Y-54782224D01*
X86713765Y-54794305D01*
X86834805Y-54872092D01*
X86834809Y-54872094D01*
X86834813Y-54872096D01*
X86843357Y-54875997D01*
X86867359Y-54886959D01*
X86920162Y-54932710D01*
X86939849Y-54999749D01*
X86920166Y-55066789D01*
X86867364Y-55112546D01*
X86859200Y-55115928D01*
X86857393Y-55116602D01*
X86857384Y-55116606D01*
X86857381Y-55116608D01*
X86826544Y-55133446D01*
X86796057Y-55150093D01*
X86796056Y-55150093D01*
X86697958Y-55223527D01*
X86689622Y-55229252D01*
X86640637Y-55260032D01*
X86615618Y-55272081D01*
X86579243Y-55284809D01*
X86552172Y-55290987D01*
X86513882Y-55295301D01*
X86486117Y-55295301D01*
X86447819Y-55290986D01*
X86420751Y-55284808D01*
X86332910Y-55254070D01*
X86308388Y-55246185D01*
X86296232Y-55242616D01*
X86271330Y-55235990D01*
X86271332Y-55235990D01*
X86128049Y-55222799D01*
X86058272Y-55226362D01*
X85917090Y-55254071D01*
X85917087Y-55254072D01*
X85829244Y-55284809D01*
X85802173Y-55290987D01*
X85763881Y-55295301D01*
X85736116Y-55295301D01*
X85697826Y-55290987D01*
X85670755Y-55284809D01*
X85634380Y-55272081D01*
X85609362Y-55260032D01*
X85576732Y-55239529D01*
X85555023Y-55222217D01*
X85527780Y-55194974D01*
X85510468Y-55173265D01*
X85489965Y-55140635D01*
X85477919Y-55115622D01*
X85465189Y-55079242D01*
X85459012Y-55052175D01*
X85454697Y-55013875D01*
X85454697Y-54986111D01*
X85459010Y-54947829D01*
X85465186Y-54920761D01*
X85477919Y-54884373D01*
X85489966Y-54859361D01*
X85510469Y-54826731D01*
X85527777Y-54805026D01*
X85555026Y-54777777D01*
X85576731Y-54760469D01*
X85609361Y-54739966D01*
X85634373Y-54727919D01*
X85670761Y-54715186D01*
X85697822Y-54709010D01*
X85736118Y-54704696D01*
X85763880Y-54704696D01*
X85802175Y-54709010D01*
G37*
%TD.AperFunction*%
%TA.AperFunction,Conductor*%
G36*
X71552173Y-52709010D02*
G01*
X71579239Y-52715188D01*
X71615623Y-52727919D01*
X71640636Y-52739964D01*
X71673264Y-52760466D01*
X71694972Y-52777778D01*
X71722217Y-52805023D01*
X71739529Y-52826732D01*
X71760032Y-52859362D01*
X71772081Y-52884380D01*
X71784809Y-52920755D01*
X71790987Y-52947826D01*
X71795301Y-52986116D01*
X71795301Y-53013880D01*
X71793935Y-53026019D01*
X71790988Y-53052174D01*
X71784809Y-53079245D01*
X71772082Y-53115616D01*
X71760034Y-53140634D01*
X71739529Y-53173267D01*
X71722217Y-53194975D01*
X71694975Y-53222217D01*
X71673266Y-53239529D01*
X71640636Y-53260032D01*
X71615618Y-53272081D01*
X71579243Y-53284809D01*
X71552172Y-53290987D01*
X71513882Y-53295301D01*
X71486116Y-53295301D01*
X71447826Y-53290987D01*
X71420755Y-53284809D01*
X71384380Y-53272081D01*
X71359362Y-53260032D01*
X71326732Y-53239529D01*
X71305023Y-53222217D01*
X71277781Y-53194975D01*
X71260468Y-53173265D01*
X71239965Y-53140634D01*
X71227917Y-53115616D01*
X71218177Y-53087780D01*
X71218175Y-53087775D01*
X71201812Y-53055294D01*
X71189231Y-52986567D01*
X71202530Y-52942317D01*
X71218174Y-52912225D01*
X71227917Y-52884380D01*
X71239960Y-52859372D01*
X71260473Y-52826724D01*
X71277780Y-52805023D01*
X71305026Y-52777777D01*
X71326731Y-52760469D01*
X71359361Y-52739966D01*
X71384373Y-52727919D01*
X71420761Y-52715186D01*
X71447822Y-52709010D01*
X71486118Y-52704696D01*
X71513880Y-52704696D01*
X71552173Y-52709010D01*
G37*
%TD.AperFunction*%
%TA.AperFunction,Conductor*%
G36*
X71069978Y-50020185D02*
G01*
X71115733Y-50072989D01*
X71126623Y-50115654D01*
X71130418Y-50168719D01*
X71136826Y-50258310D01*
X71187108Y-50393119D01*
X71220593Y-50454442D01*
X71306817Y-50569623D01*
X71306820Y-50569626D01*
X71306825Y-50569632D01*
X71342216Y-50605022D01*
X71359530Y-50626733D01*
X71380035Y-50659367D01*
X71392080Y-50684379D01*
X71404809Y-50720753D01*
X71410987Y-50747825D01*
X71415301Y-50786117D01*
X71415302Y-50813881D01*
X71410988Y-50852174D01*
X71404809Y-50879246D01*
X71392083Y-50915615D01*
X71380034Y-50940634D01*
X71359529Y-50973267D01*
X71342217Y-50994975D01*
X71314975Y-51022217D01*
X71293266Y-51039529D01*
X71260636Y-51060032D01*
X71235618Y-51072081D01*
X71199243Y-51084809D01*
X71172172Y-51090987D01*
X71133882Y-51095301D01*
X71106116Y-51095301D01*
X71067826Y-51090987D01*
X71040755Y-51084809D01*
X71004380Y-51072081D01*
X70979361Y-51060032D01*
X70958921Y-51047188D01*
X70864224Y-51000687D01*
X70864216Y-51000684D01*
X70864214Y-51000683D01*
X70815888Y-50982938D01*
X70713583Y-50957104D01*
X70569706Y-50957104D01*
X70538846Y-50961541D01*
X70500545Y-50967049D01*
X70500540Y-50967050D01*
X70500536Y-50967051D01*
X70362498Y-51007583D01*
X70362492Y-51007586D01*
X70241462Y-51085368D01*
X70241451Y-51085376D01*
X70188659Y-51131120D01*
X70094433Y-51239861D01*
X70094430Y-51239865D01*
X70034664Y-51370731D01*
X70014976Y-51437779D01*
X70009205Y-51477917D01*
X69996736Y-51564649D01*
X69994500Y-51580198D01*
X69994500Y-52191893D01*
X69974815Y-52258932D01*
X69922011Y-52304687D01*
X69852853Y-52314631D01*
X69789297Y-52285606D01*
X69760015Y-52248188D01*
X69708689Y-52147456D01*
X69497468Y-51822206D01*
X69288904Y-51564649D01*
X69288903Y-51564648D01*
X67794251Y-53059300D01*
X67720412Y-52957670D01*
X67542330Y-52779588D01*
X67440698Y-52705747D01*
X68935350Y-51211096D01*
X68935350Y-51211095D01*
X68677793Y-51002531D01*
X68352543Y-50791310D01*
X68006994Y-50615244D01*
X67644936Y-50476262D01*
X67270330Y-50375887D01*
X67270323Y-50375886D01*
X66887287Y-50315219D01*
X66500001Y-50294922D01*
X66499998Y-50294922D01*
X66331561Y-50303749D01*
X66263584Y-50287600D01*
X66215128Y-50237263D01*
X66201579Y-50168719D01*
X66227238Y-50103732D01*
X66283959Y-50062933D01*
X66308879Y-50056981D01*
X66602497Y-50018325D01*
X66613226Y-50017386D01*
X66997297Y-50000617D01*
X67002706Y-50000500D01*
X67065892Y-50000500D01*
X71002939Y-50000500D01*
X71069978Y-50020185D01*
G37*
%TD.AperFunction*%
%TA.AperFunction,Conductor*%
G36*
X73052173Y-51459010D02*
G01*
X73079237Y-51465187D01*
X73115620Y-51477918D01*
X73140636Y-51489966D01*
X73173266Y-51510469D01*
X73194975Y-51527781D01*
X73222216Y-51555022D01*
X73239529Y-51576731D01*
X73260035Y-51609366D01*
X73272080Y-51634379D01*
X73284809Y-51670753D01*
X73290987Y-51697825D01*
X73295301Y-51736117D01*
X73295301Y-51763884D01*
X73290986Y-51802176D01*
X73284808Y-51829244D01*
X73272081Y-51865617D01*
X73260032Y-51890636D01*
X73239529Y-51923266D01*
X73222217Y-51944975D01*
X73194975Y-51972217D01*
X73173266Y-51989529D01*
X73140636Y-52010032D01*
X73115618Y-52022081D01*
X73079243Y-52034809D01*
X73052172Y-52040987D01*
X73013882Y-52045301D01*
X72986116Y-52045301D01*
X72947826Y-52040987D01*
X72920755Y-52034809D01*
X72884380Y-52022081D01*
X72859362Y-52010032D01*
X72826732Y-51989529D01*
X72805023Y-51972217D01*
X72777783Y-51944977D01*
X72760472Y-51923271D01*
X72739966Y-51890638D01*
X72727917Y-51865618D01*
X72715188Y-51829241D01*
X72709011Y-51802175D01*
X72704696Y-51763870D01*
X72704697Y-51736111D01*
X72709010Y-51697825D01*
X72715186Y-51670761D01*
X72727919Y-51634373D01*
X72739966Y-51609361D01*
X72760469Y-51576731D01*
X72777777Y-51555026D01*
X72805026Y-51527777D01*
X72826731Y-51510469D01*
X72859361Y-51489966D01*
X72884373Y-51477919D01*
X72920761Y-51465186D01*
X72947822Y-51459010D01*
X72986118Y-51454696D01*
X73013880Y-51454696D01*
X73052173Y-51459010D01*
G37*
%TD.AperFunction*%
%TD*%
%TA.AperFunction,Conductor*%
%TO.N,VCC*%
G36*
X85795099Y-50020185D02*
G01*
X85840854Y-50072989D01*
X85850798Y-50142147D01*
X85821773Y-50205703D01*
X85815741Y-50212181D01*
X85730184Y-50297737D01*
X85634211Y-50450476D01*
X85574631Y-50620745D01*
X85574630Y-50620750D01*
X85554435Y-50799996D01*
X85554435Y-50800003D01*
X85574630Y-50979249D01*
X85574631Y-50979254D01*
X85634211Y-51149523D01*
X85730184Y-51302262D01*
X85821667Y-51393745D01*
X85855152Y-51455068D01*
X85850168Y-51524760D01*
X85838980Y-51547398D01*
X85774211Y-51650476D01*
X85714631Y-51820745D01*
X85714630Y-51820750D01*
X85694435Y-51999996D01*
X85694435Y-52000003D01*
X85714630Y-52179249D01*
X85714631Y-52179254D01*
X85774211Y-52349523D01*
X85853549Y-52475788D01*
X85870184Y-52502262D01*
X85997738Y-52629816D01*
X86030625Y-52650480D01*
X86132721Y-52714632D01*
X86150478Y-52725789D01*
X86206149Y-52745269D01*
X86320745Y-52785368D01*
X86320750Y-52785369D01*
X86499996Y-52805565D01*
X86500000Y-52805565D01*
X86500004Y-52805565D01*
X86679249Y-52785369D01*
X86679252Y-52785368D01*
X86679255Y-52785368D01*
X86849522Y-52725789D01*
X87002262Y-52629816D01*
X87038319Y-52593759D01*
X87099642Y-52560274D01*
X87169334Y-52565258D01*
X87225267Y-52607130D01*
X87249684Y-52672594D01*
X87250000Y-52681440D01*
X87250000Y-52816560D01*
X87230315Y-52883599D01*
X87213681Y-52904241D01*
X87120184Y-52997737D01*
X87024211Y-53150476D01*
X86964631Y-53320745D01*
X86964630Y-53320750D01*
X86944435Y-53499996D01*
X86944435Y-53500003D01*
X86964630Y-53679249D01*
X86964631Y-53679254D01*
X87024211Y-53849523D01*
X87120184Y-54002262D01*
X87213681Y-54095759D01*
X87247166Y-54157082D01*
X87250000Y-54183440D01*
X87250000Y-54318560D01*
X87230315Y-54385599D01*
X87177511Y-54431354D01*
X87108353Y-54441298D01*
X87044797Y-54412273D01*
X87038319Y-54406241D01*
X87002262Y-54370184D01*
X86849523Y-54274211D01*
X86679254Y-54214631D01*
X86679249Y-54214630D01*
X86500004Y-54194435D01*
X86499996Y-54194435D01*
X86320750Y-54214630D01*
X86320742Y-54214632D01*
X86165954Y-54268795D01*
X86096176Y-54272356D01*
X86084046Y-54268795D01*
X85929257Y-54214632D01*
X85929249Y-54214630D01*
X85750004Y-54194435D01*
X85749996Y-54194435D01*
X85570750Y-54214630D01*
X85570745Y-54214631D01*
X85400476Y-54274211D01*
X85247737Y-54370184D01*
X85120184Y-54497737D01*
X85024211Y-54650476D01*
X84964631Y-54820745D01*
X84964630Y-54820750D01*
X84944435Y-54999996D01*
X84944435Y-55000003D01*
X84964630Y-55179249D01*
X84964631Y-55179254D01*
X85024211Y-55349523D01*
X85041940Y-55377738D01*
X85120184Y-55502262D01*
X85247738Y-55629816D01*
X85400478Y-55725789D01*
X85570739Y-55785366D01*
X85570745Y-55785368D01*
X85570750Y-55785369D01*
X85749996Y-55805565D01*
X85750000Y-55805565D01*
X85750004Y-55805565D01*
X85929249Y-55785369D01*
X85929251Y-55785368D01*
X85929255Y-55785368D01*
X85929258Y-55785366D01*
X85929262Y-55785366D01*
X86084045Y-55731205D01*
X86153824Y-55727643D01*
X86165955Y-55731205D01*
X86320737Y-55785366D01*
X86320743Y-55785367D01*
X86320745Y-55785368D01*
X86320746Y-55785368D01*
X86320750Y-55785369D01*
X86499996Y-55805565D01*
X86500000Y-55805565D01*
X86500004Y-55805565D01*
X86679249Y-55785369D01*
X86679252Y-55785368D01*
X86679255Y-55785368D01*
X86849522Y-55725789D01*
X87002262Y-55629816D01*
X87038319Y-55593759D01*
X87099642Y-55560274D01*
X87169334Y-55565258D01*
X87225267Y-55607130D01*
X87249684Y-55672594D01*
X87250000Y-55681440D01*
X87250000Y-60441404D01*
X87230315Y-60508443D01*
X87177511Y-60554198D01*
X87108353Y-60564142D01*
X87044797Y-60535117D01*
X87021007Y-60507377D01*
X86989817Y-60457740D01*
X86989815Y-60457737D01*
X86862262Y-60330184D01*
X86709523Y-60234211D01*
X86539254Y-60174631D01*
X86539249Y-60174630D01*
X86360004Y-60154435D01*
X86359996Y-60154435D01*
X86180750Y-60174630D01*
X86180745Y-60174631D01*
X86010476Y-60234211D01*
X85857737Y-60330184D01*
X85730184Y-60457737D01*
X85634211Y-60610476D01*
X85574631Y-60780745D01*
X85574630Y-60780750D01*
X85554435Y-60959996D01*
X85554435Y-60960003D01*
X85574630Y-61139249D01*
X85574631Y-61139254D01*
X85634211Y-61309523D01*
X85695690Y-61407365D01*
X85730184Y-61462262D01*
X85857738Y-61589816D01*
X85862223Y-61592634D01*
X85961536Y-61655037D01*
X86010478Y-61685789D01*
X86133028Y-61728671D01*
X86180745Y-61745368D01*
X86180750Y-61745369D01*
X86359996Y-61765565D01*
X86360000Y-61765565D01*
X86360004Y-61765565D01*
X86539249Y-61745369D01*
X86539252Y-61745368D01*
X86539255Y-61745368D01*
X86709522Y-61685789D01*
X86862262Y-61589816D01*
X86989816Y-61462262D01*
X87021006Y-61412622D01*
X87073341Y-61366332D01*
X87142394Y-61355684D01*
X87206243Y-61384059D01*
X87244615Y-61442449D01*
X87250000Y-61478595D01*
X87250000Y-65521404D01*
X87230315Y-65588443D01*
X87177511Y-65634198D01*
X87108353Y-65644142D01*
X87044797Y-65615117D01*
X87021007Y-65587377D01*
X86989817Y-65537740D01*
X86989815Y-65537737D01*
X86862262Y-65410184D01*
X86709523Y-65314211D01*
X86539254Y-65254631D01*
X86539249Y-65254630D01*
X86360004Y-65234435D01*
X86359996Y-65234435D01*
X86180750Y-65254630D01*
X86180745Y-65254631D01*
X86010476Y-65314211D01*
X85857737Y-65410184D01*
X85730184Y-65537737D01*
X85730182Y-65537740D01*
X85672559Y-65629445D01*
X85620224Y-65675736D01*
X85551170Y-65686383D01*
X85487322Y-65658007D01*
X85462572Y-65629444D01*
X85446990Y-65604646D01*
X85422689Y-65565971D01*
X85403690Y-65498735D01*
X85422691Y-65434027D01*
X85475788Y-65349524D01*
X85475789Y-65349522D01*
X85535368Y-65179255D01*
X85535368Y-65179252D01*
X85535369Y-65179249D01*
X85555565Y-65000003D01*
X85555565Y-64999996D01*
X85535369Y-64820750D01*
X85535368Y-64820745D01*
X85503028Y-64728323D01*
X85475789Y-64650478D01*
X85473974Y-64647590D01*
X85402382Y-64533652D01*
X85379816Y-64497738D01*
X85252262Y-64370184D01*
X85202614Y-64338988D01*
X85099523Y-64274211D01*
X84929254Y-64214631D01*
X84929249Y-64214630D01*
X84750004Y-64194435D01*
X84749996Y-64194435D01*
X84675040Y-64202880D01*
X84606218Y-64190825D01*
X84554839Y-64143476D01*
X84537936Y-64093542D01*
X84535368Y-64070745D01*
X84475789Y-63900478D01*
X84379816Y-63747738D01*
X84252262Y-63620184D01*
X84235259Y-63609500D01*
X84099523Y-63524211D01*
X83929254Y-63464631D01*
X83929249Y-63464630D01*
X83750004Y-63444435D01*
X83749996Y-63444435D01*
X83570750Y-63464630D01*
X83570745Y-63464631D01*
X83400476Y-63524211D01*
X83247737Y-63620184D01*
X83120184Y-63747737D01*
X83024211Y-63900476D01*
X82964631Y-64070745D01*
X82964630Y-64070750D01*
X82944435Y-64249996D01*
X82944435Y-64250003D01*
X82964630Y-64429249D01*
X82964631Y-64429254D01*
X83024211Y-64599523D01*
X83062847Y-64661011D01*
X83120184Y-64752262D01*
X83247738Y-64879816D01*
X83400478Y-64975789D01*
X83469678Y-65000003D01*
X83570745Y-65035368D01*
X83570750Y-65035369D01*
X83749996Y-65055565D01*
X83750000Y-65055565D01*
X83750002Y-65055565D01*
X83779862Y-65052200D01*
X83824959Y-65047119D01*
X83893780Y-65059173D01*
X83945159Y-65106522D01*
X83962062Y-65156453D01*
X83964631Y-65179251D01*
X83964633Y-65179262D01*
X84024209Y-65349520D01*
X84077309Y-65434029D01*
X84096309Y-65501266D01*
X84077309Y-65565971D01*
X84024209Y-65650479D01*
X83964633Y-65820737D01*
X83964630Y-65820750D01*
X83944435Y-65999996D01*
X83944435Y-66000000D01*
X83964630Y-66179249D01*
X83964631Y-66179254D01*
X84024211Y-66349523D01*
X84096179Y-66464059D01*
X84120184Y-66502262D01*
X84247738Y-66629816D01*
X84400478Y-66725789D01*
X84570745Y-66785368D01*
X84570750Y-66785369D01*
X84749996Y-66805565D01*
X84750000Y-66805565D01*
X84750004Y-66805565D01*
X84929249Y-66785369D01*
X84929252Y-66785368D01*
X84929255Y-66785368D01*
X85099522Y-66725789D01*
X85252262Y-66629816D01*
X85379816Y-66502262D01*
X85437439Y-66410554D01*
X85489774Y-66364264D01*
X85558827Y-66353616D01*
X85622676Y-66381991D01*
X85647426Y-66410554D01*
X85730184Y-66542262D01*
X85857738Y-66669816D01*
X86010478Y-66765789D01*
X86180745Y-66825368D01*
X86180750Y-66825369D01*
X86359996Y-66845565D01*
X86360000Y-66845565D01*
X86360004Y-66845565D01*
X86539249Y-66825369D01*
X86539252Y-66825368D01*
X86539255Y-66825368D01*
X86709522Y-66765789D01*
X86862262Y-66669816D01*
X86989816Y-66542262D01*
X87021006Y-66492622D01*
X87073341Y-66446332D01*
X87142394Y-66435684D01*
X87206243Y-66464059D01*
X87244615Y-66522449D01*
X87250000Y-66558595D01*
X87250000Y-70901404D01*
X87230315Y-70968443D01*
X87177511Y-71014198D01*
X87166961Y-71018443D01*
X87160591Y-71020672D01*
X87150474Y-71024212D01*
X86997737Y-71120184D01*
X86870184Y-71247737D01*
X86774211Y-71400476D01*
X86714631Y-71570745D01*
X86714630Y-71570750D01*
X86694435Y-71749996D01*
X86694435Y-71750003D01*
X86714630Y-71929249D01*
X86714632Y-71929257D01*
X86752277Y-72036841D01*
X86755838Y-72106620D01*
X86721109Y-72167247D01*
X86659115Y-72199474D01*
X86589540Y-72193068D01*
X86547554Y-72165476D01*
X86502262Y-72120184D01*
X86349523Y-72024211D01*
X86179254Y-71964631D01*
X86179249Y-71964630D01*
X86000004Y-71944435D01*
X85999996Y-71944435D01*
X85820750Y-71964630D01*
X85820745Y-71964631D01*
X85650476Y-72024211D01*
X85497737Y-72120184D01*
X85370184Y-72247737D01*
X85274211Y-72400476D01*
X85214631Y-72570745D01*
X85214630Y-72570750D01*
X85194435Y-72749996D01*
X85194435Y-72750003D01*
X85214630Y-72929249D01*
X85214631Y-72929254D01*
X85274211Y-73099523D01*
X85327309Y-73184027D01*
X85370184Y-73252262D01*
X85497738Y-73379816D01*
X85530623Y-73400479D01*
X85650466Y-73475782D01*
X85650478Y-73475789D01*
X85820742Y-73535367D01*
X85820745Y-73535368D01*
X85820750Y-73535369D01*
X85999996Y-73555565D01*
X86000000Y-73555565D01*
X86000004Y-73555565D01*
X86179249Y-73535369D01*
X86179252Y-73535368D01*
X86179255Y-73535368D01*
X86179256Y-73535367D01*
X86179259Y-73535367D01*
X86217045Y-73522144D01*
X86349522Y-73475789D01*
X86349527Y-73475785D01*
X86349538Y-73475782D01*
X86419317Y-73472219D01*
X86479945Y-73506948D01*
X86507535Y-73551868D01*
X86524209Y-73599519D01*
X86524211Y-73599522D01*
X86620184Y-73752262D01*
X86747738Y-73879816D01*
X86900478Y-73975789D01*
X87070745Y-74035368D01*
X87070749Y-74035369D01*
X87139883Y-74043158D01*
X87204297Y-74070224D01*
X87243852Y-74127818D01*
X87250000Y-74166378D01*
X87250000Y-75681404D01*
X87230315Y-75748443D01*
X87177511Y-75794198D01*
X87108353Y-75804142D01*
X87044797Y-75775117D01*
X87021007Y-75747377D01*
X86989817Y-75697740D01*
X86989815Y-75697737D01*
X86862262Y-75570184D01*
X86709523Y-75474211D01*
X86539254Y-75414631D01*
X86539249Y-75414630D01*
X86360004Y-75394435D01*
X86359996Y-75394435D01*
X86180750Y-75414630D01*
X86180745Y-75414631D01*
X86010476Y-75474211D01*
X85857737Y-75570184D01*
X85730184Y-75697737D01*
X85634211Y-75850476D01*
X85574631Y-76020745D01*
X85574630Y-76020750D01*
X85554435Y-76199996D01*
X85554435Y-76200003D01*
X85574630Y-76379249D01*
X85574631Y-76379254D01*
X85634211Y-76549523D01*
X85682673Y-76626649D01*
X85730184Y-76702262D01*
X85857738Y-76829816D01*
X86010478Y-76925789D01*
X86115735Y-76962620D01*
X86180745Y-76985368D01*
X86180750Y-76985369D01*
X86359996Y-77005565D01*
X86360000Y-77005565D01*
X86360004Y-77005565D01*
X86539249Y-76985369D01*
X86539252Y-76985368D01*
X86539255Y-76985368D01*
X86709522Y-76925789D01*
X86862262Y-76829816D01*
X86989816Y-76702262D01*
X87021006Y-76652622D01*
X87073341Y-76606332D01*
X87142394Y-76595684D01*
X87206243Y-76624059D01*
X87244615Y-76682449D01*
X87250000Y-76718595D01*
X87250000Y-78876000D01*
X87230315Y-78943039D01*
X87177511Y-78988794D01*
X87126000Y-79000000D01*
X67968460Y-79000000D01*
X67901421Y-78980315D01*
X67855666Y-78927511D01*
X67845171Y-78862743D01*
X67849999Y-78817841D01*
X67850000Y-78817827D01*
X67850000Y-78170000D01*
X66933012Y-78170000D01*
X66965925Y-78112993D01*
X67000000Y-77985826D01*
X67000000Y-77854174D01*
X66965925Y-77727007D01*
X66933012Y-77670000D01*
X67850000Y-77670000D01*
X67850000Y-77022172D01*
X67849999Y-77022155D01*
X67843598Y-76962627D01*
X67843596Y-76962620D01*
X67793354Y-76827913D01*
X67793350Y-76827906D01*
X67707190Y-76712812D01*
X67707187Y-76712809D01*
X67592093Y-76626649D01*
X67592086Y-76626645D01*
X67457379Y-76576403D01*
X67457372Y-76576401D01*
X67397844Y-76570000D01*
X66750000Y-76570000D01*
X66750000Y-77486988D01*
X66692993Y-77454075D01*
X66565826Y-77420000D01*
X66434174Y-77420000D01*
X66307007Y-77454075D01*
X66250000Y-77486988D01*
X66250000Y-76570000D01*
X65602155Y-76570000D01*
X65542627Y-76576401D01*
X65542620Y-76576403D01*
X65407913Y-76626645D01*
X65407906Y-76626649D01*
X65292812Y-76712809D01*
X65223266Y-76805710D01*
X65167332Y-76847580D01*
X65097640Y-76852564D01*
X65036318Y-76819078D01*
X65002833Y-76757754D01*
X65000000Y-76731398D01*
X65000000Y-76124000D01*
X65019685Y-76056961D01*
X65072489Y-76011206D01*
X65124000Y-76000000D01*
X66816560Y-76000000D01*
X66883599Y-76019685D01*
X66904241Y-76036319D01*
X66997738Y-76129816D01*
X67150478Y-76225789D01*
X67320739Y-76285366D01*
X67320745Y-76285368D01*
X67320750Y-76285369D01*
X67499996Y-76305565D01*
X67500000Y-76305565D01*
X67500004Y-76305565D01*
X67679249Y-76285369D01*
X67679251Y-76285368D01*
X67679255Y-76285368D01*
X67679258Y-76285366D01*
X67679262Y-76285366D01*
X67834045Y-76231205D01*
X67903824Y-76227643D01*
X67915955Y-76231205D01*
X68070737Y-76285366D01*
X68070743Y-76285367D01*
X68070745Y-76285368D01*
X68070746Y-76285368D01*
X68070750Y-76285369D01*
X68249996Y-76305565D01*
X68250000Y-76305565D01*
X68250004Y-76305565D01*
X68429249Y-76285369D01*
X68429251Y-76285368D01*
X68429255Y-76285368D01*
X68429258Y-76285366D01*
X68429262Y-76285366D01*
X68584045Y-76231205D01*
X68653824Y-76227643D01*
X68665955Y-76231205D01*
X68820737Y-76285366D01*
X68820743Y-76285367D01*
X68820745Y-76285368D01*
X68820746Y-76285368D01*
X68820750Y-76285369D01*
X68999996Y-76305565D01*
X69000000Y-76305565D01*
X69000004Y-76305565D01*
X69179249Y-76285369D01*
X69179252Y-76285368D01*
X69179255Y-76285368D01*
X69349522Y-76225789D01*
X69502262Y-76129816D01*
X69595759Y-76036319D01*
X69657082Y-76002834D01*
X69683440Y-76000000D01*
X70198213Y-76000000D01*
X70265252Y-76019685D01*
X70311007Y-76072489D01*
X70321433Y-76137883D01*
X70314435Y-76199995D01*
X70314435Y-76200003D01*
X70334630Y-76379249D01*
X70334631Y-76379254D01*
X70394211Y-76549523D01*
X70442673Y-76626649D01*
X70490184Y-76702262D01*
X70617738Y-76829816D01*
X70770478Y-76925789D01*
X70875735Y-76962620D01*
X70940745Y-76985368D01*
X70940750Y-76985369D01*
X71119996Y-77005565D01*
X71120000Y-77005565D01*
X71120004Y-77005565D01*
X71299249Y-76985369D01*
X71299252Y-76985368D01*
X71299255Y-76985368D01*
X71469522Y-76925789D01*
X71622262Y-76829816D01*
X71749816Y-76702262D01*
X71845789Y-76549522D01*
X71905368Y-76379255D01*
X71913671Y-76305565D01*
X71925565Y-76200003D01*
X71925565Y-76199996D01*
X80474435Y-76199996D01*
X80474435Y-76200003D01*
X80494630Y-76379249D01*
X80494631Y-76379254D01*
X80554211Y-76549523D01*
X80602673Y-76626649D01*
X80650184Y-76702262D01*
X80777738Y-76829816D01*
X80930478Y-76925789D01*
X81035735Y-76962620D01*
X81100745Y-76985368D01*
X81100750Y-76985369D01*
X81279996Y-77005565D01*
X81280000Y-77005565D01*
X81280004Y-77005565D01*
X81459249Y-76985369D01*
X81459252Y-76985368D01*
X81459255Y-76985368D01*
X81629522Y-76925789D01*
X81782262Y-76829816D01*
X81909816Y-76702262D01*
X82005789Y-76549522D01*
X82065368Y-76379255D01*
X82073671Y-76305565D01*
X82085565Y-76200003D01*
X82085565Y-76199996D01*
X82065369Y-76020750D01*
X82065368Y-76020745D01*
X82059101Y-76002834D01*
X82005789Y-75850478D01*
X82005188Y-75849522D01*
X81941006Y-75747377D01*
X81909816Y-75697738D01*
X81782262Y-75570184D01*
X81629523Y-75474211D01*
X81459254Y-75414631D01*
X81459249Y-75414630D01*
X81280004Y-75394435D01*
X81279996Y-75394435D01*
X81100750Y-75414630D01*
X81100745Y-75414631D01*
X80930476Y-75474211D01*
X80777737Y-75570184D01*
X80650184Y-75697737D01*
X80554211Y-75850476D01*
X80494631Y-76020745D01*
X80494630Y-76020750D01*
X80474435Y-76199996D01*
X71925565Y-76199996D01*
X71925565Y-76199995D01*
X71918567Y-76137883D01*
X71930622Y-76069061D01*
X71977971Y-76017682D01*
X71983984Y-76016015D01*
X72000000Y-76000000D01*
X72000000Y-74499996D01*
X72444435Y-74499996D01*
X72444435Y-74500003D01*
X72464630Y-74679249D01*
X72464631Y-74679254D01*
X72524211Y-74849523D01*
X72617341Y-74997738D01*
X72620184Y-75002262D01*
X72747738Y-75129816D01*
X72900478Y-75225789D01*
X73070745Y-75285368D01*
X73070750Y-75285369D01*
X73249996Y-75305565D01*
X73250000Y-75305565D01*
X73250004Y-75305565D01*
X73429249Y-75285369D01*
X73429252Y-75285368D01*
X73429255Y-75285368D01*
X73599522Y-75225789D01*
X73752262Y-75129816D01*
X73879816Y-75002262D01*
X73975789Y-74849522D01*
X74035368Y-74679255D01*
X74035369Y-74679249D01*
X74055565Y-74500003D01*
X74055565Y-74499996D01*
X74035369Y-74320750D01*
X74035368Y-74320745D01*
X74011405Y-74252262D01*
X73975789Y-74150478D01*
X73879816Y-73997738D01*
X73752262Y-73870184D01*
X73599523Y-73774211D01*
X73429254Y-73714631D01*
X73429249Y-73714630D01*
X73250004Y-73694435D01*
X73249996Y-73694435D01*
X73070750Y-73714630D01*
X73070745Y-73714631D01*
X72900476Y-73774211D01*
X72747737Y-73870184D01*
X72620184Y-73997737D01*
X72524211Y-74150476D01*
X72464631Y-74320745D01*
X72464630Y-74320750D01*
X72444435Y-74499996D01*
X72000000Y-74499996D01*
X72000000Y-72933440D01*
X72019685Y-72866401D01*
X72036319Y-72845759D01*
X72061333Y-72820745D01*
X72129816Y-72752262D01*
X72131240Y-72749996D01*
X75944435Y-72749996D01*
X75944435Y-72750003D01*
X75964630Y-72929249D01*
X75964633Y-72929262D01*
X76024209Y-73099520D01*
X76077309Y-73184029D01*
X76096309Y-73251266D01*
X76077309Y-73315971D01*
X76024209Y-73400479D01*
X75964633Y-73570737D01*
X75964630Y-73570750D01*
X75944435Y-73749996D01*
X75944435Y-73750003D01*
X75964630Y-73929249D01*
X75964631Y-73929254D01*
X76024211Y-74099523D01*
X76120184Y-74252262D01*
X76247738Y-74379816D01*
X76400478Y-74475789D01*
X76469678Y-74500003D01*
X76570745Y-74535368D01*
X76570750Y-74535369D01*
X76749996Y-74555565D01*
X76750000Y-74555565D01*
X76750004Y-74555565D01*
X76929249Y-74535369D01*
X76929252Y-74535368D01*
X76929255Y-74535368D01*
X77099522Y-74475789D01*
X77252262Y-74379816D01*
X77379816Y-74252262D01*
X77475789Y-74099522D01*
X77535368Y-73929255D01*
X77535369Y-73929249D01*
X77555565Y-73750003D01*
X77555565Y-73749996D01*
X77535369Y-73570750D01*
X77535368Y-73570745D01*
X77475788Y-73400475D01*
X77422691Y-73315973D01*
X77403690Y-73248736D01*
X77422691Y-73184027D01*
X77479495Y-73093625D01*
X77480793Y-73094440D01*
X77522130Y-73048650D01*
X77589556Y-73030332D01*
X77656182Y-73051375D01*
X77700854Y-73105097D01*
X77710256Y-73140422D01*
X77714630Y-73179250D01*
X77714631Y-73179254D01*
X77774211Y-73349523D01*
X77851307Y-73472219D01*
X77870184Y-73502262D01*
X77997738Y-73629816D01*
X78088080Y-73686582D01*
X78132721Y-73714632D01*
X78150478Y-73725789D01*
X78288860Y-73774211D01*
X78320745Y-73785368D01*
X78320750Y-73785369D01*
X78499996Y-73805565D01*
X78500000Y-73805565D01*
X78500004Y-73805565D01*
X78679249Y-73785369D01*
X78679252Y-73785368D01*
X78679255Y-73785368D01*
X78849522Y-73725789D01*
X79002262Y-73629816D01*
X79129816Y-73502262D01*
X79225789Y-73349522D01*
X79285368Y-73179255D01*
X79285369Y-73179249D01*
X79305565Y-73000003D01*
X79305565Y-72999996D01*
X79285369Y-72820750D01*
X79285368Y-72820745D01*
X79225788Y-72650476D01*
X79186582Y-72588080D01*
X79129816Y-72497738D01*
X79002262Y-72370184D01*
X78849523Y-72274211D01*
X78679254Y-72214631D01*
X78679249Y-72214630D01*
X78500004Y-72194435D01*
X78499996Y-72194435D01*
X78320750Y-72214630D01*
X78320745Y-72214631D01*
X78150476Y-72274211D01*
X77997737Y-72370184D01*
X77870184Y-72497737D01*
X77770506Y-72656374D01*
X77769211Y-72655560D01*
X77727845Y-72701364D01*
X77660415Y-72719667D01*
X77593794Y-72698609D01*
X77549134Y-72644876D01*
X77539743Y-72609580D01*
X77535368Y-72570745D01*
X77475789Y-72400478D01*
X77379816Y-72247738D01*
X77252262Y-72120184D01*
X77219379Y-72099522D01*
X77099523Y-72024211D01*
X76929254Y-71964631D01*
X76929249Y-71964630D01*
X76750004Y-71944435D01*
X76749996Y-71944435D01*
X76570750Y-71964630D01*
X76570745Y-71964631D01*
X76400476Y-72024211D01*
X76247737Y-72120184D01*
X76120184Y-72247737D01*
X76024211Y-72400476D01*
X75964631Y-72570745D01*
X75964630Y-72570750D01*
X75944435Y-72749996D01*
X72131240Y-72749996D01*
X72225789Y-72599522D01*
X72285368Y-72429255D01*
X72285369Y-72429249D01*
X72305565Y-72250003D01*
X72305565Y-72249996D01*
X72285369Y-72070750D01*
X72285366Y-72070737D01*
X72245139Y-71955776D01*
X72241577Y-71885997D01*
X72276305Y-71825370D01*
X72338298Y-71793142D01*
X72376064Y-71791601D01*
X72499997Y-71805565D01*
X72500000Y-71805565D01*
X72500004Y-71805565D01*
X72679249Y-71785369D01*
X72679252Y-71785368D01*
X72679255Y-71785368D01*
X72849522Y-71725789D01*
X73002262Y-71629816D01*
X73129816Y-71502262D01*
X73225789Y-71349522D01*
X73285368Y-71179255D01*
X73285369Y-71179249D01*
X73305565Y-71000003D01*
X73305565Y-70999996D01*
X73285369Y-70820750D01*
X73285368Y-70820745D01*
X73225788Y-70650475D01*
X73172691Y-70565973D01*
X73154046Y-70499996D01*
X80194435Y-70499996D01*
X80194435Y-70500003D01*
X80214630Y-70679249D01*
X80214631Y-70679254D01*
X80274211Y-70849523D01*
X80331530Y-70940745D01*
X80370184Y-71002262D01*
X80497738Y-71129816D01*
X80650478Y-71225789D01*
X80713202Y-71247737D01*
X80820745Y-71285368D01*
X80820750Y-71285369D01*
X80999996Y-71305565D01*
X81000000Y-71305565D01*
X81000004Y-71305565D01*
X81179249Y-71285369D01*
X81179252Y-71285368D01*
X81179255Y-71285368D01*
X81349522Y-71225789D01*
X81502262Y-71129816D01*
X81629816Y-71002262D01*
X81725789Y-70849522D01*
X81785368Y-70679255D01*
X81785369Y-70679249D01*
X81805565Y-70500003D01*
X81805565Y-70499996D01*
X81785369Y-70320750D01*
X81785368Y-70320745D01*
X81783160Y-70314435D01*
X81725789Y-70150478D01*
X81629816Y-69997738D01*
X81502262Y-69870184D01*
X81349523Y-69774211D01*
X81179254Y-69714631D01*
X81179249Y-69714630D01*
X81000004Y-69694435D01*
X80999996Y-69694435D01*
X80820750Y-69714630D01*
X80820745Y-69714631D01*
X80650476Y-69774211D01*
X80497737Y-69870184D01*
X80370184Y-69997737D01*
X80274211Y-70150476D01*
X80214631Y-70320745D01*
X80214630Y-70320750D01*
X80194435Y-70499996D01*
X73154046Y-70499996D01*
X73153690Y-70498736D01*
X73172691Y-70434027D01*
X73225788Y-70349524D01*
X73230999Y-70334632D01*
X73285368Y-70179255D01*
X73285369Y-70179249D01*
X73305565Y-70000003D01*
X73305565Y-69999996D01*
X73285369Y-69820750D01*
X73285368Y-69820745D01*
X73225788Y-69650476D01*
X73129815Y-69497737D01*
X73002262Y-69370184D01*
X72849523Y-69274211D01*
X72679254Y-69214631D01*
X72679249Y-69214630D01*
X72500004Y-69194435D01*
X72499996Y-69194435D01*
X72320750Y-69214630D01*
X72320742Y-69214632D01*
X72164954Y-69269145D01*
X72095176Y-69272706D01*
X72034548Y-69237977D01*
X72002321Y-69175984D01*
X72000000Y-69152103D01*
X72000000Y-66166378D01*
X72019685Y-66099339D01*
X72072489Y-66053584D01*
X72110117Y-66043158D01*
X72179250Y-66035369D01*
X72179253Y-66035368D01*
X72179255Y-66035368D01*
X72349522Y-65975789D01*
X72502262Y-65879816D01*
X72629816Y-65752262D01*
X72725789Y-65599522D01*
X72785368Y-65429255D01*
X72787517Y-65410184D01*
X72805565Y-65250003D01*
X72805565Y-65249996D01*
X72785369Y-65070750D01*
X72785368Y-65070745D01*
X72725788Y-64900476D01*
X72686582Y-64838080D01*
X72629816Y-64747738D01*
X72502262Y-64620184D01*
X72456889Y-64591674D01*
X72349523Y-64524211D01*
X72179254Y-64464631D01*
X72179249Y-64464630D01*
X72000004Y-64444435D01*
X71999996Y-64444435D01*
X71820750Y-64464630D01*
X71820745Y-64464631D01*
X71650474Y-64524212D01*
X71573347Y-64572674D01*
X71506110Y-64591674D01*
X71439275Y-64571306D01*
X71402382Y-64533652D01*
X71379816Y-64497738D01*
X71282389Y-64400311D01*
X71248904Y-64338988D01*
X71253029Y-64271674D01*
X71285367Y-64179259D01*
X71285369Y-64179249D01*
X71305565Y-64000003D01*
X71305565Y-63999996D01*
X71285369Y-63820750D01*
X71285368Y-63820745D01*
X71259821Y-63747737D01*
X71225789Y-63650478D01*
X71200041Y-63609501D01*
X71129815Y-63497737D01*
X71002262Y-63370184D01*
X70849523Y-63274211D01*
X70679254Y-63214631D01*
X70679249Y-63214630D01*
X70500004Y-63194435D01*
X70499996Y-63194435D01*
X70320750Y-63214630D01*
X70320745Y-63214631D01*
X70150476Y-63274211D01*
X69997737Y-63370184D01*
X69870184Y-63497737D01*
X69774211Y-63650476D01*
X69714631Y-63820745D01*
X69714630Y-63820750D01*
X69694435Y-63999996D01*
X69694435Y-64000003D01*
X69714630Y-64179249D01*
X69714631Y-64179254D01*
X69774211Y-64349523D01*
X69870184Y-64502262D01*
X69967610Y-64599688D01*
X70001095Y-64661011D01*
X69996971Y-64728323D01*
X69964632Y-64820742D01*
X69964630Y-64820750D01*
X69944435Y-64999996D01*
X69944435Y-65000003D01*
X69964630Y-65179249D01*
X69964631Y-65179254D01*
X70024211Y-65349523D01*
X70077309Y-65434027D01*
X70120184Y-65502262D01*
X70247738Y-65629816D01*
X70280623Y-65650479D01*
X70400478Y-65725789D01*
X70495269Y-65758958D01*
X70552046Y-65799680D01*
X70577793Y-65864633D01*
X70564337Y-65933194D01*
X70515950Y-65983597D01*
X70454315Y-66000000D01*
X69124000Y-66000000D01*
X69056961Y-65980315D01*
X69011206Y-65927511D01*
X69000000Y-65876000D01*
X69000000Y-61124000D01*
X69019685Y-61056961D01*
X69072489Y-61011206D01*
X69124000Y-61000000D01*
X70500000Y-61000000D01*
X70500000Y-56660197D01*
X70519685Y-56593158D01*
X70572489Y-56547403D01*
X70641647Y-56537459D01*
X70689973Y-56555204D01*
X70770475Y-56605788D01*
X70940745Y-56665368D01*
X70940750Y-56665369D01*
X71119996Y-56685565D01*
X71120000Y-56685565D01*
X71120004Y-56685565D01*
X71299249Y-56665369D01*
X71299252Y-56665368D01*
X71299255Y-56665368D01*
X71469522Y-56605789D01*
X71622262Y-56509816D01*
X71749816Y-56382262D01*
X71845789Y-56229522D01*
X71905368Y-56059255D01*
X71912044Y-56000003D01*
X71912045Y-55999996D01*
X73944435Y-55999996D01*
X73944435Y-56000003D01*
X73964630Y-56179249D01*
X73964631Y-56179254D01*
X74024211Y-56349523D01*
X74120184Y-56502262D01*
X74155241Y-56537319D01*
X74188726Y-56598642D01*
X74183742Y-56668334D01*
X74155241Y-56712681D01*
X74120184Y-56747737D01*
X74024211Y-56900476D01*
X73964631Y-57070745D01*
X73964630Y-57070750D01*
X73944435Y-57249996D01*
X73944435Y-57250003D01*
X73964630Y-57429249D01*
X73964631Y-57429254D01*
X74024211Y-57599523D01*
X74078095Y-57685278D01*
X74120184Y-57752262D01*
X74247738Y-57879816D01*
X74283652Y-57902382D01*
X74329943Y-57954717D01*
X74340591Y-58023770D01*
X74322674Y-58073347D01*
X74274212Y-58150474D01*
X74214631Y-58320745D01*
X74214630Y-58320750D01*
X74194435Y-58499996D01*
X74194435Y-58500003D01*
X74214630Y-58679249D01*
X74214633Y-58679262D01*
X74246970Y-58771674D01*
X74250532Y-58841453D01*
X74217611Y-58900309D01*
X74120185Y-58997736D01*
X74120184Y-58997737D01*
X74024211Y-59150476D01*
X73964631Y-59320745D01*
X73964630Y-59320750D01*
X73944435Y-59499996D01*
X73944435Y-59500003D01*
X73964630Y-59679249D01*
X73964631Y-59679254D01*
X74024211Y-59849523D01*
X74074315Y-59929262D01*
X74120184Y-60002262D01*
X74247738Y-60129816D01*
X74286919Y-60154435D01*
X74385449Y-60216346D01*
X74400478Y-60225789D01*
X74538860Y-60274211D01*
X74570745Y-60285368D01*
X74570750Y-60285369D01*
X74749996Y-60305565D01*
X74750000Y-60305565D01*
X74750004Y-60305565D01*
X74929249Y-60285369D01*
X74929252Y-60285368D01*
X74929255Y-60285368D01*
X75099522Y-60225789D01*
X75114551Y-60216346D01*
X75141357Y-60199502D01*
X75176650Y-60177325D01*
X75243887Y-60158325D01*
X75310722Y-60178692D01*
X75347616Y-60216346D01*
X75370182Y-60252260D01*
X75370184Y-60252262D01*
X75497738Y-60379816D01*
X75621750Y-60457738D01*
X75650478Y-60475789D01*
X75698129Y-60492463D01*
X75754905Y-60533185D01*
X75780653Y-60598138D01*
X75774217Y-60650459D01*
X75714632Y-60820742D01*
X75714630Y-60820750D01*
X75694435Y-60999996D01*
X75694435Y-61000000D01*
X75714630Y-61179249D01*
X75714631Y-61179254D01*
X75774211Y-61349523D01*
X75784773Y-61366332D01*
X75870184Y-61502262D01*
X75997738Y-61629816D01*
X76150478Y-61725789D01*
X76320745Y-61785368D01*
X76320750Y-61785369D01*
X76499996Y-61805565D01*
X76500000Y-61805565D01*
X76500004Y-61805565D01*
X76679249Y-61785369D01*
X76679252Y-61785368D01*
X76679255Y-61785368D01*
X76849522Y-61725789D01*
X76931884Y-61674037D01*
X76999118Y-61655037D01*
X77065954Y-61675404D01*
X77111168Y-61728671D01*
X77120407Y-61797928D01*
X77114899Y-61819977D01*
X77114634Y-61820731D01*
X77114630Y-61820750D01*
X77094435Y-61999996D01*
X77094435Y-62000003D01*
X77114630Y-62179249D01*
X77114631Y-62179254D01*
X77174211Y-62349523D01*
X77270184Y-62502262D01*
X77397738Y-62629816D01*
X77550478Y-62725789D01*
X77720745Y-62785368D01*
X77720750Y-62785369D01*
X77899996Y-62805565D01*
X77900000Y-62805565D01*
X77900004Y-62805565D01*
X78079249Y-62785369D01*
X78079252Y-62785368D01*
X78079255Y-62785368D01*
X78249522Y-62725789D01*
X78402262Y-62629816D01*
X78529816Y-62502262D01*
X78625789Y-62349522D01*
X78685368Y-62179255D01*
X78705565Y-62000000D01*
X78685368Y-61820745D01*
X78625789Y-61650478D01*
X78529816Y-61497738D01*
X78506467Y-61474389D01*
X78472982Y-61413066D01*
X78477106Y-61345756D01*
X78535368Y-61179255D01*
X78555565Y-61000000D01*
X78551058Y-60960003D01*
X78535369Y-60820750D01*
X78535368Y-60820745D01*
X78475788Y-60650476D01*
X78405166Y-60538082D01*
X78379816Y-60497738D01*
X78252262Y-60370184D01*
X78099523Y-60274211D01*
X77929254Y-60214631D01*
X77929250Y-60214630D01*
X77849269Y-60205619D01*
X77784855Y-60178552D01*
X77745300Y-60120957D01*
X77743163Y-60051120D01*
X77746112Y-60041444D01*
X77785366Y-59929262D01*
X77785369Y-59929249D01*
X77805565Y-59750003D01*
X77805565Y-59749996D01*
X77785369Y-59570750D01*
X77785368Y-59570745D01*
X77725788Y-59400476D01*
X77686582Y-59338080D01*
X77629816Y-59247738D01*
X77502262Y-59120184D01*
X77434027Y-59077309D01*
X77349523Y-59024211D01*
X77179254Y-58964631D01*
X77179249Y-58964630D01*
X77000004Y-58944435D01*
X76999996Y-58944435D01*
X76820750Y-58964630D01*
X76820737Y-58964633D01*
X76650479Y-59024209D01*
X76565971Y-59077309D01*
X76498734Y-59096309D01*
X76434029Y-59077309D01*
X76349520Y-59024209D01*
X76179262Y-58964633D01*
X76179249Y-58964630D01*
X76000004Y-58944435D01*
X75999996Y-58944435D01*
X75876063Y-58958398D01*
X75807241Y-58946343D01*
X75755862Y-58898994D01*
X75738238Y-58831383D01*
X75745139Y-58794223D01*
X75785366Y-58679262D01*
X75785369Y-58679249D01*
X75805565Y-58500003D01*
X75805565Y-58499996D01*
X75785369Y-58320750D01*
X75785368Y-58320745D01*
X75725788Y-58150476D01*
X75629815Y-57997737D01*
X75502260Y-57870182D01*
X75466346Y-57847616D01*
X75420056Y-57795281D01*
X75409408Y-57726228D01*
X75427326Y-57676650D01*
X75475788Y-57599524D01*
X75535368Y-57429254D01*
X75535369Y-57429249D01*
X75555565Y-57250003D01*
X75555565Y-57249996D01*
X75535369Y-57070750D01*
X75535368Y-57070745D01*
X75475788Y-56900476D01*
X75379815Y-56747737D01*
X75344759Y-56712681D01*
X75311274Y-56651358D01*
X75316258Y-56581666D01*
X75344759Y-56537319D01*
X75379816Y-56502262D01*
X75475789Y-56349522D01*
X75535368Y-56179255D01*
X75548889Y-56059254D01*
X75555565Y-56000003D01*
X75555565Y-55999996D01*
X75535369Y-55820750D01*
X75535368Y-55820745D01*
X75522988Y-55785366D01*
X75475789Y-55650478D01*
X75379816Y-55497738D01*
X75252262Y-55370184D01*
X75219379Y-55349522D01*
X75099523Y-55274211D01*
X74929254Y-55214631D01*
X74929249Y-55214630D01*
X74750004Y-55194435D01*
X74749996Y-55194435D01*
X74570750Y-55214630D01*
X74570745Y-55214631D01*
X74400476Y-55274211D01*
X74247737Y-55370184D01*
X74120184Y-55497737D01*
X74024211Y-55650476D01*
X73964631Y-55820745D01*
X73964630Y-55820750D01*
X73944435Y-55999996D01*
X71912045Y-55999996D01*
X71925565Y-55880003D01*
X71925565Y-55879996D01*
X71905369Y-55700750D01*
X71905368Y-55700745D01*
X71898613Y-55681440D01*
X71845789Y-55530478D01*
X71825216Y-55497737D01*
X71749815Y-55377737D01*
X71622262Y-55250184D01*
X71469523Y-55154211D01*
X71299254Y-55094631D01*
X71299249Y-55094630D01*
X71120004Y-55074435D01*
X71119996Y-55074435D01*
X70940750Y-55094630D01*
X70940745Y-55094631D01*
X70770476Y-55154211D01*
X70689972Y-55204796D01*
X70622735Y-55223796D01*
X70555900Y-55203428D01*
X70510686Y-55150160D01*
X70500000Y-55099802D01*
X70500000Y-53295685D01*
X70519685Y-53228646D01*
X70572489Y-53182891D01*
X70641647Y-53172947D01*
X70705203Y-53201972D01*
X70741042Y-53254731D01*
X70774210Y-53349521D01*
X70787234Y-53370248D01*
X70870184Y-53502262D01*
X70997738Y-53629816D01*
X71150478Y-53725789D01*
X71320745Y-53785368D01*
X71320750Y-53785369D01*
X71499996Y-53805565D01*
X71500000Y-53805565D01*
X71500004Y-53805565D01*
X71679249Y-53785369D01*
X71679252Y-53785368D01*
X71679255Y-53785368D01*
X71849522Y-53725789D01*
X72002262Y-53629816D01*
X72129816Y-53502262D01*
X72225789Y-53349522D01*
X72285368Y-53179255D01*
X72286079Y-53172947D01*
X72305565Y-53000003D01*
X72305565Y-52999996D01*
X72285369Y-52820750D01*
X72285368Y-52820745D01*
X72236623Y-52681440D01*
X72225789Y-52650478D01*
X72129816Y-52497738D01*
X72002262Y-52370184D01*
X71969379Y-52349522D01*
X71849523Y-52274211D01*
X71679254Y-52214631D01*
X71679249Y-52214630D01*
X71500004Y-52194435D01*
X71499996Y-52194435D01*
X71320750Y-52214630D01*
X71320745Y-52214631D01*
X71150476Y-52274211D01*
X70997737Y-52370184D01*
X70870184Y-52497737D01*
X70774209Y-52650480D01*
X70741041Y-52745269D01*
X70700320Y-52802045D01*
X70635367Y-52827792D01*
X70566805Y-52814336D01*
X70516403Y-52765948D01*
X70500000Y-52704314D01*
X70500000Y-51749996D01*
X72194435Y-51749996D01*
X72194435Y-51750003D01*
X72214630Y-51929249D01*
X72214631Y-51929254D01*
X72274211Y-52099523D01*
X72333849Y-52194435D01*
X72370184Y-52252262D01*
X72497738Y-52379816D01*
X72650478Y-52475789D01*
X72820745Y-52535368D01*
X72820750Y-52535369D01*
X72999996Y-52555565D01*
X73000000Y-52555565D01*
X73000004Y-52555565D01*
X73179249Y-52535369D01*
X73179252Y-52535368D01*
X73179255Y-52535368D01*
X73349522Y-52475789D01*
X73502262Y-52379816D01*
X73629816Y-52252262D01*
X73725789Y-52099522D01*
X73785368Y-51929255D01*
X73797462Y-51821916D01*
X73805565Y-51750003D01*
X73805565Y-51749996D01*
X73785369Y-51570750D01*
X73785368Y-51570745D01*
X73725789Y-51400478D01*
X73721558Y-51393745D01*
X73629815Y-51247737D01*
X73502262Y-51120184D01*
X73349523Y-51024211D01*
X73179254Y-50964631D01*
X73179249Y-50964630D01*
X73000004Y-50944435D01*
X72999996Y-50944435D01*
X72820750Y-50964630D01*
X72820745Y-50964631D01*
X72650476Y-51024211D01*
X72497737Y-51120184D01*
X72370184Y-51247737D01*
X72274211Y-51400476D01*
X72214631Y-51570745D01*
X72214630Y-51570750D01*
X72194435Y-51749996D01*
X70500000Y-51749996D01*
X70500000Y-51580197D01*
X70519685Y-51513158D01*
X70572489Y-51467403D01*
X70641647Y-51457459D01*
X70689973Y-51475204D01*
X70770475Y-51525788D01*
X70940745Y-51585368D01*
X70940750Y-51585369D01*
X71119996Y-51605565D01*
X71120000Y-51605565D01*
X71120004Y-51605565D01*
X71299249Y-51585369D01*
X71299252Y-51585368D01*
X71299255Y-51585368D01*
X71469522Y-51525789D01*
X71622262Y-51429816D01*
X71749816Y-51302262D01*
X71845789Y-51149522D01*
X71905368Y-50979255D01*
X71907016Y-50964630D01*
X71925565Y-50800003D01*
X71925565Y-50799996D01*
X71905369Y-50620750D01*
X71905368Y-50620745D01*
X71899270Y-50603319D01*
X71845789Y-50450478D01*
X71749816Y-50297738D01*
X71664259Y-50212181D01*
X71630774Y-50150858D01*
X71635758Y-50081166D01*
X71677630Y-50025233D01*
X71743094Y-50000816D01*
X71751940Y-50000500D01*
X85728060Y-50000500D01*
X85795099Y-50020185D01*
G37*
%TD.AperFunction*%
%TD*%
%TA.AperFunction,NonConductor*%
G36*
X71310722Y-65678692D02*
G01*
X71347616Y-65716346D01*
X71370182Y-65752260D01*
X71406241Y-65788319D01*
X71439726Y-65849642D01*
X71434742Y-65919334D01*
X71392870Y-65975267D01*
X71327406Y-65999684D01*
X71318560Y-66000000D01*
X71045685Y-66000000D01*
X70978646Y-65980315D01*
X70932891Y-65927511D01*
X70922947Y-65858353D01*
X70951972Y-65794797D01*
X71004731Y-65758958D01*
X71020172Y-65753554D01*
X71099522Y-65725789D01*
X71176650Y-65677325D01*
X71243887Y-65658325D01*
X71310722Y-65678692D01*
G37*
%TD.AperFunction*%
M02*
