%TF.GenerationSoftware,KiCad,Pcbnew,8.0.6*%
%TF.CreationDate,2024-11-07T10:06:34+11:00*%
%TF.ProjectId,mppt-board,6d707074-2d62-46f6-9172-642e6b696361,rev?*%
%TF.SameCoordinates,Original*%
%TF.FileFunction,Legend,Top*%
%TF.FilePolarity,Positive*%
%FSLAX46Y46*%
G04 Gerber Fmt 4.6, Leading zero omitted, Abs format (unit mm)*
G04 Created by KiCad (PCBNEW 8.0.6) date 2024-11-07 10:06:34*
%MOMM*%
%LPD*%
G01*
G04 APERTURE LIST*
G04 Aperture macros list*
%AMRoundRect*
0 Rectangle with rounded corners*
0 $1 Rounding radius*
0 $2 $3 $4 $5 $6 $7 $8 $9 X,Y pos of 4 corners*
0 Add a 4 corners polygon primitive as box body*
4,1,4,$2,$3,$4,$5,$6,$7,$8,$9,$2,$3,0*
0 Add four circle primitives for the rounded corners*
1,1,$1+$1,$2,$3*
1,1,$1+$1,$4,$5*
1,1,$1+$1,$6,$7*
1,1,$1+$1,$8,$9*
0 Add four rect primitives between the rounded corners*
20,1,$1+$1,$2,$3,$4,$5,0*
20,1,$1+$1,$4,$5,$6,$7,0*
20,1,$1+$1,$6,$7,$8,$9,0*
20,1,$1+$1,$8,$9,$2,$3,0*%
G04 Aperture macros list end*
%ADD10C,0.100000*%
%ADD11C,0.150000*%
%ADD12C,0.120000*%
%ADD13C,0.250000*%
%ADD14C,0.130000*%
%ADD15R,2.950000X3.500000*%
%ADD16C,5.800000*%
%ADD17RoundRect,0.250000X-0.262500X-0.450000X0.262500X-0.450000X0.262500X0.450000X-0.262500X0.450000X0*%
%ADD18RoundRect,0.150000X-0.150000X0.512500X-0.150000X-0.512500X0.150000X-0.512500X0.150000X0.512500X0*%
%ADD19C,6.400000*%
%ADD20R,2.400000X2.400000*%
%ADD21C,2.400000*%
%ADD22RoundRect,0.150000X-0.825000X-0.150000X0.825000X-0.150000X0.825000X0.150000X-0.825000X0.150000X0*%
%ADD23RoundRect,0.250000X-0.475000X0.250000X-0.475000X-0.250000X0.475000X-0.250000X0.475000X0.250000X0*%
%ADD24R,1.700000X1.700000*%
%ADD25O,1.700000X1.700000*%
%ADD26RoundRect,0.250000X-2.050000X-0.300000X2.050000X-0.300000X2.050000X0.300000X-2.050000X0.300000X0*%
%ADD27RoundRect,0.250002X-4.449998X-5.149998X4.449998X-5.149998X4.449998X5.149998X-4.449998X5.149998X0*%
%ADD28RoundRect,0.250000X-0.850000X-0.350000X0.850000X-0.350000X0.850000X0.350000X-0.850000X0.350000X0*%
%ADD29RoundRect,0.249997X-2.950003X-2.650003X2.950003X-2.650003X2.950003X2.650003X-2.950003X2.650003X0*%
%ADD30RoundRect,0.250000X0.475000X-0.250000X0.475000X0.250000X-0.475000X0.250000X-0.475000X-0.250000X0*%
%ADD31RoundRect,0.375000X0.625000X0.375000X-0.625000X0.375000X-0.625000X-0.375000X0.625000X-0.375000X0*%
%ADD32RoundRect,0.500000X0.500000X1.400000X-0.500000X1.400000X-0.500000X-1.400000X0.500000X-1.400000X0*%
%ADD33RoundRect,0.250000X-1.425000X0.362500X-1.425000X-0.362500X1.425000X-0.362500X1.425000X0.362500X0*%
%ADD34C,5.520000*%
G04 APERTURE END LIST*
D10*
X93696895Y-59672306D02*
X94268323Y-59672306D01*
X94268323Y-59672306D02*
X94382609Y-59696115D01*
X94382609Y-59696115D02*
X94458800Y-59743734D01*
X94458800Y-59743734D02*
X94496895Y-59815163D01*
X94496895Y-59815163D02*
X94496895Y-59862782D01*
X94496895Y-59196116D02*
X94496895Y-59434211D01*
X94496895Y-59434211D02*
X93696895Y-59434211D01*
X94420704Y-58743735D02*
X94458800Y-58767544D01*
X94458800Y-58767544D02*
X94496895Y-58838973D01*
X94496895Y-58838973D02*
X94496895Y-58886592D01*
X94496895Y-58886592D02*
X94458800Y-58958020D01*
X94458800Y-58958020D02*
X94382609Y-59005639D01*
X94382609Y-59005639D02*
X94306419Y-59029449D01*
X94306419Y-59029449D02*
X94154038Y-59053258D01*
X94154038Y-59053258D02*
X94039752Y-59053258D01*
X94039752Y-59053258D02*
X93887371Y-59029449D01*
X93887371Y-59029449D02*
X93811180Y-59005639D01*
X93811180Y-59005639D02*
X93734990Y-58958020D01*
X93734990Y-58958020D02*
X93696895Y-58886592D01*
X93696895Y-58886592D02*
X93696895Y-58838973D01*
X93696895Y-58838973D02*
X93734990Y-58767544D01*
X93734990Y-58767544D02*
X93773085Y-58743735D01*
X93696895Y-58386592D02*
X94268323Y-58386592D01*
X94268323Y-58386592D02*
X94382609Y-58410401D01*
X94382609Y-58410401D02*
X94458800Y-58458020D01*
X94458800Y-58458020D02*
X94496895Y-58529449D01*
X94496895Y-58529449D02*
X94496895Y-58577068D01*
X94496895Y-57910402D02*
X94496895Y-58148497D01*
X94496895Y-58148497D02*
X93696895Y-58148497D01*
X94420704Y-57458021D02*
X94458800Y-57481830D01*
X94458800Y-57481830D02*
X94496895Y-57553259D01*
X94496895Y-57553259D02*
X94496895Y-57600878D01*
X94496895Y-57600878D02*
X94458800Y-57672306D01*
X94458800Y-57672306D02*
X94382609Y-57719925D01*
X94382609Y-57719925D02*
X94306419Y-57743735D01*
X94306419Y-57743735D02*
X94154038Y-57767544D01*
X94154038Y-57767544D02*
X94039752Y-57767544D01*
X94039752Y-57767544D02*
X93887371Y-57743735D01*
X93887371Y-57743735D02*
X93811180Y-57719925D01*
X93811180Y-57719925D02*
X93734990Y-57672306D01*
X93734990Y-57672306D02*
X93696895Y-57600878D01*
X93696895Y-57600878D02*
X93696895Y-57553259D01*
X93696895Y-57553259D02*
X93734990Y-57481830D01*
X93734990Y-57481830D02*
X93773085Y-57458021D01*
X93696895Y-57100878D02*
X94268323Y-57100878D01*
X94268323Y-57100878D02*
X94382609Y-57124687D01*
X94382609Y-57124687D02*
X94458800Y-57172306D01*
X94458800Y-57172306D02*
X94496895Y-57243735D01*
X94496895Y-57243735D02*
X94496895Y-57291354D01*
X94496895Y-56624688D02*
X94496895Y-56862783D01*
X94496895Y-56862783D02*
X93696895Y-56862783D01*
X94420704Y-56172307D02*
X94458800Y-56196116D01*
X94458800Y-56196116D02*
X94496895Y-56267545D01*
X94496895Y-56267545D02*
X94496895Y-56315164D01*
X94496895Y-56315164D02*
X94458800Y-56386592D01*
X94458800Y-56386592D02*
X94382609Y-56434211D01*
X94382609Y-56434211D02*
X94306419Y-56458021D01*
X94306419Y-56458021D02*
X94154038Y-56481830D01*
X94154038Y-56481830D02*
X94039752Y-56481830D01*
X94039752Y-56481830D02*
X93887371Y-56458021D01*
X93887371Y-56458021D02*
X93811180Y-56434211D01*
X93811180Y-56434211D02*
X93734990Y-56386592D01*
X93734990Y-56386592D02*
X93696895Y-56315164D01*
X93696895Y-56315164D02*
X93696895Y-56267545D01*
X93696895Y-56267545D02*
X93734990Y-56196116D01*
X93734990Y-56196116D02*
X93773085Y-56172307D01*
X93696895Y-55815164D02*
X94268323Y-55815164D01*
X94268323Y-55815164D02*
X94382609Y-55838973D01*
X94382609Y-55838973D02*
X94458800Y-55886592D01*
X94458800Y-55886592D02*
X94496895Y-55958021D01*
X94496895Y-55958021D02*
X94496895Y-56005640D01*
X94496895Y-55338974D02*
X94496895Y-55577069D01*
X94496895Y-55577069D02*
X93696895Y-55577069D01*
X94420704Y-54886593D02*
X94458800Y-54910402D01*
X94458800Y-54910402D02*
X94496895Y-54981831D01*
X94496895Y-54981831D02*
X94496895Y-55029450D01*
X94496895Y-55029450D02*
X94458800Y-55100878D01*
X94458800Y-55100878D02*
X94382609Y-55148497D01*
X94382609Y-55148497D02*
X94306419Y-55172307D01*
X94306419Y-55172307D02*
X94154038Y-55196116D01*
X94154038Y-55196116D02*
X94039752Y-55196116D01*
X94039752Y-55196116D02*
X93887371Y-55172307D01*
X93887371Y-55172307D02*
X93811180Y-55148497D01*
X93811180Y-55148497D02*
X93734990Y-55100878D01*
X93734990Y-55100878D02*
X93696895Y-55029450D01*
X93696895Y-55029450D02*
X93696895Y-54981831D01*
X93696895Y-54981831D02*
X93734990Y-54910402D01*
X93734990Y-54910402D02*
X93773085Y-54886593D01*
D11*
X75933333Y-76354819D02*
X75457143Y-76354819D01*
X75457143Y-76354819D02*
X75457143Y-75354819D01*
X76790476Y-76354819D02*
X76219048Y-76354819D01*
X76504762Y-76354819D02*
X76504762Y-75354819D01*
X76504762Y-75354819D02*
X76409524Y-75497676D01*
X76409524Y-75497676D02*
X76314286Y-75592914D01*
X76314286Y-75592914D02*
X76219048Y-75640533D01*
X68238095Y-58454819D02*
X68238095Y-59264342D01*
X68238095Y-59264342D02*
X68285714Y-59359580D01*
X68285714Y-59359580D02*
X68333333Y-59407200D01*
X68333333Y-59407200D02*
X68428571Y-59454819D01*
X68428571Y-59454819D02*
X68619047Y-59454819D01*
X68619047Y-59454819D02*
X68714285Y-59407200D01*
X68714285Y-59407200D02*
X68761904Y-59359580D01*
X68761904Y-59359580D02*
X68809523Y-59264342D01*
X68809523Y-59264342D02*
X68809523Y-58454819D01*
X69714285Y-58788152D02*
X69714285Y-59454819D01*
X69476190Y-58407200D02*
X69238095Y-59121485D01*
X69238095Y-59121485D02*
X69857142Y-59121485D01*
X77173333Y-67014819D02*
X76840000Y-66538628D01*
X76601905Y-67014819D02*
X76601905Y-66014819D01*
X76601905Y-66014819D02*
X76982857Y-66014819D01*
X76982857Y-66014819D02*
X77078095Y-66062438D01*
X77078095Y-66062438D02*
X77125714Y-66110057D01*
X77125714Y-66110057D02*
X77173333Y-66205295D01*
X77173333Y-66205295D02*
X77173333Y-66348152D01*
X77173333Y-66348152D02*
X77125714Y-66443390D01*
X77125714Y-66443390D02*
X77078095Y-66491009D01*
X77078095Y-66491009D02*
X76982857Y-66538628D01*
X76982857Y-66538628D02*
X76601905Y-66538628D01*
X77554286Y-66110057D02*
X77601905Y-66062438D01*
X77601905Y-66062438D02*
X77697143Y-66014819D01*
X77697143Y-66014819D02*
X77935238Y-66014819D01*
X77935238Y-66014819D02*
X78030476Y-66062438D01*
X78030476Y-66062438D02*
X78078095Y-66110057D01*
X78078095Y-66110057D02*
X78125714Y-66205295D01*
X78125714Y-66205295D02*
X78125714Y-66300533D01*
X78125714Y-66300533D02*
X78078095Y-66443390D01*
X78078095Y-66443390D02*
X77506667Y-67014819D01*
X77506667Y-67014819D02*
X78125714Y-67014819D01*
X83794819Y-69871904D02*
X84604342Y-69871904D01*
X84604342Y-69871904D02*
X84699580Y-69824285D01*
X84699580Y-69824285D02*
X84747200Y-69776666D01*
X84747200Y-69776666D02*
X84794819Y-69681428D01*
X84794819Y-69681428D02*
X84794819Y-69490952D01*
X84794819Y-69490952D02*
X84747200Y-69395714D01*
X84747200Y-69395714D02*
X84699580Y-69348095D01*
X84699580Y-69348095D02*
X84604342Y-69300476D01*
X84604342Y-69300476D02*
X83794819Y-69300476D01*
X84794819Y-68300476D02*
X84794819Y-68871904D01*
X84794819Y-68586190D02*
X83794819Y-68586190D01*
X83794819Y-68586190D02*
X83937676Y-68681428D01*
X83937676Y-68681428D02*
X84032914Y-68776666D01*
X84032914Y-68776666D02*
X84080533Y-68871904D01*
X84423333Y-67164819D02*
X84090000Y-66688628D01*
X83851905Y-67164819D02*
X83851905Y-66164819D01*
X83851905Y-66164819D02*
X84232857Y-66164819D01*
X84232857Y-66164819D02*
X84328095Y-66212438D01*
X84328095Y-66212438D02*
X84375714Y-66260057D01*
X84375714Y-66260057D02*
X84423333Y-66355295D01*
X84423333Y-66355295D02*
X84423333Y-66498152D01*
X84423333Y-66498152D02*
X84375714Y-66593390D01*
X84375714Y-66593390D02*
X84328095Y-66641009D01*
X84328095Y-66641009D02*
X84232857Y-66688628D01*
X84232857Y-66688628D02*
X83851905Y-66688628D01*
X85280476Y-66498152D02*
X85280476Y-67164819D01*
X85042381Y-66117200D02*
X84804286Y-66831485D01*
X84804286Y-66831485D02*
X85423333Y-66831485D01*
X65738095Y-80754819D02*
X65738095Y-79754819D01*
X65738095Y-80231009D02*
X66309523Y-80231009D01*
X66309523Y-80754819D02*
X66309523Y-79754819D01*
X66690476Y-79754819D02*
X67309523Y-79754819D01*
X67309523Y-79754819D02*
X66976190Y-80135771D01*
X66976190Y-80135771D02*
X67119047Y-80135771D01*
X67119047Y-80135771D02*
X67214285Y-80183390D01*
X67214285Y-80183390D02*
X67261904Y-80231009D01*
X67261904Y-80231009D02*
X67309523Y-80326247D01*
X67309523Y-80326247D02*
X67309523Y-80564342D01*
X67309523Y-80564342D02*
X67261904Y-80659580D01*
X67261904Y-80659580D02*
X67214285Y-80707200D01*
X67214285Y-80707200D02*
X67119047Y-80754819D01*
X67119047Y-80754819D02*
X66833333Y-80754819D01*
X66833333Y-80754819D02*
X66738095Y-80707200D01*
X66738095Y-80707200D02*
X66690476Y-80659580D01*
X93333333Y-65059580D02*
X93285714Y-65107200D01*
X93285714Y-65107200D02*
X93142857Y-65154819D01*
X93142857Y-65154819D02*
X93047619Y-65154819D01*
X93047619Y-65154819D02*
X92904762Y-65107200D01*
X92904762Y-65107200D02*
X92809524Y-65011961D01*
X92809524Y-65011961D02*
X92761905Y-64916723D01*
X92761905Y-64916723D02*
X92714286Y-64726247D01*
X92714286Y-64726247D02*
X92714286Y-64583390D01*
X92714286Y-64583390D02*
X92761905Y-64392914D01*
X92761905Y-64392914D02*
X92809524Y-64297676D01*
X92809524Y-64297676D02*
X92904762Y-64202438D01*
X92904762Y-64202438D02*
X93047619Y-64154819D01*
X93047619Y-64154819D02*
X93142857Y-64154819D01*
X93142857Y-64154819D02*
X93285714Y-64202438D01*
X93285714Y-64202438D02*
X93333333Y-64250057D01*
X93714286Y-64250057D02*
X93761905Y-64202438D01*
X93761905Y-64202438D02*
X93857143Y-64154819D01*
X93857143Y-64154819D02*
X94095238Y-64154819D01*
X94095238Y-64154819D02*
X94190476Y-64202438D01*
X94190476Y-64202438D02*
X94238095Y-64250057D01*
X94238095Y-64250057D02*
X94285714Y-64345295D01*
X94285714Y-64345295D02*
X94285714Y-64440533D01*
X94285714Y-64440533D02*
X94238095Y-64583390D01*
X94238095Y-64583390D02*
X93666667Y-65154819D01*
X93666667Y-65154819D02*
X94285714Y-65154819D01*
X77173333Y-73164819D02*
X76840000Y-72688628D01*
X76601905Y-73164819D02*
X76601905Y-72164819D01*
X76601905Y-72164819D02*
X76982857Y-72164819D01*
X76982857Y-72164819D02*
X77078095Y-72212438D01*
X77078095Y-72212438D02*
X77125714Y-72260057D01*
X77125714Y-72260057D02*
X77173333Y-72355295D01*
X77173333Y-72355295D02*
X77173333Y-72498152D01*
X77173333Y-72498152D02*
X77125714Y-72593390D01*
X77125714Y-72593390D02*
X77078095Y-72641009D01*
X77078095Y-72641009D02*
X76982857Y-72688628D01*
X76982857Y-72688628D02*
X76601905Y-72688628D01*
X77506667Y-72164819D02*
X78125714Y-72164819D01*
X78125714Y-72164819D02*
X77792381Y-72545771D01*
X77792381Y-72545771D02*
X77935238Y-72545771D01*
X77935238Y-72545771D02*
X78030476Y-72593390D01*
X78030476Y-72593390D02*
X78078095Y-72641009D01*
X78078095Y-72641009D02*
X78125714Y-72736247D01*
X78125714Y-72736247D02*
X78125714Y-72974342D01*
X78125714Y-72974342D02*
X78078095Y-73069580D01*
X78078095Y-73069580D02*
X78030476Y-73117200D01*
X78030476Y-73117200D02*
X77935238Y-73164819D01*
X77935238Y-73164819D02*
X77649524Y-73164819D01*
X77649524Y-73164819D02*
X77554286Y-73117200D01*
X77554286Y-73117200D02*
X77506667Y-73069580D01*
X78578095Y-65164819D02*
X78578095Y-65974342D01*
X78578095Y-65974342D02*
X78625714Y-66069580D01*
X78625714Y-66069580D02*
X78673333Y-66117200D01*
X78673333Y-66117200D02*
X78768571Y-66164819D01*
X78768571Y-66164819D02*
X78959047Y-66164819D01*
X78959047Y-66164819D02*
X79054285Y-66117200D01*
X79054285Y-66117200D02*
X79101904Y-66069580D01*
X79101904Y-66069580D02*
X79149523Y-65974342D01*
X79149523Y-65974342D02*
X79149523Y-65164819D01*
X79530476Y-65164819D02*
X80149523Y-65164819D01*
X80149523Y-65164819D02*
X79816190Y-65545771D01*
X79816190Y-65545771D02*
X79959047Y-65545771D01*
X79959047Y-65545771D02*
X80054285Y-65593390D01*
X80054285Y-65593390D02*
X80101904Y-65641009D01*
X80101904Y-65641009D02*
X80149523Y-65736247D01*
X80149523Y-65736247D02*
X80149523Y-65974342D01*
X80149523Y-65974342D02*
X80101904Y-66069580D01*
X80101904Y-66069580D02*
X80054285Y-66117200D01*
X80054285Y-66117200D02*
X79959047Y-66164819D01*
X79959047Y-66164819D02*
X79673333Y-66164819D01*
X79673333Y-66164819D02*
X79578095Y-66117200D01*
X79578095Y-66117200D02*
X79530476Y-66069580D01*
X85933333Y-69659580D02*
X85885714Y-69707200D01*
X85885714Y-69707200D02*
X85742857Y-69754819D01*
X85742857Y-69754819D02*
X85647619Y-69754819D01*
X85647619Y-69754819D02*
X85504762Y-69707200D01*
X85504762Y-69707200D02*
X85409524Y-69611961D01*
X85409524Y-69611961D02*
X85361905Y-69516723D01*
X85361905Y-69516723D02*
X85314286Y-69326247D01*
X85314286Y-69326247D02*
X85314286Y-69183390D01*
X85314286Y-69183390D02*
X85361905Y-68992914D01*
X85361905Y-68992914D02*
X85409524Y-68897676D01*
X85409524Y-68897676D02*
X85504762Y-68802438D01*
X85504762Y-68802438D02*
X85647619Y-68754819D01*
X85647619Y-68754819D02*
X85742857Y-68754819D01*
X85742857Y-68754819D02*
X85885714Y-68802438D01*
X85885714Y-68802438D02*
X85933333Y-68850057D01*
X86885714Y-69754819D02*
X86314286Y-69754819D01*
X86600000Y-69754819D02*
X86600000Y-68754819D01*
X86600000Y-68754819D02*
X86504762Y-68897676D01*
X86504762Y-68897676D02*
X86409524Y-68992914D01*
X86409524Y-68992914D02*
X86314286Y-69040533D01*
X103238095Y-58654819D02*
X103238095Y-57654819D01*
X103238095Y-58131009D02*
X103809523Y-58131009D01*
X103809523Y-58654819D02*
X103809523Y-57654819D01*
X104238095Y-57750057D02*
X104285714Y-57702438D01*
X104285714Y-57702438D02*
X104380952Y-57654819D01*
X104380952Y-57654819D02*
X104619047Y-57654819D01*
X104619047Y-57654819D02*
X104714285Y-57702438D01*
X104714285Y-57702438D02*
X104761904Y-57750057D01*
X104761904Y-57750057D02*
X104809523Y-57845295D01*
X104809523Y-57845295D02*
X104809523Y-57940533D01*
X104809523Y-57940533D02*
X104761904Y-58083390D01*
X104761904Y-58083390D02*
X104190476Y-58654819D01*
X104190476Y-58654819D02*
X104809523Y-58654819D01*
X69644819Y-86433333D02*
X70359104Y-86433333D01*
X70359104Y-86433333D02*
X70501961Y-86480952D01*
X70501961Y-86480952D02*
X70597200Y-86576190D01*
X70597200Y-86576190D02*
X70644819Y-86719047D01*
X70644819Y-86719047D02*
X70644819Y-86814285D01*
X69740057Y-86004761D02*
X69692438Y-85957142D01*
X69692438Y-85957142D02*
X69644819Y-85861904D01*
X69644819Y-85861904D02*
X69644819Y-85623809D01*
X69644819Y-85623809D02*
X69692438Y-85528571D01*
X69692438Y-85528571D02*
X69740057Y-85480952D01*
X69740057Y-85480952D02*
X69835295Y-85433333D01*
X69835295Y-85433333D02*
X69930533Y-85433333D01*
X69930533Y-85433333D02*
X70073390Y-85480952D01*
X70073390Y-85480952D02*
X70644819Y-86052380D01*
X70644819Y-86052380D02*
X70644819Y-85433333D01*
X72699580Y-62876666D02*
X72747200Y-62924285D01*
X72747200Y-62924285D02*
X72794819Y-63067142D01*
X72794819Y-63067142D02*
X72794819Y-63162380D01*
X72794819Y-63162380D02*
X72747200Y-63305237D01*
X72747200Y-63305237D02*
X72651961Y-63400475D01*
X72651961Y-63400475D02*
X72556723Y-63448094D01*
X72556723Y-63448094D02*
X72366247Y-63495713D01*
X72366247Y-63495713D02*
X72223390Y-63495713D01*
X72223390Y-63495713D02*
X72032914Y-63448094D01*
X72032914Y-63448094D02*
X71937676Y-63400475D01*
X71937676Y-63400475D02*
X71842438Y-63305237D01*
X71842438Y-63305237D02*
X71794819Y-63162380D01*
X71794819Y-63162380D02*
X71794819Y-63067142D01*
X71794819Y-63067142D02*
X71842438Y-62924285D01*
X71842438Y-62924285D02*
X71890057Y-62876666D01*
X71794819Y-62543332D02*
X71794819Y-61924285D01*
X71794819Y-61924285D02*
X72175771Y-62257618D01*
X72175771Y-62257618D02*
X72175771Y-62114761D01*
X72175771Y-62114761D02*
X72223390Y-62019523D01*
X72223390Y-62019523D02*
X72271009Y-61971904D01*
X72271009Y-61971904D02*
X72366247Y-61924285D01*
X72366247Y-61924285D02*
X72604342Y-61924285D01*
X72604342Y-61924285D02*
X72699580Y-61971904D01*
X72699580Y-61971904D02*
X72747200Y-62019523D01*
X72747200Y-62019523D02*
X72794819Y-62114761D01*
X72794819Y-62114761D02*
X72794819Y-62400475D01*
X72794819Y-62400475D02*
X72747200Y-62495713D01*
X72747200Y-62495713D02*
X72699580Y-62543332D01*
X92961905Y-75504819D02*
X92961905Y-74504819D01*
X92961905Y-74504819D02*
X93200000Y-74504819D01*
X93200000Y-74504819D02*
X93342857Y-74552438D01*
X93342857Y-74552438D02*
X93438095Y-74647676D01*
X93438095Y-74647676D02*
X93485714Y-74742914D01*
X93485714Y-74742914D02*
X93533333Y-74933390D01*
X93533333Y-74933390D02*
X93533333Y-75076247D01*
X93533333Y-75076247D02*
X93485714Y-75266723D01*
X93485714Y-75266723D02*
X93438095Y-75361961D01*
X93438095Y-75361961D02*
X93342857Y-75457200D01*
X93342857Y-75457200D02*
X93200000Y-75504819D01*
X93200000Y-75504819D02*
X92961905Y-75504819D01*
X94485714Y-75504819D02*
X93914286Y-75504819D01*
X94200000Y-75504819D02*
X94200000Y-74504819D01*
X94200000Y-74504819D02*
X94104762Y-74647676D01*
X94104762Y-74647676D02*
X94009524Y-74742914D01*
X94009524Y-74742914D02*
X93914286Y-74790533D01*
X65738095Y-58654819D02*
X65738095Y-57654819D01*
X65738095Y-58131009D02*
X66309523Y-58131009D01*
X66309523Y-58654819D02*
X66309523Y-57654819D01*
X67309523Y-58654819D02*
X66738095Y-58654819D01*
X67023809Y-58654819D02*
X67023809Y-57654819D01*
X67023809Y-57654819D02*
X66928571Y-57797676D01*
X66928571Y-57797676D02*
X66833333Y-57892914D01*
X66833333Y-57892914D02*
X66738095Y-57940533D01*
X93969761Y-67075057D02*
X93874523Y-67027438D01*
X93874523Y-67027438D02*
X93779285Y-66932200D01*
X93779285Y-66932200D02*
X93636428Y-66789342D01*
X93636428Y-66789342D02*
X93541190Y-66741723D01*
X93541190Y-66741723D02*
X93445952Y-66741723D01*
X93493571Y-66979819D02*
X93398333Y-66932200D01*
X93398333Y-66932200D02*
X93303095Y-66836961D01*
X93303095Y-66836961D02*
X93255476Y-66646485D01*
X93255476Y-66646485D02*
X93255476Y-66313152D01*
X93255476Y-66313152D02*
X93303095Y-66122676D01*
X93303095Y-66122676D02*
X93398333Y-66027438D01*
X93398333Y-66027438D02*
X93493571Y-65979819D01*
X93493571Y-65979819D02*
X93684047Y-65979819D01*
X93684047Y-65979819D02*
X93779285Y-66027438D01*
X93779285Y-66027438D02*
X93874523Y-66122676D01*
X93874523Y-66122676D02*
X93922142Y-66313152D01*
X93922142Y-66313152D02*
X93922142Y-66646485D01*
X93922142Y-66646485D02*
X93874523Y-66836961D01*
X93874523Y-66836961D02*
X93779285Y-66932200D01*
X93779285Y-66932200D02*
X93684047Y-66979819D01*
X93684047Y-66979819D02*
X93493571Y-66979819D01*
X94874523Y-66979819D02*
X94303095Y-66979819D01*
X94588809Y-66979819D02*
X94588809Y-65979819D01*
X94588809Y-65979819D02*
X94493571Y-66122676D01*
X94493571Y-66122676D02*
X94398333Y-66217914D01*
X94398333Y-66217914D02*
X94303095Y-66265533D01*
X84159580Y-56766666D02*
X84207200Y-56814285D01*
X84207200Y-56814285D02*
X84254819Y-56957142D01*
X84254819Y-56957142D02*
X84254819Y-57052380D01*
X84254819Y-57052380D02*
X84207200Y-57195237D01*
X84207200Y-57195237D02*
X84111961Y-57290475D01*
X84111961Y-57290475D02*
X84016723Y-57338094D01*
X84016723Y-57338094D02*
X83826247Y-57385713D01*
X83826247Y-57385713D02*
X83683390Y-57385713D01*
X83683390Y-57385713D02*
X83492914Y-57338094D01*
X83492914Y-57338094D02*
X83397676Y-57290475D01*
X83397676Y-57290475D02*
X83302438Y-57195237D01*
X83302438Y-57195237D02*
X83254819Y-57052380D01*
X83254819Y-57052380D02*
X83254819Y-56957142D01*
X83254819Y-56957142D02*
X83302438Y-56814285D01*
X83302438Y-56814285D02*
X83350057Y-56766666D01*
X83588152Y-55909523D02*
X84254819Y-55909523D01*
X83207200Y-56147618D02*
X83921485Y-56385713D01*
X83921485Y-56385713D02*
X83921485Y-55766666D01*
X84039580Y-52966666D02*
X84087200Y-53014285D01*
X84087200Y-53014285D02*
X84134819Y-53157142D01*
X84134819Y-53157142D02*
X84134819Y-53252380D01*
X84134819Y-53252380D02*
X84087200Y-53395237D01*
X84087200Y-53395237D02*
X83991961Y-53490475D01*
X83991961Y-53490475D02*
X83896723Y-53538094D01*
X83896723Y-53538094D02*
X83706247Y-53585713D01*
X83706247Y-53585713D02*
X83563390Y-53585713D01*
X83563390Y-53585713D02*
X83372914Y-53538094D01*
X83372914Y-53538094D02*
X83277676Y-53490475D01*
X83277676Y-53490475D02*
X83182438Y-53395237D01*
X83182438Y-53395237D02*
X83134819Y-53252380D01*
X83134819Y-53252380D02*
X83134819Y-53157142D01*
X83134819Y-53157142D02*
X83182438Y-53014285D01*
X83182438Y-53014285D02*
X83230057Y-52966666D01*
X83134819Y-52061904D02*
X83134819Y-52538094D01*
X83134819Y-52538094D02*
X83611009Y-52585713D01*
X83611009Y-52585713D02*
X83563390Y-52538094D01*
X83563390Y-52538094D02*
X83515771Y-52442856D01*
X83515771Y-52442856D02*
X83515771Y-52204761D01*
X83515771Y-52204761D02*
X83563390Y-52109523D01*
X83563390Y-52109523D02*
X83611009Y-52061904D01*
X83611009Y-52061904D02*
X83706247Y-52014285D01*
X83706247Y-52014285D02*
X83944342Y-52014285D01*
X83944342Y-52014285D02*
X84039580Y-52061904D01*
X84039580Y-52061904D02*
X84087200Y-52109523D01*
X84087200Y-52109523D02*
X84134819Y-52204761D01*
X84134819Y-52204761D02*
X84134819Y-52442856D01*
X84134819Y-52442856D02*
X84087200Y-52538094D01*
X84087200Y-52538094D02*
X84039580Y-52585713D01*
X103238095Y-80854819D02*
X103238095Y-79854819D01*
X103238095Y-80331009D02*
X103809523Y-80331009D01*
X103809523Y-80854819D02*
X103809523Y-79854819D01*
X104714285Y-80188152D02*
X104714285Y-80854819D01*
X104476190Y-79807200D02*
X104238095Y-80521485D01*
X104238095Y-80521485D02*
X104857142Y-80521485D01*
X75488095Y-58054819D02*
X75488095Y-58864342D01*
X75488095Y-58864342D02*
X75535714Y-58959580D01*
X75535714Y-58959580D02*
X75583333Y-59007200D01*
X75583333Y-59007200D02*
X75678571Y-59054819D01*
X75678571Y-59054819D02*
X75869047Y-59054819D01*
X75869047Y-59054819D02*
X75964285Y-59007200D01*
X75964285Y-59007200D02*
X76011904Y-58959580D01*
X76011904Y-58959580D02*
X76059523Y-58864342D01*
X76059523Y-58864342D02*
X76059523Y-58054819D01*
X76488095Y-58150057D02*
X76535714Y-58102438D01*
X76535714Y-58102438D02*
X76630952Y-58054819D01*
X76630952Y-58054819D02*
X76869047Y-58054819D01*
X76869047Y-58054819D02*
X76964285Y-58102438D01*
X76964285Y-58102438D02*
X77011904Y-58150057D01*
X77011904Y-58150057D02*
X77059523Y-58245295D01*
X77059523Y-58245295D02*
X77059523Y-58340533D01*
X77059523Y-58340533D02*
X77011904Y-58483390D01*
X77011904Y-58483390D02*
X76440476Y-59054819D01*
X76440476Y-59054819D02*
X77059523Y-59054819D01*
X73433333Y-66154819D02*
X73100000Y-65678628D01*
X72861905Y-66154819D02*
X72861905Y-65154819D01*
X72861905Y-65154819D02*
X73242857Y-65154819D01*
X73242857Y-65154819D02*
X73338095Y-65202438D01*
X73338095Y-65202438D02*
X73385714Y-65250057D01*
X73385714Y-65250057D02*
X73433333Y-65345295D01*
X73433333Y-65345295D02*
X73433333Y-65488152D01*
X73433333Y-65488152D02*
X73385714Y-65583390D01*
X73385714Y-65583390D02*
X73338095Y-65631009D01*
X73338095Y-65631009D02*
X73242857Y-65678628D01*
X73242857Y-65678628D02*
X72861905Y-65678628D01*
X74385714Y-66154819D02*
X73814286Y-66154819D01*
X74100000Y-66154819D02*
X74100000Y-65154819D01*
X74100000Y-65154819D02*
X74004762Y-65297676D01*
X74004762Y-65297676D02*
X73909524Y-65392914D01*
X73909524Y-65392914D02*
X73814286Y-65440533D01*
X104538095Y-75354819D02*
X104538095Y-76164342D01*
X104538095Y-76164342D02*
X104585714Y-76259580D01*
X104585714Y-76259580D02*
X104633333Y-76307200D01*
X104633333Y-76307200D02*
X104728571Y-76354819D01*
X104728571Y-76354819D02*
X104919047Y-76354819D01*
X104919047Y-76354819D02*
X105014285Y-76307200D01*
X105014285Y-76307200D02*
X105061904Y-76259580D01*
X105061904Y-76259580D02*
X105109523Y-76164342D01*
X105109523Y-76164342D02*
X105109523Y-75354819D01*
X106061904Y-75354819D02*
X105585714Y-75354819D01*
X105585714Y-75354819D02*
X105538095Y-75831009D01*
X105538095Y-75831009D02*
X105585714Y-75783390D01*
X105585714Y-75783390D02*
X105680952Y-75735771D01*
X105680952Y-75735771D02*
X105919047Y-75735771D01*
X105919047Y-75735771D02*
X106014285Y-75783390D01*
X106014285Y-75783390D02*
X106061904Y-75831009D01*
X106061904Y-75831009D02*
X106109523Y-75926247D01*
X106109523Y-75926247D02*
X106109523Y-76164342D01*
X106109523Y-76164342D02*
X106061904Y-76259580D01*
X106061904Y-76259580D02*
X106014285Y-76307200D01*
X106014285Y-76307200D02*
X105919047Y-76354819D01*
X105919047Y-76354819D02*
X105680952Y-76354819D01*
X105680952Y-76354819D02*
X105585714Y-76307200D01*
X105585714Y-76307200D02*
X105538095Y-76259580D01*
D12*
%TO.C,L1*%
X72640000Y-78150000D02*
X72640000Y-77300000D01*
X72640000Y-82850000D02*
X72640000Y-82050000D01*
X73250000Y-76690000D02*
X78950000Y-76690000D01*
X78950000Y-83510000D02*
X73300000Y-83510000D01*
X79560000Y-77300000D02*
X79560000Y-78150000D01*
X79560000Y-82050000D02*
X79560000Y-82900000D01*
X72640000Y-77300000D02*
G75*
G02*
X73250000Y-76690000I610000J0D01*
G01*
X73300000Y-83510000D02*
G75*
G02*
X72640000Y-82850000I2J660002D01*
G01*
X78950000Y-76690000D02*
G75*
G02*
X79560000Y-77300000I0J-610000D01*
G01*
X79560000Y-82900000D02*
G75*
G02*
X78950000Y-83510000I-610000J0D01*
G01*
D13*
%TO.C,U4*%
X70900000Y-59900000D02*
X62800000Y-59900000D01*
X62800000Y-59900000D02*
X62800000Y-61700000D01*
X69300000Y-60000000D02*
X64300000Y-60000000D01*
X64300000Y-60000000D02*
X62800000Y-61500000D01*
X62800000Y-61500000D02*
X62800000Y-75500000D01*
X70900000Y-61600000D02*
X70900000Y-59900000D01*
X70900000Y-61600000D02*
X69300000Y-60000000D01*
X70900000Y-62500000D02*
X70900000Y-61600000D01*
X70900000Y-75500000D02*
X70900000Y-62400000D01*
X62800000Y-75500000D02*
X70900000Y-75500000D01*
D12*
%TO.C,R2*%
X77112936Y-67475000D02*
X77567064Y-67475000D01*
X77112936Y-68945000D02*
X77567064Y-68945000D01*
%TO.C,U1*%
X80030000Y-69960000D02*
X80030000Y-69160000D01*
X80030000Y-69960000D02*
X80030000Y-70760000D01*
X83150000Y-69960000D02*
X83150000Y-69160000D01*
X83150000Y-69960000D02*
X83150000Y-70760000D01*
X83430000Y-68900000D02*
X83100000Y-68660000D01*
X83430000Y-68420000D01*
X83430000Y-68900000D01*
G36*
X83430000Y-68900000D02*
G01*
X83100000Y-68660000D01*
X83430000Y-68420000D01*
X83430000Y-68900000D01*
G37*
%TO.C,R5*%
X81362936Y-72475000D02*
X81817064Y-72475000D01*
X81362936Y-73945000D02*
X81817064Y-73945000D01*
%TO.C,R4*%
X81612936Y-65975000D02*
X82067064Y-65975000D01*
X81612936Y-67445000D02*
X82067064Y-67445000D01*
%TO.C,C2*%
X87139000Y-57517000D02*
X87139000Y-56883000D01*
X87179000Y-57957000D02*
X87179000Y-56443000D01*
X87219000Y-58228000D02*
X87219000Y-56172000D01*
X87259000Y-58441000D02*
X87259000Y-55959000D01*
X87299000Y-58622000D02*
X87299000Y-55778000D01*
X87339000Y-58783000D02*
X87339000Y-55617000D01*
X87379000Y-58928000D02*
X87379000Y-55472000D01*
X87419000Y-59061000D02*
X87419000Y-55339000D01*
X87459000Y-59184000D02*
X87459000Y-55216000D01*
X87499000Y-59300000D02*
X87499000Y-55100000D01*
X87539000Y-59409000D02*
X87539000Y-54991000D01*
X87579000Y-59512000D02*
X87579000Y-54888000D01*
X87619000Y-59610000D02*
X87619000Y-54790000D01*
X87659000Y-59704000D02*
X87659000Y-54696000D01*
X87699000Y-59794000D02*
X87699000Y-54606000D01*
X87739000Y-59881000D02*
X87739000Y-54519000D01*
X87779000Y-59964000D02*
X87779000Y-54436000D01*
X87819000Y-60044000D02*
X87819000Y-54356000D01*
X87859000Y-60121000D02*
X87859000Y-54279000D01*
X87899000Y-60196000D02*
X87899000Y-54204000D01*
X87939000Y-60269000D02*
X87939000Y-54131000D01*
X87979000Y-60340000D02*
X87979000Y-54060000D01*
X88019000Y-60408000D02*
X88019000Y-53992000D01*
X88059000Y-60475000D02*
X88059000Y-53925000D01*
X88099000Y-60539000D02*
X88099000Y-53861000D01*
X88139000Y-60602000D02*
X88139000Y-53798000D01*
X88179000Y-60664000D02*
X88179000Y-53736000D01*
X88219000Y-60724000D02*
X88219000Y-53676000D01*
X88259000Y-60783000D02*
X88259000Y-53617000D01*
X88299000Y-60840000D02*
X88299000Y-53560000D01*
X88339000Y-60896000D02*
X88339000Y-53504000D01*
X88379000Y-60950000D02*
X88379000Y-53450000D01*
X88419000Y-61004000D02*
X88419000Y-53396000D01*
X88459000Y-61056000D02*
X88459000Y-53344000D01*
X88499000Y-61107000D02*
X88499000Y-53293000D01*
X88539000Y-61157000D02*
X88539000Y-53243000D01*
X88579000Y-61207000D02*
X88579000Y-53193000D01*
X88619000Y-61255000D02*
X88619000Y-53145000D01*
X88659000Y-61302000D02*
X88659000Y-53098000D01*
X88699000Y-61348000D02*
X88699000Y-53052000D01*
X88739000Y-61394000D02*
X88739000Y-53006000D01*
X88779000Y-61438000D02*
X88779000Y-52962000D01*
X88819000Y-61482000D02*
X88819000Y-52918000D01*
X88859000Y-61525000D02*
X88859000Y-52875000D01*
X88899000Y-61567000D02*
X88899000Y-52833000D01*
X88939000Y-61608000D02*
X88939000Y-52792000D01*
X88979000Y-61649000D02*
X88979000Y-52751000D01*
X89019000Y-61689000D02*
X89019000Y-52711000D01*
X89059000Y-61728000D02*
X89059000Y-52672000D01*
X89099000Y-61767000D02*
X89099000Y-52633000D01*
X89139000Y-61805000D02*
X89139000Y-52595000D01*
X89179000Y-61842000D02*
X89179000Y-52558000D01*
X89219000Y-61878000D02*
X89219000Y-52522000D01*
X89259000Y-61914000D02*
X89259000Y-52486000D01*
X89299000Y-61950000D02*
X89299000Y-52450000D01*
X89339000Y-61985000D02*
X89339000Y-52415000D01*
X89379000Y-62019000D02*
X89379000Y-52381000D01*
X89419000Y-62052000D02*
X89419000Y-52348000D01*
X89459000Y-62085000D02*
X89459000Y-52315000D01*
X89499000Y-62118000D02*
X89499000Y-52282000D01*
X89539000Y-62150000D02*
X89539000Y-52250000D01*
X89579000Y-55760000D02*
X89579000Y-52218000D01*
X89579000Y-62182000D02*
X89579000Y-58640000D01*
X89619000Y-55760000D02*
X89619000Y-52188000D01*
X89619000Y-62212000D02*
X89619000Y-58640000D01*
X89659000Y-55760000D02*
X89659000Y-52157000D01*
X89659000Y-62243000D02*
X89659000Y-58640000D01*
X89699000Y-55760000D02*
X89699000Y-52127000D01*
X89699000Y-62273000D02*
X89699000Y-58640000D01*
X89739000Y-55760000D02*
X89739000Y-52098000D01*
X89739000Y-62302000D02*
X89739000Y-58640000D01*
X89779000Y-55760000D02*
X89779000Y-52069000D01*
X89779000Y-62331000D02*
X89779000Y-58640000D01*
X89819000Y-55760000D02*
X89819000Y-52040000D01*
X89819000Y-62360000D02*
X89819000Y-58640000D01*
X89859000Y-55760000D02*
X89859000Y-52012000D01*
X89859000Y-62388000D02*
X89859000Y-58640000D01*
X89899000Y-55760000D02*
X89899000Y-51984000D01*
X89899000Y-62416000D02*
X89899000Y-58640000D01*
X89939000Y-55760000D02*
X89939000Y-51957000D01*
X89939000Y-62443000D02*
X89939000Y-58640000D01*
X89979000Y-55760000D02*
X89979000Y-51930000D01*
X89979000Y-62470000D02*
X89979000Y-58640000D01*
X90019000Y-55760000D02*
X90019000Y-51904000D01*
X90019000Y-62496000D02*
X90019000Y-58640000D01*
X90059000Y-55760000D02*
X90059000Y-51878000D01*
X90059000Y-62522000D02*
X90059000Y-58640000D01*
X90099000Y-55760000D02*
X90099000Y-51853000D01*
X90099000Y-62547000D02*
X90099000Y-58640000D01*
X90139000Y-55760000D02*
X90139000Y-51828000D01*
X90139000Y-62572000D02*
X90139000Y-58640000D01*
X90179000Y-55760000D02*
X90179000Y-51803000D01*
X90179000Y-62597000D02*
X90179000Y-58640000D01*
X90219000Y-55760000D02*
X90219000Y-51779000D01*
X90219000Y-62621000D02*
X90219000Y-58640000D01*
X90259000Y-55760000D02*
X90259000Y-51755000D01*
X90259000Y-62645000D02*
X90259000Y-58640000D01*
X90299000Y-55760000D02*
X90299000Y-51732000D01*
X90299000Y-62668000D02*
X90299000Y-58640000D01*
X90339000Y-55760000D02*
X90339000Y-51709000D01*
X90339000Y-62691000D02*
X90339000Y-58640000D01*
X90379000Y-55760000D02*
X90379000Y-51686000D01*
X90379000Y-62714000D02*
X90379000Y-58640000D01*
X90419000Y-55760000D02*
X90419000Y-51664000D01*
X90419000Y-62736000D02*
X90419000Y-58640000D01*
X90459000Y-55760000D02*
X90459000Y-51642000D01*
X90459000Y-62758000D02*
X90459000Y-58640000D01*
X90499000Y-55760000D02*
X90499000Y-51620000D01*
X90499000Y-62780000D02*
X90499000Y-58640000D01*
X90539000Y-55760000D02*
X90539000Y-51599000D01*
X90539000Y-62801000D02*
X90539000Y-58640000D01*
X90579000Y-55760000D02*
X90579000Y-51578000D01*
X90579000Y-62822000D02*
X90579000Y-58640000D01*
X90619000Y-55760000D02*
X90619000Y-51558000D01*
X90619000Y-62842000D02*
X90619000Y-58640000D01*
X90659000Y-55760000D02*
X90659000Y-51538000D01*
X90659000Y-62862000D02*
X90659000Y-58640000D01*
X90699000Y-55760000D02*
X90699000Y-51518000D01*
X90699000Y-62882000D02*
X90699000Y-58640000D01*
X90739000Y-55760000D02*
X90739000Y-51498000D01*
X90739000Y-62902000D02*
X90739000Y-58640000D01*
X90779000Y-55760000D02*
X90779000Y-51479000D01*
X90779000Y-62921000D02*
X90779000Y-58640000D01*
X90819000Y-55760000D02*
X90819000Y-51461000D01*
X90819000Y-62939000D02*
X90819000Y-58640000D01*
X90859000Y-55760000D02*
X90859000Y-51442000D01*
X90859000Y-62958000D02*
X90859000Y-58640000D01*
X90899000Y-55760000D02*
X90899000Y-51424000D01*
X90899000Y-62976000D02*
X90899000Y-58640000D01*
X90939000Y-55760000D02*
X90939000Y-51407000D01*
X90939000Y-62993000D02*
X90939000Y-58640000D01*
X90979000Y-55760000D02*
X90979000Y-51389000D01*
X90979000Y-63011000D02*
X90979000Y-58640000D01*
X91019000Y-55760000D02*
X91019000Y-51372000D01*
X91019000Y-63028000D02*
X91019000Y-58640000D01*
X91059000Y-55760000D02*
X91059000Y-51355000D01*
X91059000Y-63045000D02*
X91059000Y-58640000D01*
X91099000Y-55760000D02*
X91099000Y-51339000D01*
X91099000Y-63061000D02*
X91099000Y-58640000D01*
X91139000Y-55760000D02*
X91139000Y-51323000D01*
X91139000Y-63077000D02*
X91139000Y-58640000D01*
X91179000Y-55760000D02*
X91179000Y-51307000D01*
X91179000Y-63093000D02*
X91179000Y-58640000D01*
X91219000Y-55760000D02*
X91219000Y-51292000D01*
X91219000Y-63108000D02*
X91219000Y-58640000D01*
X91259000Y-55760000D02*
X91259000Y-51276000D01*
X91259000Y-63124000D02*
X91259000Y-58640000D01*
X91299000Y-55760000D02*
X91299000Y-51261000D01*
X91299000Y-63139000D02*
X91299000Y-58640000D01*
X91339000Y-55760000D02*
X91339000Y-51247000D01*
X91339000Y-63153000D02*
X91339000Y-58640000D01*
X91379000Y-55760000D02*
X91379000Y-51233000D01*
X91379000Y-63167000D02*
X91379000Y-58640000D01*
X91419000Y-55760000D02*
X91419000Y-51219000D01*
X91419000Y-63181000D02*
X91419000Y-58640000D01*
X91459000Y-55760000D02*
X91459000Y-51205000D01*
X91459000Y-63195000D02*
X91459000Y-58640000D01*
X91499000Y-55760000D02*
X91499000Y-51192000D01*
X91499000Y-63208000D02*
X91499000Y-58640000D01*
X91539000Y-55760000D02*
X91539000Y-51179000D01*
X91539000Y-63221000D02*
X91539000Y-58640000D01*
X91579000Y-55760000D02*
X91579000Y-51166000D01*
X91579000Y-63234000D02*
X91579000Y-58640000D01*
X91619000Y-55760000D02*
X91619000Y-51153000D01*
X91619000Y-63247000D02*
X91619000Y-58640000D01*
X91659000Y-55760000D02*
X91659000Y-51141000D01*
X91659000Y-63259000D02*
X91659000Y-58640000D01*
X91699000Y-55760000D02*
X91699000Y-51129000D01*
X91699000Y-63271000D02*
X91699000Y-58640000D01*
X91739000Y-55760000D02*
X91739000Y-51117000D01*
X91739000Y-63283000D02*
X91739000Y-58640000D01*
X91779000Y-55760000D02*
X91779000Y-51106000D01*
X91779000Y-63294000D02*
X91779000Y-58640000D01*
X91819000Y-55760000D02*
X91819000Y-51095000D01*
X91819000Y-63305000D02*
X91819000Y-58640000D01*
X91859000Y-55760000D02*
X91859000Y-51084000D01*
X91859000Y-63316000D02*
X91859000Y-58640000D01*
X91899000Y-55760000D02*
X91899000Y-51074000D01*
X91899000Y-63326000D02*
X91899000Y-58640000D01*
X91939000Y-55760000D02*
X91939000Y-51063000D01*
X91939000Y-63337000D02*
X91939000Y-58640000D01*
X91979000Y-55760000D02*
X91979000Y-51054000D01*
X91979000Y-63346000D02*
X91979000Y-58640000D01*
X92019000Y-55760000D02*
X92019000Y-51044000D01*
X92019000Y-63356000D02*
X92019000Y-58640000D01*
X92059000Y-55760000D02*
X92059000Y-51034000D01*
X92059000Y-63366000D02*
X92059000Y-58640000D01*
X92099000Y-55760000D02*
X92099000Y-51025000D01*
X92099000Y-63375000D02*
X92099000Y-58640000D01*
X92139000Y-55760000D02*
X92139000Y-51016000D01*
X92139000Y-63384000D02*
X92139000Y-58640000D01*
X92179000Y-55760000D02*
X92179000Y-51008000D01*
X92179000Y-63392000D02*
X92179000Y-58640000D01*
X92219000Y-55760000D02*
X92219000Y-50999000D01*
X92219000Y-63401000D02*
X92219000Y-58640000D01*
X92259000Y-55760000D02*
X92259000Y-50991000D01*
X92259000Y-63409000D02*
X92259000Y-58640000D01*
X92299000Y-55760000D02*
X92299000Y-50984000D01*
X92299000Y-63416000D02*
X92299000Y-58640000D01*
X92339000Y-55760000D02*
X92339000Y-50976000D01*
X92339000Y-63424000D02*
X92339000Y-58640000D01*
X92379000Y-55760000D02*
X92379000Y-50969000D01*
X92379000Y-63431000D02*
X92379000Y-58640000D01*
X92419000Y-55760000D02*
X92419000Y-50962000D01*
X92419000Y-63438000D02*
X92419000Y-58640000D01*
X92459000Y-63445000D02*
X92459000Y-50955000D01*
X92499000Y-63452000D02*
X92499000Y-50948000D01*
X92539000Y-63458000D02*
X92539000Y-50942000D01*
X92579000Y-63464000D02*
X92579000Y-50936000D01*
X92619000Y-63469000D02*
X92619000Y-50931000D01*
X92659000Y-63475000D02*
X92659000Y-50925000D01*
X92699000Y-63480000D02*
X92699000Y-50920000D01*
X92739000Y-63485000D02*
X92739000Y-50915000D01*
X92779000Y-63490000D02*
X92779000Y-50910000D01*
X92820000Y-63494000D02*
X92820000Y-50906000D01*
X92860000Y-63498000D02*
X92860000Y-50902000D01*
X92900000Y-63502000D02*
X92900000Y-50898000D01*
X92940000Y-63506000D02*
X92940000Y-50894000D01*
X92980000Y-63509000D02*
X92980000Y-50891000D01*
X93020000Y-63512000D02*
X93020000Y-50888000D01*
X93060000Y-63515000D02*
X93060000Y-50885000D01*
X93100000Y-63518000D02*
X93100000Y-50882000D01*
X93140000Y-63520000D02*
X93140000Y-50880000D01*
X93180000Y-63522000D02*
X93180000Y-50878000D01*
X93220000Y-63524000D02*
X93220000Y-50876000D01*
X93260000Y-63526000D02*
X93260000Y-50874000D01*
X93300000Y-63527000D02*
X93300000Y-50873000D01*
X93340000Y-63528000D02*
X93340000Y-50872000D01*
X93380000Y-63529000D02*
X93380000Y-50871000D01*
X93420000Y-63530000D02*
X93420000Y-50870000D01*
X93460000Y-63530000D02*
X93460000Y-50870000D01*
X93500000Y-63530000D02*
X93500000Y-50870000D01*
X99692082Y-61400000D02*
X99692082Y-60150000D01*
X100317082Y-60775000D02*
X99067082Y-60775000D01*
X99870000Y-57200000D02*
G75*
G02*
X87130000Y-57200000I-6370000J0D01*
G01*
X87130000Y-57200000D02*
G75*
G02*
X99870000Y-57200000I6370000J0D01*
G01*
%TO.C,R3*%
X77112936Y-69975000D02*
X77567064Y-69975000D01*
X77112936Y-71445000D02*
X77567064Y-71445000D01*
%TO.C,U3*%
X79340000Y-59650000D02*
X77390000Y-59650000D01*
X79340000Y-59650000D02*
X81290000Y-59650000D01*
X79340000Y-64770000D02*
X77390000Y-64770000D01*
X79340000Y-64770000D02*
X81290000Y-64770000D01*
X76640000Y-59745000D02*
X76400000Y-59415000D01*
X76880000Y-59415000D01*
X76640000Y-59745000D01*
G36*
X76640000Y-59745000D02*
G01*
X76400000Y-59415000D01*
X76880000Y-59415000D01*
X76640000Y-59745000D01*
G37*
%TO.C,C1*%
X84205000Y-71848748D02*
X84205000Y-72371252D01*
X85675000Y-71848748D02*
X85675000Y-72371252D01*
%TO.C,J2*%
X71190000Y-87430000D02*
X71190000Y-86100000D01*
X72520000Y-87430000D02*
X71190000Y-87430000D01*
X73790000Y-84770000D02*
X81470000Y-84770000D01*
X73790000Y-87430000D02*
X73790000Y-84770000D01*
X73790000Y-87430000D02*
X81470000Y-87430000D01*
X81470000Y-87430000D02*
X81470000Y-84770000D01*
%TO.C,C3*%
X73605000Y-62448748D02*
X73605000Y-62971252D01*
X75075000Y-62448748D02*
X75075000Y-62971252D01*
%TO.C,D1*%
X88875000Y-76500000D02*
X88875000Y-78310000D01*
X88875000Y-86900000D02*
X88875000Y-85090000D01*
X90375000Y-76500000D02*
X88875000Y-76500000D01*
X90375000Y-86900000D02*
X88875000Y-86900000D01*
X86312500Y-78310000D02*
X86072500Y-77980000D01*
X86552500Y-77980000D01*
X86312500Y-78310000D01*
G36*
X86312500Y-78310000D02*
G01*
X86072500Y-77980000D01*
X86552500Y-77980000D01*
X86312500Y-78310000D01*
G37*
%TO.C,Q1*%
X90755000Y-67575000D02*
X90755000Y-67845000D01*
X90755000Y-74475000D02*
X90755000Y-74205000D01*
X97175000Y-67575000D02*
X90755000Y-67575000D01*
X97175000Y-74475000D02*
X90755000Y-74475000D01*
X89335000Y-67885000D02*
X89095000Y-67555000D01*
X89575000Y-67555000D01*
X89335000Y-67885000D01*
G36*
X89335000Y-67885000D02*
G01*
X89095000Y-67555000D01*
X89575000Y-67555000D01*
X89335000Y-67885000D01*
G37*
%TO.C,C4*%
X81265000Y-56661252D02*
X81265000Y-56138748D01*
X82735000Y-56661252D02*
X82735000Y-56138748D01*
%TO.C,C5*%
X81265000Y-52538748D02*
X81265000Y-53061252D01*
X82735000Y-52538748D02*
X82735000Y-53061252D01*
%TO.C,U2*%
X74340000Y-50690000D02*
X74340000Y-51950000D01*
X74340000Y-57510000D02*
X74340000Y-56250000D01*
X78100000Y-50690000D02*
X74340000Y-50690000D01*
X78100000Y-57510000D02*
X74340000Y-57510000D01*
X79620000Y-57740000D02*
X79140000Y-57740000D01*
X79380000Y-57410000D01*
X79620000Y-57740000D01*
G36*
X79620000Y-57740000D02*
G01*
X79140000Y-57740000D01*
X79380000Y-57410000D01*
X79620000Y-57740000D01*
G37*
%TO.C,R1*%
X75210000Y-68022936D02*
X75210000Y-72377064D01*
X71790000Y-68022936D02*
X71790000Y-72377064D01*
D14*
%TO.C,U5*%
X105000000Y-59400000D02*
X107500000Y-61900000D01*
X102000000Y-59400000D02*
X105000000Y-59400000D01*
X104500000Y-60200000D02*
X102500000Y-60200000D01*
X102500000Y-60200000D02*
X100500000Y-62200000D01*
X107500000Y-61900000D02*
X107500000Y-74500000D01*
X99500000Y-61900000D02*
X102000000Y-59400000D01*
X106500000Y-62200000D02*
X104500000Y-60200000D01*
X100500000Y-62200000D02*
X100500000Y-66200000D01*
X101500000Y-66200000D02*
X101500000Y-66600000D01*
X100500000Y-66200000D02*
X101500000Y-66200000D01*
X100500000Y-66200000D02*
X100500000Y-68200000D01*
X105500000Y-66600000D02*
X105500000Y-66700000D01*
X101500000Y-66600000D02*
X105500000Y-66600000D01*
X101500000Y-66600000D02*
X101500000Y-66700000D01*
X105500000Y-66700000D02*
X105500000Y-66800000D01*
X101500000Y-66700000D02*
X105500000Y-66700000D01*
X101500000Y-66700000D02*
X101500000Y-66800000D01*
X105500000Y-66800000D02*
X105500000Y-66900000D01*
X101500000Y-66800000D02*
X105500000Y-66800000D01*
X101500000Y-66800000D02*
X101500000Y-66900000D01*
X105500000Y-66900000D02*
X105500000Y-67000000D01*
X101500000Y-66900000D02*
X105500000Y-66900000D01*
X101500000Y-66900000D02*
X101500000Y-67000000D01*
X105500000Y-67000000D02*
X105500000Y-67100000D01*
X101500000Y-67000000D02*
X105500000Y-67000000D01*
X101500000Y-67000000D02*
X101500000Y-67100000D01*
X105500000Y-67100000D02*
X105500000Y-67200000D01*
X101500000Y-67100000D02*
X105500000Y-67100000D01*
X101500000Y-67100000D02*
X101500000Y-67200000D01*
X105500000Y-67200000D02*
X105500000Y-67300000D01*
X101500000Y-67200000D02*
X105500000Y-67200000D01*
X101500000Y-67200000D02*
X101500000Y-67300000D01*
X105500000Y-67300000D02*
X105500000Y-67400000D01*
X101500000Y-67300000D02*
X105500000Y-67300000D01*
X101500000Y-67300000D02*
X101500000Y-67400000D01*
X105500000Y-67400000D02*
X105500000Y-67500000D01*
X101500000Y-67400000D02*
X105500000Y-67400000D01*
X101500000Y-67400000D02*
X101500000Y-67500000D01*
X105500000Y-67500000D02*
X105500000Y-67600000D01*
X101500000Y-67500000D02*
X105500000Y-67500000D01*
X101500000Y-67500000D02*
X101500000Y-67600000D01*
X105500000Y-67600000D02*
X105500000Y-67700000D01*
X101500000Y-67600000D02*
X105500000Y-67600000D01*
X101500000Y-67600000D02*
X101500000Y-67700000D01*
X105500000Y-67700000D02*
X105500000Y-67800000D01*
X101500000Y-67700000D02*
X105500000Y-67700000D01*
X101500000Y-67700000D02*
X101500000Y-67800000D01*
X105500000Y-67800000D02*
X101500000Y-67800000D01*
X101500000Y-67800000D02*
X101500000Y-68200000D01*
X101500000Y-68200000D02*
X100500000Y-68200000D01*
X100500000Y-68200000D02*
X100500000Y-74200000D01*
X106500000Y-74200000D02*
X106500000Y-62200000D01*
X100500000Y-74200000D02*
X106500000Y-74200000D01*
X99500000Y-74500000D02*
X99500000Y-61900000D01*
X107000000Y-75000000D02*
X100000000Y-75000000D01*
X103500000Y-75200000D02*
X103500000Y-76200000D01*
X104000000Y-75700000D02*
X103000000Y-75700000D01*
X107500000Y-74500000D02*
G75*
G02*
X107000000Y-75000000I-500000J0D01*
G01*
X100000000Y-75000000D02*
G75*
G02*
X99500000Y-74500000I0J500000D01*
G01*
%TD*%
%LPC*%
D15*
%TO.C,L1*%
X73375000Y-80100000D03*
X78825000Y-80100000D03*
%TD*%
D16*
%TO.C,U4*%
X66800000Y-64100000D03*
X66800000Y-71300000D03*
%TD*%
D17*
%TO.C,R2*%
X76427500Y-68210000D03*
X78252500Y-68210000D03*
%TD*%
D18*
%TO.C,U1*%
X82540000Y-68822500D03*
X81590000Y-68822500D03*
X80640000Y-68822500D03*
X80640000Y-71097500D03*
X82540000Y-71097500D03*
%TD*%
D17*
%TO.C,R5*%
X80677500Y-73210000D03*
X82502500Y-73210000D03*
%TD*%
%TO.C,R4*%
X80927500Y-66710000D03*
X82752500Y-66710000D03*
%TD*%
D19*
%TO.C,H3*%
X66500000Y-84500000D03*
%TD*%
D20*
%TO.C,C2*%
X96000000Y-57200000D03*
D21*
X91000000Y-57200000D03*
%TD*%
D17*
%TO.C,R3*%
X76427500Y-70710000D03*
X78252500Y-70710000D03*
%TD*%
D22*
%TO.C,U3*%
X76865000Y-60305000D03*
X76865000Y-61575000D03*
X76865000Y-62845000D03*
X76865000Y-64115000D03*
X81815000Y-64115000D03*
X81815000Y-62845000D03*
X81815000Y-61575000D03*
X81815000Y-60305000D03*
%TD*%
D23*
%TO.C,C1*%
X84940000Y-71160000D03*
X84940000Y-73060000D03*
%TD*%
D19*
%TO.C,H2*%
X104000000Y-54000000D03*
%TD*%
D24*
%TO.C,J2*%
X72520000Y-86100000D03*
D25*
X75060000Y-86100000D03*
X77600000Y-86100000D03*
X80140000Y-86100000D03*
%TD*%
D23*
%TO.C,C3*%
X74340000Y-61760000D03*
X74340000Y-63660000D03*
%TD*%
D26*
%TO.C,D1*%
X86050000Y-79160000D03*
D27*
X95200000Y-81700000D03*
D26*
X86050000Y-84240000D03*
%TD*%
D19*
%TO.C,H1*%
X66500000Y-54000000D03*
%TD*%
D28*
%TO.C,Q1*%
X89025000Y-68745000D03*
D29*
X95325000Y-71025000D03*
D28*
X89025000Y-73305000D03*
%TD*%
D30*
%TO.C,C4*%
X82000000Y-57350000D03*
X82000000Y-55450000D03*
%TD*%
D23*
%TO.C,C5*%
X82000000Y-51850000D03*
X82000000Y-53750000D03*
%TD*%
D19*
%TO.C,H4*%
X104000000Y-84600000D03*
%TD*%
D31*
%TO.C,U2*%
X79400000Y-56400000D03*
X79400000Y-54100000D03*
D32*
X73100000Y-54100000D03*
D31*
X79400000Y-51800000D03*
%TD*%
D33*
%TO.C,R1*%
X73500000Y-73162500D03*
X73500000Y-67237500D03*
%TD*%
D34*
%TO.C,U5*%
X103500000Y-70800000D03*
X103500000Y-63600000D03*
%TD*%
%LPD*%
M02*
