%TF.GenerationSoftware,KiCad,Pcbnew,8.0.6*%
%TF.CreationDate,2024-11-07T10:06:34+11:00*%
%TF.ProjectId,mppt-board,6d707074-2d62-46f6-9172-642e6b696361,rev?*%
%TF.SameCoordinates,Original*%
%TF.FileFunction,Legend,Bot*%
%TF.FilePolarity,Positive*%
%FSLAX46Y46*%
G04 Gerber Fmt 4.6, Leading zero omitted, Abs format (unit mm)*
G04 Created by KiCad (PCBNEW 8.0.6) date 2024-11-07 10:06:34*
%MOMM*%
%LPD*%
G01*
G04 APERTURE LIST*
%ADD10C,0.100000*%
%ADD11C,0.010000*%
%ADD12C,5.800000*%
%ADD13C,6.400000*%
%ADD14R,2.400000X2.400000*%
%ADD15C,2.400000*%
%ADD16R,1.700000X1.700000*%
%ADD17O,1.700000X1.700000*%
%ADD18C,5.520000*%
G04 APERTURE END LIST*
D10*
X101596115Y-75322419D02*
X101596115Y-74322419D01*
X101596115Y-74322419D02*
X101358020Y-74322419D01*
X101358020Y-74322419D02*
X101215163Y-74370038D01*
X101215163Y-74370038D02*
X101119925Y-74465276D01*
X101119925Y-74465276D02*
X101072306Y-74560514D01*
X101072306Y-74560514D02*
X101024687Y-74750990D01*
X101024687Y-74750990D02*
X101024687Y-74893847D01*
X101024687Y-74893847D02*
X101072306Y-75084323D01*
X101072306Y-75084323D02*
X101119925Y-75179561D01*
X101119925Y-75179561D02*
X101215163Y-75274800D01*
X101215163Y-75274800D02*
X101358020Y-75322419D01*
X101358020Y-75322419D02*
X101596115Y-75322419D01*
X100215163Y-75274800D02*
X100310401Y-75322419D01*
X100310401Y-75322419D02*
X100500877Y-75322419D01*
X100500877Y-75322419D02*
X100596115Y-75274800D01*
X100596115Y-75274800D02*
X100643734Y-75179561D01*
X100643734Y-75179561D02*
X100643734Y-74798609D01*
X100643734Y-74798609D02*
X100596115Y-74703371D01*
X100596115Y-74703371D02*
X100500877Y-74655752D01*
X100500877Y-74655752D02*
X100310401Y-74655752D01*
X100310401Y-74655752D02*
X100215163Y-74703371D01*
X100215163Y-74703371D02*
X100167544Y-74798609D01*
X100167544Y-74798609D02*
X100167544Y-74893847D01*
X100167544Y-74893847D02*
X100643734Y-74989085D01*
X99786591Y-75274800D02*
X99691353Y-75322419D01*
X99691353Y-75322419D02*
X99500877Y-75322419D01*
X99500877Y-75322419D02*
X99405639Y-75274800D01*
X99405639Y-75274800D02*
X99358020Y-75179561D01*
X99358020Y-75179561D02*
X99358020Y-75131942D01*
X99358020Y-75131942D02*
X99405639Y-75036704D01*
X99405639Y-75036704D02*
X99500877Y-74989085D01*
X99500877Y-74989085D02*
X99643734Y-74989085D01*
X99643734Y-74989085D02*
X99738972Y-74941466D01*
X99738972Y-74941466D02*
X99786591Y-74846228D01*
X99786591Y-74846228D02*
X99786591Y-74798609D01*
X99786591Y-74798609D02*
X99738972Y-74703371D01*
X99738972Y-74703371D02*
X99643734Y-74655752D01*
X99643734Y-74655752D02*
X99500877Y-74655752D01*
X99500877Y-74655752D02*
X99405639Y-74703371D01*
X98929448Y-75322419D02*
X98929448Y-74655752D01*
X98929448Y-74322419D02*
X98977067Y-74370038D01*
X98977067Y-74370038D02*
X98929448Y-74417657D01*
X98929448Y-74417657D02*
X98881829Y-74370038D01*
X98881829Y-74370038D02*
X98929448Y-74322419D01*
X98929448Y-74322419D02*
X98929448Y-74417657D01*
X98024687Y-74655752D02*
X98024687Y-75465276D01*
X98024687Y-75465276D02*
X98072306Y-75560514D01*
X98072306Y-75560514D02*
X98119925Y-75608133D01*
X98119925Y-75608133D02*
X98215163Y-75655752D01*
X98215163Y-75655752D02*
X98358020Y-75655752D01*
X98358020Y-75655752D02*
X98453258Y-75608133D01*
X98024687Y-75274800D02*
X98119925Y-75322419D01*
X98119925Y-75322419D02*
X98310401Y-75322419D01*
X98310401Y-75322419D02*
X98405639Y-75274800D01*
X98405639Y-75274800D02*
X98453258Y-75227180D01*
X98453258Y-75227180D02*
X98500877Y-75131942D01*
X98500877Y-75131942D02*
X98500877Y-74846228D01*
X98500877Y-74846228D02*
X98453258Y-74750990D01*
X98453258Y-74750990D02*
X98405639Y-74703371D01*
X98405639Y-74703371D02*
X98310401Y-74655752D01*
X98310401Y-74655752D02*
X98119925Y-74655752D01*
X98119925Y-74655752D02*
X98024687Y-74703371D01*
X97548496Y-74655752D02*
X97548496Y-75322419D01*
X97548496Y-74750990D02*
X97500877Y-74703371D01*
X97500877Y-74703371D02*
X97405639Y-74655752D01*
X97405639Y-74655752D02*
X97262782Y-74655752D01*
X97262782Y-74655752D02*
X97167544Y-74703371D01*
X97167544Y-74703371D02*
X97119925Y-74798609D01*
X97119925Y-74798609D02*
X97119925Y-75322419D01*
X96262782Y-75274800D02*
X96358020Y-75322419D01*
X96358020Y-75322419D02*
X96548496Y-75322419D01*
X96548496Y-75322419D02*
X96643734Y-75274800D01*
X96643734Y-75274800D02*
X96691353Y-75179561D01*
X96691353Y-75179561D02*
X96691353Y-74798609D01*
X96691353Y-74798609D02*
X96643734Y-74703371D01*
X96643734Y-74703371D02*
X96548496Y-74655752D01*
X96548496Y-74655752D02*
X96358020Y-74655752D01*
X96358020Y-74655752D02*
X96262782Y-74703371D01*
X96262782Y-74703371D02*
X96215163Y-74798609D01*
X96215163Y-74798609D02*
X96215163Y-74893847D01*
X96215163Y-74893847D02*
X96691353Y-74989085D01*
X95358020Y-75322419D02*
X95358020Y-74322419D01*
X95358020Y-75274800D02*
X95453258Y-75322419D01*
X95453258Y-75322419D02*
X95643734Y-75322419D01*
X95643734Y-75322419D02*
X95738972Y-75274800D01*
X95738972Y-75274800D02*
X95786591Y-75227180D01*
X95786591Y-75227180D02*
X95834210Y-75131942D01*
X95834210Y-75131942D02*
X95834210Y-74846228D01*
X95834210Y-74846228D02*
X95786591Y-74750990D01*
X95786591Y-74750990D02*
X95738972Y-74703371D01*
X95738972Y-74703371D02*
X95643734Y-74655752D01*
X95643734Y-74655752D02*
X95453258Y-74655752D01*
X95453258Y-74655752D02*
X95358020Y-74703371D01*
X94119924Y-75322419D02*
X94119924Y-74322419D01*
X94119924Y-74703371D02*
X94024686Y-74655752D01*
X94024686Y-74655752D02*
X93834210Y-74655752D01*
X93834210Y-74655752D02*
X93738972Y-74703371D01*
X93738972Y-74703371D02*
X93691353Y-74750990D01*
X93691353Y-74750990D02*
X93643734Y-74846228D01*
X93643734Y-74846228D02*
X93643734Y-75131942D01*
X93643734Y-75131942D02*
X93691353Y-75227180D01*
X93691353Y-75227180D02*
X93738972Y-75274800D01*
X93738972Y-75274800D02*
X93834210Y-75322419D01*
X93834210Y-75322419D02*
X94024686Y-75322419D01*
X94024686Y-75322419D02*
X94119924Y-75274800D01*
X93310400Y-74655752D02*
X93072305Y-75322419D01*
X92834210Y-74655752D02*
X93072305Y-75322419D01*
X93072305Y-75322419D02*
X93167543Y-75560514D01*
X93167543Y-75560514D02*
X93215162Y-75608133D01*
X93215162Y-75608133D02*
X93310400Y-75655752D01*
X91691352Y-74798609D02*
X91358019Y-74798609D01*
X91215162Y-75322419D02*
X91691352Y-75322419D01*
X91691352Y-75322419D02*
X91691352Y-74322419D01*
X91691352Y-74322419D02*
X91215162Y-74322419D01*
X90786590Y-75322419D02*
X90786590Y-74655752D01*
X90786590Y-74750990D02*
X90738971Y-74703371D01*
X90738971Y-74703371D02*
X90643733Y-74655752D01*
X90643733Y-74655752D02*
X90500876Y-74655752D01*
X90500876Y-74655752D02*
X90405638Y-74703371D01*
X90405638Y-74703371D02*
X90358019Y-74798609D01*
X90358019Y-74798609D02*
X90358019Y-75322419D01*
X90358019Y-74798609D02*
X90310400Y-74703371D01*
X90310400Y-74703371D02*
X90215162Y-74655752D01*
X90215162Y-74655752D02*
X90072305Y-74655752D01*
X90072305Y-74655752D02*
X89977066Y-74703371D01*
X89977066Y-74703371D02*
X89929447Y-74798609D01*
X89929447Y-74798609D02*
X89929447Y-75322419D01*
X89453257Y-75322419D02*
X89453257Y-74655752D01*
X89453257Y-74750990D02*
X89405638Y-74703371D01*
X89405638Y-74703371D02*
X89310400Y-74655752D01*
X89310400Y-74655752D02*
X89167543Y-74655752D01*
X89167543Y-74655752D02*
X89072305Y-74703371D01*
X89072305Y-74703371D02*
X89024686Y-74798609D01*
X89024686Y-74798609D02*
X89024686Y-75322419D01*
X89024686Y-74798609D02*
X88977067Y-74703371D01*
X88977067Y-74703371D02*
X88881829Y-74655752D01*
X88881829Y-74655752D02*
X88738972Y-74655752D01*
X88738972Y-74655752D02*
X88643733Y-74703371D01*
X88643733Y-74703371D02*
X88596114Y-74798609D01*
X88596114Y-74798609D02*
X88596114Y-75322419D01*
X87691353Y-75322419D02*
X87691353Y-74798609D01*
X87691353Y-74798609D02*
X87738972Y-74703371D01*
X87738972Y-74703371D02*
X87834210Y-74655752D01*
X87834210Y-74655752D02*
X88024686Y-74655752D01*
X88024686Y-74655752D02*
X88119924Y-74703371D01*
X87691353Y-75274800D02*
X87786591Y-75322419D01*
X87786591Y-75322419D02*
X88024686Y-75322419D01*
X88024686Y-75322419D02*
X88119924Y-75274800D01*
X88119924Y-75274800D02*
X88167543Y-75179561D01*
X88167543Y-75179561D02*
X88167543Y-75084323D01*
X88167543Y-75084323D02*
X88119924Y-74989085D01*
X88119924Y-74989085D02*
X88024686Y-74941466D01*
X88024686Y-74941466D02*
X87786591Y-74941466D01*
X87786591Y-74941466D02*
X87691353Y-74893847D01*
X87215162Y-74655752D02*
X87215162Y-75322419D01*
X87215162Y-74750990D02*
X87167543Y-74703371D01*
X87167543Y-74703371D02*
X87072305Y-74655752D01*
X87072305Y-74655752D02*
X86929448Y-74655752D01*
X86929448Y-74655752D02*
X86834210Y-74703371D01*
X86834210Y-74703371D02*
X86786591Y-74798609D01*
X86786591Y-74798609D02*
X86786591Y-75322419D01*
X85881829Y-74655752D02*
X85881829Y-75322419D01*
X86310400Y-74655752D02*
X86310400Y-75179561D01*
X86310400Y-75179561D02*
X86262781Y-75274800D01*
X86262781Y-75274800D02*
X86167543Y-75322419D01*
X86167543Y-75322419D02*
X86024686Y-75322419D01*
X86024686Y-75322419D02*
X85929448Y-75274800D01*
X85929448Y-75274800D02*
X85881829Y-75227180D01*
X85024686Y-75274800D02*
X85119924Y-75322419D01*
X85119924Y-75322419D02*
X85310400Y-75322419D01*
X85310400Y-75322419D02*
X85405638Y-75274800D01*
X85405638Y-75274800D02*
X85453257Y-75179561D01*
X85453257Y-75179561D02*
X85453257Y-74798609D01*
X85453257Y-74798609D02*
X85405638Y-74703371D01*
X85405638Y-74703371D02*
X85310400Y-74655752D01*
X85310400Y-74655752D02*
X85119924Y-74655752D01*
X85119924Y-74655752D02*
X85024686Y-74703371D01*
X85024686Y-74703371D02*
X84977067Y-74798609D01*
X84977067Y-74798609D02*
X84977067Y-74893847D01*
X84977067Y-74893847D02*
X85453257Y-74989085D01*
X84405638Y-75322419D02*
X84500876Y-75274800D01*
X84500876Y-75274800D02*
X84548495Y-75179561D01*
X84548495Y-75179561D02*
X84548495Y-74322419D01*
X83405637Y-74322419D02*
X83072304Y-75322419D01*
X83072304Y-75322419D02*
X82738971Y-74322419D01*
X82405637Y-75322419D02*
X82405637Y-74322419D01*
X81834209Y-75322419D02*
X82262780Y-74750990D01*
X81834209Y-74322419D02*
X82405637Y-74893847D01*
X81453256Y-74417657D02*
X81405637Y-74370038D01*
X81405637Y-74370038D02*
X81310399Y-74322419D01*
X81310399Y-74322419D02*
X81072304Y-74322419D01*
X81072304Y-74322419D02*
X80977066Y-74370038D01*
X80977066Y-74370038D02*
X80929447Y-74417657D01*
X80929447Y-74417657D02*
X80881828Y-74512895D01*
X80881828Y-74512895D02*
X80881828Y-74608133D01*
X80881828Y-74608133D02*
X80929447Y-74750990D01*
X80929447Y-74750990D02*
X81500875Y-75322419D01*
X81500875Y-75322419D02*
X80881828Y-75322419D01*
X80453256Y-74798609D02*
X80119923Y-74798609D01*
X79977066Y-75322419D02*
X80453256Y-75322419D01*
X80453256Y-75322419D02*
X80453256Y-74322419D01*
X80453256Y-74322419D02*
X79977066Y-74322419D01*
X79548494Y-75322419D02*
X79548494Y-74322419D01*
X79548494Y-74322419D02*
X79215161Y-75036704D01*
X79215161Y-75036704D02*
X78881828Y-74322419D01*
X78881828Y-74322419D02*
X78881828Y-75322419D01*
X78405637Y-75322419D02*
X78405637Y-74322419D01*
X78405637Y-74322419D02*
X78072304Y-75036704D01*
X78072304Y-75036704D02*
X77738971Y-74322419D01*
X77738971Y-74322419D02*
X77738971Y-75322419D01*
X76500875Y-75322419D02*
X76500875Y-74655752D01*
X76500875Y-74322419D02*
X76548494Y-74370038D01*
X76548494Y-74370038D02*
X76500875Y-74417657D01*
X76500875Y-74417657D02*
X76453256Y-74370038D01*
X76453256Y-74370038D02*
X76500875Y-74322419D01*
X76500875Y-74322419D02*
X76500875Y-74417657D01*
X76024685Y-74655752D02*
X76024685Y-75322419D01*
X76024685Y-74750990D02*
X75977066Y-74703371D01*
X75977066Y-74703371D02*
X75881828Y-74655752D01*
X75881828Y-74655752D02*
X75738971Y-74655752D01*
X75738971Y-74655752D02*
X75643733Y-74703371D01*
X75643733Y-74703371D02*
X75596114Y-74798609D01*
X75596114Y-74798609D02*
X75596114Y-75322419D01*
X74405637Y-75036704D02*
X73929447Y-75036704D01*
X74500875Y-75322419D02*
X74167542Y-74322419D01*
X74167542Y-74322419D02*
X73834209Y-75322419D01*
X73072304Y-74655752D02*
X73072304Y-75322419D01*
X73500875Y-74655752D02*
X73500875Y-75179561D01*
X73500875Y-75179561D02*
X73453256Y-75274800D01*
X73453256Y-75274800D02*
X73358018Y-75322419D01*
X73358018Y-75322419D02*
X73215161Y-75322419D01*
X73215161Y-75322419D02*
X73119923Y-75274800D01*
X73119923Y-75274800D02*
X73072304Y-75227180D01*
X72643732Y-75274800D02*
X72548494Y-75322419D01*
X72548494Y-75322419D02*
X72358018Y-75322419D01*
X72358018Y-75322419D02*
X72262780Y-75274800D01*
X72262780Y-75274800D02*
X72215161Y-75179561D01*
X72215161Y-75179561D02*
X72215161Y-75131942D01*
X72215161Y-75131942D02*
X72262780Y-75036704D01*
X72262780Y-75036704D02*
X72358018Y-74989085D01*
X72358018Y-74989085D02*
X72500875Y-74989085D01*
X72500875Y-74989085D02*
X72596113Y-74941466D01*
X72596113Y-74941466D02*
X72643732Y-74846228D01*
X72643732Y-74846228D02*
X72643732Y-74798609D01*
X72643732Y-74798609D02*
X72596113Y-74703371D01*
X72596113Y-74703371D02*
X72500875Y-74655752D01*
X72500875Y-74655752D02*
X72358018Y-74655752D01*
X72358018Y-74655752D02*
X72262780Y-74703371D01*
X71929446Y-74655752D02*
X71548494Y-74655752D01*
X71786589Y-74322419D02*
X71786589Y-75179561D01*
X71786589Y-75179561D02*
X71738970Y-75274800D01*
X71738970Y-75274800D02*
X71643732Y-75322419D01*
X71643732Y-75322419D02*
X71548494Y-75322419D01*
X71215160Y-75322419D02*
X71215160Y-74655752D01*
X71215160Y-74846228D02*
X71167541Y-74750990D01*
X71167541Y-74750990D02*
X71119922Y-74703371D01*
X71119922Y-74703371D02*
X71024684Y-74655752D01*
X71024684Y-74655752D02*
X70929446Y-74655752D01*
X70167541Y-75322419D02*
X70167541Y-74798609D01*
X70167541Y-74798609D02*
X70215160Y-74703371D01*
X70215160Y-74703371D02*
X70310398Y-74655752D01*
X70310398Y-74655752D02*
X70500874Y-74655752D01*
X70500874Y-74655752D02*
X70596112Y-74703371D01*
X70167541Y-75274800D02*
X70262779Y-75322419D01*
X70262779Y-75322419D02*
X70500874Y-75322419D01*
X70500874Y-75322419D02*
X70596112Y-75274800D01*
X70596112Y-75274800D02*
X70643731Y-75179561D01*
X70643731Y-75179561D02*
X70643731Y-75084323D01*
X70643731Y-75084323D02*
X70596112Y-74989085D01*
X70596112Y-74989085D02*
X70500874Y-74941466D01*
X70500874Y-74941466D02*
X70262779Y-74941466D01*
X70262779Y-74941466D02*
X70167541Y-74893847D01*
X69548493Y-75322419D02*
X69643731Y-75274800D01*
X69643731Y-75274800D02*
X69691350Y-75179561D01*
X69691350Y-75179561D02*
X69691350Y-74322419D01*
X69167540Y-75322419D02*
X69167540Y-74655752D01*
X69167540Y-74322419D02*
X69215159Y-74370038D01*
X69215159Y-74370038D02*
X69167540Y-74417657D01*
X69167540Y-74417657D02*
X69119921Y-74370038D01*
X69119921Y-74370038D02*
X69167540Y-74322419D01*
X69167540Y-74322419D02*
X69167540Y-74417657D01*
X68262779Y-75322419D02*
X68262779Y-74798609D01*
X68262779Y-74798609D02*
X68310398Y-74703371D01*
X68310398Y-74703371D02*
X68405636Y-74655752D01*
X68405636Y-74655752D02*
X68596112Y-74655752D01*
X68596112Y-74655752D02*
X68691350Y-74703371D01*
X68262779Y-75274800D02*
X68358017Y-75322419D01*
X68358017Y-75322419D02*
X68596112Y-75322419D01*
X68596112Y-75322419D02*
X68691350Y-75274800D01*
X68691350Y-75274800D02*
X68738969Y-75179561D01*
X68738969Y-75179561D02*
X68738969Y-75084323D01*
X68738969Y-75084323D02*
X68691350Y-74989085D01*
X68691350Y-74989085D02*
X68596112Y-74941466D01*
X68596112Y-74941466D02*
X68358017Y-74941466D01*
X68358017Y-74941466D02*
X68262779Y-74893847D01*
D11*
%TO.C,REF\u002A\u002A*%
X79716895Y-71890666D02*
X79751140Y-71911566D01*
X79786622Y-71940297D01*
X79786622Y-72802295D01*
X79751140Y-72831026D01*
X79709388Y-72854291D01*
X79661725Y-72855404D01*
X79619869Y-72828120D01*
X79614708Y-72821910D01*
X79607431Y-72809305D01*
X79601830Y-72791090D01*
X79597687Y-72763771D01*
X79594785Y-72723857D01*
X79592907Y-72667854D01*
X79591834Y-72592271D01*
X79591350Y-72493614D01*
X79591237Y-72368390D01*
X79591237Y-71940297D01*
X79626719Y-71911566D01*
X79658289Y-71891901D01*
X79688930Y-71882834D01*
X79716895Y-71890666D01*
G36*
X79716895Y-71890666D02*
G01*
X79751140Y-71911566D01*
X79786622Y-71940297D01*
X79786622Y-72802295D01*
X79751140Y-72831026D01*
X79709388Y-72854291D01*
X79661725Y-72855404D01*
X79619869Y-72828120D01*
X79614708Y-72821910D01*
X79607431Y-72809305D01*
X79601830Y-72791090D01*
X79597687Y-72763771D01*
X79594785Y-72723857D01*
X79592907Y-72667854D01*
X79591834Y-72592271D01*
X79591350Y-72493614D01*
X79591237Y-72368390D01*
X79591237Y-71940297D01*
X79626719Y-71911566D01*
X79658289Y-71891901D01*
X79688930Y-71882834D01*
X79716895Y-71890666D01*
G37*
X89210472Y-71888688D02*
X89255944Y-71919725D01*
X89292835Y-71956616D01*
X89292835Y-72373402D01*
X89292780Y-72485276D01*
X89292436Y-72584092D01*
X89291543Y-72659650D01*
X89289842Y-72715528D01*
X89287074Y-72755306D01*
X89282981Y-72782560D01*
X89277302Y-72800871D01*
X89269781Y-72813815D01*
X89260156Y-72824972D01*
X89218267Y-72853549D01*
X89171449Y-72855900D01*
X89127510Y-72829698D01*
X89120444Y-72821885D01*
X89113189Y-72809791D01*
X89107643Y-72792029D01*
X89103576Y-72765114D01*
X89100762Y-72725562D01*
X89098970Y-72669889D01*
X89097974Y-72594609D01*
X89097543Y-72496240D01*
X89097450Y-72371296D01*
X89097503Y-72270564D01*
X89097842Y-72166838D01*
X89098700Y-72086943D01*
X89100303Y-72027395D01*
X89102881Y-71984708D01*
X89106662Y-71955399D01*
X89111875Y-71935983D01*
X89118748Y-71922976D01*
X89127510Y-71912894D01*
X89166363Y-71887569D01*
X89210472Y-71888688D01*
G36*
X89210472Y-71888688D02*
G01*
X89255944Y-71919725D01*
X89292835Y-71956616D01*
X89292835Y-72373402D01*
X89292780Y-72485276D01*
X89292436Y-72584092D01*
X89291543Y-72659650D01*
X89289842Y-72715528D01*
X89287074Y-72755306D01*
X89282981Y-72782560D01*
X89277302Y-72800871D01*
X89269781Y-72813815D01*
X89260156Y-72824972D01*
X89218267Y-72853549D01*
X89171449Y-72855900D01*
X89127510Y-72829698D01*
X89120444Y-72821885D01*
X89113189Y-72809791D01*
X89107643Y-72792029D01*
X89103576Y-72765114D01*
X89100762Y-72725562D01*
X89098970Y-72669889D01*
X89097974Y-72594609D01*
X89097543Y-72496240D01*
X89097450Y-72371296D01*
X89097503Y-72270564D01*
X89097842Y-72166838D01*
X89098700Y-72086943D01*
X89100303Y-72027395D01*
X89102881Y-71984708D01*
X89106662Y-71955399D01*
X89111875Y-71935983D01*
X89118748Y-71922976D01*
X89127510Y-71912894D01*
X89166363Y-71887569D01*
X89210472Y-71888688D01*
G37*
X89296230Y-63347263D02*
X89435672Y-63381429D01*
X89567848Y-63442749D01*
X89688592Y-63531234D01*
X89793739Y-63646894D01*
X89879123Y-63789737D01*
X89902014Y-63840057D01*
X89920559Y-63891060D01*
X89930965Y-63942048D01*
X89935526Y-64005115D01*
X89936536Y-64092353D01*
X89935925Y-64164963D01*
X89932243Y-64231694D01*
X89923215Y-64283758D01*
X89906587Y-64333110D01*
X89880105Y-64391710D01*
X89872445Y-64407326D01*
X89781899Y-64550317D01*
X89668018Y-64667967D01*
X89534034Y-64757513D01*
X89383179Y-64816196D01*
X89305774Y-64832571D01*
X89148742Y-64840234D01*
X88996646Y-64815440D01*
X88853947Y-64760730D01*
X88725105Y-64678647D01*
X88614579Y-64571733D01*
X88526829Y-64442531D01*
X88466316Y-64293582D01*
X88444176Y-64171689D01*
X88442181Y-64037175D01*
X88460188Y-63906332D01*
X88497339Y-63792996D01*
X88540265Y-63711967D01*
X88635826Y-63583411D01*
X88749114Y-63481951D01*
X88875964Y-63407596D01*
X89012211Y-63360357D01*
X89153688Y-63340242D01*
X89296230Y-63347263D01*
G36*
X89296230Y-63347263D02*
G01*
X89435672Y-63381429D01*
X89567848Y-63442749D01*
X89688592Y-63531234D01*
X89793739Y-63646894D01*
X89879123Y-63789737D01*
X89902014Y-63840057D01*
X89920559Y-63891060D01*
X89930965Y-63942048D01*
X89935526Y-64005115D01*
X89936536Y-64092353D01*
X89935925Y-64164963D01*
X89932243Y-64231694D01*
X89923215Y-64283758D01*
X89906587Y-64333110D01*
X89880105Y-64391710D01*
X89872445Y-64407326D01*
X89781899Y-64550317D01*
X89668018Y-64667967D01*
X89534034Y-64757513D01*
X89383179Y-64816196D01*
X89305774Y-64832571D01*
X89148742Y-64840234D01*
X88996646Y-64815440D01*
X88853947Y-64760730D01*
X88725105Y-64678647D01*
X88614579Y-64571733D01*
X88526829Y-64442531D01*
X88466316Y-64293582D01*
X88444176Y-64171689D01*
X88442181Y-64037175D01*
X88460188Y-63906332D01*
X88497339Y-63792996D01*
X88540265Y-63711967D01*
X88635826Y-63583411D01*
X88749114Y-63481951D01*
X88875964Y-63407596D01*
X89012211Y-63360357D01*
X89153688Y-63340242D01*
X89296230Y-63347263D01*
G37*
X78785424Y-71882836D02*
X78910736Y-71882956D01*
X79009941Y-71883408D01*
X79086371Y-71884396D01*
X79143352Y-71886121D01*
X79184216Y-71888785D01*
X79212290Y-71892593D01*
X79230905Y-71897745D01*
X79243389Y-71904444D01*
X79253072Y-71912894D01*
X79278109Y-71956453D01*
X79280035Y-72006481D01*
X79258257Y-72050734D01*
X79256446Y-72052669D01*
X79241531Y-72063800D01*
X79218761Y-72071195D01*
X79182589Y-72075581D01*
X79127466Y-72077680D01*
X79047843Y-72078219D01*
X78862302Y-72078219D01*
X78862302Y-72429387D01*
X78862202Y-72530342D01*
X78861659Y-72619098D01*
X78860351Y-72685379D01*
X78857960Y-72733197D01*
X78854164Y-72766570D01*
X78848645Y-72789510D01*
X78841081Y-72806034D01*
X78831152Y-72820157D01*
X78828103Y-72823893D01*
X78786593Y-72854038D01*
X78740822Y-72856120D01*
X78696977Y-72829698D01*
X78687686Y-72818947D01*
X78680401Y-72804836D01*
X78675049Y-72783743D01*
X78671333Y-72751822D01*
X78668957Y-72705226D01*
X78667627Y-72640109D01*
X78667046Y-72552625D01*
X78666918Y-72438929D01*
X78666918Y-72078219D01*
X78472624Y-72078219D01*
X78457846Y-72078218D01*
X78382601Y-72077918D01*
X78330885Y-72076401D01*
X78297078Y-72072674D01*
X78275561Y-72065742D01*
X78260714Y-72054610D01*
X78246917Y-72038284D01*
X78225819Y-71997427D01*
X78229949Y-71952453D01*
X78264090Y-71909136D01*
X78270668Y-71904187D01*
X78284262Y-71897749D01*
X78304799Y-71892738D01*
X78335582Y-71888981D01*
X78379913Y-71886300D01*
X78441094Y-71884520D01*
X78522428Y-71883467D01*
X78627216Y-71882963D01*
X78758760Y-71882834D01*
X78785424Y-71882836D01*
G36*
X78785424Y-71882836D02*
G01*
X78910736Y-71882956D01*
X79009941Y-71883408D01*
X79086371Y-71884396D01*
X79143352Y-71886121D01*
X79184216Y-71888785D01*
X79212290Y-71892593D01*
X79230905Y-71897745D01*
X79243389Y-71904444D01*
X79253072Y-71912894D01*
X79278109Y-71956453D01*
X79280035Y-72006481D01*
X79258257Y-72050734D01*
X79256446Y-72052669D01*
X79241531Y-72063800D01*
X79218761Y-72071195D01*
X79182589Y-72075581D01*
X79127466Y-72077680D01*
X79047843Y-72078219D01*
X78862302Y-72078219D01*
X78862302Y-72429387D01*
X78862202Y-72530342D01*
X78861659Y-72619098D01*
X78860351Y-72685379D01*
X78857960Y-72733197D01*
X78854164Y-72766570D01*
X78848645Y-72789510D01*
X78841081Y-72806034D01*
X78831152Y-72820157D01*
X78828103Y-72823893D01*
X78786593Y-72854038D01*
X78740822Y-72856120D01*
X78696977Y-72829698D01*
X78687686Y-72818947D01*
X78680401Y-72804836D01*
X78675049Y-72783743D01*
X78671333Y-72751822D01*
X78668957Y-72705226D01*
X78667627Y-72640109D01*
X78667046Y-72552625D01*
X78666918Y-72438929D01*
X78666918Y-72078219D01*
X78472624Y-72078219D01*
X78457846Y-72078218D01*
X78382601Y-72077918D01*
X78330885Y-72076401D01*
X78297078Y-72072674D01*
X78275561Y-72065742D01*
X78260714Y-72054610D01*
X78246917Y-72038284D01*
X78225819Y-71997427D01*
X78229949Y-71952453D01*
X78264090Y-71909136D01*
X78270668Y-71904187D01*
X78284262Y-71897749D01*
X78304799Y-71892738D01*
X78335582Y-71888981D01*
X78379913Y-71886300D01*
X78441094Y-71884520D01*
X78522428Y-71883467D01*
X78627216Y-71882963D01*
X78758760Y-71882834D01*
X78785424Y-71882836D01*
G37*
X77885379Y-71912894D02*
X77892878Y-71921135D01*
X77899655Y-71932060D01*
X77905095Y-71947739D01*
X77909327Y-71970983D01*
X77912477Y-72004605D01*
X77914675Y-72051416D01*
X77916048Y-72114227D01*
X77916725Y-72195851D01*
X77916833Y-72299098D01*
X77916501Y-72426781D01*
X77915857Y-72581710D01*
X77915765Y-72600582D01*
X77914985Y-72682810D01*
X77913224Y-72740968D01*
X77909835Y-72780084D01*
X77904170Y-72805185D01*
X77895581Y-72821300D01*
X77883420Y-72833456D01*
X77838876Y-72856644D01*
X77792347Y-72852781D01*
X77751204Y-72820157D01*
X77739209Y-72802579D01*
X77729289Y-72777901D01*
X77723474Y-72743248D01*
X77720738Y-72691929D01*
X77720054Y-72617257D01*
X77720054Y-72453959D01*
X77058752Y-72453959D01*
X77058752Y-72633462D01*
X77058655Y-72681112D01*
X77057640Y-72742794D01*
X77054742Y-72783446D01*
X77049021Y-72808782D01*
X77039537Y-72824516D01*
X77025349Y-72836361D01*
X76982411Y-72856424D01*
X76935432Y-72852873D01*
X76894518Y-72820157D01*
X76888319Y-72811829D01*
X76880417Y-72797818D01*
X76874384Y-72779272D01*
X76869970Y-72752547D01*
X76866922Y-72713994D01*
X76864990Y-72659968D01*
X76863921Y-72586822D01*
X76863464Y-72490910D01*
X76863368Y-72368586D01*
X76863368Y-71956616D01*
X76900258Y-71919725D01*
X76942034Y-71890112D01*
X76986274Y-71886531D01*
X77028693Y-71912894D01*
X77039724Y-71925902D01*
X77049592Y-71947060D01*
X77055367Y-71978969D01*
X77058077Y-72028060D01*
X77058752Y-72100763D01*
X77058752Y-72258574D01*
X77720054Y-72258574D01*
X77720054Y-72104784D01*
X77720637Y-72035957D01*
X77723252Y-71989992D01*
X77729264Y-71959935D01*
X77740040Y-71938831D01*
X77756945Y-71919725D01*
X77798721Y-71890112D01*
X77842960Y-71886531D01*
X77885379Y-71912894D01*
G36*
X77885379Y-71912894D02*
G01*
X77892878Y-71921135D01*
X77899655Y-71932060D01*
X77905095Y-71947739D01*
X77909327Y-71970983D01*
X77912477Y-72004605D01*
X77914675Y-72051416D01*
X77916048Y-72114227D01*
X77916725Y-72195851D01*
X77916833Y-72299098D01*
X77916501Y-72426781D01*
X77915857Y-72581710D01*
X77915765Y-72600582D01*
X77914985Y-72682810D01*
X77913224Y-72740968D01*
X77909835Y-72780084D01*
X77904170Y-72805185D01*
X77895581Y-72821300D01*
X77883420Y-72833456D01*
X77838876Y-72856644D01*
X77792347Y-72852781D01*
X77751204Y-72820157D01*
X77739209Y-72802579D01*
X77729289Y-72777901D01*
X77723474Y-72743248D01*
X77720738Y-72691929D01*
X77720054Y-72617257D01*
X77720054Y-72453959D01*
X77058752Y-72453959D01*
X77058752Y-72633462D01*
X77058655Y-72681112D01*
X77057640Y-72742794D01*
X77054742Y-72783446D01*
X77049021Y-72808782D01*
X77039537Y-72824516D01*
X77025349Y-72836361D01*
X76982411Y-72856424D01*
X76935432Y-72852873D01*
X76894518Y-72820157D01*
X76888319Y-72811829D01*
X76880417Y-72797818D01*
X76874384Y-72779272D01*
X76869970Y-72752547D01*
X76866922Y-72713994D01*
X76864990Y-72659968D01*
X76863921Y-72586822D01*
X76863464Y-72490910D01*
X76863368Y-72368586D01*
X76863368Y-71956616D01*
X76900258Y-71919725D01*
X76942034Y-71890112D01*
X76986274Y-71886531D01*
X77028693Y-71912894D01*
X77039724Y-71925902D01*
X77049592Y-71947060D01*
X77055367Y-71978969D01*
X77058077Y-72028060D01*
X77058752Y-72100763D01*
X77058752Y-72258574D01*
X77720054Y-72258574D01*
X77720054Y-72104784D01*
X77720637Y-72035957D01*
X77723252Y-71989992D01*
X77729264Y-71959935D01*
X77740040Y-71938831D01*
X77756945Y-71919725D01*
X77798721Y-71890112D01*
X77842960Y-71886531D01*
X77885379Y-71912894D01*
G37*
X84149964Y-72696735D02*
X84147342Y-72740374D01*
X84143443Y-72770890D01*
X84138015Y-72791928D01*
X84130807Y-72807135D01*
X84121567Y-72820157D01*
X84090417Y-72859758D01*
X83869821Y-72858967D01*
X83823495Y-72858570D01*
X83692378Y-72854003D01*
X83584589Y-72843775D01*
X83495262Y-72827056D01*
X83419530Y-72803019D01*
X83352527Y-72770833D01*
X83348055Y-72768281D01*
X83271087Y-72719396D01*
X83214698Y-72670181D01*
X83171008Y-72612286D01*
X83132132Y-72537361D01*
X83126432Y-72524559D01*
X83096373Y-72440436D01*
X83088738Y-72379786D01*
X83287437Y-72379786D01*
X83294910Y-72412708D01*
X83302533Y-72433848D01*
X83346375Y-72513607D01*
X83409399Y-72574521D01*
X83494294Y-72618636D01*
X83603744Y-72647999D01*
X83607463Y-72648667D01*
X83669086Y-72656605D01*
X83744170Y-72662234D01*
X83817311Y-72664373D01*
X83942302Y-72664373D01*
X83942302Y-72078219D01*
X83825823Y-72078816D01*
X83736729Y-72082112D01*
X83613714Y-72097092D01*
X83508117Y-72123106D01*
X83425606Y-72159018D01*
X83384414Y-72186615D01*
X83346976Y-72226244D01*
X83315903Y-72282731D01*
X83306414Y-72303988D01*
X83290672Y-72347260D01*
X83287437Y-72379786D01*
X83088738Y-72379786D01*
X83087092Y-72366708D01*
X83098544Y-72293448D01*
X83130685Y-72210728D01*
X83131744Y-72208474D01*
X83185600Y-72116048D01*
X83253079Y-72040695D01*
X83336590Y-71981359D01*
X83438540Y-71936987D01*
X83561338Y-71906525D01*
X83707392Y-71888917D01*
X83879110Y-71883111D01*
X83883865Y-71883105D01*
X83963774Y-71883291D01*
X84019599Y-71884671D01*
X84057028Y-71888125D01*
X84081750Y-71894532D01*
X84099453Y-71904772D01*
X84115826Y-71919725D01*
X84152717Y-71956616D01*
X84152717Y-72368586D01*
X84152683Y-72450605D01*
X84152383Y-72555496D01*
X84151561Y-72636324D01*
X84150819Y-72664373D01*
X84149964Y-72696735D01*
G36*
X84149964Y-72696735D02*
G01*
X84147342Y-72740374D01*
X84143443Y-72770890D01*
X84138015Y-72791928D01*
X84130807Y-72807135D01*
X84121567Y-72820157D01*
X84090417Y-72859758D01*
X83869821Y-72858967D01*
X83823495Y-72858570D01*
X83692378Y-72854003D01*
X83584589Y-72843775D01*
X83495262Y-72827056D01*
X83419530Y-72803019D01*
X83352527Y-72770833D01*
X83348055Y-72768281D01*
X83271087Y-72719396D01*
X83214698Y-72670181D01*
X83171008Y-72612286D01*
X83132132Y-72537361D01*
X83126432Y-72524559D01*
X83096373Y-72440436D01*
X83088738Y-72379786D01*
X83287437Y-72379786D01*
X83294910Y-72412708D01*
X83302533Y-72433848D01*
X83346375Y-72513607D01*
X83409399Y-72574521D01*
X83494294Y-72618636D01*
X83603744Y-72647999D01*
X83607463Y-72648667D01*
X83669086Y-72656605D01*
X83744170Y-72662234D01*
X83817311Y-72664373D01*
X83942302Y-72664373D01*
X83942302Y-72078219D01*
X83825823Y-72078816D01*
X83736729Y-72082112D01*
X83613714Y-72097092D01*
X83508117Y-72123106D01*
X83425606Y-72159018D01*
X83384414Y-72186615D01*
X83346976Y-72226244D01*
X83315903Y-72282731D01*
X83306414Y-72303988D01*
X83290672Y-72347260D01*
X83287437Y-72379786D01*
X83088738Y-72379786D01*
X83087092Y-72366708D01*
X83098544Y-72293448D01*
X83130685Y-72210728D01*
X83131744Y-72208474D01*
X83185600Y-72116048D01*
X83253079Y-72040695D01*
X83336590Y-71981359D01*
X83438540Y-71936987D01*
X83561338Y-71906525D01*
X83707392Y-71888917D01*
X83879110Y-71883111D01*
X83883865Y-71883105D01*
X83963774Y-71883291D01*
X84019599Y-71884671D01*
X84057028Y-71888125D01*
X84081750Y-71894532D01*
X84099453Y-71904772D01*
X84115826Y-71919725D01*
X84152717Y-71956616D01*
X84152717Y-72368586D01*
X84152683Y-72450605D01*
X84152383Y-72555496D01*
X84151561Y-72636324D01*
X84150819Y-72664373D01*
X84149964Y-72696735D01*
G37*
X93591555Y-72129616D02*
X93591627Y-72236943D01*
X93591296Y-72371296D01*
X93591244Y-72472029D01*
X93590904Y-72575754D01*
X93590047Y-72655649D01*
X93588444Y-72715197D01*
X93585866Y-72757884D01*
X93582085Y-72787193D01*
X93576872Y-72806609D01*
X93569999Y-72819616D01*
X93561237Y-72829698D01*
X93551961Y-72837998D01*
X93534656Y-72847717D01*
X93509163Y-72854046D01*
X93470016Y-72857690D01*
X93411748Y-72859359D01*
X93328893Y-72859758D01*
X93263727Y-72859258D01*
X93121459Y-72853362D01*
X93002664Y-72839932D01*
X92903081Y-72817847D01*
X92818445Y-72785987D01*
X92744493Y-72743232D01*
X92676960Y-72688462D01*
X92668988Y-72680670D01*
X92619904Y-72616087D01*
X92578500Y-72535129D01*
X92549898Y-72449598D01*
X92542867Y-72398017D01*
X92738867Y-72398017D01*
X92763207Y-72465830D01*
X92802709Y-72526962D01*
X92864879Y-72583424D01*
X92946610Y-72623102D01*
X93051983Y-72648579D01*
X93053967Y-72648896D01*
X93119165Y-72656607D01*
X93197308Y-72662120D01*
X93271918Y-72664259D01*
X93395912Y-72664373D01*
X93395912Y-72078219D01*
X93294462Y-72078200D01*
X93290431Y-72078212D01*
X93222372Y-72080828D01*
X93142354Y-72087118D01*
X93066854Y-72095810D01*
X93000342Y-72108187D01*
X92900820Y-72143159D01*
X92824255Y-72195480D01*
X92769002Y-72266089D01*
X92740754Y-72334343D01*
X92738867Y-72398017D01*
X92542867Y-72398017D01*
X92539225Y-72371296D01*
X92540928Y-72343049D01*
X92557320Y-72266608D01*
X92587314Y-72186845D01*
X92626230Y-72114886D01*
X92669388Y-72061857D01*
X92695405Y-72039193D01*
X92768246Y-71987021D01*
X92848531Y-71946907D01*
X92940656Y-71917670D01*
X93049018Y-71898123D01*
X93178012Y-71887084D01*
X93332036Y-71883368D01*
X93384601Y-71882833D01*
X93445459Y-71882283D01*
X93493122Y-71884685D01*
X93529190Y-71893049D01*
X93555261Y-71910384D01*
X93572934Y-71939699D01*
X93583808Y-71984003D01*
X93589483Y-72046305D01*
X93590277Y-72078219D01*
X93591555Y-72129616D01*
G36*
X93591555Y-72129616D02*
G01*
X93591627Y-72236943D01*
X93591296Y-72371296D01*
X93591244Y-72472029D01*
X93590904Y-72575754D01*
X93590047Y-72655649D01*
X93588444Y-72715197D01*
X93585866Y-72757884D01*
X93582085Y-72787193D01*
X93576872Y-72806609D01*
X93569999Y-72819616D01*
X93561237Y-72829698D01*
X93551961Y-72837998D01*
X93534656Y-72847717D01*
X93509163Y-72854046D01*
X93470016Y-72857690D01*
X93411748Y-72859359D01*
X93328893Y-72859758D01*
X93263727Y-72859258D01*
X93121459Y-72853362D01*
X93002664Y-72839932D01*
X92903081Y-72817847D01*
X92818445Y-72785987D01*
X92744493Y-72743232D01*
X92676960Y-72688462D01*
X92668988Y-72680670D01*
X92619904Y-72616087D01*
X92578500Y-72535129D01*
X92549898Y-72449598D01*
X92542867Y-72398017D01*
X92738867Y-72398017D01*
X92763207Y-72465830D01*
X92802709Y-72526962D01*
X92864879Y-72583424D01*
X92946610Y-72623102D01*
X93051983Y-72648579D01*
X93053967Y-72648896D01*
X93119165Y-72656607D01*
X93197308Y-72662120D01*
X93271918Y-72664259D01*
X93395912Y-72664373D01*
X93395912Y-72078219D01*
X93294462Y-72078200D01*
X93290431Y-72078212D01*
X93222372Y-72080828D01*
X93142354Y-72087118D01*
X93066854Y-72095810D01*
X93000342Y-72108187D01*
X92900820Y-72143159D01*
X92824255Y-72195480D01*
X92769002Y-72266089D01*
X92740754Y-72334343D01*
X92738867Y-72398017D01*
X92542867Y-72398017D01*
X92539225Y-72371296D01*
X92540928Y-72343049D01*
X92557320Y-72266608D01*
X92587314Y-72186845D01*
X92626230Y-72114886D01*
X92669388Y-72061857D01*
X92695405Y-72039193D01*
X92768246Y-71987021D01*
X92848531Y-71946907D01*
X92940656Y-71917670D01*
X93049018Y-71898123D01*
X93178012Y-71887084D01*
X93332036Y-71883368D01*
X93384601Y-71882833D01*
X93445459Y-71882283D01*
X93493122Y-71884685D01*
X93529190Y-71893049D01*
X93555261Y-71910384D01*
X93572934Y-71939699D01*
X93583808Y-71984003D01*
X93589483Y-72046305D01*
X93590277Y-72078219D01*
X93591555Y-72129616D01*
G37*
X87008077Y-71881270D02*
X87023265Y-71889441D01*
X87037309Y-71903636D01*
X87052336Y-71922435D01*
X87058264Y-71930372D01*
X87066250Y-71944344D01*
X87072347Y-71962751D01*
X87076809Y-71989251D01*
X87079890Y-72027507D01*
X87081844Y-72081179D01*
X87082926Y-72153927D01*
X87083388Y-72249412D01*
X87083486Y-72371296D01*
X87083455Y-72449221D01*
X87083165Y-72554515D01*
X87082354Y-72635651D01*
X87080768Y-72696290D01*
X87078155Y-72740093D01*
X87074259Y-72770720D01*
X87068826Y-72791833D01*
X87061603Y-72807091D01*
X87052336Y-72820157D01*
X87011824Y-72852633D01*
X86965303Y-72856466D01*
X86916068Y-72831050D01*
X86910498Y-72826424D01*
X86899613Y-72815070D01*
X86891544Y-72799692D01*
X86885709Y-72775950D01*
X86881526Y-72739508D01*
X86878414Y-72686028D01*
X86875790Y-72611171D01*
X86873072Y-72510601D01*
X86865557Y-72218859D01*
X86512362Y-72539238D01*
X86414062Y-72628142D01*
X86327284Y-72705515D01*
X86257795Y-72765370D01*
X86203110Y-72809201D01*
X86160747Y-72838501D01*
X86128225Y-72854764D01*
X86103059Y-72859484D01*
X86082768Y-72854155D01*
X86064869Y-72840270D01*
X86046880Y-72819323D01*
X86038565Y-72808029D01*
X86031067Y-72793947D01*
X86025461Y-72775097D01*
X86021531Y-72747867D01*
X86019061Y-72708645D01*
X86017837Y-72653818D01*
X86017644Y-72579772D01*
X86018266Y-72482895D01*
X86019487Y-72359574D01*
X86023900Y-71940259D01*
X86059382Y-71911547D01*
X86094084Y-71889990D01*
X86137830Y-71886301D01*
X86183803Y-71911534D01*
X86189544Y-71916306D01*
X86200371Y-71927662D01*
X86208398Y-71943095D01*
X86214203Y-71966934D01*
X86218367Y-72003508D01*
X86221469Y-72057146D01*
X86224086Y-72132178D01*
X86226799Y-72232932D01*
X86234314Y-72525631D01*
X86474788Y-72307562D01*
X86590267Y-72202872D01*
X86691146Y-72111816D01*
X86773872Y-72038126D01*
X86840571Y-71980384D01*
X86893369Y-71937173D01*
X86934392Y-71907073D01*
X86965767Y-71888668D01*
X86989620Y-71880540D01*
X87008077Y-71881270D01*
G36*
X87008077Y-71881270D02*
G01*
X87023265Y-71889441D01*
X87037309Y-71903636D01*
X87052336Y-71922435D01*
X87058264Y-71930372D01*
X87066250Y-71944344D01*
X87072347Y-71962751D01*
X87076809Y-71989251D01*
X87079890Y-72027507D01*
X87081844Y-72081179D01*
X87082926Y-72153927D01*
X87083388Y-72249412D01*
X87083486Y-72371296D01*
X87083455Y-72449221D01*
X87083165Y-72554515D01*
X87082354Y-72635651D01*
X87080768Y-72696290D01*
X87078155Y-72740093D01*
X87074259Y-72770720D01*
X87068826Y-72791833D01*
X87061603Y-72807091D01*
X87052336Y-72820157D01*
X87011824Y-72852633D01*
X86965303Y-72856466D01*
X86916068Y-72831050D01*
X86910498Y-72826424D01*
X86899613Y-72815070D01*
X86891544Y-72799692D01*
X86885709Y-72775950D01*
X86881526Y-72739508D01*
X86878414Y-72686028D01*
X86875790Y-72611171D01*
X86873072Y-72510601D01*
X86865557Y-72218859D01*
X86512362Y-72539238D01*
X86414062Y-72628142D01*
X86327284Y-72705515D01*
X86257795Y-72765370D01*
X86203110Y-72809201D01*
X86160747Y-72838501D01*
X86128225Y-72854764D01*
X86103059Y-72859484D01*
X86082768Y-72854155D01*
X86064869Y-72840270D01*
X86046880Y-72819323D01*
X86038565Y-72808029D01*
X86031067Y-72793947D01*
X86025461Y-72775097D01*
X86021531Y-72747867D01*
X86019061Y-72708645D01*
X86017837Y-72653818D01*
X86017644Y-72579772D01*
X86018266Y-72482895D01*
X86019487Y-72359574D01*
X86023900Y-71940259D01*
X86059382Y-71911547D01*
X86094084Y-71889990D01*
X86137830Y-71886301D01*
X86183803Y-71911534D01*
X86189544Y-71916306D01*
X86200371Y-71927662D01*
X86208398Y-71943095D01*
X86214203Y-71966934D01*
X86218367Y-72003508D01*
X86221469Y-72057146D01*
X86224086Y-72132178D01*
X86226799Y-72232932D01*
X86234314Y-72525631D01*
X86474788Y-72307562D01*
X86590267Y-72202872D01*
X86691146Y-72111816D01*
X86773872Y-72038126D01*
X86840571Y-71980384D01*
X86893369Y-71937173D01*
X86934392Y-71907073D01*
X86965767Y-71888668D01*
X86989620Y-71880540D01*
X87008077Y-71881270D01*
G37*
X88069514Y-71889641D02*
X88210647Y-71911362D01*
X88335545Y-71948709D01*
X88440450Y-72000507D01*
X88521602Y-72065586D01*
X88556311Y-72109337D01*
X88595596Y-72174838D01*
X88629242Y-72246543D01*
X88652740Y-72314665D01*
X88661581Y-72369417D01*
X88659504Y-72395665D01*
X88642274Y-72464007D01*
X88611436Y-72539264D01*
X88571639Y-72611046D01*
X88527533Y-72668966D01*
X88513958Y-72682743D01*
X88424643Y-72751674D01*
X88317967Y-72804786D01*
X88203190Y-72837273D01*
X88130013Y-72848073D01*
X88005593Y-72856866D01*
X87886063Y-72854087D01*
X87776239Y-72840447D01*
X87680937Y-72816656D01*
X87604972Y-72783422D01*
X87553160Y-72741457D01*
X87551329Y-72738827D01*
X87541893Y-72705242D01*
X87536249Y-72642334D01*
X87534373Y-72549852D01*
X87535518Y-72466998D01*
X87541802Y-72403915D01*
X87557365Y-72361174D01*
X87586348Y-72335143D01*
X87632891Y-72322188D01*
X87701134Y-72318677D01*
X87795217Y-72320978D01*
X87859948Y-72324988D01*
X87926777Y-72335895D01*
X87970038Y-72354605D01*
X87993282Y-72382877D01*
X88000060Y-72422472D01*
X87999919Y-72428518D01*
X87988333Y-72474841D01*
X87956368Y-72506018D01*
X87901429Y-72523592D01*
X87820924Y-72529107D01*
X87729758Y-72529107D01*
X87729758Y-72580167D01*
X87729825Y-72592330D01*
X87732781Y-72615297D01*
X87745119Y-72629002D01*
X87773585Y-72638238D01*
X87824924Y-72647800D01*
X87832212Y-72649044D01*
X87961288Y-72662229D01*
X88081099Y-72658342D01*
X88188817Y-72638731D01*
X88281611Y-72604741D01*
X88356653Y-72557717D01*
X88411113Y-72499005D01*
X88442163Y-72429951D01*
X88446972Y-72351902D01*
X88439625Y-72313432D01*
X88404100Y-72239023D01*
X88342606Y-72178234D01*
X88256092Y-72131855D01*
X88145507Y-72100676D01*
X88112656Y-72094753D01*
X87993727Y-72080775D01*
X87887475Y-72082411D01*
X87783506Y-72099633D01*
X87736717Y-72108672D01*
X87676223Y-72110027D01*
X87634532Y-72093343D01*
X87607700Y-72057680D01*
X87599201Y-72020073D01*
X87611831Y-71978502D01*
X87624251Y-71960628D01*
X87669829Y-71929299D01*
X87739888Y-71905506D01*
X87831109Y-71890200D01*
X87940172Y-71884333D01*
X88069514Y-71889641D01*
G36*
X88069514Y-71889641D02*
G01*
X88210647Y-71911362D01*
X88335545Y-71948709D01*
X88440450Y-72000507D01*
X88521602Y-72065586D01*
X88556311Y-72109337D01*
X88595596Y-72174838D01*
X88629242Y-72246543D01*
X88652740Y-72314665D01*
X88661581Y-72369417D01*
X88659504Y-72395665D01*
X88642274Y-72464007D01*
X88611436Y-72539264D01*
X88571639Y-72611046D01*
X88527533Y-72668966D01*
X88513958Y-72682743D01*
X88424643Y-72751674D01*
X88317967Y-72804786D01*
X88203190Y-72837273D01*
X88130013Y-72848073D01*
X88005593Y-72856866D01*
X87886063Y-72854087D01*
X87776239Y-72840447D01*
X87680937Y-72816656D01*
X87604972Y-72783422D01*
X87553160Y-72741457D01*
X87551329Y-72738827D01*
X87541893Y-72705242D01*
X87536249Y-72642334D01*
X87534373Y-72549852D01*
X87535518Y-72466998D01*
X87541802Y-72403915D01*
X87557365Y-72361174D01*
X87586348Y-72335143D01*
X87632891Y-72322188D01*
X87701134Y-72318677D01*
X87795217Y-72320978D01*
X87859948Y-72324988D01*
X87926777Y-72335895D01*
X87970038Y-72354605D01*
X87993282Y-72382877D01*
X88000060Y-72422472D01*
X87999919Y-72428518D01*
X87988333Y-72474841D01*
X87956368Y-72506018D01*
X87901429Y-72523592D01*
X87820924Y-72529107D01*
X87729758Y-72529107D01*
X87729758Y-72580167D01*
X87729825Y-72592330D01*
X87732781Y-72615297D01*
X87745119Y-72629002D01*
X87773585Y-72638238D01*
X87824924Y-72647800D01*
X87832212Y-72649044D01*
X87961288Y-72662229D01*
X88081099Y-72658342D01*
X88188817Y-72638731D01*
X88281611Y-72604741D01*
X88356653Y-72557717D01*
X88411113Y-72499005D01*
X88442163Y-72429951D01*
X88446972Y-72351902D01*
X88439625Y-72313432D01*
X88404100Y-72239023D01*
X88342606Y-72178234D01*
X88256092Y-72131855D01*
X88145507Y-72100676D01*
X88112656Y-72094753D01*
X87993727Y-72080775D01*
X87887475Y-72082411D01*
X87783506Y-72099633D01*
X87736717Y-72108672D01*
X87676223Y-72110027D01*
X87634532Y-72093343D01*
X87607700Y-72057680D01*
X87599201Y-72020073D01*
X87611831Y-71978502D01*
X87624251Y-71960628D01*
X87669829Y-71929299D01*
X87739888Y-71905506D01*
X87831109Y-71890200D01*
X87940172Y-71884333D01*
X88069514Y-71889641D01*
G37*
X85474229Y-71922435D02*
X85480818Y-71931334D01*
X85488599Y-71945408D01*
X85494538Y-71964163D01*
X85498884Y-71991223D01*
X85501883Y-72030214D01*
X85503785Y-72084763D01*
X85504836Y-72158493D01*
X85505285Y-72255032D01*
X85505379Y-72378004D01*
X85505341Y-72465763D01*
X85505032Y-72570031D01*
X85504206Y-72650269D01*
X85502618Y-72710045D01*
X85500025Y-72752926D01*
X85496184Y-72782480D01*
X85490851Y-72802276D01*
X85483783Y-72815881D01*
X85474735Y-72826864D01*
X85468724Y-72833065D01*
X85457767Y-72841701D01*
X85442643Y-72848240D01*
X85419653Y-72852974D01*
X85385097Y-72856193D01*
X85335279Y-72858190D01*
X85266497Y-72859255D01*
X85175054Y-72859680D01*
X85057250Y-72859758D01*
X85031056Y-72859749D01*
X84915195Y-72859394D01*
X84825125Y-72858375D01*
X84757286Y-72856492D01*
X84708117Y-72853547D01*
X84674055Y-72849343D01*
X84651539Y-72843680D01*
X84637008Y-72836361D01*
X84623038Y-72823066D01*
X84605383Y-72781638D01*
X84606957Y-72733858D01*
X84628478Y-72691858D01*
X84631393Y-72688828D01*
X84642959Y-72680483D01*
X84660722Y-72674271D01*
X84688658Y-72669882D01*
X84730744Y-72667008D01*
X84790958Y-72665338D01*
X84873275Y-72664563D01*
X84981673Y-72664373D01*
X85309995Y-72664373D01*
X85309995Y-72453959D01*
X85093731Y-72453959D01*
X85046243Y-72453852D01*
X84971993Y-72452790D01*
X84919886Y-72450121D01*
X84884667Y-72445273D01*
X84861078Y-72437673D01*
X84843864Y-72426749D01*
X84839014Y-72422510D01*
X84814507Y-72381271D01*
X84813663Y-72332895D01*
X84837013Y-72288135D01*
X84837096Y-72288044D01*
X84849971Y-72276559D01*
X84867670Y-72268497D01*
X84895239Y-72263263D01*
X84937724Y-72260261D01*
X85000172Y-72258897D01*
X85087630Y-72258574D01*
X85311495Y-72258574D01*
X85306987Y-72172154D01*
X85302480Y-72085734D01*
X84980188Y-72081669D01*
X84946882Y-72081233D01*
X84838217Y-72079263D01*
X84755247Y-72076089D01*
X84694519Y-72070769D01*
X84652578Y-72062364D01*
X84625971Y-72049930D01*
X84611242Y-72032527D01*
X84604938Y-72009214D01*
X84603604Y-71979050D01*
X84603612Y-71975900D01*
X84605148Y-71949232D01*
X84611536Y-71928206D01*
X84625925Y-71912155D01*
X84651466Y-71900408D01*
X84691312Y-71892298D01*
X84748611Y-71887154D01*
X84826516Y-71884308D01*
X84928177Y-71883091D01*
X85056745Y-71882834D01*
X85443079Y-71882834D01*
X85474229Y-71922435D01*
G36*
X85474229Y-71922435D02*
G01*
X85480818Y-71931334D01*
X85488599Y-71945408D01*
X85494538Y-71964163D01*
X85498884Y-71991223D01*
X85501883Y-72030214D01*
X85503785Y-72084763D01*
X85504836Y-72158493D01*
X85505285Y-72255032D01*
X85505379Y-72378004D01*
X85505341Y-72465763D01*
X85505032Y-72570031D01*
X85504206Y-72650269D01*
X85502618Y-72710045D01*
X85500025Y-72752926D01*
X85496184Y-72782480D01*
X85490851Y-72802276D01*
X85483783Y-72815881D01*
X85474735Y-72826864D01*
X85468724Y-72833065D01*
X85457767Y-72841701D01*
X85442643Y-72848240D01*
X85419653Y-72852974D01*
X85385097Y-72856193D01*
X85335279Y-72858190D01*
X85266497Y-72859255D01*
X85175054Y-72859680D01*
X85057250Y-72859758D01*
X85031056Y-72859749D01*
X84915195Y-72859394D01*
X84825125Y-72858375D01*
X84757286Y-72856492D01*
X84708117Y-72853547D01*
X84674055Y-72849343D01*
X84651539Y-72843680D01*
X84637008Y-72836361D01*
X84623038Y-72823066D01*
X84605383Y-72781638D01*
X84606957Y-72733858D01*
X84628478Y-72691858D01*
X84631393Y-72688828D01*
X84642959Y-72680483D01*
X84660722Y-72674271D01*
X84688658Y-72669882D01*
X84730744Y-72667008D01*
X84790958Y-72665338D01*
X84873275Y-72664563D01*
X84981673Y-72664373D01*
X85309995Y-72664373D01*
X85309995Y-72453959D01*
X85093731Y-72453959D01*
X85046243Y-72453852D01*
X84971993Y-72452790D01*
X84919886Y-72450121D01*
X84884667Y-72445273D01*
X84861078Y-72437673D01*
X84843864Y-72426749D01*
X84839014Y-72422510D01*
X84814507Y-72381271D01*
X84813663Y-72332895D01*
X84837013Y-72288135D01*
X84837096Y-72288044D01*
X84849971Y-72276559D01*
X84867670Y-72268497D01*
X84895239Y-72263263D01*
X84937724Y-72260261D01*
X85000172Y-72258897D01*
X85087630Y-72258574D01*
X85311495Y-72258574D01*
X85306987Y-72172154D01*
X85302480Y-72085734D01*
X84980188Y-72081669D01*
X84946882Y-72081233D01*
X84838217Y-72079263D01*
X84755247Y-72076089D01*
X84694519Y-72070769D01*
X84652578Y-72062364D01*
X84625971Y-72049930D01*
X84611242Y-72032527D01*
X84604938Y-72009214D01*
X84603604Y-71979050D01*
X84603612Y-71975900D01*
X84605148Y-71949232D01*
X84611536Y-71928206D01*
X84625925Y-71912155D01*
X84651466Y-71900408D01*
X84691312Y-71892298D01*
X84748611Y-71887154D01*
X84826516Y-71884308D01*
X84928177Y-71883091D01*
X85056745Y-71882834D01*
X85443079Y-71882834D01*
X85474229Y-71922435D01*
G37*
X91700913Y-71882856D02*
X91803556Y-71883112D01*
X91882035Y-71883890D01*
X91940065Y-71885476D01*
X91981362Y-71888156D01*
X92009643Y-71892214D01*
X92028625Y-71897936D01*
X92042022Y-71905607D01*
X92053553Y-71915514D01*
X92055929Y-71917751D01*
X92065573Y-71927788D01*
X92073084Y-71939794D01*
X92078730Y-71957281D01*
X92082776Y-71983758D01*
X92085489Y-72022739D01*
X92087135Y-72077734D01*
X92087981Y-72152254D01*
X92088293Y-72249811D01*
X92088338Y-72373916D01*
X92088289Y-72470825D01*
X92087958Y-72574905D01*
X92087111Y-72655072D01*
X92085517Y-72714822D01*
X92082946Y-72757652D01*
X92079168Y-72787058D01*
X92073951Y-72806536D01*
X92067064Y-72819584D01*
X92058279Y-72829698D01*
X92053840Y-72833928D01*
X92042494Y-72842064D01*
X92026515Y-72848287D01*
X92002270Y-72852854D01*
X91966128Y-72856019D01*
X91914456Y-72858037D01*
X91843621Y-72859163D01*
X91749991Y-72859651D01*
X91629936Y-72859758D01*
X91573874Y-72859742D01*
X91465838Y-72859499D01*
X91382638Y-72858763D01*
X91320642Y-72857278D01*
X91276218Y-72854789D01*
X91245733Y-72851042D01*
X91225555Y-72845781D01*
X91212052Y-72838751D01*
X91201592Y-72829698D01*
X91181986Y-72800942D01*
X91171533Y-72762065D01*
X91178854Y-72730237D01*
X91201592Y-72694432D01*
X91208221Y-72688297D01*
X91221235Y-72679927D01*
X91240028Y-72673769D01*
X91268646Y-72669487D01*
X91311136Y-72666744D01*
X91371544Y-72665202D01*
X91453917Y-72664524D01*
X91562302Y-72664373D01*
X91892953Y-72664373D01*
X91892953Y-72453959D01*
X91678368Y-72453959D01*
X91630682Y-72453765D01*
X91543313Y-72451472D01*
X91480418Y-72445567D01*
X91438167Y-72434777D01*
X91412730Y-72417828D01*
X91400277Y-72393445D01*
X91396977Y-72360355D01*
X91398039Y-72333387D01*
X91405031Y-72304329D01*
X91422064Y-72283891D01*
X91453138Y-72270583D01*
X91502250Y-72262920D01*
X91573401Y-72259413D01*
X91670589Y-72258574D01*
X91894453Y-72258574D01*
X91885439Y-72085734D01*
X91555638Y-72081675D01*
X91472307Y-72080505D01*
X91381161Y-72078582D01*
X91313389Y-72076012D01*
X91265123Y-72072483D01*
X91232495Y-72067685D01*
X91211639Y-72061309D01*
X91198686Y-72053044D01*
X91190677Y-72044519D01*
X91173358Y-72002340D01*
X91178098Y-71954828D01*
X91204426Y-71913479D01*
X91208756Y-71909587D01*
X91220711Y-71901131D01*
X91236825Y-71894671D01*
X91260798Y-71889939D01*
X91296330Y-71886668D01*
X91347120Y-71884589D01*
X91416869Y-71883436D01*
X91509277Y-71882940D01*
X91628043Y-71882834D01*
X91700913Y-71882856D01*
G36*
X91700913Y-71882856D02*
G01*
X91803556Y-71883112D01*
X91882035Y-71883890D01*
X91940065Y-71885476D01*
X91981362Y-71888156D01*
X92009643Y-71892214D01*
X92028625Y-71897936D01*
X92042022Y-71905607D01*
X92053553Y-71915514D01*
X92055929Y-71917751D01*
X92065573Y-71927788D01*
X92073084Y-71939794D01*
X92078730Y-71957281D01*
X92082776Y-71983758D01*
X92085489Y-72022739D01*
X92087135Y-72077734D01*
X92087981Y-72152254D01*
X92088293Y-72249811D01*
X92088338Y-72373916D01*
X92088289Y-72470825D01*
X92087958Y-72574905D01*
X92087111Y-72655072D01*
X92085517Y-72714822D01*
X92082946Y-72757652D01*
X92079168Y-72787058D01*
X92073951Y-72806536D01*
X92067064Y-72819584D01*
X92058279Y-72829698D01*
X92053840Y-72833928D01*
X92042494Y-72842064D01*
X92026515Y-72848287D01*
X92002270Y-72852854D01*
X91966128Y-72856019D01*
X91914456Y-72858037D01*
X91843621Y-72859163D01*
X91749991Y-72859651D01*
X91629936Y-72859758D01*
X91573874Y-72859742D01*
X91465838Y-72859499D01*
X91382638Y-72858763D01*
X91320642Y-72857278D01*
X91276218Y-72854789D01*
X91245733Y-72851042D01*
X91225555Y-72845781D01*
X91212052Y-72838751D01*
X91201592Y-72829698D01*
X91181986Y-72800942D01*
X91171533Y-72762065D01*
X91178854Y-72730237D01*
X91201592Y-72694432D01*
X91208221Y-72688297D01*
X91221235Y-72679927D01*
X91240028Y-72673769D01*
X91268646Y-72669487D01*
X91311136Y-72666744D01*
X91371544Y-72665202D01*
X91453917Y-72664524D01*
X91562302Y-72664373D01*
X91892953Y-72664373D01*
X91892953Y-72453959D01*
X91678368Y-72453959D01*
X91630682Y-72453765D01*
X91543313Y-72451472D01*
X91480418Y-72445567D01*
X91438167Y-72434777D01*
X91412730Y-72417828D01*
X91400277Y-72393445D01*
X91396977Y-72360355D01*
X91398039Y-72333387D01*
X91405031Y-72304329D01*
X91422064Y-72283891D01*
X91453138Y-72270583D01*
X91502250Y-72262920D01*
X91573401Y-72259413D01*
X91670589Y-72258574D01*
X91894453Y-72258574D01*
X91885439Y-72085734D01*
X91555638Y-72081675D01*
X91472307Y-72080505D01*
X91381161Y-72078582D01*
X91313389Y-72076012D01*
X91265123Y-72072483D01*
X91232495Y-72067685D01*
X91211639Y-72061309D01*
X91198686Y-72053044D01*
X91190677Y-72044519D01*
X91173358Y-72002340D01*
X91178098Y-71954828D01*
X91204426Y-71913479D01*
X91208756Y-71909587D01*
X91220711Y-71901131D01*
X91236825Y-71894671D01*
X91260798Y-71889939D01*
X91296330Y-71886668D01*
X91347120Y-71884589D01*
X91416869Y-71883436D01*
X91509277Y-71882940D01*
X91628043Y-71882834D01*
X91700913Y-71882856D01*
G37*
X80295101Y-71895364D02*
X80319012Y-71920009D01*
X80346439Y-71961390D01*
X80379500Y-72022214D01*
X80420313Y-72105187D01*
X80470997Y-72213018D01*
X80490480Y-72254800D01*
X80530086Y-72338920D01*
X80564828Y-72411620D01*
X80592779Y-72468931D01*
X80612013Y-72506879D01*
X80620604Y-72521493D01*
X80622413Y-72520720D01*
X80635716Y-72502151D01*
X80658737Y-72462825D01*
X80688821Y-72407418D01*
X80723315Y-72340604D01*
X80744580Y-72298682D01*
X80783123Y-72224986D01*
X80813063Y-72173041D01*
X80837315Y-72139121D01*
X80858791Y-72119503D01*
X80880405Y-72110464D01*
X80905070Y-72108278D01*
X80919053Y-72108911D01*
X80940509Y-72114512D01*
X80960898Y-72128976D01*
X80982996Y-72155966D01*
X81009582Y-72199149D01*
X81043433Y-72262189D01*
X81087327Y-72348752D01*
X81100285Y-72374387D01*
X81132847Y-72436520D01*
X81159788Y-72484665D01*
X81178603Y-72514473D01*
X81186790Y-72521592D01*
X81188610Y-72517237D01*
X81201091Y-72489399D01*
X81223539Y-72440220D01*
X81254049Y-72373850D01*
X81290716Y-72294438D01*
X81331635Y-72206131D01*
X81367202Y-72129949D01*
X81406642Y-72047419D01*
X81437358Y-71986524D01*
X81461294Y-71943866D01*
X81480395Y-71916049D01*
X81496606Y-71899677D01*
X81511871Y-71891355D01*
X81524399Y-71887504D01*
X81557823Y-71887306D01*
X81593960Y-71907732D01*
X81595691Y-71909044D01*
X81625093Y-71939180D01*
X81639802Y-71968769D01*
X81639864Y-71969621D01*
X81633819Y-71993135D01*
X81616692Y-72039155D01*
X81590386Y-72103520D01*
X81556803Y-72182069D01*
X81517845Y-72270645D01*
X81475415Y-72365085D01*
X81431415Y-72461231D01*
X81387747Y-72554923D01*
X81346313Y-72642000D01*
X81309016Y-72718304D01*
X81277757Y-72779673D01*
X81254439Y-72821949D01*
X81240964Y-72840971D01*
X81195155Y-72858769D01*
X81139641Y-72850300D01*
X81132499Y-72844046D01*
X81111425Y-72814555D01*
X81081866Y-72765614D01*
X81046696Y-72702085D01*
X81008787Y-72628831D01*
X80902579Y-72416821D01*
X80805141Y-72611987D01*
X80792233Y-72637670D01*
X80756314Y-72707364D01*
X80724324Y-72766995D01*
X80699342Y-72810910D01*
X80684449Y-72833456D01*
X80682923Y-72835111D01*
X80645484Y-72855463D01*
X80598804Y-72857704D01*
X80557477Y-72840971D01*
X80554247Y-72837178D01*
X80537924Y-72809718D01*
X80511647Y-72759724D01*
X80477159Y-72690722D01*
X80436203Y-72606238D01*
X80390523Y-72509797D01*
X80341862Y-72404927D01*
X80314915Y-72346183D01*
X80265957Y-72238705D01*
X80228071Y-72153926D01*
X80200080Y-72088777D01*
X80180805Y-72040188D01*
X80169071Y-72005091D01*
X80163698Y-71980416D01*
X80163509Y-71963096D01*
X80167327Y-71950060D01*
X80186841Y-71922258D01*
X80222259Y-71895230D01*
X80223265Y-71894774D01*
X80249346Y-71885454D01*
X80272585Y-71884748D01*
X80295101Y-71895364D01*
G36*
X80295101Y-71895364D02*
G01*
X80319012Y-71920009D01*
X80346439Y-71961390D01*
X80379500Y-72022214D01*
X80420313Y-72105187D01*
X80470997Y-72213018D01*
X80490480Y-72254800D01*
X80530086Y-72338920D01*
X80564828Y-72411620D01*
X80592779Y-72468931D01*
X80612013Y-72506879D01*
X80620604Y-72521493D01*
X80622413Y-72520720D01*
X80635716Y-72502151D01*
X80658737Y-72462825D01*
X80688821Y-72407418D01*
X80723315Y-72340604D01*
X80744580Y-72298682D01*
X80783123Y-72224986D01*
X80813063Y-72173041D01*
X80837315Y-72139121D01*
X80858791Y-72119503D01*
X80880405Y-72110464D01*
X80905070Y-72108278D01*
X80919053Y-72108911D01*
X80940509Y-72114512D01*
X80960898Y-72128976D01*
X80982996Y-72155966D01*
X81009582Y-72199149D01*
X81043433Y-72262189D01*
X81087327Y-72348752D01*
X81100285Y-72374387D01*
X81132847Y-72436520D01*
X81159788Y-72484665D01*
X81178603Y-72514473D01*
X81186790Y-72521592D01*
X81188610Y-72517237D01*
X81201091Y-72489399D01*
X81223539Y-72440220D01*
X81254049Y-72373850D01*
X81290716Y-72294438D01*
X81331635Y-72206131D01*
X81367202Y-72129949D01*
X81406642Y-72047419D01*
X81437358Y-71986524D01*
X81461294Y-71943866D01*
X81480395Y-71916049D01*
X81496606Y-71899677D01*
X81511871Y-71891355D01*
X81524399Y-71887504D01*
X81557823Y-71887306D01*
X81593960Y-71907732D01*
X81595691Y-71909044D01*
X81625093Y-71939180D01*
X81639802Y-71968769D01*
X81639864Y-71969621D01*
X81633819Y-71993135D01*
X81616692Y-72039155D01*
X81590386Y-72103520D01*
X81556803Y-72182069D01*
X81517845Y-72270645D01*
X81475415Y-72365085D01*
X81431415Y-72461231D01*
X81387747Y-72554923D01*
X81346313Y-72642000D01*
X81309016Y-72718304D01*
X81277757Y-72779673D01*
X81254439Y-72821949D01*
X81240964Y-72840971D01*
X81195155Y-72858769D01*
X81139641Y-72850300D01*
X81132499Y-72844046D01*
X81111425Y-72814555D01*
X81081866Y-72765614D01*
X81046696Y-72702085D01*
X81008787Y-72628831D01*
X80902579Y-72416821D01*
X80805141Y-72611987D01*
X80792233Y-72637670D01*
X80756314Y-72707364D01*
X80724324Y-72766995D01*
X80699342Y-72810910D01*
X80684449Y-72833456D01*
X80682923Y-72835111D01*
X80645484Y-72855463D01*
X80598804Y-72857704D01*
X80557477Y-72840971D01*
X80554247Y-72837178D01*
X80537924Y-72809718D01*
X80511647Y-72759724D01*
X80477159Y-72690722D01*
X80436203Y-72606238D01*
X80390523Y-72509797D01*
X80341862Y-72404927D01*
X80314915Y-72346183D01*
X80265957Y-72238705D01*
X80228071Y-72153926D01*
X80200080Y-72088777D01*
X80180805Y-72040188D01*
X80169071Y-72005091D01*
X80163698Y-71980416D01*
X80163509Y-71963096D01*
X80167327Y-71950060D01*
X80186841Y-71922258D01*
X80222259Y-71895230D01*
X80223265Y-71894774D01*
X80249346Y-71885454D01*
X80272585Y-71884748D01*
X80295101Y-71895364D01*
G37*
X90348408Y-71883992D02*
X90436606Y-71891221D01*
X90510231Y-71904000D01*
X90577974Y-71923785D01*
X90672917Y-71967896D01*
X90741025Y-72024722D01*
X90782062Y-72094039D01*
X90795794Y-72175623D01*
X90794546Y-72217226D01*
X90786834Y-72250240D01*
X90767120Y-72279090D01*
X90729879Y-72315504D01*
X90719257Y-72325261D01*
X90687691Y-72353090D01*
X90657877Y-72375684D01*
X90625879Y-72394261D01*
X90587765Y-72410039D01*
X90539601Y-72424236D01*
X90477453Y-72438071D01*
X90397387Y-72452762D01*
X90295469Y-72469527D01*
X90167767Y-72489585D01*
X90143318Y-72493624D01*
X90060335Y-72511758D01*
X90000134Y-72532705D01*
X89965140Y-72555433D01*
X89957779Y-72578911D01*
X89961268Y-72584596D01*
X89985143Y-72604653D01*
X90022588Y-72626799D01*
X90039629Y-72634775D01*
X90067985Y-72644351D01*
X90103114Y-72650711D01*
X90150836Y-72654464D01*
X90216969Y-72656218D01*
X90307332Y-72656582D01*
X90331010Y-72656485D01*
X90421038Y-72655006D01*
X90507495Y-72652043D01*
X90581552Y-72647961D01*
X90634382Y-72643122D01*
X90681660Y-72637706D01*
X90720605Y-72636664D01*
X90745769Y-72642787D01*
X90765891Y-72657000D01*
X90770759Y-72661783D01*
X90792516Y-72704086D01*
X90790758Y-72751554D01*
X90765520Y-72792319D01*
X90738399Y-72807770D01*
X90690492Y-72824672D01*
X90634011Y-72838052D01*
X90629417Y-72838849D01*
X90572609Y-72845794D01*
X90496206Y-72851617D01*
X90409645Y-72855728D01*
X90322362Y-72857537D01*
X90300750Y-72857593D01*
X90169861Y-72854294D01*
X90063283Y-72843635D01*
X89976505Y-72824288D01*
X89905017Y-72794926D01*
X89844306Y-72754222D01*
X89789862Y-72700848D01*
X89763074Y-72665931D01*
X89747595Y-72626593D01*
X89743723Y-72573716D01*
X89743910Y-72557781D01*
X89749066Y-72514270D01*
X89765555Y-72478955D01*
X89799058Y-72437884D01*
X89827299Y-72408408D01*
X89862442Y-72378391D01*
X89902006Y-72353937D01*
X89950240Y-72333626D01*
X90011393Y-72316036D01*
X90089712Y-72299747D01*
X90189447Y-72283337D01*
X90314847Y-72265386D01*
X90375173Y-72256054D01*
X90465645Y-72236670D01*
X90531062Y-72214704D01*
X90570427Y-72190875D01*
X90582743Y-72165906D01*
X90567011Y-72140517D01*
X90522235Y-72115429D01*
X90518180Y-72113813D01*
X90456459Y-72097733D01*
X90373049Y-72086815D01*
X90275282Y-72081276D01*
X90170491Y-72081333D01*
X90066008Y-72087202D01*
X89969166Y-72099099D01*
X89963938Y-72099963D01*
X89898946Y-72110224D01*
X89856007Y-72115032D01*
X89828052Y-72114237D01*
X89808010Y-72107685D01*
X89788811Y-72095225D01*
X89787254Y-72094066D01*
X89754613Y-72053628D01*
X89748231Y-72006363D01*
X89769276Y-71960323D01*
X89775328Y-71954390D01*
X89814755Y-71934234D01*
X89877305Y-71916762D01*
X89957591Y-71902383D01*
X90050230Y-71891508D01*
X90149835Y-71884545D01*
X90251023Y-71881903D01*
X90348408Y-71883992D01*
G36*
X90348408Y-71883992D02*
G01*
X90436606Y-71891221D01*
X90510231Y-71904000D01*
X90577974Y-71923785D01*
X90672917Y-71967896D01*
X90741025Y-72024722D01*
X90782062Y-72094039D01*
X90795794Y-72175623D01*
X90794546Y-72217226D01*
X90786834Y-72250240D01*
X90767120Y-72279090D01*
X90729879Y-72315504D01*
X90719257Y-72325261D01*
X90687691Y-72353090D01*
X90657877Y-72375684D01*
X90625879Y-72394261D01*
X90587765Y-72410039D01*
X90539601Y-72424236D01*
X90477453Y-72438071D01*
X90397387Y-72452762D01*
X90295469Y-72469527D01*
X90167767Y-72489585D01*
X90143318Y-72493624D01*
X90060335Y-72511758D01*
X90000134Y-72532705D01*
X89965140Y-72555433D01*
X89957779Y-72578911D01*
X89961268Y-72584596D01*
X89985143Y-72604653D01*
X90022588Y-72626799D01*
X90039629Y-72634775D01*
X90067985Y-72644351D01*
X90103114Y-72650711D01*
X90150836Y-72654464D01*
X90216969Y-72656218D01*
X90307332Y-72656582D01*
X90331010Y-72656485D01*
X90421038Y-72655006D01*
X90507495Y-72652043D01*
X90581552Y-72647961D01*
X90634382Y-72643122D01*
X90681660Y-72637706D01*
X90720605Y-72636664D01*
X90745769Y-72642787D01*
X90765891Y-72657000D01*
X90770759Y-72661783D01*
X90792516Y-72704086D01*
X90790758Y-72751554D01*
X90765520Y-72792319D01*
X90738399Y-72807770D01*
X90690492Y-72824672D01*
X90634011Y-72838052D01*
X90629417Y-72838849D01*
X90572609Y-72845794D01*
X90496206Y-72851617D01*
X90409645Y-72855728D01*
X90322362Y-72857537D01*
X90300750Y-72857593D01*
X90169861Y-72854294D01*
X90063283Y-72843635D01*
X89976505Y-72824288D01*
X89905017Y-72794926D01*
X89844306Y-72754222D01*
X89789862Y-72700848D01*
X89763074Y-72665931D01*
X89747595Y-72626593D01*
X89743723Y-72573716D01*
X89743910Y-72557781D01*
X89749066Y-72514270D01*
X89765555Y-72478955D01*
X89799058Y-72437884D01*
X89827299Y-72408408D01*
X89862442Y-72378391D01*
X89902006Y-72353937D01*
X89950240Y-72333626D01*
X90011393Y-72316036D01*
X90089712Y-72299747D01*
X90189447Y-72283337D01*
X90314847Y-72265386D01*
X90375173Y-72256054D01*
X90465645Y-72236670D01*
X90531062Y-72214704D01*
X90570427Y-72190875D01*
X90582743Y-72165906D01*
X90567011Y-72140517D01*
X90522235Y-72115429D01*
X90518180Y-72113813D01*
X90456459Y-72097733D01*
X90373049Y-72086815D01*
X90275282Y-72081276D01*
X90170491Y-72081333D01*
X90066008Y-72087202D01*
X89969166Y-72099099D01*
X89963938Y-72099963D01*
X89898946Y-72110224D01*
X89856007Y-72115032D01*
X89828052Y-72114237D01*
X89808010Y-72107685D01*
X89788811Y-72095225D01*
X89787254Y-72094066D01*
X89754613Y-72053628D01*
X89748231Y-72006363D01*
X89769276Y-71960323D01*
X89775328Y-71954390D01*
X89814755Y-71934234D01*
X89877305Y-71916762D01*
X89957591Y-71902383D01*
X90050230Y-71891508D01*
X90149835Y-71884545D01*
X90251023Y-71881903D01*
X90348408Y-71883992D01*
G37*
X85183727Y-64842455D02*
X85427531Y-64864837D01*
X85654025Y-64909975D01*
X85871635Y-64979769D01*
X86088784Y-65076120D01*
X86303738Y-65199139D01*
X86534427Y-65366846D01*
X86748352Y-65560747D01*
X86940804Y-65776042D01*
X87107073Y-66007931D01*
X87242446Y-66251614D01*
X87254734Y-66277682D01*
X87357643Y-66529305D01*
X87435839Y-66790769D01*
X87490332Y-67067070D01*
X87522134Y-67363203D01*
X87532253Y-67684163D01*
X87519949Y-68015952D01*
X87480894Y-68342700D01*
X87414483Y-68648573D01*
X87320120Y-68935741D01*
X87197213Y-69206373D01*
X87045166Y-69462638D01*
X86902343Y-69658424D01*
X86705136Y-69878713D01*
X86490189Y-70067398D01*
X86257596Y-70224417D01*
X86007451Y-70349709D01*
X85739850Y-70443210D01*
X85454885Y-70504861D01*
X85451633Y-70505341D01*
X85396755Y-70510156D01*
X85313942Y-70513728D01*
X85210851Y-70515889D01*
X85095139Y-70516474D01*
X84974465Y-70515315D01*
X84889890Y-70513616D01*
X84764405Y-70509682D01*
X84663851Y-70504050D01*
X84580976Y-70496118D01*
X84508527Y-70485287D01*
X84439250Y-70470954D01*
X84361309Y-70452431D01*
X84279992Y-70431338D01*
X84206449Y-70409211D01*
X84134005Y-70383457D01*
X84055986Y-70351484D01*
X83965718Y-70310702D01*
X83856524Y-70258517D01*
X83721732Y-70192339D01*
X83348929Y-70008101D01*
X83647521Y-69517655D01*
X83686612Y-69453465D01*
X83756843Y-69338234D01*
X83819704Y-69235218D01*
X83872897Y-69148172D01*
X83914126Y-69080856D01*
X83941093Y-69037025D01*
X83951500Y-69020439D01*
X83954395Y-69020934D01*
X83977713Y-69037166D01*
X84018679Y-69070853D01*
X84070820Y-69116769D01*
X84163680Y-69196102D01*
X84329455Y-69313414D01*
X84490296Y-69395195D01*
X84606524Y-69436035D01*
X84803115Y-69477772D01*
X84996271Y-69485170D01*
X85183192Y-69458733D01*
X85361076Y-69398964D01*
X85527123Y-69306367D01*
X85678530Y-69181446D01*
X85762779Y-69089438D01*
X85881467Y-68919255D01*
X85978857Y-68721766D01*
X86055412Y-68495960D01*
X86111600Y-68240825D01*
X86114149Y-68224986D01*
X86125926Y-68122327D01*
X86134693Y-67994775D01*
X86140379Y-67851046D01*
X86142914Y-67699855D01*
X86142226Y-67549917D01*
X86138245Y-67409948D01*
X86130899Y-67288665D01*
X86120118Y-67194781D01*
X86078793Y-66982116D01*
X86009258Y-66733694D01*
X85921808Y-66516205D01*
X85816558Y-66329817D01*
X85693625Y-66174697D01*
X85553128Y-66051014D01*
X85395181Y-65958936D01*
X85219903Y-65898633D01*
X85181014Y-65891148D01*
X85083559Y-65881375D01*
X84969666Y-65878185D01*
X84852097Y-65881403D01*
X84743610Y-65890853D01*
X84656965Y-65906360D01*
X84512625Y-65955737D01*
X84345121Y-66045880D01*
X84195973Y-66164508D01*
X84169649Y-66189497D01*
X84121950Y-66233709D01*
X84088238Y-66263466D01*
X84074542Y-66273365D01*
X84071170Y-66268631D01*
X84050416Y-66238737D01*
X84012921Y-66184457D01*
X83961163Y-66109386D01*
X83897621Y-66017118D01*
X83824770Y-65911247D01*
X83745090Y-65795368D01*
X83419179Y-65321241D01*
X83491985Y-65299428D01*
X83499583Y-65296956D01*
X83549038Y-65277322D01*
X83620340Y-65245663D01*
X83705121Y-65205786D01*
X83795013Y-65161500D01*
X83834185Y-65141920D01*
X84051697Y-65040833D01*
X84252176Y-64962662D01*
X84443331Y-64905409D01*
X84632874Y-64867073D01*
X84828515Y-64845655D01*
X85037965Y-64839155D01*
X85183727Y-64842455D01*
G36*
X85183727Y-64842455D02*
G01*
X85427531Y-64864837D01*
X85654025Y-64909975D01*
X85871635Y-64979769D01*
X86088784Y-65076120D01*
X86303738Y-65199139D01*
X86534427Y-65366846D01*
X86748352Y-65560747D01*
X86940804Y-65776042D01*
X87107073Y-66007931D01*
X87242446Y-66251614D01*
X87254734Y-66277682D01*
X87357643Y-66529305D01*
X87435839Y-66790769D01*
X87490332Y-67067070D01*
X87522134Y-67363203D01*
X87532253Y-67684163D01*
X87519949Y-68015952D01*
X87480894Y-68342700D01*
X87414483Y-68648573D01*
X87320120Y-68935741D01*
X87197213Y-69206373D01*
X87045166Y-69462638D01*
X86902343Y-69658424D01*
X86705136Y-69878713D01*
X86490189Y-70067398D01*
X86257596Y-70224417D01*
X86007451Y-70349709D01*
X85739850Y-70443210D01*
X85454885Y-70504861D01*
X85451633Y-70505341D01*
X85396755Y-70510156D01*
X85313942Y-70513728D01*
X85210851Y-70515889D01*
X85095139Y-70516474D01*
X84974465Y-70515315D01*
X84889890Y-70513616D01*
X84764405Y-70509682D01*
X84663851Y-70504050D01*
X84580976Y-70496118D01*
X84508527Y-70485287D01*
X84439250Y-70470954D01*
X84361309Y-70452431D01*
X84279992Y-70431338D01*
X84206449Y-70409211D01*
X84134005Y-70383457D01*
X84055986Y-70351484D01*
X83965718Y-70310702D01*
X83856524Y-70258517D01*
X83721732Y-70192339D01*
X83348929Y-70008101D01*
X83647521Y-69517655D01*
X83686612Y-69453465D01*
X83756843Y-69338234D01*
X83819704Y-69235218D01*
X83872897Y-69148172D01*
X83914126Y-69080856D01*
X83941093Y-69037025D01*
X83951500Y-69020439D01*
X83954395Y-69020934D01*
X83977713Y-69037166D01*
X84018679Y-69070853D01*
X84070820Y-69116769D01*
X84163680Y-69196102D01*
X84329455Y-69313414D01*
X84490296Y-69395195D01*
X84606524Y-69436035D01*
X84803115Y-69477772D01*
X84996271Y-69485170D01*
X85183192Y-69458733D01*
X85361076Y-69398964D01*
X85527123Y-69306367D01*
X85678530Y-69181446D01*
X85762779Y-69089438D01*
X85881467Y-68919255D01*
X85978857Y-68721766D01*
X86055412Y-68495960D01*
X86111600Y-68240825D01*
X86114149Y-68224986D01*
X86125926Y-68122327D01*
X86134693Y-67994775D01*
X86140379Y-67851046D01*
X86142914Y-67699855D01*
X86142226Y-67549917D01*
X86138245Y-67409948D01*
X86130899Y-67288665D01*
X86120118Y-67194781D01*
X86078793Y-66982116D01*
X86009258Y-66733694D01*
X85921808Y-66516205D01*
X85816558Y-66329817D01*
X85693625Y-66174697D01*
X85553128Y-66051014D01*
X85395181Y-65958936D01*
X85219903Y-65898633D01*
X85181014Y-65891148D01*
X85083559Y-65881375D01*
X84969666Y-65878185D01*
X84852097Y-65881403D01*
X84743610Y-65890853D01*
X84656965Y-65906360D01*
X84512625Y-65955737D01*
X84345121Y-66045880D01*
X84195973Y-66164508D01*
X84169649Y-66189497D01*
X84121950Y-66233709D01*
X84088238Y-66263466D01*
X84074542Y-66273365D01*
X84071170Y-66268631D01*
X84050416Y-66238737D01*
X84012921Y-66184457D01*
X83961163Y-66109386D01*
X83897621Y-66017118D01*
X83824770Y-65911247D01*
X83745090Y-65795368D01*
X83419179Y-65321241D01*
X83491985Y-65299428D01*
X83499583Y-65296956D01*
X83549038Y-65277322D01*
X83620340Y-65245663D01*
X83705121Y-65205786D01*
X83795013Y-65161500D01*
X83834185Y-65141920D01*
X84051697Y-65040833D01*
X84252176Y-64962662D01*
X84443331Y-64905409D01*
X84632874Y-64867073D01*
X84828515Y-64845655D01*
X85037965Y-64839155D01*
X85183727Y-64842455D01*
G37*
X79256998Y-68622961D02*
X79253148Y-68790857D01*
X79242140Y-68938926D01*
X79223122Y-69075222D01*
X79195242Y-69207799D01*
X79157647Y-69344710D01*
X79100636Y-69508360D01*
X78995929Y-69729281D01*
X78867491Y-69927158D01*
X78717286Y-70100121D01*
X78547280Y-70246300D01*
X78359438Y-70363825D01*
X78155725Y-70450826D01*
X77938105Y-70505433D01*
X77935486Y-70505871D01*
X77776446Y-70521174D01*
X77601702Y-70519131D01*
X77423713Y-70501003D01*
X77254939Y-70468048D01*
X77107841Y-70421525D01*
X77045054Y-70393215D01*
X76963280Y-70350185D01*
X76879252Y-70300970D01*
X76801738Y-70250987D01*
X76739505Y-70205653D01*
X76701322Y-70170384D01*
X76692556Y-70160701D01*
X76682107Y-70157316D01*
X76675122Y-70174120D01*
X76669975Y-70216469D01*
X76665036Y-70289719D01*
X76655965Y-70442353D01*
X75266253Y-70451857D01*
X75314332Y-70369817D01*
X75317198Y-70364967D01*
X75331178Y-70342196D01*
X75343862Y-70321911D01*
X75355316Y-70302349D01*
X75365608Y-70281748D01*
X75374808Y-70258344D01*
X75382983Y-70230377D01*
X75390202Y-70196084D01*
X75396533Y-70153702D01*
X75402044Y-70101470D01*
X75406803Y-70037624D01*
X75410878Y-69960403D01*
X75414339Y-69868044D01*
X75417252Y-69758785D01*
X75419687Y-69630864D01*
X75421711Y-69482518D01*
X75423394Y-69311986D01*
X75424802Y-69117505D01*
X75426005Y-68897312D01*
X75427070Y-68649645D01*
X75428066Y-68372742D01*
X75429061Y-68064841D01*
X75430124Y-67724180D01*
X75431060Y-67431008D01*
X76746679Y-67431008D01*
X76746679Y-69316980D01*
X76837393Y-69376481D01*
X76872279Y-69397915D01*
X76952158Y-69440735D01*
X77027893Y-69474834D01*
X77061061Y-69486379D01*
X77166598Y-69509428D01*
X77300036Y-69521197D01*
X77367889Y-69523646D01*
X77430873Y-69523090D01*
X77477759Y-69516799D01*
X77519813Y-69503050D01*
X77568302Y-69480116D01*
X77661488Y-69418683D01*
X77742217Y-69331782D01*
X77806838Y-69219793D01*
X77855966Y-69080963D01*
X77890214Y-68913535D01*
X77910199Y-68715753D01*
X77916534Y-68485864D01*
X77916226Y-68433599D01*
X77907118Y-68191439D01*
X77885002Y-67980726D01*
X77849340Y-67799238D01*
X77799594Y-67644751D01*
X77735226Y-67515043D01*
X77655698Y-67407890D01*
X77622705Y-67375187D01*
X77520453Y-67307056D01*
X77400419Y-67265597D01*
X77267803Y-67251046D01*
X77127806Y-67263638D01*
X76985626Y-67303609D01*
X76846465Y-67371195D01*
X76746679Y-67431008D01*
X75431060Y-67431008D01*
X75431322Y-67348996D01*
X75440393Y-64582210D01*
X76161572Y-64577466D01*
X76214017Y-64577147D01*
X76368322Y-64576513D01*
X76509457Y-64576385D01*
X76633570Y-64576735D01*
X76736808Y-64577536D01*
X76815319Y-64578764D01*
X76865250Y-64580391D01*
X76882750Y-64582391D01*
X76880511Y-64588729D01*
X76863810Y-64618780D01*
X76836148Y-64662481D01*
X76833388Y-64666659D01*
X76811941Y-64700401D01*
X76793958Y-64733230D01*
X76779135Y-64768529D01*
X76767167Y-64809679D01*
X76757749Y-64860062D01*
X76750576Y-64923058D01*
X76745343Y-65002051D01*
X76741745Y-65100421D01*
X76739477Y-65221550D01*
X76738235Y-65368820D01*
X76737714Y-65545612D01*
X76737607Y-65755308D01*
X76737798Y-65919027D01*
X76738380Y-66079763D01*
X76739312Y-66225507D01*
X76740552Y-66352710D01*
X76742057Y-66457824D01*
X76743786Y-66537299D01*
X76745695Y-66587587D01*
X76747743Y-66605138D01*
X76754348Y-66602414D01*
X76783383Y-66583231D01*
X76824850Y-66551727D01*
X76884965Y-66509360D01*
X76997914Y-66446935D01*
X77127009Y-66391252D01*
X77260202Y-66347949D01*
X77372108Y-66325868D01*
X77511480Y-66311792D01*
X77662319Y-66306916D01*
X77812986Y-66311244D01*
X77951839Y-66324783D01*
X78067238Y-66347539D01*
X78184740Y-66385871D01*
X78380762Y-66478795D01*
X78562264Y-66602332D01*
X78725897Y-66753636D01*
X78868312Y-66929864D01*
X78986163Y-67128170D01*
X79015421Y-67188980D01*
X79097411Y-67394094D01*
X79161512Y-67616709D01*
X79208535Y-67860749D01*
X79239288Y-68130137D01*
X79254583Y-68428798D01*
X79255293Y-68485864D01*
X79256998Y-68622961D01*
G36*
X79256998Y-68622961D02*
G01*
X79253148Y-68790857D01*
X79242140Y-68938926D01*
X79223122Y-69075222D01*
X79195242Y-69207799D01*
X79157647Y-69344710D01*
X79100636Y-69508360D01*
X78995929Y-69729281D01*
X78867491Y-69927158D01*
X78717286Y-70100121D01*
X78547280Y-70246300D01*
X78359438Y-70363825D01*
X78155725Y-70450826D01*
X77938105Y-70505433D01*
X77935486Y-70505871D01*
X77776446Y-70521174D01*
X77601702Y-70519131D01*
X77423713Y-70501003D01*
X77254939Y-70468048D01*
X77107841Y-70421525D01*
X77045054Y-70393215D01*
X76963280Y-70350185D01*
X76879252Y-70300970D01*
X76801738Y-70250987D01*
X76739505Y-70205653D01*
X76701322Y-70170384D01*
X76692556Y-70160701D01*
X76682107Y-70157316D01*
X76675122Y-70174120D01*
X76669975Y-70216469D01*
X76665036Y-70289719D01*
X76655965Y-70442353D01*
X75266253Y-70451857D01*
X75314332Y-70369817D01*
X75317198Y-70364967D01*
X75331178Y-70342196D01*
X75343862Y-70321911D01*
X75355316Y-70302349D01*
X75365608Y-70281748D01*
X75374808Y-70258344D01*
X75382983Y-70230377D01*
X75390202Y-70196084D01*
X75396533Y-70153702D01*
X75402044Y-70101470D01*
X75406803Y-70037624D01*
X75410878Y-69960403D01*
X75414339Y-69868044D01*
X75417252Y-69758785D01*
X75419687Y-69630864D01*
X75421711Y-69482518D01*
X75423394Y-69311986D01*
X75424802Y-69117505D01*
X75426005Y-68897312D01*
X75427070Y-68649645D01*
X75428066Y-68372742D01*
X75429061Y-68064841D01*
X75430124Y-67724180D01*
X75431060Y-67431008D01*
X76746679Y-67431008D01*
X76746679Y-69316980D01*
X76837393Y-69376481D01*
X76872279Y-69397915D01*
X76952158Y-69440735D01*
X77027893Y-69474834D01*
X77061061Y-69486379D01*
X77166598Y-69509428D01*
X77300036Y-69521197D01*
X77367889Y-69523646D01*
X77430873Y-69523090D01*
X77477759Y-69516799D01*
X77519813Y-69503050D01*
X77568302Y-69480116D01*
X77661488Y-69418683D01*
X77742217Y-69331782D01*
X77806838Y-69219793D01*
X77855966Y-69080963D01*
X77890214Y-68913535D01*
X77910199Y-68715753D01*
X77916534Y-68485864D01*
X77916226Y-68433599D01*
X77907118Y-68191439D01*
X77885002Y-67980726D01*
X77849340Y-67799238D01*
X77799594Y-67644751D01*
X77735226Y-67515043D01*
X77655698Y-67407890D01*
X77622705Y-67375187D01*
X77520453Y-67307056D01*
X77400419Y-67265597D01*
X77267803Y-67251046D01*
X77127806Y-67263638D01*
X76985626Y-67303609D01*
X76846465Y-67371195D01*
X76746679Y-67431008D01*
X75431060Y-67431008D01*
X75431322Y-67348996D01*
X75440393Y-64582210D01*
X76161572Y-64577466D01*
X76214017Y-64577147D01*
X76368322Y-64576513D01*
X76509457Y-64576385D01*
X76633570Y-64576735D01*
X76736808Y-64577536D01*
X76815319Y-64578764D01*
X76865250Y-64580391D01*
X76882750Y-64582391D01*
X76880511Y-64588729D01*
X76863810Y-64618780D01*
X76836148Y-64662481D01*
X76833388Y-64666659D01*
X76811941Y-64700401D01*
X76793958Y-64733230D01*
X76779135Y-64768529D01*
X76767167Y-64809679D01*
X76757749Y-64860062D01*
X76750576Y-64923058D01*
X76745343Y-65002051D01*
X76741745Y-65100421D01*
X76739477Y-65221550D01*
X76738235Y-65368820D01*
X76737714Y-65545612D01*
X76737607Y-65755308D01*
X76737798Y-65919027D01*
X76738380Y-66079763D01*
X76739312Y-66225507D01*
X76740552Y-66352710D01*
X76742057Y-66457824D01*
X76743786Y-66537299D01*
X76745695Y-66587587D01*
X76747743Y-66605138D01*
X76754348Y-66602414D01*
X76783383Y-66583231D01*
X76824850Y-66551727D01*
X76884965Y-66509360D01*
X76997914Y-66446935D01*
X77127009Y-66391252D01*
X77260202Y-66347949D01*
X77372108Y-66325868D01*
X77511480Y-66311792D01*
X77662319Y-66306916D01*
X77812986Y-66311244D01*
X77951839Y-66324783D01*
X78067238Y-66347539D01*
X78184740Y-66385871D01*
X78380762Y-66478795D01*
X78562264Y-66602332D01*
X78725897Y-66753636D01*
X78868312Y-66929864D01*
X78986163Y-67128170D01*
X79015421Y-67188980D01*
X79097411Y-67394094D01*
X79161512Y-67616709D01*
X79208535Y-67860749D01*
X79239288Y-68130137D01*
X79254583Y-68428798D01*
X79255293Y-68485864D01*
X79256998Y-68622961D01*
G37*
X83357883Y-69193861D02*
X83349735Y-69340146D01*
X83332125Y-69476257D01*
X83305552Y-69589638D01*
X83263152Y-69706291D01*
X83164869Y-69898534D01*
X83039243Y-70067671D01*
X82887574Y-70212550D01*
X82711164Y-70332018D01*
X82511313Y-70424923D01*
X82289322Y-70490113D01*
X82198800Y-70504816D01*
X82069445Y-70515035D01*
X81928568Y-70517333D01*
X81787943Y-70511896D01*
X81659342Y-70498909D01*
X81554536Y-70478557D01*
X81501872Y-70462533D01*
X81382262Y-70415643D01*
X81260676Y-70356112D01*
X81149658Y-70290395D01*
X81061752Y-70224948D01*
X81060671Y-70224003D01*
X81012500Y-70183160D01*
X80975438Y-70154077D01*
X80957430Y-70142996D01*
X80955461Y-70145641D01*
X80951006Y-70174218D01*
X80947911Y-70227518D01*
X80946750Y-70297210D01*
X80946750Y-70451424D01*
X80266393Y-70451424D01*
X80248282Y-70451421D01*
X80096383Y-70451155D01*
X79956971Y-70450494D01*
X79834011Y-70449486D01*
X79731472Y-70448182D01*
X79653319Y-70446629D01*
X79603518Y-70444878D01*
X79586036Y-70442977D01*
X79586443Y-70441317D01*
X79597881Y-70416801D01*
X79621855Y-70370741D01*
X79654072Y-70311442D01*
X79722108Y-70188353D01*
X79732083Y-68973113D01*
X81019322Y-68973113D01*
X81019828Y-69069127D01*
X81022280Y-69170011D01*
X81027083Y-69242931D01*
X81034588Y-69292636D01*
X81045143Y-69323873D01*
X81058721Y-69346179D01*
X81109855Y-69406985D01*
X81178368Y-69470287D01*
X81253461Y-69526689D01*
X81324333Y-69566794D01*
X81363654Y-69581509D01*
X81454195Y-69601101D01*
X81572448Y-69611118D01*
X81697125Y-69609601D01*
X81815520Y-69588998D01*
X81914342Y-69546435D01*
X81999841Y-69479995D01*
X82023893Y-69455419D01*
X82086515Y-69371609D01*
X82120397Y-69281274D01*
X82130572Y-69172575D01*
X82127815Y-69115149D01*
X82100554Y-68996931D01*
X82043283Y-68895463D01*
X81954961Y-68809603D01*
X81834544Y-68738208D01*
X81680990Y-68680138D01*
X81619086Y-68664899D01*
X81544144Y-68654465D01*
X81449830Y-68648670D01*
X81327750Y-68646722D01*
X81307919Y-68646723D01*
X81216589Y-68647838D01*
X81138137Y-68650532D01*
X81080364Y-68654453D01*
X81051072Y-68659248D01*
X81047701Y-68660804D01*
X81036803Y-68670578D01*
X81029085Y-68690218D01*
X81024012Y-68725009D01*
X81021050Y-68780233D01*
X81019665Y-68861174D01*
X81019322Y-68973113D01*
X79732083Y-68973113D01*
X79732607Y-68909281D01*
X79734168Y-68722985D01*
X79736351Y-68485389D01*
X79738643Y-68279122D01*
X79741228Y-68101266D01*
X79744293Y-67948905D01*
X79748021Y-67819120D01*
X79752598Y-67708996D01*
X79758209Y-67615614D01*
X79765040Y-67536059D01*
X79773276Y-67467412D01*
X79783101Y-67406757D01*
X79794701Y-67351176D01*
X79808261Y-67297753D01*
X79823966Y-67243570D01*
X79842002Y-67185710D01*
X79913054Y-67004322D01*
X80010357Y-66836682D01*
X80131534Y-66693156D01*
X80277696Y-66572994D01*
X80449950Y-66475444D01*
X80649408Y-66399755D01*
X80877178Y-66345177D01*
X81134370Y-66310959D01*
X81224261Y-66304154D01*
X81375653Y-66299179D01*
X81525707Y-66303659D01*
X81681447Y-66318351D01*
X81849898Y-66344008D01*
X82038086Y-66381386D01*
X82253036Y-66431242D01*
X82302721Y-66443305D01*
X82427494Y-66472989D01*
X82545754Y-66500322D01*
X82650329Y-66523687D01*
X82734047Y-66541471D01*
X82789738Y-66552060D01*
X82918226Y-66573164D01*
X82737588Y-67010973D01*
X82692405Y-67120283D01*
X82647954Y-67227393D01*
X82609816Y-67318842D01*
X82579862Y-67390157D01*
X82559964Y-67436861D01*
X82551996Y-67454482D01*
X82550743Y-67454734D01*
X82527651Y-67446867D01*
X82482246Y-67426707D01*
X82422717Y-67397841D01*
X82298989Y-67341627D01*
X82128730Y-67280164D01*
X81954471Y-67233094D01*
X81783026Y-67201601D01*
X81621210Y-67186867D01*
X81475837Y-67190074D01*
X81353722Y-67212403D01*
X81268494Y-67247833D01*
X81171702Y-67320441D01*
X81097190Y-67418942D01*
X81047092Y-67540307D01*
X81023542Y-67681504D01*
X81015248Y-67811639D01*
X81448178Y-67812824D01*
X81594178Y-67814048D01*
X81755664Y-67818396D01*
X81893618Y-67826602D01*
X82015174Y-67839463D01*
X82127470Y-67857778D01*
X82237640Y-67882343D01*
X82352822Y-67913957D01*
X82525161Y-67974133D01*
X82727868Y-68073230D01*
X82905769Y-68194614D01*
X83057110Y-68336579D01*
X83180136Y-68497417D01*
X83273092Y-68675421D01*
X83334223Y-68868884D01*
X83343797Y-68920989D01*
X83356070Y-69049957D01*
X83357615Y-69172575D01*
X83357883Y-69193861D01*
G36*
X83357883Y-69193861D02*
G01*
X83349735Y-69340146D01*
X83332125Y-69476257D01*
X83305552Y-69589638D01*
X83263152Y-69706291D01*
X83164869Y-69898534D01*
X83039243Y-70067671D01*
X82887574Y-70212550D01*
X82711164Y-70332018D01*
X82511313Y-70424923D01*
X82289322Y-70490113D01*
X82198800Y-70504816D01*
X82069445Y-70515035D01*
X81928568Y-70517333D01*
X81787943Y-70511896D01*
X81659342Y-70498909D01*
X81554536Y-70478557D01*
X81501872Y-70462533D01*
X81382262Y-70415643D01*
X81260676Y-70356112D01*
X81149658Y-70290395D01*
X81061752Y-70224948D01*
X81060671Y-70224003D01*
X81012500Y-70183160D01*
X80975438Y-70154077D01*
X80957430Y-70142996D01*
X80955461Y-70145641D01*
X80951006Y-70174218D01*
X80947911Y-70227518D01*
X80946750Y-70297210D01*
X80946750Y-70451424D01*
X80266393Y-70451424D01*
X80248282Y-70451421D01*
X80096383Y-70451155D01*
X79956971Y-70450494D01*
X79834011Y-70449486D01*
X79731472Y-70448182D01*
X79653319Y-70446629D01*
X79603518Y-70444878D01*
X79586036Y-70442977D01*
X79586443Y-70441317D01*
X79597881Y-70416801D01*
X79621855Y-70370741D01*
X79654072Y-70311442D01*
X79722108Y-70188353D01*
X79732083Y-68973113D01*
X81019322Y-68973113D01*
X81019828Y-69069127D01*
X81022280Y-69170011D01*
X81027083Y-69242931D01*
X81034588Y-69292636D01*
X81045143Y-69323873D01*
X81058721Y-69346179D01*
X81109855Y-69406985D01*
X81178368Y-69470287D01*
X81253461Y-69526689D01*
X81324333Y-69566794D01*
X81363654Y-69581509D01*
X81454195Y-69601101D01*
X81572448Y-69611118D01*
X81697125Y-69609601D01*
X81815520Y-69588998D01*
X81914342Y-69546435D01*
X81999841Y-69479995D01*
X82023893Y-69455419D01*
X82086515Y-69371609D01*
X82120397Y-69281274D01*
X82130572Y-69172575D01*
X82127815Y-69115149D01*
X82100554Y-68996931D01*
X82043283Y-68895463D01*
X81954961Y-68809603D01*
X81834544Y-68738208D01*
X81680990Y-68680138D01*
X81619086Y-68664899D01*
X81544144Y-68654465D01*
X81449830Y-68648670D01*
X81327750Y-68646722D01*
X81307919Y-68646723D01*
X81216589Y-68647838D01*
X81138137Y-68650532D01*
X81080364Y-68654453D01*
X81051072Y-68659248D01*
X81047701Y-68660804D01*
X81036803Y-68670578D01*
X81029085Y-68690218D01*
X81024012Y-68725009D01*
X81021050Y-68780233D01*
X81019665Y-68861174D01*
X81019322Y-68973113D01*
X79732083Y-68973113D01*
X79732607Y-68909281D01*
X79734168Y-68722985D01*
X79736351Y-68485389D01*
X79738643Y-68279122D01*
X79741228Y-68101266D01*
X79744293Y-67948905D01*
X79748021Y-67819120D01*
X79752598Y-67708996D01*
X79758209Y-67615614D01*
X79765040Y-67536059D01*
X79773276Y-67467412D01*
X79783101Y-67406757D01*
X79794701Y-67351176D01*
X79808261Y-67297753D01*
X79823966Y-67243570D01*
X79842002Y-67185710D01*
X79913054Y-67004322D01*
X80010357Y-66836682D01*
X80131534Y-66693156D01*
X80277696Y-66572994D01*
X80449950Y-66475444D01*
X80649408Y-66399755D01*
X80877178Y-66345177D01*
X81134370Y-66310959D01*
X81224261Y-66304154D01*
X81375653Y-66299179D01*
X81525707Y-66303659D01*
X81681447Y-66318351D01*
X81849898Y-66344008D01*
X82038086Y-66381386D01*
X82253036Y-66431242D01*
X82302721Y-66443305D01*
X82427494Y-66472989D01*
X82545754Y-66500322D01*
X82650329Y-66523687D01*
X82734047Y-66541471D01*
X82789738Y-66552060D01*
X82918226Y-66573164D01*
X82737588Y-67010973D01*
X82692405Y-67120283D01*
X82647954Y-67227393D01*
X82609816Y-67318842D01*
X82579862Y-67390157D01*
X82559964Y-67436861D01*
X82551996Y-67454482D01*
X82550743Y-67454734D01*
X82527651Y-67446867D01*
X82482246Y-67426707D01*
X82422717Y-67397841D01*
X82298989Y-67341627D01*
X82128730Y-67280164D01*
X81954471Y-67233094D01*
X81783026Y-67201601D01*
X81621210Y-67186867D01*
X81475837Y-67190074D01*
X81353722Y-67212403D01*
X81268494Y-67247833D01*
X81171702Y-67320441D01*
X81097190Y-67418942D01*
X81047092Y-67540307D01*
X81023542Y-67681504D01*
X81015248Y-67811639D01*
X81448178Y-67812824D01*
X81594178Y-67814048D01*
X81755664Y-67818396D01*
X81893618Y-67826602D01*
X82015174Y-67839463D01*
X82127470Y-67857778D01*
X82237640Y-67882343D01*
X82352822Y-67913957D01*
X82525161Y-67974133D01*
X82727868Y-68073230D01*
X82905769Y-68194614D01*
X83057110Y-68336579D01*
X83180136Y-68497417D01*
X83273092Y-68675421D01*
X83334223Y-68868884D01*
X83343797Y-68920989D01*
X83356070Y-69049957D01*
X83357615Y-69172575D01*
X83357883Y-69193861D01*
G37*
X95529321Y-70487284D02*
X95527453Y-70627977D01*
X95525134Y-70749170D01*
X95522318Y-70852364D01*
X95518957Y-70939059D01*
X95515003Y-71010756D01*
X95510410Y-71068954D01*
X95505131Y-71115154D01*
X95499118Y-71150857D01*
X95492323Y-71177561D01*
X95484701Y-71196769D01*
X95476202Y-71209979D01*
X95466782Y-71218692D01*
X95456391Y-71224409D01*
X95444983Y-71228630D01*
X95432511Y-71232854D01*
X95418927Y-71238583D01*
X95411284Y-71241454D01*
X95397264Y-71244589D01*
X95376431Y-71247461D01*
X95347314Y-71250083D01*
X95308437Y-71252464D01*
X95258327Y-71254618D01*
X95195510Y-71256554D01*
X95118513Y-71258286D01*
X95025862Y-71259824D01*
X94916083Y-71261180D01*
X94787703Y-71262365D01*
X94639247Y-71263392D01*
X94469243Y-71264270D01*
X94276216Y-71265013D01*
X94058693Y-71265631D01*
X93815201Y-71266137D01*
X93544264Y-71266540D01*
X93244410Y-71266854D01*
X92914166Y-71267089D01*
X92552057Y-71267258D01*
X92156609Y-71267371D01*
X91726349Y-71267440D01*
X91590001Y-71267453D01*
X91169079Y-71267462D01*
X90782540Y-71267409D01*
X90428927Y-71267284D01*
X90106783Y-71267076D01*
X89814654Y-71266775D01*
X89551081Y-71266370D01*
X89314609Y-71265850D01*
X89103783Y-71265206D01*
X88917144Y-71264426D01*
X88753238Y-71263500D01*
X88610608Y-71262417D01*
X88487798Y-71261167D01*
X88383351Y-71259739D01*
X88295812Y-71258122D01*
X88223723Y-71256307D01*
X88165629Y-71254282D01*
X88120073Y-71252037D01*
X88085600Y-71249561D01*
X88060752Y-71246844D01*
X88044074Y-71243875D01*
X88034110Y-71240644D01*
X88030939Y-71239206D01*
X88017960Y-71234482D01*
X88006058Y-71231032D01*
X87995185Y-71227354D01*
X87985291Y-71221945D01*
X87976330Y-71213303D01*
X87968252Y-71199926D01*
X87961009Y-71180310D01*
X87954554Y-71152955D01*
X87948838Y-71116357D01*
X87943812Y-71069014D01*
X87939429Y-71009424D01*
X87935640Y-70936083D01*
X87932397Y-70847491D01*
X87929652Y-70742144D01*
X87927356Y-70618541D01*
X87925461Y-70475178D01*
X87924839Y-70408791D01*
X88403266Y-70408791D01*
X88403791Y-70415149D01*
X88413414Y-70420301D01*
X88435157Y-70424374D01*
X88472041Y-70427494D01*
X88527086Y-70429789D01*
X88603312Y-70431383D01*
X88703741Y-70432403D01*
X88831394Y-70432975D01*
X88989291Y-70433226D01*
X89180452Y-70433281D01*
X89981207Y-70433281D01*
X89913514Y-70310817D01*
X89845822Y-70188353D01*
X89845822Y-66632353D01*
X89913514Y-66509889D01*
X89981207Y-66387424D01*
X88549886Y-66387424D01*
X88544711Y-68269746D01*
X88539536Y-70152067D01*
X88488796Y-70260432D01*
X88462044Y-70314143D01*
X88431753Y-70367948D01*
X88408877Y-70401039D01*
X88408819Y-70401103D01*
X88403266Y-70408791D01*
X87924839Y-70408791D01*
X87923919Y-70310553D01*
X87922682Y-70123164D01*
X87921701Y-69911509D01*
X87920928Y-69674085D01*
X87920315Y-69409390D01*
X87919814Y-69115922D01*
X87919377Y-68792177D01*
X87918954Y-68436654D01*
X87918498Y-68047850D01*
X87917961Y-67624264D01*
X87917892Y-67572984D01*
X87917293Y-67152081D01*
X87916720Y-66765786D01*
X87916216Y-66412596D01*
X87915823Y-66091008D01*
X87915583Y-65799518D01*
X87915539Y-65536624D01*
X87915733Y-65300822D01*
X87916207Y-65090610D01*
X87917005Y-64904484D01*
X87918167Y-64740941D01*
X87919737Y-64598479D01*
X87921757Y-64475594D01*
X87924270Y-64370783D01*
X87927317Y-64282543D01*
X87930942Y-64209371D01*
X87935186Y-64149764D01*
X87940091Y-64102219D01*
X87945701Y-64065232D01*
X87952058Y-64037302D01*
X87959204Y-64016924D01*
X87967181Y-64002595D01*
X87976032Y-63992814D01*
X87985799Y-63986075D01*
X87996525Y-63980878D01*
X88008251Y-63975717D01*
X88021021Y-63969091D01*
X88024758Y-63966980D01*
X88081298Y-63946542D01*
X88143193Y-63938141D01*
X88212965Y-63938144D01*
X88214127Y-64096891D01*
X88214422Y-64115159D01*
X88236599Y-64300851D01*
X88293081Y-64475571D01*
X88383085Y-64637467D01*
X88505825Y-64784689D01*
X88571691Y-64844735D01*
X88718347Y-64944262D01*
X88878363Y-65013666D01*
X89047078Y-65052911D01*
X89219832Y-65061961D01*
X89391965Y-65040777D01*
X89558815Y-64989323D01*
X89695973Y-64917853D01*
X90303020Y-64917853D01*
X90382850Y-64975286D01*
X90450363Y-65029265D01*
X90545496Y-65117310D01*
X90653400Y-65227654D01*
X90769990Y-65356094D01*
X90891178Y-65498424D01*
X90922387Y-65536486D01*
X90975522Y-65601767D01*
X91044976Y-65687412D01*
X91128449Y-65790564D01*
X91223639Y-65908363D01*
X91328247Y-66037952D01*
X91439970Y-66176471D01*
X91556508Y-66321063D01*
X91609960Y-66387424D01*
X91675560Y-66468868D01*
X91794825Y-66617027D01*
X91912002Y-66762684D01*
X92024789Y-66902978D01*
X92130887Y-67035051D01*
X92227994Y-67156045D01*
X92313809Y-67263102D01*
X92386031Y-67353362D01*
X92442359Y-67423967D01*
X92480492Y-67472059D01*
X92498130Y-67494779D01*
X92499585Y-67503317D01*
X92494743Y-67519556D01*
X92482195Y-67545103D01*
X92460690Y-67581771D01*
X92428973Y-67631373D01*
X92385793Y-67695719D01*
X92329898Y-67776622D01*
X92260034Y-67875895D01*
X92174950Y-67995350D01*
X92073392Y-68136798D01*
X91954109Y-68302053D01*
X91815847Y-68492925D01*
X91657355Y-68711228D01*
X91531070Y-68884995D01*
X91376998Y-69096831D01*
X91241473Y-69282864D01*
X91122917Y-69445158D01*
X91019754Y-69585778D01*
X90930408Y-69706789D01*
X90853304Y-69810256D01*
X90786865Y-69898242D01*
X90729516Y-69972814D01*
X90679679Y-70036034D01*
X90635779Y-70089969D01*
X90596240Y-70136682D01*
X90559486Y-70178238D01*
X90523940Y-70216703D01*
X90488028Y-70254139D01*
X90450171Y-70292613D01*
X90310664Y-70433281D01*
X92186250Y-70433357D01*
X92180357Y-70319699D01*
X92180072Y-70313988D01*
X92178953Y-70268551D01*
X92181074Y-70225017D01*
X92187851Y-70181000D01*
X92200705Y-70134117D01*
X92221053Y-70081982D01*
X92250313Y-70022210D01*
X92289905Y-69952418D01*
X92341246Y-69870221D01*
X92405755Y-69773233D01*
X92484850Y-69659071D01*
X92579950Y-69525349D01*
X92692474Y-69369684D01*
X92823839Y-69189689D01*
X92975465Y-68982981D01*
X93510679Y-68254335D01*
X93515394Y-69099179D01*
X93515812Y-69177986D01*
X93516549Y-69390256D01*
X93516214Y-69570805D01*
X93514412Y-69723052D01*
X93510749Y-69850412D01*
X93504829Y-69956302D01*
X93496260Y-70044139D01*
X93484644Y-70117340D01*
X93469590Y-70179322D01*
X93450700Y-70233500D01*
X93427582Y-70283293D01*
X93399840Y-70332117D01*
X93367080Y-70383388D01*
X93334149Y-70433281D01*
X95045597Y-70433281D01*
X95001389Y-70374317D01*
X94994465Y-70364989D01*
X94939114Y-70279494D01*
X94900957Y-70193068D01*
X94875901Y-70094037D01*
X94859852Y-69970728D01*
X94859411Y-69965353D01*
X94857082Y-69914491D01*
X94854980Y-69829630D01*
X94853112Y-69712710D01*
X94851489Y-69565670D01*
X94850120Y-69390450D01*
X94849013Y-69188987D01*
X94848178Y-68963222D01*
X94847625Y-68715093D01*
X94847361Y-68446539D01*
X94847396Y-68159501D01*
X94847740Y-67855916D01*
X94848401Y-67537724D01*
X94849102Y-67252305D01*
X94849851Y-66941620D01*
X94850589Y-66663650D01*
X94851408Y-66416446D01*
X94852400Y-66198061D01*
X94853659Y-66006549D01*
X94855276Y-65839961D01*
X94857345Y-65696349D01*
X94859958Y-65573768D01*
X94863208Y-65470268D01*
X94867186Y-65383903D01*
X94871987Y-65312725D01*
X94877702Y-65254787D01*
X94884425Y-65208141D01*
X94892247Y-65170840D01*
X94901261Y-65140936D01*
X94911560Y-65116482D01*
X94923237Y-65095530D01*
X94936385Y-65076133D01*
X94951095Y-65056344D01*
X94967460Y-65034215D01*
X94983289Y-65012039D01*
X95013884Y-64968193D01*
X95032210Y-64940531D01*
X95032652Y-64939373D01*
X95026253Y-64934142D01*
X95003672Y-64929777D01*
X94962395Y-64926212D01*
X94899910Y-64923378D01*
X94813705Y-64921211D01*
X94701266Y-64919641D01*
X94560081Y-64918603D01*
X94387638Y-64918029D01*
X94181423Y-64917853D01*
X93316953Y-64917853D01*
X93362514Y-64971998D01*
X93388919Y-65009187D01*
X93432871Y-65096870D01*
X93471388Y-65205923D01*
X93500786Y-65326892D01*
X93502659Y-65338376D01*
X93508234Y-65398916D01*
X93512456Y-65492480D01*
X93515336Y-65619716D01*
X93516885Y-65781270D01*
X93517114Y-65977792D01*
X93516036Y-66209928D01*
X93510679Y-66984932D01*
X92957322Y-66285166D01*
X92941472Y-66265122D01*
X92801146Y-66087476D01*
X92681346Y-65935338D01*
X92580163Y-65806122D01*
X92495693Y-65697241D01*
X92426028Y-65606109D01*
X92369261Y-65530138D01*
X92323487Y-65466741D01*
X92286799Y-65413332D01*
X92257289Y-65367325D01*
X92233052Y-65326131D01*
X92212181Y-65287165D01*
X92192770Y-65247839D01*
X92162908Y-65178229D01*
X92143617Y-65104796D01*
X92138485Y-65025589D01*
X92139001Y-64917853D01*
X90303020Y-64917853D01*
X89695973Y-64917853D01*
X89715723Y-64907562D01*
X89858029Y-64795456D01*
X89897588Y-64755934D01*
X90014513Y-64609599D01*
X90097481Y-64450791D01*
X90146936Y-64278487D01*
X90163322Y-64091662D01*
X90163322Y-63938139D01*
X92767723Y-63938138D01*
X92930433Y-63938131D01*
X93279982Y-63938084D01*
X93595749Y-63938050D01*
X93879481Y-63938097D01*
X94132924Y-63938296D01*
X94357824Y-63938715D01*
X94555927Y-63939422D01*
X94728980Y-63940489D01*
X94878728Y-63941982D01*
X95006918Y-63943971D01*
X95115296Y-63946526D01*
X95205608Y-63949715D01*
X95279600Y-63953607D01*
X95339018Y-63958272D01*
X95385609Y-63963778D01*
X95421119Y-63970195D01*
X95447293Y-63977591D01*
X95465879Y-63986035D01*
X95478621Y-63995597D01*
X95487267Y-64006346D01*
X95493563Y-64018350D01*
X95499253Y-64031679D01*
X95506086Y-64046402D01*
X95506209Y-64046642D01*
X95509526Y-64056280D01*
X95512569Y-64072417D01*
X95515349Y-64096545D01*
X95517878Y-64130151D01*
X95520167Y-64174725D01*
X95522227Y-64231757D01*
X95524072Y-64302735D01*
X95525710Y-64389149D01*
X95527156Y-64492488D01*
X95528419Y-64614242D01*
X95529512Y-64755899D01*
X95530446Y-64918950D01*
X95531233Y-65104882D01*
X95531884Y-65315186D01*
X95532410Y-65551351D01*
X95532824Y-65814866D01*
X95533137Y-66107221D01*
X95533360Y-66429904D01*
X95533505Y-66784405D01*
X95533584Y-67172213D01*
X95533607Y-67594817D01*
X95533608Y-67677838D01*
X95533648Y-68096038D01*
X95533710Y-68479737D01*
X95533747Y-68830433D01*
X95533710Y-69149628D01*
X95533555Y-69438822D01*
X95533232Y-69699515D01*
X95532694Y-69933208D01*
X95531894Y-70141400D01*
X95530785Y-70325592D01*
X95529809Y-70433281D01*
X95529321Y-70487284D01*
G36*
X95529321Y-70487284D02*
G01*
X95527453Y-70627977D01*
X95525134Y-70749170D01*
X95522318Y-70852364D01*
X95518957Y-70939059D01*
X95515003Y-71010756D01*
X95510410Y-71068954D01*
X95505131Y-71115154D01*
X95499118Y-71150857D01*
X95492323Y-71177561D01*
X95484701Y-71196769D01*
X95476202Y-71209979D01*
X95466782Y-71218692D01*
X95456391Y-71224409D01*
X95444983Y-71228630D01*
X95432511Y-71232854D01*
X95418927Y-71238583D01*
X95411284Y-71241454D01*
X95397264Y-71244589D01*
X95376431Y-71247461D01*
X95347314Y-71250083D01*
X95308437Y-71252464D01*
X95258327Y-71254618D01*
X95195510Y-71256554D01*
X95118513Y-71258286D01*
X95025862Y-71259824D01*
X94916083Y-71261180D01*
X94787703Y-71262365D01*
X94639247Y-71263392D01*
X94469243Y-71264270D01*
X94276216Y-71265013D01*
X94058693Y-71265631D01*
X93815201Y-71266137D01*
X93544264Y-71266540D01*
X93244410Y-71266854D01*
X92914166Y-71267089D01*
X92552057Y-71267258D01*
X92156609Y-71267371D01*
X91726349Y-71267440D01*
X91590001Y-71267453D01*
X91169079Y-71267462D01*
X90782540Y-71267409D01*
X90428927Y-71267284D01*
X90106783Y-71267076D01*
X89814654Y-71266775D01*
X89551081Y-71266370D01*
X89314609Y-71265850D01*
X89103783Y-71265206D01*
X88917144Y-71264426D01*
X88753238Y-71263500D01*
X88610608Y-71262417D01*
X88487798Y-71261167D01*
X88383351Y-71259739D01*
X88295812Y-71258122D01*
X88223723Y-71256307D01*
X88165629Y-71254282D01*
X88120073Y-71252037D01*
X88085600Y-71249561D01*
X88060752Y-71246844D01*
X88044074Y-71243875D01*
X88034110Y-71240644D01*
X88030939Y-71239206D01*
X88017960Y-71234482D01*
X88006058Y-71231032D01*
X87995185Y-71227354D01*
X87985291Y-71221945D01*
X87976330Y-71213303D01*
X87968252Y-71199926D01*
X87961009Y-71180310D01*
X87954554Y-71152955D01*
X87948838Y-71116357D01*
X87943812Y-71069014D01*
X87939429Y-71009424D01*
X87935640Y-70936083D01*
X87932397Y-70847491D01*
X87929652Y-70742144D01*
X87927356Y-70618541D01*
X87925461Y-70475178D01*
X87924839Y-70408791D01*
X88403266Y-70408791D01*
X88403791Y-70415149D01*
X88413414Y-70420301D01*
X88435157Y-70424374D01*
X88472041Y-70427494D01*
X88527086Y-70429789D01*
X88603312Y-70431383D01*
X88703741Y-70432403D01*
X88831394Y-70432975D01*
X88989291Y-70433226D01*
X89180452Y-70433281D01*
X89981207Y-70433281D01*
X89913514Y-70310817D01*
X89845822Y-70188353D01*
X89845822Y-66632353D01*
X89913514Y-66509889D01*
X89981207Y-66387424D01*
X88549886Y-66387424D01*
X88544711Y-68269746D01*
X88539536Y-70152067D01*
X88488796Y-70260432D01*
X88462044Y-70314143D01*
X88431753Y-70367948D01*
X88408877Y-70401039D01*
X88408819Y-70401103D01*
X88403266Y-70408791D01*
X87924839Y-70408791D01*
X87923919Y-70310553D01*
X87922682Y-70123164D01*
X87921701Y-69911509D01*
X87920928Y-69674085D01*
X87920315Y-69409390D01*
X87919814Y-69115922D01*
X87919377Y-68792177D01*
X87918954Y-68436654D01*
X87918498Y-68047850D01*
X87917961Y-67624264D01*
X87917892Y-67572984D01*
X87917293Y-67152081D01*
X87916720Y-66765786D01*
X87916216Y-66412596D01*
X87915823Y-66091008D01*
X87915583Y-65799518D01*
X87915539Y-65536624D01*
X87915733Y-65300822D01*
X87916207Y-65090610D01*
X87917005Y-64904484D01*
X87918167Y-64740941D01*
X87919737Y-64598479D01*
X87921757Y-64475594D01*
X87924270Y-64370783D01*
X87927317Y-64282543D01*
X87930942Y-64209371D01*
X87935186Y-64149764D01*
X87940091Y-64102219D01*
X87945701Y-64065232D01*
X87952058Y-64037302D01*
X87959204Y-64016924D01*
X87967181Y-64002595D01*
X87976032Y-63992814D01*
X87985799Y-63986075D01*
X87996525Y-63980878D01*
X88008251Y-63975717D01*
X88021021Y-63969091D01*
X88024758Y-63966980D01*
X88081298Y-63946542D01*
X88143193Y-63938141D01*
X88212965Y-63938144D01*
X88214127Y-64096891D01*
X88214422Y-64115159D01*
X88236599Y-64300851D01*
X88293081Y-64475571D01*
X88383085Y-64637467D01*
X88505825Y-64784689D01*
X88571691Y-64844735D01*
X88718347Y-64944262D01*
X88878363Y-65013666D01*
X89047078Y-65052911D01*
X89219832Y-65061961D01*
X89391965Y-65040777D01*
X89558815Y-64989323D01*
X89695973Y-64917853D01*
X90303020Y-64917853D01*
X90382850Y-64975286D01*
X90450363Y-65029265D01*
X90545496Y-65117310D01*
X90653400Y-65227654D01*
X90769990Y-65356094D01*
X90891178Y-65498424D01*
X90922387Y-65536486D01*
X90975522Y-65601767D01*
X91044976Y-65687412D01*
X91128449Y-65790564D01*
X91223639Y-65908363D01*
X91328247Y-66037952D01*
X91439970Y-66176471D01*
X91556508Y-66321063D01*
X91609960Y-66387424D01*
X91675560Y-66468868D01*
X91794825Y-66617027D01*
X91912002Y-66762684D01*
X92024789Y-66902978D01*
X92130887Y-67035051D01*
X92227994Y-67156045D01*
X92313809Y-67263102D01*
X92386031Y-67353362D01*
X92442359Y-67423967D01*
X92480492Y-67472059D01*
X92498130Y-67494779D01*
X92499585Y-67503317D01*
X92494743Y-67519556D01*
X92482195Y-67545103D01*
X92460690Y-67581771D01*
X92428973Y-67631373D01*
X92385793Y-67695719D01*
X92329898Y-67776622D01*
X92260034Y-67875895D01*
X92174950Y-67995350D01*
X92073392Y-68136798D01*
X91954109Y-68302053D01*
X91815847Y-68492925D01*
X91657355Y-68711228D01*
X91531070Y-68884995D01*
X91376998Y-69096831D01*
X91241473Y-69282864D01*
X91122917Y-69445158D01*
X91019754Y-69585778D01*
X90930408Y-69706789D01*
X90853304Y-69810256D01*
X90786865Y-69898242D01*
X90729516Y-69972814D01*
X90679679Y-70036034D01*
X90635779Y-70089969D01*
X90596240Y-70136682D01*
X90559486Y-70178238D01*
X90523940Y-70216703D01*
X90488028Y-70254139D01*
X90450171Y-70292613D01*
X90310664Y-70433281D01*
X92186250Y-70433357D01*
X92180357Y-70319699D01*
X92180072Y-70313988D01*
X92178953Y-70268551D01*
X92181074Y-70225017D01*
X92187851Y-70181000D01*
X92200705Y-70134117D01*
X92221053Y-70081982D01*
X92250313Y-70022210D01*
X92289905Y-69952418D01*
X92341246Y-69870221D01*
X92405755Y-69773233D01*
X92484850Y-69659071D01*
X92579950Y-69525349D01*
X92692474Y-69369684D01*
X92823839Y-69189689D01*
X92975465Y-68982981D01*
X93510679Y-68254335D01*
X93515394Y-69099179D01*
X93515812Y-69177986D01*
X93516549Y-69390256D01*
X93516214Y-69570805D01*
X93514412Y-69723052D01*
X93510749Y-69850412D01*
X93504829Y-69956302D01*
X93496260Y-70044139D01*
X93484644Y-70117340D01*
X93469590Y-70179322D01*
X93450700Y-70233500D01*
X93427582Y-70283293D01*
X93399840Y-70332117D01*
X93367080Y-70383388D01*
X93334149Y-70433281D01*
X95045597Y-70433281D01*
X95001389Y-70374317D01*
X94994465Y-70364989D01*
X94939114Y-70279494D01*
X94900957Y-70193068D01*
X94875901Y-70094037D01*
X94859852Y-69970728D01*
X94859411Y-69965353D01*
X94857082Y-69914491D01*
X94854980Y-69829630D01*
X94853112Y-69712710D01*
X94851489Y-69565670D01*
X94850120Y-69390450D01*
X94849013Y-69188987D01*
X94848178Y-68963222D01*
X94847625Y-68715093D01*
X94847361Y-68446539D01*
X94847396Y-68159501D01*
X94847740Y-67855916D01*
X94848401Y-67537724D01*
X94849102Y-67252305D01*
X94849851Y-66941620D01*
X94850589Y-66663650D01*
X94851408Y-66416446D01*
X94852400Y-66198061D01*
X94853659Y-66006549D01*
X94855276Y-65839961D01*
X94857345Y-65696349D01*
X94859958Y-65573768D01*
X94863208Y-65470268D01*
X94867186Y-65383903D01*
X94871987Y-65312725D01*
X94877702Y-65254787D01*
X94884425Y-65208141D01*
X94892247Y-65170840D01*
X94901261Y-65140936D01*
X94911560Y-65116482D01*
X94923237Y-65095530D01*
X94936385Y-65076133D01*
X94951095Y-65056344D01*
X94967460Y-65034215D01*
X94983289Y-65012039D01*
X95013884Y-64968193D01*
X95032210Y-64940531D01*
X95032652Y-64939373D01*
X95026253Y-64934142D01*
X95003672Y-64929777D01*
X94962395Y-64926212D01*
X94899910Y-64923378D01*
X94813705Y-64921211D01*
X94701266Y-64919641D01*
X94560081Y-64918603D01*
X94387638Y-64918029D01*
X94181423Y-64917853D01*
X93316953Y-64917853D01*
X93362514Y-64971998D01*
X93388919Y-65009187D01*
X93432871Y-65096870D01*
X93471388Y-65205923D01*
X93500786Y-65326892D01*
X93502659Y-65338376D01*
X93508234Y-65398916D01*
X93512456Y-65492480D01*
X93515336Y-65619716D01*
X93516885Y-65781270D01*
X93517114Y-65977792D01*
X93516036Y-66209928D01*
X93510679Y-66984932D01*
X92957322Y-66285166D01*
X92941472Y-66265122D01*
X92801146Y-66087476D01*
X92681346Y-65935338D01*
X92580163Y-65806122D01*
X92495693Y-65697241D01*
X92426028Y-65606109D01*
X92369261Y-65530138D01*
X92323487Y-65466741D01*
X92286799Y-65413332D01*
X92257289Y-65367325D01*
X92233052Y-65326131D01*
X92212181Y-65287165D01*
X92192770Y-65247839D01*
X92162908Y-65178229D01*
X92143617Y-65104796D01*
X92138485Y-65025589D01*
X92139001Y-64917853D01*
X90303020Y-64917853D01*
X89695973Y-64917853D01*
X89715723Y-64907562D01*
X89858029Y-64795456D01*
X89897588Y-64755934D01*
X90014513Y-64609599D01*
X90097481Y-64450791D01*
X90146936Y-64278487D01*
X90163322Y-64091662D01*
X90163322Y-63938139D01*
X92767723Y-63938138D01*
X92930433Y-63938131D01*
X93279982Y-63938084D01*
X93595749Y-63938050D01*
X93879481Y-63938097D01*
X94132924Y-63938296D01*
X94357824Y-63938715D01*
X94555927Y-63939422D01*
X94728980Y-63940489D01*
X94878728Y-63941982D01*
X95006918Y-63943971D01*
X95115296Y-63946526D01*
X95205608Y-63949715D01*
X95279600Y-63953607D01*
X95339018Y-63958272D01*
X95385609Y-63963778D01*
X95421119Y-63970195D01*
X95447293Y-63977591D01*
X95465879Y-63986035D01*
X95478621Y-63995597D01*
X95487267Y-64006346D01*
X95493563Y-64018350D01*
X95499253Y-64031679D01*
X95506086Y-64046402D01*
X95506209Y-64046642D01*
X95509526Y-64056280D01*
X95512569Y-64072417D01*
X95515349Y-64096545D01*
X95517878Y-64130151D01*
X95520167Y-64174725D01*
X95522227Y-64231757D01*
X95524072Y-64302735D01*
X95525710Y-64389149D01*
X95527156Y-64492488D01*
X95528419Y-64614242D01*
X95529512Y-64755899D01*
X95530446Y-64918950D01*
X95531233Y-65104882D01*
X95531884Y-65315186D01*
X95532410Y-65551351D01*
X95532824Y-65814866D01*
X95533137Y-66107221D01*
X95533360Y-66429904D01*
X95533505Y-66784405D01*
X95533584Y-67172213D01*
X95533607Y-67594817D01*
X95533608Y-67677838D01*
X95533648Y-68096038D01*
X95533710Y-68479737D01*
X95533747Y-68830433D01*
X95533710Y-69149628D01*
X95533555Y-69438822D01*
X95533232Y-69699515D01*
X95532694Y-69933208D01*
X95531894Y-70141400D01*
X95530785Y-70325592D01*
X95529809Y-70433281D01*
X95529321Y-70487284D01*
G37*
%TD*%
%LPC*%
D12*
%TO.C,U4*%
X66800000Y-64100000D03*
X66800000Y-71300000D03*
%TD*%
D13*
%TO.C,H3*%
X66500000Y-84500000D03*
%TD*%
D14*
%TO.C,C2*%
X96000000Y-57200000D03*
D15*
X91000000Y-57200000D03*
%TD*%
D13*
%TO.C,H2*%
X104000000Y-54000000D03*
%TD*%
D16*
%TO.C,J2*%
X72520000Y-86100000D03*
D17*
X75060000Y-86100000D03*
X77600000Y-86100000D03*
X80140000Y-86100000D03*
%TD*%
D13*
%TO.C,H1*%
X66500000Y-54000000D03*
%TD*%
%TO.C,H4*%
X104000000Y-84600000D03*
%TD*%
D18*
%TO.C,U5*%
X103500000Y-70800000D03*
X103500000Y-63600000D03*
%TD*%
%LPD*%
M02*
