%TF.GenerationSoftware,KiCad,Pcbnew,8.0.5*%
%TF.CreationDate,2024-09-18T15:37:43+10:00*%
%TF.ProjectId,mppt-board,6d707074-2d62-46f6-9172-642e6b696361,rev?*%
%TF.SameCoordinates,Original*%
%TF.FileFunction,Copper,L4,Inr*%
%TF.FilePolarity,Positive*%
%FSLAX46Y46*%
G04 Gerber Fmt 4.6, Leading zero omitted, Abs format (unit mm)*
G04 Created by KiCad (PCBNEW 8.0.5) date 2024-09-18 15:37:43*
%MOMM*%
%LPD*%
G01*
G04 APERTURE LIST*
%TA.AperFunction,ComponentPad*%
%ADD10C,6.400000*%
%TD*%
%TA.AperFunction,ComponentPad*%
%ADD11R,2.400000X2.400000*%
%TD*%
%TA.AperFunction,ComponentPad*%
%ADD12C,2.400000*%
%TD*%
%TA.AperFunction,ComponentPad*%
%ADD13R,1.700000X1.700000*%
%TD*%
%TA.AperFunction,ComponentPad*%
%ADD14O,1.700000X1.700000*%
%TD*%
%TA.AperFunction,ViaPad*%
%ADD15C,0.600000*%
%TD*%
%TA.AperFunction,Conductor*%
%ADD16C,0.200000*%
%TD*%
G04 APERTURE END LIST*
D10*
%TO.N,GND*%
%TO.C,H3*%
X66500000Y-94000000D03*
%TD*%
D11*
%TO.N,Net-(D1-A)*%
%TO.C,C2*%
X96000000Y-57500000D03*
D12*
%TO.N,GND*%
X91000000Y-57500000D03*
%TD*%
D10*
%TO.N,GND*%
%TO.C,H2*%
X104000000Y-54000000D03*
%TD*%
D13*
%TO.N,VCC*%
%TO.C,J2*%
X66500000Y-77920000D03*
D14*
%TO.N,/swclk*%
X66500000Y-80460000D03*
%TO.N,/swdio*%
X66500000Y-83000000D03*
%TO.N,GND*%
X66500000Y-85540000D03*
%TD*%
D13*
%TO.N,VBUS*%
%TO.C,SC1*%
X65000000Y-64960000D03*
D14*
%TO.N,Net-(SC1--)*%
X65000000Y-67500000D03*
%TD*%
D10*
%TO.N,GND*%
%TO.C,H1*%
X66500000Y-54000000D03*
%TD*%
D13*
%TO.N,Net-(D1-A)*%
%TO.C,J1*%
X105725000Y-70250000D03*
D14*
%TO.N,GND*%
X105725000Y-67710000D03*
%TD*%
D10*
%TO.N,GND*%
%TO.C,H4*%
X104000000Y-94000000D03*
%TD*%
D15*
%TO.N,*%
X107500000Y-68500000D03*
X107500000Y-67250000D03*
X104750000Y-65750000D03*
X105750000Y-65750000D03*
%TO.N,GND*%
X106680000Y-60960000D03*
X88900000Y-63500000D03*
X66040000Y-60960000D03*
X98000000Y-93000000D03*
X81280000Y-96520000D03*
X87500000Y-71750000D03*
X91000000Y-55000000D03*
X66750000Y-75000000D03*
X81280000Y-81280000D03*
X106680000Y-88900000D03*
X71500000Y-53000000D03*
X85750000Y-55000000D03*
X99060000Y-91440000D03*
X93000000Y-59500000D03*
X86360000Y-50800000D03*
X81280000Y-76200000D03*
X87250000Y-73250000D03*
X70750000Y-65000000D03*
X101600000Y-88900000D03*
X89000000Y-74500000D03*
X86000000Y-72750000D03*
X106680000Y-66040000D03*
X103000000Y-80500000D03*
X71120000Y-91440000D03*
X88250000Y-57500000D03*
X93250000Y-55250000D03*
X86360000Y-66040000D03*
X66750000Y-74000000D03*
X86360000Y-96520000D03*
X86360000Y-81280000D03*
X93250000Y-57250000D03*
X70500000Y-64000000D03*
X91440000Y-66040000D03*
X67500000Y-75500000D03*
X75000000Y-58500000D03*
X89000000Y-72000000D03*
X76750000Y-72750000D03*
X86360000Y-60960000D03*
X86500000Y-55000000D03*
X97250000Y-83500000D03*
X86360000Y-86360000D03*
X81280000Y-86360000D03*
X83750000Y-64250000D03*
X88750000Y-59750000D03*
X84750000Y-65000000D03*
X74750000Y-56000000D03*
X72500000Y-71000000D03*
X93500000Y-97500000D03*
X97750000Y-80500000D03*
X76750000Y-73750000D03*
X73000000Y-51750000D03*
X101600000Y-50800000D03*
X74750000Y-57250000D03*
X71500000Y-72250000D03*
X71120000Y-55880000D03*
X73250000Y-74500000D03*
X68250000Y-75500000D03*
X88750000Y-55500000D03*
X100250000Y-80500000D03*
X71120000Y-76200000D03*
X77000000Y-59750000D03*
X69000000Y-75500000D03*
X96520000Y-66040000D03*
X74750000Y-59500000D03*
X81280000Y-91440000D03*
X87750000Y-53500000D03*
X75000000Y-97750000D03*
X86500000Y-52000000D03*
X72000000Y-65250000D03*
X84750000Y-66000000D03*
X104140000Y-88900000D03*
X76000000Y-59750000D03*
X103000000Y-75000000D03*
X71120000Y-86360000D03*
X71120000Y-81280000D03*
X96520000Y-50800000D03*
X72500000Y-70000000D03*
X91440000Y-50800000D03*
X86360000Y-91440000D03*
X99060000Y-88900000D03*
X71120000Y-50800000D03*
X86360000Y-76200000D03*
X70500000Y-96750000D03*
X78500000Y-73000000D03*
X99060000Y-96520000D03*
X91250000Y-60000000D03*
X66040000Y-71120000D03*
%TO.N,VCC*%
X81750000Y-60550000D03*
X70500000Y-61500000D03*
X82450000Y-60550000D03*
X81800000Y-59900000D03*
X82450000Y-59900000D03*
%TO.N,/V_{drop}*%
X76500000Y-61000000D03*
X81000000Y-70500000D03*
%TO.N,/swdio*%
X77900000Y-62000000D03*
%TO.N,/swclk*%
X77750000Y-61000000D03*
%TD*%
D16*
%TO.N,/swdio*%
X66575000Y-83000000D02*
X66500000Y-83000000D01*
X76161611Y-66088388D02*
X76125000Y-66125000D01*
X66703033Y-82946966D02*
X74406207Y-75243792D01*
X76000000Y-66426776D02*
X76000000Y-71396036D01*
X77900000Y-62000000D02*
X77900000Y-63610050D01*
X77199999Y-65299999D02*
X76588388Y-65911611D01*
X66703033Y-82946966D02*
G75*
G02*
X66575000Y-82999989I-128033J128066D01*
G01*
X76000000Y-71396036D02*
G75*
G02*
X74406200Y-75243785I-5441600J36D01*
G01*
X76588388Y-65911611D02*
G75*
G02*
X76375000Y-65999992I-213388J213411D01*
G01*
X76125000Y-66125000D02*
G75*
G03*
X75999990Y-66426776I301800J-301800D01*
G01*
X76375000Y-66000000D02*
G75*
G03*
X76161607Y-66088384I0J-301800D01*
G01*
X77900000Y-63610050D02*
G75*
G02*
X77199985Y-65299985I-2390000J50D01*
G01*
%TO.N,/swclk*%
X77250000Y-63012563D02*
X77250000Y-61853553D01*
X69750000Y-77375000D02*
X69750000Y-77540847D01*
X77750000Y-61000000D02*
X77500000Y-61250000D01*
X67270000Y-80460000D02*
X66500000Y-80460000D01*
X75500000Y-68125000D02*
X75500000Y-67237436D01*
X73997397Y-71752601D02*
X70722271Y-75027728D01*
X68584472Y-79915527D02*
X68895000Y-79605000D01*
X77250000Y-63012563D02*
G75*
G02*
X76375032Y-65125032I-2987500J-37D01*
G01*
X75500000Y-68125000D02*
G75*
G02*
X73997397Y-71752601I-5130200J0D01*
G01*
X76375000Y-65125000D02*
G75*
G03*
X75500015Y-67237436I2112400J-2112400D01*
G01*
X68584472Y-79915527D02*
G75*
G02*
X67270000Y-80460012I-1314472J1314427D01*
G01*
X69750000Y-77540847D02*
G75*
G02*
X68894986Y-79604986I-2919200J47D01*
G01*
X77500000Y-61250000D02*
G75*
G03*
X77250022Y-61853553I603500J-603500D01*
G01*
X70722271Y-75027728D02*
G75*
G03*
X69749987Y-77375000I2347229J-2347272D01*
G01*
%TD*%
%TA.AperFunction,Conductor*%
%TO.N,GND*%
G36*
X75354677Y-71229392D02*
G01*
X75393701Y-71287348D01*
X75399500Y-71324823D01*
X75399500Y-71393605D01*
X75399404Y-71398474D01*
X75384765Y-71770988D01*
X75384001Y-71780694D01*
X75340467Y-72148496D01*
X75338944Y-72158113D01*
X75266685Y-72521374D01*
X75264412Y-72530841D01*
X75163880Y-72887298D01*
X75160872Y-72896558D01*
X75032674Y-73244049D01*
X75028948Y-73253044D01*
X74873883Y-73589404D01*
X74869464Y-73598075D01*
X74688492Y-73921223D01*
X74683411Y-73929516D01*
X74477639Y-74237475D01*
X74471916Y-74245351D01*
X74242619Y-74536214D01*
X74236296Y-74543618D01*
X73983037Y-74817591D01*
X73979662Y-74821101D01*
X70499801Y-78300961D01*
X70438478Y-78334446D01*
X70368786Y-78329462D01*
X70312853Y-78287590D01*
X70288436Y-78222126D01*
X70290502Y-78189091D01*
X70316597Y-78057916D01*
X70350498Y-77713765D01*
X70350498Y-77629900D01*
X70350500Y-77629893D01*
X70350500Y-77537353D01*
X70350501Y-77467943D01*
X70350500Y-77467938D01*
X70350500Y-77378480D01*
X70350695Y-77371527D01*
X70360112Y-77203843D01*
X70367207Y-77077506D01*
X70368761Y-77063709D01*
X70417506Y-76776826D01*
X70420600Y-76763271D01*
X70474578Y-76575909D01*
X70501162Y-76483635D01*
X70505742Y-76470544D01*
X70617115Y-76201670D01*
X70623132Y-76189177D01*
X70763902Y-75934475D01*
X70771287Y-75922722D01*
X70939691Y-75685384D01*
X70948343Y-75674534D01*
X71144753Y-75454754D01*
X71149492Y-75449742D01*
X71198443Y-75400792D01*
X71198443Y-75400790D01*
X71208647Y-75390587D01*
X71208651Y-75390582D01*
X74422014Y-72177219D01*
X74422015Y-72177219D01*
X74581227Y-72018007D01*
X74873687Y-71675581D01*
X75138378Y-71311265D01*
X75169774Y-71260030D01*
X75221584Y-71213158D01*
X75290514Y-71201735D01*
X75354677Y-71229392D01*
G37*
%TD.AperFunction*%
%TA.AperFunction,Conductor*%
G36*
X103502702Y-50000617D02*
G01*
X103886771Y-50017386D01*
X103897504Y-50018326D01*
X104191114Y-50056980D01*
X104255009Y-50085247D01*
X104293480Y-50143571D01*
X104294311Y-50213436D01*
X104257239Y-50272659D01*
X104194033Y-50302438D01*
X104168438Y-50303749D01*
X104000002Y-50294922D01*
X103999999Y-50294922D01*
X103612712Y-50315219D01*
X103229676Y-50375886D01*
X103229669Y-50375887D01*
X102855063Y-50476262D01*
X102493005Y-50615244D01*
X102147456Y-50791310D01*
X101822206Y-51002531D01*
X101564648Y-51211095D01*
X101564648Y-51211096D01*
X103059301Y-52705748D01*
X102957670Y-52779588D01*
X102779588Y-52957670D01*
X102705748Y-53059300D01*
X101211096Y-51564648D01*
X101211095Y-51564648D01*
X101002531Y-51822206D01*
X100791310Y-52147456D01*
X100615244Y-52493005D01*
X100476262Y-52855063D01*
X100375887Y-53229669D01*
X100375886Y-53229676D01*
X100315219Y-53612712D01*
X100294922Y-53999999D01*
X100294922Y-54000000D01*
X100315219Y-54387287D01*
X100375886Y-54770323D01*
X100375887Y-54770330D01*
X100476262Y-55144936D01*
X100615244Y-55506994D01*
X100791310Y-55852543D01*
X101002531Y-56177793D01*
X101211095Y-56435350D01*
X101211096Y-56435350D01*
X102705748Y-54940698D01*
X102779588Y-55042330D01*
X102957670Y-55220412D01*
X103059300Y-55294251D01*
X101564648Y-56788903D01*
X101564649Y-56788904D01*
X101822206Y-56997468D01*
X102147456Y-57208689D01*
X102493005Y-57384755D01*
X102855063Y-57523737D01*
X103229669Y-57624112D01*
X103229676Y-57624113D01*
X103612712Y-57684780D01*
X103999999Y-57705078D01*
X104000001Y-57705078D01*
X104387287Y-57684780D01*
X104770323Y-57624113D01*
X104770330Y-57624112D01*
X105144936Y-57523737D01*
X105506994Y-57384755D01*
X105852543Y-57208689D01*
X106177783Y-56997476D01*
X106177785Y-56997475D01*
X106435349Y-56788902D01*
X104940698Y-55294251D01*
X105042330Y-55220412D01*
X105220412Y-55042330D01*
X105294251Y-54940698D01*
X106788902Y-56435349D01*
X106997475Y-56177785D01*
X106997476Y-56177783D01*
X107208689Y-55852543D01*
X107384755Y-55506994D01*
X107523737Y-55144936D01*
X107624112Y-54770330D01*
X107624113Y-54770323D01*
X107684780Y-54387287D01*
X107705078Y-54000000D01*
X107705078Y-53999999D01*
X107696250Y-53831562D01*
X107712399Y-53763584D01*
X107762736Y-53715128D01*
X107831279Y-53701579D01*
X107896267Y-53727237D01*
X107937066Y-53783958D01*
X107943019Y-53808886D01*
X107981671Y-54102472D01*
X107982614Y-54113249D01*
X107999382Y-54497297D01*
X107999500Y-54502706D01*
X107999500Y-66401928D01*
X107979815Y-66468967D01*
X107927011Y-66514722D01*
X107857853Y-66524666D01*
X107834546Y-66518970D01*
X107679257Y-66464632D01*
X107679249Y-66464630D01*
X107500004Y-66444435D01*
X107499996Y-66444435D01*
X107320750Y-66464630D01*
X107320745Y-66464631D01*
X107150476Y-66524211D01*
X106997737Y-66620184D01*
X106870181Y-66747740D01*
X106868731Y-66749559D01*
X106867497Y-66750424D01*
X106865260Y-66752662D01*
X106864867Y-66752269D01*
X106811539Y-66789695D01*
X106741728Y-66792540D01*
X106684109Y-66759921D01*
X106596078Y-66671891D01*
X106402578Y-66536399D01*
X106353774Y-66513642D01*
X106301335Y-66467470D01*
X106282183Y-66400276D01*
X106302399Y-66333395D01*
X106318489Y-66313588D01*
X106379816Y-66252262D01*
X106475789Y-66099522D01*
X106535368Y-65929255D01*
X106535369Y-65929249D01*
X106555565Y-65750003D01*
X106555565Y-65749996D01*
X106535369Y-65570750D01*
X106535368Y-65570745D01*
X106475788Y-65400476D01*
X106379815Y-65247737D01*
X106252262Y-65120184D01*
X106099523Y-65024211D01*
X105929254Y-64964631D01*
X105929249Y-64964630D01*
X105750004Y-64944435D01*
X105749996Y-64944435D01*
X105570750Y-64964630D01*
X105570737Y-64964633D01*
X105400479Y-65024209D01*
X105315971Y-65077309D01*
X105248734Y-65096309D01*
X105184029Y-65077309D01*
X105099520Y-65024209D01*
X104929262Y-64964633D01*
X104929249Y-64964630D01*
X104750004Y-64944435D01*
X104749996Y-64944435D01*
X104570750Y-64964630D01*
X104570745Y-64964631D01*
X104400476Y-65024211D01*
X104247737Y-65120184D01*
X104120184Y-65247737D01*
X104024211Y-65400476D01*
X103964631Y-65570745D01*
X103964630Y-65570750D01*
X103944435Y-65749996D01*
X103944435Y-65750003D01*
X103964630Y-65929249D01*
X103964631Y-65929254D01*
X104024211Y-66099523D01*
X104066952Y-66167544D01*
X104120184Y-66252262D01*
X104247738Y-66379816D01*
X104338080Y-66436582D01*
X104391148Y-66469927D01*
X104400478Y-66475789D01*
X104567967Y-66534396D01*
X104570745Y-66535368D01*
X104570750Y-66535369D01*
X104647308Y-66543994D01*
X104692073Y-66549038D01*
X104756488Y-66576104D01*
X104796043Y-66633698D01*
X104798182Y-66703535D01*
X104765873Y-66759939D01*
X104686886Y-66838926D01*
X104551400Y-67032420D01*
X104551399Y-67032422D01*
X104451570Y-67246507D01*
X104451567Y-67246513D01*
X104394364Y-67459999D01*
X104394364Y-67460000D01*
X105291988Y-67460000D01*
X105259075Y-67517007D01*
X105225000Y-67644174D01*
X105225000Y-67775826D01*
X105259075Y-67902993D01*
X105291988Y-67960000D01*
X104394364Y-67960000D01*
X104451567Y-68173486D01*
X104451570Y-68173492D01*
X104551399Y-68387578D01*
X104686894Y-68581082D01*
X104808946Y-68703134D01*
X104842431Y-68764457D01*
X104837447Y-68834149D01*
X104795575Y-68890082D01*
X104764598Y-68906997D01*
X104632671Y-68956202D01*
X104632664Y-68956206D01*
X104517455Y-69042452D01*
X104517452Y-69042455D01*
X104431206Y-69157664D01*
X104431202Y-69157671D01*
X104380908Y-69292517D01*
X104374501Y-69352116D01*
X104374500Y-69352135D01*
X104374500Y-71147870D01*
X104374501Y-71147876D01*
X104380908Y-71207483D01*
X104431202Y-71342328D01*
X104431206Y-71342335D01*
X104517452Y-71457544D01*
X104517455Y-71457547D01*
X104632664Y-71543793D01*
X104632671Y-71543797D01*
X104767517Y-71594091D01*
X104767516Y-71594091D01*
X104774444Y-71594835D01*
X104827127Y-71600500D01*
X106622872Y-71600499D01*
X106682483Y-71594091D01*
X106817331Y-71543796D01*
X106932546Y-71457546D01*
X107018796Y-71342331D01*
X107069091Y-71207483D01*
X107075500Y-71147873D01*
X107075499Y-69374313D01*
X107095184Y-69307275D01*
X107147987Y-69261520D01*
X107217146Y-69251576D01*
X107240452Y-69257272D01*
X107264154Y-69265566D01*
X107320740Y-69285367D01*
X107320750Y-69285369D01*
X107499996Y-69305565D01*
X107500000Y-69305565D01*
X107500004Y-69305565D01*
X107679249Y-69285369D01*
X107679251Y-69285368D01*
X107679255Y-69285368D01*
X107679258Y-69285366D01*
X107679262Y-69285366D01*
X107834545Y-69231030D01*
X107904324Y-69227468D01*
X107964951Y-69262196D01*
X107997179Y-69324190D01*
X107999500Y-69348071D01*
X107999500Y-93497293D01*
X107999382Y-93502702D01*
X107982614Y-93886750D01*
X107981671Y-93897527D01*
X107943019Y-94191113D01*
X107914752Y-94255009D01*
X107856428Y-94293480D01*
X107786563Y-94294311D01*
X107727340Y-94257239D01*
X107697561Y-94194033D01*
X107696250Y-94168437D01*
X107705078Y-94000000D01*
X107705078Y-93999999D01*
X107684780Y-93612712D01*
X107624113Y-93229676D01*
X107624112Y-93229669D01*
X107523737Y-92855063D01*
X107384755Y-92493005D01*
X107208689Y-92147456D01*
X106997468Y-91822206D01*
X106788904Y-91564649D01*
X106788903Y-91564648D01*
X105294251Y-93059300D01*
X105220412Y-92957670D01*
X105042330Y-92779588D01*
X104940698Y-92705748D01*
X106435350Y-91211096D01*
X106435350Y-91211095D01*
X106177793Y-91002531D01*
X105852543Y-90791310D01*
X105506994Y-90615244D01*
X105144936Y-90476262D01*
X104770330Y-90375887D01*
X104770323Y-90375886D01*
X104387287Y-90315219D01*
X104000001Y-90294922D01*
X103999999Y-90294922D01*
X103612712Y-90315219D01*
X103229676Y-90375886D01*
X103229669Y-90375887D01*
X102855063Y-90476262D01*
X102493005Y-90615244D01*
X102147456Y-90791310D01*
X101822206Y-91002531D01*
X101564648Y-91211095D01*
X101564648Y-91211096D01*
X103059301Y-92705748D01*
X102957670Y-92779588D01*
X102779588Y-92957670D01*
X102705748Y-93059300D01*
X101211096Y-91564648D01*
X101211095Y-91564648D01*
X101002531Y-91822206D01*
X100791310Y-92147456D01*
X100615244Y-92493005D01*
X100476262Y-92855063D01*
X100375887Y-93229669D01*
X100375886Y-93229676D01*
X100315219Y-93612712D01*
X100294922Y-93999999D01*
X100294922Y-94000000D01*
X100315219Y-94387287D01*
X100375886Y-94770323D01*
X100375887Y-94770330D01*
X100476262Y-95144936D01*
X100615244Y-95506994D01*
X100791310Y-95852543D01*
X101002531Y-96177793D01*
X101211095Y-96435350D01*
X101211096Y-96435350D01*
X102705748Y-94940698D01*
X102779588Y-95042330D01*
X102957670Y-95220412D01*
X103059300Y-95294251D01*
X101564648Y-96788903D01*
X101564649Y-96788904D01*
X101822206Y-96997468D01*
X102147456Y-97208689D01*
X102493005Y-97384755D01*
X102855063Y-97523737D01*
X103229669Y-97624112D01*
X103229676Y-97624113D01*
X103612712Y-97684780D01*
X103999999Y-97705078D01*
X104000001Y-97705078D01*
X104168437Y-97696250D01*
X104236415Y-97712399D01*
X104284871Y-97762736D01*
X104298420Y-97831279D01*
X104272762Y-97896267D01*
X104216041Y-97937066D01*
X104191113Y-97943019D01*
X103897527Y-97981671D01*
X103886750Y-97982614D01*
X103502703Y-97999382D01*
X103497294Y-97999500D01*
X67002706Y-97999500D01*
X66997297Y-97999382D01*
X66613249Y-97982614D01*
X66602474Y-97981671D01*
X66513376Y-97969941D01*
X66308886Y-97943019D01*
X66244990Y-97914752D01*
X66206519Y-97856428D01*
X66205688Y-97786563D01*
X66242760Y-97727340D01*
X66305966Y-97697561D01*
X66331562Y-97696250D01*
X66499999Y-97705078D01*
X66500001Y-97705078D01*
X66887287Y-97684780D01*
X67270323Y-97624113D01*
X67270330Y-97624112D01*
X67644936Y-97523737D01*
X68006994Y-97384755D01*
X68352543Y-97208689D01*
X68677783Y-96997476D01*
X68677785Y-96997475D01*
X68935349Y-96788902D01*
X67440698Y-95294251D01*
X67542330Y-95220412D01*
X67720412Y-95042330D01*
X67794251Y-94940698D01*
X69288902Y-96435349D01*
X69497475Y-96177785D01*
X69497476Y-96177783D01*
X69708689Y-95852543D01*
X69884755Y-95506994D01*
X70023737Y-95144936D01*
X70124112Y-94770330D01*
X70124113Y-94770323D01*
X70184780Y-94387287D01*
X70205078Y-94000000D01*
X70205078Y-93999999D01*
X70184780Y-93612712D01*
X70124113Y-93229676D01*
X70124112Y-93229669D01*
X70023737Y-92855063D01*
X69884755Y-92493005D01*
X69708689Y-92147456D01*
X69497468Y-91822206D01*
X69288904Y-91564649D01*
X69288903Y-91564648D01*
X67794251Y-93059300D01*
X67720412Y-92957670D01*
X67542330Y-92779588D01*
X67440698Y-92705748D01*
X68935350Y-91211096D01*
X68935350Y-91211095D01*
X68677793Y-91002531D01*
X68352543Y-90791310D01*
X68006994Y-90615244D01*
X67644936Y-90476262D01*
X67270330Y-90375887D01*
X67270323Y-90375886D01*
X66887287Y-90315219D01*
X66500001Y-90294922D01*
X66499999Y-90294922D01*
X66112712Y-90315219D01*
X65729676Y-90375886D01*
X65729669Y-90375887D01*
X65355063Y-90476262D01*
X64993005Y-90615244D01*
X64647456Y-90791310D01*
X64322206Y-91002531D01*
X64064648Y-91211095D01*
X64064648Y-91211096D01*
X65559301Y-92705748D01*
X65457670Y-92779588D01*
X65279588Y-92957670D01*
X65205748Y-93059301D01*
X63711096Y-91564648D01*
X63711095Y-91564648D01*
X63502531Y-91822206D01*
X63291310Y-92147456D01*
X63115244Y-92493005D01*
X62976262Y-92855063D01*
X62875887Y-93229669D01*
X62875886Y-93229676D01*
X62815219Y-93612712D01*
X62794922Y-93999999D01*
X62794922Y-94000001D01*
X62803749Y-94168438D01*
X62787600Y-94236415D01*
X62737263Y-94284871D01*
X62668719Y-94298420D01*
X62603732Y-94272761D01*
X62562933Y-94216040D01*
X62556981Y-94191118D01*
X62518326Y-93897504D01*
X62517386Y-93886771D01*
X62500618Y-93502702D01*
X62500500Y-93497293D01*
X62500500Y-80459999D01*
X65144341Y-80459999D01*
X65144341Y-80460000D01*
X65164936Y-80695403D01*
X65164938Y-80695413D01*
X65226094Y-80923655D01*
X65226096Y-80923659D01*
X65226097Y-80923663D01*
X65316265Y-81117029D01*
X65325965Y-81137830D01*
X65325967Y-81137834D01*
X65461501Y-81331395D01*
X65461506Y-81331402D01*
X65628597Y-81498493D01*
X65628603Y-81498498D01*
X65814158Y-81628425D01*
X65857783Y-81683002D01*
X65864977Y-81752500D01*
X65833454Y-81814855D01*
X65814158Y-81831575D01*
X65628597Y-81961505D01*
X65461505Y-82128597D01*
X65325965Y-82322169D01*
X65325964Y-82322171D01*
X65226098Y-82536335D01*
X65226094Y-82536344D01*
X65164938Y-82764586D01*
X65164936Y-82764596D01*
X65144341Y-82999999D01*
X65144341Y-83000000D01*
X65164936Y-83235403D01*
X65164938Y-83235413D01*
X65226094Y-83463655D01*
X65226096Y-83463659D01*
X65226097Y-83463663D01*
X65325965Y-83677830D01*
X65325967Y-83677834D01*
X65461501Y-83871395D01*
X65461506Y-83871402D01*
X65628597Y-84038493D01*
X65628603Y-84038498D01*
X65814594Y-84168730D01*
X65858219Y-84223307D01*
X65865413Y-84292805D01*
X65833890Y-84355160D01*
X65814595Y-84371880D01*
X65628922Y-84501890D01*
X65628920Y-84501891D01*
X65461891Y-84668920D01*
X65461886Y-84668926D01*
X65326400Y-84862420D01*
X65326399Y-84862422D01*
X65226570Y-85076507D01*
X65226567Y-85076513D01*
X65169364Y-85289999D01*
X65169364Y-85290000D01*
X66066988Y-85290000D01*
X66034075Y-85347007D01*
X66000000Y-85474174D01*
X66000000Y-85605826D01*
X66034075Y-85732993D01*
X66066988Y-85790000D01*
X65169364Y-85790000D01*
X65226567Y-86003486D01*
X65226570Y-86003492D01*
X65326399Y-86217578D01*
X65461894Y-86411082D01*
X65628917Y-86578105D01*
X65822421Y-86713600D01*
X66036507Y-86813429D01*
X66036516Y-86813433D01*
X66250000Y-86870634D01*
X66250000Y-85973012D01*
X66307007Y-86005925D01*
X66434174Y-86040000D01*
X66565826Y-86040000D01*
X66692993Y-86005925D01*
X66750000Y-85973012D01*
X66750000Y-86870633D01*
X66963483Y-86813433D01*
X66963492Y-86813429D01*
X67177578Y-86713600D01*
X67371082Y-86578105D01*
X67538105Y-86411082D01*
X67673600Y-86217578D01*
X67773429Y-86003492D01*
X67773432Y-86003486D01*
X67830636Y-85790000D01*
X66933012Y-85790000D01*
X66965925Y-85732993D01*
X67000000Y-85605826D01*
X67000000Y-85474174D01*
X66965925Y-85347007D01*
X66933012Y-85290000D01*
X67830636Y-85290000D01*
X67830635Y-85289999D01*
X67773432Y-85076513D01*
X67773429Y-85076507D01*
X67673600Y-84862422D01*
X67673599Y-84862420D01*
X67538113Y-84668926D01*
X67538108Y-84668920D01*
X67371078Y-84501890D01*
X67185405Y-84371879D01*
X67141780Y-84317302D01*
X67134588Y-84247804D01*
X67166110Y-84185449D01*
X67185406Y-84168730D01*
X67371401Y-84038495D01*
X67538495Y-83871401D01*
X67674035Y-83677830D01*
X67773903Y-83463663D01*
X67835063Y-83235408D01*
X67855659Y-83000000D01*
X67835063Y-82764592D01*
X67835061Y-82764586D01*
X67832371Y-82754545D01*
X67834032Y-82684695D01*
X67864462Y-82634770D01*
X74886726Y-75612508D01*
X74886726Y-75612507D01*
X74892724Y-75606510D01*
X74892825Y-75606393D01*
X74983406Y-75515813D01*
X75266032Y-75189644D01*
X75266031Y-75189644D01*
X75266039Y-75189636D01*
X75524668Y-74844147D01*
X75524667Y-74844147D01*
X75524671Y-74844143D01*
X75758002Y-74481072D01*
X75964839Y-74102281D01*
X76144126Y-73709699D01*
X76294950Y-73305327D01*
X76416543Y-72891226D01*
X76508284Y-72469506D01*
X76569707Y-72042316D01*
X76600498Y-71611832D01*
X76600498Y-71489530D01*
X76600500Y-71489526D01*
X76600500Y-70499996D01*
X80194435Y-70499996D01*
X80194435Y-70500003D01*
X80214630Y-70679249D01*
X80214631Y-70679254D01*
X80274211Y-70849523D01*
X80370184Y-71002262D01*
X80497738Y-71129816D01*
X80588080Y-71186582D01*
X80621342Y-71207482D01*
X80650478Y-71225789D01*
X80748342Y-71260033D01*
X80820745Y-71285368D01*
X80820750Y-71285369D01*
X80999996Y-71305565D01*
X81000000Y-71305565D01*
X81000004Y-71305565D01*
X81179249Y-71285369D01*
X81179252Y-71285368D01*
X81179255Y-71285368D01*
X81349522Y-71225789D01*
X81502262Y-71129816D01*
X81629816Y-71002262D01*
X81725789Y-70849522D01*
X81785368Y-70679255D01*
X81805565Y-70500000D01*
X81793668Y-70394411D01*
X81785369Y-70320750D01*
X81785368Y-70320745D01*
X81725788Y-70150476D01*
X81629815Y-69997737D01*
X81502262Y-69870184D01*
X81349523Y-69774211D01*
X81179254Y-69714631D01*
X81179249Y-69714630D01*
X81000004Y-69694435D01*
X80999996Y-69694435D01*
X80820750Y-69714630D01*
X80820745Y-69714631D01*
X80650476Y-69774211D01*
X80497737Y-69870184D01*
X80370184Y-69997737D01*
X80274211Y-70150476D01*
X80214631Y-70320745D01*
X80214630Y-70320750D01*
X80194435Y-70499996D01*
X76600500Y-70499996D01*
X76600500Y-66663748D01*
X76620185Y-66596709D01*
X76672989Y-66550954D01*
X76686172Y-66545820D01*
X76721337Y-66534396D01*
X76847875Y-66469927D01*
X76941434Y-66401957D01*
X76952292Y-66394907D01*
X76957104Y-66392130D01*
X77004552Y-66344681D01*
X77012982Y-66336251D01*
X77012983Y-66336252D01*
X77064543Y-66284696D01*
X77064544Y-66284693D01*
X77071589Y-66277649D01*
X77071623Y-66277608D01*
X77601648Y-65747585D01*
X77624617Y-65724617D01*
X77624616Y-65724616D01*
X77660915Y-65688320D01*
X77660927Y-65688305D01*
X77680518Y-65668715D01*
X77680520Y-65668710D01*
X77686417Y-65662814D01*
X77686600Y-65662605D01*
X77728480Y-65620726D01*
X77728480Y-65620725D01*
X77728484Y-65620722D01*
X77914882Y-65393597D01*
X78078121Y-65149295D01*
X78216629Y-64890170D01*
X78329072Y-64618717D01*
X78414367Y-64337550D01*
X78471693Y-64049377D01*
X78500498Y-63756973D01*
X78500498Y-63703553D01*
X78500500Y-63703536D01*
X78500500Y-63609500D01*
X78500501Y-63537149D01*
X78500500Y-63537144D01*
X78500500Y-62582412D01*
X78520185Y-62515373D01*
X78527555Y-62505097D01*
X78529810Y-62502267D01*
X78529816Y-62502262D01*
X78625789Y-62349522D01*
X78685368Y-62179255D01*
X78685369Y-62179249D01*
X78705565Y-62000003D01*
X78705565Y-61999996D01*
X78685369Y-61820750D01*
X78685368Y-61820745D01*
X78652141Y-61725788D01*
X78625789Y-61650478D01*
X78529816Y-61497738D01*
X78506467Y-61474389D01*
X78472982Y-61413066D01*
X78477106Y-61345756D01*
X78535368Y-61179255D01*
X78535369Y-61179249D01*
X78555565Y-61000003D01*
X78555565Y-60999996D01*
X78535369Y-60820750D01*
X78535368Y-60820745D01*
X78475788Y-60650476D01*
X78412652Y-60549996D01*
X80944435Y-60549996D01*
X80944435Y-60550003D01*
X80964630Y-60729249D01*
X80964631Y-60729254D01*
X81024211Y-60899523D01*
X81087347Y-61000003D01*
X81120184Y-61052262D01*
X81247738Y-61179816D01*
X81400478Y-61275789D01*
X81528955Y-61320745D01*
X81570745Y-61335368D01*
X81570750Y-61335369D01*
X81749996Y-61355565D01*
X81750000Y-61355565D01*
X81750004Y-61355565D01*
X81929249Y-61335369D01*
X81929251Y-61335368D01*
X81929255Y-61335368D01*
X81929258Y-61335366D01*
X81929262Y-61335366D01*
X82059045Y-61289953D01*
X82128824Y-61286391D01*
X82140955Y-61289953D01*
X82270737Y-61335366D01*
X82270743Y-61335367D01*
X82270745Y-61335368D01*
X82270746Y-61335368D01*
X82270750Y-61335369D01*
X82449996Y-61355565D01*
X82450000Y-61355565D01*
X82450004Y-61355565D01*
X82629249Y-61335369D01*
X82629252Y-61335368D01*
X82629255Y-61335368D01*
X82799522Y-61275789D01*
X82952262Y-61179816D01*
X83079816Y-61052262D01*
X83175789Y-60899522D01*
X83235368Y-60729255D01*
X83237016Y-60714630D01*
X83255565Y-60550003D01*
X83255565Y-60549996D01*
X83235369Y-60370750D01*
X83235368Y-60370748D01*
X83235368Y-60370745D01*
X83198698Y-60265951D01*
X83195136Y-60196177D01*
X83198692Y-60184067D01*
X83235368Y-60079255D01*
X83255565Y-59900000D01*
X83235368Y-59720745D01*
X83175789Y-59550478D01*
X83079816Y-59397738D01*
X82952262Y-59270184D01*
X82841361Y-59200500D01*
X82799523Y-59174211D01*
X82629254Y-59114631D01*
X82629249Y-59114630D01*
X82450004Y-59094435D01*
X82449996Y-59094435D01*
X82270747Y-59114631D01*
X82165954Y-59151299D01*
X82096175Y-59154860D01*
X82084046Y-59151299D01*
X81979252Y-59114631D01*
X81800004Y-59094435D01*
X81799996Y-59094435D01*
X81620750Y-59114630D01*
X81620745Y-59114631D01*
X81450476Y-59174211D01*
X81297737Y-59270184D01*
X81170184Y-59397737D01*
X81074211Y-59550476D01*
X81014631Y-59720745D01*
X81014630Y-59720750D01*
X80994435Y-59899996D01*
X80994435Y-59900003D01*
X81014631Y-60079253D01*
X81014632Y-60079257D01*
X81026299Y-60112602D01*
X81029860Y-60182381D01*
X81026299Y-60194508D01*
X80964632Y-60370742D01*
X80964630Y-60370750D01*
X80944435Y-60549996D01*
X78412652Y-60549996D01*
X78379815Y-60497737D01*
X78252262Y-60370184D01*
X78099523Y-60274211D01*
X77929254Y-60214631D01*
X77929249Y-60214630D01*
X77750004Y-60194435D01*
X77749996Y-60194435D01*
X77570750Y-60214630D01*
X77570745Y-60214631D01*
X77400476Y-60274211D01*
X77247737Y-60370184D01*
X77212681Y-60405241D01*
X77151358Y-60438726D01*
X77081666Y-60433742D01*
X77037319Y-60405241D01*
X77002262Y-60370184D01*
X76849523Y-60274211D01*
X76679254Y-60214631D01*
X76679249Y-60214630D01*
X76500004Y-60194435D01*
X76499996Y-60194435D01*
X76320750Y-60214630D01*
X76320745Y-60214631D01*
X76150476Y-60274211D01*
X75997737Y-60370184D01*
X75870184Y-60497737D01*
X75774211Y-60650476D01*
X75714631Y-60820745D01*
X75714630Y-60820750D01*
X75694435Y-60999996D01*
X75694435Y-61000003D01*
X75714630Y-61179249D01*
X75714631Y-61179254D01*
X75774211Y-61349523D01*
X75810556Y-61407365D01*
X75870184Y-61502262D01*
X75997738Y-61629816D01*
X76150478Y-61725789D01*
X76320745Y-61785368D01*
X76320750Y-61785369D01*
X76499996Y-61805565D01*
X76499998Y-61805565D01*
X76499998Y-61805564D01*
X76500000Y-61805565D01*
X76511614Y-61804256D01*
X76580435Y-61816309D01*
X76631816Y-61863657D01*
X76649500Y-61927476D01*
X76649500Y-63009092D01*
X76649305Y-63016043D01*
X76634885Y-63272875D01*
X76633328Y-63286693D01*
X76590827Y-63536854D01*
X76587733Y-63550411D01*
X76517491Y-63794242D01*
X76512899Y-63807367D01*
X76415796Y-64041807D01*
X76409763Y-64054335D01*
X76287024Y-64276425D01*
X76279626Y-64288199D01*
X76132793Y-64495150D01*
X76124123Y-64506022D01*
X75953421Y-64697046D01*
X75948641Y-64702102D01*
X75825738Y-64825004D01*
X75602094Y-65097514D01*
X75602085Y-65097526D01*
X75406246Y-65390622D01*
X75406238Y-65390635D01*
X75400977Y-65400478D01*
X75240057Y-65701542D01*
X75240054Y-65701548D01*
X75240054Y-65701549D01*
X75105155Y-66027229D01*
X75105153Y-66027235D01*
X75105152Y-66027238D01*
X75002820Y-66364589D01*
X75002819Y-66364593D01*
X75002819Y-66364594D01*
X74934046Y-66710356D01*
X74934046Y-66710359D01*
X74923035Y-66822171D01*
X74901945Y-67036337D01*
X74899498Y-67061181D01*
X74899500Y-67208165D01*
X74899500Y-68122293D01*
X74899382Y-68127702D01*
X74882499Y-68514384D01*
X74881556Y-68525160D01*
X74831391Y-68906200D01*
X74829513Y-68916854D01*
X74746325Y-69292089D01*
X74743525Y-69302537D01*
X74627952Y-69669088D01*
X74624252Y-69679254D01*
X74477172Y-70034336D01*
X74472600Y-70044140D01*
X74295136Y-70385043D01*
X74289728Y-70394411D01*
X74083218Y-70718568D01*
X74077013Y-70727429D01*
X73843044Y-71032344D01*
X73836098Y-71040622D01*
X73666424Y-71225788D01*
X73574608Y-71325987D01*
X73570867Y-71329894D01*
X70322819Y-74577944D01*
X70322817Y-74577946D01*
X70297657Y-74603104D01*
X70297658Y-74603105D01*
X70236599Y-74664165D01*
X70236474Y-74664306D01*
X70176639Y-74724141D01*
X70176628Y-74724153D01*
X69956609Y-74986358D01*
X69760271Y-75266752D01*
X69589114Y-75563202D01*
X69444450Y-75873429D01*
X69444449Y-75873432D01*
X69424446Y-75928390D01*
X69327372Y-76195097D01*
X69327371Y-76195102D01*
X69238775Y-76525736D01*
X69238775Y-76525739D01*
X69179334Y-76862841D01*
X69149500Y-77203843D01*
X69149500Y-77537353D01*
X69149305Y-77544308D01*
X69135307Y-77793490D01*
X69133750Y-77807308D01*
X69092524Y-78049926D01*
X69089429Y-78063482D01*
X69021303Y-78299943D01*
X69016711Y-78313067D01*
X68922534Y-78540428D01*
X68916500Y-78552957D01*
X68797463Y-78768336D01*
X68790065Y-78780110D01*
X68647656Y-78980814D01*
X68638989Y-78991681D01*
X68581444Y-79056074D01*
X68472444Y-79178044D01*
X68467666Y-79183097D01*
X68453490Y-79197273D01*
X68245411Y-79405351D01*
X68211407Y-79439355D01*
X68211404Y-79439358D01*
X68191263Y-79459500D01*
X68163292Y-79487471D01*
X68156145Y-79494077D01*
X68017112Y-79612827D01*
X68001370Y-79624265D01*
X67849640Y-79717247D01*
X67832302Y-79726081D01*
X67771119Y-79751424D01*
X67701650Y-79758893D01*
X67639170Y-79727618D01*
X67622091Y-79707986D01*
X67538496Y-79588600D01*
X67538495Y-79588599D01*
X67416567Y-79466671D01*
X67383084Y-79405351D01*
X67388068Y-79335659D01*
X67429939Y-79279725D01*
X67460915Y-79262810D01*
X67592331Y-79213796D01*
X67707546Y-79127546D01*
X67793796Y-79012331D01*
X67844091Y-78877483D01*
X67850500Y-78817873D01*
X67850499Y-77022128D01*
X67844091Y-76962517D01*
X67806915Y-76862844D01*
X67793797Y-76827671D01*
X67793793Y-76827664D01*
X67707547Y-76712455D01*
X67707544Y-76712452D01*
X67592335Y-76626206D01*
X67592328Y-76626202D01*
X67457482Y-76575908D01*
X67457483Y-76575908D01*
X67397883Y-76569501D01*
X67397881Y-76569500D01*
X67397873Y-76569500D01*
X67397864Y-76569500D01*
X65602129Y-76569500D01*
X65602123Y-76569501D01*
X65542516Y-76575908D01*
X65407671Y-76626202D01*
X65407664Y-76626206D01*
X65292455Y-76712452D01*
X65292452Y-76712455D01*
X65206206Y-76827664D01*
X65206202Y-76827671D01*
X65155908Y-76962517D01*
X65149501Y-77022116D01*
X65149501Y-77022123D01*
X65149500Y-77022135D01*
X65149500Y-78817870D01*
X65149501Y-78817876D01*
X65155908Y-78877483D01*
X65206202Y-79012328D01*
X65206206Y-79012335D01*
X65292452Y-79127544D01*
X65292455Y-79127547D01*
X65407664Y-79213793D01*
X65407671Y-79213797D01*
X65539081Y-79262810D01*
X65595015Y-79304681D01*
X65619432Y-79370145D01*
X65604580Y-79438418D01*
X65583430Y-79466673D01*
X65461503Y-79588600D01*
X65325965Y-79782169D01*
X65325964Y-79782171D01*
X65226098Y-79996335D01*
X65226094Y-79996344D01*
X65164938Y-80224586D01*
X65164936Y-80224596D01*
X65144341Y-80459999D01*
X62500500Y-80459999D01*
X62500500Y-67499999D01*
X63644341Y-67499999D01*
X63644341Y-67500000D01*
X63664936Y-67735403D01*
X63664938Y-67735413D01*
X63726094Y-67963655D01*
X63726096Y-67963659D01*
X63726097Y-67963663D01*
X63800068Y-68122293D01*
X63825965Y-68177830D01*
X63825967Y-68177834D01*
X63926035Y-68320745D01*
X63961505Y-68371401D01*
X64128599Y-68538495D01*
X64225384Y-68606265D01*
X64322165Y-68674032D01*
X64322167Y-68674033D01*
X64322170Y-68674035D01*
X64536337Y-68773903D01*
X64764592Y-68835063D01*
X64952918Y-68851539D01*
X64999999Y-68855659D01*
X65000000Y-68855659D01*
X65000001Y-68855659D01*
X65039234Y-68852226D01*
X65235408Y-68835063D01*
X65463663Y-68773903D01*
X65677830Y-68674035D01*
X65871401Y-68538495D01*
X66038495Y-68371401D01*
X66174035Y-68177830D01*
X66273903Y-67963663D01*
X66335063Y-67735408D01*
X66355659Y-67500000D01*
X66335063Y-67264592D01*
X66288626Y-67091285D01*
X66273905Y-67036344D01*
X66273904Y-67036343D01*
X66273903Y-67036337D01*
X66174035Y-66822171D01*
X66153287Y-66792540D01*
X66038496Y-66628600D01*
X65983551Y-66573655D01*
X65916567Y-66506671D01*
X65883084Y-66445351D01*
X65888068Y-66375659D01*
X65929939Y-66319725D01*
X65960915Y-66302810D01*
X66092331Y-66253796D01*
X66207546Y-66167546D01*
X66293796Y-66052331D01*
X66344091Y-65917483D01*
X66350500Y-65857873D01*
X66350499Y-64062128D01*
X66344091Y-64002517D01*
X66293796Y-63867669D01*
X66293795Y-63867668D01*
X66293793Y-63867664D01*
X66207547Y-63752455D01*
X66207544Y-63752452D01*
X66092335Y-63666206D01*
X66092328Y-63666202D01*
X65957482Y-63615908D01*
X65957483Y-63615908D01*
X65897883Y-63609501D01*
X65897881Y-63609500D01*
X65897873Y-63609500D01*
X65897864Y-63609500D01*
X64102129Y-63609500D01*
X64102123Y-63609501D01*
X64042516Y-63615908D01*
X63907671Y-63666202D01*
X63907664Y-63666206D01*
X63792455Y-63752452D01*
X63792452Y-63752455D01*
X63706206Y-63867664D01*
X63706202Y-63867671D01*
X63655908Y-64002517D01*
X63649501Y-64062116D01*
X63649501Y-64062123D01*
X63649500Y-64062135D01*
X63649500Y-65857870D01*
X63649501Y-65857876D01*
X63655908Y-65917483D01*
X63706202Y-66052328D01*
X63706206Y-66052335D01*
X63792452Y-66167544D01*
X63792455Y-66167547D01*
X63907664Y-66253793D01*
X63907671Y-66253797D01*
X64039081Y-66302810D01*
X64095015Y-66344681D01*
X64119432Y-66410145D01*
X64104580Y-66478418D01*
X64083430Y-66506673D01*
X63961503Y-66628600D01*
X63825965Y-66822169D01*
X63825964Y-66822171D01*
X63726098Y-67036335D01*
X63726094Y-67036344D01*
X63664938Y-67264586D01*
X63664936Y-67264596D01*
X63644341Y-67499999D01*
X62500500Y-67499999D01*
X62500500Y-61499996D01*
X69694435Y-61499996D01*
X69694435Y-61500003D01*
X69714630Y-61679249D01*
X69714631Y-61679254D01*
X69774211Y-61849523D01*
X69868760Y-61999996D01*
X69870184Y-62002262D01*
X69997738Y-62129816D01*
X70150478Y-62225789D01*
X70320745Y-62285368D01*
X70320750Y-62285369D01*
X70499996Y-62305565D01*
X70500000Y-62305565D01*
X70500004Y-62305565D01*
X70679249Y-62285369D01*
X70679252Y-62285368D01*
X70679255Y-62285368D01*
X70849522Y-62225789D01*
X71002262Y-62129816D01*
X71129816Y-62002262D01*
X71225789Y-61849522D01*
X71285368Y-61679255D01*
X71285369Y-61679249D01*
X71305565Y-61500003D01*
X71305565Y-61499996D01*
X71285369Y-61320750D01*
X71285368Y-61320745D01*
X71235860Y-61179259D01*
X71225789Y-61150478D01*
X71129816Y-60997738D01*
X71002262Y-60870184D01*
X70849523Y-60774211D01*
X70679254Y-60714631D01*
X70679249Y-60714630D01*
X70500004Y-60694435D01*
X70499996Y-60694435D01*
X70320750Y-60714630D01*
X70320745Y-60714631D01*
X70150476Y-60774211D01*
X69997737Y-60870184D01*
X69870184Y-60997737D01*
X69774211Y-61150476D01*
X69714631Y-61320745D01*
X69714630Y-61320750D01*
X69694435Y-61499996D01*
X62500500Y-61499996D01*
X62500500Y-54502706D01*
X62500618Y-54497297D01*
X62506894Y-54353553D01*
X62517386Y-54113226D01*
X62518325Y-54102497D01*
X62556981Y-53808883D01*
X62585247Y-53744990D01*
X62643571Y-53706519D01*
X62713436Y-53705688D01*
X62772659Y-53742760D01*
X62802438Y-53805966D01*
X62803749Y-53831561D01*
X62794922Y-53999998D01*
X62794922Y-54000000D01*
X62815219Y-54387287D01*
X62875886Y-54770323D01*
X62875887Y-54770330D01*
X62976262Y-55144936D01*
X63115244Y-55506994D01*
X63291310Y-55852543D01*
X63502531Y-56177793D01*
X63711095Y-56435350D01*
X63711096Y-56435350D01*
X65205747Y-54940698D01*
X65279588Y-55042330D01*
X65457670Y-55220412D01*
X65559300Y-55294251D01*
X64064648Y-56788903D01*
X64064649Y-56788904D01*
X64322206Y-56997468D01*
X64647456Y-57208689D01*
X64993005Y-57384755D01*
X65355063Y-57523737D01*
X65729669Y-57624112D01*
X65729676Y-57624113D01*
X66112712Y-57684780D01*
X66499999Y-57705078D01*
X66500001Y-57705078D01*
X66887287Y-57684780D01*
X67270323Y-57624113D01*
X67270330Y-57624112D01*
X67644936Y-57523737D01*
X67706786Y-57499995D01*
X89295233Y-57499995D01*
X89295233Y-57500004D01*
X89314273Y-57754079D01*
X89370968Y-58002477D01*
X89370973Y-58002494D01*
X89464058Y-58239671D01*
X89464057Y-58239671D01*
X89591454Y-58460327D01*
X89591461Y-58460338D01*
X89633452Y-58512991D01*
X89633453Y-58512992D01*
X90435387Y-57711058D01*
X90440889Y-57731591D01*
X90519881Y-57868408D01*
X90631592Y-57980119D01*
X90768409Y-58059111D01*
X90788940Y-58064612D01*
X89986813Y-58866738D01*
X90147616Y-58976371D01*
X90147624Y-58976376D01*
X90377176Y-59086921D01*
X90377174Y-59086921D01*
X90620652Y-59162024D01*
X90620658Y-59162026D01*
X90872595Y-59199999D01*
X90872604Y-59200000D01*
X91127396Y-59200000D01*
X91127404Y-59199999D01*
X91379341Y-59162026D01*
X91379347Y-59162024D01*
X91622824Y-59086921D01*
X91852376Y-58976376D01*
X91852377Y-58976375D01*
X92013185Y-58866738D01*
X91211060Y-58064612D01*
X91231591Y-58059111D01*
X91368408Y-57980119D01*
X91480119Y-57868408D01*
X91559111Y-57731591D01*
X91564612Y-57711059D01*
X92366544Y-58512992D01*
X92366546Y-58512991D01*
X92408544Y-58460330D01*
X92535941Y-58239671D01*
X92629026Y-58002494D01*
X92629031Y-58002477D01*
X92685726Y-57754079D01*
X92704767Y-57500004D01*
X92704767Y-57499995D01*
X92685726Y-57245920D01*
X92629031Y-56997522D01*
X92629026Y-56997505D01*
X92535941Y-56760328D01*
X92535942Y-56760328D01*
X92408545Y-56539672D01*
X92366545Y-56487006D01*
X91564612Y-57288939D01*
X91559111Y-57268409D01*
X91480119Y-57131592D01*
X91368408Y-57019881D01*
X91231591Y-56940889D01*
X91211059Y-56935387D01*
X91894310Y-56252135D01*
X94299500Y-56252135D01*
X94299500Y-58747870D01*
X94299501Y-58747876D01*
X94305908Y-58807483D01*
X94356202Y-58942328D01*
X94356206Y-58942335D01*
X94442452Y-59057544D01*
X94442455Y-59057547D01*
X94557664Y-59143793D01*
X94557671Y-59143797D01*
X94692517Y-59194091D01*
X94692516Y-59194091D01*
X94699444Y-59194835D01*
X94752127Y-59200500D01*
X97247872Y-59200499D01*
X97307483Y-59194091D01*
X97442331Y-59143796D01*
X97557546Y-59057546D01*
X97643796Y-58942331D01*
X97694091Y-58807483D01*
X97700500Y-58747873D01*
X97700499Y-56252128D01*
X97694091Y-56192517D01*
X97688599Y-56177793D01*
X97643797Y-56057671D01*
X97643793Y-56057664D01*
X97557547Y-55942455D01*
X97557544Y-55942452D01*
X97442335Y-55856206D01*
X97442328Y-55856202D01*
X97307482Y-55805908D01*
X97307483Y-55805908D01*
X97247883Y-55799501D01*
X97247881Y-55799500D01*
X97247873Y-55799500D01*
X97247864Y-55799500D01*
X94752129Y-55799500D01*
X94752123Y-55799501D01*
X94692516Y-55805908D01*
X94557671Y-55856202D01*
X94557664Y-55856206D01*
X94442455Y-55942452D01*
X94442452Y-55942455D01*
X94356206Y-56057664D01*
X94356202Y-56057671D01*
X94305908Y-56192517D01*
X94299501Y-56252116D01*
X94299501Y-56252123D01*
X94299500Y-56252135D01*
X91894310Y-56252135D01*
X92013185Y-56133260D01*
X91852384Y-56023628D01*
X91852376Y-56023623D01*
X91622823Y-55913078D01*
X91622825Y-55913078D01*
X91379347Y-55837975D01*
X91379341Y-55837973D01*
X91127404Y-55800000D01*
X90872595Y-55800000D01*
X90620658Y-55837973D01*
X90620652Y-55837975D01*
X90377175Y-55913078D01*
X90147622Y-56023625D01*
X90147609Y-56023632D01*
X89986813Y-56133259D01*
X90788941Y-56935387D01*
X90768409Y-56940889D01*
X90631592Y-57019881D01*
X90519881Y-57131592D01*
X90440889Y-57268409D01*
X90435387Y-57288941D01*
X89633452Y-56487006D01*
X89591457Y-56539667D01*
X89464058Y-56760328D01*
X89370973Y-56997505D01*
X89370968Y-56997522D01*
X89314273Y-57245920D01*
X89295233Y-57499995D01*
X67706786Y-57499995D01*
X68006994Y-57384755D01*
X68352543Y-57208689D01*
X68677783Y-56997476D01*
X68677785Y-56997475D01*
X68935349Y-56788902D01*
X67440698Y-55294251D01*
X67542330Y-55220412D01*
X67720412Y-55042330D01*
X67794251Y-54940698D01*
X69288902Y-56435349D01*
X69497475Y-56177785D01*
X69497476Y-56177783D01*
X69708689Y-55852543D01*
X69884755Y-55506994D01*
X70023737Y-55144936D01*
X70124112Y-54770330D01*
X70124113Y-54770323D01*
X70184780Y-54387287D01*
X70205078Y-54000000D01*
X70205078Y-53999999D01*
X70184780Y-53612712D01*
X70124113Y-53229676D01*
X70124112Y-53229669D01*
X70023737Y-52855063D01*
X69884755Y-52493005D01*
X69708689Y-52147456D01*
X69497468Y-51822206D01*
X69288904Y-51564649D01*
X69288903Y-51564648D01*
X67794251Y-53059300D01*
X67720412Y-52957670D01*
X67542330Y-52779588D01*
X67440698Y-52705747D01*
X68935350Y-51211096D01*
X68935350Y-51211095D01*
X68677793Y-51002531D01*
X68352543Y-50791310D01*
X68006994Y-50615244D01*
X67644936Y-50476262D01*
X67270330Y-50375887D01*
X67270323Y-50375886D01*
X66887287Y-50315219D01*
X66500001Y-50294922D01*
X66499998Y-50294922D01*
X66331561Y-50303749D01*
X66263584Y-50287600D01*
X66215128Y-50237263D01*
X66201579Y-50168719D01*
X66227238Y-50103732D01*
X66283959Y-50062933D01*
X66308879Y-50056981D01*
X66602497Y-50018325D01*
X66613226Y-50017386D01*
X66997297Y-50000617D01*
X67002706Y-50000500D01*
X67065892Y-50000500D01*
X103434108Y-50000500D01*
X103497294Y-50000500D01*
X103502702Y-50000617D01*
G37*
%TD.AperFunction*%
%TD*%
M02*
