M48
; DRILL file {KiCad 8.0.6} date 2024-11-07T10:06:34+1100
; FORMAT={-:-/ absolute / inch / decimal}
; #@! TF.CreationDate,2024-11-07T10:06:34+11:00
; #@! TF.GenerationSoftware,Kicad,Pcbnew,8.0.6
; #@! TF.FileFunction,Plated,1,4,PTH
FMAT,2
INCH
; #@! TA.AperFunction,Plated,PTH,ViaDrill
T1C0.0118
; #@! TA.AperFunction,Plated,PTH,ComponentDrill
T2C0.0394
; #@! TA.AperFunction,Plated,PTH,ComponentDrill
T3C0.0472
; #@! TA.AperFunction,Plated,PTH,ComponentDrill
T4C0.1260
; #@! TA.AperFunction,Plated,PTH,ComponentDrill
T5C0.1732
; #@! TA.AperFunction,Plated,PTH,ComponentDrill
T6C0.1772
%
G90
G05
T1
X2.5Y-3.2126
X2.5709Y-3.0787
X2.6496Y-2.9921
X2.7126Y-3.0315
X2.7283Y-3.1063
X2.7323Y-2.9449
X2.7362Y-3.2165
X2.7362Y-3.4409
X2.7913Y-3.2913
X2.7953Y-3.0315
X2.8071Y-2.1299
X2.815Y-2.0394
X2.815Y-2.2244
X2.8189Y-2.3071
X2.8346Y-2.5689
X2.8677Y-2.4098
X2.878Y-2.0236
X2.878Y-2.2362
X2.8819Y-2.9921
X2.8839Y-2.9331
X2.8937Y-2.7638
X2.9094Y-3.3071
X2.9409Y-2.2165
X2.9528Y-2.0551
X2.9528Y-2.1299
X2.9685Y-3.0433
X2.9843Y-3.1181
X2.9843Y-3.1841
X2.9937Y-2.5909
X3.0236Y-3.2598
X3.035Y-2.3311
X3.0551Y-2.0236
X3.0551Y-2.0551
X3.0551Y-2.1024
X3.0551Y-2.1339
X3.0551Y-2.1654
X3.0551Y-2.2205
X3.0843Y-2.3409
X3.0945Y-2.9291
X3.108Y-2.5167
X3.1236Y-2.3409
X3.1236Y-2.7445
X3.1315Y-2.5791
X3.1512Y-2.4886
X3.1531Y-2.3902
X3.1591Y-2.4295
X3.1693Y-2.9764
X3.222Y-2.5634
X3.2559Y-3.3701
X3.2811Y-2.6736
X3.2835Y-2.2913
X3.2913Y-2.2598
X3.2992Y-2.126
X3.2992Y-2.189
X3.3268Y-2.4094
X3.352Y-2.7602
X3.374Y-2.6772
X3.3976Y-2.5039
X3.3992Y-2.7839
X3.4Y-2.0
X3.4Y-3.4
X3.4055Y-2.0472
X3.4055Y-2.1654
X3.4547Y-2.1063
X3.4744Y-2.2638
X3.4941Y-2.185
X3.4941Y-2.3524
X3.5Y-2.5
X3.5039Y-2.8346
X3.5236Y-3.3543
X3.5354Y-3.185
X3.5433Y-3.0709
X3.5827Y-2.1654
X3.5925Y-2.3622
X3.6Y-2.0
X3.6Y-2.6
X3.6614Y-2.3425
X3.6713Y-2.1752
X3.6713Y-2.2539
X3.7638Y-2.5472
X3.8Y-2.0
X3.8Y-2.6
X3.8504Y-3.4685
X3.9173Y-3.4646
X3.9764Y-2.3937
X3.9764Y-3.4528
X3.9803Y-2.2441
X3.9803Y-3.2165
X4.0Y-2.0
X4.0315Y-3.4764
X4.0394Y-3.0866
X4.0748Y-2.6457
X4.0945Y-2.3622
X4.1181Y-3.1575
X4.126Y-3.0157
X4.1654Y-3.0787
X4.1732Y-2.6142
X4.189Y-2.4094
X4.2087Y-2.2441
X4.2126Y-2.5669
X4.2126Y-3.1969
X4.2205Y-2.5039
T2
X2.8551Y-3.3898
X2.9551Y-3.3898
X3.0551Y-3.3898
X3.1551Y-3.3898
T3
X3.5827Y-2.252
X3.7795Y-2.252
T4
X2.6181Y-2.126
X2.6181Y-3.3268
X4.0945Y-2.126
X4.0945Y-3.3307
T5
X2.6299Y-2.5236
X2.6299Y-2.8071
T6
G00X4.0749Y-2.5039
M15
G01X4.0747Y-2.5039
M16
G05
G00X4.0749Y-2.7874
M15
G01X4.0747Y-2.7874
M16
G05
M30
