M48
; DRILL file {KiCad 8.0.5} date 2024-09-18T15:37:43+1000
; FORMAT={-:-/ absolute / inch / decimal}
; #@! TF.CreationDate,2024-09-18T15:37:43+10:00
; #@! TF.GenerationSoftware,Kicad,Pcbnew,8.0.5
; #@! TF.FileFunction,Plated,1,6,PTH
FMAT,2
INCH
; #@! TA.AperFunction,Plated,PTH,ViaDrill
T1C0.0118
; #@! TA.AperFunction,Plated,PTH,ComponentDrill
T2C0.0394
; #@! TA.AperFunction,Plated,PTH,ComponentDrill
T3C0.0472
; #@! TA.AperFunction,Plated,PTH,ComponentDrill
T4C0.1260
%
G90
G05
T1
X2.6Y-2.4
X2.6Y-2.8
X2.628Y-2.9134
X2.628Y-2.9528
X2.6575Y-2.9724
X2.687Y-2.9724
X2.7165Y-2.9724
X2.7756Y-2.4213
X2.7756Y-2.5197
X2.7756Y-3.8091
X2.7854Y-2.5591
X2.8Y-2.0
X2.8Y-2.2
X2.8Y-3.0
X2.8Y-3.2
X2.8Y-3.4
X2.8Y-3.6
X2.815Y-2.0866
X2.815Y-2.8445
X2.8346Y-2.5689
X2.8543Y-2.7559
X2.8543Y-2.7953
X2.874Y-2.0374
X2.8839Y-2.9331
X2.9429Y-2.2047
X2.9429Y-2.2539
X2.9429Y-2.3425
X2.9528Y-2.3031
X2.9528Y-3.8484
X2.9921Y-2.3524
X3.0118Y-2.4016
X3.0217Y-2.8642
X3.0217Y-2.9035
X3.0315Y-2.3524
X3.061Y-2.4016
X3.0669Y-2.4409
X3.0906Y-2.874
X3.189Y-2.7756
X3.2Y-3.0
X3.2Y-3.2
X3.2Y-3.4
X3.2Y-3.6
X3.2Y-3.8
X3.2185Y-2.3839
X3.2205Y-2.3583
X3.2461Y-2.3583
X3.2461Y-2.3839
X3.2972Y-2.5295
X3.3366Y-2.5591
X3.3366Y-2.5984
X3.376Y-2.1654
X3.3858Y-2.8642
X3.4Y-2.0
X3.4Y-2.4
X3.4Y-2.6
X3.4Y-3.0
X3.4Y-3.2
X3.4Y-3.4
X3.4Y-3.6
X3.4Y-3.8
X3.4055Y-2.0472
X3.4055Y-2.1654
X3.435Y-2.8839
X3.4449Y-2.8248
X3.4547Y-2.1063
X3.4744Y-2.2638
X3.4941Y-2.185
X3.4941Y-2.3524
X3.5Y-2.5
X3.5039Y-2.8346
X3.5039Y-2.9331
X3.5827Y-2.1654
X3.5925Y-2.3622
X3.6Y-2.0
X3.6Y-2.6
X3.6614Y-2.3425
X3.6713Y-2.1752
X3.6713Y-2.2539
X3.6811Y-3.8386
X3.8Y-2.0
X3.8Y-2.6
X3.8287Y-3.2874
X3.8484Y-3.1693
X3.8583Y-3.6614
X3.9Y-3.5
X3.9Y-3.6
X3.9Y-3.8
X3.9469Y-3.1693
X4.0Y-2.0
X4.0Y-3.5
X4.0551Y-2.9528
X4.0551Y-3.1693
X4.1Y-3.5
X4.124Y-2.5886
X4.1634Y-2.5886
X4.2Y-2.4
X4.2Y-2.6
X4.2Y-3.5
X4.2323Y-2.6476
X4.2323Y-2.6969
T2
X2.5591Y-2.5575
X2.5591Y-2.6575
X2.6181Y-3.0677
X2.6181Y-3.1677
X2.6181Y-3.2677
X2.6181Y-3.3677
X4.1624Y-2.6657
X4.1624Y-2.7657
T3
X3.5827Y-2.2638
X3.7795Y-2.2638
T4
X2.6181Y-2.126
X2.6181Y-3.7008
X4.0945Y-2.126
X4.0945Y-3.7008
M30
