%TF.GenerationSoftware,KiCad,Pcbnew,8.0.6*%
%TF.CreationDate,2024-11-07T10:06:34+11:00*%
%TF.ProjectId,mppt-board,6d707074-2d62-46f6-9172-642e6b696361,rev?*%
%TF.SameCoordinates,Original*%
%TF.FileFunction,Copper,L1,Top*%
%TF.FilePolarity,Positive*%
%FSLAX46Y46*%
G04 Gerber Fmt 4.6, Leading zero omitted, Abs format (unit mm)*
G04 Created by KiCad (PCBNEW 8.0.6) date 2024-11-07 10:06:34*
%MOMM*%
%LPD*%
G01*
G04 APERTURE LIST*
G04 Aperture macros list*
%AMRoundRect*
0 Rectangle with rounded corners*
0 $1 Rounding radius*
0 $2 $3 $4 $5 $6 $7 $8 $9 X,Y pos of 4 corners*
0 Add a 4 corners polygon primitive as box body*
4,1,4,$2,$3,$4,$5,$6,$7,$8,$9,$2,$3,0*
0 Add four circle primitives for the rounded corners*
1,1,$1+$1,$2,$3*
1,1,$1+$1,$4,$5*
1,1,$1+$1,$6,$7*
1,1,$1+$1,$8,$9*
0 Add four rect primitives between the rounded corners*
20,1,$1+$1,$2,$3,$4,$5,0*
20,1,$1+$1,$4,$5,$6,$7,0*
20,1,$1+$1,$6,$7,$8,$9,0*
20,1,$1+$1,$8,$9,$2,$3,0*%
G04 Aperture macros list end*
%TA.AperFunction,Conductor*%
%ADD10C,0.200000*%
%TD*%
%TA.AperFunction,SMDPad,CuDef*%
%ADD11R,2.950000X3.500000*%
%TD*%
%TA.AperFunction,ComponentPad*%
%ADD12C,5.800000*%
%TD*%
%TA.AperFunction,SMDPad,CuDef*%
%ADD13RoundRect,0.250000X-0.262500X-0.450000X0.262500X-0.450000X0.262500X0.450000X-0.262500X0.450000X0*%
%TD*%
%TA.AperFunction,SMDPad,CuDef*%
%ADD14RoundRect,0.150000X-0.150000X0.512500X-0.150000X-0.512500X0.150000X-0.512500X0.150000X0.512500X0*%
%TD*%
%TA.AperFunction,ComponentPad*%
%ADD15C,6.400000*%
%TD*%
%TA.AperFunction,ComponentPad*%
%ADD16R,2.400000X2.400000*%
%TD*%
%TA.AperFunction,ComponentPad*%
%ADD17C,2.400000*%
%TD*%
%TA.AperFunction,SMDPad,CuDef*%
%ADD18RoundRect,0.150000X-0.825000X-0.150000X0.825000X-0.150000X0.825000X0.150000X-0.825000X0.150000X0*%
%TD*%
%TA.AperFunction,SMDPad,CuDef*%
%ADD19RoundRect,0.250000X-0.475000X0.250000X-0.475000X-0.250000X0.475000X-0.250000X0.475000X0.250000X0*%
%TD*%
%TA.AperFunction,ComponentPad*%
%ADD20R,1.700000X1.700000*%
%TD*%
%TA.AperFunction,ComponentPad*%
%ADD21O,1.700000X1.700000*%
%TD*%
%TA.AperFunction,SMDPad,CuDef*%
%ADD22RoundRect,0.250000X-2.050000X-0.300000X2.050000X-0.300000X2.050000X0.300000X-2.050000X0.300000X0*%
%TD*%
%TA.AperFunction,SMDPad,CuDef*%
%ADD23RoundRect,0.250000X-2.025000X-2.375000X2.025000X-2.375000X2.025000X2.375000X-2.025000X2.375000X0*%
%TD*%
%TA.AperFunction,SMDPad,CuDef*%
%ADD24RoundRect,0.250002X-4.449998X-5.149998X4.449998X-5.149998X4.449998X5.149998X-4.449998X5.149998X0*%
%TD*%
%TA.AperFunction,SMDPad,CuDef*%
%ADD25RoundRect,0.250000X-0.850000X-0.350000X0.850000X-0.350000X0.850000X0.350000X-0.850000X0.350000X0*%
%TD*%
%TA.AperFunction,SMDPad,CuDef*%
%ADD26RoundRect,0.250000X-1.275000X-1.125000X1.275000X-1.125000X1.275000X1.125000X-1.275000X1.125000X0*%
%TD*%
%TA.AperFunction,SMDPad,CuDef*%
%ADD27RoundRect,0.249997X-2.950003X-2.650003X2.950003X-2.650003X2.950003X2.650003X-2.950003X2.650003X0*%
%TD*%
%TA.AperFunction,SMDPad,CuDef*%
%ADD28RoundRect,0.250000X0.475000X-0.250000X0.475000X0.250000X-0.475000X0.250000X-0.475000X-0.250000X0*%
%TD*%
%TA.AperFunction,SMDPad,CuDef*%
%ADD29RoundRect,0.375000X0.625000X0.375000X-0.625000X0.375000X-0.625000X-0.375000X0.625000X-0.375000X0*%
%TD*%
%TA.AperFunction,SMDPad,CuDef*%
%ADD30RoundRect,0.500000X0.500000X1.400000X-0.500000X1.400000X-0.500000X-1.400000X0.500000X-1.400000X0*%
%TD*%
%TA.AperFunction,SMDPad,CuDef*%
%ADD31RoundRect,0.250000X-1.425000X0.362500X-1.425000X-0.362500X1.425000X-0.362500X1.425000X0.362500X0*%
%TD*%
%TA.AperFunction,ComponentPad*%
%ADD32C,5.520000*%
%TD*%
%TA.AperFunction,ViaPad*%
%ADD33C,0.600000*%
%TD*%
G04 APERTURE END LIST*
D10*
%TO.N,GND*%
X82300000Y-67300000D02*
X81700000Y-68600000D01*
X81400000Y-68600000D01*
X82400000Y-66200000D01*
X82300000Y-67300000D01*
%TA.AperFunction,Conductor*%
G36*
X82300000Y-67300000D02*
G01*
X81700000Y-68600000D01*
X81400000Y-68600000D01*
X82400000Y-66200000D01*
X82300000Y-67300000D01*
G37*
%TD.AperFunction*%
%TO.N,VBUS*%
X70700000Y-74100000D02*
X73700000Y-78500000D01*
X72000000Y-81800000D01*
X70700000Y-81400000D01*
X66800000Y-76800000D01*
X64200000Y-71900000D01*
X69700000Y-70900000D01*
X70700000Y-74100000D01*
%TA.AperFunction,Conductor*%
G36*
X70700000Y-74100000D02*
G01*
X73700000Y-78500000D01*
X72000000Y-81800000D01*
X70700000Y-81400000D01*
X66800000Y-76800000D01*
X64200000Y-71900000D01*
X69700000Y-70900000D01*
X70700000Y-74100000D01*
G37*
%TD.AperFunction*%
%TO.N,Net-(U4--)*%
X72000000Y-66600000D02*
X75000000Y-66700000D01*
X76900000Y-67600000D01*
X76900000Y-68800000D01*
X76100000Y-68800000D01*
X74600000Y-67800000D01*
X72000000Y-67700000D01*
X66500000Y-66900000D01*
X68700000Y-62100000D01*
X72000000Y-66600000D01*
%TA.AperFunction,Conductor*%
G36*
X72000000Y-66600000D02*
G01*
X75000000Y-66700000D01*
X76900000Y-67600000D01*
X76900000Y-68800000D01*
X76100000Y-68800000D01*
X74600000Y-67800000D01*
X72000000Y-67700000D01*
X66500000Y-66900000D01*
X68700000Y-62100000D01*
X72000000Y-66600000D01*
G37*
%TD.AperFunction*%
%TO.N,Net-(D1-K)*%
X102400000Y-68900000D02*
X105400000Y-68900000D01*
X105500000Y-72400000D01*
X99200000Y-75000000D01*
X99100000Y-67300000D01*
X94900000Y-58600000D01*
X97000000Y-56500000D01*
X102400000Y-68900000D01*
%TA.AperFunction,Conductor*%
G36*
X102400000Y-68900000D02*
G01*
X105400000Y-68900000D01*
X105500000Y-72400000D01*
X99200000Y-75000000D01*
X99100000Y-67300000D01*
X94900000Y-58600000D01*
X97000000Y-56500000D01*
X102400000Y-68900000D01*
G37*
%TD.AperFunction*%
X105700000Y-71300000D02*
X99100000Y-80800000D01*
X98200000Y-76800000D01*
X101400000Y-71100000D01*
X105700000Y-71300000D01*
%TA.AperFunction,Conductor*%
G36*
X105700000Y-71300000D02*
G01*
X99100000Y-80800000D01*
X98200000Y-76800000D01*
X101400000Y-71100000D01*
X105700000Y-71300000D01*
G37*
%TD.AperFunction*%
%TO.N,/V_{drop}*%
X82590000Y-70010000D02*
X82140000Y-70110000D01*
X81840000Y-70460000D01*
X81840000Y-71710000D01*
X82840000Y-72710000D01*
X82840000Y-73710000D01*
X82090000Y-73710000D01*
X81340000Y-71960000D01*
X81340000Y-70210000D01*
X82340000Y-69710000D01*
X82340000Y-68960000D01*
X82590000Y-68960000D01*
X82590000Y-70010000D01*
%TA.AperFunction,Conductor*%
G36*
X82590000Y-70010000D02*
G01*
X82140000Y-70110000D01*
X81840000Y-70460000D01*
X81840000Y-71710000D01*
X82840000Y-72710000D01*
X82840000Y-73710000D01*
X82090000Y-73710000D01*
X81340000Y-71960000D01*
X81340000Y-70210000D01*
X82340000Y-69710000D01*
X82340000Y-68960000D01*
X82590000Y-68960000D01*
X82590000Y-70010000D01*
G37*
%TD.AperFunction*%
%TO.N,VBUS*%
X82000000Y-57000000D02*
X82000000Y-57800000D01*
X79400000Y-57000000D01*
X79400000Y-55800000D01*
X82000000Y-57000000D01*
%TA.AperFunction,Conductor*%
G36*
X82000000Y-57000000D02*
G01*
X82000000Y-57800000D01*
X79400000Y-57000000D01*
X79400000Y-55800000D01*
X82000000Y-57000000D01*
G37*
%TD.AperFunction*%
%TO.N,GND*%
X76090000Y-62960000D02*
X74340000Y-63960000D01*
X74340000Y-63210000D01*
X76090000Y-62710000D01*
X76090000Y-62960000D01*
%TA.AperFunction,Conductor*%
G36*
X76090000Y-62960000D02*
G01*
X74340000Y-63960000D01*
X74340000Y-63210000D01*
X76090000Y-62710000D01*
X76090000Y-62960000D01*
G37*
%TD.AperFunction*%
%TO.N,Net-(U1--)*%
X80590000Y-73460000D02*
X78340000Y-71210000D01*
X78340000Y-70460000D01*
X80590000Y-70460000D01*
X80590000Y-73460000D01*
%TA.AperFunction,Conductor*%
G36*
X80590000Y-73460000D02*
G01*
X78340000Y-71210000D01*
X78340000Y-70460000D01*
X80590000Y-70460000D01*
X80590000Y-73460000D01*
G37*
%TD.AperFunction*%
%TO.N,Net-(Q1-D)*%
X98100000Y-68700000D02*
X98500000Y-73800000D01*
X89700000Y-75800000D01*
X88300000Y-84700000D01*
X84000000Y-84800000D01*
X78900000Y-81300000D01*
X78900000Y-78700000D01*
X83800000Y-74900000D01*
X90300000Y-74200000D01*
X92300000Y-73300000D01*
X92600000Y-68400000D01*
X98100000Y-68700000D01*
%TA.AperFunction,Conductor*%
G36*
X98100000Y-68700000D02*
G01*
X98500000Y-73800000D01*
X89700000Y-75800000D01*
X88300000Y-84700000D01*
X84000000Y-84800000D01*
X78900000Y-81300000D01*
X78900000Y-78700000D01*
X83800000Y-74900000D01*
X90300000Y-74200000D01*
X92300000Y-73300000D01*
X92600000Y-68400000D01*
X98100000Y-68700000D01*
G37*
%TD.AperFunction*%
%TO.N,VCC*%
X79000000Y-52200000D02*
X77600000Y-52200000D01*
X77600000Y-51400000D01*
X79000000Y-51400000D01*
X79000000Y-52200000D01*
%TA.AperFunction,Conductor*%
G36*
X79000000Y-52200000D02*
G01*
X77600000Y-52200000D01*
X77600000Y-51400000D01*
X79000000Y-51400000D01*
X79000000Y-52200000D01*
G37*
%TD.AperFunction*%
%TO.N,VBUS*%
X84940000Y-71510000D02*
X82540000Y-71510000D01*
X82540000Y-70910000D01*
X84940000Y-70910000D01*
X84940000Y-71510000D01*
%TA.AperFunction,Conductor*%
G36*
X84940000Y-71510000D02*
G01*
X82540000Y-71510000D01*
X82540000Y-70910000D01*
X84940000Y-70910000D01*
X84940000Y-71510000D01*
G37*
%TD.AperFunction*%
%TO.N,VCC*%
X82000000Y-51400000D02*
X82000000Y-52200000D01*
X79600000Y-52400000D01*
X79600000Y-51200000D01*
X82000000Y-51400000D01*
%TA.AperFunction,Conductor*%
G36*
X82000000Y-51400000D02*
G01*
X82000000Y-52200000D01*
X79600000Y-52400000D01*
X79600000Y-51200000D01*
X82000000Y-51400000D01*
G37*
%TD.AperFunction*%
%TO.N,Net-(U1-+)*%
X80590000Y-69210000D02*
X78340000Y-68710000D01*
X78340000Y-67710000D01*
X80590000Y-66460000D01*
X80590000Y-69210000D01*
%TA.AperFunction,Conductor*%
G36*
X80590000Y-69210000D02*
G01*
X78340000Y-68710000D01*
X78340000Y-67710000D01*
X80590000Y-66460000D01*
X80590000Y-69210000D01*
G37*
%TD.AperFunction*%
%TO.N,VCC*%
X76840000Y-61710000D02*
X74340000Y-62210000D01*
X74340000Y-61460000D01*
X76840000Y-61460000D01*
X76840000Y-61710000D01*
%TA.AperFunction,Conductor*%
G36*
X76840000Y-61710000D02*
G01*
X74340000Y-62210000D01*
X74340000Y-61460000D01*
X76840000Y-61460000D01*
X76840000Y-61710000D01*
G37*
%TD.AperFunction*%
%TO.N,GND*%
X82000000Y-55800000D02*
X79400000Y-54600000D01*
X79400000Y-53400000D01*
X82000000Y-53400000D01*
X82000000Y-55800000D01*
%TA.AperFunction,Conductor*%
G36*
X82000000Y-55800000D02*
G01*
X79400000Y-54600000D01*
X79400000Y-53400000D01*
X82000000Y-53400000D01*
X82000000Y-55800000D01*
G37*
%TD.AperFunction*%
%TD*%
D11*
%TO.P,L1,1,1*%
%TO.N,VBUS*%
X73375000Y-80100000D03*
%TO.P,L1,2,2*%
%TO.N,Net-(Q1-D)*%
X78825000Y-80100000D03*
%TD*%
D12*
%TO.P,U4,1,-*%
%TO.N,Net-(U4--)*%
X66800000Y-64100000D03*
%TO.P,U4,2,+*%
%TO.N,VBUS*%
X66800000Y-71300000D03*
%TD*%
D13*
%TO.P,R2,1*%
%TO.N,Net-(U4--)*%
X76427500Y-68210000D03*
%TO.P,R2,2*%
%TO.N,Net-(U1-+)*%
X78252500Y-68210000D03*
%TD*%
D14*
%TO.P,U1,1*%
%TO.N,/V_{drop}*%
X82540000Y-68822500D03*
%TO.P,U1,2,GND*%
%TO.N,GND*%
X81590000Y-68822500D03*
%TO.P,U1,3,+*%
%TO.N,Net-(U1-+)*%
X80640000Y-68822500D03*
%TO.P,U1,4,-*%
%TO.N,Net-(U1--)*%
X80640000Y-71097500D03*
%TO.P,U1,5,V+*%
%TO.N,VBUS*%
X82540000Y-71097500D03*
%TD*%
D13*
%TO.P,R5,1*%
%TO.N,Net-(U1--)*%
X80677500Y-73210000D03*
%TO.P,R5,2*%
%TO.N,/V_{drop}*%
X82502500Y-73210000D03*
%TD*%
%TO.P,R4,1*%
%TO.N,Net-(U1-+)*%
X80927500Y-66710000D03*
%TO.P,R4,2*%
%TO.N,GND*%
X82752500Y-66710000D03*
%TD*%
D15*
%TO.P,H3,1,1*%
%TO.N,GND*%
X66500000Y-84500000D03*
%TD*%
D16*
%TO.P,C2,1*%
%TO.N,Net-(D1-K)*%
X96000000Y-57200000D03*
D17*
%TO.P,C2,2*%
%TO.N,GND*%
X91000000Y-57200000D03*
%TD*%
D13*
%TO.P,R3,1*%
%TO.N,GND*%
X76427500Y-70710000D03*
%TO.P,R3,2*%
%TO.N,Net-(U1--)*%
X78252500Y-70710000D03*
%TD*%
D18*
%TO.P,U3,1,PC14/PB7/PB8/PB9*%
%TO.N,/V_{drop}*%
X76865000Y-60305000D03*
%TO.P,U3,2,VDD*%
%TO.N,VCC*%
X76865000Y-61575000D03*
%TO.P,U3,3,VSS*%
%TO.N,GND*%
X76865000Y-62845000D03*
%TO.P,U3,4,NRST/PA0/PA1/PA2*%
%TO.N,unconnected-(U3-NRST{slash}PA0{slash}PA1{slash}PA2-Pad4)*%
X76865000Y-64115000D03*
%TO.P,U3,5,PB0/PB1/PA8/PA11/PA9*%
%TO.N,unconnected-(U3-PB0{slash}PB1{slash}PA8{slash}PA11{slash}PA9-Pad5)*%
X81815000Y-64115000D03*
%TO.P,U3,6,PA12/PA10*%
%TO.N,/pwm*%
X81815000Y-62845000D03*
%TO.P,U3,7,PA13*%
%TO.N,/swdio*%
X81815000Y-61575000D03*
%TO.P,U3,8,PA14/PA15/PB5/PB6*%
%TO.N,/swclk*%
X81815000Y-60305000D03*
%TD*%
D19*
%TO.P,C1,1*%
%TO.N,VBUS*%
X84940000Y-71160000D03*
%TO.P,C1,2*%
%TO.N,GND*%
X84940000Y-73060000D03*
%TD*%
D15*
%TO.P,H2,1,1*%
%TO.N,GND*%
X104000000Y-54000000D03*
%TD*%
D20*
%TO.P,J2,1,Pin_1*%
%TO.N,VCC*%
X72520000Y-86100000D03*
D21*
%TO.P,J2,2,Pin_2*%
%TO.N,/swclk*%
X75060000Y-86100000D03*
%TO.P,J2,3,Pin_3*%
%TO.N,/swdio*%
X77600000Y-86100000D03*
%TO.P,J2,4,Pin_4*%
%TO.N,GND*%
X80140000Y-86100000D03*
%TD*%
D19*
%TO.P,C3,1*%
%TO.N,VCC*%
X74340000Y-61760000D03*
%TO.P,C3,2*%
%TO.N,GND*%
X74340000Y-63660000D03*
%TD*%
D22*
%TO.P,D1,1,A*%
%TO.N,Net-(Q1-D)*%
X86050000Y-79160000D03*
D23*
%TO.P,D1,2,K*%
%TO.N,Net-(D1-K)*%
X92775000Y-78925000D03*
X92775000Y-84475000D03*
D24*
X95200000Y-81700000D03*
D23*
X97625000Y-78925000D03*
X97625000Y-84475000D03*
D22*
%TO.P,D1,3,A*%
%TO.N,Net-(Q1-D)*%
X86050000Y-84240000D03*
%TD*%
D15*
%TO.P,H1,1,1*%
%TO.N,GND*%
X66500000Y-54000000D03*
%TD*%
D25*
%TO.P,Q1,1,G*%
%TO.N,/pwm*%
X89025000Y-68745000D03*
D26*
%TO.P,Q1,2,D*%
%TO.N,Net-(Q1-D)*%
X93650000Y-69500000D03*
X93650000Y-72550000D03*
D27*
X95325000Y-71025000D03*
D26*
X97000000Y-69500000D03*
X97000000Y-72550000D03*
D25*
%TO.P,Q1,3,S*%
%TO.N,GND*%
X89025000Y-73305000D03*
%TD*%
D28*
%TO.P,C4,1*%
%TO.N,VBUS*%
X82000000Y-57350000D03*
%TO.P,C4,2*%
%TO.N,GND*%
X82000000Y-55450000D03*
%TD*%
D19*
%TO.P,C5,1*%
%TO.N,VCC*%
X82000000Y-51850000D03*
%TO.P,C5,2*%
%TO.N,GND*%
X82000000Y-53750000D03*
%TD*%
D15*
%TO.P,H4,1,1*%
%TO.N,GND*%
X104000000Y-84600000D03*
%TD*%
D29*
%TO.P,U2,1,VI*%
%TO.N,VBUS*%
X79400000Y-56400000D03*
%TO.P,U2,2,GND*%
%TO.N,GND*%
X79400000Y-54100000D03*
D30*
X73100000Y-54100000D03*
D29*
%TO.P,U2,3,VO*%
%TO.N,VCC*%
X79400000Y-51800000D03*
%TD*%
D31*
%TO.P,R1,2*%
%TO.N,GND*%
X73500000Y-73162500D03*
%TO.P,R1,1*%
%TO.N,Net-(U4--)*%
X73500000Y-67237500D03*
%TD*%
D32*
%TO.P,U5,2,2*%
%TO.N,Net-(D1-K)*%
X103500000Y-70800000D03*
%TO.P,U5,1,1*%
%TO.N,GND*%
X103500000Y-63600000D03*
%TD*%
D33*
%TO.N,GND*%
X75400000Y-77300000D03*
X75800000Y-79200000D03*
X86300000Y-63600000D03*
X84500000Y-61200000D03*
X85700000Y-68000000D03*
X78600000Y-74400000D03*
X73500000Y-70200000D03*
X65300000Y-78200000D03*
X69500000Y-81700000D03*
X63500000Y-81600000D03*
X69500000Y-87400000D03*
X102400000Y-88300000D03*
X101000000Y-87700000D03*
X101100000Y-81700000D03*
X102600000Y-78400000D03*
X105800000Y-78200000D03*
X106900000Y-57000000D03*
X101100000Y-57000000D03*
X107000000Y-65200000D03*
X103500000Y-67200000D03*
X106000000Y-66400000D03*
X101000000Y-60800000D03*
X107200000Y-63600000D03*
X106400000Y-61200000D03*
%TO.N,VBUS*%
X67300000Y-76000000D03*
X69400000Y-74800000D03*
X71000000Y-77000000D03*
X69300000Y-78900000D03*
X68900000Y-77000000D03*
X86340000Y-70710000D03*
X85140000Y-70110000D03*
X83600000Y-57400000D03*
X83400000Y-58200000D03*
X77600000Y-56400000D03*
%TO.N,GND*%
X88900000Y-63500000D03*
X71500000Y-56500000D03*
X71300000Y-54100000D03*
X73100000Y-51400000D03*
X89500000Y-85200000D03*
X71500000Y-51800000D03*
X74700000Y-56300000D03*
X91000000Y-55000000D03*
X75800000Y-80875429D03*
X107000000Y-81200000D03*
X93000000Y-59500000D03*
X81840000Y-65110000D03*
X86360000Y-50800000D03*
X80500000Y-75600000D03*
X75000000Y-52200000D03*
X73200000Y-76000000D03*
X73900000Y-84000000D03*
X99500000Y-88000000D03*
X83800000Y-55600000D03*
X79540000Y-65510000D03*
X104600000Y-80200000D03*
X75000000Y-54100000D03*
X70900000Y-83600000D03*
X88250000Y-57500000D03*
X93250000Y-55250000D03*
X77600000Y-53400000D03*
X80040000Y-63210000D03*
X104800000Y-76600000D03*
X73100000Y-56800000D03*
X93250000Y-57250000D03*
X91440000Y-66040000D03*
X77600000Y-54200000D03*
X89000000Y-72000000D03*
X86500000Y-55000000D03*
X86360000Y-86360000D03*
X104000000Y-60000000D03*
X88750000Y-59750000D03*
X77600000Y-55000000D03*
X101600000Y-50800000D03*
X89800000Y-80900000D03*
X73250000Y-74500000D03*
X88750000Y-55500000D03*
X79340000Y-59460000D03*
X76040000Y-65810000D03*
X83800000Y-54000000D03*
X96520000Y-66040000D03*
X77090000Y-59210000D03*
X87750000Y-53500000D03*
X86500000Y-52000000D03*
X72000000Y-65250000D03*
X78340000Y-59460000D03*
X96520000Y-50800000D03*
X91440000Y-50800000D03*
X90000000Y-78000000D03*
X97800000Y-88100000D03*
X82700000Y-85600000D03*
X91250000Y-60000000D03*
X79340000Y-69710000D03*
X95600000Y-64700000D03*
X71600000Y-58600000D03*
X76800000Y-82800000D03*
%TO.N,VCC*%
X72840000Y-61210000D03*
X77600000Y-52200000D03*
X77600000Y-51400000D03*
%TO.N,/V_{drop}*%
X78943861Y-63925378D03*
X83340000Y-67910000D03*
%TO.N,/swdio*%
X80240000Y-61710000D03*
%TO.N,/swclk*%
X80090000Y-60710000D03*
%TD*%
D10*
%TO.N,/pwm*%
X81815000Y-62845000D02*
X83125000Y-62845000D01*
X83125000Y-62845000D02*
X89025000Y-68745000D01*
%TO.N,VBUS*%
X83740000Y-71210000D02*
X84040000Y-71210000D01*
X84040000Y-71210000D02*
X85140000Y-70110000D01*
X84940000Y-71160000D02*
X85890000Y-71160000D01*
X82550000Y-57350000D02*
X83400000Y-58200000D01*
X85890000Y-71160000D02*
X86340000Y-70710000D01*
X83550000Y-57350000D02*
X83600000Y-57400000D01*
X79400000Y-56400000D02*
X77600000Y-56400000D01*
X82000000Y-57350000D02*
X83550000Y-57350000D01*
X82000000Y-57350000D02*
X82550000Y-57350000D01*
%TO.N,GND*%
X81590000Y-68822500D02*
X81590000Y-69260000D01*
X79400000Y-54100000D02*
X78300000Y-54100000D01*
X78300000Y-54100000D02*
X77600000Y-53400000D01*
X78500000Y-54100000D02*
X77600000Y-55000000D01*
X79400000Y-54100000D02*
X78500000Y-54100000D01*
X81590000Y-69260000D02*
X80940000Y-69910000D01*
%TO.N,VCC*%
X73390000Y-61760000D02*
X74340000Y-61760000D01*
X79400000Y-51800000D02*
X78400000Y-51800000D01*
X77600000Y-51400000D02*
X77600000Y-52200000D01*
X72840000Y-61210000D02*
X73390000Y-61760000D01*
X78400000Y-51800000D02*
X78000000Y-51800000D01*
X78000000Y-51800000D02*
X77600000Y-51400000D01*
%TO.N,/V_{drop}*%
X82540000Y-68710000D02*
X83340000Y-67910000D01*
X76865000Y-60305000D02*
X78435000Y-60305000D01*
X78866129Y-63847646D02*
X78943861Y-63925378D01*
X82540000Y-68822500D02*
X82540000Y-68710000D01*
X78866129Y-60736129D02*
X78866129Y-63847646D01*
X78435000Y-60305000D02*
X78866129Y-60736129D01*
%TO.N,/swdio*%
X80375000Y-61575000D02*
X80240000Y-61710000D01*
X81815000Y-61575000D02*
X80375000Y-61575000D01*
%TO.N,/swclk*%
X80495000Y-60305000D02*
X80090000Y-60710000D01*
X81815000Y-60305000D02*
X80495000Y-60305000D01*
%TD*%
%TA.AperFunction,Conductor*%
%TO.N,GND*%
G36*
X103502702Y-50000617D02*
G01*
X103886771Y-50017386D01*
X103897504Y-50018326D01*
X104191114Y-50056980D01*
X104255009Y-50085247D01*
X104293480Y-50143571D01*
X104294311Y-50213436D01*
X104257239Y-50272659D01*
X104194033Y-50302438D01*
X104168438Y-50303749D01*
X104000002Y-50294922D01*
X103999999Y-50294922D01*
X103612712Y-50315219D01*
X103229676Y-50375886D01*
X103229669Y-50375887D01*
X102855063Y-50476262D01*
X102493005Y-50615244D01*
X102147456Y-50791310D01*
X101822206Y-51002531D01*
X101564648Y-51211095D01*
X101564648Y-51211096D01*
X103059301Y-52705748D01*
X102957670Y-52779588D01*
X102779588Y-52957670D01*
X102705748Y-53059300D01*
X101211096Y-51564648D01*
X101211095Y-51564648D01*
X101002531Y-51822206D01*
X100791310Y-52147456D01*
X100615244Y-52493005D01*
X100476262Y-52855063D01*
X100375887Y-53229669D01*
X100375886Y-53229676D01*
X100315219Y-53612712D01*
X100294922Y-53999999D01*
X100294922Y-54000000D01*
X100315219Y-54387287D01*
X100375886Y-54770323D01*
X100375887Y-54770330D01*
X100476262Y-55144936D01*
X100615244Y-55506994D01*
X100791310Y-55852543D01*
X101002531Y-56177793D01*
X101211095Y-56435350D01*
X101211096Y-56435350D01*
X102705748Y-54940698D01*
X102779588Y-55042330D01*
X102957670Y-55220412D01*
X103059300Y-55294251D01*
X101564648Y-56788903D01*
X101564649Y-56788904D01*
X101822206Y-56997468D01*
X102147456Y-57208689D01*
X102493005Y-57384755D01*
X102855063Y-57523737D01*
X103229669Y-57624112D01*
X103229676Y-57624113D01*
X103612712Y-57684780D01*
X103999999Y-57705078D01*
X104000001Y-57705078D01*
X104387287Y-57684780D01*
X104770323Y-57624113D01*
X104770330Y-57624112D01*
X105144936Y-57523737D01*
X105506994Y-57384755D01*
X105852543Y-57208689D01*
X106177783Y-56997476D01*
X106177785Y-56997475D01*
X106435349Y-56788902D01*
X104940698Y-55294251D01*
X105042330Y-55220412D01*
X105220412Y-55042330D01*
X105294251Y-54940698D01*
X106788902Y-56435349D01*
X106997475Y-56177785D01*
X106997476Y-56177783D01*
X107208689Y-55852543D01*
X107384755Y-55506994D01*
X107523737Y-55144936D01*
X107624112Y-54770330D01*
X107624113Y-54770323D01*
X107684780Y-54387287D01*
X107705078Y-54000000D01*
X107705078Y-53999999D01*
X107696250Y-53831562D01*
X107712399Y-53763584D01*
X107762736Y-53715128D01*
X107831279Y-53701579D01*
X107896267Y-53727237D01*
X107937066Y-53783958D01*
X107943019Y-53808886D01*
X107981671Y-54102472D01*
X107982614Y-54113249D01*
X107999382Y-54497297D01*
X107999500Y-54502706D01*
X107999500Y-84161759D01*
X107999382Y-84167168D01*
X107982614Y-84551218D01*
X107981671Y-84561994D01*
X107937405Y-84898224D01*
X107909138Y-84962121D01*
X107850814Y-85000592D01*
X107780949Y-85001423D01*
X107721726Y-84964351D01*
X107691947Y-84901145D01*
X107690636Y-84875549D01*
X107705078Y-84600000D01*
X107705078Y-84599999D01*
X107684780Y-84212712D01*
X107624113Y-83829676D01*
X107624112Y-83829669D01*
X107523737Y-83455063D01*
X107384755Y-83093005D01*
X107208689Y-82747456D01*
X106997468Y-82422206D01*
X106788904Y-82164649D01*
X106788903Y-82164648D01*
X105294251Y-83659300D01*
X105220412Y-83557670D01*
X105042330Y-83379588D01*
X104940698Y-83305748D01*
X106435350Y-81811096D01*
X106435350Y-81811095D01*
X106177793Y-81602531D01*
X105852543Y-81391310D01*
X105506994Y-81215244D01*
X105144936Y-81076262D01*
X104770330Y-80975887D01*
X104770323Y-80975886D01*
X104387287Y-80915219D01*
X104000001Y-80894922D01*
X103999999Y-80894922D01*
X103612712Y-80915219D01*
X103229676Y-80975886D01*
X103229669Y-80975887D01*
X102855063Y-81076262D01*
X102493005Y-81215244D01*
X102147456Y-81391310D01*
X101822206Y-81602531D01*
X101564648Y-81811095D01*
X101564648Y-81811096D01*
X103059301Y-83305748D01*
X102957670Y-83379588D01*
X102779588Y-83557670D01*
X102705748Y-83659300D01*
X101211096Y-82164648D01*
X101211095Y-82164648D01*
X101002531Y-82422206D01*
X100791310Y-82747456D01*
X100615244Y-83093005D01*
X100476263Y-83455060D01*
X100394274Y-83761048D01*
X100357909Y-83820708D01*
X100295062Y-83851237D01*
X100225686Y-83842942D01*
X100171808Y-83798457D01*
X100150534Y-83731905D01*
X100150499Y-83729016D01*
X100150499Y-81347877D01*
X100150500Y-81347873D01*
X100150499Y-79949836D01*
X100170184Y-79882798D01*
X100172663Y-79879088D01*
X104485107Y-73671780D01*
X104539489Y-73627971D01*
X104635267Y-73588299D01*
X104772996Y-73531250D01*
X104808258Y-73516644D01*
X104808259Y-73516643D01*
X104808265Y-73516641D01*
X105104207Y-73353080D01*
X105379974Y-73157413D01*
X105632099Y-72932099D01*
X105794822Y-72750013D01*
X105857408Y-72679980D01*
X105857409Y-72679978D01*
X105857413Y-72679974D01*
X106053080Y-72404207D01*
X106216641Y-72108265D01*
X106346039Y-71795872D01*
X106439646Y-71470955D01*
X106496285Y-71137600D01*
X106515244Y-70800000D01*
X106496285Y-70462400D01*
X106439646Y-70129045D01*
X106346039Y-69804128D01*
X106216641Y-69491735D01*
X106053080Y-69195793D01*
X105857413Y-68920026D01*
X105741485Y-68790303D01*
X105720391Y-68757490D01*
X105697613Y-68705560D01*
X105626392Y-68628194D01*
X105618354Y-68619462D01*
X105618352Y-68619460D01*
X105528551Y-68570862D01*
X105504949Y-68554272D01*
X105379974Y-68442587D01*
X105104207Y-68246920D01*
X104808265Y-68083359D01*
X104780016Y-68071658D01*
X104692977Y-68035605D01*
X104495872Y-67953961D01*
X104495868Y-67953959D01*
X104495866Y-67953959D01*
X104170960Y-67860355D01*
X104170951Y-67860353D01*
X103837607Y-67803716D01*
X103837595Y-67803714D01*
X103500000Y-67784756D01*
X103162404Y-67803714D01*
X103162392Y-67803716D01*
X102829048Y-67860353D01*
X102829039Y-67860355D01*
X102504128Y-67953960D01*
X102501406Y-67954913D01*
X102431627Y-67958473D01*
X102371001Y-67923742D01*
X102346768Y-67887379D01*
X101806751Y-66647342D01*
X101798031Y-66578019D01*
X101828175Y-66514986D01*
X101887612Y-66478257D01*
X101957471Y-66479492D01*
X101972504Y-66485294D01*
X102291554Y-66632902D01*
X102291573Y-66632909D01*
X102626577Y-66745786D01*
X102971817Y-66821779D01*
X103323246Y-66859999D01*
X103323254Y-66860000D01*
X103676746Y-66860000D01*
X103676753Y-66859999D01*
X104028182Y-66821779D01*
X104373422Y-66745786D01*
X104708426Y-66632909D01*
X104708445Y-66632902D01*
X105029245Y-66484484D01*
X105029249Y-66484482D01*
X105332154Y-66302229D01*
X105613579Y-66088297D01*
X105624447Y-66078001D01*
X105624448Y-66078000D01*
X104905724Y-65359276D01*
X104989207Y-65295218D01*
X105197758Y-65086667D01*
X105259611Y-65006058D01*
X105975178Y-65721625D01*
X106099073Y-65575766D01*
X106099084Y-65575752D01*
X106297451Y-65283183D01*
X106297453Y-65283179D01*
X106463036Y-64970857D01*
X106463045Y-64970839D01*
X106593888Y-64642447D01*
X106593890Y-64642441D01*
X106688455Y-64301846D01*
X106688461Y-64301820D01*
X106745648Y-63953000D01*
X106745649Y-63952983D01*
X106764788Y-63600002D01*
X106764788Y-63599997D01*
X106745649Y-63247016D01*
X106745648Y-63246999D01*
X106688461Y-62898179D01*
X106688455Y-62898153D01*
X106593890Y-62557558D01*
X106593888Y-62557552D01*
X106463045Y-62229160D01*
X106463036Y-62229142D01*
X106297453Y-61916820D01*
X106297452Y-61916817D01*
X106099076Y-61624235D01*
X106099068Y-61624225D01*
X105975179Y-61478373D01*
X105975178Y-61478373D01*
X105259610Y-62193940D01*
X105197758Y-62113333D01*
X104989207Y-61904782D01*
X104905723Y-61840722D01*
X105624447Y-61121998D01*
X105624447Y-61121997D01*
X105613579Y-61111702D01*
X105332154Y-60897770D01*
X105029249Y-60715517D01*
X105029245Y-60715515D01*
X104708445Y-60567097D01*
X104708426Y-60567090D01*
X104373422Y-60454213D01*
X104028182Y-60378220D01*
X103676753Y-60340000D01*
X103323246Y-60340000D01*
X102971817Y-60378220D01*
X102626577Y-60454213D01*
X102291573Y-60567090D01*
X102291554Y-60567097D01*
X101970754Y-60715515D01*
X101970750Y-60715517D01*
X101667845Y-60897770D01*
X101386422Y-61111701D01*
X101386419Y-61111703D01*
X101375551Y-61121997D01*
X101375551Y-61121998D01*
X102094276Y-61840723D01*
X102010793Y-61904782D01*
X101802242Y-62113333D01*
X101740389Y-62193941D01*
X101024820Y-61478372D01*
X101024819Y-61478373D01*
X100900931Y-61624225D01*
X100900923Y-61624235D01*
X100702547Y-61916817D01*
X100702546Y-61916820D01*
X100536963Y-62229142D01*
X100536954Y-62229160D01*
X100406111Y-62557552D01*
X100406110Y-62557553D01*
X100351559Y-62754032D01*
X100314657Y-62813361D01*
X100251537Y-62843322D01*
X100182239Y-62834401D01*
X100128765Y-62789431D01*
X100118391Y-62770367D01*
X97460812Y-56667778D01*
X97450500Y-56618269D01*
X97450500Y-55975323D01*
X97450499Y-55975321D01*
X97435967Y-55902264D01*
X97435966Y-55902260D01*
X97380601Y-55819399D01*
X97325235Y-55782405D01*
X97297739Y-55764033D01*
X97297735Y-55764032D01*
X97224677Y-55749500D01*
X97224674Y-55749500D01*
X94775326Y-55749500D01*
X94775323Y-55749500D01*
X94702264Y-55764032D01*
X94702260Y-55764033D01*
X94619399Y-55819399D01*
X94564033Y-55902260D01*
X94564032Y-55902264D01*
X94549500Y-55975321D01*
X94549500Y-55975326D01*
X94549500Y-58424674D01*
X94549500Y-58424676D01*
X94549499Y-58424676D01*
X94556674Y-58460742D01*
X94551846Y-58514689D01*
X94554589Y-58515279D01*
X94552430Y-58525326D01*
X94547016Y-58642227D01*
X94547016Y-58642228D01*
X94558311Y-58680862D01*
X94579854Y-58754553D01*
X94595480Y-58786921D01*
X98733589Y-67358720D01*
X98745911Y-67411019D01*
X98751707Y-67857332D01*
X98732894Y-67924621D01*
X98680689Y-67971058D01*
X98611665Y-67981899D01*
X98553406Y-67958209D01*
X98549003Y-67954913D01*
X98517332Y-67931204D01*
X98517330Y-67931203D01*
X98517329Y-67931202D01*
X98382489Y-67880910D01*
X98382482Y-67880908D01*
X98322885Y-67874501D01*
X98322883Y-67874500D01*
X98322875Y-67874500D01*
X98322873Y-67874500D01*
X98322871Y-67874500D01*
X94972878Y-67874500D01*
X94972873Y-67874500D01*
X92327129Y-67874500D01*
X92326458Y-67874500D01*
X92323803Y-67874858D01*
X92267514Y-67880909D01*
X92132670Y-67931202D01*
X92132667Y-67931204D01*
X92017453Y-68017453D01*
X91931204Y-68132667D01*
X91931202Y-68132670D01*
X91880910Y-68267510D01*
X91880908Y-68267517D01*
X91874501Y-68327114D01*
X91874500Y-68327133D01*
X91874500Y-71377127D01*
X91874501Y-72553866D01*
X91874500Y-73021460D01*
X91854815Y-73088500D01*
X91802011Y-73134254D01*
X91801385Y-73134538D01*
X90778159Y-73594989D01*
X90708947Y-73604549D01*
X90645553Y-73575172D01*
X90639593Y-73569592D01*
X90625001Y-73555000D01*
X87425001Y-73555000D01*
X87425001Y-73704986D01*
X87435494Y-73807697D01*
X87490643Y-73974124D01*
X87493243Y-73979701D01*
X87503729Y-74048780D01*
X87475203Y-74112561D01*
X87416723Y-74150795D01*
X87394133Y-74155383D01*
X83761931Y-74546544D01*
X83761926Y-74546545D01*
X83685169Y-74563556D01*
X83685158Y-74563560D01*
X83582143Y-74619075D01*
X83582141Y-74619076D01*
X79127770Y-78073487D01*
X79062731Y-78099015D01*
X79051780Y-78099500D01*
X77325323Y-78099500D01*
X77252264Y-78114032D01*
X77252260Y-78114033D01*
X77169399Y-78169399D01*
X77114033Y-78252260D01*
X77114032Y-78252264D01*
X77099500Y-78325321D01*
X77099500Y-81874678D01*
X77114032Y-81947735D01*
X77114033Y-81947739D01*
X77114034Y-81947740D01*
X77169399Y-82030601D01*
X77252260Y-82085966D01*
X77252264Y-82085967D01*
X77325321Y-82100499D01*
X77325324Y-82100500D01*
X77325326Y-82100500D01*
X79399720Y-82100500D01*
X79466759Y-82120185D01*
X79469884Y-82122260D01*
X80235170Y-82647456D01*
X83798843Y-85093114D01*
X83892418Y-85138831D01*
X84008265Y-85155404D01*
X88308265Y-85055404D01*
X88332658Y-85053997D01*
X88332667Y-85053994D01*
X88332670Y-85053994D01*
X88366536Y-85045081D01*
X88445831Y-85024212D01*
X88543201Y-84959294D01*
X88614217Y-84866277D01*
X88651182Y-84755242D01*
X90000680Y-76176280D01*
X90030543Y-76113116D01*
X90089816Y-76076122D01*
X90095680Y-76074638D01*
X90230734Y-76043944D01*
X90300468Y-76048281D01*
X90356787Y-76089632D01*
X90381811Y-76154867D01*
X90367593Y-76223275D01*
X90357481Y-76239170D01*
X90306206Y-76307665D01*
X90306202Y-76307671D01*
X90255909Y-76442516D01*
X90251787Y-76480861D01*
X90249500Y-76502133D01*
X90249500Y-86897870D01*
X90249501Y-86897876D01*
X90255908Y-86957483D01*
X90306202Y-87092328D01*
X90306206Y-87092335D01*
X90392452Y-87207544D01*
X90392455Y-87207547D01*
X90507664Y-87293793D01*
X90507671Y-87293797D01*
X90552618Y-87310561D01*
X90642517Y-87344091D01*
X90684408Y-87348595D01*
X90691867Y-87350499D01*
X90695474Y-87350499D01*
X90708742Y-87351210D01*
X90715169Y-87351901D01*
X90723351Y-87350499D01*
X95552121Y-87350499D01*
X95552127Y-87350500D01*
X99697872Y-87350499D01*
X99757483Y-87344091D01*
X99892331Y-87293796D01*
X100007546Y-87207546D01*
X100093796Y-87092331D01*
X100144091Y-86957483D01*
X100150500Y-86897873D01*
X100150500Y-85471046D01*
X100170185Y-85404007D01*
X100222989Y-85358252D01*
X100292147Y-85348308D01*
X100355703Y-85377333D01*
X100393477Y-85436111D01*
X100394275Y-85438953D01*
X100476262Y-85744936D01*
X100615244Y-86106994D01*
X100791310Y-86452543D01*
X101002531Y-86777793D01*
X101211095Y-87035350D01*
X101211096Y-87035350D01*
X102705748Y-85540698D01*
X102779588Y-85642330D01*
X102957670Y-85820412D01*
X103059300Y-85894251D01*
X101564648Y-87388903D01*
X101564649Y-87388904D01*
X101822206Y-87597468D01*
X102147456Y-87808689D01*
X102493005Y-87984755D01*
X102855063Y-88123737D01*
X103229669Y-88224112D01*
X103229676Y-88224113D01*
X103612712Y-88284780D01*
X103999999Y-88305078D01*
X104000001Y-88305078D01*
X104387287Y-88284780D01*
X104735762Y-88229587D01*
X104805055Y-88238541D01*
X104858507Y-88283538D01*
X104879147Y-88350289D01*
X104860422Y-88417603D01*
X104808277Y-88464107D01*
X104792447Y-88470321D01*
X104669722Y-88509016D01*
X104659274Y-88511816D01*
X104286613Y-88594433D01*
X104275959Y-88596311D01*
X103897528Y-88646132D01*
X103886751Y-88647075D01*
X103502556Y-88663848D01*
X103497148Y-88663966D01*
X67002706Y-88663966D01*
X66997297Y-88663848D01*
X66613245Y-88647080D01*
X66602471Y-88646137D01*
X66413252Y-88621226D01*
X66224036Y-88596316D01*
X66213383Y-88594438D01*
X65840719Y-88511821D01*
X65830270Y-88509021D01*
X65466230Y-88394240D01*
X65456065Y-88390540D01*
X65103419Y-88244471D01*
X65093615Y-88239900D01*
X64755029Y-88063644D01*
X64745672Y-88058242D01*
X64574648Y-87949288D01*
X64528684Y-87896666D01*
X64518466Y-87827547D01*
X64547239Y-87763877D01*
X64605866Y-87725869D01*
X64675735Y-87725592D01*
X64697568Y-87734222D01*
X64993005Y-87884755D01*
X65355063Y-88023737D01*
X65729669Y-88124112D01*
X65729676Y-88124113D01*
X66112712Y-88184780D01*
X66499999Y-88205078D01*
X66500001Y-88205078D01*
X66887287Y-88184780D01*
X67270323Y-88124113D01*
X67270330Y-88124112D01*
X67644936Y-88023737D01*
X68006994Y-87884755D01*
X68352543Y-87708689D01*
X68677783Y-87497476D01*
X68677785Y-87497475D01*
X68935349Y-87288902D01*
X67440698Y-85794251D01*
X67542330Y-85720412D01*
X67720412Y-85542330D01*
X67794251Y-85440698D01*
X69288902Y-86935349D01*
X69497475Y-86677785D01*
X69497476Y-86677783D01*
X69708689Y-86352543D01*
X69884755Y-86006994D01*
X70023737Y-85644936D01*
X70124112Y-85270330D01*
X70124113Y-85270323D01*
X70131241Y-85225321D01*
X71419500Y-85225321D01*
X71419500Y-86974678D01*
X71434032Y-87047735D01*
X71434033Y-87047739D01*
X71434034Y-87047740D01*
X71489399Y-87130601D01*
X71572260Y-87185966D01*
X71572264Y-87185967D01*
X71645321Y-87200499D01*
X71645324Y-87200500D01*
X71645326Y-87200500D01*
X73394676Y-87200500D01*
X73394677Y-87200499D01*
X73467740Y-87185966D01*
X73550601Y-87130601D01*
X73605966Y-87047740D01*
X73620500Y-86974674D01*
X73620500Y-86099999D01*
X73954785Y-86099999D01*
X73954785Y-86100000D01*
X73973602Y-86303082D01*
X74029417Y-86499247D01*
X74029422Y-86499260D01*
X74120327Y-86681821D01*
X74243237Y-86844581D01*
X74393958Y-86981980D01*
X74393960Y-86981982D01*
X74480153Y-87035350D01*
X74567363Y-87089348D01*
X74757544Y-87163024D01*
X74958024Y-87200500D01*
X74958026Y-87200500D01*
X75161974Y-87200500D01*
X75161976Y-87200500D01*
X75362456Y-87163024D01*
X75552637Y-87089348D01*
X75726041Y-86981981D01*
X75876764Y-86844579D01*
X75999673Y-86681821D01*
X76090582Y-86499250D01*
X76146397Y-86303083D01*
X76165215Y-86100000D01*
X76165215Y-86099999D01*
X76494785Y-86099999D01*
X76494785Y-86100000D01*
X76513602Y-86303082D01*
X76569417Y-86499247D01*
X76569422Y-86499260D01*
X76660327Y-86681821D01*
X76783237Y-86844581D01*
X76933958Y-86981980D01*
X76933960Y-86981982D01*
X77020153Y-87035350D01*
X77107363Y-87089348D01*
X77297544Y-87163024D01*
X77498024Y-87200500D01*
X77498026Y-87200500D01*
X77701974Y-87200500D01*
X77701976Y-87200500D01*
X77902456Y-87163024D01*
X78092637Y-87089348D01*
X78266041Y-86981981D01*
X78416764Y-86844579D01*
X78539673Y-86681821D01*
X78626817Y-86506812D01*
X78674319Y-86455575D01*
X78741982Y-86438153D01*
X78808323Y-86460078D01*
X78852278Y-86514389D01*
X78857592Y-86529989D01*
X78866567Y-86563485D01*
X78866570Y-86563492D01*
X78966399Y-86777578D01*
X79101894Y-86971082D01*
X79268917Y-87138105D01*
X79462421Y-87273600D01*
X79676507Y-87373429D01*
X79676516Y-87373433D01*
X79890000Y-87430634D01*
X79890000Y-86533012D01*
X79947007Y-86565925D01*
X80074174Y-86600000D01*
X80205826Y-86600000D01*
X80332993Y-86565925D01*
X80390000Y-86533012D01*
X80390000Y-87430633D01*
X80603483Y-87373433D01*
X80603492Y-87373429D01*
X80817578Y-87273600D01*
X81011082Y-87138105D01*
X81178105Y-86971082D01*
X81313600Y-86777578D01*
X81413429Y-86563492D01*
X81413432Y-86563486D01*
X81470636Y-86350000D01*
X80573012Y-86350000D01*
X80605925Y-86292993D01*
X80640000Y-86165826D01*
X80640000Y-86034174D01*
X80605925Y-85907007D01*
X80573012Y-85850000D01*
X81470636Y-85850000D01*
X81470635Y-85849999D01*
X81413432Y-85636513D01*
X81413429Y-85636507D01*
X81313600Y-85422422D01*
X81313599Y-85422420D01*
X81178113Y-85228926D01*
X81178108Y-85228920D01*
X81011082Y-85061894D01*
X80817578Y-84926399D01*
X80603492Y-84826570D01*
X80603486Y-84826567D01*
X80390000Y-84769364D01*
X80390000Y-85666988D01*
X80332993Y-85634075D01*
X80205826Y-85600000D01*
X80074174Y-85600000D01*
X79947007Y-85634075D01*
X79890000Y-85666988D01*
X79890000Y-84769364D01*
X79889999Y-84769364D01*
X79676513Y-84826567D01*
X79676507Y-84826570D01*
X79462422Y-84926399D01*
X79462420Y-84926400D01*
X79268926Y-85061886D01*
X79268920Y-85061891D01*
X79101891Y-85228920D01*
X79101886Y-85228926D01*
X78966400Y-85422420D01*
X78966399Y-85422422D01*
X78866570Y-85636507D01*
X78866568Y-85636511D01*
X78857592Y-85670011D01*
X78821226Y-85729671D01*
X78758379Y-85760199D01*
X78689003Y-85751904D01*
X78635126Y-85707418D01*
X78626817Y-85693188D01*
X78580415Y-85600000D01*
X78539673Y-85518179D01*
X78467359Y-85422420D01*
X78416762Y-85355418D01*
X78266041Y-85218019D01*
X78266039Y-85218017D01*
X78092642Y-85110655D01*
X78092635Y-85110651D01*
X77966769Y-85061891D01*
X77902456Y-85036976D01*
X77701976Y-84999500D01*
X77498024Y-84999500D01*
X77297544Y-85036976D01*
X77297541Y-85036976D01*
X77297541Y-85036977D01*
X77107364Y-85110651D01*
X77107357Y-85110655D01*
X76933960Y-85218017D01*
X76933958Y-85218019D01*
X76783237Y-85355418D01*
X76660327Y-85518178D01*
X76569422Y-85700739D01*
X76569417Y-85700752D01*
X76513602Y-85896917D01*
X76494785Y-86099999D01*
X76165215Y-86099999D01*
X76159115Y-86034174D01*
X76146397Y-85896917D01*
X76133048Y-85850000D01*
X76090582Y-85700750D01*
X76090159Y-85699901D01*
X76040415Y-85600000D01*
X75999673Y-85518179D01*
X75927359Y-85422420D01*
X75876762Y-85355418D01*
X75726041Y-85218019D01*
X75726039Y-85218017D01*
X75552642Y-85110655D01*
X75552635Y-85110651D01*
X75426769Y-85061891D01*
X75362456Y-85036976D01*
X75161976Y-84999500D01*
X74958024Y-84999500D01*
X74757544Y-85036976D01*
X74757541Y-85036976D01*
X74757541Y-85036977D01*
X74567364Y-85110651D01*
X74567357Y-85110655D01*
X74393960Y-85218017D01*
X74393958Y-85218019D01*
X74243237Y-85355418D01*
X74120327Y-85518178D01*
X74029422Y-85700739D01*
X74029417Y-85700752D01*
X73973602Y-85896917D01*
X73954785Y-86099999D01*
X73620500Y-86099999D01*
X73620500Y-85225326D01*
X73620500Y-85225323D01*
X73620499Y-85225321D01*
X73605967Y-85152264D01*
X73605966Y-85152260D01*
X73596993Y-85138831D01*
X73550601Y-85069399D01*
X73467740Y-85014034D01*
X73467739Y-85014033D01*
X73467735Y-85014032D01*
X73394677Y-84999500D01*
X73394674Y-84999500D01*
X71645326Y-84999500D01*
X71645323Y-84999500D01*
X71572264Y-85014032D01*
X71572260Y-85014033D01*
X71489399Y-85069399D01*
X71434033Y-85152260D01*
X71434032Y-85152264D01*
X71419500Y-85225321D01*
X70131241Y-85225321D01*
X70184780Y-84887287D01*
X70205078Y-84500000D01*
X70205078Y-84499999D01*
X70184780Y-84112712D01*
X70124113Y-83729676D01*
X70124112Y-83729669D01*
X70023737Y-83355063D01*
X69884755Y-82993005D01*
X69708689Y-82647456D01*
X69497468Y-82322206D01*
X69288904Y-82064649D01*
X69288903Y-82064648D01*
X67794251Y-83559300D01*
X67720412Y-83457670D01*
X67542330Y-83279588D01*
X67440698Y-83205748D01*
X68935350Y-81711096D01*
X68935350Y-81711095D01*
X68677793Y-81502531D01*
X68352543Y-81291310D01*
X68006994Y-81115244D01*
X67644936Y-80976262D01*
X67270330Y-80875887D01*
X67270323Y-80875886D01*
X66887287Y-80815219D01*
X66500001Y-80794922D01*
X66499999Y-80794922D01*
X66112712Y-80815219D01*
X65729676Y-80875886D01*
X65729669Y-80875887D01*
X65355063Y-80976262D01*
X64993005Y-81115244D01*
X64647456Y-81291310D01*
X64322206Y-81502531D01*
X64064648Y-81711095D01*
X64064648Y-81711096D01*
X65559301Y-83205748D01*
X65457670Y-83279588D01*
X65279588Y-83457670D01*
X65205748Y-83559301D01*
X63711096Y-82064648D01*
X63711095Y-82064648D01*
X63502531Y-82322206D01*
X63291310Y-82647456D01*
X63115244Y-82993005D01*
X62976262Y-83355063D01*
X62875887Y-83729669D01*
X62875886Y-83729676D01*
X62815219Y-84112712D01*
X62794922Y-84499999D01*
X62794922Y-84500000D01*
X62815219Y-84887287D01*
X62829236Y-84975787D01*
X62820281Y-85045081D01*
X62775285Y-85098533D01*
X62708533Y-85119172D01*
X62641220Y-85100447D01*
X62594716Y-85048302D01*
X62585703Y-85022026D01*
X62583931Y-85014032D01*
X62569969Y-84951060D01*
X62568098Y-84940449D01*
X62518265Y-84561971D01*
X62517325Y-84551218D01*
X62500618Y-84168671D01*
X62500500Y-84163261D01*
X62500500Y-71300000D01*
X63644536Y-71300000D01*
X63664376Y-71653295D01*
X63664378Y-71653307D01*
X63723649Y-72002153D01*
X63723651Y-72002162D01*
X63818576Y-72331654D01*
X63821610Y-72342184D01*
X63846574Y-72402452D01*
X63957021Y-72669098D01*
X63957023Y-72669102D01*
X64128194Y-72978812D01*
X64128197Y-72978817D01*
X64332956Y-73267396D01*
X64332962Y-73267404D01*
X64568748Y-73531248D01*
X64568751Y-73531251D01*
X64731692Y-73676865D01*
X64758600Y-73711203D01*
X66485967Y-76966625D01*
X66485971Y-76966632D01*
X66528834Y-77029889D01*
X66528837Y-77029893D01*
X66528840Y-77029897D01*
X70428840Y-81629897D01*
X70490791Y-81687423D01*
X70595443Y-81739775D01*
X70595446Y-81739776D01*
X70595452Y-81739779D01*
X71895452Y-82139779D01*
X71919759Y-82146326D01*
X72036559Y-82153615D01*
X72036563Y-82153614D01*
X72036564Y-82153614D01*
X72149390Y-82122587D01*
X72149391Y-82122586D01*
X72149396Y-82122585D01*
X72150118Y-82122091D01*
X72151254Y-82121723D01*
X72158718Y-82118267D01*
X72159135Y-82119168D01*
X72216583Y-82100548D01*
X72220036Y-82100500D01*
X74874676Y-82100500D01*
X74874677Y-82100499D01*
X74947740Y-82085966D01*
X75030601Y-82030601D01*
X75085966Y-81947740D01*
X75100500Y-81874674D01*
X75100500Y-78325326D01*
X75100500Y-78325323D01*
X75100499Y-78325321D01*
X75085967Y-78252264D01*
X75085966Y-78252260D01*
X75030601Y-78169399D01*
X74947740Y-78114034D01*
X74947739Y-78114033D01*
X74947735Y-78114032D01*
X74874677Y-78099500D01*
X74874674Y-78099500D01*
X73922735Y-78099500D01*
X73855696Y-78079815D01*
X73820283Y-78045354D01*
X73127926Y-77029897D01*
X71033930Y-73958704D01*
X71018029Y-73925843D01*
X70908386Y-73574986D01*
X71325001Y-73574986D01*
X71335494Y-73677697D01*
X71390641Y-73844119D01*
X71390643Y-73844124D01*
X71482684Y-73993345D01*
X71606654Y-74117315D01*
X71755875Y-74209356D01*
X71755880Y-74209358D01*
X71922302Y-74264505D01*
X71922309Y-74264506D01*
X72025019Y-74274999D01*
X73249999Y-74274999D01*
X73750000Y-74274999D01*
X74974972Y-74274999D01*
X74974986Y-74274998D01*
X75077697Y-74264505D01*
X75244119Y-74209358D01*
X75244124Y-74209356D01*
X75393345Y-74117315D01*
X75517315Y-73993345D01*
X75609356Y-73844124D01*
X75609358Y-73844119D01*
X75664505Y-73677697D01*
X75664506Y-73677690D01*
X75674999Y-73574986D01*
X75675000Y-73574973D01*
X75675000Y-73412500D01*
X73750000Y-73412500D01*
X73750000Y-74274999D01*
X73249999Y-74274999D01*
X73250000Y-74274998D01*
X73250000Y-73412500D01*
X71325001Y-73412500D01*
X71325001Y-73574986D01*
X70908386Y-73574986D01*
X70650583Y-72750013D01*
X71325000Y-72750013D01*
X71325000Y-72912500D01*
X73250000Y-72912500D01*
X73750000Y-72912500D01*
X75674999Y-72912500D01*
X75674999Y-72750028D01*
X75674998Y-72750013D01*
X75664505Y-72647302D01*
X75609358Y-72480880D01*
X75609356Y-72480875D01*
X75517315Y-72331654D01*
X75393345Y-72207684D01*
X75244124Y-72115643D01*
X75244119Y-72115641D01*
X75077697Y-72060494D01*
X75077690Y-72060493D01*
X74974986Y-72050000D01*
X73750000Y-72050000D01*
X73750000Y-72912500D01*
X73250000Y-72912500D01*
X73250000Y-72050000D01*
X72025028Y-72050000D01*
X72025012Y-72050001D01*
X71922302Y-72060494D01*
X71755880Y-72115641D01*
X71755875Y-72115643D01*
X71606654Y-72207684D01*
X71482684Y-72331654D01*
X71390643Y-72480875D01*
X71390641Y-72480880D01*
X71335494Y-72647302D01*
X71335493Y-72647309D01*
X71325000Y-72750013D01*
X70650583Y-72750013D01*
X70169325Y-71209986D01*
X75415001Y-71209986D01*
X75425494Y-71312697D01*
X75480641Y-71479119D01*
X75480643Y-71479124D01*
X75572684Y-71628345D01*
X75696654Y-71752315D01*
X75845875Y-71844356D01*
X75845880Y-71844358D01*
X76012302Y-71899505D01*
X76012309Y-71899506D01*
X76115019Y-71909999D01*
X76177499Y-71909998D01*
X76177500Y-71909998D01*
X76177500Y-70960000D01*
X75415001Y-70960000D01*
X75415001Y-71209986D01*
X70169325Y-71209986D01*
X70039318Y-70793963D01*
X70039316Y-70793957D01*
X70039316Y-70793956D01*
X70023452Y-70752489D01*
X69958032Y-70655461D01*
X69958030Y-70655458D01*
X69907826Y-70617539D01*
X69866195Y-70561429D01*
X69863407Y-70552919D01*
X69822931Y-70412424D01*
X69778390Y-70257816D01*
X69758589Y-70210013D01*
X75415000Y-70210013D01*
X75415000Y-70460000D01*
X76177500Y-70460000D01*
X76177500Y-69510000D01*
X76177499Y-69509999D01*
X76115028Y-69510000D01*
X76115011Y-69510001D01*
X76012302Y-69520494D01*
X75845880Y-69575641D01*
X75845875Y-69575643D01*
X75696654Y-69667684D01*
X75572684Y-69791654D01*
X75480643Y-69940875D01*
X75480641Y-69940880D01*
X75425494Y-70107302D01*
X75425493Y-70107309D01*
X75415000Y-70210013D01*
X69758589Y-70210013D01*
X69670122Y-69996434D01*
X69642978Y-69930901D01*
X69642976Y-69930897D01*
X69632746Y-69912387D01*
X69471808Y-69621192D01*
X69471806Y-69621190D01*
X69471805Y-69621187D01*
X69471802Y-69621182D01*
X69267043Y-69332603D01*
X69267037Y-69332595D01*
X69031251Y-69068751D01*
X69031248Y-69068748D01*
X68767404Y-68832962D01*
X68767396Y-68832956D01*
X68478817Y-68628197D01*
X68478812Y-68628194D01*
X68169102Y-68457023D01*
X68169098Y-68457021D01*
X67942221Y-68363046D01*
X67842184Y-68321610D01*
X67842180Y-68321608D01*
X67842178Y-68321608D01*
X67502162Y-68223651D01*
X67502153Y-68223649D01*
X67153307Y-68164378D01*
X67153295Y-68164376D01*
X66800000Y-68144536D01*
X66446704Y-68164376D01*
X66446692Y-68164378D01*
X66097846Y-68223649D01*
X66097837Y-68223651D01*
X65757821Y-68321608D01*
X65430901Y-68457021D01*
X65430897Y-68457023D01*
X65121187Y-68628194D01*
X65121182Y-68628197D01*
X64832603Y-68832956D01*
X64832595Y-68832962D01*
X64568751Y-69068748D01*
X64568748Y-69068751D01*
X64332962Y-69332595D01*
X64332956Y-69332603D01*
X64128197Y-69621182D01*
X64128194Y-69621187D01*
X63957023Y-69930897D01*
X63957021Y-69930901D01*
X63821608Y-70257821D01*
X63723651Y-70597837D01*
X63723649Y-70597846D01*
X63664378Y-70946692D01*
X63664376Y-70946704D01*
X63644536Y-71300000D01*
X62500500Y-71300000D01*
X62500500Y-64100000D01*
X63644536Y-64100000D01*
X63664376Y-64453295D01*
X63664378Y-64453307D01*
X63723649Y-64802153D01*
X63723651Y-64802162D01*
X63821608Y-65142178D01*
X63957021Y-65469098D01*
X63957023Y-65469102D01*
X64128194Y-65778812D01*
X64128197Y-65778817D01*
X64332956Y-66067396D01*
X64332962Y-66067404D01*
X64568748Y-66331248D01*
X64568751Y-66331251D01*
X64832595Y-66567037D01*
X64832603Y-66567043D01*
X65121182Y-66771802D01*
X65121187Y-66771805D01*
X65121190Y-66771806D01*
X65121192Y-66771808D01*
X65330541Y-66887511D01*
X65430897Y-66942976D01*
X65430901Y-66942978D01*
X65537013Y-66986930D01*
X65757816Y-67078390D01*
X66097843Y-67176350D01*
X66334885Y-67216624D01*
X66351890Y-67220768D01*
X66448829Y-67251798D01*
X71788434Y-68028467D01*
X71830011Y-68042344D01*
X71832665Y-68043793D01*
X71832669Y-68043796D01*
X71859247Y-68053709D01*
X71967517Y-68094091D01*
X71967516Y-68094091D01*
X71974444Y-68094835D01*
X72027127Y-68100500D01*
X73160793Y-68100499D01*
X73165558Y-68100590D01*
X74451259Y-68150041D01*
X74515275Y-68170775D01*
X75902804Y-69095794D01*
X75902817Y-69095801D01*
X75984566Y-69136237D01*
X75984567Y-69136237D01*
X75984569Y-69136238D01*
X76018197Y-69141848D01*
X76041125Y-69147977D01*
X76050061Y-69151310D01*
X76057517Y-69154091D01*
X76117127Y-69160500D01*
X76737872Y-69160499D01*
X76777772Y-69156209D01*
X76791024Y-69155500D01*
X76899995Y-69155500D01*
X76900000Y-69155500D01*
X76987270Y-69144622D01*
X77094440Y-69097613D01*
X77094441Y-69097613D01*
X77180535Y-69018357D01*
X77180535Y-69018356D01*
X77180539Y-69018353D01*
X77236238Y-68915431D01*
X77255500Y-68800000D01*
X77255500Y-68799985D01*
X77255577Y-68799059D01*
X77255718Y-68798693D01*
X77256344Y-68794942D01*
X77257115Y-68795070D01*
X77280723Y-68733871D01*
X77337120Y-68692626D01*
X77406863Y-68688419D01*
X77467809Y-68722586D01*
X77495337Y-68765951D01*
X77546202Y-68902328D01*
X77546206Y-68902335D01*
X77632452Y-69017544D01*
X77632455Y-69017547D01*
X77747664Y-69103793D01*
X77747671Y-69103797D01*
X77792618Y-69120561D01*
X77882517Y-69154091D01*
X77942127Y-69160500D01*
X78562872Y-69160499D01*
X78622483Y-69154091D01*
X78622487Y-69154089D01*
X78622490Y-69154089D01*
X78630038Y-69152306D01*
X78630719Y-69155192D01*
X78686554Y-69151184D01*
X78687121Y-69151308D01*
X80050718Y-69454330D01*
X80111890Y-69488089D01*
X80134303Y-69519082D01*
X80161951Y-69573344D01*
X80251652Y-69663045D01*
X80251654Y-69663046D01*
X80251658Y-69663050D01*
X80358284Y-69717379D01*
X80364698Y-69720647D01*
X80458475Y-69735499D01*
X80458481Y-69735500D01*
X80821518Y-69735499D01*
X80845218Y-69731745D01*
X80914509Y-69740698D01*
X80952299Y-69766537D01*
X81035497Y-69849736D01*
X81068981Y-69911060D01*
X81063997Y-69980751D01*
X81056870Y-69996434D01*
X81003760Y-70094571D01*
X81000424Y-70104290D01*
X80997736Y-70103367D01*
X80974229Y-70151899D01*
X80914610Y-70188331D01*
X80862985Y-70191067D01*
X80837027Y-70186956D01*
X80797405Y-70173536D01*
X80705430Y-70123761D01*
X80705431Y-70123761D01*
X80590000Y-70104500D01*
X79077277Y-70104500D01*
X79010238Y-70084815D01*
X78964483Y-70032011D01*
X78961094Y-70023830D01*
X78958797Y-70017670D01*
X78958793Y-70017664D01*
X78872547Y-69902455D01*
X78872544Y-69902452D01*
X78757335Y-69816206D01*
X78757328Y-69816202D01*
X78622486Y-69765910D01*
X78622485Y-69765909D01*
X78622483Y-69765909D01*
X78562873Y-69759500D01*
X78562863Y-69759500D01*
X77942129Y-69759500D01*
X77942123Y-69759501D01*
X77882516Y-69765908D01*
X77747671Y-69816202D01*
X77747664Y-69816206D01*
X77632455Y-69902452D01*
X77586498Y-69963842D01*
X77530563Y-70005713D01*
X77460872Y-70010696D01*
X77399549Y-69977210D01*
X77378335Y-69946909D01*
X77378149Y-69947025D01*
X77376170Y-69943816D01*
X77374845Y-69941924D01*
X77374356Y-69940877D01*
X77282315Y-69791654D01*
X77158345Y-69667684D01*
X77009124Y-69575643D01*
X77009119Y-69575641D01*
X76842697Y-69520494D01*
X76842690Y-69520493D01*
X76739986Y-69510000D01*
X76677500Y-69510000D01*
X76677500Y-71909999D01*
X76739972Y-71909999D01*
X76739986Y-71909998D01*
X76842697Y-71899505D01*
X77009119Y-71844358D01*
X77009124Y-71844356D01*
X77158345Y-71752315D01*
X77282315Y-71628345D01*
X77374354Y-71479126D01*
X77374842Y-71478081D01*
X77375368Y-71477482D01*
X77378149Y-71472975D01*
X77378918Y-71473449D01*
X77421007Y-71425635D01*
X77488198Y-71406473D01*
X77555082Y-71426679D01*
X77586498Y-71456157D01*
X77627179Y-71510500D01*
X77632455Y-71517547D01*
X77747664Y-71603793D01*
X77747671Y-71603797D01*
X77792618Y-71620561D01*
X77882517Y-71654091D01*
X77942127Y-71660500D01*
X78236385Y-71660499D01*
X78303424Y-71680183D01*
X78324066Y-71696818D01*
X79878181Y-73250933D01*
X79911666Y-73312256D01*
X79914500Y-73338614D01*
X79914500Y-73707869D01*
X79914501Y-73707876D01*
X79920908Y-73767483D01*
X79971202Y-73902328D01*
X79971206Y-73902335D01*
X80057452Y-74017544D01*
X80057455Y-74017547D01*
X80172664Y-74103793D01*
X80172671Y-74103797D01*
X80196169Y-74112561D01*
X80307517Y-74154091D01*
X80367127Y-74160500D01*
X80987872Y-74160499D01*
X81047483Y-74154091D01*
X81182331Y-74103796D01*
X81297546Y-74017546D01*
X81383796Y-73902331D01*
X81434091Y-73767483D01*
X81440500Y-73707873D01*
X81440499Y-73701096D01*
X81460177Y-73634059D01*
X81512976Y-73588299D01*
X81582134Y-73578348D01*
X81645692Y-73607367D01*
X81678473Y-73652242D01*
X81763243Y-73850037D01*
X81763244Y-73850041D01*
X81792384Y-73904436D01*
X81792386Y-73904438D01*
X81792387Y-73904440D01*
X81817007Y-73931185D01*
X81825039Y-73940850D01*
X81865095Y-73994358D01*
X81882455Y-74017547D01*
X81997664Y-74103793D01*
X81997671Y-74103797D01*
X82021169Y-74112561D01*
X82132517Y-74154091D01*
X82192127Y-74160500D01*
X82812872Y-74160499D01*
X82872483Y-74154091D01*
X83007331Y-74103796D01*
X83122546Y-74017546D01*
X83208796Y-73902331D01*
X83259091Y-73767483D01*
X83265500Y-73707873D01*
X83265500Y-73359986D01*
X83715001Y-73359986D01*
X83725494Y-73462697D01*
X83780641Y-73629119D01*
X83780643Y-73629124D01*
X83872684Y-73778345D01*
X83996654Y-73902315D01*
X84145875Y-73994356D01*
X84145880Y-73994358D01*
X84312302Y-74049505D01*
X84312309Y-74049506D01*
X84415019Y-74059999D01*
X84689999Y-74059999D01*
X85190000Y-74059999D01*
X85464972Y-74059999D01*
X85464986Y-74059998D01*
X85567697Y-74049505D01*
X85734119Y-73994358D01*
X85734124Y-73994356D01*
X85883345Y-73902315D01*
X86007315Y-73778345D01*
X86099356Y-73629124D01*
X86099358Y-73629119D01*
X86154505Y-73462697D01*
X86154506Y-73462690D01*
X86164999Y-73359986D01*
X86165000Y-73359973D01*
X86165000Y-73310000D01*
X85190000Y-73310000D01*
X85190000Y-74059999D01*
X84689999Y-74059999D01*
X84690000Y-74059998D01*
X84690000Y-73310000D01*
X83715001Y-73310000D01*
X83715001Y-73359986D01*
X83265500Y-73359986D01*
X83265499Y-72905013D01*
X87425000Y-72905013D01*
X87425000Y-73055000D01*
X88775000Y-73055000D01*
X89275000Y-73055000D01*
X90624999Y-73055000D01*
X90624999Y-72905028D01*
X90624998Y-72905013D01*
X90614505Y-72802302D01*
X90559358Y-72635880D01*
X90559356Y-72635875D01*
X90467315Y-72486654D01*
X90343345Y-72362684D01*
X90194124Y-72270643D01*
X90194119Y-72270641D01*
X90027697Y-72215494D01*
X90027690Y-72215493D01*
X89924986Y-72205000D01*
X89275000Y-72205000D01*
X89275000Y-73055000D01*
X88775000Y-73055000D01*
X88775000Y-72205000D01*
X88125028Y-72205000D01*
X88125012Y-72205001D01*
X88022302Y-72215494D01*
X87855880Y-72270641D01*
X87855875Y-72270643D01*
X87706654Y-72362684D01*
X87582684Y-72486654D01*
X87490643Y-72635875D01*
X87490641Y-72635880D01*
X87435494Y-72802302D01*
X87435493Y-72802309D01*
X87425000Y-72905013D01*
X83265499Y-72905013D01*
X83265499Y-72712128D01*
X83259091Y-72652517D01*
X83208796Y-72517669D01*
X83208795Y-72517668D01*
X83208793Y-72517664D01*
X83122547Y-72402455D01*
X83122544Y-72402452D01*
X83007333Y-72316205D01*
X83007331Y-72316204D01*
X82986163Y-72308308D01*
X82939503Y-72290905D01*
X82895157Y-72262405D01*
X82812168Y-72179416D01*
X82778683Y-72118093D01*
X82783667Y-72048401D01*
X82825539Y-71992468D01*
X82843543Y-71981257D01*
X82928342Y-71938050D01*
X82964572Y-71901820D01*
X83025894Y-71868334D01*
X83052254Y-71865500D01*
X84162511Y-71865500D01*
X84229550Y-71885185D01*
X84275305Y-71937989D01*
X84285249Y-72007147D01*
X84256224Y-72070703D01*
X84201515Y-72107206D01*
X84145880Y-72125641D01*
X84145875Y-72125643D01*
X83996654Y-72217684D01*
X83872684Y-72341654D01*
X83780643Y-72490875D01*
X83780641Y-72490880D01*
X83725494Y-72657302D01*
X83725493Y-72657309D01*
X83715001Y-72760007D01*
X83715000Y-72760026D01*
X83715000Y-72810000D01*
X86164999Y-72810000D01*
X86164999Y-72760028D01*
X86164998Y-72760007D01*
X86154505Y-72657302D01*
X86099358Y-72490880D01*
X86099356Y-72490875D01*
X86007315Y-72341654D01*
X85883345Y-72217684D01*
X85734124Y-72125643D01*
X85734119Y-72125641D01*
X85641859Y-72095069D01*
X85584414Y-72055296D01*
X85557591Y-71990780D01*
X85569906Y-71922004D01*
X85617449Y-71870804D01*
X85637533Y-71861180D01*
X85657328Y-71853797D01*
X85657327Y-71853797D01*
X85657331Y-71853796D01*
X85772546Y-71767546D01*
X85858796Y-71652331D01*
X85876898Y-71603797D01*
X85886641Y-71577675D01*
X85928511Y-71521741D01*
X85970726Y-71501233D01*
X86025288Y-71486614D01*
X86052410Y-71470955D01*
X86105212Y-71440470D01*
X86244124Y-71301556D01*
X86305443Y-71268074D01*
X86331871Y-71267144D01*
X86331871Y-71265250D01*
X86340000Y-71265250D01*
X86483709Y-71246330D01*
X86617625Y-71190861D01*
X86732621Y-71102621D01*
X86820861Y-70987625D01*
X86876330Y-70853709D01*
X86895250Y-70710000D01*
X86876330Y-70566291D01*
X86833294Y-70462392D01*
X86820862Y-70432377D01*
X86820861Y-70432376D01*
X86820861Y-70432375D01*
X86732621Y-70317379D01*
X86617625Y-70229139D01*
X86617624Y-70229138D01*
X86617622Y-70229137D01*
X86483712Y-70173671D01*
X86483710Y-70173670D01*
X86483709Y-70173670D01*
X86399907Y-70162637D01*
X86340001Y-70154750D01*
X86339999Y-70154750D01*
X86196291Y-70173670D01*
X86196287Y-70173671D01*
X86062377Y-70229137D01*
X86024996Y-70257821D01*
X85947379Y-70317379D01*
X85947378Y-70317380D01*
X85947377Y-70317381D01*
X85874447Y-70412424D01*
X85818019Y-70453627D01*
X85748273Y-70457781D01*
X85687353Y-70423568D01*
X85654600Y-70361850D01*
X85660415Y-70292223D01*
X85661490Y-70289535D01*
X85676330Y-70253709D01*
X85695250Y-70110000D01*
X85676330Y-69966291D01*
X85620861Y-69832375D01*
X85532621Y-69717379D01*
X85417625Y-69629139D01*
X85417624Y-69629138D01*
X85417622Y-69629137D01*
X85283712Y-69573671D01*
X85283710Y-69573670D01*
X85283709Y-69573670D01*
X85211854Y-69564210D01*
X85140001Y-69554750D01*
X85139999Y-69554750D01*
X84996291Y-69573670D01*
X84996287Y-69573671D01*
X84862377Y-69629137D01*
X84747379Y-69717379D01*
X84659137Y-69832377D01*
X84603671Y-69966287D01*
X84603670Y-69966291D01*
X84584750Y-70110000D01*
X84584750Y-70118128D01*
X84581456Y-70118128D01*
X84572192Y-70172588D01*
X84548439Y-70205877D01*
X84346116Y-70408200D01*
X84301770Y-70436700D01*
X84222668Y-70466204D01*
X84137760Y-70529767D01*
X84072296Y-70554184D01*
X84063449Y-70554500D01*
X83196541Y-70554500D01*
X83129502Y-70534815D01*
X83083747Y-70482011D01*
X83078611Y-70468821D01*
X83075647Y-70459699D01*
X83075646Y-70459697D01*
X83075646Y-70459696D01*
X83018050Y-70346658D01*
X83018046Y-70346654D01*
X83018045Y-70346652D01*
X82946176Y-70274783D01*
X82912691Y-70213460D01*
X82917675Y-70143768D01*
X82924803Y-70128083D01*
X82925231Y-70127291D01*
X82926238Y-70125431D01*
X82945500Y-70010000D01*
X82945500Y-69697254D01*
X82965185Y-69630215D01*
X82981820Y-69609572D01*
X83018046Y-69573346D01*
X83018050Y-69573342D01*
X83075646Y-69460304D01*
X83075646Y-69460302D01*
X83075647Y-69460301D01*
X83090499Y-69366524D01*
X83090500Y-69366519D01*
X83090499Y-68706542D01*
X83110183Y-68639504D01*
X83126813Y-68618867D01*
X83244123Y-68501557D01*
X83305444Y-68468074D01*
X83331871Y-68467144D01*
X83331871Y-68465250D01*
X83340000Y-68465250D01*
X83483709Y-68446330D01*
X83617625Y-68390861D01*
X83732621Y-68302621D01*
X83820861Y-68187625D01*
X83876330Y-68053709D01*
X83895250Y-67910000D01*
X83876330Y-67766291D01*
X83839350Y-67677013D01*
X83820862Y-67632377D01*
X83820861Y-67632376D01*
X83820861Y-67632375D01*
X83740531Y-67527687D01*
X83715338Y-67462521D01*
X83721202Y-67413199D01*
X83754505Y-67312697D01*
X83754506Y-67312690D01*
X83764999Y-67209986D01*
X83765000Y-67209973D01*
X83765000Y-66960000D01*
X82626500Y-66960000D01*
X82559461Y-66940315D01*
X82513706Y-66887511D01*
X82502500Y-66836000D01*
X82502500Y-66460000D01*
X83002500Y-66460000D01*
X83764999Y-66460000D01*
X83764999Y-66210028D01*
X83764998Y-66210013D01*
X83754505Y-66107302D01*
X83699358Y-65940880D01*
X83699356Y-65940875D01*
X83607315Y-65791654D01*
X83483345Y-65667684D01*
X83334124Y-65575643D01*
X83334119Y-65575641D01*
X83167697Y-65520494D01*
X83167690Y-65520493D01*
X83064986Y-65510000D01*
X83002500Y-65510000D01*
X83002500Y-66460000D01*
X82502500Y-66460000D01*
X82502500Y-65510000D01*
X82502499Y-65509999D01*
X82440028Y-65510000D01*
X82440011Y-65510001D01*
X82337302Y-65520494D01*
X82170880Y-65575641D01*
X82170875Y-65575643D01*
X82021654Y-65667684D01*
X81897684Y-65791654D01*
X81805637Y-65940885D01*
X81805148Y-65941936D01*
X81804620Y-65942535D01*
X81801851Y-65947025D01*
X81801083Y-65946551D01*
X81758975Y-65994375D01*
X81691782Y-66013526D01*
X81624901Y-65993309D01*
X81593501Y-65963841D01*
X81547547Y-65902455D01*
X81547544Y-65902452D01*
X81432335Y-65816206D01*
X81432328Y-65816202D01*
X81297486Y-65765910D01*
X81297485Y-65765909D01*
X81297483Y-65765909D01*
X81237873Y-65759500D01*
X81237863Y-65759500D01*
X80617129Y-65759500D01*
X80617123Y-65759501D01*
X80557516Y-65765908D01*
X80422671Y-65816202D01*
X80422664Y-65816206D01*
X80307455Y-65902452D01*
X80307452Y-65902455D01*
X80221206Y-66017664D01*
X80221202Y-66017671D01*
X80170908Y-66152517D01*
X80164501Y-66212116D01*
X80164500Y-66212135D01*
X80164500Y-66216749D01*
X80144815Y-66283788D01*
X80100721Y-66325143D01*
X78446966Y-67243896D01*
X78386748Y-67259500D01*
X77942129Y-67259500D01*
X77942123Y-67259501D01*
X77882516Y-67265908D01*
X77747671Y-67316202D01*
X77747664Y-67316206D01*
X77632455Y-67402452D01*
X77632452Y-67402455D01*
X77546206Y-67517664D01*
X77546202Y-67517671D01*
X77495682Y-67653125D01*
X77453811Y-67709059D01*
X77388347Y-67733476D01*
X77320074Y-67718625D01*
X77270668Y-67669220D01*
X77255500Y-67609792D01*
X77255500Y-67600000D01*
X77252201Y-67551681D01*
X77217429Y-67439940D01*
X77148258Y-67345543D01*
X77148256Y-67345541D01*
X77052186Y-67278722D01*
X77052185Y-67278721D01*
X77052181Y-67278719D01*
X77052176Y-67278716D01*
X75152185Y-66378720D01*
X75126569Y-66367793D01*
X75028308Y-66348012D01*
X75011843Y-66344697D01*
X74861144Y-66339673D01*
X72244737Y-66252459D01*
X72178390Y-66230552D01*
X72148874Y-66201857D01*
X70584845Y-64069090D01*
X70504835Y-63959986D01*
X73115001Y-63959986D01*
X73125494Y-64062697D01*
X73180641Y-64229119D01*
X73180643Y-64229124D01*
X73272684Y-64378345D01*
X73396654Y-64502315D01*
X73545875Y-64594356D01*
X73545880Y-64594358D01*
X73712302Y-64649505D01*
X73712309Y-64649506D01*
X73815019Y-64659999D01*
X74089999Y-64659999D01*
X74090000Y-64659998D01*
X74090000Y-63910000D01*
X73115001Y-63910000D01*
X73115001Y-63959986D01*
X70504835Y-63959986D01*
X69703052Y-62866645D01*
X69688490Y-62840779D01*
X69642975Y-62730895D01*
X69640072Y-62725643D01*
X69489829Y-62453798D01*
X69471808Y-62421192D01*
X69471806Y-62421190D01*
X69471805Y-62421187D01*
X69471802Y-62421182D01*
X69271265Y-62138553D01*
X69267041Y-62132600D01*
X69260696Y-62125500D01*
X69031251Y-61868751D01*
X69031248Y-61868748D01*
X68767404Y-61632962D01*
X68767396Y-61632956D01*
X68478817Y-61428197D01*
X68478812Y-61428194D01*
X68169102Y-61257023D01*
X68169098Y-61257021D01*
X68055576Y-61209999D01*
X72284750Y-61209999D01*
X72284750Y-61210000D01*
X72303670Y-61353708D01*
X72303671Y-61353712D01*
X72359137Y-61487622D01*
X72359138Y-61487624D01*
X72359139Y-61487625D01*
X72447379Y-61602621D01*
X72562375Y-61690861D01*
X72696291Y-61746330D01*
X72840000Y-61765250D01*
X72848129Y-61765250D01*
X72848129Y-61768828D01*
X72900970Y-61777031D01*
X72935878Y-61801560D01*
X73174787Y-62040469D01*
X73196569Y-62053045D01*
X73206181Y-62058594D01*
X73206183Y-62058596D01*
X73206184Y-62058596D01*
X73254712Y-62086614D01*
X73309270Y-62101232D01*
X73368930Y-62137597D01*
X73393358Y-62177674D01*
X73421202Y-62252328D01*
X73421206Y-62252335D01*
X73507452Y-62367544D01*
X73507455Y-62367547D01*
X73622664Y-62453793D01*
X73622673Y-62453798D01*
X73642468Y-62461181D01*
X73698402Y-62503051D01*
X73722820Y-62568515D01*
X73707969Y-62636788D01*
X73658565Y-62686194D01*
X73638141Y-62695069D01*
X73545878Y-62725642D01*
X73545875Y-62725643D01*
X73396654Y-62817684D01*
X73272684Y-62941654D01*
X73180643Y-63090875D01*
X73180641Y-63090880D01*
X73125494Y-63257302D01*
X73125493Y-63257309D01*
X73115000Y-63360013D01*
X73115000Y-63410000D01*
X74466000Y-63410000D01*
X74533039Y-63429685D01*
X74578794Y-63482489D01*
X74590000Y-63534000D01*
X74590000Y-64659999D01*
X74864972Y-64659999D01*
X74864986Y-64659998D01*
X74967697Y-64649505D01*
X75134119Y-64594358D01*
X75134124Y-64594356D01*
X75283345Y-64502315D01*
X75407317Y-64378343D01*
X75426706Y-64346909D01*
X75478653Y-64300184D01*
X75547616Y-64288961D01*
X75611698Y-64316804D01*
X75650555Y-64374873D01*
X75653719Y-64388352D01*
X75654352Y-64390300D01*
X75654353Y-64390303D01*
X75654354Y-64390304D01*
X75711950Y-64503342D01*
X75711952Y-64503344D01*
X75711954Y-64503347D01*
X75801652Y-64593045D01*
X75801654Y-64593046D01*
X75801658Y-64593050D01*
X75898593Y-64642441D01*
X75914698Y-64650647D01*
X76008475Y-64665499D01*
X76008481Y-64665500D01*
X77721518Y-64665499D01*
X77815304Y-64650646D01*
X77928342Y-64593050D01*
X78018050Y-64503342D01*
X78075646Y-64390304D01*
X78075646Y-64390302D01*
X78075647Y-64390301D01*
X78089660Y-64301820D01*
X78090500Y-64296519D01*
X78090499Y-63933482D01*
X78075646Y-63839696D01*
X78018050Y-63726658D01*
X78018044Y-63726652D01*
X78012311Y-63718759D01*
X78015248Y-63716624D01*
X77990462Y-63671231D01*
X77995446Y-63601539D01*
X78037318Y-63545606D01*
X78048509Y-63538140D01*
X78091552Y-63512685D01*
X78091561Y-63512678D01*
X78207678Y-63396561D01*
X78207685Y-63396552D01*
X78284897Y-63265994D01*
X78335966Y-63218311D01*
X78404708Y-63205807D01*
X78469297Y-63232452D01*
X78509227Y-63289788D01*
X78515629Y-63329115D01*
X78515629Y-63537072D01*
X78495944Y-63604111D01*
X78490006Y-63612557D01*
X78462999Y-63647753D01*
X78407532Y-63781665D01*
X78407531Y-63781669D01*
X78388611Y-63925377D01*
X78388611Y-63925378D01*
X78407531Y-64069086D01*
X78407532Y-64069090D01*
X78462998Y-64203000D01*
X78462999Y-64203002D01*
X78463000Y-64203003D01*
X78551240Y-64317999D01*
X78666236Y-64406239D01*
X78800152Y-64461708D01*
X78927141Y-64478426D01*
X78943860Y-64480628D01*
X78943861Y-64480628D01*
X78943862Y-64480628D01*
X78958838Y-64478656D01*
X79087570Y-64461708D01*
X79221486Y-64406239D01*
X79336482Y-64317999D01*
X79424722Y-64203003D01*
X79480191Y-64069087D01*
X79499111Y-63925378D01*
X79480191Y-63781669D01*
X79424722Y-63647753D01*
X79336482Y-63532757D01*
X79310315Y-63512678D01*
X79265142Y-63478015D01*
X79223939Y-63421587D01*
X79216629Y-63379640D01*
X79216629Y-60709999D01*
X79534750Y-60709999D01*
X79534750Y-60710000D01*
X79553670Y-60853708D01*
X79553671Y-60853712D01*
X79609137Y-60987622D01*
X79609138Y-60987624D01*
X79609139Y-60987625D01*
X79697379Y-61102621D01*
X79797136Y-61179167D01*
X79838337Y-61235594D01*
X79842492Y-61305340D01*
X79820024Y-61353028D01*
X79759139Y-61432374D01*
X79759138Y-61432376D01*
X79703671Y-61566287D01*
X79703670Y-61566291D01*
X79684750Y-61709999D01*
X79684750Y-61710000D01*
X79703670Y-61853708D01*
X79703671Y-61853712D01*
X79759137Y-61987622D01*
X79759138Y-61987624D01*
X79759139Y-61987625D01*
X79847379Y-62102621D01*
X79962375Y-62190861D01*
X80096291Y-62246330D01*
X80223280Y-62263048D01*
X80239999Y-62265250D01*
X80240000Y-62265250D01*
X80240001Y-62265250D01*
X80254977Y-62263278D01*
X80383709Y-62246330D01*
X80517625Y-62190861D01*
X80632621Y-62102621D01*
X80632622Y-62102620D01*
X80638364Y-62096878D01*
X80639916Y-62098430D01*
X80687050Y-62064001D01*
X80756796Y-62059834D01*
X80785314Y-62070199D01*
X80842851Y-62099516D01*
X80893647Y-62147490D01*
X80910442Y-62215311D01*
X80887904Y-62281446D01*
X80842852Y-62320484D01*
X80751658Y-62366950D01*
X80751657Y-62366951D01*
X80751652Y-62366954D01*
X80661954Y-62456652D01*
X80661951Y-62456657D01*
X80661950Y-62456658D01*
X80653278Y-62473678D01*
X80604352Y-62569698D01*
X80589500Y-62663475D01*
X80589500Y-63026517D01*
X80594458Y-63057821D01*
X80604354Y-63120304D01*
X80661950Y-63233342D01*
X80661952Y-63233344D01*
X80661954Y-63233347D01*
X80751652Y-63323045D01*
X80751654Y-63323046D01*
X80751658Y-63323050D01*
X80842851Y-63369515D01*
X80893647Y-63417490D01*
X80910442Y-63485311D01*
X80887904Y-63551446D01*
X80842852Y-63590484D01*
X80751658Y-63636950D01*
X80751657Y-63636951D01*
X80751652Y-63636954D01*
X80661954Y-63726652D01*
X80661951Y-63726657D01*
X80604352Y-63839698D01*
X80589500Y-63933475D01*
X80589500Y-64296517D01*
X80593975Y-64324769D01*
X80604354Y-64390304D01*
X80661950Y-64503342D01*
X80661952Y-64503344D01*
X80661954Y-64503347D01*
X80751652Y-64593045D01*
X80751654Y-64593046D01*
X80751658Y-64593050D01*
X80848593Y-64642441D01*
X80864698Y-64650647D01*
X80958475Y-64665499D01*
X80958481Y-64665500D01*
X82671518Y-64665499D01*
X82765304Y-64650646D01*
X82878342Y-64593050D01*
X82968050Y-64503342D01*
X83025646Y-64390304D01*
X83025646Y-64390302D01*
X83025647Y-64390301D01*
X83039660Y-64301820D01*
X83040500Y-64296519D01*
X83040499Y-63933482D01*
X83025646Y-63839696D01*
X82968050Y-63726658D01*
X82968046Y-63726654D01*
X82968045Y-63726652D01*
X82878347Y-63636954D01*
X82878343Y-63636951D01*
X82878342Y-63636950D01*
X82875599Y-63635552D01*
X82787147Y-63590483D01*
X82736352Y-63542509D01*
X82719557Y-63474687D01*
X82742095Y-63408553D01*
X82787145Y-63369517D01*
X82878342Y-63323050D01*
X82905174Y-63296217D01*
X82966495Y-63262733D01*
X83036187Y-63267717D01*
X83080536Y-63296218D01*
X87743325Y-67959007D01*
X87776810Y-68020330D01*
X87771826Y-68090022D01*
X87754912Y-68120997D01*
X87731205Y-68152665D01*
X87731202Y-68152671D01*
X87680908Y-68287517D01*
X87674501Y-68347116D01*
X87674501Y-68347123D01*
X87674500Y-68347135D01*
X87674500Y-69142870D01*
X87674501Y-69142876D01*
X87680908Y-69202483D01*
X87731202Y-69337328D01*
X87731206Y-69337335D01*
X87817452Y-69452544D01*
X87817455Y-69452547D01*
X87932664Y-69538793D01*
X87932671Y-69538797D01*
X88067517Y-69589091D01*
X88067516Y-69589091D01*
X88074444Y-69589835D01*
X88127127Y-69595500D01*
X89922872Y-69595499D01*
X89982483Y-69589091D01*
X90117331Y-69538796D01*
X90232546Y-69452546D01*
X90318796Y-69337331D01*
X90369091Y-69202483D01*
X90375500Y-69142873D01*
X90375499Y-68347128D01*
X90369091Y-68287517D01*
X90365721Y-68278482D01*
X90318797Y-68152671D01*
X90318793Y-68152664D01*
X90232547Y-68037455D01*
X90232544Y-68037452D01*
X90117335Y-67951206D01*
X90117328Y-67951202D01*
X89982482Y-67900908D01*
X89982483Y-67900908D01*
X89922883Y-67894501D01*
X89922881Y-67894500D01*
X89922873Y-67894500D01*
X89922865Y-67894500D01*
X88721544Y-67894500D01*
X88654505Y-67874815D01*
X88633863Y-67858181D01*
X83340213Y-62564531D01*
X83340208Y-62564527D01*
X83260290Y-62518387D01*
X83260289Y-62518386D01*
X83260288Y-62518386D01*
X83171144Y-62494500D01*
X83171143Y-62494500D01*
X83057255Y-62494500D01*
X82990216Y-62474815D01*
X82969574Y-62458181D01*
X82878347Y-62366954D01*
X82878343Y-62366951D01*
X82878342Y-62366950D01*
X82866437Y-62360884D01*
X82787147Y-62320483D01*
X82736352Y-62272509D01*
X82719557Y-62204687D01*
X82742095Y-62138553D01*
X82787145Y-62099517D01*
X82878342Y-62053050D01*
X82968050Y-61963342D01*
X83025646Y-61850304D01*
X83025646Y-61850302D01*
X83025647Y-61850301D01*
X83040499Y-61756524D01*
X83040500Y-61756519D01*
X83040499Y-61393482D01*
X83025646Y-61299696D01*
X82968050Y-61186658D01*
X82968046Y-61186654D01*
X82968045Y-61186652D01*
X82878347Y-61096954D01*
X82878343Y-61096951D01*
X82878342Y-61096950D01*
X82844619Y-61079767D01*
X82787147Y-61050483D01*
X82736352Y-61002509D01*
X82719557Y-60934687D01*
X82742095Y-60868553D01*
X82787145Y-60829517D01*
X82878342Y-60783050D01*
X82968050Y-60693342D01*
X83025646Y-60580304D01*
X83025646Y-60580302D01*
X83025647Y-60580301D01*
X83040499Y-60486524D01*
X83040500Y-60486519D01*
X83040499Y-60123482D01*
X83025646Y-60029696D01*
X82968050Y-59916658D01*
X82968046Y-59916654D01*
X82968045Y-59916652D01*
X82878347Y-59826954D01*
X82878344Y-59826952D01*
X82878342Y-59826950D01*
X82801517Y-59787805D01*
X82765301Y-59769352D01*
X82671524Y-59754500D01*
X80958482Y-59754500D01*
X80877519Y-59767323D01*
X80864696Y-59769354D01*
X80751658Y-59826950D01*
X80751657Y-59826951D01*
X80751652Y-59826954D01*
X80660426Y-59918181D01*
X80599103Y-59951666D01*
X80572745Y-59954500D01*
X80448856Y-59954500D01*
X80359711Y-59978386D01*
X80279787Y-60024531D01*
X80185875Y-60118441D01*
X80124551Y-60151925D01*
X80098128Y-60153185D01*
X80098128Y-60154750D01*
X80090000Y-60154750D01*
X79946291Y-60173670D01*
X79946287Y-60173671D01*
X79812377Y-60229137D01*
X79697379Y-60317379D01*
X79609137Y-60432377D01*
X79553671Y-60566287D01*
X79553671Y-60566288D01*
X79553670Y-60566291D01*
X79549121Y-60600843D01*
X79534750Y-60709999D01*
X79216629Y-60709999D01*
X79216629Y-60689987D01*
X79216629Y-60689985D01*
X79192743Y-60600841D01*
X79172795Y-60566291D01*
X79146598Y-60520916D01*
X78650212Y-60024530D01*
X78650211Y-60024529D01*
X78650208Y-60024527D01*
X78570290Y-59978387D01*
X78570289Y-59978386D01*
X78570288Y-59978386D01*
X78481144Y-59954500D01*
X78481143Y-59954500D01*
X78107255Y-59954500D01*
X78040216Y-59934815D01*
X78019574Y-59918181D01*
X77928347Y-59826954D01*
X77928344Y-59826952D01*
X77928342Y-59826950D01*
X77851517Y-59787805D01*
X77815301Y-59769352D01*
X77721524Y-59754500D01*
X76008482Y-59754500D01*
X75927519Y-59767323D01*
X75914696Y-59769354D01*
X75801658Y-59826950D01*
X75801657Y-59826951D01*
X75801652Y-59826954D01*
X75711954Y-59916652D01*
X75711951Y-59916657D01*
X75654352Y-60029698D01*
X75639500Y-60123475D01*
X75639500Y-60486517D01*
X75644949Y-60520919D01*
X75654354Y-60580304D01*
X75711950Y-60693342D01*
X75711952Y-60693344D01*
X75711954Y-60693347D01*
X75801652Y-60783045D01*
X75801654Y-60783046D01*
X75801658Y-60783050D01*
X75892851Y-60829515D01*
X75943647Y-60877490D01*
X75960442Y-60945311D01*
X75937904Y-61011446D01*
X75892852Y-61050484D01*
X75813363Y-61090985D01*
X75757071Y-61104500D01*
X75149760Y-61104500D01*
X75082721Y-61084815D01*
X75075449Y-61079767D01*
X75057331Y-61066204D01*
X75057328Y-61066202D01*
X74922482Y-61015908D01*
X74922483Y-61015908D01*
X74862883Y-61009501D01*
X74862881Y-61009500D01*
X74862873Y-61009500D01*
X74862864Y-61009500D01*
X73817129Y-61009500D01*
X73817123Y-61009501D01*
X73757516Y-61015908D01*
X73622671Y-61066202D01*
X73622665Y-61066206D01*
X73562392Y-61111326D01*
X73496928Y-61135743D01*
X73428655Y-61120891D01*
X73379250Y-61071486D01*
X73373529Y-61059529D01*
X73320861Y-60932375D01*
X73232621Y-60817379D01*
X73117625Y-60729139D01*
X73117624Y-60729138D01*
X73117622Y-60729137D01*
X72983712Y-60673671D01*
X72983710Y-60673670D01*
X72983709Y-60673670D01*
X72859840Y-60657362D01*
X72840001Y-60654750D01*
X72839999Y-60654750D01*
X72696291Y-60673670D01*
X72696287Y-60673671D01*
X72562377Y-60729137D01*
X72447379Y-60817379D01*
X72359137Y-60932377D01*
X72303671Y-61066287D01*
X72303670Y-61066291D01*
X72284750Y-61209999D01*
X68055576Y-61209999D01*
X67916648Y-61152454D01*
X67842184Y-61121610D01*
X67842180Y-61121608D01*
X67842178Y-61121608D01*
X67502162Y-61023651D01*
X67502153Y-61023649D01*
X67153307Y-60964378D01*
X67153295Y-60964376D01*
X66800000Y-60944536D01*
X66446704Y-60964376D01*
X66446692Y-60964378D01*
X66097846Y-61023649D01*
X66097837Y-61023651D01*
X65757821Y-61121608D01*
X65430901Y-61257021D01*
X65430897Y-61257023D01*
X65121187Y-61428194D01*
X65121182Y-61428197D01*
X64832603Y-61632956D01*
X64832595Y-61632962D01*
X64568751Y-61868748D01*
X64568748Y-61868751D01*
X64332962Y-62132595D01*
X64332956Y-62132603D01*
X64128197Y-62421182D01*
X64128194Y-62421187D01*
X63957023Y-62730897D01*
X63957021Y-62730901D01*
X63821608Y-63057821D01*
X63723651Y-63397837D01*
X63723649Y-63397846D01*
X63664378Y-63746692D01*
X63664376Y-63746704D01*
X63644536Y-64100000D01*
X62500500Y-64100000D01*
X62500500Y-54502706D01*
X62500618Y-54497297D01*
X62509536Y-54293039D01*
X62517386Y-54113226D01*
X62518325Y-54102497D01*
X62556981Y-53808883D01*
X62585247Y-53744990D01*
X62643571Y-53706519D01*
X62713436Y-53705688D01*
X62772659Y-53742760D01*
X62802438Y-53805966D01*
X62803749Y-53831561D01*
X62794922Y-53999998D01*
X62794922Y-54000000D01*
X62815219Y-54387287D01*
X62875886Y-54770323D01*
X62875887Y-54770330D01*
X62976262Y-55144936D01*
X63115244Y-55506994D01*
X63291310Y-55852543D01*
X63502531Y-56177793D01*
X63711095Y-56435350D01*
X63711096Y-56435350D01*
X65205747Y-54940698D01*
X65279588Y-55042330D01*
X65457670Y-55220412D01*
X65559300Y-55294251D01*
X64064648Y-56788903D01*
X64064649Y-56788904D01*
X64322206Y-56997468D01*
X64647456Y-57208689D01*
X64993005Y-57384755D01*
X65355063Y-57523737D01*
X65729669Y-57624112D01*
X65729676Y-57624113D01*
X66112712Y-57684780D01*
X66499999Y-57705078D01*
X66500001Y-57705078D01*
X66887287Y-57684780D01*
X67270323Y-57624113D01*
X67270330Y-57624112D01*
X67644936Y-57523737D01*
X68006994Y-57384755D01*
X68352543Y-57208689D01*
X68677783Y-56997476D01*
X68677785Y-56997475D01*
X68935349Y-56788902D01*
X67440698Y-55294251D01*
X67542330Y-55220412D01*
X67720412Y-55042330D01*
X67794251Y-54940698D01*
X69288902Y-56435349D01*
X69497475Y-56177785D01*
X69497476Y-56177783D01*
X69708689Y-55852543D01*
X69858766Y-55558000D01*
X71600000Y-55558000D01*
X71610608Y-55677325D01*
X71610609Y-55677328D01*
X71666557Y-55872861D01*
X71760721Y-56053129D01*
X71889246Y-56210753D01*
X72046870Y-56339278D01*
X72227138Y-56433442D01*
X72422671Y-56489390D01*
X72422674Y-56489391D01*
X72541999Y-56499999D01*
X72542002Y-56500000D01*
X72850000Y-56500000D01*
X73350000Y-56500000D01*
X73657998Y-56500000D01*
X73658000Y-56499999D01*
X73777325Y-56489391D01*
X73777328Y-56489390D01*
X73972861Y-56433442D01*
X74153129Y-56339278D01*
X74310753Y-56210753D01*
X74439278Y-56053129D01*
X74533442Y-55872861D01*
X74589390Y-55677328D01*
X74589391Y-55677325D01*
X74599999Y-55558000D01*
X74600000Y-55557998D01*
X74600000Y-54350000D01*
X73350000Y-54350000D01*
X73350000Y-56500000D01*
X72850000Y-56500000D01*
X72850000Y-54350000D01*
X71600000Y-54350000D01*
X71600000Y-55558000D01*
X69858766Y-55558000D01*
X69884755Y-55506994D01*
X70023737Y-55144936D01*
X70124112Y-54770330D01*
X70124113Y-54770323D01*
X70184780Y-54387287D01*
X70205078Y-54000000D01*
X70205078Y-53999999D01*
X70184780Y-53612712D01*
X70124113Y-53229676D01*
X70124112Y-53229669D01*
X70023737Y-52855063D01*
X69941949Y-52641999D01*
X71600000Y-52641999D01*
X71600000Y-53850000D01*
X72850000Y-53850000D01*
X73350000Y-53850000D01*
X74600000Y-53850000D01*
X74600000Y-52642002D01*
X74599999Y-52641999D01*
X74589391Y-52522674D01*
X74589390Y-52522671D01*
X74533442Y-52327138D01*
X74439278Y-52146870D01*
X74310753Y-51989246D01*
X74153129Y-51860721D01*
X73972861Y-51766557D01*
X73777328Y-51710609D01*
X73777325Y-51710608D01*
X73658000Y-51700000D01*
X73350000Y-51700000D01*
X73350000Y-53850000D01*
X72850000Y-53850000D01*
X72850000Y-51700000D01*
X72541999Y-51700000D01*
X72422674Y-51710608D01*
X72422671Y-51710609D01*
X72227138Y-51766557D01*
X72046870Y-51860721D01*
X71889246Y-51989246D01*
X71760721Y-52146870D01*
X71666557Y-52327138D01*
X71610609Y-52522671D01*
X71610608Y-52522674D01*
X71600000Y-52641999D01*
X69941949Y-52641999D01*
X69884755Y-52493005D01*
X69708689Y-52147456D01*
X69497468Y-51822206D01*
X69288904Y-51564649D01*
X69288903Y-51564648D01*
X67794251Y-53059300D01*
X67720412Y-52957670D01*
X67542330Y-52779588D01*
X67440698Y-52705747D01*
X68746447Y-51399999D01*
X77044750Y-51399999D01*
X77044750Y-51400000D01*
X77063670Y-51543708D01*
X77063671Y-51543712D01*
X77119138Y-51677623D01*
X77119139Y-51677625D01*
X77155118Y-51724514D01*
X77180312Y-51789683D01*
X77166274Y-51858128D01*
X77155118Y-51875486D01*
X77119139Y-51922374D01*
X77119138Y-51922376D01*
X77063671Y-52056287D01*
X77063670Y-52056291D01*
X77044750Y-52199999D01*
X77044750Y-52200000D01*
X77063670Y-52343708D01*
X77063671Y-52343712D01*
X77119137Y-52477622D01*
X77119138Y-52477624D01*
X77119139Y-52477625D01*
X77207379Y-52592621D01*
X77322375Y-52680861D01*
X77456291Y-52736330D01*
X77583123Y-52753028D01*
X77599999Y-52755250D01*
X77600000Y-52755250D01*
X77600001Y-52755250D01*
X77616877Y-52753028D01*
X77743709Y-52736330D01*
X77877625Y-52680861D01*
X77992621Y-52592621D01*
X77992625Y-52592616D01*
X77993423Y-52591819D01*
X77994261Y-52591361D01*
X77999068Y-52587673D01*
X77999643Y-52588422D01*
X78054746Y-52558334D01*
X78081104Y-52555500D01*
X78219547Y-52555500D01*
X78286586Y-52575185D01*
X78307228Y-52591819D01*
X78388574Y-52673165D01*
X78388580Y-52673170D01*
X78437262Y-52701960D01*
X78484945Y-52753028D01*
X78497449Y-52821770D01*
X78470804Y-52886359D01*
X78429236Y-52919780D01*
X78300974Y-52983392D01*
X78152633Y-53102632D01*
X78152632Y-53102633D01*
X78033392Y-53250974D01*
X78033390Y-53250977D01*
X77948831Y-53421476D01*
X77902897Y-53606175D01*
X77900000Y-53648903D01*
X77900000Y-53850000D01*
X79526000Y-53850000D01*
X79593039Y-53869685D01*
X79638794Y-53922489D01*
X79650000Y-53974000D01*
X79650000Y-54226000D01*
X79630315Y-54293039D01*
X79577511Y-54338794D01*
X79526000Y-54350000D01*
X77900000Y-54350000D01*
X77900000Y-54551096D01*
X77902897Y-54593824D01*
X77948831Y-54778523D01*
X78033390Y-54949022D01*
X78033392Y-54949025D01*
X78152632Y-55097366D01*
X78152633Y-55097367D01*
X78300974Y-55216607D01*
X78300973Y-55216607D01*
X78429236Y-55280219D01*
X78480548Y-55327640D01*
X78498077Y-55395275D01*
X78476258Y-55461650D01*
X78437263Y-55498039D01*
X78388580Y-55526830D01*
X78388574Y-55526834D01*
X78276834Y-55638574D01*
X78276827Y-55638583D01*
X78196382Y-55774609D01*
X78196380Y-55774614D01*
X78154559Y-55918564D01*
X78116953Y-55977450D01*
X78053480Y-56006656D01*
X77984294Y-55996910D01*
X77959997Y-55982345D01*
X77877625Y-55919139D01*
X77877623Y-55919138D01*
X77743712Y-55863671D01*
X77743710Y-55863670D01*
X77743709Y-55863670D01*
X77659193Y-55852543D01*
X77600001Y-55844750D01*
X77599999Y-55844750D01*
X77456291Y-55863670D01*
X77456287Y-55863671D01*
X77322377Y-55919137D01*
X77207379Y-56007379D01*
X77119137Y-56122377D01*
X77063671Y-56256287D01*
X77063670Y-56256291D01*
X77046810Y-56384356D01*
X77044750Y-56400000D01*
X77057915Y-56500000D01*
X77063670Y-56543708D01*
X77063671Y-56543712D01*
X77119137Y-56677622D01*
X77119138Y-56677624D01*
X77119139Y-56677625D01*
X77207379Y-56792621D01*
X77322375Y-56880861D01*
X77322376Y-56880861D01*
X77322377Y-56880862D01*
X77367013Y-56899350D01*
X77456291Y-56936330D01*
X77583280Y-56953048D01*
X77599999Y-56955250D01*
X77600000Y-56955250D01*
X77600001Y-56955250D01*
X77614977Y-56953278D01*
X77743709Y-56936330D01*
X77877625Y-56880861D01*
X77959996Y-56817654D01*
X78025165Y-56792460D01*
X78093610Y-56806498D01*
X78143600Y-56855312D01*
X78154559Y-56881435D01*
X78196380Y-57025385D01*
X78196382Y-57025390D01*
X78276827Y-57161416D01*
X78276834Y-57161425D01*
X78388574Y-57273165D01*
X78388583Y-57273172D01*
X78436998Y-57301804D01*
X78524610Y-57353618D01*
X78676373Y-57397709D01*
X78711837Y-57400500D01*
X79474145Y-57400499D01*
X79510612Y-57405982D01*
X79893316Y-57523737D01*
X81088233Y-57891404D01*
X81146518Y-57929933D01*
X81151028Y-57935604D01*
X81167454Y-57957546D01*
X81167457Y-57957548D01*
X81282664Y-58043793D01*
X81282671Y-58043797D01*
X81316159Y-58056287D01*
X81417517Y-58094091D01*
X81477127Y-58100500D01*
X81749149Y-58100499D01*
X81785611Y-58105981D01*
X81895452Y-58139779D01*
X81970643Y-58154286D01*
X82087270Y-58144622D01*
X82146056Y-58118835D01*
X82164050Y-58110943D01*
X82213860Y-58100499D01*
X82522871Y-58100499D01*
X82522872Y-58100499D01*
X82582483Y-58094091D01*
X82665086Y-58063281D01*
X82734776Y-58058297D01*
X82796097Y-58091779D01*
X82796100Y-58091782D01*
X82808440Y-58104122D01*
X82841925Y-58165445D01*
X82843067Y-58191873D01*
X82844750Y-58191873D01*
X82844750Y-58200000D01*
X82863670Y-58343708D01*
X82863671Y-58343712D01*
X82919137Y-58477622D01*
X82919138Y-58477624D01*
X82919139Y-58477625D01*
X83007379Y-58592621D01*
X83122375Y-58680861D01*
X83256291Y-58736330D01*
X83383280Y-58753048D01*
X83399999Y-58755250D01*
X83400000Y-58755250D01*
X83400001Y-58755250D01*
X83414977Y-58753278D01*
X83543709Y-58736330D01*
X83677625Y-58680861D01*
X83792621Y-58592621D01*
X83880861Y-58477625D01*
X83936330Y-58343709D01*
X83955250Y-58200000D01*
X83936330Y-58056291D01*
X83903442Y-57976893D01*
X83895974Y-57907425D01*
X83927249Y-57844946D01*
X83942513Y-57831069D01*
X83992621Y-57792621D01*
X84080861Y-57677625D01*
X84136330Y-57543709D01*
X84155250Y-57400000D01*
X84136330Y-57256291D01*
X84113012Y-57199995D01*
X89295233Y-57199995D01*
X89295233Y-57200004D01*
X89314273Y-57454079D01*
X89370968Y-57702477D01*
X89370973Y-57702494D01*
X89464058Y-57939671D01*
X89464057Y-57939671D01*
X89591454Y-58160327D01*
X89591461Y-58160338D01*
X89633452Y-58212991D01*
X89633453Y-58212992D01*
X90435387Y-57411058D01*
X90440889Y-57431591D01*
X90519881Y-57568408D01*
X90631592Y-57680119D01*
X90768409Y-57759111D01*
X90788940Y-57764612D01*
X89986813Y-58566738D01*
X90147616Y-58676371D01*
X90147624Y-58676376D01*
X90377176Y-58786921D01*
X90377174Y-58786921D01*
X90620652Y-58862024D01*
X90620658Y-58862026D01*
X90872595Y-58899999D01*
X90872604Y-58900000D01*
X91127396Y-58900000D01*
X91127404Y-58899999D01*
X91379341Y-58862026D01*
X91379347Y-58862024D01*
X91622824Y-58786921D01*
X91852376Y-58676376D01*
X91852377Y-58676375D01*
X92013185Y-58566738D01*
X91211060Y-57764612D01*
X91231591Y-57759111D01*
X91368408Y-57680119D01*
X91480119Y-57568408D01*
X91559111Y-57431591D01*
X91564612Y-57411059D01*
X92366544Y-58212992D01*
X92366546Y-58212991D01*
X92408544Y-58160330D01*
X92535941Y-57939671D01*
X92629026Y-57702494D01*
X92629031Y-57702477D01*
X92685726Y-57454079D01*
X92704767Y-57200004D01*
X92704767Y-57199995D01*
X92685726Y-56945920D01*
X92629031Y-56697522D01*
X92629026Y-56697505D01*
X92535941Y-56460328D01*
X92535942Y-56460328D01*
X92408545Y-56239672D01*
X92366545Y-56187006D01*
X91564612Y-56988939D01*
X91559111Y-56968409D01*
X91480119Y-56831592D01*
X91368408Y-56719881D01*
X91231591Y-56640889D01*
X91211059Y-56635387D01*
X92013185Y-55833260D01*
X91852384Y-55723628D01*
X91852376Y-55723623D01*
X91622823Y-55613078D01*
X91622825Y-55613078D01*
X91379347Y-55537975D01*
X91379341Y-55537973D01*
X91127404Y-55500000D01*
X90872595Y-55500000D01*
X90620658Y-55537973D01*
X90620652Y-55537975D01*
X90377175Y-55613078D01*
X90147622Y-55723625D01*
X90147609Y-55723632D01*
X89986813Y-55833259D01*
X90788941Y-56635387D01*
X90768409Y-56640889D01*
X90631592Y-56719881D01*
X90519881Y-56831592D01*
X90440889Y-56968409D01*
X90435387Y-56988941D01*
X89633452Y-56187006D01*
X89591457Y-56239667D01*
X89464058Y-56460328D01*
X89370973Y-56697505D01*
X89370968Y-56697522D01*
X89314273Y-56945920D01*
X89295233Y-57199995D01*
X84113012Y-57199995D01*
X84080861Y-57122375D01*
X83992621Y-57007379D01*
X83877625Y-56919139D01*
X83877624Y-56919138D01*
X83877622Y-56919137D01*
X83743712Y-56863671D01*
X83743710Y-56863670D01*
X83743709Y-56863670D01*
X83671854Y-56854210D01*
X83600001Y-56844750D01*
X83599999Y-56844750D01*
X83456291Y-56863670D01*
X83456287Y-56863671D01*
X83322376Y-56919138D01*
X83322374Y-56919139D01*
X83251040Y-56973876D01*
X83185871Y-56999070D01*
X83175554Y-56999500D01*
X83057791Y-56999500D01*
X82990752Y-56979815D01*
X82944997Y-56927011D01*
X82941609Y-56918833D01*
X82918797Y-56857671D01*
X82918793Y-56857664D01*
X82832547Y-56742455D01*
X82832544Y-56742452D01*
X82717335Y-56656206D01*
X82717329Y-56656203D01*
X82697529Y-56648818D01*
X82641596Y-56606946D01*
X82617179Y-56541482D01*
X82632031Y-56473209D01*
X82681437Y-56423804D01*
X82701860Y-56414930D01*
X82794117Y-56384359D01*
X82794124Y-56384356D01*
X82943345Y-56292315D01*
X83067315Y-56168345D01*
X83159356Y-56019124D01*
X83159358Y-56019119D01*
X83214505Y-55852697D01*
X83214506Y-55852690D01*
X83224999Y-55749986D01*
X83225000Y-55749973D01*
X83225000Y-55700000D01*
X80775000Y-55700000D01*
X80752617Y-55722383D01*
X80691294Y-55755867D01*
X80621602Y-55750882D01*
X80565669Y-55709011D01*
X80558213Y-55697835D01*
X80523170Y-55638580D01*
X80523165Y-55638574D01*
X80411425Y-55526834D01*
X80411417Y-55526828D01*
X80362737Y-55498039D01*
X80315054Y-55446970D01*
X80302550Y-55378229D01*
X80329195Y-55313639D01*
X80370764Y-55280219D01*
X80499021Y-55216610D01*
X80574519Y-55155922D01*
X80639103Y-55129263D01*
X80707847Y-55141753D01*
X80739888Y-55164888D01*
X80775000Y-55200000D01*
X81750000Y-55200000D01*
X82250000Y-55200000D01*
X83224999Y-55200000D01*
X83224999Y-55150028D01*
X83224998Y-55150013D01*
X83214505Y-55047302D01*
X83159358Y-54880880D01*
X83159356Y-54880875D01*
X83067315Y-54731654D01*
X83023342Y-54687681D01*
X82989857Y-54626358D01*
X82994841Y-54556666D01*
X83023342Y-54512319D01*
X83067315Y-54468345D01*
X83159356Y-54319124D01*
X83159358Y-54319119D01*
X83214505Y-54152697D01*
X83214506Y-54152690D01*
X83224999Y-54049986D01*
X83225000Y-54049973D01*
X83225000Y-54000000D01*
X82250000Y-54000000D01*
X82250000Y-55200000D01*
X81750000Y-55200000D01*
X81750000Y-53624000D01*
X81769685Y-53556961D01*
X81822489Y-53511206D01*
X81874000Y-53500000D01*
X83224999Y-53500000D01*
X83224999Y-53450028D01*
X83224998Y-53450013D01*
X83214505Y-53347302D01*
X83159358Y-53180880D01*
X83159356Y-53180875D01*
X83067315Y-53031654D01*
X82943345Y-52907684D01*
X82794124Y-52815643D01*
X82794119Y-52815641D01*
X82701859Y-52785069D01*
X82644414Y-52745296D01*
X82617591Y-52680780D01*
X82629906Y-52612004D01*
X82677449Y-52560804D01*
X82697533Y-52551180D01*
X82717328Y-52543797D01*
X82717327Y-52543797D01*
X82717331Y-52543796D01*
X82832546Y-52457546D01*
X82918796Y-52342331D01*
X82969091Y-52207483D01*
X82975500Y-52147873D01*
X82975499Y-51552128D01*
X82969091Y-51492517D01*
X82934584Y-51400000D01*
X82918797Y-51357671D01*
X82918793Y-51357664D01*
X82832547Y-51242455D01*
X82832544Y-51242452D01*
X82717335Y-51156206D01*
X82717328Y-51156202D01*
X82582482Y-51105908D01*
X82582483Y-51105908D01*
X82522883Y-51099501D01*
X82522881Y-51099500D01*
X82522873Y-51099500D01*
X82522865Y-51099500D01*
X82218115Y-51099500D01*
X82151076Y-51079815D01*
X82150242Y-51079275D01*
X82142955Y-51074509D01*
X82142954Y-51074508D01*
X82142953Y-51074508D01*
X82029526Y-51045728D01*
X80408379Y-50910631D01*
X80355557Y-50893792D01*
X80275388Y-50846381D01*
X80275385Y-50846380D01*
X80123633Y-50802292D01*
X80123620Y-50802290D01*
X80088163Y-50799500D01*
X78711849Y-50799500D01*
X78711824Y-50799501D01*
X78676372Y-50802291D01*
X78524614Y-50846380D01*
X78524609Y-50846382D01*
X78388583Y-50926827D01*
X78388574Y-50926834D01*
X78307228Y-51008181D01*
X78245905Y-51041666D01*
X78219547Y-51044500D01*
X78081104Y-51044500D01*
X78014065Y-51024815D01*
X77993423Y-51008181D01*
X77992625Y-51007383D01*
X77992622Y-51007381D01*
X77992621Y-51007379D01*
X77877625Y-50919139D01*
X77877624Y-50919138D01*
X77877622Y-50919137D01*
X77743712Y-50863671D01*
X77743710Y-50863670D01*
X77743709Y-50863670D01*
X77671854Y-50854210D01*
X77600001Y-50844750D01*
X77599999Y-50844750D01*
X77456291Y-50863670D01*
X77456287Y-50863671D01*
X77322377Y-50919137D01*
X77207379Y-51007379D01*
X77119137Y-51122377D01*
X77063671Y-51256287D01*
X77063670Y-51256291D01*
X77044750Y-51399999D01*
X68746447Y-51399999D01*
X68935350Y-51211096D01*
X68935350Y-51211095D01*
X68677793Y-51002531D01*
X68352543Y-50791310D01*
X68006994Y-50615244D01*
X67644936Y-50476262D01*
X67270330Y-50375887D01*
X67270323Y-50375886D01*
X66887287Y-50315219D01*
X66500001Y-50294922D01*
X66499998Y-50294922D01*
X66331561Y-50303749D01*
X66263584Y-50287600D01*
X66215128Y-50237263D01*
X66201579Y-50168719D01*
X66227238Y-50103732D01*
X66283959Y-50062933D01*
X66308879Y-50056981D01*
X66602497Y-50018325D01*
X66613226Y-50017386D01*
X66997297Y-50000617D01*
X67002706Y-50000500D01*
X67065892Y-50000500D01*
X103434108Y-50000500D01*
X103497294Y-50000500D01*
X103502702Y-50000617D01*
G37*
%TD.AperFunction*%
%TD*%
M02*
