%TF.GenerationSoftware,KiCad,Pcbnew,8.0.6*%
%TF.CreationDate,2024-11-07T10:06:34+11:00*%
%TF.ProjectId,mppt-board,6d707074-2d62-46f6-9172-642e6b696361,rev?*%
%TF.SameCoordinates,Original*%
%TF.FileFunction,Copper,L3,Inr*%
%TF.FilePolarity,Positive*%
%FSLAX46Y46*%
G04 Gerber Fmt 4.6, Leading zero omitted, Abs format (unit mm)*
G04 Created by KiCad (PCBNEW 8.0.6) date 2024-11-07 10:06:34*
%MOMM*%
%LPD*%
G01*
G04 APERTURE LIST*
%TA.AperFunction,ComponentPad*%
%ADD10C,5.800000*%
%TD*%
%TA.AperFunction,ComponentPad*%
%ADD11C,6.400000*%
%TD*%
%TA.AperFunction,ComponentPad*%
%ADD12R,2.400000X2.400000*%
%TD*%
%TA.AperFunction,ComponentPad*%
%ADD13C,2.400000*%
%TD*%
%TA.AperFunction,ComponentPad*%
%ADD14R,1.700000X1.700000*%
%TD*%
%TA.AperFunction,ComponentPad*%
%ADD15O,1.700000X1.700000*%
%TD*%
%TA.AperFunction,ComponentPad*%
%ADD16C,5.520000*%
%TD*%
%TA.AperFunction,ViaPad*%
%ADD17C,0.600000*%
%TD*%
%TA.AperFunction,Conductor*%
%ADD18C,0.200000*%
%TD*%
G04 APERTURE END LIST*
D10*
%TO.N,Net-(U4--)*%
%TO.C,U4*%
X66800000Y-64100000D03*
%TO.N,VBUS*%
X66800000Y-71300000D03*
%TD*%
D11*
%TO.N,GND*%
%TO.C,H3*%
X66500000Y-84500000D03*
%TD*%
D12*
%TO.N,Net-(D1-K)*%
%TO.C,C2*%
X96000000Y-57200000D03*
D13*
%TO.N,GND*%
X91000000Y-57200000D03*
%TD*%
D11*
%TO.N,GND*%
%TO.C,H2*%
X104000000Y-54000000D03*
%TD*%
D14*
%TO.N,VCC*%
%TO.C,J2*%
X72520000Y-86100000D03*
D15*
%TO.N,/swclk*%
X75060000Y-86100000D03*
%TO.N,/swdio*%
X77600000Y-86100000D03*
%TO.N,GND*%
X80140000Y-86100000D03*
%TD*%
D11*
%TO.N,GND*%
%TO.C,H1*%
X66500000Y-54000000D03*
%TD*%
%TO.N,GND*%
%TO.C,H4*%
X104000000Y-84600000D03*
%TD*%
D16*
%TO.N,Net-(D1-K)*%
%TO.C,U5*%
X103500000Y-70800000D03*
%TO.N,GND*%
X103500000Y-63600000D03*
%TD*%
D17*
%TO.N,GND*%
X75400000Y-77300000D03*
X75800000Y-79200000D03*
X86300000Y-63600000D03*
X84500000Y-61200000D03*
X85700000Y-68000000D03*
X78600000Y-74400000D03*
X73500000Y-70200000D03*
X65300000Y-78200000D03*
X69500000Y-81700000D03*
X63500000Y-81600000D03*
X69500000Y-87400000D03*
X102400000Y-88300000D03*
X101000000Y-87700000D03*
X101100000Y-81700000D03*
X102600000Y-78400000D03*
X105800000Y-78200000D03*
X106900000Y-57000000D03*
X101100000Y-57000000D03*
X107000000Y-65200000D03*
X103500000Y-67200000D03*
X106000000Y-66400000D03*
X101000000Y-60800000D03*
X107200000Y-63600000D03*
X106400000Y-61200000D03*
%TO.N,VBUS*%
X67300000Y-76000000D03*
X69400000Y-74800000D03*
X71000000Y-77000000D03*
X69300000Y-78900000D03*
X68900000Y-77000000D03*
X86340000Y-70710000D03*
X85140000Y-70110000D03*
X83600000Y-57400000D03*
X83400000Y-58200000D03*
X77600000Y-56400000D03*
%TO.N,GND*%
X88900000Y-63500000D03*
X71500000Y-56500000D03*
X71300000Y-54100000D03*
X73100000Y-51400000D03*
X89500000Y-85200000D03*
X71500000Y-51800000D03*
X74700000Y-56300000D03*
X91000000Y-55000000D03*
X75800000Y-80875429D03*
X107000000Y-81200000D03*
X93000000Y-59500000D03*
X81840000Y-65110000D03*
X86360000Y-50800000D03*
X80500000Y-75600000D03*
X75000000Y-52200000D03*
X73200000Y-76000000D03*
X73900000Y-84000000D03*
X99500000Y-88000000D03*
X83800000Y-55600000D03*
X79540000Y-65510000D03*
X104600000Y-80200000D03*
X75000000Y-54100000D03*
X70900000Y-83600000D03*
X88250000Y-57500000D03*
X93250000Y-55250000D03*
X77600000Y-53400000D03*
X80040000Y-63210000D03*
X104800000Y-76600000D03*
X73100000Y-56800000D03*
X93250000Y-57250000D03*
X91440000Y-66040000D03*
X77600000Y-54200000D03*
X89000000Y-72000000D03*
X86500000Y-55000000D03*
X86360000Y-86360000D03*
X104000000Y-60000000D03*
X88750000Y-59750000D03*
X77600000Y-55000000D03*
X101600000Y-50800000D03*
X89800000Y-80900000D03*
X73250000Y-74500000D03*
X88750000Y-55500000D03*
X79340000Y-59460000D03*
X76040000Y-65810000D03*
X83800000Y-54000000D03*
X96520000Y-66040000D03*
X77090000Y-59210000D03*
X87750000Y-53500000D03*
X86500000Y-52000000D03*
X72000000Y-65250000D03*
X78340000Y-59460000D03*
X96520000Y-50800000D03*
X91440000Y-50800000D03*
X90000000Y-78000000D03*
X97800000Y-88100000D03*
X82700000Y-85600000D03*
X91250000Y-60000000D03*
X79340000Y-69710000D03*
X95600000Y-64700000D03*
X71600000Y-58600000D03*
X76800000Y-82800000D03*
%TO.N,VCC*%
X72840000Y-61210000D03*
X77600000Y-52200000D03*
X77600000Y-51400000D03*
%TO.N,/V_{drop}*%
X78943861Y-63925378D03*
X83340000Y-67910000D03*
%TO.N,/swdio*%
X80240000Y-61710000D03*
%TO.N,/swclk*%
X80090000Y-60710000D03*
%TD*%
D18*
%TO.N,VCC*%
X72520000Y-86100000D02*
X72520000Y-79420000D01*
X72520000Y-79420000D02*
X72500000Y-79400000D01*
%TD*%
%TA.AperFunction,Conductor*%
%TO.N,GND*%
G36*
X103502702Y-50000617D02*
G01*
X103886771Y-50017386D01*
X103897504Y-50018326D01*
X104191114Y-50056980D01*
X104255009Y-50085247D01*
X104293480Y-50143571D01*
X104294311Y-50213436D01*
X104257239Y-50272659D01*
X104194033Y-50302438D01*
X104168438Y-50303749D01*
X104000002Y-50294922D01*
X103999999Y-50294922D01*
X103612712Y-50315219D01*
X103229676Y-50375886D01*
X103229669Y-50375887D01*
X102855063Y-50476262D01*
X102493005Y-50615244D01*
X102147456Y-50791310D01*
X101822206Y-51002531D01*
X101564648Y-51211095D01*
X101564648Y-51211096D01*
X103059301Y-52705748D01*
X102957670Y-52779588D01*
X102779588Y-52957670D01*
X102705748Y-53059300D01*
X101211096Y-51564648D01*
X101211095Y-51564648D01*
X101002531Y-51822206D01*
X100791310Y-52147456D01*
X100615244Y-52493005D01*
X100476262Y-52855063D01*
X100375887Y-53229669D01*
X100375886Y-53229676D01*
X100315219Y-53612712D01*
X100294922Y-53999993D01*
X100315219Y-54387287D01*
X100375886Y-54770323D01*
X100375887Y-54770330D01*
X100476262Y-55144936D01*
X100615244Y-55506994D01*
X100791310Y-55852543D01*
X101002531Y-56177793D01*
X101211095Y-56435350D01*
X101211096Y-56435350D01*
X102705748Y-54940698D01*
X102779588Y-55042330D01*
X102957670Y-55220412D01*
X103059300Y-55294251D01*
X101564648Y-56788903D01*
X101564649Y-56788904D01*
X101822206Y-56997468D01*
X102147456Y-57208689D01*
X102493005Y-57384755D01*
X102855063Y-57523737D01*
X103229669Y-57624112D01*
X103229676Y-57624113D01*
X103612712Y-57684780D01*
X103999999Y-57705078D01*
X104000001Y-57705078D01*
X104387287Y-57684780D01*
X104770323Y-57624113D01*
X104770330Y-57624112D01*
X105144936Y-57523737D01*
X105506994Y-57384755D01*
X105852543Y-57208689D01*
X106177783Y-56997476D01*
X106177785Y-56997475D01*
X106435349Y-56788902D01*
X104940698Y-55294251D01*
X105042330Y-55220412D01*
X105220412Y-55042330D01*
X105294251Y-54940698D01*
X106788902Y-56435349D01*
X106997475Y-56177785D01*
X106997476Y-56177783D01*
X107208689Y-55852543D01*
X107384755Y-55506994D01*
X107523737Y-55144936D01*
X107624112Y-54770330D01*
X107624113Y-54770323D01*
X107684780Y-54387287D01*
X107705078Y-53999993D01*
X107696250Y-53831562D01*
X107712399Y-53763584D01*
X107762736Y-53715128D01*
X107831279Y-53701579D01*
X107896267Y-53727237D01*
X107937066Y-53783958D01*
X107943019Y-53808886D01*
X107966124Y-53984380D01*
X107975048Y-54052170D01*
X107981671Y-54102472D01*
X107982614Y-54113249D01*
X107989862Y-54279253D01*
X107996192Y-54424246D01*
X107999382Y-54497297D01*
X107999500Y-54502706D01*
X107999500Y-84161759D01*
X107999382Y-84167168D01*
X107982614Y-84551218D01*
X107981671Y-84561994D01*
X107937405Y-84898224D01*
X107909138Y-84962121D01*
X107850814Y-85000592D01*
X107780949Y-85001423D01*
X107721726Y-84964351D01*
X107691947Y-84901145D01*
X107690636Y-84875549D01*
X107705078Y-84600000D01*
X107705078Y-84599999D01*
X107684780Y-84212712D01*
X107624113Y-83829676D01*
X107624112Y-83829669D01*
X107523737Y-83455063D01*
X107384755Y-83093005D01*
X107208689Y-82747456D01*
X106997468Y-82422206D01*
X106788904Y-82164649D01*
X106788903Y-82164648D01*
X105294251Y-83659300D01*
X105220412Y-83557670D01*
X105042330Y-83379588D01*
X104940698Y-83305748D01*
X106435350Y-81811096D01*
X106435350Y-81811095D01*
X106177793Y-81602531D01*
X105852543Y-81391310D01*
X105506994Y-81215244D01*
X105144936Y-81076262D01*
X104770330Y-80975887D01*
X104770323Y-80975886D01*
X104387287Y-80915219D01*
X104000001Y-80894922D01*
X103999999Y-80894922D01*
X103612712Y-80915219D01*
X103229676Y-80975886D01*
X103229669Y-80975887D01*
X102855063Y-81076262D01*
X102493005Y-81215244D01*
X102147456Y-81391310D01*
X101822206Y-81602531D01*
X101564648Y-81811095D01*
X101564648Y-81811096D01*
X103059301Y-83305748D01*
X102957670Y-83379588D01*
X102779588Y-83557670D01*
X102705748Y-83659300D01*
X101211096Y-82164648D01*
X101211095Y-82164648D01*
X101002531Y-82422206D01*
X100791310Y-82747456D01*
X100615244Y-83093005D01*
X100476262Y-83455063D01*
X100375887Y-83829669D01*
X100375886Y-83829676D01*
X100315219Y-84212712D01*
X100294922Y-84599999D01*
X100294922Y-84600000D01*
X100315219Y-84987287D01*
X100375886Y-85370323D01*
X100375887Y-85370330D01*
X100476262Y-85744936D01*
X100615244Y-86106994D01*
X100791310Y-86452543D01*
X101002531Y-86777793D01*
X101211095Y-87035350D01*
X101211096Y-87035350D01*
X102705748Y-85540698D01*
X102779588Y-85642330D01*
X102957670Y-85820412D01*
X103059300Y-85894251D01*
X101564648Y-87388903D01*
X101564649Y-87388904D01*
X101822206Y-87597468D01*
X102147456Y-87808689D01*
X102493005Y-87984755D01*
X102855063Y-88123737D01*
X103229669Y-88224112D01*
X103229676Y-88224113D01*
X103612712Y-88284780D01*
X103999999Y-88305078D01*
X104000001Y-88305078D01*
X104387287Y-88284780D01*
X104735762Y-88229587D01*
X104805055Y-88238541D01*
X104858507Y-88283538D01*
X104879147Y-88350289D01*
X104860422Y-88417603D01*
X104808277Y-88464107D01*
X104792447Y-88470321D01*
X104669722Y-88509016D01*
X104659274Y-88511816D01*
X104286613Y-88594433D01*
X104275959Y-88596311D01*
X103897528Y-88646132D01*
X103886751Y-88647075D01*
X103502556Y-88663848D01*
X103497148Y-88663966D01*
X67002706Y-88663966D01*
X66997297Y-88663848D01*
X66613245Y-88647080D01*
X66602471Y-88646137D01*
X66413252Y-88621226D01*
X66224036Y-88596316D01*
X66213383Y-88594438D01*
X65840719Y-88511821D01*
X65830270Y-88509021D01*
X65466230Y-88394240D01*
X65456065Y-88390540D01*
X65103419Y-88244471D01*
X65093615Y-88239900D01*
X64755029Y-88063644D01*
X64745672Y-88058242D01*
X64574648Y-87949288D01*
X64528684Y-87896666D01*
X64518466Y-87827547D01*
X64547239Y-87763877D01*
X64605866Y-87725869D01*
X64675735Y-87725592D01*
X64697568Y-87734222D01*
X64993005Y-87884755D01*
X65355063Y-88023737D01*
X65729669Y-88124112D01*
X65729676Y-88124113D01*
X66112712Y-88184780D01*
X66499999Y-88205078D01*
X66500001Y-88205078D01*
X66887287Y-88184780D01*
X67270323Y-88124113D01*
X67270330Y-88124112D01*
X67644936Y-88023737D01*
X68006994Y-87884755D01*
X68352543Y-87708689D01*
X68677783Y-87497476D01*
X68677785Y-87497475D01*
X68935349Y-87288902D01*
X67440698Y-85794251D01*
X67542330Y-85720412D01*
X67720412Y-85542330D01*
X67794251Y-85440698D01*
X69288902Y-86935349D01*
X69497475Y-86677785D01*
X69497476Y-86677783D01*
X69708689Y-86352543D01*
X69884755Y-86006994D01*
X70023737Y-85644936D01*
X70124112Y-85270330D01*
X70124113Y-85270323D01*
X70184780Y-84887287D01*
X70205078Y-84500000D01*
X70205078Y-84499999D01*
X70184780Y-84112712D01*
X70124113Y-83729676D01*
X70124112Y-83729669D01*
X70023737Y-83355063D01*
X69884755Y-82993005D01*
X69708689Y-82647456D01*
X69497468Y-82322206D01*
X69288904Y-82064649D01*
X69288903Y-82064648D01*
X67794251Y-83559300D01*
X67720412Y-83457670D01*
X67542330Y-83279588D01*
X67440698Y-83205748D01*
X68935350Y-81711096D01*
X68935350Y-81711095D01*
X68677793Y-81502531D01*
X68352543Y-81291310D01*
X68251812Y-81239985D01*
X68201016Y-81192010D01*
X68184221Y-81124190D01*
X68206758Y-81058055D01*
X68261473Y-81014603D01*
X68308107Y-81005500D01*
X72045500Y-81005500D01*
X72112539Y-81025185D01*
X72158294Y-81077989D01*
X72169500Y-81129500D01*
X72169500Y-84875500D01*
X72149815Y-84942539D01*
X72097011Y-84988294D01*
X72045500Y-84999500D01*
X71645323Y-84999500D01*
X71572264Y-85014032D01*
X71572260Y-85014033D01*
X71489399Y-85069399D01*
X71434033Y-85152260D01*
X71434032Y-85152264D01*
X71419500Y-85225321D01*
X71419500Y-86974678D01*
X71434032Y-87047735D01*
X71434033Y-87047739D01*
X71434034Y-87047740D01*
X71489399Y-87130601D01*
X71572260Y-87185966D01*
X71572264Y-87185967D01*
X71645321Y-87200499D01*
X71645324Y-87200500D01*
X71645326Y-87200500D01*
X73394676Y-87200500D01*
X73394677Y-87200499D01*
X73467740Y-87185966D01*
X73550601Y-87130601D01*
X73605966Y-87047740D01*
X73620500Y-86974674D01*
X73620500Y-86099999D01*
X73954785Y-86099999D01*
X73954785Y-86100000D01*
X73973602Y-86303082D01*
X74029417Y-86499247D01*
X74029422Y-86499260D01*
X74120327Y-86681821D01*
X74243237Y-86844581D01*
X74393958Y-86981980D01*
X74393960Y-86981982D01*
X74480153Y-87035350D01*
X74567363Y-87089348D01*
X74757544Y-87163024D01*
X74958024Y-87200500D01*
X74958026Y-87200500D01*
X75161974Y-87200500D01*
X75161976Y-87200500D01*
X75362456Y-87163024D01*
X75552637Y-87089348D01*
X75726041Y-86981981D01*
X75876764Y-86844579D01*
X75999673Y-86681821D01*
X76090582Y-86499250D01*
X76146397Y-86303083D01*
X76165215Y-86100000D01*
X76165215Y-86099999D01*
X76494785Y-86099999D01*
X76494785Y-86100000D01*
X76513602Y-86303082D01*
X76569417Y-86499247D01*
X76569422Y-86499260D01*
X76660327Y-86681821D01*
X76783237Y-86844581D01*
X76933958Y-86981980D01*
X76933960Y-86981982D01*
X77020153Y-87035350D01*
X77107363Y-87089348D01*
X77297544Y-87163024D01*
X77498024Y-87200500D01*
X77498026Y-87200500D01*
X77701974Y-87200500D01*
X77701976Y-87200500D01*
X77902456Y-87163024D01*
X78092637Y-87089348D01*
X78266041Y-86981981D01*
X78416764Y-86844579D01*
X78539673Y-86681821D01*
X78626817Y-86506812D01*
X78674319Y-86455575D01*
X78741982Y-86438153D01*
X78808323Y-86460078D01*
X78852278Y-86514389D01*
X78857592Y-86529989D01*
X78866567Y-86563485D01*
X78866570Y-86563492D01*
X78966399Y-86777578D01*
X79101894Y-86971082D01*
X79268917Y-87138105D01*
X79462421Y-87273600D01*
X79676507Y-87373429D01*
X79676516Y-87373433D01*
X79890000Y-87430634D01*
X79890000Y-86533012D01*
X79947007Y-86565925D01*
X80074174Y-86600000D01*
X80205826Y-86600000D01*
X80332993Y-86565925D01*
X80390000Y-86533012D01*
X80390000Y-87430633D01*
X80603483Y-87373433D01*
X80603492Y-87373429D01*
X80817578Y-87273600D01*
X81011082Y-87138105D01*
X81178105Y-86971082D01*
X81313600Y-86777578D01*
X81413429Y-86563492D01*
X81413432Y-86563486D01*
X81470636Y-86350000D01*
X80573012Y-86350000D01*
X80605925Y-86292993D01*
X80640000Y-86165826D01*
X80640000Y-86034174D01*
X80605925Y-85907007D01*
X80573012Y-85850000D01*
X81470636Y-85850000D01*
X81470635Y-85849999D01*
X81413432Y-85636513D01*
X81413429Y-85636507D01*
X81313600Y-85422422D01*
X81313599Y-85422420D01*
X81178113Y-85228926D01*
X81178108Y-85228920D01*
X81011082Y-85061894D01*
X80817578Y-84926399D01*
X80603492Y-84826570D01*
X80603486Y-84826567D01*
X80390000Y-84769364D01*
X80390000Y-85666988D01*
X80332993Y-85634075D01*
X80205826Y-85600000D01*
X80074174Y-85600000D01*
X79947007Y-85634075D01*
X79890000Y-85666988D01*
X79890000Y-84769364D01*
X79889999Y-84769364D01*
X79676513Y-84826567D01*
X79676507Y-84826570D01*
X79462422Y-84926399D01*
X79462420Y-84926400D01*
X79268926Y-85061886D01*
X79268920Y-85061891D01*
X79101891Y-85228920D01*
X79101886Y-85228926D01*
X78966400Y-85422420D01*
X78966399Y-85422422D01*
X78866570Y-85636507D01*
X78866568Y-85636511D01*
X78857592Y-85670011D01*
X78821226Y-85729671D01*
X78758379Y-85760199D01*
X78689003Y-85751904D01*
X78635126Y-85707418D01*
X78626817Y-85693188D01*
X78580415Y-85600000D01*
X78539673Y-85518179D01*
X78428023Y-85370330D01*
X78416762Y-85355418D01*
X78266041Y-85218019D01*
X78266039Y-85218017D01*
X78092642Y-85110655D01*
X78092635Y-85110651D01*
X77966769Y-85061891D01*
X77902456Y-85036976D01*
X77701976Y-84999500D01*
X77498024Y-84999500D01*
X77297544Y-85036976D01*
X77297541Y-85036976D01*
X77297541Y-85036977D01*
X77107364Y-85110651D01*
X77107357Y-85110655D01*
X76933960Y-85218017D01*
X76933958Y-85218019D01*
X76783237Y-85355418D01*
X76660327Y-85518178D01*
X76569422Y-85700739D01*
X76569417Y-85700752D01*
X76513602Y-85896917D01*
X76494785Y-86099999D01*
X76165215Y-86099999D01*
X76159115Y-86034174D01*
X76146397Y-85896917D01*
X76133048Y-85850000D01*
X76090582Y-85700750D01*
X76090159Y-85699901D01*
X76040415Y-85600000D01*
X75999673Y-85518179D01*
X75888023Y-85370330D01*
X75876762Y-85355418D01*
X75726041Y-85218019D01*
X75726039Y-85218017D01*
X75552642Y-85110655D01*
X75552635Y-85110651D01*
X75426769Y-85061891D01*
X75362456Y-85036976D01*
X75161976Y-84999500D01*
X74958024Y-84999500D01*
X74757544Y-85036976D01*
X74757541Y-85036976D01*
X74757541Y-85036977D01*
X74567364Y-85110651D01*
X74567357Y-85110655D01*
X74393960Y-85218017D01*
X74393958Y-85218019D01*
X74243237Y-85355418D01*
X74120327Y-85518178D01*
X74029422Y-85700739D01*
X74029417Y-85700752D01*
X73973602Y-85896917D01*
X73954785Y-86099999D01*
X73620500Y-86099999D01*
X73620500Y-85225326D01*
X73620500Y-85225323D01*
X73620499Y-85225321D01*
X73605967Y-85152264D01*
X73605966Y-85152260D01*
X73550601Y-85069399D01*
X73467740Y-85014034D01*
X73467739Y-85014033D01*
X73467735Y-85014032D01*
X73394677Y-84999500D01*
X73394674Y-84999500D01*
X72994500Y-84999500D01*
X72927461Y-84979815D01*
X72881706Y-84927011D01*
X72870500Y-84875500D01*
X72870500Y-81129500D01*
X72890185Y-81062461D01*
X72942989Y-81016706D01*
X72994500Y-81005500D01*
X75021956Y-81005500D01*
X75021957Y-81005500D01*
X75131926Y-80993393D01*
X75149007Y-80989585D01*
X75184579Y-80981658D01*
X75184582Y-80981656D01*
X75184586Y-80981656D01*
X75238999Y-80963081D01*
X75289285Y-80945917D01*
X75289286Y-80945916D01*
X75289290Y-80945915D01*
X75409530Y-80866897D01*
X75454652Y-80826984D01*
X75461853Y-80820616D01*
X75461855Y-80820613D01*
X75461864Y-80820606D01*
X75461867Y-80820603D01*
X75554973Y-80710910D01*
X75560471Y-80702158D01*
X75577781Y-80680451D01*
X75605026Y-80653206D01*
X75626727Y-80635900D01*
X75719429Y-80577653D01*
X75719428Y-80577652D01*
X75724816Y-80574268D01*
X75725265Y-80573986D01*
X75725270Y-80573981D01*
X75727133Y-80572812D01*
X75727142Y-80572806D01*
X75734034Y-80568476D01*
X75801272Y-80549480D01*
X75865970Y-80568478D01*
X75870942Y-80571602D01*
X75870971Y-80571621D01*
X75874700Y-80573964D01*
X75874705Y-80573968D01*
X75879940Y-80577257D01*
X75879940Y-80577256D01*
X75880573Y-80577653D01*
X75880573Y-80577654D01*
X75963850Y-80629981D01*
X75973267Y-80635898D01*
X75994975Y-80653210D01*
X76022217Y-80680452D01*
X76039529Y-80702160D01*
X76045029Y-80710913D01*
X76045031Y-80710916D01*
X76049331Y-80716336D01*
X76113793Y-80797592D01*
X76151748Y-80835935D01*
X76237707Y-80905567D01*
X76368584Y-80965338D01*
X76435623Y-80985023D01*
X76435627Y-80985024D01*
X76578043Y-81005500D01*
X76578046Y-81005500D01*
X87125990Y-81005500D01*
X87126000Y-81005500D01*
X87233456Y-80993947D01*
X87284967Y-80982741D01*
X87319197Y-80971347D01*
X87387497Y-80948616D01*
X87387501Y-80948613D01*
X87387504Y-80948613D01*
X87508543Y-80870825D01*
X87561347Y-80825070D01*
X87655567Y-80716336D01*
X87715338Y-80585459D01*
X87735023Y-80518420D01*
X87735024Y-80518416D01*
X87755500Y-80376000D01*
X87755500Y-71196765D01*
X87749982Y-71122280D01*
X87744597Y-71086133D01*
X87728160Y-71013259D01*
X87667057Y-70882998D01*
X87666290Y-70881831D01*
X87628691Y-70824616D01*
X87628678Y-70824600D01*
X87606919Y-70800000D01*
X100484756Y-70800000D01*
X100503714Y-71137595D01*
X100503716Y-71137607D01*
X100560353Y-71470951D01*
X100560355Y-71470960D01*
X100653959Y-71795866D01*
X100783358Y-72108263D01*
X100946920Y-72404207D01*
X101142591Y-72679980D01*
X101367899Y-72932097D01*
X101367902Y-72932100D01*
X101620019Y-73157408D01*
X101620025Y-73157412D01*
X101620026Y-73157413D01*
X101895793Y-73353080D01*
X102191735Y-73516641D01*
X102504128Y-73646039D01*
X102829045Y-73739646D01*
X103162400Y-73796285D01*
X103500000Y-73815244D01*
X103837600Y-73796285D01*
X104170955Y-73739646D01*
X104495872Y-73646039D01*
X104808265Y-73516641D01*
X105104207Y-73353080D01*
X105379974Y-73157413D01*
X105632099Y-72932099D01*
X105857413Y-72679974D01*
X106053080Y-72404207D01*
X106216641Y-72108265D01*
X106346039Y-71795872D01*
X106439646Y-71470955D01*
X106496285Y-71137600D01*
X106515244Y-70800000D01*
X106496285Y-70462400D01*
X106439646Y-70129045D01*
X106346039Y-69804128D01*
X106216641Y-69491735D01*
X106053080Y-69195793D01*
X105857413Y-68920026D01*
X105857412Y-68920025D01*
X105857408Y-68920019D01*
X105632100Y-68667902D01*
X105632097Y-68667899D01*
X105379980Y-68442591D01*
X105104207Y-68246920D01*
X104954856Y-68164377D01*
X104808265Y-68083359D01*
X104798328Y-68079243D01*
X104640533Y-68013882D01*
X104495872Y-67953961D01*
X104495868Y-67953959D01*
X104495866Y-67953959D01*
X104170960Y-67860355D01*
X104170951Y-67860353D01*
X103837607Y-67803716D01*
X103837595Y-67803714D01*
X103500000Y-67784756D01*
X103162404Y-67803714D01*
X103162392Y-67803716D01*
X102829048Y-67860353D01*
X102829039Y-67860355D01*
X102504133Y-67953959D01*
X102191736Y-68083358D01*
X101895792Y-68246920D01*
X101620019Y-68442591D01*
X101367902Y-68667899D01*
X101367899Y-68667902D01*
X101142591Y-68920019D01*
X100946920Y-69195792D01*
X100783358Y-69491736D01*
X100653959Y-69804133D01*
X100560355Y-70129039D01*
X100560353Y-70129048D01*
X100503716Y-70462392D01*
X100503714Y-70462404D01*
X100484756Y-70800000D01*
X87606919Y-70800000D01*
X87599929Y-70792098D01*
X87570257Y-70728842D01*
X87579494Y-70659585D01*
X87599093Y-70628742D01*
X87655567Y-70563570D01*
X87715338Y-70432693D01*
X87735023Y-70365654D01*
X87735024Y-70365650D01*
X87755500Y-70223234D01*
X87755500Y-64023106D01*
X87749982Y-63948619D01*
X87744597Y-63912473D01*
X87728161Y-63839605D01*
X87667059Y-63709343D01*
X87641826Y-63670947D01*
X87621459Y-63604112D01*
X87622622Y-63599997D01*
X100235212Y-63599997D01*
X100235212Y-63600002D01*
X100254350Y-63952983D01*
X100254351Y-63953000D01*
X100311538Y-64301820D01*
X100311544Y-64301846D01*
X100406109Y-64642441D01*
X100406111Y-64642447D01*
X100536954Y-64970839D01*
X100536963Y-64970857D01*
X100702546Y-65283179D01*
X100702547Y-65283182D01*
X100900923Y-65575764D01*
X100900931Y-65575774D01*
X101024819Y-65721625D01*
X101024820Y-65721626D01*
X101740388Y-65006057D01*
X101802242Y-65086667D01*
X102010793Y-65295218D01*
X102094275Y-65359275D01*
X101375551Y-66077999D01*
X101375551Y-66078001D01*
X101386420Y-66088297D01*
X101667845Y-66302229D01*
X101970750Y-66484482D01*
X101970754Y-66484484D01*
X102291554Y-66632902D01*
X102291573Y-66632909D01*
X102626577Y-66745786D01*
X102971817Y-66821779D01*
X103323246Y-66859999D01*
X103323254Y-66860000D01*
X103676746Y-66860000D01*
X103676753Y-66859999D01*
X104028182Y-66821779D01*
X104373422Y-66745786D01*
X104708426Y-66632909D01*
X104708445Y-66632902D01*
X105029245Y-66484484D01*
X105029249Y-66484482D01*
X105332154Y-66302229D01*
X105613579Y-66088297D01*
X105624447Y-66078001D01*
X105624448Y-66078000D01*
X104905724Y-65359276D01*
X104989207Y-65295218D01*
X105197758Y-65086667D01*
X105259611Y-65006058D01*
X105975178Y-65721625D01*
X106099073Y-65575766D01*
X106099084Y-65575752D01*
X106297451Y-65283183D01*
X106297453Y-65283179D01*
X106463036Y-64970857D01*
X106463045Y-64970839D01*
X106593888Y-64642447D01*
X106593890Y-64642441D01*
X106688455Y-64301846D01*
X106688461Y-64301820D01*
X106745648Y-63953000D01*
X106745649Y-63952983D01*
X106764788Y-63600002D01*
X106764788Y-63599997D01*
X106745649Y-63247016D01*
X106745648Y-63246999D01*
X106688461Y-62898179D01*
X106688455Y-62898153D01*
X106593890Y-62557558D01*
X106593888Y-62557552D01*
X106463045Y-62229160D01*
X106463036Y-62229142D01*
X106297453Y-61916820D01*
X106297452Y-61916817D01*
X106099076Y-61624235D01*
X106099068Y-61624225D01*
X105975179Y-61478373D01*
X105975178Y-61478373D01*
X105259610Y-62193940D01*
X105197758Y-62113333D01*
X104989207Y-61904782D01*
X104905723Y-61840722D01*
X105624447Y-61121998D01*
X105624447Y-61121997D01*
X105613579Y-61111702D01*
X105332154Y-60897770D01*
X105029249Y-60715517D01*
X105029245Y-60715515D01*
X104708445Y-60567097D01*
X104708426Y-60567090D01*
X104373422Y-60454213D01*
X104028182Y-60378220D01*
X103676753Y-60340000D01*
X103323246Y-60340000D01*
X102971817Y-60378220D01*
X102626577Y-60454213D01*
X102291573Y-60567090D01*
X102291554Y-60567097D01*
X101970754Y-60715515D01*
X101970750Y-60715517D01*
X101667845Y-60897770D01*
X101386422Y-61111701D01*
X101386419Y-61111703D01*
X101375551Y-61121997D01*
X101375551Y-61121998D01*
X102094276Y-61840723D01*
X102010793Y-61904782D01*
X101802242Y-62113333D01*
X101740389Y-62193941D01*
X101024820Y-61478372D01*
X101024819Y-61478373D01*
X100900931Y-61624225D01*
X100900923Y-61624235D01*
X100702547Y-61916817D01*
X100702546Y-61916820D01*
X100536963Y-62229142D01*
X100536954Y-62229160D01*
X100406111Y-62557552D01*
X100406109Y-62557558D01*
X100311544Y-62898153D01*
X100311538Y-62898179D01*
X100254351Y-63246999D01*
X100254350Y-63247016D01*
X100235212Y-63599997D01*
X87622622Y-63599997D01*
X87640459Y-63536876D01*
X87651741Y-63521644D01*
X87655567Y-63517229D01*
X87715338Y-63386352D01*
X87735023Y-63319313D01*
X87735024Y-63319309D01*
X87755500Y-63176893D01*
X87755500Y-57199995D01*
X89295233Y-57199995D01*
X89295233Y-57200004D01*
X89314273Y-57454079D01*
X89370968Y-57702477D01*
X89370973Y-57702494D01*
X89464058Y-57939671D01*
X89464057Y-57939671D01*
X89591454Y-58160327D01*
X89591461Y-58160338D01*
X89633452Y-58212991D01*
X89633453Y-58212992D01*
X90435387Y-57411058D01*
X90440889Y-57431591D01*
X90519881Y-57568408D01*
X90631592Y-57680119D01*
X90768409Y-57759111D01*
X90788940Y-57764612D01*
X89986813Y-58566738D01*
X90147616Y-58676371D01*
X90147624Y-58676376D01*
X90377176Y-58786921D01*
X90377174Y-58786921D01*
X90620652Y-58862024D01*
X90620658Y-58862026D01*
X90872595Y-58899999D01*
X90872604Y-58900000D01*
X91127396Y-58900000D01*
X91127404Y-58899999D01*
X91379341Y-58862026D01*
X91379347Y-58862024D01*
X91622824Y-58786921D01*
X91852376Y-58676376D01*
X91852377Y-58676375D01*
X92013185Y-58566738D01*
X91211060Y-57764612D01*
X91231591Y-57759111D01*
X91368408Y-57680119D01*
X91480119Y-57568408D01*
X91559111Y-57431591D01*
X91564612Y-57411059D01*
X92366544Y-58212992D01*
X92366546Y-58212991D01*
X92408544Y-58160330D01*
X92535941Y-57939671D01*
X92629026Y-57702494D01*
X92629031Y-57702477D01*
X92685726Y-57454079D01*
X92704767Y-57200004D01*
X92704767Y-57199995D01*
X92685726Y-56945920D01*
X92629031Y-56697522D01*
X92629026Y-56697505D01*
X92535941Y-56460328D01*
X92535942Y-56460328D01*
X92408545Y-56239672D01*
X92366545Y-56187006D01*
X91564612Y-56988939D01*
X91559111Y-56968409D01*
X91480119Y-56831592D01*
X91368408Y-56719881D01*
X91231591Y-56640889D01*
X91211059Y-56635387D01*
X91871124Y-55975321D01*
X94549500Y-55975321D01*
X94549500Y-58424678D01*
X94564032Y-58497735D01*
X94564033Y-58497739D01*
X94564034Y-58497740D01*
X94619399Y-58580601D01*
X94702260Y-58635966D01*
X94702264Y-58635967D01*
X94775321Y-58650499D01*
X94775324Y-58650500D01*
X94775326Y-58650500D01*
X97224676Y-58650500D01*
X97224677Y-58650499D01*
X97297740Y-58635966D01*
X97380601Y-58580601D01*
X97435966Y-58497740D01*
X97450500Y-58424674D01*
X97450500Y-55975326D01*
X97450500Y-55975323D01*
X97450499Y-55975321D01*
X97435967Y-55902264D01*
X97435966Y-55902260D01*
X97407751Y-55860033D01*
X97380601Y-55819399D01*
X97297740Y-55764034D01*
X97297739Y-55764033D01*
X97297735Y-55764032D01*
X97224677Y-55749500D01*
X97224674Y-55749500D01*
X94775326Y-55749500D01*
X94775323Y-55749500D01*
X94702264Y-55764032D01*
X94702260Y-55764033D01*
X94619399Y-55819399D01*
X94564033Y-55902260D01*
X94564032Y-55902264D01*
X94549500Y-55975321D01*
X91871124Y-55975321D01*
X92013185Y-55833260D01*
X91852384Y-55723628D01*
X91852376Y-55723623D01*
X91622823Y-55613078D01*
X91622825Y-55613078D01*
X91379347Y-55537975D01*
X91379341Y-55537973D01*
X91127404Y-55500000D01*
X90872595Y-55500000D01*
X90620658Y-55537973D01*
X90620652Y-55537975D01*
X90377175Y-55613078D01*
X90147622Y-55723625D01*
X90147609Y-55723632D01*
X89986813Y-55833259D01*
X90788941Y-56635387D01*
X90768409Y-56640889D01*
X90631592Y-56719881D01*
X90519881Y-56831592D01*
X90440889Y-56968409D01*
X90435387Y-56988941D01*
X89633452Y-56187006D01*
X89591457Y-56239667D01*
X89464058Y-56460328D01*
X89370973Y-56697505D01*
X89370968Y-56697522D01*
X89314273Y-56945920D01*
X89295233Y-57199995D01*
X87755500Y-57199995D01*
X87755500Y-55681440D01*
X87755225Y-55666056D01*
X87755179Y-55663438D01*
X87755178Y-55663426D01*
X87755178Y-55663394D01*
X87754862Y-55654548D01*
X87753896Y-55636531D01*
X87723312Y-55495939D01*
X87698895Y-55430475D01*
X87629944Y-55304200D01*
X87528207Y-55202460D01*
X87472274Y-55160588D01*
X87472268Y-55160583D01*
X87472262Y-55160579D01*
X87382403Y-55111514D01*
X87332997Y-55062109D01*
X87318145Y-54993836D01*
X87342561Y-54928371D01*
X87380976Y-54897420D01*
X87380043Y-54895968D01*
X87394064Y-54886957D01*
X87508543Y-54813385D01*
X87561347Y-54767630D01*
X87655567Y-54658896D01*
X87715338Y-54528019D01*
X87735023Y-54460980D01*
X87735024Y-54460976D01*
X87755500Y-54318560D01*
X87755500Y-54183440D01*
X87755203Y-54177908D01*
X87754568Y-54166056D01*
X87752603Y-54129400D01*
X87749769Y-54103042D01*
X87749275Y-54099996D01*
X87741526Y-54052172D01*
X87741114Y-54049630D01*
X87690832Y-53914821D01*
X87657347Y-53853498D01*
X87571123Y-53738317D01*
X87527782Y-53694976D01*
X87510469Y-53673266D01*
X87489966Y-53640636D01*
X87477918Y-53615619D01*
X87465190Y-53579245D01*
X87459011Y-53552175D01*
X87454696Y-53513870D01*
X87454697Y-53486111D01*
X87455471Y-53479243D01*
X87459010Y-53447825D01*
X87465188Y-53420758D01*
X87472453Y-53399996D01*
X87477919Y-53384373D01*
X87489961Y-53359368D01*
X87510470Y-53326729D01*
X87527775Y-53305030D01*
X87571122Y-53261685D01*
X87607288Y-53221422D01*
X87623922Y-53200780D01*
X87655567Y-53156896D01*
X87715338Y-53026019D01*
X87735023Y-52958980D01*
X87735024Y-52958976D01*
X87755500Y-52816560D01*
X87755500Y-52681440D01*
X87755178Y-52663394D01*
X87754862Y-52654548D01*
X87753896Y-52636531D01*
X87723312Y-52495939D01*
X87698895Y-52430475D01*
X87682254Y-52400000D01*
X87652597Y-52345686D01*
X87629944Y-52304200D01*
X87528207Y-52202460D01*
X87472274Y-52160588D01*
X87472268Y-52160583D01*
X87472262Y-52160580D01*
X87345984Y-52091628D01*
X87205400Y-52061047D01*
X87205394Y-52061046D01*
X87205393Y-52061046D01*
X87181831Y-52059361D01*
X87135703Y-52056062D01*
X87135700Y-52056062D01*
X86992189Y-52066326D01*
X86857385Y-52116606D01*
X86796057Y-52150093D01*
X86796056Y-52150093D01*
X86697958Y-52223527D01*
X86689622Y-52229252D01*
X86640637Y-52260032D01*
X86615618Y-52272081D01*
X86579243Y-52284809D01*
X86552172Y-52290987D01*
X86513882Y-52295301D01*
X86486117Y-52295301D01*
X86447825Y-52290987D01*
X86420752Y-52284808D01*
X86384381Y-52272081D01*
X86359365Y-52260034D01*
X86334765Y-52244577D01*
X86334763Y-52244576D01*
X86326731Y-52239529D01*
X86305023Y-52222217D01*
X86277781Y-52194975D01*
X86260467Y-52173264D01*
X86252682Y-52160874D01*
X86252681Y-52160873D01*
X86252680Y-52160871D01*
X86239960Y-52140627D01*
X86227919Y-52115623D01*
X86215189Y-52079242D01*
X86209012Y-52052175D01*
X86204697Y-52013875D01*
X86204697Y-51986111D01*
X86209010Y-51947825D01*
X86215189Y-51920756D01*
X86227917Y-51884382D01*
X86239965Y-51859364D01*
X86266998Y-51816343D01*
X86292157Y-51771364D01*
X86303345Y-51748726D01*
X86323797Y-51701411D01*
X86354380Y-51560819D01*
X86359364Y-51491127D01*
X86349100Y-51347616D01*
X86298818Y-51212807D01*
X86265333Y-51151484D01*
X86179109Y-51036303D01*
X86137782Y-50994976D01*
X86120469Y-50973266D01*
X86099966Y-50940636D01*
X86087918Y-50915619D01*
X86075190Y-50879245D01*
X86069011Y-50852175D01*
X86064696Y-50813870D01*
X86064697Y-50786111D01*
X86069010Y-50747829D01*
X86075188Y-50720758D01*
X86087919Y-50684373D01*
X86099961Y-50659368D01*
X86120470Y-50626729D01*
X86137771Y-50605034D01*
X86173181Y-50569626D01*
X86185692Y-50556661D01*
X86191724Y-50550183D01*
X86203805Y-50536735D01*
X86281592Y-50415695D01*
X86310439Y-50352528D01*
X86310614Y-50352148D01*
X86310617Y-50352139D01*
X86310619Y-50352136D01*
X86351153Y-50214083D01*
X86351152Y-50124499D01*
X86370836Y-50057462D01*
X86423639Y-50011706D01*
X86475152Y-50000500D01*
X103434108Y-50000500D01*
X103497294Y-50000500D01*
X103502702Y-50000617D01*
G37*
%TD.AperFunction*%
%TA.AperFunction,Conductor*%
G36*
X62772659Y-53742760D02*
G01*
X62802438Y-53805966D01*
X62803749Y-53831561D01*
X62794922Y-53999993D01*
X62815219Y-54387287D01*
X62875886Y-54770323D01*
X62875887Y-54770330D01*
X62976262Y-55144936D01*
X63115244Y-55506994D01*
X63291310Y-55852543D01*
X63502531Y-56177793D01*
X63711095Y-56435350D01*
X63711096Y-56435350D01*
X65205747Y-54940698D01*
X65279588Y-55042330D01*
X65457670Y-55220412D01*
X65559300Y-55294251D01*
X64064648Y-56788903D01*
X64064649Y-56788904D01*
X64322206Y-56997468D01*
X64647456Y-57208689D01*
X64993005Y-57384755D01*
X65355063Y-57523737D01*
X65729669Y-57624112D01*
X65729676Y-57624113D01*
X66112712Y-57684780D01*
X66499999Y-57705078D01*
X66500001Y-57705078D01*
X66887287Y-57684780D01*
X67270323Y-57624113D01*
X67270330Y-57624112D01*
X67644936Y-57523737D01*
X68006994Y-57384755D01*
X68352543Y-57208689D01*
X68677783Y-56997476D01*
X68677785Y-56997475D01*
X68935349Y-56788902D01*
X67440698Y-55294251D01*
X67542330Y-55220412D01*
X67720412Y-55042330D01*
X67794251Y-54940698D01*
X69288902Y-56435349D01*
X69497475Y-56177785D01*
X69497476Y-56177783D01*
X69708691Y-55852541D01*
X69708692Y-55852538D01*
X69760015Y-55751812D01*
X69807989Y-55701015D01*
X69875810Y-55684220D01*
X69941945Y-55706757D01*
X69985397Y-55761472D01*
X69994500Y-55808106D01*
X69994500Y-56204313D01*
X70011503Y-56334315D01*
X70011504Y-56334322D01*
X70027905Y-56395948D01*
X70027909Y-56395961D01*
X70051822Y-56454112D01*
X70059113Y-56523600D01*
X70049935Y-56552781D01*
X70034664Y-56586219D01*
X70014976Y-56653267D01*
X70008951Y-56695173D01*
X69995176Y-56790987D01*
X69994500Y-56795686D01*
X69994500Y-60370500D01*
X69974815Y-60437539D01*
X69922011Y-60483294D01*
X69870500Y-60494500D01*
X69124000Y-60494500D01*
X69123991Y-60494500D01*
X69123990Y-60494501D01*
X69016549Y-60506052D01*
X69016537Y-60506054D01*
X68965027Y-60517260D01*
X68862502Y-60551383D01*
X68862496Y-60551386D01*
X68741462Y-60629171D01*
X68741451Y-60629179D01*
X68688653Y-60674928D01*
X68688651Y-60674930D01*
X68658269Y-60709994D01*
X68658268Y-60709995D01*
X68594435Y-60783660D01*
X68594430Y-60783668D01*
X68534664Y-60914534D01*
X68514976Y-60981582D01*
X68494500Y-61124001D01*
X68494500Y-61226653D01*
X68474815Y-61293692D01*
X68422011Y-61339447D01*
X68352853Y-61349391D01*
X68310519Y-61335181D01*
X68169102Y-61257023D01*
X68169098Y-61257021D01*
X67905475Y-61147826D01*
X67842184Y-61121610D01*
X67842180Y-61121608D01*
X67842178Y-61121608D01*
X67502162Y-61023651D01*
X67502153Y-61023649D01*
X67153307Y-60964378D01*
X67153295Y-60964376D01*
X66800000Y-60944536D01*
X66446704Y-60964376D01*
X66446692Y-60964378D01*
X66097846Y-61023649D01*
X66097837Y-61023651D01*
X65757821Y-61121608D01*
X65430901Y-61257021D01*
X65430897Y-61257023D01*
X65121187Y-61428194D01*
X65121182Y-61428197D01*
X64832603Y-61632956D01*
X64832595Y-61632962D01*
X64568751Y-61868748D01*
X64568748Y-61868751D01*
X64332962Y-62132595D01*
X64332956Y-62132603D01*
X64128197Y-62421182D01*
X64128194Y-62421187D01*
X63957023Y-62730897D01*
X63957021Y-62730901D01*
X63821608Y-63057821D01*
X63723651Y-63397837D01*
X63723649Y-63397846D01*
X63664378Y-63746692D01*
X63664376Y-63746704D01*
X63644536Y-64100000D01*
X63664376Y-64453295D01*
X63664378Y-64453307D01*
X63723649Y-64802153D01*
X63723651Y-64802162D01*
X63821608Y-65142178D01*
X63821610Y-65142184D01*
X63856170Y-65225619D01*
X63957021Y-65469098D01*
X63957023Y-65469102D01*
X64128194Y-65778812D01*
X64128197Y-65778817D01*
X64332956Y-66067396D01*
X64332962Y-66067404D01*
X64568748Y-66331248D01*
X64568751Y-66331251D01*
X64832595Y-66567037D01*
X64832603Y-66567043D01*
X65121182Y-66771802D01*
X65121187Y-66771805D01*
X65121190Y-66771806D01*
X65121192Y-66771808D01*
X65430895Y-66942975D01*
X65430897Y-66942976D01*
X65430901Y-66942978D01*
X65537013Y-66986930D01*
X65757816Y-67078390D01*
X66097843Y-67176350D01*
X66446700Y-67235623D01*
X66800000Y-67255464D01*
X67153300Y-67235623D01*
X67502157Y-67176350D01*
X67842184Y-67078390D01*
X68169105Y-66942975D01*
X68478808Y-66771808D01*
X68478813Y-66771804D01*
X68478817Y-66771802D01*
X68569786Y-66707255D01*
X68767400Y-66567041D01*
X69031250Y-66331250D01*
X69031253Y-66331247D01*
X69031255Y-66331245D01*
X69136831Y-66213104D01*
X69196180Y-66176233D01*
X69266041Y-66177301D01*
X69324235Y-66215970D01*
X69333606Y-66228690D01*
X69352788Y-66258537D01*
X69352796Y-66258548D01*
X69398540Y-66311340D01*
X69398543Y-66311343D01*
X69398547Y-66311347D01*
X69507281Y-66405567D01*
X69638158Y-66465338D01*
X69705197Y-66485023D01*
X69705201Y-66485024D01*
X69847617Y-66505500D01*
X69847620Y-66505500D01*
X71318579Y-66505500D01*
X71336561Y-66505179D01*
X71336571Y-66505178D01*
X71336606Y-66505178D01*
X71345452Y-66504862D01*
X71363469Y-66503896D01*
X71363476Y-66503894D01*
X71363857Y-66503874D01*
X71431855Y-66519939D01*
X71480373Y-66570216D01*
X71494500Y-66627696D01*
X71494500Y-75370500D01*
X71474815Y-75437539D01*
X71422011Y-75483294D01*
X71370500Y-75494500D01*
X71295685Y-75494500D01*
X71165685Y-75511502D01*
X71165678Y-75511503D01*
X71104045Y-75527905D01*
X71045887Y-75551822D01*
X70976398Y-75559113D01*
X70947214Y-75549934D01*
X70913777Y-75534663D01*
X70903434Y-75531626D01*
X70846735Y-75514977D01*
X70846737Y-75514977D01*
X70846732Y-75514976D01*
X70784662Y-75506052D01*
X70704315Y-75494500D01*
X69764497Y-75494500D01*
X69697458Y-75474815D01*
X69651703Y-75422011D01*
X69641759Y-75352853D01*
X69670784Y-75289297D01*
X69689004Y-75272129D01*
X69792621Y-75192621D01*
X69880861Y-75077625D01*
X69936330Y-74943709D01*
X69955250Y-74800000D01*
X69936330Y-74656291D01*
X69890517Y-74545686D01*
X69880862Y-74522377D01*
X69880861Y-74522376D01*
X69880861Y-74522375D01*
X69792621Y-74407379D01*
X69677625Y-74319139D01*
X69677624Y-74319138D01*
X69677622Y-74319137D01*
X69543712Y-74263671D01*
X69543710Y-74263670D01*
X69543709Y-74263670D01*
X69471854Y-74254210D01*
X69400001Y-74244750D01*
X69399999Y-74244750D01*
X69256291Y-74263670D01*
X69256287Y-74263671D01*
X69122377Y-74319137D01*
X69007379Y-74407379D01*
X68919137Y-74522377D01*
X68863671Y-74656287D01*
X68863670Y-74656291D01*
X68848023Y-74775143D01*
X68844750Y-74800000D01*
X68863661Y-74943644D01*
X68863670Y-74943708D01*
X68863671Y-74943712D01*
X68919137Y-75077622D01*
X68919138Y-75077624D01*
X68919139Y-75077625D01*
X69007379Y-75192621D01*
X69122375Y-75280861D01*
X69122377Y-75280861D01*
X69128823Y-75285808D01*
X69127737Y-75287222D01*
X69169027Y-75330525D01*
X69182250Y-75399132D01*
X69156282Y-75463997D01*
X69099367Y-75504525D01*
X69074894Y-75510298D01*
X69065682Y-75511502D01*
X69065678Y-75511503D01*
X69004045Y-75527905D01*
X68945887Y-75551822D01*
X68876398Y-75559113D01*
X68847214Y-75549934D01*
X68813777Y-75534663D01*
X68803434Y-75531626D01*
X68746735Y-75514977D01*
X68746737Y-75514977D01*
X68746732Y-75514976D01*
X68684662Y-75506052D01*
X68604315Y-75494500D01*
X68216378Y-75494500D01*
X68136786Y-75500805D01*
X68136775Y-75500806D01*
X68098224Y-75506953D01*
X68098217Y-75506954D01*
X68020628Y-75525708D01*
X68020626Y-75525709D01*
X67891646Y-75589453D01*
X67891633Y-75589461D01*
X67848009Y-75619421D01*
X67781603Y-75641147D01*
X67713993Y-75623522D01*
X67699287Y-75612040D01*
X67699068Y-75612327D01*
X67692622Y-75607381D01*
X67692621Y-75607379D01*
X67577625Y-75519139D01*
X67577624Y-75519138D01*
X67577622Y-75519137D01*
X67443712Y-75463671D01*
X67443710Y-75463670D01*
X67443709Y-75463670D01*
X67371854Y-75454210D01*
X67300001Y-75444750D01*
X67299999Y-75444750D01*
X67156291Y-75463670D01*
X67156287Y-75463671D01*
X67022377Y-75519137D01*
X66984999Y-75547819D01*
X66907379Y-75607379D01*
X66907377Y-75607381D01*
X66900932Y-75612327D01*
X66899323Y-75610230D01*
X66849448Y-75637451D01*
X66779757Y-75632451D01*
X66741913Y-75609992D01*
X66723958Y-75594433D01*
X66723957Y-75594432D01*
X66723953Y-75594430D01*
X66593087Y-75534664D01*
X66593082Y-75534662D01*
X66593081Y-75534662D01*
X66526042Y-75514977D01*
X66526044Y-75514977D01*
X66526039Y-75514976D01*
X66463969Y-75506052D01*
X66383622Y-75494500D01*
X63824000Y-75494500D01*
X63823991Y-75494500D01*
X63823990Y-75494501D01*
X63716549Y-75506052D01*
X63716537Y-75506054D01*
X63665027Y-75517260D01*
X63562502Y-75551383D01*
X63562496Y-75551386D01*
X63441462Y-75629171D01*
X63441451Y-75629179D01*
X63388659Y-75674923D01*
X63294433Y-75783664D01*
X63294430Y-75783668D01*
X63234664Y-75914534D01*
X63214976Y-75981582D01*
X63210332Y-76013883D01*
X63194500Y-76124000D01*
X63194500Y-76999996D01*
X63194500Y-77299996D01*
X63194500Y-78199996D01*
X63194500Y-78899996D01*
X63194500Y-79199996D01*
X63194500Y-80376000D01*
X63194501Y-80376009D01*
X63206052Y-80483450D01*
X63206054Y-80483462D01*
X63217260Y-80534972D01*
X63251383Y-80637497D01*
X63251386Y-80637503D01*
X63329171Y-80758537D01*
X63329179Y-80758548D01*
X63374923Y-80811340D01*
X63374926Y-80811343D01*
X63374930Y-80811347D01*
X63483664Y-80905567D01*
X63483667Y-80905568D01*
X63483668Y-80905569D01*
X63577925Y-80948616D01*
X63614541Y-80965338D01*
X63681580Y-80985023D01*
X63681584Y-80985024D01*
X63824000Y-81005500D01*
X64691893Y-81005500D01*
X64758932Y-81025185D01*
X64804687Y-81077989D01*
X64814631Y-81147147D01*
X64785606Y-81210703D01*
X64748188Y-81239985D01*
X64647456Y-81291310D01*
X64322206Y-81502531D01*
X64064648Y-81711095D01*
X64064648Y-81711096D01*
X65559301Y-83205748D01*
X65457670Y-83279588D01*
X65279588Y-83457670D01*
X65205748Y-83559301D01*
X63711096Y-82064648D01*
X63711095Y-82064648D01*
X63502531Y-82322206D01*
X63291310Y-82647456D01*
X63115244Y-82993005D01*
X62976262Y-83355063D01*
X62875887Y-83729669D01*
X62875886Y-83729676D01*
X62815219Y-84112712D01*
X62794922Y-84499999D01*
X62794922Y-84500000D01*
X62815219Y-84887287D01*
X62829236Y-84975787D01*
X62820281Y-85045081D01*
X62775285Y-85098533D01*
X62708533Y-85119172D01*
X62641220Y-85100447D01*
X62594716Y-85048302D01*
X62585703Y-85022026D01*
X62583931Y-85014032D01*
X62569969Y-84951060D01*
X62568098Y-84940449D01*
X62518265Y-84561971D01*
X62517325Y-84551218D01*
X62500618Y-84168671D01*
X62500500Y-84163261D01*
X62500500Y-71300000D01*
X63644536Y-71300000D01*
X63664376Y-71653295D01*
X63664378Y-71653307D01*
X63723649Y-72002153D01*
X63723651Y-72002162D01*
X63821608Y-72342178D01*
X63957021Y-72669098D01*
X63957023Y-72669102D01*
X64128194Y-72978812D01*
X64128197Y-72978817D01*
X64332956Y-73267396D01*
X64332962Y-73267404D01*
X64568748Y-73531248D01*
X64568751Y-73531251D01*
X64832595Y-73767037D01*
X64832603Y-73767043D01*
X65121182Y-73971802D01*
X65121187Y-73971805D01*
X65121190Y-73971806D01*
X65121192Y-73971808D01*
X65369440Y-74109010D01*
X65430897Y-74142976D01*
X65430901Y-74142978D01*
X65514924Y-74177781D01*
X65757816Y-74278390D01*
X66097843Y-74376350D01*
X66446700Y-74435623D01*
X66800000Y-74455464D01*
X67153300Y-74435623D01*
X67502157Y-74376350D01*
X67842184Y-74278390D01*
X68169105Y-74142975D01*
X68478808Y-73971808D01*
X68478813Y-73971804D01*
X68478817Y-73971802D01*
X68569786Y-73907255D01*
X68767400Y-73767041D01*
X69031250Y-73531250D01*
X69267041Y-73267400D01*
X69471808Y-72978808D01*
X69642975Y-72669105D01*
X69778390Y-72342184D01*
X69876350Y-72002157D01*
X69935623Y-71653300D01*
X69955464Y-71300000D01*
X69935623Y-70946700D01*
X69876350Y-70597843D01*
X69778390Y-70257816D01*
X69673795Y-70005301D01*
X69642978Y-69930901D01*
X69642976Y-69930897D01*
X69634294Y-69915188D01*
X69471808Y-69621192D01*
X69471806Y-69621190D01*
X69471805Y-69621187D01*
X69471802Y-69621182D01*
X69267043Y-69332603D01*
X69267037Y-69332595D01*
X69031251Y-69068751D01*
X69031248Y-69068748D01*
X68767404Y-68832962D01*
X68767396Y-68832956D01*
X68478817Y-68628197D01*
X68478812Y-68628194D01*
X68169102Y-68457023D01*
X68169098Y-68457021D01*
X67942221Y-68363046D01*
X67842184Y-68321610D01*
X67842180Y-68321608D01*
X67842178Y-68321608D01*
X67502162Y-68223651D01*
X67502153Y-68223649D01*
X67153307Y-68164378D01*
X67153295Y-68164376D01*
X66800000Y-68144536D01*
X66446704Y-68164376D01*
X66446692Y-68164378D01*
X66097846Y-68223649D01*
X66097837Y-68223651D01*
X65757821Y-68321608D01*
X65430901Y-68457021D01*
X65430897Y-68457023D01*
X65121187Y-68628194D01*
X65121182Y-68628197D01*
X64832603Y-68832956D01*
X64832595Y-68832962D01*
X64568751Y-69068748D01*
X64568748Y-69068751D01*
X64332962Y-69332595D01*
X64332956Y-69332603D01*
X64128197Y-69621182D01*
X64128194Y-69621187D01*
X63957023Y-69930897D01*
X63957021Y-69930901D01*
X63821608Y-70257821D01*
X63723651Y-70597837D01*
X63723649Y-70597846D01*
X63664378Y-70946692D01*
X63664376Y-70946704D01*
X63644536Y-71300000D01*
X62500500Y-71300000D01*
X62500500Y-54502706D01*
X62500618Y-54497297D01*
X62503377Y-54434108D01*
X62517386Y-54113226D01*
X62518325Y-54102497D01*
X62556981Y-53808883D01*
X62585247Y-53744990D01*
X62643571Y-53706519D01*
X62713436Y-53705688D01*
X62772659Y-53742760D01*
G37*
%TD.AperFunction*%
%TA.AperFunction,Conductor*%
G36*
X75852173Y-78909010D02*
G01*
X75879239Y-78915188D01*
X75915623Y-78927919D01*
X75940636Y-78939964D01*
X75973264Y-78960466D01*
X75994972Y-78977778D01*
X76022216Y-79005022D01*
X76039528Y-79026729D01*
X76060036Y-79059368D01*
X76072081Y-79084379D01*
X76075008Y-79092743D01*
X76075008Y-79092745D01*
X76084810Y-79120757D01*
X76084810Y-79120758D01*
X76090987Y-79147825D01*
X76095301Y-79186112D01*
X76095301Y-79213880D01*
X76090986Y-79252175D01*
X76084808Y-79279244D01*
X76072081Y-79315617D01*
X76060032Y-79340636D01*
X76039529Y-79373266D01*
X76022217Y-79394975D01*
X75994974Y-79422218D01*
X75973266Y-79439530D01*
X75923332Y-79470906D01*
X75923309Y-79470912D01*
X75873449Y-79502250D01*
X75873435Y-79502259D01*
X75865969Y-79506950D01*
X75798732Y-79525949D01*
X75734020Y-79506944D01*
X75729068Y-79503832D01*
X75729046Y-79503817D01*
X75676589Y-79470857D01*
X75676587Y-79470856D01*
X75633245Y-79443622D01*
X75633237Y-79443617D01*
X75632981Y-79443456D01*
X75626727Y-79439526D01*
X75605022Y-79422216D01*
X75577781Y-79394975D01*
X75560472Y-79373272D01*
X75539961Y-79340630D01*
X75527919Y-79315624D01*
X75515187Y-79279238D01*
X75509011Y-79252175D01*
X75504696Y-79213870D01*
X75504697Y-79186111D01*
X75509010Y-79147829D01*
X75515188Y-79120758D01*
X75527919Y-79084373D01*
X75539966Y-79059361D01*
X75560469Y-79026731D01*
X75577777Y-79005026D01*
X75605026Y-78977777D01*
X75626731Y-78960469D01*
X75659361Y-78939966D01*
X75684373Y-78927919D01*
X75720761Y-78915186D01*
X75747822Y-78909010D01*
X75786118Y-78904696D01*
X75813880Y-78904696D01*
X75852173Y-78909010D01*
G37*
%TD.AperFunction*%
%TA.AperFunction,Conductor*%
G36*
X65352173Y-77909010D02*
G01*
X65379237Y-77915187D01*
X65415620Y-77927918D01*
X65440636Y-77939966D01*
X65473266Y-77960469D01*
X65494975Y-77977781D01*
X65522217Y-78005023D01*
X65539529Y-78026732D01*
X65560032Y-78059362D01*
X65572081Y-78084380D01*
X65584809Y-78120755D01*
X65590987Y-78147826D01*
X65595301Y-78186116D01*
X65595301Y-78213882D01*
X65590987Y-78252172D01*
X65584809Y-78279243D01*
X65572081Y-78315618D01*
X65560032Y-78340636D01*
X65539529Y-78373266D01*
X65522217Y-78394975D01*
X65494976Y-78422216D01*
X65473267Y-78439529D01*
X65440632Y-78460035D01*
X65415615Y-78472082D01*
X65379245Y-78484809D01*
X65352173Y-78490987D01*
X65313881Y-78495301D01*
X65286116Y-78495301D01*
X65247826Y-78490987D01*
X65220755Y-78484809D01*
X65184380Y-78472081D01*
X65159362Y-78460032D01*
X65126732Y-78439529D01*
X65105023Y-78422217D01*
X65077781Y-78394975D01*
X65060472Y-78373272D01*
X65039961Y-78340630D01*
X65027919Y-78315624D01*
X65015187Y-78279238D01*
X65009011Y-78252175D01*
X65004696Y-78213870D01*
X65004697Y-78186111D01*
X65009010Y-78147829D01*
X65015186Y-78120761D01*
X65027919Y-78084373D01*
X65039966Y-78059361D01*
X65060469Y-78026731D01*
X65077777Y-78005026D01*
X65105026Y-77977777D01*
X65126731Y-77960469D01*
X65159361Y-77939966D01*
X65184373Y-77927919D01*
X65220761Y-77915186D01*
X65247822Y-77909010D01*
X65286118Y-77904696D01*
X65313880Y-77904696D01*
X65352173Y-77909010D01*
G37*
%TD.AperFunction*%
%TA.AperFunction,Conductor*%
G36*
X75452173Y-77009010D02*
G01*
X75479239Y-77015188D01*
X75515620Y-77027918D01*
X75540636Y-77039965D01*
X75560649Y-77052540D01*
X75563175Y-77054128D01*
X75563189Y-77054138D01*
X75573265Y-77060469D01*
X75594977Y-77077783D01*
X75622217Y-77105023D01*
X75639529Y-77126732D01*
X75660032Y-77159362D01*
X75672081Y-77184380D01*
X75684809Y-77220755D01*
X75690987Y-77247826D01*
X75695301Y-77286116D01*
X75695301Y-77313882D01*
X75690987Y-77352172D01*
X75684809Y-77379243D01*
X75672081Y-77415618D01*
X75660032Y-77440636D01*
X75639529Y-77473266D01*
X75622217Y-77494975D01*
X75594975Y-77522217D01*
X75573266Y-77539529D01*
X75540636Y-77560032D01*
X75515618Y-77572081D01*
X75479243Y-77584809D01*
X75452172Y-77590987D01*
X75413882Y-77595301D01*
X75386117Y-77595301D01*
X75347825Y-77590987D01*
X75320756Y-77584809D01*
X75284379Y-77572080D01*
X75259369Y-77560037D01*
X75242202Y-77549251D01*
X75242197Y-77549247D01*
X75226735Y-77539532D01*
X75205024Y-77522218D01*
X75177781Y-77494975D01*
X75160472Y-77473272D01*
X75139961Y-77440630D01*
X75127919Y-77415624D01*
X75115187Y-77379238D01*
X75109011Y-77352175D01*
X75104696Y-77313870D01*
X75104697Y-77286111D01*
X75109010Y-77247829D01*
X75115186Y-77220761D01*
X75127919Y-77184373D01*
X75139966Y-77159361D01*
X75160469Y-77126731D01*
X75177777Y-77105026D01*
X75205026Y-77077777D01*
X75226731Y-77060469D01*
X75259361Y-77039966D01*
X75284373Y-77027919D01*
X75320761Y-77015186D01*
X75347822Y-77009010D01*
X75386118Y-77004696D01*
X75413880Y-77004696D01*
X75452173Y-77009010D01*
G37*
%TD.AperFunction*%
%TA.AperFunction,Conductor*%
G36*
X73255021Y-75649562D02*
G01*
X73305165Y-75683809D01*
X73313702Y-75693461D01*
X73316395Y-75699201D01*
X73334349Y-75717155D01*
X73339549Y-75722682D01*
X73343723Y-75727402D01*
X73349833Y-75732639D01*
X73422218Y-75805024D01*
X73439530Y-75826732D01*
X73456860Y-75854312D01*
X73456861Y-75854313D01*
X73460031Y-75859358D01*
X73472079Y-75884376D01*
X73484809Y-75920757D01*
X73490987Y-75947825D01*
X73492272Y-75959231D01*
X73495302Y-75986119D01*
X73495302Y-76013883D01*
X73490988Y-76052172D01*
X73484810Y-76079242D01*
X73472082Y-76115616D01*
X73460034Y-76140634D01*
X73439529Y-76173267D01*
X73422217Y-76194975D01*
X73394975Y-76222217D01*
X73373266Y-76239529D01*
X73340636Y-76260032D01*
X73315618Y-76272081D01*
X73279243Y-76284809D01*
X73252172Y-76290987D01*
X73213882Y-76295301D01*
X73186116Y-76295301D01*
X73147826Y-76290987D01*
X73120755Y-76284809D01*
X73084380Y-76272081D01*
X73059362Y-76260032D01*
X73026732Y-76239529D01*
X73005023Y-76222217D01*
X72977782Y-76194976D01*
X72960471Y-76173269D01*
X72939966Y-76140637D01*
X72927916Y-76115616D01*
X72915189Y-76079243D01*
X72909011Y-76052175D01*
X72904696Y-76013870D01*
X72904697Y-75986111D01*
X72905207Y-75981584D01*
X72909010Y-75947825D01*
X72915186Y-75920761D01*
X72927919Y-75884373D01*
X72939966Y-75859361D01*
X72960469Y-75826731D01*
X72977777Y-75805026D01*
X73007995Y-75774808D01*
X73021865Y-75762852D01*
X73051859Y-75740636D01*
X73077958Y-75721305D01*
X73106525Y-75696550D01*
X73124155Y-75678737D01*
X73185305Y-75644937D01*
X73255021Y-75649562D01*
G37*
%TD.AperFunction*%
%TA.AperFunction,Conductor*%
G36*
X80552173Y-75309010D02*
G01*
X80579237Y-75315187D01*
X80615620Y-75327918D01*
X80640636Y-75339966D01*
X80673266Y-75360469D01*
X80694975Y-75377781D01*
X80722214Y-75405020D01*
X80739528Y-75426731D01*
X80760036Y-75459371D01*
X80772082Y-75484384D01*
X80784807Y-75520748D01*
X80790986Y-75547819D01*
X80795301Y-75586110D01*
X80795301Y-75613880D01*
X80790986Y-75652175D01*
X80784808Y-75679244D01*
X80772081Y-75715617D01*
X80760032Y-75740636D01*
X80739529Y-75773266D01*
X80722217Y-75794975D01*
X80694975Y-75822217D01*
X80673266Y-75839529D01*
X80640636Y-75860032D01*
X80615618Y-75872081D01*
X80579243Y-75884809D01*
X80552172Y-75890987D01*
X80513882Y-75895301D01*
X80486116Y-75895301D01*
X80447826Y-75890987D01*
X80420756Y-75884809D01*
X80385290Y-75872399D01*
X80385288Y-75872399D01*
X80385262Y-75872390D01*
X80384405Y-75872090D01*
X80359364Y-75860034D01*
X80326731Y-75839529D01*
X80305023Y-75822217D01*
X80277782Y-75794976D01*
X80260469Y-75773267D01*
X80257098Y-75767902D01*
X80239961Y-75740629D01*
X80227919Y-75715623D01*
X80215188Y-75679240D01*
X80209012Y-75652175D01*
X80204697Y-75613875D01*
X80204697Y-75586111D01*
X80204697Y-75586110D01*
X80209012Y-75547819D01*
X80215186Y-75520761D01*
X80227919Y-75484373D01*
X80239966Y-75459361D01*
X80260469Y-75426731D01*
X80277777Y-75405026D01*
X80305026Y-75377777D01*
X80326731Y-75360469D01*
X80359361Y-75339966D01*
X80384373Y-75327919D01*
X80420761Y-75315186D01*
X80447822Y-75309010D01*
X80486118Y-75304696D01*
X80513880Y-75304696D01*
X80552173Y-75309010D01*
G37*
%TD.AperFunction*%
%TA.AperFunction,Conductor*%
G36*
X73302173Y-74209010D02*
G01*
X73329237Y-74215187D01*
X73365620Y-74227918D01*
X73390636Y-74239966D01*
X73423266Y-74260469D01*
X73444975Y-74277781D01*
X73472217Y-74305023D01*
X73489530Y-74326733D01*
X73510033Y-74359364D01*
X73522080Y-74384380D01*
X73527543Y-74399993D01*
X73527544Y-74399993D01*
X73527545Y-74399996D01*
X73530128Y-74407379D01*
X73534809Y-74420754D01*
X73539822Y-74442721D01*
X73539957Y-74442695D01*
X73539958Y-74442700D01*
X73540262Y-74444654D01*
X73540989Y-74447836D01*
X73541583Y-74453120D01*
X73541586Y-74453133D01*
X73541976Y-74456592D01*
X73541976Y-74456593D01*
X73545302Y-74486115D01*
X73545302Y-74513881D01*
X73540987Y-74552174D01*
X73534809Y-74579243D01*
X73522081Y-74615618D01*
X73510032Y-74640636D01*
X73489529Y-74673266D01*
X73472217Y-74694975D01*
X73442005Y-74725187D01*
X73428129Y-74737149D01*
X73372057Y-74778680D01*
X73372044Y-74778691D01*
X73343471Y-74803450D01*
X73325835Y-74821267D01*
X73264683Y-74855063D01*
X73194967Y-74850432D01*
X73144835Y-74816192D01*
X73136308Y-74806553D01*
X73133610Y-74800803D01*
X73115604Y-74782797D01*
X73110409Y-74777275D01*
X73106259Y-74772584D01*
X73100148Y-74767342D01*
X73064901Y-74732095D01*
X73027777Y-74694971D01*
X73010469Y-74673266D01*
X72989966Y-74640636D01*
X72977918Y-74615619D01*
X72965190Y-74579245D01*
X72959011Y-74552174D01*
X72954696Y-74513870D01*
X72954697Y-74486111D01*
X72955471Y-74479243D01*
X72959010Y-74447825D01*
X72965186Y-74420761D01*
X72977919Y-74384373D01*
X72989966Y-74359361D01*
X73010469Y-74326731D01*
X73027777Y-74305026D01*
X73055026Y-74277777D01*
X73076731Y-74260469D01*
X73109361Y-74239966D01*
X73134373Y-74227919D01*
X73170761Y-74215186D01*
X73197822Y-74209010D01*
X73236118Y-74204696D01*
X73263880Y-74204696D01*
X73302173Y-74209010D01*
G37*
%TD.AperFunction*%
%TA.AperFunction,Conductor*%
G36*
X78652173Y-74109010D02*
G01*
X78679237Y-74115187D01*
X78715620Y-74127918D01*
X78740636Y-74139966D01*
X78773266Y-74160469D01*
X78794975Y-74177781D01*
X78822217Y-74205023D01*
X78839530Y-74226733D01*
X78860033Y-74259364D01*
X78872080Y-74284380D01*
X78884808Y-74320754D01*
X78890987Y-74347826D01*
X78895301Y-74386116D01*
X78895301Y-74413882D01*
X78890987Y-74452172D01*
X78884809Y-74479243D01*
X78872081Y-74515618D01*
X78860032Y-74540636D01*
X78839529Y-74573266D01*
X78822217Y-74594975D01*
X78794975Y-74622217D01*
X78773266Y-74639529D01*
X78740636Y-74660032D01*
X78715618Y-74672081D01*
X78679243Y-74684809D01*
X78652172Y-74690987D01*
X78613882Y-74695301D01*
X78586117Y-74695301D01*
X78547825Y-74690987D01*
X78520760Y-74684811D01*
X78517247Y-74683582D01*
X78517245Y-74683581D01*
X78517241Y-74683580D01*
X78484380Y-74672081D01*
X78459370Y-74660037D01*
X78442204Y-74649252D01*
X78442200Y-74649249D01*
X78426735Y-74639532D01*
X78405024Y-74622218D01*
X78377781Y-74594975D01*
X78360468Y-74573266D01*
X78343139Y-74545687D01*
X78343139Y-74545686D01*
X78339968Y-74540640D01*
X78327918Y-74515619D01*
X78315190Y-74479245D01*
X78309011Y-74452175D01*
X78304696Y-74413870D01*
X78304697Y-74386111D01*
X78306378Y-74371192D01*
X78309010Y-74347825D01*
X78315186Y-74320761D01*
X78327919Y-74284373D01*
X78339966Y-74259361D01*
X78360469Y-74226731D01*
X78377777Y-74205026D01*
X78405026Y-74177777D01*
X78426731Y-74160469D01*
X78459361Y-74139966D01*
X78484373Y-74127919D01*
X78520761Y-74115186D01*
X78547822Y-74109010D01*
X78586118Y-74104696D01*
X78613880Y-74104696D01*
X78652173Y-74109010D01*
G37*
%TD.AperFunction*%
%TA.AperFunction,Conductor*%
G36*
X73552173Y-69909010D02*
G01*
X73579237Y-69915187D01*
X73615620Y-69927918D01*
X73640636Y-69939966D01*
X73673266Y-69960469D01*
X73694975Y-69977781D01*
X73722216Y-70005022D01*
X73739529Y-70026732D01*
X73760032Y-70059363D01*
X73772076Y-70084369D01*
X73776742Y-70097700D01*
X73776745Y-70097708D01*
X73781045Y-70109996D01*
X73781045Y-70109998D01*
X73784808Y-70120752D01*
X73790987Y-70147825D01*
X73795301Y-70186117D01*
X73795301Y-70213880D01*
X73794249Y-70223232D01*
X73790988Y-70252174D01*
X73784809Y-70279245D01*
X73772082Y-70315616D01*
X73760034Y-70340634D01*
X73739529Y-70373267D01*
X73722217Y-70394975D01*
X73694975Y-70422217D01*
X73673266Y-70439529D01*
X73640636Y-70460032D01*
X73615618Y-70472081D01*
X73579243Y-70484809D01*
X73552172Y-70490987D01*
X73513882Y-70495301D01*
X73486116Y-70495301D01*
X73447826Y-70490987D01*
X73420756Y-70484809D01*
X73384380Y-70472081D01*
X73359360Y-70460032D01*
X73326732Y-70439530D01*
X73305024Y-70422218D01*
X73277783Y-70394977D01*
X73260470Y-70373267D01*
X73241668Y-70343344D01*
X73241600Y-70343236D01*
X73239977Y-70340653D01*
X73227918Y-70315621D01*
X73215187Y-70279238D01*
X73209011Y-70252174D01*
X73204696Y-70213870D01*
X73204697Y-70186111D01*
X73209010Y-70147829D01*
X73215186Y-70120761D01*
X73227919Y-70084373D01*
X73239966Y-70059361D01*
X73260469Y-70026731D01*
X73277777Y-70005026D01*
X73305026Y-69977777D01*
X73326731Y-69960469D01*
X73359361Y-69939966D01*
X73384373Y-69927919D01*
X73420761Y-69915186D01*
X73447822Y-69909010D01*
X73486118Y-69904696D01*
X73513880Y-69904696D01*
X73552173Y-69909010D01*
G37*
%TD.AperFunction*%
%TA.AperFunction,Conductor*%
G36*
X79392173Y-69419010D02*
G01*
X79419237Y-69425187D01*
X79455620Y-69437918D01*
X79480636Y-69449966D01*
X79513266Y-69470469D01*
X79534975Y-69487781D01*
X79562217Y-69515023D01*
X79579527Y-69536729D01*
X79600036Y-69569369D01*
X79612082Y-69594383D01*
X79624809Y-69630756D01*
X79630988Y-69657827D01*
X79635302Y-69696120D01*
X79635302Y-69723883D01*
X79630989Y-69762170D01*
X79624810Y-69789242D01*
X79612082Y-69825616D01*
X79600034Y-69850634D01*
X79579529Y-69883267D01*
X79562217Y-69904975D01*
X79534975Y-69932217D01*
X79513266Y-69949529D01*
X79480636Y-69970032D01*
X79455618Y-69982081D01*
X79419243Y-69994809D01*
X79392172Y-70000987D01*
X79353882Y-70005301D01*
X79326116Y-70005301D01*
X79287826Y-70000987D01*
X79260756Y-69994809D01*
X79225290Y-69982399D01*
X79225288Y-69982399D01*
X79225262Y-69982390D01*
X79224405Y-69982090D01*
X79199364Y-69970034D01*
X79166731Y-69949529D01*
X79145023Y-69932217D01*
X79117782Y-69904976D01*
X79100469Y-69883266D01*
X79079964Y-69850632D01*
X79067917Y-69825616D01*
X79055191Y-69789248D01*
X79049012Y-69762175D01*
X79044697Y-69723875D01*
X79044697Y-69696111D01*
X79049010Y-69657829D01*
X79049011Y-69657827D01*
X79049010Y-69657825D01*
X79055186Y-69630761D01*
X79067919Y-69594373D01*
X79079966Y-69569361D01*
X79100469Y-69536731D01*
X79117777Y-69515026D01*
X79145026Y-69487777D01*
X79166731Y-69470469D01*
X79199361Y-69449966D01*
X79224373Y-69437919D01*
X79260761Y-69425186D01*
X79287822Y-69419010D01*
X79326118Y-69414696D01*
X79353880Y-69414696D01*
X79392173Y-69419010D01*
G37*
%TD.AperFunction*%
%TA.AperFunction,Conductor*%
G36*
X85752173Y-67709010D02*
G01*
X85779237Y-67715187D01*
X85815620Y-67727918D01*
X85840636Y-67739966D01*
X85873266Y-67760469D01*
X85894975Y-67777781D01*
X85922218Y-67805024D01*
X85939531Y-67826733D01*
X85960032Y-67859360D01*
X85972079Y-67884377D01*
X85978041Y-67901418D01*
X85978047Y-67901431D01*
X85984809Y-67920757D01*
X85990987Y-67947826D01*
X85995301Y-67986116D01*
X85995301Y-68013882D01*
X85990987Y-68052172D01*
X85984809Y-68079243D01*
X85972081Y-68115618D01*
X85960032Y-68140636D01*
X85939529Y-68173266D01*
X85922217Y-68194975D01*
X85894975Y-68222217D01*
X85873266Y-68239529D01*
X85840636Y-68260032D01*
X85815618Y-68272081D01*
X85779243Y-68284809D01*
X85752172Y-68290987D01*
X85713882Y-68295301D01*
X85686117Y-68295301D01*
X85647825Y-68290987D01*
X85620756Y-68284809D01*
X85584376Y-68272079D01*
X85559363Y-68260033D01*
X85526733Y-68239530D01*
X85505024Y-68222218D01*
X85477783Y-68194977D01*
X85460470Y-68173267D01*
X85441668Y-68143344D01*
X85441600Y-68143236D01*
X85439977Y-68140653D01*
X85427917Y-68115618D01*
X85415187Y-68079238D01*
X85409011Y-68052175D01*
X85404696Y-68013870D01*
X85404697Y-67986111D01*
X85409010Y-67947825D01*
X85415186Y-67920761D01*
X85427919Y-67884373D01*
X85439966Y-67859361D01*
X85460469Y-67826731D01*
X85477777Y-67805026D01*
X85505026Y-67777777D01*
X85526731Y-67760469D01*
X85559361Y-67739966D01*
X85584373Y-67727919D01*
X85620761Y-67715186D01*
X85647822Y-67709010D01*
X85686118Y-67704696D01*
X85713880Y-67704696D01*
X85752173Y-67709010D01*
G37*
%TD.AperFunction*%
%TA.AperFunction,Conductor*%
G36*
X76092173Y-65519010D02*
G01*
X76119237Y-65525187D01*
X76155620Y-65537918D01*
X76180636Y-65549966D01*
X76213266Y-65570469D01*
X76234975Y-65587781D01*
X76262215Y-65615021D01*
X76279524Y-65636725D01*
X76300035Y-65669368D01*
X76312082Y-65694383D01*
X76324809Y-65730756D01*
X76330987Y-65757826D01*
X76335301Y-65796116D01*
X76335301Y-65823882D01*
X76330987Y-65862172D01*
X76324809Y-65889243D01*
X76312081Y-65925618D01*
X76300032Y-65950636D01*
X76279529Y-65983266D01*
X76262217Y-66004975D01*
X76234975Y-66032217D01*
X76213266Y-66049529D01*
X76180636Y-66070032D01*
X76155618Y-66082081D01*
X76119243Y-66094809D01*
X76092172Y-66100987D01*
X76053882Y-66105301D01*
X76026116Y-66105301D01*
X75987826Y-66100987D01*
X75960755Y-66094809D01*
X75924380Y-66082081D01*
X75899362Y-66070032D01*
X75866732Y-66049529D01*
X75845023Y-66032217D01*
X75817781Y-66004975D01*
X75800472Y-65983272D01*
X75779961Y-65950630D01*
X75767919Y-65925624D01*
X75755187Y-65889238D01*
X75749011Y-65862175D01*
X75744696Y-65823870D01*
X75744697Y-65796111D01*
X75746278Y-65782081D01*
X75749010Y-65757825D01*
X75755186Y-65730761D01*
X75767919Y-65694373D01*
X75779966Y-65669361D01*
X75800469Y-65636731D01*
X75817777Y-65615026D01*
X75845026Y-65587777D01*
X75866731Y-65570469D01*
X75899361Y-65549966D01*
X75924373Y-65537919D01*
X75960761Y-65525186D01*
X75987822Y-65519010D01*
X76026118Y-65514696D01*
X76053880Y-65514696D01*
X76092173Y-65519010D01*
G37*
%TD.AperFunction*%
%TA.AperFunction,Conductor*%
G36*
X79501508Y-65205945D02*
G01*
X79520771Y-65210966D01*
X79520775Y-65210967D01*
X79592175Y-65219011D01*
X79619237Y-65225187D01*
X79655620Y-65237918D01*
X79680636Y-65249966D01*
X79713266Y-65270469D01*
X79734975Y-65287781D01*
X79762217Y-65315023D01*
X79779530Y-65336732D01*
X79796739Y-65364120D01*
X79796748Y-65364139D01*
X79800028Y-65369358D01*
X79812084Y-65394388D01*
X79824809Y-65430755D01*
X79830987Y-65457825D01*
X79832258Y-65469102D01*
X79835302Y-65496122D01*
X79835302Y-65523884D01*
X79833470Y-65540146D01*
X79831683Y-65556013D01*
X79830989Y-65562169D01*
X79824810Y-65589241D01*
X79812083Y-65625614D01*
X79800034Y-65650634D01*
X79779529Y-65683267D01*
X79762217Y-65704975D01*
X79734975Y-65732217D01*
X79713266Y-65749529D01*
X79680636Y-65770032D01*
X79655618Y-65782081D01*
X79619243Y-65794809D01*
X79592172Y-65800987D01*
X79553882Y-65805301D01*
X79526116Y-65805301D01*
X79487826Y-65800987D01*
X79460755Y-65794809D01*
X79424380Y-65782081D01*
X79399362Y-65770032D01*
X79366732Y-65749529D01*
X79345023Y-65732217D01*
X79317782Y-65704976D01*
X79300471Y-65683269D01*
X79279966Y-65650637D01*
X79267916Y-65625616D01*
X79267915Y-65625614D01*
X79255188Y-65589241D01*
X79249011Y-65562175D01*
X79244696Y-65523870D01*
X79244697Y-65496111D01*
X79247102Y-65474764D01*
X79249010Y-65457825D01*
X79255188Y-65430758D01*
X79263548Y-65406866D01*
X79267919Y-65394373D01*
X79279961Y-65369367D01*
X79300469Y-65336730D01*
X79317781Y-65315024D01*
X79337726Y-65295080D01*
X79337726Y-65295079D01*
X79337731Y-65295075D01*
X79371726Y-65250615D01*
X79428082Y-65209318D01*
X79497820Y-65205044D01*
X79501508Y-65205945D01*
G37*
%TD.AperFunction*%
%TA.AperFunction,Conductor*%
G36*
X72052173Y-64959010D02*
G01*
X72079239Y-64965188D01*
X72115623Y-64977919D01*
X72140636Y-64989964D01*
X72147662Y-64994379D01*
X72173264Y-65010466D01*
X72194972Y-65027778D01*
X72222214Y-65055020D01*
X72239526Y-65076728D01*
X72260033Y-65109364D01*
X72272082Y-65134383D01*
X72284809Y-65170755D01*
X72290987Y-65197825D01*
X72295301Y-65236111D01*
X72295302Y-65263870D01*
X72294145Y-65274145D01*
X72294145Y-65274151D01*
X72290989Y-65302167D01*
X72284810Y-65329240D01*
X72272081Y-65365618D01*
X72260032Y-65390638D01*
X72239529Y-65423267D01*
X72222229Y-65444963D01*
X72214653Y-65452541D01*
X72214637Y-65452557D01*
X72194969Y-65472223D01*
X72173267Y-65489529D01*
X72140699Y-65509994D01*
X72139810Y-65510547D01*
X72139750Y-65510584D01*
X72115619Y-65522080D01*
X72079242Y-65534809D01*
X72055884Y-65540146D01*
X72055928Y-65540370D01*
X72055915Y-65540372D01*
X72055930Y-65540468D01*
X72053519Y-65540836D01*
X71975137Y-65556012D01*
X71975133Y-65556013D01*
X71959211Y-65560425D01*
X71889349Y-65559355D01*
X71831157Y-65520685D01*
X71826835Y-65515237D01*
X71776476Y-65447965D01*
X71770750Y-65439628D01*
X71739966Y-65390637D01*
X71727918Y-65365619D01*
X71715190Y-65329245D01*
X71709011Y-65302175D01*
X71704696Y-65263870D01*
X71704697Y-65236111D01*
X71705879Y-65225619D01*
X71709010Y-65197825D01*
X71715186Y-65170761D01*
X71727919Y-65134373D01*
X71739966Y-65109361D01*
X71760469Y-65076731D01*
X71777777Y-65055026D01*
X71805026Y-65027777D01*
X71826731Y-65010469D01*
X71859361Y-64989966D01*
X71884373Y-64977919D01*
X71920761Y-64965186D01*
X71947822Y-64959010D01*
X71986118Y-64954696D01*
X72013880Y-64954696D01*
X72052173Y-64959010D01*
G37*
%TD.AperFunction*%
%TA.AperFunction,Conductor*%
G36*
X81892173Y-64819010D02*
G01*
X81919239Y-64825188D01*
X81955617Y-64837917D01*
X81980626Y-64849960D01*
X81989694Y-64855658D01*
X81989696Y-64855659D01*
X81989698Y-64855660D01*
X81989699Y-64855661D01*
X82013267Y-64870470D01*
X82034977Y-64887783D01*
X82062217Y-64915023D01*
X82079530Y-64936733D01*
X82100033Y-64969364D01*
X82112080Y-64994379D01*
X82124808Y-65030752D01*
X82130987Y-65057823D01*
X82134237Y-65086667D01*
X82135302Y-65096121D01*
X82135302Y-65123884D01*
X82130988Y-65162170D01*
X82124810Y-65189240D01*
X82112081Y-65225618D01*
X82100032Y-65250636D01*
X82079529Y-65283266D01*
X82062217Y-65304975D01*
X82034975Y-65332217D01*
X82013266Y-65349529D01*
X81980636Y-65370032D01*
X81955618Y-65382081D01*
X81919243Y-65394809D01*
X81892172Y-65400987D01*
X81853882Y-65405301D01*
X81826116Y-65405301D01*
X81787826Y-65400987D01*
X81760756Y-65394809D01*
X81725290Y-65382399D01*
X81725288Y-65382399D01*
X81725262Y-65382390D01*
X81724405Y-65382090D01*
X81699364Y-65370034D01*
X81666731Y-65349529D01*
X81645023Y-65332217D01*
X81617781Y-65304975D01*
X81600469Y-65283266D01*
X81579966Y-65250636D01*
X81567918Y-65225619D01*
X81555190Y-65189245D01*
X81549011Y-65162175D01*
X81544696Y-65123870D01*
X81544697Y-65096111D01*
X81545761Y-65086667D01*
X81549010Y-65057825D01*
X81555186Y-65030761D01*
X81567919Y-64994373D01*
X81579966Y-64969361D01*
X81600469Y-64936731D01*
X81617777Y-64915026D01*
X81645026Y-64887777D01*
X81666731Y-64870469D01*
X81699361Y-64849966D01*
X81724373Y-64837919D01*
X81760761Y-64825186D01*
X81787822Y-64819010D01*
X81826118Y-64814696D01*
X81853880Y-64814696D01*
X81892173Y-64819010D01*
G37*
%TD.AperFunction*%
%TA.AperFunction,Conductor*%
G36*
X86352173Y-63309010D02*
G01*
X86379237Y-63315187D01*
X86415620Y-63327918D01*
X86440636Y-63339966D01*
X86473266Y-63360469D01*
X86494975Y-63377781D01*
X86522217Y-63405023D01*
X86539529Y-63426731D01*
X86592977Y-63511792D01*
X86592977Y-63511793D01*
X86592985Y-63511805D01*
X86592989Y-63511810D01*
X86604359Y-63527244D01*
X86628273Y-63592892D01*
X86612899Y-63661049D01*
X86599066Y-63681028D01*
X86592983Y-63688194D01*
X86539527Y-63773269D01*
X86522215Y-63794977D01*
X86494975Y-63822217D01*
X86473266Y-63839529D01*
X86440636Y-63860032D01*
X86415618Y-63872081D01*
X86379243Y-63884809D01*
X86352172Y-63890987D01*
X86313882Y-63895301D01*
X86286116Y-63895301D01*
X86247826Y-63890987D01*
X86220756Y-63884809D01*
X86184383Y-63872082D01*
X86159363Y-63860033D01*
X86159361Y-63860032D01*
X86138434Y-63846882D01*
X86138433Y-63846881D01*
X86132146Y-63842931D01*
X86132142Y-63842929D01*
X86126731Y-63839529D01*
X86105023Y-63822217D01*
X86077780Y-63794974D01*
X86060470Y-63773269D01*
X86048466Y-63754164D01*
X86048464Y-63754161D01*
X86039962Y-63740631D01*
X86027918Y-63715619D01*
X86015190Y-63679245D01*
X86009011Y-63652175D01*
X86004696Y-63613870D01*
X86004697Y-63586111D01*
X86009010Y-63547825D01*
X86015186Y-63520761D01*
X86027919Y-63484373D01*
X86039966Y-63459361D01*
X86060469Y-63426731D01*
X86077777Y-63405026D01*
X86105026Y-63377777D01*
X86126731Y-63360469D01*
X86159361Y-63339966D01*
X86184373Y-63327919D01*
X86220761Y-63315186D01*
X86247822Y-63309010D01*
X86286118Y-63304696D01*
X86313880Y-63304696D01*
X86352173Y-63309010D01*
G37*
%TD.AperFunction*%
%TA.AperFunction,Conductor*%
G36*
X80116362Y-62865802D02*
G01*
X80172312Y-62907649D01*
X80224329Y-62977135D01*
X80224332Y-62977138D01*
X80224337Y-62977144D01*
X80262215Y-63015021D01*
X80279528Y-63036731D01*
X80300031Y-63069361D01*
X80312080Y-63094379D01*
X80324809Y-63130757D01*
X80330987Y-63157827D01*
X80335301Y-63196115D01*
X80335303Y-63223872D01*
X80334266Y-63233083D01*
X80334264Y-63233093D01*
X80330988Y-63262169D01*
X80324810Y-63289240D01*
X80312081Y-63325618D01*
X80300032Y-63350636D01*
X80279529Y-63383266D01*
X80262217Y-63404975D01*
X80234975Y-63432217D01*
X80213266Y-63449529D01*
X80180636Y-63470032D01*
X80155618Y-63482081D01*
X80119243Y-63494809D01*
X80092172Y-63500987D01*
X80053882Y-63505301D01*
X80026116Y-63505301D01*
X79922846Y-63493666D01*
X79814768Y-63493117D01*
X79814761Y-63493118D01*
X79802465Y-63494377D01*
X79733770Y-63481622D01*
X79682875Y-63433753D01*
X79665940Y-63365966D01*
X79683523Y-63307200D01*
X79685965Y-63303132D01*
X79693657Y-63290319D01*
X79714587Y-63240513D01*
X79718438Y-63235785D01*
X79726451Y-63212884D01*
X79729181Y-63205788D01*
X79731898Y-63199323D01*
X79734118Y-63190974D01*
X79767922Y-63094367D01*
X79779962Y-63069365D01*
X79800471Y-63036726D01*
X79817776Y-63015027D01*
X79845029Y-62987774D01*
X79866728Y-62970469D01*
X79945462Y-62920999D01*
X79948423Y-62919052D01*
X79962690Y-62909678D01*
X79964128Y-62908689D01*
X79971044Y-62903940D01*
X79987787Y-62891931D01*
X79987798Y-62891919D01*
X79991647Y-62888654D01*
X79992961Y-62890202D01*
X80046668Y-62860847D01*
X80116362Y-62865802D01*
G37*
%TD.AperFunction*%
%TA.AperFunction,Conductor*%
G36*
X84552173Y-60909010D02*
G01*
X84579237Y-60915187D01*
X84615620Y-60927918D01*
X84640636Y-60939966D01*
X84673266Y-60960469D01*
X84694975Y-60977781D01*
X84722217Y-61005023D01*
X84739529Y-61026732D01*
X84760032Y-61059362D01*
X84772081Y-61084380D01*
X84784809Y-61120755D01*
X84790987Y-61147826D01*
X84795301Y-61186116D01*
X84795301Y-61213882D01*
X84790987Y-61252172D01*
X84784809Y-61279243D01*
X84772081Y-61315618D01*
X84760032Y-61340636D01*
X84739529Y-61373266D01*
X84722217Y-61394975D01*
X84694975Y-61422217D01*
X84673266Y-61439529D01*
X84640636Y-61460032D01*
X84615618Y-61472081D01*
X84579243Y-61484809D01*
X84552172Y-61490987D01*
X84513882Y-61495301D01*
X84486116Y-61495301D01*
X84447826Y-61490987D01*
X84420755Y-61484809D01*
X84384380Y-61472081D01*
X84359362Y-61460032D01*
X84326732Y-61439529D01*
X84305023Y-61422217D01*
X84277781Y-61394975D01*
X84260469Y-61373266D01*
X84239966Y-61340636D01*
X84227918Y-61315619D01*
X84215190Y-61279245D01*
X84209011Y-61252175D01*
X84204696Y-61213870D01*
X84204697Y-61186111D01*
X84209010Y-61147829D01*
X84215186Y-61120761D01*
X84227919Y-61084373D01*
X84239966Y-61059361D01*
X84260469Y-61026731D01*
X84277777Y-61005026D01*
X84305026Y-60977777D01*
X84326731Y-60960469D01*
X84359361Y-60939966D01*
X84384373Y-60927919D01*
X84420761Y-60915186D01*
X84447822Y-60909010D01*
X84486118Y-60904696D01*
X84513880Y-60904696D01*
X84552173Y-60909010D01*
G37*
%TD.AperFunction*%
%TA.AperFunction,Conductor*%
G36*
X78392186Y-59169011D02*
G01*
X78419244Y-59175188D01*
X78455619Y-59187916D01*
X78480633Y-59199963D01*
X78497708Y-59210691D01*
X78505089Y-59215329D01*
X78505091Y-59215330D01*
X78505093Y-59215331D01*
X78532997Y-59227903D01*
X78631607Y-59272331D01*
X78696312Y-59291331D01*
X78833579Y-59311783D01*
X78954827Y-59295610D01*
X78976190Y-59292761D01*
X78976191Y-59292760D01*
X78976196Y-59292760D01*
X79043433Y-59273760D01*
X79174914Y-59215328D01*
X79199371Y-59199959D01*
X79224379Y-59187916D01*
X79260758Y-59175186D01*
X79287807Y-59169012D01*
X79326126Y-59164695D01*
X79353879Y-59164695D01*
X79392171Y-59169010D01*
X79419237Y-59175187D01*
X79455620Y-59187918D01*
X79480638Y-59199967D01*
X79499186Y-59211622D01*
X79499187Y-59211623D01*
X79499188Y-59211623D01*
X79505083Y-59215327D01*
X79505084Y-59215328D01*
X79513270Y-59220471D01*
X79534977Y-59237783D01*
X79562219Y-59265025D01*
X79579532Y-59286734D01*
X79589248Y-59302197D01*
X79589247Y-59302197D01*
X79589250Y-59302201D01*
X79600033Y-59319363D01*
X79612079Y-59344376D01*
X79621157Y-59370320D01*
X79624808Y-59380752D01*
X79630987Y-59407825D01*
X79635301Y-59446115D01*
X79635301Y-59473881D01*
X79630986Y-59512178D01*
X79624809Y-59539246D01*
X79608978Y-59584490D01*
X79602566Y-59604088D01*
X79599628Y-59613726D01*
X79594010Y-59633606D01*
X79588601Y-59681606D01*
X79561533Y-59746019D01*
X79503938Y-59785573D01*
X79434104Y-59787711D01*
X79297327Y-59752058D01*
X79291037Y-59751349D01*
X79287816Y-59750986D01*
X79260756Y-59744809D01*
X79224376Y-59732079D01*
X79199364Y-59720034D01*
X79174918Y-59704674D01*
X79174914Y-59704672D01*
X79048400Y-59647671D01*
X79048387Y-59647667D01*
X79043534Y-59646242D01*
X78983685Y-59628668D01*
X78983683Y-59628667D01*
X78983681Y-59628667D01*
X78983679Y-59628666D01*
X78846411Y-59608215D01*
X78703802Y-59627239D01*
X78636550Y-59646244D01*
X78505090Y-59704669D01*
X78480630Y-59720037D01*
X78455618Y-59732081D01*
X78419243Y-59744809D01*
X78392172Y-59750987D01*
X78353882Y-59755301D01*
X78326116Y-59755301D01*
X78287826Y-59750987D01*
X78260754Y-59744808D01*
X78224380Y-59732080D01*
X78199364Y-59720033D01*
X78166733Y-59699530D01*
X78145023Y-59682217D01*
X78103661Y-59640855D01*
X78094002Y-59629991D01*
X78048688Y-59572571D01*
X78048683Y-59572565D01*
X78011790Y-59534912D01*
X77970559Y-59500987D01*
X77964371Y-59495895D01*
X77925110Y-59438099D01*
X77923329Y-59368252D01*
X77959593Y-59308530D01*
X78009437Y-59280815D01*
X78050809Y-59269125D01*
X78182289Y-59210693D01*
X78199358Y-59199966D01*
X78224377Y-59187918D01*
X78260754Y-59175189D01*
X78287822Y-59169010D01*
X78326118Y-59164695D01*
X78353871Y-59164695D01*
X78392186Y-59169011D01*
G37*
%TD.AperFunction*%
%TA.AperFunction,Conductor*%
G36*
X77142173Y-58919010D02*
G01*
X77169237Y-58925187D01*
X77205620Y-58937918D01*
X77230636Y-58949966D01*
X77263266Y-58970469D01*
X77284975Y-58987781D01*
X77326336Y-59029142D01*
X77335996Y-59040007D01*
X77381305Y-59097423D01*
X77381308Y-59097426D01*
X77381309Y-59097427D01*
X77418202Y-59135081D01*
X77418208Y-59135086D01*
X77418213Y-59135091D01*
X77465626Y-59174103D01*
X77504887Y-59231898D01*
X77506669Y-59301745D01*
X77470406Y-59361468D01*
X77420560Y-59389183D01*
X77379206Y-59400868D01*
X77379184Y-59400875D01*
X77379170Y-59400880D01*
X77247702Y-59459309D01*
X77230626Y-59470038D01*
X77205616Y-59482081D01*
X77169245Y-59494808D01*
X77142172Y-59500987D01*
X77103881Y-59505301D01*
X77076116Y-59505301D01*
X77037826Y-59500987D01*
X77010756Y-59494809D01*
X76974380Y-59482081D01*
X76949365Y-59470035D01*
X76916727Y-59449526D01*
X76895023Y-59432217D01*
X76867780Y-59404974D01*
X76850471Y-59383270D01*
X76842334Y-59370320D01*
X76842332Y-59370317D01*
X76829966Y-59350637D01*
X76817919Y-59325622D01*
X76805190Y-59289246D01*
X76799011Y-59262175D01*
X76794696Y-59223870D01*
X76794697Y-59196111D01*
X76799010Y-59157825D01*
X76805186Y-59130761D01*
X76817919Y-59094373D01*
X76829966Y-59069361D01*
X76850469Y-59036731D01*
X76867777Y-59015026D01*
X76895026Y-58987777D01*
X76916731Y-58970469D01*
X76949361Y-58949966D01*
X76974373Y-58937919D01*
X77010761Y-58925186D01*
X77037822Y-58919010D01*
X77076118Y-58914696D01*
X77103880Y-58914696D01*
X77142173Y-58919010D01*
G37*
%TD.AperFunction*%
%TA.AperFunction,Conductor*%
G36*
X71652173Y-58309010D02*
G01*
X71679237Y-58315187D01*
X71715620Y-58327918D01*
X71740636Y-58339966D01*
X71773266Y-58360469D01*
X71794975Y-58377781D01*
X71822218Y-58405024D01*
X71839530Y-58426732D01*
X71856735Y-58454113D01*
X71856737Y-58454117D01*
X71860032Y-58459361D01*
X71872080Y-58484379D01*
X71884809Y-58520757D01*
X71890987Y-58547827D01*
X71895301Y-58586115D01*
X71895301Y-58613882D01*
X71890987Y-58652172D01*
X71884809Y-58679243D01*
X71872081Y-58715618D01*
X71860032Y-58740636D01*
X71839529Y-58773266D01*
X71822217Y-58794975D01*
X71794975Y-58822217D01*
X71773266Y-58839529D01*
X71740636Y-58860032D01*
X71715618Y-58872081D01*
X71679243Y-58884809D01*
X71652172Y-58890987D01*
X71613882Y-58895301D01*
X71586116Y-58895301D01*
X71547826Y-58890987D01*
X71520755Y-58884809D01*
X71484380Y-58872081D01*
X71459362Y-58860032D01*
X71426732Y-58839529D01*
X71405023Y-58822217D01*
X71377782Y-58794976D01*
X71360471Y-58773269D01*
X71339966Y-58740637D01*
X71327916Y-58715616D01*
X71315189Y-58679243D01*
X71309011Y-58652175D01*
X71304696Y-58613870D01*
X71304697Y-58586111D01*
X71309010Y-58547829D01*
X71309011Y-58547827D01*
X71309010Y-58547825D01*
X71315186Y-58520761D01*
X71327919Y-58484373D01*
X71339966Y-58459361D01*
X71360469Y-58426731D01*
X71377777Y-58405026D01*
X71405026Y-58377777D01*
X71426731Y-58360469D01*
X71459361Y-58339966D01*
X71484373Y-58327919D01*
X71520761Y-58315186D01*
X71547822Y-58309010D01*
X71586118Y-58304696D01*
X71613880Y-58304696D01*
X71652173Y-58309010D01*
G37*
%TD.AperFunction*%
%TA.AperFunction,Conductor*%
G36*
X73152173Y-56509010D02*
G01*
X73179237Y-56515187D01*
X73215620Y-56527918D01*
X73240636Y-56539966D01*
X73273266Y-56560469D01*
X73294976Y-56577782D01*
X73338472Y-56621279D01*
X73338473Y-56621280D01*
X73338477Y-56621283D01*
X73338480Y-56621286D01*
X73367136Y-56643197D01*
X73408433Y-56699554D01*
X73412706Y-56769293D01*
X73411806Y-56772976D01*
X73390854Y-56853355D01*
X73390045Y-56857715D01*
X73389737Y-56857657D01*
X73384808Y-56879244D01*
X73372081Y-56915617D01*
X73360032Y-56940636D01*
X73339529Y-56973266D01*
X73322217Y-56994975D01*
X73294975Y-57022217D01*
X73273266Y-57039529D01*
X73240636Y-57060032D01*
X73215618Y-57072081D01*
X73179243Y-57084809D01*
X73152172Y-57090987D01*
X73113882Y-57095301D01*
X73086116Y-57095301D01*
X73047826Y-57090987D01*
X73020755Y-57084809D01*
X72984380Y-57072081D01*
X72959362Y-57060032D01*
X72926732Y-57039529D01*
X72905023Y-57022217D01*
X72877783Y-56994977D01*
X72860471Y-56973269D01*
X72839961Y-56940628D01*
X72827913Y-56915610D01*
X72821745Y-56897983D01*
X72815001Y-56878707D01*
X72814999Y-56878704D01*
X72814998Y-56878700D01*
X72784115Y-56808245D01*
X72775231Y-56738944D01*
X72805225Y-56675840D01*
X72820952Y-56661421D01*
X72820945Y-56661413D01*
X72821243Y-56661154D01*
X72823380Y-56659194D01*
X72824297Y-56658509D01*
X72905032Y-56577772D01*
X72926730Y-56560469D01*
X72959367Y-56539961D01*
X72984373Y-56527919D01*
X73020760Y-56515187D01*
X73047822Y-56509010D01*
X73086118Y-56504696D01*
X73113880Y-56504696D01*
X73152173Y-56509010D01*
G37*
%TD.AperFunction*%
%TA.AperFunction,Conductor*%
G36*
X71552173Y-56209010D02*
G01*
X71579239Y-56215188D01*
X71615614Y-56227916D01*
X71640648Y-56239974D01*
X71645290Y-56242891D01*
X71645301Y-56242896D01*
X71673266Y-56260468D01*
X71694974Y-56277780D01*
X71722217Y-56305023D01*
X71739529Y-56326731D01*
X71760034Y-56359364D01*
X71772082Y-56384381D01*
X71779236Y-56404824D01*
X71784997Y-56421289D01*
X71785001Y-56421299D01*
X71815878Y-56491744D01*
X71824761Y-56561046D01*
X71794767Y-56624150D01*
X71779084Y-56638529D01*
X71779095Y-56638542D01*
X71778646Y-56638930D01*
X71776625Y-56640784D01*
X71775755Y-56641434D01*
X71771974Y-56645215D01*
X71771730Y-56645462D01*
X71694975Y-56722217D01*
X71673266Y-56739529D01*
X71640636Y-56760032D01*
X71615618Y-56772081D01*
X71579243Y-56784809D01*
X71552172Y-56790987D01*
X71513882Y-56795301D01*
X71486117Y-56795301D01*
X71447825Y-56790987D01*
X71420752Y-56784808D01*
X71384381Y-56772081D01*
X71359363Y-56760033D01*
X71340272Y-56748037D01*
X71340265Y-56748034D01*
X71326729Y-56739529D01*
X71305024Y-56722218D01*
X71277782Y-56694976D01*
X71260473Y-56673273D01*
X71239960Y-56640627D01*
X71227917Y-56615617D01*
X71218176Y-56587777D01*
X71201811Y-56555292D01*
X71189231Y-56486567D01*
X71202530Y-56442317D01*
X71218174Y-56412225D01*
X71227916Y-56384381D01*
X71239960Y-56359372D01*
X71260473Y-56326724D01*
X71277780Y-56305023D01*
X71305026Y-56277777D01*
X71326731Y-56260469D01*
X71359361Y-56239966D01*
X71384373Y-56227919D01*
X71420761Y-56215186D01*
X71447822Y-56209010D01*
X71486118Y-56204696D01*
X71513880Y-56204696D01*
X71552173Y-56209010D01*
G37*
%TD.AperFunction*%
%TA.AperFunction,Conductor*%
G36*
X74752173Y-56009010D02*
G01*
X74779237Y-56015187D01*
X74815620Y-56027918D01*
X74840636Y-56039966D01*
X74873266Y-56060469D01*
X74894975Y-56077781D01*
X74922215Y-56105021D01*
X74939524Y-56126725D01*
X74960035Y-56159368D01*
X74972082Y-56184383D01*
X74984809Y-56220756D01*
X74990987Y-56247823D01*
X74995302Y-56286120D01*
X74995302Y-56313883D01*
X74993000Y-56334322D01*
X74990989Y-56352170D01*
X74984810Y-56379241D01*
X74977549Y-56399993D01*
X74977546Y-56400002D01*
X74972079Y-56415623D01*
X74960034Y-56440634D01*
X74939530Y-56473266D01*
X74922217Y-56494975D01*
X74894975Y-56522217D01*
X74873266Y-56539529D01*
X74840636Y-56560032D01*
X74815618Y-56572081D01*
X74779243Y-56584809D01*
X74752172Y-56590987D01*
X74713882Y-56595301D01*
X74686116Y-56595301D01*
X74647826Y-56590987D01*
X74620755Y-56584809D01*
X74584380Y-56572081D01*
X74559362Y-56560032D01*
X74526732Y-56539529D01*
X74505022Y-56522216D01*
X74461528Y-56478721D01*
X74461516Y-56478710D01*
X74432863Y-56456801D01*
X74391565Y-56400443D01*
X74387292Y-56330704D01*
X74388192Y-56327021D01*
X74388268Y-56326731D01*
X74409145Y-56246638D01*
X74409145Y-56246632D01*
X74409953Y-56242284D01*
X74410264Y-56242341D01*
X74415189Y-56220756D01*
X74427919Y-56184373D01*
X74439966Y-56159361D01*
X74460469Y-56126731D01*
X74477777Y-56105026D01*
X74505026Y-56077777D01*
X74526731Y-56060469D01*
X74559361Y-56039966D01*
X74584373Y-56027919D01*
X74620761Y-56015186D01*
X74647822Y-56009010D01*
X74686118Y-56004696D01*
X74713880Y-56004696D01*
X74752173Y-56009010D01*
G37*
%TD.AperFunction*%
%TA.AperFunction,Conductor*%
G36*
X83863548Y-55280180D02*
G01*
X83883809Y-55294172D01*
X83929564Y-55333008D01*
X83929568Y-55333011D01*
X83973266Y-55360468D01*
X83994975Y-55377781D01*
X84022216Y-55405022D01*
X84039528Y-55426731D01*
X84060031Y-55459361D01*
X84072080Y-55484379D01*
X84084809Y-55520757D01*
X84090987Y-55547827D01*
X84095301Y-55586115D01*
X84095301Y-55613882D01*
X84090987Y-55652172D01*
X84084809Y-55679243D01*
X84072081Y-55715618D01*
X84060032Y-55740636D01*
X84039529Y-55773266D01*
X84022217Y-55794975D01*
X83994975Y-55822217D01*
X83973266Y-55839529D01*
X83940636Y-55860032D01*
X83915617Y-55872081D01*
X83879238Y-55884810D01*
X83852173Y-55890988D01*
X83815618Y-55895107D01*
X83815617Y-55895108D01*
X83806729Y-55897041D01*
X83737037Y-55892052D01*
X83723197Y-55885901D01*
X83721802Y-55885176D01*
X83721801Y-55885175D01*
X83721794Y-55885172D01*
X83684381Y-55872081D01*
X83659363Y-55860033D01*
X83626730Y-55839528D01*
X83605022Y-55822216D01*
X83577783Y-55794977D01*
X83560475Y-55773275D01*
X83539960Y-55740627D01*
X83527917Y-55715618D01*
X83515187Y-55679238D01*
X83509011Y-55652175D01*
X83504696Y-55613870D01*
X83504697Y-55586111D01*
X83509010Y-55547829D01*
X83509011Y-55547827D01*
X83509010Y-55547825D01*
X83515186Y-55520761D01*
X83527919Y-55484373D01*
X83539966Y-55459361D01*
X83560469Y-55426731D01*
X83577777Y-55405026D01*
X83605022Y-55377781D01*
X83626723Y-55360474D01*
X83670428Y-55333014D01*
X83729765Y-55289063D01*
X83795351Y-55264982D01*
X83863548Y-55280180D01*
G37*
%TD.AperFunction*%
%TA.AperFunction,Conductor*%
G36*
X77652173Y-53109010D02*
G01*
X77679237Y-53115187D01*
X77715620Y-53127918D01*
X77740638Y-53139967D01*
X77756767Y-53150102D01*
X77756768Y-53150103D01*
X77756769Y-53150103D01*
X77762664Y-53153807D01*
X77762665Y-53153808D01*
X77773269Y-53160471D01*
X77794977Y-53177783D01*
X77822217Y-53205023D01*
X77839530Y-53226732D01*
X77860034Y-53259364D01*
X77872081Y-53284381D01*
X77884808Y-53320752D01*
X77890987Y-53347825D01*
X77895301Y-53386117D01*
X77895301Y-53413882D01*
X77890987Y-53452172D01*
X77884809Y-53479243D01*
X77853007Y-53570130D01*
X77851722Y-53571920D01*
X77849180Y-53580579D01*
X77847249Y-53586585D01*
X77846356Y-53589135D01*
X77846356Y-53589137D01*
X77842843Y-53602071D01*
X77842156Y-53604501D01*
X77831011Y-53642455D01*
X77831008Y-53642466D01*
X77829019Y-53652084D01*
X77827499Y-53658449D01*
X77827260Y-53659949D01*
X77826238Y-53665531D01*
X77814312Y-53723192D01*
X77814311Y-53723200D01*
X77817259Y-53867049D01*
X77817260Y-53867061D01*
X77831187Y-53951592D01*
X77833065Y-53953995D01*
X77839481Y-53975832D01*
X77844224Y-53999995D01*
X77846357Y-54010863D01*
X77884808Y-54120752D01*
X77890986Y-54147818D01*
X77895302Y-54186117D01*
X77895302Y-54213880D01*
X77893250Y-54232095D01*
X77890987Y-54252175D01*
X77884809Y-54279243D01*
X77853007Y-54370130D01*
X77851722Y-54371920D01*
X77849180Y-54380579D01*
X77847249Y-54386585D01*
X77846356Y-54389135D01*
X77846356Y-54389137D01*
X77842843Y-54402071D01*
X77842156Y-54404501D01*
X77831011Y-54442455D01*
X77831008Y-54442466D01*
X77829019Y-54452084D01*
X77827499Y-54458449D01*
X77827260Y-54459949D01*
X77826238Y-54465531D01*
X77814312Y-54523192D01*
X77814311Y-54523200D01*
X77817259Y-54667049D01*
X77817260Y-54667061D01*
X77831187Y-54751592D01*
X77833065Y-54753995D01*
X77839481Y-54775835D01*
X77846353Y-54810851D01*
X77846358Y-54810867D01*
X77884808Y-54920749D01*
X77890987Y-54947822D01*
X77895301Y-54986113D01*
X77895301Y-55013879D01*
X77890986Y-55052175D01*
X77884808Y-55079244D01*
X77872081Y-55115617D01*
X77860032Y-55140637D01*
X77839530Y-55173265D01*
X77822220Y-55194972D01*
X77762316Y-55254877D01*
X77762315Y-55254878D01*
X77694177Y-55339430D01*
X77636784Y-55379277D01*
X77566959Y-55381770D01*
X77506870Y-55346116D01*
X77498360Y-55335932D01*
X77496174Y-55333012D01*
X77460090Y-55284809D01*
X77437689Y-55254884D01*
X77437680Y-55254874D01*
X77409362Y-55226556D01*
X77377777Y-55194971D01*
X77360469Y-55173266D01*
X77339966Y-55140636D01*
X77327918Y-55115619D01*
X77315190Y-55079245D01*
X77309011Y-55052175D01*
X77304696Y-55013870D01*
X77304696Y-54986122D01*
X77309011Y-54947812D01*
X77315187Y-54920756D01*
X77346948Y-54829993D01*
X77348247Y-54828182D01*
X77350824Y-54819406D01*
X77352767Y-54813365D01*
X77353642Y-54810865D01*
X77357214Y-54797730D01*
X77357876Y-54795391D01*
X77360629Y-54786013D01*
X77360630Y-54786014D01*
X77368983Y-54757568D01*
X77370895Y-54748323D01*
X77372428Y-54741919D01*
X77372475Y-54741621D01*
X77372477Y-54741616D01*
X77372477Y-54741610D01*
X77372688Y-54740292D01*
X77373709Y-54734722D01*
X77374163Y-54732532D01*
X77385678Y-54676879D01*
X77382748Y-54533028D01*
X77373150Y-54474728D01*
X77368826Y-54448465D01*
X77366925Y-54446029D01*
X77360535Y-54424257D01*
X77353642Y-54389136D01*
X77315188Y-54279245D01*
X77309010Y-54252172D01*
X77304697Y-54213872D01*
X77304697Y-54186117D01*
X77308446Y-54152834D01*
X77309011Y-54147818D01*
X77315189Y-54120752D01*
X77346948Y-54029993D01*
X77348247Y-54028182D01*
X77350824Y-54019406D01*
X77352767Y-54013365D01*
X77353642Y-54010865D01*
X77357214Y-53997730D01*
X77357876Y-53995391D01*
X77360629Y-53986013D01*
X77360630Y-53986014D01*
X77368983Y-53957568D01*
X77370895Y-53948323D01*
X77372428Y-53941919D01*
X77372475Y-53941621D01*
X77372477Y-53941616D01*
X77372477Y-53941610D01*
X77372688Y-53940292D01*
X77373709Y-53934722D01*
X77373871Y-53933942D01*
X77384127Y-53884377D01*
X77385677Y-53876885D01*
X77385678Y-53876874D01*
X77384416Y-53814903D01*
X77382748Y-53733028D01*
X77373150Y-53674728D01*
X77368826Y-53648465D01*
X77366925Y-53646029D01*
X77360535Y-53624257D01*
X77353642Y-53589136D01*
X77315188Y-53479245D01*
X77309011Y-53452181D01*
X77304696Y-53413871D01*
X77304697Y-53386112D01*
X77306378Y-53371192D01*
X77309010Y-53347825D01*
X77315186Y-53320761D01*
X77327919Y-53284373D01*
X77339966Y-53259361D01*
X77360469Y-53226731D01*
X77377777Y-53205026D01*
X77405026Y-53177777D01*
X77426731Y-53160469D01*
X77459361Y-53139966D01*
X77484373Y-53127919D01*
X77520761Y-53115186D01*
X77547822Y-53109010D01*
X77586118Y-53104696D01*
X77613880Y-53104696D01*
X77652173Y-53109010D01*
G37*
%TD.AperFunction*%
%TA.AperFunction,Conductor*%
G36*
X86552173Y-54709010D02*
G01*
X86579237Y-54715187D01*
X86615620Y-54727918D01*
X86640637Y-54739966D01*
X86674667Y-54761349D01*
X86693196Y-54775593D01*
X86693830Y-54776184D01*
X86693839Y-54776192D01*
X86700317Y-54782224D01*
X86713765Y-54794305D01*
X86834805Y-54872092D01*
X86834809Y-54872094D01*
X86834813Y-54872096D01*
X86843357Y-54875997D01*
X86867359Y-54886959D01*
X86920162Y-54932710D01*
X86939849Y-54999749D01*
X86920166Y-55066789D01*
X86867364Y-55112546D01*
X86859200Y-55115928D01*
X86857393Y-55116602D01*
X86857384Y-55116606D01*
X86857381Y-55116608D01*
X86835042Y-55128806D01*
X86796057Y-55150093D01*
X86796056Y-55150093D01*
X86697958Y-55223527D01*
X86689622Y-55229252D01*
X86640637Y-55260032D01*
X86615618Y-55272081D01*
X86579243Y-55284809D01*
X86552172Y-55290987D01*
X86513882Y-55295301D01*
X86486117Y-55295301D01*
X86447825Y-55290987D01*
X86420752Y-55284808D01*
X86384381Y-55272081D01*
X86359366Y-55260035D01*
X86336828Y-55245874D01*
X86336822Y-55245869D01*
X86326729Y-55239527D01*
X86305021Y-55222215D01*
X86277781Y-55194975D01*
X86260469Y-55173266D01*
X86239966Y-55140636D01*
X86227918Y-55115619D01*
X86215190Y-55079245D01*
X86209011Y-55052175D01*
X86204696Y-55013870D01*
X86204697Y-54986111D01*
X86209010Y-54947829D01*
X86215186Y-54920761D01*
X86227919Y-54884373D01*
X86239966Y-54859361D01*
X86260469Y-54826731D01*
X86277777Y-54805026D01*
X86305026Y-54777777D01*
X86326731Y-54760469D01*
X86359361Y-54739966D01*
X86384373Y-54727919D01*
X86420761Y-54715186D01*
X86447822Y-54709010D01*
X86486118Y-54704696D01*
X86513880Y-54704696D01*
X86552173Y-54709010D01*
G37*
%TD.AperFunction*%
%TA.AperFunction,Conductor*%
G36*
X71352173Y-53809010D02*
G01*
X71379238Y-53815188D01*
X71415615Y-53827916D01*
X71440631Y-53839962D01*
X71473267Y-53860469D01*
X71494975Y-53877781D01*
X71522217Y-53905023D01*
X71539531Y-53926734D01*
X71560034Y-53959366D01*
X71572080Y-53984379D01*
X71584808Y-54020751D01*
X71590987Y-54047821D01*
X71595302Y-54086115D01*
X71595302Y-54113881D01*
X71590987Y-54152174D01*
X71584809Y-54179243D01*
X71572081Y-54215618D01*
X71560032Y-54240636D01*
X71539529Y-54273266D01*
X71522217Y-54294975D01*
X71494975Y-54322217D01*
X71473266Y-54339529D01*
X71440636Y-54360032D01*
X71415618Y-54372081D01*
X71379243Y-54384809D01*
X71352172Y-54390987D01*
X71313882Y-54395301D01*
X71286116Y-54395301D01*
X71247826Y-54390987D01*
X71220756Y-54384809D01*
X71184380Y-54372081D01*
X71159361Y-54360032D01*
X71142643Y-54349527D01*
X71126730Y-54339528D01*
X71105024Y-54322217D01*
X71069146Y-54286339D01*
X71061803Y-54279253D01*
X71056161Y-54273808D01*
X71049683Y-54267776D01*
X71036235Y-54255695D01*
X70958343Y-54205637D01*
X70912589Y-54152834D01*
X70902645Y-54083675D01*
X70931670Y-54020119D01*
X70951073Y-54002055D01*
X70972365Y-53986116D01*
X71069126Y-53913681D01*
X71105034Y-53877771D01*
X71126729Y-53860470D01*
X71159368Y-53839961D01*
X71184373Y-53827919D01*
X71220760Y-53815187D01*
X71247822Y-53809010D01*
X71286118Y-53804696D01*
X71313880Y-53804696D01*
X71352173Y-53809010D01*
G37*
%TD.AperFunction*%
%TA.AperFunction,Conductor*%
G36*
X75052173Y-53809010D02*
G01*
X75079238Y-53815188D01*
X75115615Y-53827916D01*
X75140631Y-53839962D01*
X75173267Y-53860469D01*
X75194975Y-53877781D01*
X75222217Y-53905023D01*
X75239531Y-53926734D01*
X75260034Y-53959366D01*
X75272080Y-53984380D01*
X75284808Y-54020753D01*
X75290987Y-54047826D01*
X75295301Y-54086116D01*
X75295301Y-54113882D01*
X75290987Y-54152172D01*
X75284809Y-54179243D01*
X75272081Y-54215618D01*
X75260032Y-54240636D01*
X75239529Y-54273266D01*
X75222217Y-54294975D01*
X75194975Y-54322217D01*
X75173266Y-54339529D01*
X75140636Y-54360032D01*
X75115618Y-54372081D01*
X75079243Y-54384809D01*
X75052172Y-54390987D01*
X75013882Y-54395301D01*
X74986116Y-54395301D01*
X74947826Y-54390987D01*
X74920756Y-54384809D01*
X74884380Y-54372081D01*
X74859365Y-54360035D01*
X74826727Y-54339526D01*
X74805023Y-54322217D01*
X74777783Y-54294977D01*
X74760472Y-54273270D01*
X74739967Y-54240638D01*
X74727918Y-54215619D01*
X74715190Y-54179245D01*
X74709011Y-54152174D01*
X74704696Y-54113870D01*
X74704697Y-54086111D01*
X74709010Y-54047825D01*
X74715186Y-54020761D01*
X74727919Y-53984373D01*
X74739966Y-53959361D01*
X74760469Y-53926731D01*
X74777777Y-53905026D01*
X74805026Y-53877777D01*
X74826731Y-53860469D01*
X74859361Y-53839966D01*
X74884373Y-53827919D01*
X74920761Y-53815186D01*
X74947822Y-53809010D01*
X74986118Y-53804696D01*
X75013880Y-53804696D01*
X75052173Y-53809010D01*
G37*
%TD.AperFunction*%
%TA.AperFunction,Conductor*%
G36*
X83852173Y-53709010D02*
G01*
X83879239Y-53715188D01*
X83915620Y-53727918D01*
X83940633Y-53739963D01*
X83973267Y-53760469D01*
X83994974Y-53777780D01*
X84022217Y-53805023D01*
X84039530Y-53826732D01*
X84060032Y-53859361D01*
X84072079Y-53884377D01*
X84084808Y-53920753D01*
X84090987Y-53947826D01*
X84095301Y-53986116D01*
X84095301Y-54013882D01*
X84090987Y-54052172D01*
X84084809Y-54079243D01*
X84072081Y-54115618D01*
X84060032Y-54140636D01*
X84039529Y-54173266D01*
X84022217Y-54194975D01*
X83994979Y-54222213D01*
X83973271Y-54239525D01*
X83929575Y-54266981D01*
X83870235Y-54310934D01*
X83804647Y-54335017D01*
X83736450Y-54319819D01*
X83716187Y-54305826D01*
X83703406Y-54294977D01*
X83670432Y-54266988D01*
X83670430Y-54266986D01*
X83670428Y-54266985D01*
X83670421Y-54266980D01*
X83626730Y-54239527D01*
X83605021Y-54222215D01*
X83577783Y-54194977D01*
X83560472Y-54173270D01*
X83539967Y-54140638D01*
X83527918Y-54115619D01*
X83515190Y-54079245D01*
X83509011Y-54052175D01*
X83504696Y-54013870D01*
X83504697Y-53986111D01*
X83505855Y-53975832D01*
X83509010Y-53947825D01*
X83515186Y-53920761D01*
X83527919Y-53884373D01*
X83539966Y-53859361D01*
X83560469Y-53826731D01*
X83577777Y-53805026D01*
X83605026Y-53777777D01*
X83626731Y-53760469D01*
X83659361Y-53739966D01*
X83684373Y-53727919D01*
X83720761Y-53715186D01*
X83747822Y-53709010D01*
X83786118Y-53704696D01*
X83813880Y-53704696D01*
X83852173Y-53709010D01*
G37*
%TD.AperFunction*%
%TA.AperFunction,Conductor*%
G36*
X69937539Y-50020185D02*
G01*
X69983294Y-50072989D01*
X69994500Y-50124500D01*
X69994500Y-51504313D01*
X70011503Y-51634315D01*
X70011504Y-51634322D01*
X70027905Y-51695948D01*
X70027909Y-51695961D01*
X70051822Y-51754112D01*
X70059113Y-51823600D01*
X70049935Y-51852781D01*
X70034664Y-51886219D01*
X70014976Y-51953267D01*
X70005063Y-52022217D01*
X69995176Y-52090987D01*
X69994500Y-52095686D01*
X69994500Y-52191893D01*
X69974815Y-52258932D01*
X69922011Y-52304687D01*
X69852853Y-52314631D01*
X69789297Y-52285606D01*
X69760015Y-52248188D01*
X69708689Y-52147456D01*
X69497468Y-51822206D01*
X69288904Y-51564649D01*
X69288903Y-51564648D01*
X67794251Y-53059300D01*
X67720412Y-52957670D01*
X67542330Y-52779588D01*
X67440698Y-52705747D01*
X68935350Y-51211096D01*
X68935350Y-51211095D01*
X68677793Y-51002531D01*
X68352543Y-50791310D01*
X68006994Y-50615244D01*
X67644936Y-50476262D01*
X67270330Y-50375887D01*
X67270323Y-50375886D01*
X66887287Y-50315219D01*
X66500001Y-50294922D01*
X66499998Y-50294922D01*
X66331561Y-50303749D01*
X66263584Y-50287600D01*
X66215128Y-50237263D01*
X66201579Y-50168719D01*
X66227238Y-50103732D01*
X66283959Y-50062933D01*
X66308879Y-50056981D01*
X66602497Y-50018325D01*
X66613226Y-50017386D01*
X66997297Y-50000617D01*
X67002706Y-50000500D01*
X67065892Y-50000500D01*
X69870500Y-50000500D01*
X69937539Y-50020185D01*
G37*
%TD.AperFunction*%
%TA.AperFunction,Conductor*%
G36*
X75052173Y-51909010D02*
G01*
X75079237Y-51915187D01*
X75115620Y-51927918D01*
X75140636Y-51939966D01*
X75173266Y-51960469D01*
X75194975Y-51977781D01*
X75222216Y-52005022D01*
X75239528Y-52026731D01*
X75260031Y-52059361D01*
X75272080Y-52084379D01*
X75284809Y-52120757D01*
X75290987Y-52147827D01*
X75295301Y-52186114D01*
X75295302Y-52213875D01*
X75292735Y-52236668D01*
X75292733Y-52236687D01*
X75290985Y-52252187D01*
X75284808Y-52279244D01*
X75272081Y-52315617D01*
X75260032Y-52340636D01*
X75239529Y-52373266D01*
X75222217Y-52394975D01*
X75194975Y-52422217D01*
X75173266Y-52439529D01*
X75140636Y-52460032D01*
X75115618Y-52472081D01*
X75079243Y-52484809D01*
X75052172Y-52490987D01*
X75013882Y-52495301D01*
X74986117Y-52495301D01*
X74947825Y-52490987D01*
X74920760Y-52484811D01*
X74918296Y-52483949D01*
X74918285Y-52483945D01*
X74884377Y-52472079D01*
X74859364Y-52460033D01*
X74826733Y-52439530D01*
X74805023Y-52422217D01*
X74777781Y-52394975D01*
X74760468Y-52373266D01*
X74743139Y-52345687D01*
X74743139Y-52345686D01*
X74739968Y-52340640D01*
X74727918Y-52315619D01*
X74715190Y-52279245D01*
X74709011Y-52252175D01*
X74704696Y-52213870D01*
X74704697Y-52186111D01*
X74709010Y-52147825D01*
X74715186Y-52120761D01*
X74727919Y-52084373D01*
X74739966Y-52059361D01*
X74760469Y-52026731D01*
X74777777Y-52005026D01*
X74805026Y-51977777D01*
X74826731Y-51960469D01*
X74859361Y-51939966D01*
X74884373Y-51927919D01*
X74920761Y-51915186D01*
X74947822Y-51909010D01*
X74986118Y-51904696D01*
X75013880Y-51904696D01*
X75052173Y-51909010D01*
G37*
%TD.AperFunction*%
%TA.AperFunction,Conductor*%
G36*
X71552173Y-51509010D02*
G01*
X71579237Y-51515187D01*
X71615620Y-51527918D01*
X71640636Y-51539966D01*
X71673266Y-51560469D01*
X71694976Y-51577782D01*
X71749883Y-51632690D01*
X71749888Y-51632694D01*
X71749890Y-51632696D01*
X71777205Y-51654831D01*
X71816897Y-51712329D01*
X71819202Y-51782161D01*
X71811818Y-51801434D01*
X71812299Y-51801642D01*
X71810542Y-51805704D01*
X71807938Y-51813147D01*
X71807918Y-51813203D01*
X71772082Y-51915616D01*
X71760034Y-51940634D01*
X71739529Y-51973267D01*
X71722217Y-51994975D01*
X71694975Y-52022217D01*
X71673266Y-52039529D01*
X71640636Y-52060032D01*
X71615618Y-52072081D01*
X71579243Y-52084809D01*
X71552172Y-52090987D01*
X71513882Y-52095301D01*
X71486118Y-52095301D01*
X71447818Y-52090986D01*
X71420756Y-52084809D01*
X71384378Y-52072080D01*
X71359364Y-52060034D01*
X71326731Y-52039529D01*
X71305023Y-52022217D01*
X71277782Y-51994976D01*
X71260473Y-51973273D01*
X71239960Y-51940627D01*
X71227917Y-51915617D01*
X71218176Y-51887777D01*
X71201811Y-51855292D01*
X71189231Y-51786567D01*
X71202530Y-51742317D01*
X71218174Y-51712225D01*
X71227916Y-51684381D01*
X71239960Y-51659372D01*
X71260473Y-51626724D01*
X71277780Y-51605023D01*
X71305026Y-51577777D01*
X71326731Y-51560469D01*
X71359361Y-51539966D01*
X71384373Y-51527919D01*
X71420761Y-51515186D01*
X71447822Y-51509010D01*
X71486118Y-51504696D01*
X71513880Y-51504696D01*
X71552173Y-51509010D01*
G37*
%TD.AperFunction*%
%TA.AperFunction,Conductor*%
G36*
X73152173Y-51109010D02*
G01*
X73179237Y-51115187D01*
X73215620Y-51127918D01*
X73240636Y-51139966D01*
X73273266Y-51160469D01*
X73294975Y-51177781D01*
X73322217Y-51205023D01*
X73339531Y-51226734D01*
X73360034Y-51259366D01*
X73372079Y-51284377D01*
X73383312Y-51316475D01*
X73383315Y-51316484D01*
X73384810Y-51320757D01*
X73390986Y-51347821D01*
X73394773Y-51381426D01*
X73395302Y-51386121D01*
X73395302Y-51413883D01*
X73390989Y-51452170D01*
X73384810Y-51479242D01*
X73373847Y-51510575D01*
X73372083Y-51515615D01*
X73360034Y-51540634D01*
X73339529Y-51573267D01*
X73322217Y-51594975D01*
X73294975Y-51622217D01*
X73273266Y-51639529D01*
X73240636Y-51660032D01*
X73215618Y-51672081D01*
X73179243Y-51684809D01*
X73152172Y-51690987D01*
X73113882Y-51695301D01*
X73086116Y-51695301D01*
X73047826Y-51690987D01*
X73020756Y-51684809D01*
X72985290Y-51672399D01*
X72985288Y-51672399D01*
X72985262Y-51672390D01*
X72984405Y-51672090D01*
X72959364Y-51660034D01*
X72926731Y-51639529D01*
X72905023Y-51622217D01*
X72850108Y-51567302D01*
X72822809Y-51545191D01*
X72783104Y-51487700D01*
X72780783Y-51417868D01*
X72788196Y-51398543D01*
X72787710Y-51398333D01*
X72789459Y-51394285D01*
X72789466Y-51394272D01*
X72827919Y-51284375D01*
X72839963Y-51259366D01*
X72860472Y-51226725D01*
X72877777Y-51205026D01*
X72905026Y-51177777D01*
X72926731Y-51160469D01*
X72959361Y-51139966D01*
X72984373Y-51127919D01*
X73020761Y-51115186D01*
X73047822Y-51109010D01*
X73086118Y-51104696D01*
X73113880Y-51104696D01*
X73152173Y-51109010D01*
G37*
%TD.AperFunction*%
%TD*%
%TA.AperFunction,Conductor*%
%TO.N,VCC*%
G36*
X85795099Y-50020185D02*
G01*
X85840854Y-50072989D01*
X85850798Y-50142147D01*
X85821773Y-50205703D01*
X85815741Y-50212181D01*
X85730184Y-50297737D01*
X85634211Y-50450476D01*
X85574631Y-50620745D01*
X85574630Y-50620750D01*
X85554435Y-50799996D01*
X85554435Y-50800003D01*
X85574630Y-50979249D01*
X85574631Y-50979254D01*
X85634211Y-51149523D01*
X85730184Y-51302262D01*
X85821667Y-51393745D01*
X85855152Y-51455068D01*
X85850168Y-51524760D01*
X85838980Y-51547398D01*
X85774211Y-51650476D01*
X85714631Y-51820745D01*
X85714630Y-51820750D01*
X85694435Y-51999996D01*
X85694435Y-52000003D01*
X85714630Y-52179249D01*
X85714631Y-52179254D01*
X85774211Y-52349523D01*
X85824662Y-52429815D01*
X85870184Y-52502262D01*
X85997738Y-52629816D01*
X86065819Y-52672594D01*
X86132721Y-52714632D01*
X86150478Y-52725789D01*
X86277352Y-52770184D01*
X86320745Y-52785368D01*
X86320750Y-52785369D01*
X86499996Y-52805565D01*
X86500000Y-52805565D01*
X86500004Y-52805565D01*
X86679249Y-52785369D01*
X86679252Y-52785368D01*
X86679255Y-52785368D01*
X86849522Y-52725789D01*
X87002262Y-52629816D01*
X87038319Y-52593759D01*
X87099642Y-52560274D01*
X87169334Y-52565258D01*
X87225267Y-52607130D01*
X87249684Y-52672594D01*
X87250000Y-52681440D01*
X87250000Y-52816560D01*
X87230315Y-52883599D01*
X87213681Y-52904241D01*
X87120184Y-52997737D01*
X87024211Y-53150476D01*
X86964631Y-53320745D01*
X86964630Y-53320750D01*
X86944435Y-53499996D01*
X86944435Y-53500003D01*
X86964630Y-53679249D01*
X86964631Y-53679254D01*
X87024211Y-53849523D01*
X87120184Y-54002262D01*
X87213681Y-54095759D01*
X87247166Y-54157082D01*
X87250000Y-54183440D01*
X87250000Y-54318560D01*
X87230315Y-54385599D01*
X87177511Y-54431354D01*
X87108353Y-54441298D01*
X87044797Y-54412273D01*
X87038319Y-54406241D01*
X87002262Y-54370184D01*
X86849523Y-54274211D01*
X86679254Y-54214631D01*
X86679249Y-54214630D01*
X86500004Y-54194435D01*
X86499996Y-54194435D01*
X86320750Y-54214630D01*
X86320745Y-54214631D01*
X86150476Y-54274211D01*
X85997737Y-54370184D01*
X85870184Y-54497737D01*
X85774211Y-54650476D01*
X85714631Y-54820745D01*
X85714630Y-54820750D01*
X85694435Y-54999996D01*
X85694435Y-55000003D01*
X85714630Y-55179249D01*
X85714631Y-55179254D01*
X85774211Y-55349523D01*
X85865266Y-55494435D01*
X85870184Y-55502262D01*
X85997738Y-55629816D01*
X86061983Y-55670184D01*
X86132721Y-55714632D01*
X86150478Y-55725789D01*
X86200619Y-55743334D01*
X86320745Y-55785368D01*
X86320750Y-55785369D01*
X86499996Y-55805565D01*
X86500000Y-55805565D01*
X86500004Y-55805565D01*
X86679249Y-55785369D01*
X86679252Y-55785368D01*
X86679255Y-55785368D01*
X86849522Y-55725789D01*
X87002262Y-55629816D01*
X87038319Y-55593759D01*
X87099642Y-55560274D01*
X87169334Y-55565258D01*
X87225267Y-55607130D01*
X87249684Y-55672594D01*
X87250000Y-55681440D01*
X87250000Y-63176893D01*
X87230315Y-63243932D01*
X87177511Y-63289687D01*
X87108353Y-63299631D01*
X87044797Y-63270606D01*
X87021006Y-63242865D01*
X86952615Y-63134023D01*
X86929816Y-63097738D01*
X86802262Y-62970184D01*
X86649523Y-62874211D01*
X86479254Y-62814631D01*
X86479249Y-62814630D01*
X86300004Y-62794435D01*
X86299996Y-62794435D01*
X86120750Y-62814630D01*
X86120745Y-62814631D01*
X85950476Y-62874211D01*
X85797737Y-62970184D01*
X85670184Y-63097737D01*
X85574211Y-63250476D01*
X85514631Y-63420745D01*
X85514630Y-63420750D01*
X85494435Y-63599996D01*
X85494435Y-63600003D01*
X85514630Y-63779249D01*
X85514631Y-63779254D01*
X85574211Y-63949523D01*
X85620447Y-64023106D01*
X85670184Y-64102262D01*
X85797738Y-64229816D01*
X85869489Y-64274900D01*
X85948636Y-64324632D01*
X85950478Y-64325789D01*
X86120745Y-64385368D01*
X86120750Y-64385369D01*
X86299996Y-64405565D01*
X86300000Y-64405565D01*
X86300004Y-64405565D01*
X86479249Y-64385369D01*
X86479252Y-64385368D01*
X86479255Y-64385368D01*
X86649522Y-64325789D01*
X86802262Y-64229816D01*
X86929816Y-64102262D01*
X87021006Y-63957133D01*
X87073341Y-63910843D01*
X87142394Y-63900195D01*
X87206243Y-63928570D01*
X87244615Y-63986960D01*
X87250000Y-64023106D01*
X87250000Y-70223234D01*
X87230315Y-70290273D01*
X87177511Y-70336028D01*
X87108353Y-70345972D01*
X87044797Y-70316947D01*
X87021007Y-70289206D01*
X86969820Y-70207743D01*
X86969815Y-70207737D01*
X86842262Y-70080184D01*
X86689523Y-69984211D01*
X86519254Y-69924631D01*
X86519249Y-69924630D01*
X86340004Y-69904435D01*
X86339996Y-69904435D01*
X86160750Y-69924630D01*
X86160742Y-69924632D01*
X86066179Y-69957721D01*
X85996400Y-69961282D01*
X85935773Y-69926553D01*
X85908183Y-69881633D01*
X85865789Y-69760478D01*
X85834073Y-69710003D01*
X85769816Y-69607738D01*
X85642262Y-69480184D01*
X85537937Y-69414632D01*
X85489523Y-69384211D01*
X85319254Y-69324631D01*
X85319249Y-69324630D01*
X85140004Y-69304435D01*
X85139996Y-69304435D01*
X84960750Y-69324630D01*
X84960745Y-69324631D01*
X84790476Y-69384211D01*
X84637737Y-69480184D01*
X84510184Y-69607737D01*
X84414211Y-69760476D01*
X84354631Y-69930745D01*
X84354630Y-69930750D01*
X84334435Y-70109996D01*
X84334435Y-70110003D01*
X84354630Y-70289249D01*
X84354631Y-70289254D01*
X84414211Y-70459523D01*
X84436735Y-70495369D01*
X84510184Y-70612262D01*
X84637738Y-70739816D01*
X84790478Y-70835789D01*
X84943275Y-70889255D01*
X84960745Y-70895368D01*
X84960750Y-70895369D01*
X85139996Y-70915565D01*
X85140000Y-70915565D01*
X85140004Y-70915565D01*
X85319249Y-70895369D01*
X85319251Y-70895368D01*
X85319255Y-70895368D01*
X85413821Y-70862277D01*
X85483596Y-70858715D01*
X85544224Y-70893443D01*
X85571816Y-70938364D01*
X85614211Y-71059523D01*
X85677734Y-71160618D01*
X85710184Y-71212262D01*
X85837738Y-71339816D01*
X85990478Y-71435789D01*
X86160745Y-71495368D01*
X86160750Y-71495369D01*
X86339996Y-71515565D01*
X86340000Y-71515565D01*
X86340004Y-71515565D01*
X86519249Y-71495369D01*
X86519252Y-71495368D01*
X86519255Y-71495368D01*
X86689522Y-71435789D01*
X86842262Y-71339816D01*
X86969816Y-71212262D01*
X87021006Y-71130792D01*
X87073341Y-71084502D01*
X87142394Y-71073854D01*
X87206243Y-71102229D01*
X87244615Y-71160618D01*
X87250000Y-71196765D01*
X87250000Y-80376000D01*
X87230315Y-80443039D01*
X87177511Y-80488794D01*
X87126000Y-80500000D01*
X76578043Y-80500000D01*
X76511004Y-80480315D01*
X76473049Y-80441972D01*
X76429816Y-80373167D01*
X76302262Y-80245613D01*
X76149517Y-80149636D01*
X76149090Y-80149431D01*
X76148861Y-80149224D01*
X76143626Y-80145935D01*
X76144202Y-80145017D01*
X76097233Y-80102606D01*
X76078924Y-80035178D01*
X76099976Y-79968555D01*
X76144131Y-79930298D01*
X76143626Y-79929494D01*
X76148843Y-79926215D01*
X76149104Y-79925990D01*
X76149510Y-79925793D01*
X76149522Y-79925789D01*
X76302262Y-79829816D01*
X76429816Y-79702262D01*
X76525789Y-79549522D01*
X76585368Y-79379255D01*
X76599985Y-79249523D01*
X76605565Y-79200003D01*
X76605565Y-79199996D01*
X76585369Y-79020750D01*
X76585368Y-79020745D01*
X76552141Y-78925788D01*
X76525789Y-78850478D01*
X76429816Y-78697738D01*
X76302262Y-78570184D01*
X76269379Y-78549522D01*
X76149523Y-78474211D01*
X75979254Y-78414631D01*
X75979249Y-78414630D01*
X75800004Y-78394435D01*
X75799996Y-78394435D01*
X75620750Y-78414630D01*
X75620745Y-78414631D01*
X75450476Y-78474211D01*
X75297737Y-78570184D01*
X75170184Y-78697737D01*
X75074211Y-78850476D01*
X75014631Y-79020745D01*
X75014630Y-79020750D01*
X74994435Y-79199996D01*
X74994435Y-79200003D01*
X75014630Y-79379249D01*
X75014631Y-79379254D01*
X75074211Y-79549523D01*
X75159569Y-79685368D01*
X75170184Y-79702262D01*
X75297738Y-79829816D01*
X75361877Y-79870117D01*
X75450474Y-79925787D01*
X75450902Y-79925993D01*
X75451130Y-79926199D01*
X75456374Y-79929494D01*
X75455796Y-79930412D01*
X75502762Y-79972815D01*
X75521075Y-80040242D01*
X75500028Y-80106867D01*
X75455870Y-80145133D01*
X75456374Y-80145935D01*
X75451178Y-80149199D01*
X75450915Y-80149428D01*
X75450486Y-80149634D01*
X75297737Y-80245613D01*
X75170183Y-80373167D01*
X75126951Y-80441972D01*
X75074617Y-80488263D01*
X75021957Y-80500000D01*
X63824000Y-80500000D01*
X63756961Y-80480315D01*
X63711206Y-80427511D01*
X63700000Y-80376000D01*
X63700000Y-78199996D01*
X64494435Y-78199996D01*
X64494435Y-78200003D01*
X64514630Y-78379249D01*
X64514631Y-78379254D01*
X64574211Y-78549523D01*
X64667341Y-78697737D01*
X64670184Y-78702262D01*
X64797738Y-78829816D01*
X64950478Y-78925789D01*
X65120745Y-78985368D01*
X65120750Y-78985369D01*
X65299996Y-79005565D01*
X65300000Y-79005565D01*
X65300004Y-79005565D01*
X65479249Y-78985369D01*
X65479252Y-78985368D01*
X65479255Y-78985368D01*
X65649522Y-78925789D01*
X65690571Y-78899996D01*
X68494435Y-78899996D01*
X68494435Y-78900003D01*
X68514630Y-79079249D01*
X68514631Y-79079254D01*
X68574211Y-79249523D01*
X68655724Y-79379249D01*
X68670184Y-79402262D01*
X68797738Y-79529816D01*
X68950478Y-79625789D01*
X69120745Y-79685368D01*
X69120750Y-79685369D01*
X69299996Y-79705565D01*
X69300000Y-79705565D01*
X69300004Y-79705565D01*
X69479249Y-79685369D01*
X69479252Y-79685368D01*
X69479255Y-79685368D01*
X69649522Y-79625789D01*
X69802262Y-79529816D01*
X69929816Y-79402262D01*
X70025789Y-79249522D01*
X70085368Y-79079255D01*
X70091960Y-79020750D01*
X70105565Y-78900003D01*
X70105565Y-78899996D01*
X70085369Y-78720750D01*
X70085368Y-78720745D01*
X70025789Y-78550478D01*
X70025188Y-78549522D01*
X69940431Y-78414632D01*
X69929816Y-78397738D01*
X69802262Y-78270184D01*
X69690570Y-78200003D01*
X69649523Y-78174211D01*
X69479254Y-78114631D01*
X69479249Y-78114630D01*
X69300004Y-78094435D01*
X69299996Y-78094435D01*
X69120750Y-78114630D01*
X69120745Y-78114631D01*
X68950476Y-78174211D01*
X68797737Y-78270184D01*
X68670184Y-78397737D01*
X68574211Y-78550476D01*
X68514631Y-78720745D01*
X68514630Y-78720750D01*
X68494435Y-78899996D01*
X65690571Y-78899996D01*
X65802262Y-78829816D01*
X65929816Y-78702262D01*
X66025789Y-78549522D01*
X66085368Y-78379255D01*
X66085369Y-78379249D01*
X66105565Y-78200003D01*
X66105565Y-78199996D01*
X66085369Y-78020750D01*
X66085368Y-78020745D01*
X66025789Y-77850478D01*
X65929816Y-77697738D01*
X65802262Y-77570184D01*
X65649523Y-77474211D01*
X65479254Y-77414631D01*
X65479249Y-77414630D01*
X65300004Y-77394435D01*
X65299996Y-77394435D01*
X65120750Y-77414630D01*
X65120745Y-77414631D01*
X64950476Y-77474211D01*
X64797737Y-77570184D01*
X64670184Y-77697737D01*
X64574211Y-77850476D01*
X64514631Y-78020745D01*
X64514630Y-78020750D01*
X64494435Y-78199996D01*
X63700000Y-78199996D01*
X63700000Y-76124000D01*
X63719685Y-76056961D01*
X63772489Y-76011206D01*
X63824000Y-76000000D01*
X66383622Y-76000000D01*
X66450661Y-76019685D01*
X66496416Y-76072489D01*
X66506842Y-76110117D01*
X66514630Y-76179250D01*
X66514631Y-76179254D01*
X66574211Y-76349523D01*
X66596735Y-76385369D01*
X66670184Y-76502262D01*
X66797738Y-76629816D01*
X66950478Y-76725789D01*
X67120745Y-76785368D01*
X67120750Y-76785369D01*
X67299996Y-76805565D01*
X67300000Y-76805565D01*
X67300004Y-76805565D01*
X67479249Y-76785369D01*
X67479252Y-76785368D01*
X67479255Y-76785368D01*
X67649522Y-76725789D01*
X67802262Y-76629816D01*
X67929816Y-76502262D01*
X68025789Y-76349522D01*
X68085368Y-76179255D01*
X68089606Y-76141647D01*
X68093158Y-76110117D01*
X68120224Y-76045703D01*
X68177818Y-76006148D01*
X68216378Y-76000000D01*
X68604315Y-76000000D01*
X68671354Y-76019685D01*
X68717109Y-76072489D01*
X68727053Y-76141647D01*
X68698028Y-76205203D01*
X68645269Y-76241042D01*
X68550478Y-76274210D01*
X68397737Y-76370184D01*
X68270184Y-76497737D01*
X68174211Y-76650476D01*
X68114631Y-76820745D01*
X68114630Y-76820750D01*
X68094435Y-76999996D01*
X68094435Y-77000003D01*
X68114630Y-77179249D01*
X68114631Y-77179254D01*
X68174211Y-77349523D01*
X68215122Y-77414632D01*
X68270184Y-77502262D01*
X68397738Y-77629816D01*
X68488080Y-77686582D01*
X68505833Y-77697737D01*
X68550478Y-77725789D01*
X68720745Y-77785368D01*
X68720750Y-77785369D01*
X68899996Y-77805565D01*
X68900000Y-77805565D01*
X68900004Y-77805565D01*
X69079249Y-77785369D01*
X69079252Y-77785368D01*
X69079255Y-77785368D01*
X69249522Y-77725789D01*
X69402262Y-77629816D01*
X69529816Y-77502262D01*
X69625789Y-77349522D01*
X69685368Y-77179255D01*
X69691960Y-77120750D01*
X69705565Y-77000003D01*
X69705565Y-76999996D01*
X69685369Y-76820750D01*
X69685368Y-76820745D01*
X69680056Y-76805565D01*
X69625789Y-76650478D01*
X69529816Y-76497738D01*
X69402262Y-76370184D01*
X69331608Y-76325789D01*
X69249521Y-76274210D01*
X69154731Y-76241042D01*
X69097954Y-76200320D01*
X69072207Y-76135367D01*
X69085663Y-76066806D01*
X69134050Y-76016403D01*
X69195685Y-76000000D01*
X70704315Y-76000000D01*
X70771354Y-76019685D01*
X70817109Y-76072489D01*
X70827053Y-76141647D01*
X70798028Y-76205203D01*
X70745269Y-76241042D01*
X70650478Y-76274210D01*
X70497737Y-76370184D01*
X70370184Y-76497737D01*
X70274211Y-76650476D01*
X70214631Y-76820745D01*
X70214630Y-76820750D01*
X70194435Y-76999996D01*
X70194435Y-77000003D01*
X70214630Y-77179249D01*
X70214631Y-77179254D01*
X70274211Y-77349523D01*
X70315122Y-77414632D01*
X70370184Y-77502262D01*
X70497738Y-77629816D01*
X70588080Y-77686582D01*
X70605833Y-77697737D01*
X70650478Y-77725789D01*
X70820745Y-77785368D01*
X70820750Y-77785369D01*
X70999996Y-77805565D01*
X71000000Y-77805565D01*
X71000004Y-77805565D01*
X71179249Y-77785369D01*
X71179252Y-77785368D01*
X71179255Y-77785368D01*
X71349522Y-77725789D01*
X71502262Y-77629816D01*
X71629816Y-77502262D01*
X71725789Y-77349522D01*
X71743119Y-77299996D01*
X74594435Y-77299996D01*
X74594435Y-77300003D01*
X74614630Y-77479249D01*
X74614631Y-77479254D01*
X74674211Y-77649523D01*
X74759569Y-77785368D01*
X74770184Y-77802262D01*
X74897738Y-77929816D01*
X74988080Y-77986582D01*
X75042450Y-78020745D01*
X75050478Y-78025789D01*
X75220745Y-78085368D01*
X75220750Y-78085369D01*
X75399996Y-78105565D01*
X75400000Y-78105565D01*
X75400004Y-78105565D01*
X75579249Y-78085369D01*
X75579252Y-78085368D01*
X75579255Y-78085368D01*
X75749522Y-78025789D01*
X75902262Y-77929816D01*
X76029816Y-77802262D01*
X76125789Y-77649522D01*
X76185368Y-77479255D01*
X76185369Y-77479249D01*
X76205565Y-77300003D01*
X76205565Y-77299996D01*
X76185369Y-77120750D01*
X76185368Y-77120745D01*
X76125789Y-76950478D01*
X76029816Y-76797738D01*
X75902262Y-76670184D01*
X75838017Y-76629816D01*
X75749523Y-76574211D01*
X75579254Y-76514631D01*
X75579249Y-76514630D01*
X75400004Y-76494435D01*
X75399996Y-76494435D01*
X75220750Y-76514630D01*
X75220745Y-76514631D01*
X75050476Y-76574211D01*
X74897737Y-76670184D01*
X74770184Y-76797737D01*
X74674211Y-76950476D01*
X74614631Y-77120745D01*
X74614630Y-77120750D01*
X74594435Y-77299996D01*
X71743119Y-77299996D01*
X71785368Y-77179255D01*
X71791960Y-77120750D01*
X71805565Y-77000003D01*
X71805565Y-76999996D01*
X71785369Y-76820750D01*
X71785368Y-76820745D01*
X71780056Y-76805565D01*
X71725789Y-76650478D01*
X71629816Y-76497738D01*
X71502262Y-76370184D01*
X71431608Y-76325789D01*
X71349521Y-76274210D01*
X71254731Y-76241042D01*
X71197954Y-76200320D01*
X71172207Y-76135367D01*
X71185663Y-76066806D01*
X71234050Y-76016403D01*
X71295685Y-76000000D01*
X72000000Y-76000000D01*
X72000000Y-75999996D01*
X72394435Y-75999996D01*
X72394435Y-76000000D01*
X72414630Y-76179249D01*
X72414631Y-76179254D01*
X72474211Y-76349523D01*
X72496735Y-76385369D01*
X72570184Y-76502262D01*
X72697738Y-76629816D01*
X72850478Y-76725789D01*
X73020745Y-76785368D01*
X73020750Y-76785369D01*
X73199996Y-76805565D01*
X73200000Y-76805565D01*
X73200004Y-76805565D01*
X73379249Y-76785369D01*
X73379252Y-76785368D01*
X73379255Y-76785368D01*
X73549522Y-76725789D01*
X73702262Y-76629816D01*
X73829816Y-76502262D01*
X73925789Y-76349522D01*
X73985368Y-76179255D01*
X73989606Y-76141647D01*
X74005565Y-76000000D01*
X74005565Y-75999996D01*
X73985369Y-75820750D01*
X73985368Y-75820745D01*
X73925788Y-75650476D01*
X73894069Y-75599996D01*
X79694435Y-75599996D01*
X79694435Y-75600003D01*
X79714630Y-75779249D01*
X79714631Y-75779254D01*
X79774211Y-75949523D01*
X79841719Y-76056961D01*
X79870184Y-76102262D01*
X79997738Y-76229816D01*
X80150478Y-76325789D01*
X80218306Y-76349523D01*
X80320745Y-76385368D01*
X80320750Y-76385369D01*
X80499996Y-76405565D01*
X80500000Y-76405565D01*
X80500004Y-76405565D01*
X80679249Y-76385369D01*
X80679252Y-76385368D01*
X80679255Y-76385368D01*
X80849522Y-76325789D01*
X81002262Y-76229816D01*
X81129816Y-76102262D01*
X81225789Y-75949522D01*
X81285368Y-75779255D01*
X81305565Y-75600000D01*
X81303916Y-75585368D01*
X81285369Y-75420750D01*
X81285368Y-75420745D01*
X81265746Y-75364669D01*
X81225789Y-75250478D01*
X81203265Y-75214632D01*
X81149970Y-75129813D01*
X81129816Y-75097738D01*
X81002262Y-74970184D01*
X80849523Y-74874211D01*
X80679254Y-74814631D01*
X80679249Y-74814630D01*
X80500004Y-74794435D01*
X80499996Y-74794435D01*
X80320750Y-74814630D01*
X80320745Y-74814631D01*
X80150476Y-74874211D01*
X79997737Y-74970184D01*
X79870184Y-75097737D01*
X79774211Y-75250476D01*
X79714631Y-75420745D01*
X79714630Y-75420750D01*
X79694435Y-75599996D01*
X73894069Y-75599996D01*
X73884878Y-75585368D01*
X73829816Y-75497738D01*
X73702262Y-75370184D01*
X73702259Y-75370182D01*
X73696816Y-75365841D01*
X73697750Y-75364669D01*
X73656795Y-75318366D01*
X73646147Y-75249313D01*
X73674522Y-75185465D01*
X73703079Y-75160719D01*
X73752262Y-75129816D01*
X73879816Y-75002262D01*
X73975789Y-74849522D01*
X74035368Y-74679255D01*
X74035369Y-74679249D01*
X74055565Y-74500003D01*
X74055565Y-74499996D01*
X74044298Y-74399996D01*
X77794435Y-74399996D01*
X77794435Y-74400003D01*
X77814630Y-74579249D01*
X77814631Y-74579254D01*
X77874211Y-74749523D01*
X77915122Y-74814632D01*
X77970184Y-74902262D01*
X78097738Y-75029816D01*
X78188080Y-75086582D01*
X78205833Y-75097737D01*
X78250478Y-75125789D01*
X78350285Y-75160713D01*
X78420745Y-75185368D01*
X78420750Y-75185369D01*
X78599996Y-75205565D01*
X78600000Y-75205565D01*
X78600004Y-75205565D01*
X78779249Y-75185369D01*
X78779252Y-75185368D01*
X78779255Y-75185368D01*
X78949522Y-75125789D01*
X79102262Y-75029816D01*
X79229816Y-74902262D01*
X79325789Y-74749522D01*
X79385368Y-74579255D01*
X79385369Y-74579249D01*
X79405565Y-74400003D01*
X79405565Y-74399996D01*
X79385369Y-74220750D01*
X79385368Y-74220745D01*
X79367676Y-74170184D01*
X79325789Y-74050478D01*
X79303265Y-74014632D01*
X79229815Y-73897737D01*
X79102262Y-73770184D01*
X78949523Y-73674211D01*
X78779254Y-73614631D01*
X78779249Y-73614630D01*
X78600004Y-73594435D01*
X78599996Y-73594435D01*
X78420750Y-73614630D01*
X78420745Y-73614631D01*
X78250476Y-73674211D01*
X78097737Y-73770184D01*
X77970184Y-73897737D01*
X77874211Y-74050476D01*
X77814631Y-74220745D01*
X77814630Y-74220750D01*
X77794435Y-74399996D01*
X74044298Y-74399996D01*
X74035369Y-74320750D01*
X74035368Y-74320745D01*
X73975789Y-74150478D01*
X73879816Y-73997738D01*
X73752262Y-73870184D01*
X73599523Y-73774211D01*
X73429254Y-73714631D01*
X73429249Y-73714630D01*
X73250004Y-73694435D01*
X73249996Y-73694435D01*
X73070750Y-73714630D01*
X73070745Y-73714631D01*
X72900476Y-73774211D01*
X72747737Y-73870184D01*
X72620184Y-73997737D01*
X72524211Y-74150476D01*
X72464631Y-74320745D01*
X72464630Y-74320750D01*
X72444435Y-74499996D01*
X72444435Y-74500003D01*
X72464630Y-74679249D01*
X72464631Y-74679254D01*
X72524211Y-74849523D01*
X72620184Y-75002262D01*
X72747737Y-75129815D01*
X72753184Y-75134159D01*
X72752248Y-75135331D01*
X72793202Y-75181627D01*
X72803853Y-75250680D01*
X72775481Y-75314529D01*
X72746914Y-75339284D01*
X72697739Y-75370182D01*
X72570184Y-75497737D01*
X72474211Y-75650476D01*
X72414631Y-75820745D01*
X72414630Y-75820750D01*
X72394435Y-75999996D01*
X72000000Y-75999996D01*
X72000000Y-70199996D01*
X72694435Y-70199996D01*
X72694435Y-70200003D01*
X72714630Y-70379249D01*
X72714631Y-70379254D01*
X72774211Y-70549523D01*
X72813633Y-70612262D01*
X72870184Y-70702262D01*
X72997738Y-70829816D01*
X73049401Y-70862278D01*
X73134206Y-70915565D01*
X73150478Y-70925789D01*
X73320745Y-70985368D01*
X73320750Y-70985369D01*
X73499996Y-71005565D01*
X73500000Y-71005565D01*
X73500004Y-71005565D01*
X73679249Y-70985369D01*
X73679252Y-70985368D01*
X73679255Y-70985368D01*
X73849522Y-70925789D01*
X74002262Y-70829816D01*
X74129816Y-70702262D01*
X74225789Y-70549522D01*
X74285368Y-70379255D01*
X74289812Y-70339815D01*
X74305565Y-70200003D01*
X74305565Y-70199996D01*
X74285369Y-70020750D01*
X74285368Y-70020745D01*
X74253877Y-69930750D01*
X74225789Y-69850478D01*
X74137518Y-69709996D01*
X78534435Y-69709996D01*
X78534435Y-69710003D01*
X78554630Y-69889249D01*
X78554631Y-69889254D01*
X78614211Y-70059523D01*
X78645926Y-70109996D01*
X78710184Y-70212262D01*
X78837738Y-70339816D01*
X78990478Y-70435789D01*
X79058306Y-70459523D01*
X79160745Y-70495368D01*
X79160750Y-70495369D01*
X79339996Y-70515565D01*
X79340000Y-70515565D01*
X79340004Y-70515565D01*
X79519249Y-70495369D01*
X79519252Y-70495368D01*
X79519255Y-70495368D01*
X79689522Y-70435789D01*
X79842262Y-70339816D01*
X79969816Y-70212262D01*
X80065789Y-70059522D01*
X80125368Y-69889255D01*
X80129737Y-69850478D01*
X80145565Y-69710003D01*
X80145565Y-69709996D01*
X80125369Y-69530750D01*
X80125368Y-69530745D01*
X80084738Y-69414631D01*
X80065789Y-69360478D01*
X80043265Y-69324632D01*
X79969815Y-69207737D01*
X79842262Y-69080184D01*
X79689523Y-68984211D01*
X79519254Y-68924631D01*
X79519249Y-68924630D01*
X79340004Y-68904435D01*
X79339996Y-68904435D01*
X79160750Y-68924630D01*
X79160745Y-68924631D01*
X78990476Y-68984211D01*
X78837737Y-69080184D01*
X78710184Y-69207737D01*
X78614211Y-69360476D01*
X78554631Y-69530745D01*
X78554630Y-69530750D01*
X78534435Y-69709996D01*
X74137518Y-69709996D01*
X74129816Y-69697738D01*
X74002262Y-69570184D01*
X73849523Y-69474211D01*
X73679254Y-69414631D01*
X73679249Y-69414630D01*
X73500004Y-69394435D01*
X73499996Y-69394435D01*
X73320750Y-69414630D01*
X73320745Y-69414631D01*
X73150476Y-69474211D01*
X72997737Y-69570184D01*
X72870184Y-69697737D01*
X72774211Y-69850476D01*
X72714631Y-70020745D01*
X72714630Y-70020750D01*
X72694435Y-70199996D01*
X72000000Y-70199996D01*
X72000000Y-67909996D01*
X82534435Y-67909996D01*
X82534435Y-67910003D01*
X82554630Y-68089249D01*
X82554631Y-68089254D01*
X82614211Y-68259523D01*
X82670762Y-68349522D01*
X82710184Y-68412262D01*
X82837738Y-68539816D01*
X82990478Y-68635789D01*
X83160745Y-68695368D01*
X83160750Y-68695369D01*
X83339996Y-68715565D01*
X83340000Y-68715565D01*
X83340004Y-68715565D01*
X83519249Y-68695369D01*
X83519252Y-68695368D01*
X83519255Y-68695368D01*
X83689522Y-68635789D01*
X83842262Y-68539816D01*
X83969816Y-68412262D01*
X84065789Y-68259522D01*
X84125368Y-68089255D01*
X84133325Y-68018636D01*
X84135425Y-67999996D01*
X84894435Y-67999996D01*
X84894435Y-68000003D01*
X84914630Y-68179249D01*
X84914631Y-68179254D01*
X84974211Y-68349523D01*
X85013633Y-68412262D01*
X85070184Y-68502262D01*
X85197738Y-68629816D01*
X85207244Y-68635789D01*
X85334206Y-68715565D01*
X85350478Y-68725789D01*
X85520745Y-68785368D01*
X85520750Y-68785369D01*
X85699996Y-68805565D01*
X85700000Y-68805565D01*
X85700004Y-68805565D01*
X85879249Y-68785369D01*
X85879252Y-68785368D01*
X85879255Y-68785368D01*
X86049522Y-68725789D01*
X86202262Y-68629816D01*
X86329816Y-68502262D01*
X86425789Y-68349522D01*
X86485368Y-68179255D01*
X86485369Y-68179249D01*
X86505565Y-68000003D01*
X86505565Y-67999996D01*
X86485369Y-67820750D01*
X86485368Y-67820745D01*
X86453877Y-67730750D01*
X86425789Y-67650478D01*
X86329816Y-67497738D01*
X86202262Y-67370184D01*
X86049523Y-67274211D01*
X85879254Y-67214631D01*
X85879249Y-67214630D01*
X85700004Y-67194435D01*
X85699996Y-67194435D01*
X85520750Y-67214630D01*
X85520745Y-67214631D01*
X85350476Y-67274211D01*
X85197737Y-67370184D01*
X85070184Y-67497737D01*
X84974211Y-67650476D01*
X84914631Y-67820745D01*
X84914630Y-67820750D01*
X84894435Y-67999996D01*
X84135425Y-67999996D01*
X84145565Y-67910003D01*
X84145565Y-67909996D01*
X84125369Y-67730750D01*
X84125368Y-67730745D01*
X84065788Y-67560476D01*
X84026366Y-67497737D01*
X83969816Y-67407738D01*
X83842262Y-67280184D01*
X83737937Y-67214632D01*
X83689523Y-67184211D01*
X83519254Y-67124631D01*
X83519249Y-67124630D01*
X83340004Y-67104435D01*
X83339996Y-67104435D01*
X83160750Y-67124630D01*
X83160745Y-67124631D01*
X82990476Y-67184211D01*
X82837737Y-67280184D01*
X82710184Y-67407737D01*
X82614211Y-67560476D01*
X82554631Y-67730745D01*
X82554630Y-67730750D01*
X82534435Y-67909996D01*
X72000000Y-67909996D01*
X72000000Y-66166378D01*
X72019685Y-66099339D01*
X72072489Y-66053584D01*
X72110117Y-66043158D01*
X72179250Y-66035369D01*
X72179253Y-66035368D01*
X72179255Y-66035368D01*
X72349522Y-65975789D01*
X72502262Y-65879816D01*
X72572082Y-65809996D01*
X75234435Y-65809996D01*
X75234435Y-65810003D01*
X75254630Y-65989249D01*
X75254631Y-65989254D01*
X75314211Y-66159523D01*
X75399569Y-66295368D01*
X75410184Y-66312262D01*
X75537738Y-66439816D01*
X75690478Y-66535789D01*
X75860745Y-66595368D01*
X75860750Y-66595369D01*
X76039996Y-66615565D01*
X76040000Y-66615565D01*
X76040004Y-66615565D01*
X76219249Y-66595369D01*
X76219252Y-66595368D01*
X76219255Y-66595368D01*
X76389522Y-66535789D01*
X76542262Y-66439816D01*
X76669816Y-66312262D01*
X76765789Y-66159522D01*
X76825368Y-65989255D01*
X76825369Y-65989249D01*
X76845565Y-65810003D01*
X76845565Y-65809996D01*
X76825369Y-65630750D01*
X76825368Y-65630745D01*
X76765789Y-65460478D01*
X76765188Y-65459522D01*
X76669815Y-65307737D01*
X76542262Y-65180184D01*
X76389523Y-65084211D01*
X76219254Y-65024631D01*
X76219249Y-65024630D01*
X76040004Y-65004435D01*
X76039996Y-65004435D01*
X75860750Y-65024630D01*
X75860745Y-65024631D01*
X75690476Y-65084211D01*
X75537737Y-65180184D01*
X75410184Y-65307737D01*
X75314211Y-65460476D01*
X75254631Y-65630745D01*
X75254630Y-65630750D01*
X75234435Y-65809996D01*
X72572082Y-65809996D01*
X72629816Y-65752262D01*
X72725789Y-65599522D01*
X72785368Y-65429255D01*
X72796467Y-65330750D01*
X72805565Y-65250003D01*
X72805565Y-65249996D01*
X72785369Y-65070750D01*
X72785368Y-65070745D01*
X72763321Y-65007738D01*
X72725789Y-64900478D01*
X72713037Y-64880184D01*
X72669812Y-64811392D01*
X72629816Y-64747738D01*
X72502262Y-64620184D01*
X72482453Y-64607737D01*
X72349523Y-64524211D01*
X72179254Y-64464631D01*
X72179249Y-64464630D01*
X72000004Y-64444435D01*
X71999996Y-64444435D01*
X71820750Y-64464630D01*
X71820745Y-64464631D01*
X71650476Y-64524211D01*
X71497737Y-64620184D01*
X71370184Y-64747737D01*
X71274211Y-64900476D01*
X71214631Y-65070745D01*
X71214630Y-65070750D01*
X71194435Y-65249996D01*
X71194435Y-65250003D01*
X71214630Y-65429249D01*
X71214631Y-65429254D01*
X71274211Y-65599523D01*
X71370184Y-65752262D01*
X71406241Y-65788319D01*
X71439726Y-65849642D01*
X71434742Y-65919334D01*
X71392870Y-65975267D01*
X71327406Y-65999684D01*
X71318560Y-66000000D01*
X69847617Y-66000000D01*
X69780578Y-65980315D01*
X69734823Y-65927511D01*
X69724879Y-65858353D01*
X69738062Y-65817917D01*
X69806274Y-65689255D01*
X69890743Y-65529930D01*
X70027227Y-65187379D01*
X70125875Y-64832081D01*
X70145767Y-64710746D01*
X70185529Y-64468213D01*
X70185529Y-64468210D01*
X70185531Y-64468199D01*
X70205494Y-64100000D01*
X70205394Y-64098162D01*
X70197335Y-63949522D01*
X70185531Y-63731801D01*
X70163922Y-63599996D01*
X70125877Y-63367931D01*
X70125876Y-63367930D01*
X70125875Y-63367919D01*
X70082028Y-63209996D01*
X70027231Y-63012634D01*
X70027229Y-63012628D01*
X70027228Y-63012627D01*
X70027227Y-63012621D01*
X69890743Y-62670070D01*
X69718022Y-62344284D01*
X69511090Y-62039083D01*
X69272373Y-61758044D01*
X69133034Y-61626055D01*
X69038725Y-61536720D01*
X69003592Y-61476326D01*
X69000000Y-61446697D01*
X69000000Y-61124000D01*
X69019685Y-61056961D01*
X69072489Y-61011206D01*
X69124000Y-61000000D01*
X70500000Y-61000000D01*
X70500000Y-58599996D01*
X70794435Y-58599996D01*
X70794435Y-58600003D01*
X70814630Y-58779249D01*
X70814631Y-58779254D01*
X70874211Y-58949523D01*
X70896735Y-58985369D01*
X70970184Y-59102262D01*
X71097738Y-59229816D01*
X71250478Y-59325789D01*
X71420745Y-59385368D01*
X71420750Y-59385369D01*
X71599996Y-59405565D01*
X71600000Y-59405565D01*
X71600004Y-59405565D01*
X71779249Y-59385369D01*
X71779252Y-59385368D01*
X71779255Y-59385368D01*
X71949522Y-59325789D01*
X72102262Y-59229816D01*
X72122082Y-59209996D01*
X76284435Y-59209996D01*
X76284435Y-59210003D01*
X76304630Y-59389249D01*
X76304631Y-59389254D01*
X76364211Y-59559523D01*
X76414315Y-59639262D01*
X76460184Y-59712262D01*
X76587738Y-59839816D01*
X76633110Y-59868325D01*
X76725449Y-59926346D01*
X76740478Y-59935789D01*
X76878860Y-59984211D01*
X76910745Y-59995368D01*
X76910750Y-59995369D01*
X77089996Y-60015565D01*
X77090000Y-60015565D01*
X77090004Y-60015565D01*
X77269249Y-59995369D01*
X77269252Y-59995368D01*
X77269255Y-59995368D01*
X77439522Y-59935789D01*
X77454551Y-59926346D01*
X77481357Y-59909502D01*
X77516650Y-59887325D01*
X77583887Y-59868325D01*
X77650722Y-59888692D01*
X77687616Y-59926346D01*
X77710182Y-59962260D01*
X77710184Y-59962262D01*
X77837738Y-60089816D01*
X77990478Y-60185789D01*
X78053202Y-60207737D01*
X78160745Y-60245368D01*
X78160750Y-60245369D01*
X78339996Y-60265565D01*
X78340000Y-60265565D01*
X78340004Y-60265565D01*
X78519249Y-60245369D01*
X78519252Y-60245368D01*
X78519255Y-60245368D01*
X78689522Y-60185789D01*
X78774027Y-60132691D01*
X78841264Y-60113690D01*
X78905973Y-60132691D01*
X78990475Y-60185788D01*
X79160745Y-60245368D01*
X79160750Y-60245369D01*
X79240729Y-60254380D01*
X79305144Y-60281446D01*
X79344699Y-60339040D01*
X79346838Y-60408877D01*
X79343889Y-60418555D01*
X79304631Y-60530745D01*
X79304630Y-60530750D01*
X79284435Y-60709996D01*
X79284435Y-60710003D01*
X79304630Y-60889249D01*
X79304631Y-60889254D01*
X79364211Y-61059523D01*
X79460184Y-61212262D01*
X79483531Y-61235609D01*
X79517016Y-61296932D01*
X79512892Y-61364244D01*
X79454632Y-61530742D01*
X79454630Y-61530750D01*
X79434435Y-61709996D01*
X79434435Y-61710003D01*
X79454630Y-61889249D01*
X79454631Y-61889254D01*
X79514211Y-62059523D01*
X79610184Y-62212262D01*
X79698228Y-62300306D01*
X79731713Y-62361629D01*
X79726729Y-62431321D01*
X79684857Y-62487254D01*
X79676520Y-62492980D01*
X79537739Y-62580182D01*
X79410184Y-62707737D01*
X79314210Y-62860478D01*
X79254629Y-63030753D01*
X79253080Y-63037541D01*
X79251696Y-63037225D01*
X79227638Y-63094471D01*
X79170040Y-63134023D01*
X79117606Y-63139388D01*
X78943865Y-63119813D01*
X78943857Y-63119813D01*
X78764611Y-63140008D01*
X78764606Y-63140009D01*
X78594337Y-63199589D01*
X78441598Y-63295562D01*
X78314045Y-63423115D01*
X78218072Y-63575854D01*
X78158492Y-63746123D01*
X78158491Y-63746128D01*
X78138296Y-63925374D01*
X78138296Y-63925381D01*
X78158491Y-64104627D01*
X78158492Y-64104632D01*
X78218072Y-64274901D01*
X78286757Y-64384211D01*
X78314045Y-64427640D01*
X78441599Y-64555194D01*
X78525221Y-64607737D01*
X78551077Y-64623984D01*
X78594339Y-64651167D01*
X78681252Y-64681579D01*
X78764606Y-64710746D01*
X78764610Y-64710747D01*
X78852372Y-64720634D01*
X78906491Y-64726732D01*
X78970904Y-64753798D01*
X79010459Y-64811392D01*
X79012598Y-64881229D01*
X78980289Y-64937633D01*
X78910183Y-65007739D01*
X78814211Y-65160476D01*
X78754631Y-65330745D01*
X78754630Y-65330750D01*
X78734435Y-65509996D01*
X78734435Y-65510003D01*
X78754630Y-65689249D01*
X78754631Y-65689254D01*
X78814211Y-65859523D01*
X78836735Y-65895369D01*
X78910184Y-66012262D01*
X79037738Y-66139816D01*
X79190478Y-66235789D01*
X79360745Y-66295368D01*
X79360750Y-66295369D01*
X79539996Y-66315565D01*
X79540000Y-66315565D01*
X79540004Y-66315565D01*
X79719249Y-66295369D01*
X79719252Y-66295368D01*
X79719255Y-66295368D01*
X79889522Y-66235789D01*
X80042262Y-66139816D01*
X80169816Y-66012262D01*
X80265789Y-65859522D01*
X80325368Y-65689255D01*
X80331960Y-65630750D01*
X80345565Y-65510003D01*
X80345565Y-65509996D01*
X80325369Y-65330750D01*
X80325368Y-65330745D01*
X80265789Y-65160478D01*
X80234069Y-65109996D01*
X81034435Y-65109996D01*
X81034435Y-65110003D01*
X81054630Y-65289249D01*
X81054631Y-65289254D01*
X81114211Y-65459523D01*
X81210184Y-65612262D01*
X81337738Y-65739816D01*
X81490478Y-65835789D01*
X81558306Y-65859523D01*
X81660745Y-65895368D01*
X81660750Y-65895369D01*
X81839996Y-65915565D01*
X81840000Y-65915565D01*
X81840004Y-65915565D01*
X82019249Y-65895369D01*
X82019252Y-65895368D01*
X82019255Y-65895368D01*
X82189522Y-65835789D01*
X82342262Y-65739816D01*
X82469816Y-65612262D01*
X82565789Y-65459522D01*
X82625368Y-65289255D01*
X82629791Y-65250000D01*
X82645565Y-65110003D01*
X82645565Y-65109996D01*
X82625369Y-64930750D01*
X82625368Y-64930745D01*
X82607676Y-64880184D01*
X82565789Y-64760478D01*
X82543265Y-64724632D01*
X82497104Y-64651167D01*
X82469816Y-64607738D01*
X82342262Y-64480184D01*
X82258639Y-64427640D01*
X82189523Y-64384211D01*
X82019254Y-64324631D01*
X82019249Y-64324630D01*
X81840004Y-64304435D01*
X81839996Y-64304435D01*
X81660750Y-64324630D01*
X81660745Y-64324631D01*
X81490476Y-64384211D01*
X81337737Y-64480184D01*
X81210184Y-64607737D01*
X81114211Y-64760476D01*
X81054631Y-64930745D01*
X81054630Y-64930750D01*
X81034435Y-65109996D01*
X80234069Y-65109996D01*
X80169816Y-65007738D01*
X80042262Y-64880184D01*
X79889523Y-64784211D01*
X79719254Y-64724631D01*
X79719249Y-64724630D01*
X79577370Y-64708645D01*
X79512956Y-64681579D01*
X79473400Y-64623984D01*
X79471263Y-64554147D01*
X79503569Y-64497747D01*
X79573677Y-64427640D01*
X79669650Y-64274900D01*
X79729229Y-64104633D01*
X79729230Y-64104627D01*
X79730778Y-64097846D01*
X79732163Y-64098162D01*
X79756210Y-64040921D01*
X79813801Y-64001360D01*
X79866255Y-63995989D01*
X80039997Y-64015565D01*
X80040000Y-64015565D01*
X80040004Y-64015565D01*
X80219249Y-63995369D01*
X80219252Y-63995368D01*
X80219255Y-63995368D01*
X80389522Y-63935789D01*
X80542262Y-63839816D01*
X80669816Y-63712262D01*
X80765789Y-63559522D01*
X80825368Y-63389255D01*
X80836587Y-63289687D01*
X80845565Y-63210003D01*
X80845565Y-63209996D01*
X80825369Y-63030750D01*
X80825368Y-63030745D01*
X80765788Y-62860476D01*
X80669815Y-62707737D01*
X80581771Y-62619693D01*
X80548286Y-62558370D01*
X80553270Y-62488678D01*
X80595142Y-62432745D01*
X80603469Y-62427025D01*
X80742262Y-62339816D01*
X80869816Y-62212262D01*
X80965789Y-62059522D01*
X81025368Y-61889255D01*
X81032065Y-61829816D01*
X81045565Y-61710003D01*
X81045565Y-61709996D01*
X81025369Y-61530750D01*
X81025368Y-61530745D01*
X80972357Y-61379249D01*
X80965789Y-61360478D01*
X80869816Y-61207738D01*
X80862074Y-61199996D01*
X83694435Y-61199996D01*
X83694435Y-61200003D01*
X83714630Y-61379249D01*
X83714631Y-61379254D01*
X83774211Y-61549523D01*
X83870184Y-61702262D01*
X83997738Y-61829816D01*
X84150478Y-61925789D01*
X84320745Y-61985368D01*
X84320750Y-61985369D01*
X84499996Y-62005565D01*
X84500000Y-62005565D01*
X84500004Y-62005565D01*
X84679249Y-61985369D01*
X84679252Y-61985368D01*
X84679255Y-61985368D01*
X84849522Y-61925789D01*
X85002262Y-61829816D01*
X85129816Y-61702262D01*
X85225789Y-61549522D01*
X85285368Y-61379255D01*
X85285369Y-61379249D01*
X85305565Y-61200003D01*
X85305565Y-61199996D01*
X85285369Y-61020750D01*
X85285368Y-61020745D01*
X85239359Y-60889259D01*
X85225789Y-60850478D01*
X85129816Y-60697738D01*
X85002262Y-60570184D01*
X84849523Y-60474211D01*
X84679254Y-60414631D01*
X84679249Y-60414630D01*
X84500004Y-60394435D01*
X84499996Y-60394435D01*
X84320750Y-60414630D01*
X84320745Y-60414631D01*
X84150476Y-60474211D01*
X83997737Y-60570184D01*
X83870184Y-60697737D01*
X83774211Y-60850476D01*
X83714631Y-61020745D01*
X83714630Y-61020750D01*
X83694435Y-61199996D01*
X80862074Y-61199996D01*
X80846467Y-61184389D01*
X80812982Y-61123066D01*
X80817106Y-61055756D01*
X80875368Y-60889255D01*
X80879737Y-60850478D01*
X80895565Y-60710003D01*
X80895565Y-60709996D01*
X80875369Y-60530750D01*
X80875368Y-60530745D01*
X80834738Y-60414631D01*
X80815789Y-60360478D01*
X80719816Y-60207738D01*
X80592262Y-60080184D01*
X80489422Y-60015565D01*
X80439523Y-59984211D01*
X80269254Y-59924631D01*
X80269250Y-59924630D01*
X80189269Y-59915619D01*
X80124855Y-59888552D01*
X80085300Y-59830957D01*
X80083163Y-59761120D01*
X80086112Y-59751444D01*
X80125366Y-59639262D01*
X80125369Y-59639249D01*
X80145565Y-59460003D01*
X80145565Y-59459996D01*
X80125369Y-59280750D01*
X80125368Y-59280745D01*
X80065788Y-59110476D01*
X80026582Y-59048080D01*
X79969816Y-58957738D01*
X79842262Y-58830184D01*
X79774027Y-58787309D01*
X79689523Y-58734211D01*
X79519254Y-58674631D01*
X79519249Y-58674630D01*
X79340004Y-58654435D01*
X79339996Y-58654435D01*
X79160750Y-58674630D01*
X79160737Y-58674633D01*
X78990479Y-58734209D01*
X78905971Y-58787309D01*
X78838734Y-58806309D01*
X78774029Y-58787309D01*
X78689520Y-58734209D01*
X78519262Y-58674633D01*
X78519249Y-58674630D01*
X78340004Y-58654435D01*
X78339996Y-58654435D01*
X78160750Y-58674630D01*
X78160745Y-58674631D01*
X77990474Y-58734212D01*
X77913347Y-58782674D01*
X77846110Y-58801674D01*
X77779275Y-58781306D01*
X77742382Y-58743652D01*
X77719816Y-58707738D01*
X77592262Y-58580184D01*
X77439523Y-58484211D01*
X77269254Y-58424631D01*
X77269249Y-58424630D01*
X77090004Y-58404435D01*
X77089996Y-58404435D01*
X76910750Y-58424630D01*
X76910745Y-58424631D01*
X76740476Y-58484211D01*
X76587737Y-58580184D01*
X76460184Y-58707737D01*
X76364211Y-58860476D01*
X76304631Y-59030745D01*
X76304630Y-59030750D01*
X76284435Y-59209996D01*
X72122082Y-59209996D01*
X72229816Y-59102262D01*
X72325789Y-58949522D01*
X72385368Y-58779255D01*
X72385369Y-58779249D01*
X72405565Y-58600003D01*
X72405565Y-58599996D01*
X72385369Y-58420750D01*
X72385368Y-58420745D01*
X72325788Y-58250476D01*
X72294069Y-58199996D01*
X82594435Y-58199996D01*
X82594435Y-58200003D01*
X82614630Y-58379249D01*
X82614631Y-58379254D01*
X82674211Y-58549523D01*
X82770184Y-58702262D01*
X82897738Y-58829816D01*
X83050478Y-58925789D01*
X83141783Y-58957738D01*
X83220745Y-58985368D01*
X83220750Y-58985369D01*
X83399996Y-59005565D01*
X83400000Y-59005565D01*
X83400004Y-59005565D01*
X83579249Y-58985369D01*
X83579252Y-58985368D01*
X83579255Y-58985368D01*
X83749522Y-58925789D01*
X83902262Y-58829816D01*
X84029816Y-58702262D01*
X84125789Y-58549522D01*
X84185368Y-58379255D01*
X84205565Y-58200000D01*
X84205565Y-58199996D01*
X84184589Y-58013825D01*
X84187726Y-58013471D01*
X84191093Y-57957654D01*
X84220073Y-57912005D01*
X84221366Y-57910711D01*
X84229816Y-57902262D01*
X84325789Y-57749522D01*
X84385368Y-57579255D01*
X84391392Y-57525789D01*
X84405565Y-57400003D01*
X84405565Y-57399996D01*
X84385369Y-57220750D01*
X84385368Y-57220745D01*
X84353551Y-57129817D01*
X84325789Y-57050478D01*
X84229816Y-56897738D01*
X84102262Y-56770184D01*
X84036155Y-56728646D01*
X83949523Y-56674211D01*
X83845151Y-56637690D01*
X83788375Y-56596968D01*
X83762628Y-56532015D01*
X83776084Y-56463453D01*
X83824471Y-56413051D01*
X83872223Y-56397428D01*
X83979249Y-56385369D01*
X83979252Y-56385368D01*
X83979255Y-56385368D01*
X84149522Y-56325789D01*
X84302262Y-56229816D01*
X84429816Y-56102262D01*
X84525789Y-55949522D01*
X84585368Y-55779255D01*
X84585369Y-55779249D01*
X84605565Y-55600003D01*
X84605565Y-55599996D01*
X84585369Y-55420750D01*
X84585368Y-55420745D01*
X84525788Y-55250476D01*
X84429815Y-55097737D01*
X84302262Y-54970184D01*
X84296227Y-54966392D01*
X84198510Y-54904992D01*
X84152221Y-54852659D01*
X84141573Y-54783606D01*
X84169948Y-54719757D01*
X84198509Y-54695007D01*
X84302262Y-54629816D01*
X84429816Y-54502262D01*
X84525789Y-54349522D01*
X84585368Y-54179255D01*
X84585369Y-54179249D01*
X84605565Y-54000003D01*
X84605565Y-53999996D01*
X84585369Y-53820750D01*
X84585368Y-53820745D01*
X84563008Y-53756844D01*
X84525789Y-53650478D01*
X84429816Y-53497738D01*
X84302262Y-53370184D01*
X84246974Y-53335444D01*
X84149523Y-53274211D01*
X83979254Y-53214631D01*
X83979249Y-53214630D01*
X83800004Y-53194435D01*
X83799996Y-53194435D01*
X83620750Y-53214630D01*
X83620745Y-53214631D01*
X83450476Y-53274211D01*
X83297737Y-53370184D01*
X83170184Y-53497737D01*
X83074211Y-53650476D01*
X83014631Y-53820745D01*
X83014630Y-53820750D01*
X82994435Y-53999996D01*
X82994435Y-54000003D01*
X83014630Y-54179249D01*
X83014631Y-54179254D01*
X83074211Y-54349523D01*
X83137045Y-54449522D01*
X83170184Y-54502262D01*
X83297738Y-54629816D01*
X83352780Y-54664401D01*
X83401487Y-54695006D01*
X83447778Y-54747341D01*
X83458426Y-54816395D01*
X83430051Y-54880243D01*
X83401487Y-54904994D01*
X83297737Y-54970184D01*
X83170184Y-55097737D01*
X83074211Y-55250476D01*
X83014631Y-55420745D01*
X83014630Y-55420750D01*
X82994435Y-55599996D01*
X82994435Y-55600003D01*
X83014630Y-55779249D01*
X83014631Y-55779254D01*
X83074211Y-55949523D01*
X83137646Y-56050478D01*
X83170184Y-56102262D01*
X83297738Y-56229816D01*
X83450478Y-56325789D01*
X83554847Y-56362309D01*
X83611623Y-56403031D01*
X83637371Y-56467983D01*
X83623915Y-56536545D01*
X83575528Y-56586948D01*
X83527777Y-56602571D01*
X83420749Y-56614630D01*
X83420745Y-56614631D01*
X83250476Y-56674211D01*
X83097737Y-56770184D01*
X82970184Y-56897737D01*
X82874211Y-57050476D01*
X82814631Y-57220745D01*
X82814630Y-57220750D01*
X82794435Y-57399996D01*
X82794435Y-57400003D01*
X82815411Y-57586175D01*
X82812334Y-57586521D01*
X82808783Y-57642684D01*
X82779932Y-57687988D01*
X82770187Y-57697732D01*
X82770186Y-57697734D01*
X82674211Y-57850476D01*
X82614631Y-58020745D01*
X82614630Y-58020750D01*
X82594435Y-58199996D01*
X72294069Y-58199996D01*
X72229815Y-58097737D01*
X72102262Y-57970184D01*
X71949523Y-57874211D01*
X71779254Y-57814631D01*
X71779249Y-57814630D01*
X71600004Y-57794435D01*
X71599996Y-57794435D01*
X71420750Y-57814630D01*
X71420745Y-57814631D01*
X71250476Y-57874211D01*
X71097737Y-57970184D01*
X70970184Y-58097737D01*
X70874211Y-58250476D01*
X70814631Y-58420745D01*
X70814630Y-58420750D01*
X70794435Y-58599996D01*
X70500000Y-58599996D01*
X70500000Y-56795685D01*
X70519685Y-56728646D01*
X70572489Y-56682891D01*
X70641647Y-56672947D01*
X70705203Y-56701972D01*
X70741042Y-56754731D01*
X70774210Y-56849521D01*
X70804507Y-56897738D01*
X70870184Y-57002262D01*
X70997738Y-57129816D01*
X71086148Y-57185368D01*
X71142450Y-57220745D01*
X71150478Y-57225789D01*
X71320745Y-57285368D01*
X71320750Y-57285369D01*
X71499996Y-57305565D01*
X71500000Y-57305565D01*
X71500004Y-57305565D01*
X71679249Y-57285369D01*
X71679252Y-57285368D01*
X71679255Y-57285368D01*
X71849522Y-57225789D01*
X72002262Y-57129816D01*
X72129816Y-57002262D01*
X72129819Y-57002256D01*
X72133143Y-56998933D01*
X72194466Y-56965448D01*
X72264158Y-56970432D01*
X72320092Y-57012303D01*
X72337866Y-57045659D01*
X72374209Y-57149519D01*
X72396735Y-57185369D01*
X72470184Y-57302262D01*
X72597738Y-57429816D01*
X72750478Y-57525789D01*
X72903258Y-57579249D01*
X72920745Y-57585368D01*
X72920750Y-57585369D01*
X73099996Y-57605565D01*
X73100000Y-57605565D01*
X73100004Y-57605565D01*
X73279249Y-57585369D01*
X73279252Y-57585368D01*
X73279255Y-57585368D01*
X73449522Y-57525789D01*
X73602262Y-57429816D01*
X73729816Y-57302262D01*
X73825789Y-57149522D01*
X73885368Y-56979255D01*
X73893176Y-56909949D01*
X73920241Y-56845540D01*
X73977836Y-56805984D01*
X74047673Y-56803845D01*
X74104077Y-56836155D01*
X74197738Y-56929816D01*
X74350478Y-57025789D01*
X74520745Y-57085368D01*
X74520750Y-57085369D01*
X74699996Y-57105565D01*
X74700000Y-57105565D01*
X74700004Y-57105565D01*
X74879249Y-57085369D01*
X74879252Y-57085368D01*
X74879255Y-57085368D01*
X75049522Y-57025789D01*
X75202262Y-56929816D01*
X75329816Y-56802262D01*
X75425789Y-56649522D01*
X75485368Y-56479255D01*
X75486638Y-56467983D01*
X75505565Y-56300003D01*
X75505565Y-56299996D01*
X75485369Y-56120750D01*
X75485368Y-56120745D01*
X75425789Y-55950478D01*
X75425188Y-55949522D01*
X75329815Y-55797737D01*
X75202262Y-55670184D01*
X75049523Y-55574211D01*
X74879254Y-55514631D01*
X74879249Y-55514630D01*
X74700004Y-55494435D01*
X74699996Y-55494435D01*
X74520750Y-55514630D01*
X74520745Y-55514631D01*
X74350476Y-55574211D01*
X74197737Y-55670184D01*
X74070184Y-55797737D01*
X73974211Y-55950476D01*
X73914631Y-56120745D01*
X73914630Y-56120749D01*
X73906823Y-56190047D01*
X73879757Y-56254460D01*
X73822162Y-56294016D01*
X73752325Y-56296153D01*
X73695922Y-56263844D01*
X73602262Y-56170184D01*
X73449523Y-56074211D01*
X73279254Y-56014631D01*
X73279249Y-56014630D01*
X73100004Y-55994435D01*
X73099996Y-55994435D01*
X72920750Y-56014630D01*
X72920745Y-56014631D01*
X72750476Y-56074211D01*
X72597739Y-56170183D01*
X72466855Y-56301067D01*
X72405532Y-56334551D01*
X72335840Y-56329567D01*
X72279907Y-56287695D01*
X72262133Y-56254340D01*
X72225790Y-56150480D01*
X72225789Y-56150478D01*
X72129816Y-55997738D01*
X72002262Y-55870184D01*
X71899422Y-55805565D01*
X71849523Y-55774211D01*
X71679254Y-55714631D01*
X71679249Y-55714630D01*
X71500004Y-55694435D01*
X71499996Y-55694435D01*
X71320750Y-55714630D01*
X71320745Y-55714631D01*
X71150476Y-55774211D01*
X70997737Y-55870184D01*
X70870184Y-55997737D01*
X70774209Y-56150480D01*
X70741041Y-56245269D01*
X70700320Y-56302045D01*
X70635367Y-56327792D01*
X70566805Y-56314336D01*
X70516403Y-56265948D01*
X70500000Y-56204314D01*
X70500000Y-54731440D01*
X70519685Y-54664401D01*
X70572489Y-54618646D01*
X70641647Y-54608702D01*
X70705203Y-54637727D01*
X70711681Y-54643759D01*
X70797738Y-54729816D01*
X70800323Y-54731440D01*
X70942450Y-54820745D01*
X70950478Y-54825789D01*
X71088860Y-54874211D01*
X71120745Y-54885368D01*
X71120750Y-54885369D01*
X71299996Y-54905565D01*
X71300000Y-54905565D01*
X71300004Y-54905565D01*
X71479249Y-54885369D01*
X71479252Y-54885368D01*
X71479255Y-54885368D01*
X71649522Y-54825789D01*
X71802262Y-54729816D01*
X71929816Y-54602262D01*
X72025789Y-54449522D01*
X72085368Y-54279255D01*
X72085369Y-54279249D01*
X72105565Y-54100003D01*
X72105565Y-54099996D01*
X74194435Y-54099996D01*
X74194435Y-54100003D01*
X74214630Y-54279249D01*
X74214631Y-54279254D01*
X74274211Y-54449523D01*
X74337045Y-54549522D01*
X74370184Y-54602262D01*
X74497738Y-54729816D01*
X74500323Y-54731440D01*
X74642450Y-54820745D01*
X74650478Y-54825789D01*
X74788860Y-54874211D01*
X74820745Y-54885368D01*
X74820750Y-54885369D01*
X74999996Y-54905565D01*
X75000000Y-54905565D01*
X75000004Y-54905565D01*
X75179249Y-54885369D01*
X75179252Y-54885368D01*
X75179255Y-54885368D01*
X75349522Y-54825789D01*
X75502262Y-54729816D01*
X75629816Y-54602262D01*
X75725789Y-54449522D01*
X75785368Y-54279255D01*
X75785369Y-54279249D01*
X75805565Y-54100003D01*
X75805565Y-54099996D01*
X75785369Y-53920750D01*
X75785368Y-53920745D01*
X75725789Y-53750478D01*
X75725188Y-53749522D01*
X75662955Y-53650478D01*
X75629816Y-53597738D01*
X75502262Y-53470184D01*
X75390570Y-53400003D01*
X75390559Y-53399996D01*
X76794435Y-53399996D01*
X76794435Y-53400003D01*
X76814630Y-53579249D01*
X76814633Y-53579262D01*
X76876510Y-53756094D01*
X76874364Y-53756844D01*
X76883962Y-53815144D01*
X76875609Y-53843590D01*
X76876510Y-53843906D01*
X76814633Y-54020737D01*
X76814630Y-54020750D01*
X76794435Y-54199996D01*
X76794435Y-54200003D01*
X76814630Y-54379249D01*
X76814633Y-54379262D01*
X76876510Y-54556094D01*
X76874364Y-54556844D01*
X76883962Y-54615144D01*
X76875609Y-54643590D01*
X76876510Y-54643906D01*
X76814633Y-54820737D01*
X76814630Y-54820750D01*
X76794435Y-54999996D01*
X76794435Y-55000003D01*
X76814630Y-55179249D01*
X76814631Y-55179254D01*
X76874211Y-55349523D01*
X76970184Y-55502262D01*
X77080241Y-55612319D01*
X77113726Y-55673642D01*
X77108742Y-55743334D01*
X77080241Y-55787681D01*
X76970184Y-55897737D01*
X76874211Y-56050476D01*
X76814631Y-56220745D01*
X76814630Y-56220750D01*
X76794435Y-56399996D01*
X76794435Y-56400003D01*
X76814630Y-56579249D01*
X76814631Y-56579254D01*
X76874211Y-56749523D01*
X76937045Y-56849522D01*
X76970184Y-56902262D01*
X77097738Y-57029816D01*
X77250478Y-57125789D01*
X77318306Y-57149523D01*
X77420745Y-57185368D01*
X77420750Y-57185369D01*
X77599996Y-57205565D01*
X77600000Y-57205565D01*
X77600004Y-57205565D01*
X77779249Y-57185369D01*
X77779252Y-57185368D01*
X77779255Y-57185368D01*
X77949522Y-57125789D01*
X78102262Y-57029816D01*
X78229816Y-56902262D01*
X78325789Y-56749522D01*
X78385368Y-56579255D01*
X78385369Y-56579249D01*
X78405565Y-56400003D01*
X78405565Y-56399996D01*
X78385369Y-56220750D01*
X78385368Y-56220745D01*
X78360781Y-56150480D01*
X78325789Y-56050478D01*
X78303265Y-56014632D01*
X78262955Y-55950478D01*
X78229816Y-55897738D01*
X78119759Y-55787681D01*
X78086274Y-55726358D01*
X78091258Y-55656666D01*
X78119759Y-55612319D01*
X78171804Y-55560274D01*
X78229816Y-55502262D01*
X78325789Y-55349522D01*
X78385368Y-55179255D01*
X78405565Y-55000000D01*
X78401778Y-54966392D01*
X78385369Y-54820750D01*
X78385366Y-54820737D01*
X78323489Y-54643905D01*
X78325637Y-54643153D01*
X78316035Y-54584872D01*
X78324392Y-54556411D01*
X78323489Y-54556095D01*
X78385366Y-54379262D01*
X78385369Y-54379249D01*
X78405565Y-54200003D01*
X78405565Y-54199996D01*
X78385369Y-54020750D01*
X78385366Y-54020737D01*
X78323489Y-53843905D01*
X78325637Y-53843153D01*
X78316035Y-53784872D01*
X78324392Y-53756411D01*
X78323489Y-53756095D01*
X78385366Y-53579262D01*
X78385369Y-53579249D01*
X78405565Y-53400003D01*
X78405565Y-53399996D01*
X78385369Y-53220750D01*
X78385368Y-53220745D01*
X78376162Y-53194435D01*
X78325789Y-53050478D01*
X78229816Y-52897738D01*
X78102262Y-52770184D01*
X78031608Y-52725789D01*
X77949523Y-52674211D01*
X77779254Y-52614631D01*
X77779249Y-52614630D01*
X77600004Y-52594435D01*
X77599996Y-52594435D01*
X77420750Y-52614630D01*
X77420745Y-52614631D01*
X77250476Y-52674211D01*
X77097737Y-52770184D01*
X76970184Y-52897737D01*
X76874211Y-53050476D01*
X76814631Y-53220745D01*
X76814630Y-53220750D01*
X76794435Y-53399996D01*
X75390559Y-53399996D01*
X75349523Y-53374211D01*
X75179254Y-53314631D01*
X75179249Y-53314630D01*
X75000004Y-53294435D01*
X74999996Y-53294435D01*
X74820750Y-53314630D01*
X74820745Y-53314631D01*
X74650476Y-53374211D01*
X74497737Y-53470184D01*
X74370184Y-53597737D01*
X74274211Y-53750476D01*
X74214631Y-53920745D01*
X74214630Y-53920750D01*
X74194435Y-54099996D01*
X72105565Y-54099996D01*
X72085369Y-53920750D01*
X72085368Y-53920745D01*
X72025789Y-53750478D01*
X72025188Y-53749522D01*
X71962955Y-53650478D01*
X71929816Y-53597738D01*
X71802262Y-53470184D01*
X71690570Y-53400003D01*
X71649523Y-53374211D01*
X71479254Y-53314631D01*
X71479249Y-53314630D01*
X71300004Y-53294435D01*
X71299996Y-53294435D01*
X71120750Y-53314630D01*
X71120745Y-53314631D01*
X70950476Y-53374211D01*
X70797737Y-53470184D01*
X70711681Y-53556241D01*
X70650358Y-53589726D01*
X70580666Y-53584742D01*
X70524733Y-53542870D01*
X70500316Y-53477406D01*
X70500000Y-53468560D01*
X70500000Y-52095685D01*
X70519685Y-52028646D01*
X70572489Y-51982891D01*
X70641647Y-51972947D01*
X70705203Y-52001972D01*
X70741042Y-52054731D01*
X70774210Y-52149521D01*
X70796735Y-52185369D01*
X70870184Y-52302262D01*
X70997738Y-52429816D01*
X71150478Y-52525789D01*
X71263274Y-52565258D01*
X71320745Y-52585368D01*
X71320750Y-52585369D01*
X71499996Y-52605565D01*
X71500000Y-52605565D01*
X71500004Y-52605565D01*
X71679249Y-52585369D01*
X71679252Y-52585368D01*
X71679255Y-52585368D01*
X71849522Y-52525789D01*
X72002262Y-52429816D01*
X72129816Y-52302262D01*
X72225789Y-52149522D01*
X72285368Y-51979255D01*
X72285368Y-51979254D01*
X72287668Y-51972682D01*
X72290370Y-51973627D01*
X72318176Y-51923882D01*
X72379827Y-51891005D01*
X72449466Y-51896678D01*
X72492667Y-51924745D01*
X72597738Y-52029816D01*
X72750478Y-52125789D01*
X72818306Y-52149523D01*
X72920745Y-52185368D01*
X72920750Y-52185369D01*
X73099996Y-52205565D01*
X73100000Y-52205565D01*
X73100004Y-52205565D01*
X73149430Y-52199996D01*
X74194435Y-52199996D01*
X74194435Y-52200003D01*
X74214630Y-52379249D01*
X74214631Y-52379254D01*
X74274211Y-52549523D01*
X74315122Y-52614632D01*
X74370184Y-52702262D01*
X74497738Y-52829816D01*
X74537680Y-52854913D01*
X74616184Y-52904241D01*
X74650478Y-52925789D01*
X74751334Y-52961080D01*
X74820745Y-52985368D01*
X74820750Y-52985369D01*
X74999996Y-53005565D01*
X75000000Y-53005565D01*
X75000004Y-53005565D01*
X75179249Y-52985369D01*
X75179252Y-52985368D01*
X75179255Y-52985368D01*
X75349522Y-52925789D01*
X75502262Y-52829816D01*
X75629816Y-52702262D01*
X75725789Y-52549522D01*
X75785368Y-52379255D01*
X75794043Y-52302262D01*
X75805565Y-52200003D01*
X75805565Y-52199996D01*
X75785369Y-52020750D01*
X75785368Y-52020745D01*
X75725788Y-51850476D01*
X75629815Y-51697737D01*
X75502262Y-51570184D01*
X75349523Y-51474211D01*
X75179254Y-51414631D01*
X75179249Y-51414630D01*
X75000004Y-51394435D01*
X74999996Y-51394435D01*
X74820750Y-51414630D01*
X74820745Y-51414631D01*
X74650476Y-51474211D01*
X74497737Y-51570184D01*
X74370184Y-51697737D01*
X74274211Y-51850476D01*
X74214631Y-52020745D01*
X74214630Y-52020750D01*
X74194435Y-52199996D01*
X73149430Y-52199996D01*
X73279249Y-52185369D01*
X73279252Y-52185368D01*
X73279255Y-52185368D01*
X73449522Y-52125789D01*
X73602262Y-52029816D01*
X73729816Y-51902262D01*
X73825789Y-51749522D01*
X73885368Y-51579255D01*
X73886390Y-51570184D01*
X73905565Y-51400003D01*
X73905565Y-51399996D01*
X73885369Y-51220750D01*
X73885368Y-51220745D01*
X73860446Y-51149522D01*
X73825789Y-51050478D01*
X73803265Y-51014632D01*
X73729815Y-50897737D01*
X73602262Y-50770184D01*
X73449523Y-50674211D01*
X73279254Y-50614631D01*
X73279249Y-50614630D01*
X73100004Y-50594435D01*
X73099996Y-50594435D01*
X72920750Y-50614630D01*
X72920745Y-50614631D01*
X72750476Y-50674211D01*
X72597737Y-50770184D01*
X72470184Y-50897737D01*
X72374211Y-51050476D01*
X72312332Y-51227318D01*
X72309648Y-51226378D01*
X72281738Y-51276200D01*
X72220055Y-51309018D01*
X72150422Y-51303278D01*
X72107332Y-51275254D01*
X72002262Y-51170184D01*
X71849523Y-51074211D01*
X71679254Y-51014631D01*
X71679249Y-51014630D01*
X71500004Y-50994435D01*
X71499996Y-50994435D01*
X71320750Y-51014630D01*
X71320745Y-51014631D01*
X71150476Y-51074211D01*
X70997737Y-51170184D01*
X70870184Y-51297737D01*
X70774209Y-51450480D01*
X70741041Y-51545269D01*
X70700320Y-51602045D01*
X70635367Y-51627792D01*
X70566805Y-51614336D01*
X70516403Y-51565948D01*
X70500000Y-51504314D01*
X70500000Y-50124500D01*
X70519685Y-50057461D01*
X70572489Y-50011706D01*
X70624000Y-50000500D01*
X85728060Y-50000500D01*
X85795099Y-50020185D01*
G37*
%TD.AperFunction*%
%TD*%
M02*
