%TF.GenerationSoftware,KiCad,Pcbnew,8.0.6*%
%TF.CreationDate,2024-11-07T10:06:34+11:00*%
%TF.ProjectId,mppt-board,6d707074-2d62-46f6-9172-642e6b696361,rev?*%
%TF.SameCoordinates,Original*%
%TF.FileFunction,Copper,L2,Inr*%
%TF.FilePolarity,Positive*%
%FSLAX46Y46*%
G04 Gerber Fmt 4.6, Leading zero omitted, Abs format (unit mm)*
G04 Created by KiCad (PCBNEW 8.0.6) date 2024-11-07 10:06:34*
%MOMM*%
%LPD*%
G01*
G04 APERTURE LIST*
%TA.AperFunction,ComponentPad*%
%ADD10C,5.800000*%
%TD*%
%TA.AperFunction,ComponentPad*%
%ADD11C,6.400000*%
%TD*%
%TA.AperFunction,ComponentPad*%
%ADD12R,2.400000X2.400000*%
%TD*%
%TA.AperFunction,ComponentPad*%
%ADD13C,2.400000*%
%TD*%
%TA.AperFunction,ComponentPad*%
%ADD14R,1.700000X1.700000*%
%TD*%
%TA.AperFunction,ComponentPad*%
%ADD15O,1.700000X1.700000*%
%TD*%
%TA.AperFunction,ComponentPad*%
%ADD16C,5.520000*%
%TD*%
%TA.AperFunction,ViaPad*%
%ADD17C,0.600000*%
%TD*%
%TA.AperFunction,Conductor*%
%ADD18C,0.200000*%
%TD*%
G04 APERTURE END LIST*
D10*
%TO.N,Net-(U4--)*%
%TO.C,U4*%
X66800000Y-64100000D03*
%TO.N,VBUS*%
X66800000Y-71300000D03*
%TD*%
D11*
%TO.N,GND*%
%TO.C,H3*%
X66500000Y-84500000D03*
%TD*%
D12*
%TO.N,Net-(D1-K)*%
%TO.C,C2*%
X96000000Y-57200000D03*
D13*
%TO.N,GND*%
X91000000Y-57200000D03*
%TD*%
D11*
%TO.N,GND*%
%TO.C,H2*%
X104000000Y-54000000D03*
%TD*%
D14*
%TO.N,VCC*%
%TO.C,J2*%
X72520000Y-86100000D03*
D15*
%TO.N,/swclk*%
X75060000Y-86100000D03*
%TO.N,/swdio*%
X77600000Y-86100000D03*
%TO.N,GND*%
X80140000Y-86100000D03*
%TD*%
D11*
%TO.N,GND*%
%TO.C,H1*%
X66500000Y-54000000D03*
%TD*%
%TO.N,GND*%
%TO.C,H4*%
X104000000Y-84600000D03*
%TD*%
D16*
%TO.N,Net-(D1-K)*%
%TO.C,U5*%
X103500000Y-70800000D03*
%TO.N,GND*%
X103500000Y-63600000D03*
%TD*%
D17*
%TO.N,GND*%
X75400000Y-77300000D03*
X75800000Y-79200000D03*
X86300000Y-63600000D03*
X84500000Y-61200000D03*
X85700000Y-68000000D03*
X78600000Y-74400000D03*
X73500000Y-70200000D03*
X65300000Y-78200000D03*
X69500000Y-81700000D03*
X63500000Y-81600000D03*
X69500000Y-87400000D03*
X102400000Y-88300000D03*
X101000000Y-87700000D03*
X101100000Y-81700000D03*
X102600000Y-78400000D03*
X105800000Y-78200000D03*
X106900000Y-57000000D03*
X101100000Y-57000000D03*
X107000000Y-65200000D03*
X103500000Y-67200000D03*
X106000000Y-66400000D03*
X101000000Y-60800000D03*
X107200000Y-63600000D03*
X106400000Y-61200000D03*
%TO.N,VBUS*%
X67300000Y-76000000D03*
X69400000Y-74800000D03*
X71000000Y-77000000D03*
X69300000Y-78900000D03*
X68900000Y-77000000D03*
X86340000Y-70710000D03*
X85140000Y-70110000D03*
X83600000Y-57400000D03*
X83400000Y-58200000D03*
X77600000Y-56400000D03*
%TO.N,GND*%
X88900000Y-63500000D03*
X71500000Y-56500000D03*
X71300000Y-54100000D03*
X73100000Y-51400000D03*
X89500000Y-85200000D03*
X71500000Y-51800000D03*
X74700000Y-56300000D03*
X91000000Y-55000000D03*
X75800000Y-80875429D03*
X107000000Y-81200000D03*
X93000000Y-59500000D03*
X81840000Y-65110000D03*
X86360000Y-50800000D03*
X80500000Y-75600000D03*
X75000000Y-52200000D03*
X73200000Y-76000000D03*
X73900000Y-84000000D03*
X99500000Y-88000000D03*
X83800000Y-55600000D03*
X79540000Y-65510000D03*
X104600000Y-80200000D03*
X75000000Y-54100000D03*
X70900000Y-83600000D03*
X88250000Y-57500000D03*
X93250000Y-55250000D03*
X77600000Y-53400000D03*
X80040000Y-63210000D03*
X104800000Y-76600000D03*
X73100000Y-56800000D03*
X93250000Y-57250000D03*
X91440000Y-66040000D03*
X77600000Y-54200000D03*
X89000000Y-72000000D03*
X86500000Y-55000000D03*
X86360000Y-86360000D03*
X104000000Y-60000000D03*
X88750000Y-59750000D03*
X77600000Y-55000000D03*
X101600000Y-50800000D03*
X89800000Y-80900000D03*
X73250000Y-74500000D03*
X88750000Y-55500000D03*
X79340000Y-59460000D03*
X76040000Y-65810000D03*
X83800000Y-54000000D03*
X96520000Y-66040000D03*
X77090000Y-59210000D03*
X87750000Y-53500000D03*
X86500000Y-52000000D03*
X72000000Y-65250000D03*
X78340000Y-59460000D03*
X96520000Y-50800000D03*
X91440000Y-50800000D03*
X90000000Y-78000000D03*
X97800000Y-88100000D03*
X82700000Y-85600000D03*
X91250000Y-60000000D03*
X79340000Y-69710000D03*
X95600000Y-64700000D03*
X71600000Y-58600000D03*
X76800000Y-82800000D03*
%TO.N,VCC*%
X72840000Y-61210000D03*
X77600000Y-52200000D03*
X77600000Y-51400000D03*
%TO.N,/V_{drop}*%
X78943861Y-63925378D03*
X83340000Y-67910000D03*
%TO.N,/swdio*%
X80240000Y-61710000D03*
%TO.N,/swclk*%
X80090000Y-60710000D03*
%TD*%
D18*
%TO.N,/swclk*%
X75060000Y-83440000D02*
X75060000Y-86100000D01*
X76800000Y-81700000D02*
X75060000Y-83440000D01*
X80090000Y-60710000D02*
X76800000Y-64000000D01*
X76800000Y-64000000D02*
X76800000Y-81700000D01*
%TO.N,/swdio*%
X77600000Y-86100000D02*
X77600000Y-64350000D01*
X77600000Y-64350000D02*
X80240000Y-61710000D01*
%TD*%
%TA.AperFunction,Conductor*%
%TO.N,VBUS*%
G36*
X86358663Y-50010857D02*
G01*
X86377505Y-50001981D01*
X86396611Y-50000500D01*
X91403389Y-50000500D01*
X91438663Y-50010857D01*
X91457505Y-50001981D01*
X91476611Y-50000500D01*
X96483389Y-50000500D01*
X96518663Y-50010857D01*
X96537505Y-50001981D01*
X96556611Y-50000500D01*
X101563389Y-50000500D01*
X101598663Y-50010857D01*
X101617505Y-50001981D01*
X101636611Y-50000500D01*
X103434108Y-50000500D01*
X103497294Y-50000500D01*
X103502702Y-50000617D01*
X103886771Y-50017386D01*
X103897506Y-50018326D01*
X104275971Y-50068152D01*
X104286597Y-50070025D01*
X104659284Y-50152648D01*
X104669710Y-50155442D01*
X105033765Y-50270227D01*
X105043911Y-50273920D01*
X105396578Y-50420000D01*
X105406369Y-50424566D01*
X105646365Y-50549500D01*
X105744942Y-50600816D01*
X105754310Y-50606224D01*
X106076244Y-50811318D01*
X106085105Y-50817523D01*
X106387930Y-51049889D01*
X106396217Y-51056843D01*
X106677635Y-51314715D01*
X106685284Y-51322364D01*
X106943156Y-51603782D01*
X106950110Y-51612069D01*
X107182476Y-51914894D01*
X107188681Y-51923755D01*
X107393775Y-52245689D01*
X107399183Y-52255057D01*
X107575430Y-52593623D01*
X107580002Y-52603427D01*
X107726075Y-52956078D01*
X107729775Y-52966244D01*
X107844554Y-53330278D01*
X107847354Y-53340727D01*
X107929971Y-53713389D01*
X107931849Y-53724042D01*
X107981671Y-54102473D01*
X107982614Y-54113249D01*
X107999382Y-54497297D01*
X107999500Y-54502706D01*
X107999500Y-63563388D01*
X107989141Y-63598663D01*
X107998019Y-63617505D01*
X107999500Y-63636611D01*
X107999500Y-84161759D01*
X107999382Y-84167168D01*
X107982614Y-84551218D01*
X107981671Y-84561994D01*
X107931850Y-84940424D01*
X107929972Y-84951078D01*
X107847355Y-85323739D01*
X107844555Y-85334187D01*
X107729776Y-85698220D01*
X107726076Y-85708386D01*
X107580003Y-86061038D01*
X107575431Y-86070842D01*
X107399184Y-86409408D01*
X107393776Y-86418776D01*
X107188686Y-86740704D01*
X107182481Y-86749566D01*
X106950107Y-87052401D01*
X106943153Y-87060687D01*
X106685291Y-87342094D01*
X106677642Y-87349744D01*
X106396211Y-87607627D01*
X106387924Y-87614580D01*
X106085106Y-87846940D01*
X106076245Y-87853145D01*
X105754311Y-88058239D01*
X105744943Y-88063647D01*
X105406377Y-88239893D01*
X105396573Y-88244465D01*
X105043921Y-88390538D01*
X105033755Y-88394238D01*
X104669722Y-88509016D01*
X104659274Y-88511816D01*
X104286613Y-88594433D01*
X104275959Y-88596311D01*
X103897528Y-88646132D01*
X103886751Y-88647075D01*
X103502556Y-88663848D01*
X103497148Y-88663966D01*
X103030676Y-88663966D01*
X102963637Y-88644281D01*
X102917882Y-88591477D01*
X102907938Y-88522319D01*
X102916115Y-88492514D01*
X102927727Y-88464479D01*
X102936330Y-88443709D01*
X102955250Y-88300000D01*
X102936330Y-88156291D01*
X102909043Y-88090415D01*
X102901575Y-88020947D01*
X102932850Y-87958468D01*
X102992939Y-87922816D01*
X103062764Y-87925310D01*
X103063203Y-87925457D01*
X103075534Y-87929612D01*
X103075533Y-87929612D01*
X103170425Y-87950499D01*
X103440951Y-88010046D01*
X103812919Y-88050500D01*
X103812925Y-88050500D01*
X104187075Y-88050500D01*
X104187081Y-88050500D01*
X104559049Y-88010046D01*
X104924462Y-87929613D01*
X105279038Y-87810142D01*
X105618617Y-87653036D01*
X105779409Y-87556291D01*
X105939205Y-87460146D01*
X105939210Y-87460142D01*
X105939209Y-87460142D01*
X105939220Y-87460136D01*
X106237087Y-87233703D01*
X106508727Y-86976392D01*
X106750954Y-86691221D01*
X106960928Y-86381531D01*
X107136189Y-86050955D01*
X107274680Y-85703368D01*
X107275407Y-85700752D01*
X107305429Y-85592620D01*
X107374779Y-85342845D01*
X107435311Y-84973613D01*
X107449108Y-84719139D01*
X107455568Y-84600002D01*
X107455568Y-84599997D01*
X107435311Y-84226389D01*
X107425849Y-84168671D01*
X107374779Y-83857155D01*
X107289182Y-83548862D01*
X107274682Y-83496637D01*
X107274681Y-83496635D01*
X107136193Y-83149054D01*
X107136184Y-83149036D01*
X106960926Y-82818465D01*
X106853369Y-82659830D01*
X106750954Y-82508779D01*
X106750950Y-82508774D01*
X106750947Y-82508770D01*
X106508727Y-82223608D01*
X106237087Y-81966297D01*
X106237086Y-81966296D01*
X106147745Y-81898381D01*
X105939220Y-81739864D01*
X105939216Y-81739861D01*
X105939210Y-81739857D01*
X105939205Y-81739853D01*
X105618621Y-81546966D01*
X105618608Y-81546959D01*
X105279048Y-81389862D01*
X105279043Y-81389860D01*
X105279038Y-81389858D01*
X105106203Y-81331623D01*
X104924461Y-81270386D01*
X104604687Y-81199999D01*
X106444750Y-81199999D01*
X106444750Y-81200000D01*
X106463670Y-81343708D01*
X106463671Y-81343712D01*
X106519137Y-81477622D01*
X106519138Y-81477624D01*
X106519139Y-81477625D01*
X106607379Y-81592621D01*
X106722375Y-81680861D01*
X106856291Y-81736330D01*
X106983280Y-81753048D01*
X106999999Y-81755250D01*
X107000000Y-81755250D01*
X107000001Y-81755250D01*
X107014977Y-81753278D01*
X107143709Y-81736330D01*
X107277625Y-81680861D01*
X107392621Y-81592621D01*
X107480861Y-81477625D01*
X107536330Y-81343709D01*
X107555250Y-81200000D01*
X107536330Y-81056291D01*
X107480861Y-80922375D01*
X107392621Y-80807379D01*
X107277625Y-80719139D01*
X107277624Y-80719138D01*
X107277622Y-80719137D01*
X107143712Y-80663671D01*
X107143710Y-80663670D01*
X107143709Y-80663670D01*
X107071854Y-80654210D01*
X107000001Y-80644750D01*
X106999999Y-80644750D01*
X106856291Y-80663670D01*
X106856287Y-80663671D01*
X106722377Y-80719137D01*
X106607379Y-80807379D01*
X106519137Y-80922377D01*
X106463671Y-81056287D01*
X106463670Y-81056291D01*
X106444750Y-81199999D01*
X104604687Y-81199999D01*
X104559047Y-81189953D01*
X104187082Y-81149500D01*
X104187081Y-81149500D01*
X103812919Y-81149500D01*
X103812917Y-81149500D01*
X103440952Y-81189953D01*
X103075538Y-81270386D01*
X102820588Y-81356290D01*
X102720962Y-81389858D01*
X102720959Y-81389859D01*
X102720951Y-81389862D01*
X102381391Y-81546959D01*
X102381378Y-81546966D01*
X102060794Y-81739853D01*
X102060780Y-81739863D01*
X101841125Y-81906840D01*
X101775843Y-81931739D01*
X101707462Y-81917392D01*
X101657693Y-81868353D01*
X101642338Y-81800191D01*
X101643142Y-81791967D01*
X101655250Y-81700000D01*
X101636330Y-81556291D01*
X101586641Y-81436329D01*
X101580862Y-81422377D01*
X101580861Y-81422376D01*
X101580861Y-81422375D01*
X101492621Y-81307379D01*
X101377625Y-81219139D01*
X101377624Y-81219138D01*
X101377622Y-81219137D01*
X101243712Y-81163671D01*
X101243710Y-81163670D01*
X101243709Y-81163670D01*
X101163051Y-81153051D01*
X101100001Y-81144750D01*
X101099999Y-81144750D01*
X100956291Y-81163670D01*
X100956287Y-81163671D01*
X100822377Y-81219137D01*
X100707379Y-81307379D01*
X100619137Y-81422377D01*
X100563671Y-81556287D01*
X100563670Y-81556291D01*
X100547270Y-81680862D01*
X100544750Y-81700000D01*
X100562798Y-81837089D01*
X100563670Y-81843708D01*
X100563671Y-81843712D01*
X100619137Y-81977622D01*
X100619138Y-81977624D01*
X100619139Y-81977625D01*
X100707379Y-82092621D01*
X100822375Y-82180861D01*
X100956291Y-82236330D01*
X101100000Y-82255250D01*
X101191301Y-82243229D01*
X101260332Y-82253994D01*
X101312589Y-82300373D01*
X101331475Y-82367642D01*
X101310995Y-82434442D01*
X101301993Y-82446443D01*
X101249051Y-82508771D01*
X101249045Y-82508780D01*
X101039073Y-82818465D01*
X100863815Y-83149036D01*
X100863806Y-83149054D01*
X100725318Y-83496635D01*
X100725317Y-83496637D01*
X100625223Y-83857146D01*
X100625222Y-83857149D01*
X100564688Y-84226389D01*
X100544432Y-84599997D01*
X100544432Y-84600002D01*
X100564688Y-84973610D01*
X100593976Y-85152260D01*
X100623799Y-85334174D01*
X100625222Y-85342850D01*
X100625223Y-85342853D01*
X100725317Y-85703362D01*
X100725318Y-85703364D01*
X100863806Y-86050945D01*
X100863815Y-86050963D01*
X101039073Y-86381534D01*
X101249045Y-86691219D01*
X101249052Y-86691229D01*
X101489814Y-86974674D01*
X101491273Y-86976392D01*
X101762913Y-87233703D01*
X102060780Y-87460136D01*
X102228641Y-87561134D01*
X102275936Y-87612564D01*
X102287919Y-87681398D01*
X102260784Y-87745784D01*
X102212166Y-87781946D01*
X102122377Y-87819138D01*
X102122375Y-87819139D01*
X102007379Y-87907379D01*
X101919137Y-88022377D01*
X101863671Y-88156287D01*
X101863670Y-88156291D01*
X101850642Y-88255250D01*
X101844750Y-88300000D01*
X101854969Y-88377623D01*
X101863670Y-88443708D01*
X101863671Y-88443712D01*
X101883885Y-88492514D01*
X101891354Y-88561984D01*
X101860078Y-88624463D01*
X101799989Y-88660115D01*
X101769324Y-88663966D01*
X99904290Y-88663966D01*
X99837251Y-88644281D01*
X99791496Y-88591477D01*
X99781552Y-88522319D01*
X99810577Y-88458763D01*
X99828803Y-88441591D01*
X99845672Y-88428646D01*
X99892621Y-88392621D01*
X99980861Y-88277625D01*
X100036330Y-88143709D01*
X100055250Y-88000000D01*
X100036330Y-87856291D01*
X99980861Y-87722375D01*
X99963692Y-87700000D01*
X100444750Y-87700000D01*
X100453132Y-87763670D01*
X100463670Y-87843708D01*
X100463671Y-87843712D01*
X100519137Y-87977622D01*
X100519138Y-87977624D01*
X100519139Y-87977625D01*
X100607379Y-88092621D01*
X100722375Y-88180861D01*
X100856291Y-88236330D01*
X100983280Y-88253048D01*
X100999999Y-88255250D01*
X101000000Y-88255250D01*
X101000001Y-88255250D01*
X101014977Y-88253278D01*
X101143709Y-88236330D01*
X101277625Y-88180861D01*
X101392621Y-88092621D01*
X101480861Y-87977625D01*
X101536330Y-87843709D01*
X101555250Y-87700000D01*
X101536330Y-87556291D01*
X101480861Y-87422375D01*
X101392621Y-87307379D01*
X101277625Y-87219139D01*
X101277624Y-87219138D01*
X101277622Y-87219137D01*
X101143712Y-87163671D01*
X101143710Y-87163670D01*
X101143709Y-87163670D01*
X101071854Y-87154210D01*
X101000001Y-87144750D01*
X100999999Y-87144750D01*
X100856291Y-87163670D01*
X100856287Y-87163671D01*
X100722377Y-87219137D01*
X100607379Y-87307379D01*
X100519137Y-87422377D01*
X100463671Y-87556287D01*
X100463670Y-87556291D01*
X100450933Y-87653040D01*
X100444750Y-87700000D01*
X99963692Y-87700000D01*
X99892621Y-87607379D01*
X99777625Y-87519139D01*
X99777624Y-87519138D01*
X99777622Y-87519137D01*
X99643712Y-87463671D01*
X99643710Y-87463670D01*
X99643709Y-87463670D01*
X99571854Y-87454210D01*
X99500001Y-87444750D01*
X99499999Y-87444750D01*
X99356291Y-87463670D01*
X99356287Y-87463671D01*
X99222377Y-87519137D01*
X99107379Y-87607379D01*
X99019137Y-87722377D01*
X98963671Y-87856287D01*
X98963670Y-87856291D01*
X98950505Y-87956291D01*
X98944750Y-88000000D01*
X98957915Y-88100000D01*
X98963670Y-88143708D01*
X98963671Y-88143712D01*
X99019137Y-88277622D01*
X99019138Y-88277624D01*
X99019139Y-88277625D01*
X99107379Y-88392621D01*
X99141415Y-88418738D01*
X99171197Y-88441591D01*
X99212399Y-88498019D01*
X99216554Y-88567765D01*
X99182341Y-88628685D01*
X99120624Y-88661437D01*
X99095710Y-88663966D01*
X98312590Y-88663966D01*
X98245551Y-88644281D01*
X98199796Y-88591477D01*
X98189852Y-88522319D01*
X98214215Y-88464479D01*
X98230150Y-88443712D01*
X98280861Y-88377625D01*
X98336330Y-88243709D01*
X98355250Y-88100000D01*
X98336330Y-87956291D01*
X98292404Y-87850242D01*
X98280862Y-87822377D01*
X98280861Y-87822376D01*
X98280861Y-87822375D01*
X98192621Y-87707379D01*
X98077625Y-87619139D01*
X98077624Y-87619138D01*
X98077622Y-87619137D01*
X97943712Y-87563671D01*
X97943710Y-87563670D01*
X97943709Y-87563670D01*
X97862937Y-87553036D01*
X97800001Y-87544750D01*
X97799999Y-87544750D01*
X97656291Y-87563670D01*
X97656287Y-87563671D01*
X97522377Y-87619137D01*
X97407379Y-87707379D01*
X97319137Y-87822377D01*
X97263671Y-87956287D01*
X97263670Y-87956291D01*
X97245722Y-88092620D01*
X97244750Y-88100000D01*
X97262698Y-88236329D01*
X97263670Y-88243708D01*
X97263671Y-88243712D01*
X97319138Y-88377623D01*
X97319139Y-88377626D01*
X97385785Y-88464479D01*
X97410980Y-88529648D01*
X97396942Y-88598093D01*
X97348128Y-88648083D01*
X97287410Y-88663966D01*
X67002706Y-88663966D01*
X66997297Y-88663848D01*
X66613245Y-88647080D01*
X66602471Y-88646137D01*
X66413252Y-88621226D01*
X66224036Y-88596316D01*
X66213383Y-88594438D01*
X65840719Y-88511821D01*
X65830270Y-88509021D01*
X65466230Y-88394240D01*
X65456065Y-88390540D01*
X65424887Y-88377626D01*
X65237477Y-88299999D01*
X65103419Y-88244471D01*
X65093615Y-88239900D01*
X65086757Y-88236330D01*
X64755029Y-88063644D01*
X64745672Y-88058242D01*
X64423729Y-87853144D01*
X64414881Y-87846947D01*
X64117992Y-87619139D01*
X64112047Y-87614577D01*
X64103761Y-87607624D01*
X63822344Y-87349757D01*
X63814694Y-87342108D01*
X63556807Y-87060677D01*
X63549854Y-87052390D01*
X63317489Y-86749572D01*
X63311284Y-86740711D01*
X63303614Y-86728672D01*
X63106189Y-86418781D01*
X63100782Y-86409417D01*
X62924518Y-86070826D01*
X62919961Y-86061054D01*
X62773876Y-85708381D01*
X62770180Y-85698224D01*
X62655391Y-85334174D01*
X62652595Y-85323739D01*
X62569970Y-84951064D01*
X62568098Y-84940449D01*
X62518265Y-84561971D01*
X62517325Y-84551218D01*
X62500618Y-84168671D01*
X62500500Y-84163261D01*
X62500500Y-81600000D01*
X62944750Y-81600000D01*
X62962698Y-81736329D01*
X62963670Y-81743708D01*
X62963671Y-81743712D01*
X63019137Y-81877622D01*
X63019138Y-81877624D01*
X63019139Y-81877625D01*
X63107379Y-81992621D01*
X63222375Y-82080861D01*
X63222376Y-82080861D01*
X63222377Y-82080862D01*
X63267013Y-82099350D01*
X63356291Y-82136330D01*
X63483280Y-82153048D01*
X63499999Y-82155250D01*
X63500000Y-82155250D01*
X63500001Y-82155250D01*
X63535927Y-82150520D01*
X63643709Y-82136330D01*
X63688917Y-82117604D01*
X63758381Y-82110136D01*
X63820861Y-82141410D01*
X63856514Y-82201499D01*
X63854021Y-82271324D01*
X63830875Y-82312441D01*
X63749051Y-82408771D01*
X63749045Y-82408780D01*
X63539073Y-82718465D01*
X63363815Y-83049036D01*
X63363806Y-83049054D01*
X63225318Y-83396635D01*
X63225317Y-83396637D01*
X63125223Y-83757146D01*
X63125222Y-83757149D01*
X63064688Y-84126389D01*
X63044432Y-84499997D01*
X63044432Y-84500002D01*
X63064688Y-84873610D01*
X63094637Y-85056291D01*
X63122348Y-85225323D01*
X63125222Y-85242850D01*
X63125223Y-85242853D01*
X63225317Y-85603362D01*
X63225318Y-85603364D01*
X63363806Y-85950945D01*
X63363815Y-85950963D01*
X63539073Y-86281534D01*
X63749045Y-86591219D01*
X63749052Y-86591229D01*
X63991272Y-86876391D01*
X63991273Y-86876392D01*
X64262913Y-87133703D01*
X64560780Y-87360136D01*
X64560785Y-87360139D01*
X64560789Y-87360142D01*
X64560794Y-87360146D01*
X64881378Y-87553033D01*
X64881383Y-87553036D01*
X64881387Y-87553037D01*
X64881391Y-87553040D01*
X65158833Y-87681398D01*
X65220962Y-87710142D01*
X65575538Y-87829613D01*
X65940951Y-87910046D01*
X66312919Y-87950500D01*
X66312925Y-87950500D01*
X66687075Y-87950500D01*
X66687081Y-87950500D01*
X67059049Y-87910046D01*
X67424462Y-87829613D01*
X67779038Y-87710142D01*
X68118617Y-87553036D01*
X68273002Y-87460146D01*
X68439205Y-87360146D01*
X68439210Y-87360142D01*
X68439209Y-87360142D01*
X68439220Y-87360136D01*
X68737087Y-87133703D01*
X68770958Y-87101618D01*
X68833161Y-87069807D01*
X68902693Y-87076675D01*
X68957473Y-87120045D01*
X68980109Y-87186146D01*
X68970794Y-87239090D01*
X68963671Y-87256287D01*
X68963670Y-87256291D01*
X68949998Y-87360142D01*
X68944750Y-87400000D01*
X68953132Y-87463670D01*
X68963670Y-87543708D01*
X68963671Y-87543712D01*
X69019137Y-87677622D01*
X69019138Y-87677624D01*
X69019139Y-87677625D01*
X69107379Y-87792621D01*
X69222375Y-87880861D01*
X69356291Y-87936330D01*
X69483280Y-87953048D01*
X69499999Y-87955250D01*
X69500000Y-87955250D01*
X69500001Y-87955250D01*
X69514977Y-87953278D01*
X69643709Y-87936330D01*
X69777625Y-87880861D01*
X69892621Y-87792621D01*
X69980861Y-87677625D01*
X70036330Y-87543709D01*
X70055250Y-87400000D01*
X70036330Y-87256291D01*
X69980861Y-87122375D01*
X69892621Y-87007379D01*
X69777625Y-86919139D01*
X69777624Y-86919138D01*
X69777622Y-86919137D01*
X69643712Y-86863671D01*
X69643710Y-86863670D01*
X69643709Y-86863670D01*
X69571854Y-86854210D01*
X69500001Y-86844750D01*
X69499999Y-86844750D01*
X69356291Y-86863670D01*
X69311084Y-86882395D01*
X69241615Y-86889862D01*
X69179136Y-86858587D01*
X69143484Y-86798497D01*
X69145979Y-86728672D01*
X69169125Y-86687557D01*
X69211541Y-86637622D01*
X69250954Y-86591221D01*
X69460928Y-86281531D01*
X69636189Y-85950955D01*
X69774680Y-85603368D01*
X69775616Y-85599999D01*
X69846774Y-85343708D01*
X69874779Y-85242845D01*
X69877652Y-85225321D01*
X71419500Y-85225321D01*
X71419500Y-86974678D01*
X71434032Y-87047735D01*
X71434033Y-87047739D01*
X71434034Y-87047740D01*
X71489399Y-87130601D01*
X71538893Y-87163671D01*
X71572260Y-87185966D01*
X71572264Y-87185967D01*
X71645321Y-87200499D01*
X71645324Y-87200500D01*
X71645326Y-87200500D01*
X73394676Y-87200500D01*
X73394677Y-87200499D01*
X73467740Y-87185966D01*
X73550601Y-87130601D01*
X73605966Y-87047740D01*
X73620500Y-86974674D01*
X73620500Y-86099999D01*
X73954785Y-86099999D01*
X73954785Y-86100000D01*
X73973602Y-86303082D01*
X74029417Y-86499247D01*
X74029422Y-86499260D01*
X74120327Y-86681821D01*
X74243237Y-86844581D01*
X74393958Y-86981980D01*
X74393960Y-86981982D01*
X74434978Y-87007379D01*
X74567363Y-87089348D01*
X74757544Y-87163024D01*
X74958024Y-87200500D01*
X74958026Y-87200500D01*
X75161974Y-87200500D01*
X75161976Y-87200500D01*
X75362456Y-87163024D01*
X75552637Y-87089348D01*
X75726041Y-86981981D01*
X75861398Y-86858587D01*
X75876762Y-86844581D01*
X75876764Y-86844579D01*
X75999673Y-86681821D01*
X76090582Y-86499250D01*
X76146397Y-86303083D01*
X76165215Y-86100000D01*
X76160669Y-86050945D01*
X76146397Y-85896917D01*
X76120173Y-85804750D01*
X76090582Y-85700750D01*
X76089324Y-85698224D01*
X76036740Y-85592620D01*
X75999673Y-85518179D01*
X75876764Y-85355421D01*
X75876762Y-85355418D01*
X75726041Y-85218019D01*
X75726039Y-85218017D01*
X75552640Y-85110653D01*
X75552625Y-85110646D01*
X75489706Y-85086271D01*
X75434304Y-85043698D01*
X75410714Y-84977931D01*
X75410500Y-84970645D01*
X75410500Y-83636543D01*
X75430185Y-83569504D01*
X75446815Y-83548866D01*
X76070441Y-82925239D01*
X76131764Y-82891755D01*
X76201456Y-82896739D01*
X76257389Y-82938611D01*
X76272683Y-82965469D01*
X76319137Y-83077622D01*
X76319138Y-83077624D01*
X76319139Y-83077625D01*
X76407379Y-83192621D01*
X76522375Y-83280861D01*
X76656291Y-83336330D01*
X76783280Y-83353048D01*
X76799999Y-83355250D01*
X76800000Y-83355250D01*
X76800001Y-83355250D01*
X76814977Y-83353278D01*
X76943709Y-83336330D01*
X77077625Y-83280861D01*
X77077624Y-83280861D01*
X77078048Y-83280686D01*
X77147517Y-83273217D01*
X77209996Y-83304493D01*
X77245648Y-83364582D01*
X77249500Y-83395247D01*
X77249500Y-84970645D01*
X77229815Y-85037684D01*
X77177011Y-85083439D01*
X77170294Y-85086271D01*
X77107374Y-85110646D01*
X77107359Y-85110653D01*
X76933960Y-85218017D01*
X76933958Y-85218019D01*
X76783237Y-85355418D01*
X76660327Y-85518178D01*
X76569422Y-85700739D01*
X76569417Y-85700752D01*
X76513602Y-85896917D01*
X76494785Y-86099999D01*
X76494785Y-86100000D01*
X76513602Y-86303082D01*
X76569417Y-86499247D01*
X76569422Y-86499260D01*
X76660327Y-86681821D01*
X76783237Y-86844581D01*
X76933958Y-86981980D01*
X76933960Y-86981982D01*
X76974978Y-87007379D01*
X77107363Y-87089348D01*
X77297544Y-87163024D01*
X77498024Y-87200500D01*
X77498026Y-87200500D01*
X77701974Y-87200500D01*
X77701976Y-87200500D01*
X77902456Y-87163024D01*
X78092637Y-87089348D01*
X78266041Y-86981981D01*
X78401398Y-86858587D01*
X78416762Y-86844581D01*
X78416764Y-86844579D01*
X78539673Y-86681821D01*
X78630582Y-86499250D01*
X78686397Y-86303083D01*
X78705215Y-86100000D01*
X78705215Y-86099999D01*
X79034785Y-86099999D01*
X79034785Y-86100000D01*
X79053602Y-86303082D01*
X79109417Y-86499247D01*
X79109422Y-86499260D01*
X79200327Y-86681821D01*
X79323237Y-86844581D01*
X79473958Y-86981980D01*
X79473960Y-86981982D01*
X79514978Y-87007379D01*
X79647363Y-87089348D01*
X79837544Y-87163024D01*
X80038024Y-87200500D01*
X80038026Y-87200500D01*
X80241974Y-87200500D01*
X80241976Y-87200500D01*
X80442456Y-87163024D01*
X80632637Y-87089348D01*
X80806041Y-86981981D01*
X80941398Y-86858587D01*
X80956762Y-86844581D01*
X80956764Y-86844579D01*
X81079673Y-86681821D01*
X81170582Y-86499250D01*
X81210203Y-86359999D01*
X85804750Y-86359999D01*
X85804750Y-86360000D01*
X85823670Y-86503708D01*
X85823671Y-86503712D01*
X85879137Y-86637622D01*
X85879138Y-86637624D01*
X85879139Y-86637625D01*
X85967379Y-86752621D01*
X86082375Y-86840861D01*
X86216291Y-86896330D01*
X86343280Y-86913048D01*
X86359999Y-86915250D01*
X86360000Y-86915250D01*
X86360001Y-86915250D01*
X86374977Y-86913278D01*
X86503709Y-86896330D01*
X86637625Y-86840861D01*
X86752621Y-86752621D01*
X86840861Y-86637625D01*
X86896330Y-86503709D01*
X86915250Y-86360000D01*
X86896330Y-86216291D01*
X86859350Y-86127013D01*
X86840862Y-86082377D01*
X86840861Y-86082376D01*
X86840861Y-86082375D01*
X86752621Y-85967379D01*
X86637625Y-85879139D01*
X86637624Y-85879138D01*
X86637622Y-85879137D01*
X86503712Y-85823671D01*
X86503710Y-85823670D01*
X86503709Y-85823670D01*
X86431854Y-85814210D01*
X86360001Y-85804750D01*
X86359999Y-85804750D01*
X86216291Y-85823670D01*
X86216287Y-85823671D01*
X86082377Y-85879137D01*
X85967379Y-85967379D01*
X85879137Y-86082377D01*
X85823671Y-86216287D01*
X85823670Y-86216291D01*
X85804750Y-86359999D01*
X81210203Y-86359999D01*
X81226397Y-86303083D01*
X81245215Y-86100000D01*
X81240669Y-86050945D01*
X81226397Y-85896917D01*
X81200173Y-85804750D01*
X81170582Y-85700750D01*
X81169324Y-85698224D01*
X81120415Y-85600000D01*
X82144750Y-85600000D01*
X82162698Y-85736329D01*
X82163670Y-85743708D01*
X82163671Y-85743712D01*
X82219137Y-85877622D01*
X82219138Y-85877624D01*
X82219139Y-85877625D01*
X82307379Y-85992621D01*
X82422375Y-86080861D01*
X82556291Y-86136330D01*
X82683280Y-86153048D01*
X82699999Y-86155250D01*
X82700000Y-86155250D01*
X82700001Y-86155250D01*
X82714977Y-86153278D01*
X82843709Y-86136330D01*
X82977625Y-86080861D01*
X83092621Y-85992621D01*
X83180861Y-85877625D01*
X83236330Y-85743709D01*
X83255250Y-85600000D01*
X83236330Y-85456291D01*
X83180861Y-85322375D01*
X83092621Y-85207379D01*
X83083005Y-85200000D01*
X88944750Y-85200000D01*
X88962416Y-85334187D01*
X88963670Y-85343708D01*
X88963671Y-85343712D01*
X89019137Y-85477622D01*
X89019138Y-85477624D01*
X89019139Y-85477625D01*
X89107379Y-85592621D01*
X89222375Y-85680861D01*
X89356291Y-85736330D01*
X89483280Y-85753048D01*
X89499999Y-85755250D01*
X89500000Y-85755250D01*
X89500001Y-85755250D01*
X89514977Y-85753278D01*
X89643709Y-85736330D01*
X89777625Y-85680861D01*
X89892621Y-85592621D01*
X89980861Y-85477625D01*
X90036330Y-85343709D01*
X90055250Y-85200000D01*
X90036330Y-85056291D01*
X89980861Y-84922375D01*
X89892621Y-84807379D01*
X89777625Y-84719139D01*
X89777624Y-84719138D01*
X89777622Y-84719137D01*
X89643712Y-84663671D01*
X89643710Y-84663670D01*
X89643709Y-84663670D01*
X89571854Y-84654210D01*
X89500001Y-84644750D01*
X89499999Y-84644750D01*
X89356291Y-84663670D01*
X89356287Y-84663671D01*
X89222377Y-84719137D01*
X89107379Y-84807379D01*
X89019137Y-84922377D01*
X88963671Y-85056287D01*
X88963670Y-85056291D01*
X88944750Y-85200000D01*
X83083005Y-85200000D01*
X82977625Y-85119139D01*
X82977624Y-85119138D01*
X82977622Y-85119137D01*
X82843712Y-85063671D01*
X82843710Y-85063670D01*
X82843709Y-85063670D01*
X82771854Y-85054210D01*
X82700001Y-85044750D01*
X82699999Y-85044750D01*
X82556291Y-85063670D01*
X82556287Y-85063671D01*
X82422377Y-85119137D01*
X82307379Y-85207379D01*
X82219137Y-85322377D01*
X82163671Y-85456287D01*
X82163670Y-85456291D01*
X82145722Y-85592620D01*
X82144750Y-85600000D01*
X81120415Y-85600000D01*
X81116740Y-85592620D01*
X81079673Y-85518179D01*
X80956764Y-85355421D01*
X80956762Y-85355418D01*
X80806041Y-85218019D01*
X80806039Y-85218017D01*
X80632642Y-85110655D01*
X80632639Y-85110653D01*
X80632637Y-85110652D01*
X80632636Y-85110651D01*
X80632635Y-85110651D01*
X80511364Y-85063671D01*
X80442456Y-85036976D01*
X80241976Y-84999500D01*
X80038024Y-84999500D01*
X79837544Y-85036976D01*
X79837541Y-85036976D01*
X79837541Y-85036977D01*
X79647364Y-85110651D01*
X79647357Y-85110655D01*
X79473960Y-85218017D01*
X79473958Y-85218019D01*
X79323237Y-85355418D01*
X79200327Y-85518178D01*
X79109422Y-85700739D01*
X79109417Y-85700752D01*
X79053602Y-85896917D01*
X79034785Y-86099999D01*
X78705215Y-86099999D01*
X78700669Y-86050945D01*
X78686397Y-85896917D01*
X78660173Y-85804750D01*
X78630582Y-85700750D01*
X78629324Y-85698224D01*
X78576740Y-85592620D01*
X78539673Y-85518179D01*
X78416764Y-85355421D01*
X78416762Y-85355418D01*
X78266041Y-85218019D01*
X78266039Y-85218017D01*
X78092640Y-85110653D01*
X78092625Y-85110646D01*
X78029706Y-85086271D01*
X77974304Y-85043698D01*
X77950714Y-84977931D01*
X77950500Y-84970645D01*
X77950500Y-80899999D01*
X89244750Y-80899999D01*
X89244750Y-80900000D01*
X89263670Y-81043708D01*
X89263671Y-81043712D01*
X89319137Y-81177622D01*
X89319138Y-81177624D01*
X89319139Y-81177625D01*
X89407379Y-81292621D01*
X89522375Y-81380861D01*
X89522376Y-81380861D01*
X89522377Y-81380862D01*
X89567013Y-81399350D01*
X89656291Y-81436330D01*
X89783280Y-81453048D01*
X89799999Y-81455250D01*
X89800000Y-81455250D01*
X89800001Y-81455250D01*
X89814977Y-81453278D01*
X89943709Y-81436330D01*
X90077625Y-81380861D01*
X90192621Y-81292621D01*
X90280861Y-81177625D01*
X90336330Y-81043709D01*
X90355250Y-80900000D01*
X90336330Y-80756291D01*
X90280861Y-80622375D01*
X90192621Y-80507379D01*
X90077625Y-80419139D01*
X90077624Y-80419138D01*
X90077622Y-80419137D01*
X89943712Y-80363671D01*
X89943710Y-80363670D01*
X89943709Y-80363670D01*
X89871854Y-80354210D01*
X89800001Y-80344750D01*
X89799999Y-80344750D01*
X89656291Y-80363670D01*
X89656287Y-80363671D01*
X89522377Y-80419137D01*
X89407379Y-80507379D01*
X89319137Y-80622377D01*
X89263671Y-80756287D01*
X89263670Y-80756291D01*
X89244750Y-80899999D01*
X77950500Y-80899999D01*
X77950500Y-80199999D01*
X104044750Y-80199999D01*
X104044750Y-80200000D01*
X104063670Y-80343708D01*
X104063671Y-80343712D01*
X104119137Y-80477622D01*
X104119138Y-80477624D01*
X104119139Y-80477625D01*
X104207379Y-80592621D01*
X104322375Y-80680861D01*
X104456291Y-80736330D01*
X104583280Y-80753048D01*
X104599999Y-80755250D01*
X104600000Y-80755250D01*
X104600001Y-80755250D01*
X104614977Y-80753278D01*
X104743709Y-80736330D01*
X104877625Y-80680861D01*
X104992621Y-80592621D01*
X105080861Y-80477625D01*
X105136330Y-80343709D01*
X105155250Y-80200000D01*
X105136330Y-80056291D01*
X105080861Y-79922375D01*
X104992621Y-79807379D01*
X104877625Y-79719139D01*
X104877624Y-79719138D01*
X104877622Y-79719137D01*
X104743712Y-79663671D01*
X104743710Y-79663670D01*
X104743709Y-79663670D01*
X104671854Y-79654210D01*
X104600001Y-79644750D01*
X104599999Y-79644750D01*
X104456291Y-79663670D01*
X104456287Y-79663671D01*
X104322377Y-79719137D01*
X104207379Y-79807379D01*
X104119137Y-79922377D01*
X104063671Y-80056287D01*
X104063670Y-80056291D01*
X104044750Y-80199999D01*
X77950500Y-80199999D01*
X77950500Y-78000000D01*
X89444750Y-78000000D01*
X89452160Y-78056287D01*
X89463670Y-78143708D01*
X89463671Y-78143712D01*
X89519137Y-78277622D01*
X89519138Y-78277624D01*
X89519139Y-78277625D01*
X89607379Y-78392621D01*
X89722375Y-78480861D01*
X89856291Y-78536330D01*
X89983280Y-78553048D01*
X89999999Y-78555250D01*
X90000000Y-78555250D01*
X90000001Y-78555250D01*
X90014977Y-78553278D01*
X90143709Y-78536330D01*
X90277625Y-78480861D01*
X90383005Y-78400000D01*
X102044750Y-78400000D01*
X102062698Y-78536329D01*
X102063670Y-78543708D01*
X102063671Y-78543712D01*
X102119137Y-78677622D01*
X102119138Y-78677624D01*
X102119139Y-78677625D01*
X102207379Y-78792621D01*
X102322375Y-78880861D01*
X102322376Y-78880861D01*
X102322377Y-78880862D01*
X102367013Y-78899350D01*
X102456291Y-78936330D01*
X102583280Y-78953048D01*
X102599999Y-78955250D01*
X102600000Y-78955250D01*
X102600001Y-78955250D01*
X102614977Y-78953278D01*
X102743709Y-78936330D01*
X102877625Y-78880861D01*
X102992621Y-78792621D01*
X103080861Y-78677625D01*
X103136330Y-78543709D01*
X103155250Y-78400000D01*
X103136330Y-78256291D01*
X103113014Y-78200000D01*
X105244750Y-78200000D01*
X105252160Y-78256287D01*
X105263670Y-78343708D01*
X105263671Y-78343712D01*
X105319137Y-78477622D01*
X105319138Y-78477624D01*
X105319139Y-78477625D01*
X105407379Y-78592621D01*
X105522375Y-78680861D01*
X105656291Y-78736330D01*
X105783280Y-78753048D01*
X105799999Y-78755250D01*
X105800000Y-78755250D01*
X105800001Y-78755250D01*
X105814977Y-78753278D01*
X105943709Y-78736330D01*
X106077625Y-78680861D01*
X106192621Y-78592621D01*
X106280861Y-78477625D01*
X106336330Y-78343709D01*
X106355250Y-78200000D01*
X106336330Y-78056291D01*
X106280861Y-77922375D01*
X106192621Y-77807379D01*
X106077625Y-77719139D01*
X106077624Y-77719138D01*
X106077622Y-77719137D01*
X105943712Y-77663671D01*
X105943710Y-77663670D01*
X105943709Y-77663670D01*
X105871854Y-77654210D01*
X105800001Y-77644750D01*
X105799999Y-77644750D01*
X105656291Y-77663670D01*
X105656287Y-77663671D01*
X105522377Y-77719137D01*
X105407379Y-77807379D01*
X105319137Y-77922377D01*
X105263671Y-78056287D01*
X105263670Y-78056291D01*
X105244750Y-78200000D01*
X103113014Y-78200000D01*
X103080861Y-78122375D01*
X102992621Y-78007379D01*
X102877625Y-77919139D01*
X102877624Y-77919138D01*
X102877622Y-77919137D01*
X102743712Y-77863671D01*
X102743710Y-77863670D01*
X102743709Y-77863670D01*
X102671854Y-77854210D01*
X102600001Y-77844750D01*
X102599999Y-77844750D01*
X102456291Y-77863670D01*
X102456287Y-77863671D01*
X102322377Y-77919137D01*
X102207379Y-78007379D01*
X102119137Y-78122377D01*
X102063671Y-78256287D01*
X102063670Y-78256291D01*
X102045722Y-78392620D01*
X102044750Y-78400000D01*
X90383005Y-78400000D01*
X90392621Y-78392621D01*
X90480861Y-78277625D01*
X90536330Y-78143709D01*
X90555250Y-78000000D01*
X90536330Y-77856291D01*
X90480861Y-77722375D01*
X90392621Y-77607379D01*
X90277625Y-77519139D01*
X90277624Y-77519138D01*
X90277622Y-77519137D01*
X90143712Y-77463671D01*
X90143710Y-77463670D01*
X90143709Y-77463670D01*
X90071854Y-77454210D01*
X90000001Y-77444750D01*
X89999999Y-77444750D01*
X89856291Y-77463670D01*
X89856287Y-77463671D01*
X89722377Y-77519137D01*
X89607379Y-77607379D01*
X89519137Y-77722377D01*
X89463671Y-77856287D01*
X89463670Y-77856291D01*
X89444750Y-78000000D01*
X77950500Y-78000000D01*
X77950500Y-76599999D01*
X104244750Y-76599999D01*
X104244750Y-76600000D01*
X104263670Y-76743708D01*
X104263671Y-76743712D01*
X104319137Y-76877622D01*
X104319138Y-76877624D01*
X104319139Y-76877625D01*
X104407379Y-76992621D01*
X104522375Y-77080861D01*
X104656291Y-77136330D01*
X104783280Y-77153048D01*
X104799999Y-77155250D01*
X104800000Y-77155250D01*
X104800001Y-77155250D01*
X104814977Y-77153278D01*
X104943709Y-77136330D01*
X105077625Y-77080861D01*
X105192621Y-76992621D01*
X105280861Y-76877625D01*
X105336330Y-76743709D01*
X105355250Y-76600000D01*
X105336330Y-76456291D01*
X105280861Y-76322375D01*
X105192621Y-76207379D01*
X105077625Y-76119139D01*
X105077624Y-76119138D01*
X105077622Y-76119137D01*
X104943712Y-76063671D01*
X104943710Y-76063670D01*
X104943709Y-76063670D01*
X104871854Y-76054210D01*
X104800001Y-76044750D01*
X104799999Y-76044750D01*
X104656291Y-76063670D01*
X104656287Y-76063671D01*
X104522377Y-76119137D01*
X104407379Y-76207379D01*
X104319137Y-76322377D01*
X104263671Y-76456287D01*
X104263670Y-76456291D01*
X104244750Y-76599999D01*
X77950500Y-76599999D01*
X77950500Y-75599999D01*
X79944750Y-75599999D01*
X79944750Y-75600000D01*
X79963670Y-75743708D01*
X79963671Y-75743712D01*
X80019137Y-75877622D01*
X80019138Y-75877624D01*
X80019139Y-75877625D01*
X80107379Y-75992621D01*
X80222375Y-76080861D01*
X80356291Y-76136330D01*
X80483280Y-76153048D01*
X80499999Y-76155250D01*
X80500000Y-76155250D01*
X80500001Y-76155250D01*
X80514977Y-76153278D01*
X80643709Y-76136330D01*
X80777625Y-76080861D01*
X80892621Y-75992621D01*
X80980861Y-75877625D01*
X81036330Y-75743709D01*
X81055250Y-75600000D01*
X81036330Y-75456291D01*
X80980861Y-75322375D01*
X80892621Y-75207379D01*
X80777625Y-75119139D01*
X80777624Y-75119138D01*
X80777622Y-75119137D01*
X80643712Y-75063671D01*
X80643710Y-75063670D01*
X80643709Y-75063670D01*
X80571854Y-75054210D01*
X80500001Y-75044750D01*
X80499999Y-75044750D01*
X80356291Y-75063670D01*
X80356287Y-75063671D01*
X80222377Y-75119137D01*
X80107379Y-75207379D01*
X80019137Y-75322377D01*
X79963671Y-75456287D01*
X79963670Y-75456291D01*
X79944750Y-75599999D01*
X77950500Y-75599999D01*
X77950500Y-74823141D01*
X77970185Y-74756102D01*
X78022989Y-74710347D01*
X78092147Y-74700403D01*
X78155703Y-74729428D01*
X78172871Y-74747650D01*
X78207379Y-74792621D01*
X78322375Y-74880861D01*
X78322376Y-74880861D01*
X78322377Y-74880862D01*
X78367013Y-74899350D01*
X78456291Y-74936330D01*
X78583280Y-74953048D01*
X78599999Y-74955250D01*
X78600000Y-74955250D01*
X78600001Y-74955250D01*
X78614977Y-74953278D01*
X78743709Y-74936330D01*
X78877625Y-74880861D01*
X78992621Y-74792621D01*
X79080861Y-74677625D01*
X79136330Y-74543709D01*
X79155250Y-74400000D01*
X79136330Y-74256291D01*
X79080861Y-74122375D01*
X78992621Y-74007379D01*
X78877625Y-73919139D01*
X78877624Y-73919138D01*
X78877622Y-73919137D01*
X78743712Y-73863671D01*
X78743710Y-73863670D01*
X78743709Y-73863670D01*
X78671854Y-73854210D01*
X78600001Y-73844750D01*
X78599999Y-73844750D01*
X78456291Y-73863670D01*
X78456287Y-73863671D01*
X78322377Y-73919137D01*
X78288998Y-73944750D01*
X78207379Y-74007379D01*
X78207378Y-74007380D01*
X78207377Y-74007381D01*
X78172875Y-74052345D01*
X78116447Y-74093547D01*
X78046701Y-74097702D01*
X77985781Y-74063489D01*
X77953029Y-74001772D01*
X77950500Y-73976858D01*
X77950500Y-71999999D01*
X88444750Y-71999999D01*
X88444750Y-72000000D01*
X88463670Y-72143708D01*
X88463671Y-72143712D01*
X88519137Y-72277622D01*
X88519138Y-72277624D01*
X88519139Y-72277625D01*
X88607379Y-72392621D01*
X88722375Y-72480861D01*
X88856291Y-72536330D01*
X88983280Y-72553048D01*
X88999999Y-72555250D01*
X89000000Y-72555250D01*
X89000001Y-72555250D01*
X89014977Y-72553278D01*
X89143709Y-72536330D01*
X89277625Y-72480861D01*
X89392621Y-72392621D01*
X89480861Y-72277625D01*
X89536330Y-72143709D01*
X89555250Y-72000000D01*
X89536330Y-71856291D01*
X89480861Y-71722375D01*
X89392621Y-71607379D01*
X89277625Y-71519139D01*
X89277624Y-71519138D01*
X89277622Y-71519137D01*
X89143712Y-71463671D01*
X89143710Y-71463670D01*
X89143709Y-71463670D01*
X89071854Y-71454210D01*
X89000001Y-71444750D01*
X88999999Y-71444750D01*
X88856291Y-71463670D01*
X88856287Y-71463671D01*
X88722377Y-71519137D01*
X88607379Y-71607379D01*
X88519137Y-71722377D01*
X88463671Y-71856287D01*
X88463670Y-71856291D01*
X88444750Y-71999999D01*
X77950500Y-71999999D01*
X77950500Y-69710000D01*
X78784750Y-69710000D01*
X78797570Y-69807379D01*
X78803670Y-69853708D01*
X78803671Y-69853712D01*
X78859137Y-69987622D01*
X78859138Y-69987624D01*
X78859139Y-69987625D01*
X78947379Y-70102621D01*
X79062375Y-70190861D01*
X79196291Y-70246330D01*
X79323280Y-70263048D01*
X79339999Y-70265250D01*
X79340000Y-70265250D01*
X79340001Y-70265250D01*
X79354977Y-70263278D01*
X79483709Y-70246330D01*
X79617625Y-70190861D01*
X79732621Y-70102621D01*
X79820861Y-69987625D01*
X79876330Y-69853709D01*
X79895250Y-69710000D01*
X79876330Y-69566291D01*
X79820861Y-69432375D01*
X79732621Y-69317379D01*
X79617625Y-69229139D01*
X79617624Y-69229138D01*
X79617622Y-69229137D01*
X79483712Y-69173671D01*
X79483710Y-69173670D01*
X79483709Y-69173670D01*
X79411854Y-69164210D01*
X79340001Y-69154750D01*
X79339999Y-69154750D01*
X79196291Y-69173670D01*
X79196287Y-69173671D01*
X79062377Y-69229137D01*
X78947379Y-69317379D01*
X78859137Y-69432377D01*
X78803671Y-69566287D01*
X78803670Y-69566291D01*
X78790850Y-69663670D01*
X78784750Y-69710000D01*
X77950500Y-69710000D01*
X77950500Y-67909999D01*
X82784750Y-67909999D01*
X82784750Y-67910000D01*
X82803670Y-68053708D01*
X82803671Y-68053712D01*
X82859137Y-68187622D01*
X82859138Y-68187624D01*
X82859139Y-68187625D01*
X82947379Y-68302621D01*
X83062375Y-68390861D01*
X83062376Y-68390861D01*
X83062377Y-68390862D01*
X83066624Y-68392621D01*
X83196291Y-68446330D01*
X83323280Y-68463048D01*
X83339999Y-68465250D01*
X83340000Y-68465250D01*
X83340001Y-68465250D01*
X83354977Y-68463278D01*
X83483709Y-68446330D01*
X83617625Y-68390861D01*
X83732621Y-68302621D01*
X83820861Y-68187625D01*
X83876330Y-68053709D01*
X83883401Y-68000000D01*
X85144750Y-68000000D01*
X85155724Y-68083358D01*
X85163670Y-68143708D01*
X85163671Y-68143712D01*
X85219137Y-68277622D01*
X85219138Y-68277624D01*
X85219139Y-68277625D01*
X85307379Y-68392621D01*
X85422375Y-68480861D01*
X85556291Y-68536330D01*
X85683280Y-68553048D01*
X85699999Y-68555250D01*
X85700000Y-68555250D01*
X85700001Y-68555250D01*
X85714977Y-68553278D01*
X85843709Y-68536330D01*
X85977625Y-68480861D01*
X86092621Y-68392621D01*
X86180861Y-68277625D01*
X86236330Y-68143709D01*
X86255250Y-68000000D01*
X86236330Y-67856291D01*
X86180861Y-67722375D01*
X86092621Y-67607379D01*
X85977625Y-67519139D01*
X85977624Y-67519138D01*
X85977622Y-67519137D01*
X85843712Y-67463671D01*
X85843710Y-67463670D01*
X85843709Y-67463670D01*
X85771854Y-67454210D01*
X85700001Y-67444750D01*
X85699999Y-67444750D01*
X85556291Y-67463670D01*
X85556287Y-67463671D01*
X85422377Y-67519137D01*
X85307379Y-67607379D01*
X85219137Y-67722377D01*
X85163671Y-67856287D01*
X85163670Y-67856291D01*
X85150812Y-67953959D01*
X85144750Y-68000000D01*
X83883401Y-68000000D01*
X83895250Y-67910000D01*
X83893933Y-67900000D01*
X83888714Y-67860354D01*
X83876330Y-67766291D01*
X83820861Y-67632375D01*
X83732621Y-67517379D01*
X83617625Y-67429139D01*
X83617624Y-67429138D01*
X83617622Y-67429137D01*
X83483712Y-67373671D01*
X83483710Y-67373670D01*
X83483709Y-67373670D01*
X83411854Y-67364210D01*
X83340001Y-67354750D01*
X83339999Y-67354750D01*
X83196291Y-67373670D01*
X83196287Y-67373671D01*
X83062377Y-67429137D01*
X82947379Y-67517379D01*
X82859137Y-67632377D01*
X82803671Y-67766287D01*
X82803670Y-67766291D01*
X82784750Y-67909999D01*
X77950500Y-67909999D01*
X77950500Y-65510000D01*
X78984750Y-65510000D01*
X79002698Y-65646329D01*
X79003670Y-65653708D01*
X79003671Y-65653712D01*
X79059137Y-65787622D01*
X79059138Y-65787624D01*
X79059139Y-65787625D01*
X79147379Y-65902621D01*
X79262375Y-65990861D01*
X79262376Y-65990861D01*
X79262377Y-65990862D01*
X79279552Y-65997976D01*
X79396291Y-66046330D01*
X79523280Y-66063048D01*
X79539999Y-66065250D01*
X79540000Y-66065250D01*
X79540001Y-66065250D01*
X79554977Y-66063278D01*
X79683709Y-66046330D01*
X79698991Y-66040000D01*
X90884750Y-66040000D01*
X90899637Y-66153079D01*
X90903670Y-66183708D01*
X90903671Y-66183712D01*
X90959137Y-66317622D01*
X90959138Y-66317624D01*
X90959139Y-66317625D01*
X91047379Y-66432621D01*
X91162375Y-66520861D01*
X91296291Y-66576330D01*
X91423280Y-66593048D01*
X91439999Y-66595250D01*
X91440000Y-66595250D01*
X91440001Y-66595250D01*
X91454977Y-66593278D01*
X91583709Y-66576330D01*
X91717625Y-66520861D01*
X91832621Y-66432621D01*
X91920861Y-66317625D01*
X91976330Y-66183709D01*
X91995250Y-66040000D01*
X95964750Y-66040000D01*
X95979637Y-66153079D01*
X95983670Y-66183708D01*
X95983671Y-66183712D01*
X96039137Y-66317622D01*
X96039138Y-66317624D01*
X96039139Y-66317625D01*
X96127379Y-66432621D01*
X96242375Y-66520861D01*
X96376291Y-66576330D01*
X96503280Y-66593048D01*
X96519999Y-66595250D01*
X96520000Y-66595250D01*
X96520001Y-66595250D01*
X96534977Y-66593278D01*
X96663709Y-66576330D01*
X96797625Y-66520861D01*
X96912621Y-66432621D01*
X97000861Y-66317625D01*
X97056330Y-66183709D01*
X97075250Y-66040000D01*
X97056330Y-65896291D01*
X97011320Y-65787625D01*
X97000862Y-65762377D01*
X97000861Y-65762376D01*
X97000861Y-65762375D01*
X96912621Y-65647379D01*
X96797625Y-65559139D01*
X96797624Y-65559138D01*
X96797622Y-65559137D01*
X96663712Y-65503671D01*
X96663710Y-65503670D01*
X96663709Y-65503670D01*
X96591854Y-65494210D01*
X96520001Y-65484750D01*
X96519999Y-65484750D01*
X96376291Y-65503670D01*
X96376287Y-65503671D01*
X96242377Y-65559137D01*
X96127379Y-65647379D01*
X96039137Y-65762377D01*
X95983671Y-65896287D01*
X95983670Y-65896291D01*
X95973277Y-65975236D01*
X95964750Y-66040000D01*
X91995250Y-66040000D01*
X91976330Y-65896291D01*
X91931320Y-65787625D01*
X91920862Y-65762377D01*
X91920861Y-65762376D01*
X91920861Y-65762375D01*
X91832621Y-65647379D01*
X91717625Y-65559139D01*
X91717624Y-65559138D01*
X91717622Y-65559137D01*
X91583712Y-65503671D01*
X91583710Y-65503670D01*
X91583709Y-65503670D01*
X91511854Y-65494210D01*
X91440001Y-65484750D01*
X91439999Y-65484750D01*
X91296291Y-65503670D01*
X91296287Y-65503671D01*
X91162377Y-65559137D01*
X91047379Y-65647379D01*
X90959137Y-65762377D01*
X90903671Y-65896287D01*
X90903670Y-65896291D01*
X90893277Y-65975236D01*
X90884750Y-66040000D01*
X79698991Y-66040000D01*
X79817625Y-65990861D01*
X79932621Y-65902621D01*
X80020861Y-65787625D01*
X80076330Y-65653709D01*
X80095250Y-65510000D01*
X80076330Y-65366291D01*
X80029697Y-65253708D01*
X80020862Y-65232377D01*
X80020861Y-65232376D01*
X80020861Y-65232375D01*
X79932621Y-65117379D01*
X79923003Y-65109999D01*
X81284750Y-65109999D01*
X81284750Y-65110000D01*
X81303670Y-65253708D01*
X81303671Y-65253712D01*
X81359137Y-65387622D01*
X81359138Y-65387624D01*
X81359139Y-65387625D01*
X81447379Y-65502621D01*
X81562375Y-65590861D01*
X81562376Y-65590861D01*
X81562377Y-65590862D01*
X81566624Y-65592621D01*
X81696291Y-65646330D01*
X81823280Y-65663048D01*
X81839999Y-65665250D01*
X81840000Y-65665250D01*
X81840001Y-65665250D01*
X81854977Y-65663278D01*
X81983709Y-65646330D01*
X82117625Y-65590861D01*
X82232621Y-65502621D01*
X82320861Y-65387625D01*
X82376330Y-65253709D01*
X82395250Y-65110000D01*
X82376330Y-64966291D01*
X82320861Y-64832375D01*
X82232621Y-64717379D01*
X82209972Y-64700000D01*
X95044750Y-64700000D01*
X95058199Y-64802157D01*
X95063670Y-64843708D01*
X95063671Y-64843712D01*
X95119137Y-64977622D01*
X95119138Y-64977624D01*
X95119139Y-64977625D01*
X95207379Y-65092621D01*
X95322375Y-65180861D01*
X95456291Y-65236330D01*
X95583280Y-65253048D01*
X95599999Y-65255250D01*
X95600000Y-65255250D01*
X95600001Y-65255250D01*
X95614977Y-65253278D01*
X95743709Y-65236330D01*
X95877625Y-65180861D01*
X95992621Y-65092621D01*
X96080861Y-64977625D01*
X96136330Y-64843709D01*
X96155250Y-64700000D01*
X96136330Y-64556291D01*
X96080861Y-64422375D01*
X95992621Y-64307379D01*
X95877625Y-64219139D01*
X95877624Y-64219138D01*
X95877622Y-64219137D01*
X95743712Y-64163671D01*
X95743710Y-64163670D01*
X95743709Y-64163670D01*
X95632973Y-64149091D01*
X95600001Y-64144750D01*
X95599999Y-64144750D01*
X95456291Y-64163670D01*
X95456287Y-64163671D01*
X95322377Y-64219137D01*
X95207379Y-64307379D01*
X95119137Y-64422377D01*
X95063671Y-64556287D01*
X95063670Y-64556291D01*
X95044750Y-64700000D01*
X82209972Y-64700000D01*
X82117625Y-64629139D01*
X82117624Y-64629138D01*
X82117622Y-64629137D01*
X81983712Y-64573671D01*
X81983710Y-64573670D01*
X81983709Y-64573670D01*
X81911854Y-64564210D01*
X81840001Y-64554750D01*
X81839999Y-64554750D01*
X81696291Y-64573670D01*
X81696287Y-64573671D01*
X81562377Y-64629137D01*
X81447379Y-64717379D01*
X81359137Y-64832377D01*
X81303671Y-64966287D01*
X81303670Y-64966291D01*
X81284750Y-65109999D01*
X79923003Y-65109999D01*
X79817625Y-65029139D01*
X79817624Y-65029138D01*
X79817622Y-65029137D01*
X79683712Y-64973671D01*
X79683710Y-64973670D01*
X79683709Y-64973670D01*
X79611854Y-64964210D01*
X79540001Y-64954750D01*
X79539999Y-64954750D01*
X79396291Y-64973670D01*
X79396287Y-64973671D01*
X79262377Y-65029137D01*
X79147379Y-65117379D01*
X79059137Y-65232377D01*
X79003671Y-65366287D01*
X79003670Y-65366291D01*
X78985722Y-65502620D01*
X78984750Y-65510000D01*
X77950500Y-65510000D01*
X77950500Y-64546543D01*
X77970185Y-64479504D01*
X77986815Y-64458866D01*
X78268090Y-64177590D01*
X78329411Y-64144107D01*
X78399102Y-64149091D01*
X78455036Y-64190962D01*
X78462840Y-64202794D01*
X78462999Y-64203001D01*
X78463000Y-64203003D01*
X78551240Y-64317999D01*
X78666236Y-64406239D01*
X78800152Y-64461708D01*
X78927141Y-64478426D01*
X78943860Y-64480628D01*
X78943861Y-64480628D01*
X78943862Y-64480628D01*
X78958838Y-64478656D01*
X79087570Y-64461708D01*
X79221486Y-64406239D01*
X79336482Y-64317999D01*
X79424722Y-64203003D01*
X79480191Y-64069087D01*
X79499111Y-63925378D01*
X79480191Y-63781669D01*
X79470669Y-63758682D01*
X79463201Y-63689214D01*
X79494476Y-63626735D01*
X79554565Y-63591083D01*
X79624390Y-63593577D01*
X79660716Y-63612855D01*
X79700924Y-63643708D01*
X79762373Y-63690860D01*
X79762374Y-63690860D01*
X79762375Y-63690861D01*
X79896291Y-63746330D01*
X80023280Y-63763048D01*
X80039999Y-63765250D01*
X80040000Y-63765250D01*
X80040001Y-63765250D01*
X80054977Y-63763278D01*
X80183709Y-63746330D01*
X80317625Y-63690861D01*
X80432621Y-63602621D01*
X80434632Y-63600000D01*
X85744750Y-63600000D01*
X85756712Y-63690862D01*
X85763670Y-63743708D01*
X85763671Y-63743712D01*
X85819137Y-63877622D01*
X85819138Y-63877624D01*
X85819139Y-63877625D01*
X85907379Y-63992621D01*
X86022375Y-64080861D01*
X86156291Y-64136330D01*
X86283280Y-64153048D01*
X86299999Y-64155250D01*
X86300000Y-64155250D01*
X86300001Y-64155250D01*
X86314977Y-64153278D01*
X86443709Y-64136330D01*
X86577625Y-64080861D01*
X86692621Y-63992621D01*
X86780861Y-63877625D01*
X86836330Y-63743709D01*
X86855250Y-63600000D01*
X86842085Y-63500000D01*
X88344750Y-63500000D01*
X88358260Y-63602620D01*
X88363670Y-63643708D01*
X88363671Y-63643712D01*
X88419137Y-63777622D01*
X88419138Y-63777624D01*
X88419139Y-63777625D01*
X88507379Y-63892621D01*
X88622375Y-63980861D01*
X88622376Y-63980861D01*
X88622377Y-63980862D01*
X88667013Y-63999350D01*
X88756291Y-64036330D01*
X88883280Y-64053048D01*
X88899999Y-64055250D01*
X88900000Y-64055250D01*
X88900001Y-64055250D01*
X88914977Y-64053278D01*
X89043709Y-64036330D01*
X89177625Y-63980861D01*
X89292621Y-63892621D01*
X89380861Y-63777625D01*
X89436330Y-63643709D01*
X89455250Y-63500000D01*
X89436330Y-63356291D01*
X89380861Y-63222375D01*
X89292621Y-63107379D01*
X89177625Y-63019139D01*
X89177624Y-63019138D01*
X89177622Y-63019137D01*
X89043712Y-62963671D01*
X89043710Y-62963670D01*
X89043709Y-62963670D01*
X88971854Y-62954210D01*
X88900001Y-62944750D01*
X88899999Y-62944750D01*
X88756291Y-62963670D01*
X88756287Y-62963671D01*
X88622377Y-63019137D01*
X88507379Y-63107379D01*
X88419137Y-63222377D01*
X88363671Y-63356287D01*
X88363670Y-63356291D01*
X88350505Y-63456291D01*
X88344750Y-63500000D01*
X86842085Y-63500000D01*
X86836330Y-63456291D01*
X86793839Y-63353708D01*
X86780862Y-63322377D01*
X86780861Y-63322376D01*
X86780861Y-63322375D01*
X86692621Y-63207379D01*
X86577625Y-63119139D01*
X86577624Y-63119138D01*
X86577622Y-63119137D01*
X86443712Y-63063671D01*
X86443710Y-63063670D01*
X86443709Y-63063670D01*
X86371854Y-63054210D01*
X86300001Y-63044750D01*
X86299999Y-63044750D01*
X86156291Y-63063670D01*
X86156287Y-63063671D01*
X86022377Y-63119137D01*
X85907379Y-63207379D01*
X85819137Y-63322377D01*
X85763671Y-63456287D01*
X85763670Y-63456291D01*
X85745596Y-63593577D01*
X85744750Y-63600000D01*
X80434632Y-63600000D01*
X80520861Y-63487625D01*
X80576330Y-63353709D01*
X80595250Y-63210000D01*
X80576330Y-63066291D01*
X80520861Y-62932375D01*
X80432621Y-62817379D01*
X80317625Y-62729139D01*
X80317624Y-62729138D01*
X80317622Y-62729137D01*
X80183712Y-62673671D01*
X80183710Y-62673670D01*
X80183709Y-62673670D01*
X80141788Y-62668150D01*
X80069201Y-62658594D01*
X80005304Y-62630327D01*
X79966834Y-62572002D01*
X79966003Y-62502137D01*
X79997704Y-62447976D01*
X80144123Y-62301557D01*
X80205444Y-62268074D01*
X80231871Y-62267144D01*
X80231871Y-62265250D01*
X80240000Y-62265250D01*
X80383709Y-62246330D01*
X80517625Y-62190861D01*
X80632621Y-62102621D01*
X80720861Y-61987625D01*
X80776330Y-61853709D01*
X80795250Y-61710000D01*
X80776330Y-61566291D01*
X80720861Y-61432375D01*
X80632621Y-61317379D01*
X80553964Y-61257023D01*
X80532864Y-61240832D01*
X80503050Y-61200000D01*
X83944750Y-61200000D01*
X83963612Y-61343272D01*
X83963670Y-61343708D01*
X83963671Y-61343712D01*
X84019137Y-61477622D01*
X84019138Y-61477624D01*
X84019139Y-61477625D01*
X84107379Y-61592621D01*
X84222375Y-61680861D01*
X84356291Y-61736330D01*
X84483280Y-61753048D01*
X84499999Y-61755250D01*
X84500000Y-61755250D01*
X84500001Y-61755250D01*
X84514977Y-61753278D01*
X84643709Y-61736330D01*
X84777625Y-61680861D01*
X84892621Y-61592621D01*
X84980861Y-61477625D01*
X85036330Y-61343709D01*
X85055250Y-61200000D01*
X85036330Y-61056291D01*
X84980861Y-60922375D01*
X84892621Y-60807379D01*
X84883005Y-60800000D01*
X100444750Y-60800000D01*
X100455724Y-60883358D01*
X100463670Y-60943708D01*
X100463671Y-60943712D01*
X100519137Y-61077622D01*
X100519138Y-61077624D01*
X100519139Y-61077625D01*
X100607379Y-61192621D01*
X100722375Y-61280861D01*
X100856291Y-61336330D01*
X100983280Y-61353048D01*
X100999999Y-61355250D01*
X101000000Y-61355250D01*
X101000001Y-61355250D01*
X101035927Y-61350520D01*
X101143709Y-61336330D01*
X101184421Y-61319466D01*
X101253887Y-61311998D01*
X101316366Y-61343272D01*
X101352019Y-61403361D01*
X101349526Y-61473186D01*
X101324331Y-61516655D01*
X101194110Y-61662372D01*
X101142587Y-61720026D01*
X101117594Y-61755250D01*
X100946920Y-61995792D01*
X100783358Y-62291736D01*
X100653959Y-62604133D01*
X100560355Y-62929039D01*
X100560353Y-62929048D01*
X100503717Y-63262387D01*
X100503714Y-63262404D01*
X100484756Y-63600000D01*
X100503714Y-63937595D01*
X100503716Y-63937607D01*
X100560353Y-64270951D01*
X100560355Y-64270960D01*
X100647565Y-64573671D01*
X100653961Y-64595872D01*
X100783359Y-64908265D01*
X100850164Y-65029139D01*
X100946920Y-65204207D01*
X101142591Y-65479980D01*
X101367899Y-65732097D01*
X101367902Y-65732100D01*
X101620019Y-65957408D01*
X101620025Y-65957412D01*
X101620026Y-65957413D01*
X101895793Y-66153080D01*
X102191735Y-66316641D01*
X102504128Y-66446039D01*
X102829045Y-66539646D01*
X103062390Y-66579292D01*
X103125184Y-66609928D01*
X103161447Y-66669650D01*
X103159666Y-66739497D01*
X103120405Y-66797293D01*
X103117108Y-66799913D01*
X103107381Y-66807376D01*
X103019137Y-66922377D01*
X102963671Y-67056287D01*
X102963670Y-67056291D01*
X102944750Y-67199999D01*
X102944750Y-67200000D01*
X102963670Y-67343708D01*
X102963671Y-67343712D01*
X103019137Y-67477622D01*
X103019138Y-67477624D01*
X103019139Y-67477625D01*
X103050994Y-67519139D01*
X103107380Y-67592622D01*
X103117104Y-67600083D01*
X103158307Y-67656511D01*
X103162462Y-67726257D01*
X103128250Y-67787177D01*
X103066532Y-67819930D01*
X103062389Y-67820707D01*
X102829048Y-67860353D01*
X102829039Y-67860355D01*
X102504133Y-67953959D01*
X102191736Y-68083358D01*
X101895792Y-68246920D01*
X101620019Y-68442591D01*
X101367902Y-68667899D01*
X101367899Y-68667902D01*
X101142591Y-68920019D01*
X100946920Y-69195792D01*
X100783358Y-69491736D01*
X100653959Y-69804133D01*
X100560355Y-70129039D01*
X100560353Y-70129048D01*
X100503716Y-70462392D01*
X100503714Y-70462404D01*
X100484756Y-70800000D01*
X100503714Y-71137595D01*
X100503716Y-71137607D01*
X100560353Y-71470951D01*
X100560355Y-71470960D01*
X100632787Y-71722375D01*
X100653961Y-71795872D01*
X100738514Y-71999999D01*
X100783358Y-72108263D01*
X100946920Y-72404207D01*
X101142591Y-72679980D01*
X101367899Y-72932097D01*
X101367902Y-72932100D01*
X101620019Y-73157408D01*
X101620025Y-73157412D01*
X101620026Y-73157413D01*
X101895793Y-73353080D01*
X102191735Y-73516641D01*
X102504128Y-73646039D01*
X102829045Y-73739646D01*
X103162400Y-73796285D01*
X103500000Y-73815244D01*
X103837600Y-73796285D01*
X104170955Y-73739646D01*
X104495872Y-73646039D01*
X104808265Y-73516641D01*
X105104207Y-73353080D01*
X105379974Y-73157413D01*
X105632099Y-72932099D01*
X105857413Y-72679974D01*
X106053080Y-72404207D01*
X106216641Y-72108265D01*
X106346039Y-71795872D01*
X106439646Y-71470955D01*
X106496285Y-71137600D01*
X106515244Y-70800000D01*
X106496285Y-70462400D01*
X106439646Y-70129045D01*
X106346039Y-69804128D01*
X106216641Y-69491735D01*
X106053080Y-69195793D01*
X105857413Y-68920026D01*
X105857412Y-68920025D01*
X105857408Y-68920019D01*
X105632100Y-68667902D01*
X105632097Y-68667899D01*
X105379980Y-68442591D01*
X105104207Y-68246920D01*
X104808265Y-68083359D01*
X104736681Y-68053708D01*
X104726666Y-68049559D01*
X104495872Y-67953961D01*
X104495868Y-67953959D01*
X104495866Y-67953959D01*
X104170960Y-67860355D01*
X104170951Y-67860353D01*
X103937610Y-67820707D01*
X103874815Y-67790071D01*
X103838552Y-67730349D01*
X103840333Y-67660502D01*
X103879594Y-67602706D01*
X103882841Y-67600125D01*
X103892621Y-67592621D01*
X103980861Y-67477625D01*
X104036330Y-67343709D01*
X104055250Y-67200000D01*
X104036330Y-67056291D01*
X103986641Y-66936329D01*
X103980862Y-66922377D01*
X103980861Y-66922376D01*
X103980861Y-66922375D01*
X103892621Y-66807379D01*
X103892619Y-66807377D01*
X103892618Y-66807376D01*
X103882894Y-66799915D01*
X103841691Y-66743487D01*
X103837537Y-66673741D01*
X103871750Y-66612821D01*
X103933468Y-66580068D01*
X103937580Y-66579297D01*
X104170955Y-66539646D01*
X104495872Y-66446039D01*
X104808265Y-66316641D01*
X105104207Y-66153080D01*
X105104212Y-66153076D01*
X105104216Y-66153074D01*
X105322806Y-65997976D01*
X105388871Y-65975236D01*
X105456743Y-65991823D01*
X105504873Y-66042472D01*
X105517979Y-66111101D01*
X105509122Y-66146557D01*
X105463671Y-66256287D01*
X105463670Y-66256291D01*
X105444750Y-66399999D01*
X105444750Y-66400000D01*
X105463670Y-66543708D01*
X105463671Y-66543712D01*
X105519137Y-66677622D01*
X105519138Y-66677624D01*
X105519139Y-66677625D01*
X105607379Y-66792621D01*
X105722375Y-66880861D01*
X105856291Y-66936330D01*
X105983280Y-66953048D01*
X105999999Y-66955250D01*
X106000000Y-66955250D01*
X106000001Y-66955250D01*
X106014977Y-66953278D01*
X106143709Y-66936330D01*
X106277625Y-66880861D01*
X106392621Y-66792621D01*
X106480861Y-66677625D01*
X106536330Y-66543709D01*
X106555250Y-66400000D01*
X106536330Y-66256291D01*
X106480861Y-66122375D01*
X106392621Y-66007379D01*
X106277625Y-65919139D01*
X106277624Y-65919138D01*
X106277622Y-65919137D01*
X106143712Y-65863671D01*
X106143710Y-65863670D01*
X106143709Y-65863670D01*
X106071854Y-65854210D01*
X106000001Y-65844750D01*
X105999999Y-65844750D01*
X105856291Y-65863670D01*
X105856290Y-65863670D01*
X105815579Y-65880533D01*
X105746109Y-65888000D01*
X105683631Y-65856724D01*
X105647979Y-65796635D01*
X105650474Y-65726810D01*
X105675666Y-65683347D01*
X105857413Y-65479974D01*
X106053080Y-65204207D01*
X106055406Y-65199999D01*
X106444750Y-65199999D01*
X106444750Y-65200000D01*
X106463670Y-65343708D01*
X106463671Y-65343712D01*
X106519137Y-65477622D01*
X106519138Y-65477624D01*
X106519139Y-65477625D01*
X106607379Y-65592621D01*
X106722375Y-65680861D01*
X106856291Y-65736330D01*
X106983280Y-65753048D01*
X106999999Y-65755250D01*
X107000000Y-65755250D01*
X107000001Y-65755250D01*
X107014977Y-65753278D01*
X107143709Y-65736330D01*
X107277625Y-65680861D01*
X107392621Y-65592621D01*
X107480861Y-65477625D01*
X107536330Y-65343709D01*
X107555250Y-65200000D01*
X107536330Y-65056291D01*
X107480861Y-64922375D01*
X107392621Y-64807379D01*
X107277625Y-64719139D01*
X107277624Y-64719138D01*
X107277622Y-64719137D01*
X107143712Y-64663671D01*
X107143710Y-64663670D01*
X107143709Y-64663670D01*
X107071854Y-64654210D01*
X107000001Y-64644750D01*
X106999999Y-64644750D01*
X106856291Y-64663670D01*
X106856287Y-64663671D01*
X106722377Y-64719137D01*
X106607379Y-64807379D01*
X106519137Y-64922377D01*
X106463671Y-65056287D01*
X106463670Y-65056291D01*
X106444750Y-65199999D01*
X106055406Y-65199999D01*
X106216641Y-64908265D01*
X106346039Y-64595872D01*
X106439646Y-64270955D01*
X106496285Y-63937600D01*
X106496868Y-63934170D01*
X106497672Y-63934306D01*
X106523336Y-63873196D01*
X106580922Y-63833629D01*
X106650759Y-63831476D01*
X106710673Y-63867422D01*
X106717881Y-63875986D01*
X106719139Y-63877625D01*
X106807379Y-63992621D01*
X106922375Y-64080861D01*
X107056291Y-64136330D01*
X107183280Y-64153048D01*
X107199999Y-64155250D01*
X107200000Y-64155250D01*
X107200001Y-64155250D01*
X107214977Y-64153278D01*
X107343709Y-64136330D01*
X107477625Y-64080861D01*
X107592621Y-63992621D01*
X107680861Y-63877625D01*
X107736330Y-63743709D01*
X107752561Y-63620425D01*
X107759967Y-63603682D01*
X107756523Y-63598323D01*
X107752561Y-63579574D01*
X107746397Y-63532757D01*
X107736330Y-63456291D01*
X107693839Y-63353708D01*
X107680862Y-63322377D01*
X107680861Y-63322376D01*
X107680861Y-63322375D01*
X107592621Y-63207379D01*
X107477625Y-63119139D01*
X107477624Y-63119138D01*
X107477622Y-63119137D01*
X107343712Y-63063671D01*
X107343710Y-63063670D01*
X107343709Y-63063670D01*
X107271854Y-63054210D01*
X107200001Y-63044750D01*
X107199999Y-63044750D01*
X107056291Y-63063670D01*
X107056287Y-63063671D01*
X106922377Y-63119137D01*
X106864877Y-63163259D01*
X106807379Y-63207379D01*
X106807378Y-63207380D01*
X106807377Y-63207381D01*
X106717881Y-63324013D01*
X106661453Y-63365216D01*
X106591707Y-63369370D01*
X106530787Y-63335157D01*
X106498035Y-63273439D01*
X106496283Y-63262387D01*
X106496282Y-63262386D01*
X106439646Y-62929045D01*
X106346039Y-62604128D01*
X106216641Y-62291735D01*
X106053080Y-61995793D01*
X106047284Y-61987625D01*
X106035353Y-61970810D01*
X105954987Y-61857544D01*
X105932248Y-61791480D01*
X105948835Y-61723608D01*
X105999484Y-61675478D01*
X106068113Y-61662372D01*
X106118115Y-61678402D01*
X106122372Y-61680859D01*
X106122375Y-61680861D01*
X106256291Y-61736330D01*
X106383280Y-61753048D01*
X106399999Y-61755250D01*
X106400000Y-61755250D01*
X106400001Y-61755250D01*
X106414977Y-61753278D01*
X106543709Y-61736330D01*
X106677625Y-61680861D01*
X106792621Y-61592621D01*
X106880861Y-61477625D01*
X106936330Y-61343709D01*
X106955250Y-61200000D01*
X106936330Y-61056291D01*
X106880861Y-60922375D01*
X106792621Y-60807379D01*
X106677625Y-60719139D01*
X106677624Y-60719138D01*
X106677622Y-60719137D01*
X106543712Y-60663671D01*
X106543710Y-60663670D01*
X106543709Y-60663670D01*
X106471854Y-60654210D01*
X106400001Y-60644750D01*
X106399999Y-60644750D01*
X106256291Y-60663670D01*
X106256287Y-60663671D01*
X106122377Y-60719137D01*
X106007379Y-60807379D01*
X105919137Y-60922377D01*
X105863671Y-61056287D01*
X105863670Y-61056291D01*
X105844750Y-61199999D01*
X105844750Y-61200000D01*
X105863669Y-61343706D01*
X105863669Y-61343708D01*
X105863670Y-61343709D01*
X105880335Y-61383942D01*
X105887803Y-61453411D01*
X105856527Y-61515890D01*
X105796438Y-61551542D01*
X105726613Y-61549047D01*
X105673314Y-61514020D01*
X105632100Y-61467902D01*
X105632097Y-61467899D01*
X105379980Y-61242591D01*
X105104207Y-61046920D01*
X105062101Y-61023649D01*
X104808265Y-60883359D01*
X104495872Y-60753961D01*
X104314469Y-60701699D01*
X104255500Y-60664226D01*
X104226152Y-60600819D01*
X104235742Y-60531611D01*
X104273311Y-60484170D01*
X104277621Y-60480862D01*
X104277625Y-60480861D01*
X104392621Y-60392621D01*
X104480861Y-60277625D01*
X104536330Y-60143709D01*
X104555250Y-60000000D01*
X104536330Y-59856291D01*
X104498620Y-59765250D01*
X104480862Y-59722377D01*
X104480861Y-59722376D01*
X104480861Y-59722375D01*
X104392621Y-59607379D01*
X104277625Y-59519139D01*
X104277624Y-59519138D01*
X104277622Y-59519137D01*
X104143712Y-59463671D01*
X104143710Y-59463670D01*
X104143709Y-59463670D01*
X104071854Y-59454210D01*
X104000001Y-59444750D01*
X103999999Y-59444750D01*
X103856291Y-59463670D01*
X103856287Y-59463671D01*
X103722377Y-59519137D01*
X103607379Y-59607379D01*
X103519137Y-59722377D01*
X103463671Y-59856287D01*
X103463670Y-59856291D01*
X103444750Y-59999999D01*
X103444750Y-60000000D01*
X103463670Y-60143708D01*
X103463671Y-60143712D01*
X103519138Y-60277623D01*
X103519139Y-60277626D01*
X103601738Y-60385269D01*
X103626933Y-60450438D01*
X103612895Y-60518883D01*
X103564081Y-60568873D01*
X103503363Y-60584756D01*
X103500002Y-60584756D01*
X103500000Y-60584756D01*
X103457286Y-60587154D01*
X103162404Y-60603714D01*
X103162392Y-60603716D01*
X102829048Y-60660353D01*
X102829039Y-60660355D01*
X102504133Y-60753959D01*
X102191736Y-60883358D01*
X101895792Y-61046920D01*
X101677193Y-61202024D01*
X101611127Y-61224763D01*
X101543255Y-61208175D01*
X101495126Y-61157526D01*
X101482020Y-61088897D01*
X101490875Y-61053448D01*
X101536330Y-60943709D01*
X101555250Y-60800000D01*
X101536330Y-60656291D01*
X101486641Y-60536329D01*
X101480862Y-60522377D01*
X101480861Y-60522376D01*
X101480861Y-60522375D01*
X101392621Y-60407379D01*
X101277625Y-60319139D01*
X101277624Y-60319138D01*
X101277622Y-60319137D01*
X101143712Y-60263671D01*
X101143710Y-60263670D01*
X101143709Y-60263670D01*
X101071854Y-60254210D01*
X101000001Y-60244750D01*
X100999999Y-60244750D01*
X100856291Y-60263670D01*
X100856287Y-60263671D01*
X100722377Y-60319137D01*
X100607379Y-60407379D01*
X100519137Y-60522377D01*
X100463671Y-60656287D01*
X100463670Y-60656291D01*
X100450812Y-60753959D01*
X100444750Y-60800000D01*
X84883005Y-60800000D01*
X84777625Y-60719139D01*
X84777624Y-60719138D01*
X84777622Y-60719137D01*
X84643712Y-60663671D01*
X84643710Y-60663670D01*
X84643709Y-60663670D01*
X84571854Y-60654210D01*
X84500001Y-60644750D01*
X84499999Y-60644750D01*
X84356291Y-60663670D01*
X84356287Y-60663671D01*
X84222377Y-60719137D01*
X84107379Y-60807379D01*
X84019137Y-60922377D01*
X83963671Y-61056287D01*
X83963670Y-61056291D01*
X83945722Y-61192620D01*
X83944750Y-61200000D01*
X80503050Y-61200000D01*
X80491662Y-61184404D01*
X80487507Y-61114658D01*
X80509972Y-61066975D01*
X80570861Y-60987625D01*
X80626330Y-60853709D01*
X80645250Y-60710000D01*
X80626330Y-60566291D01*
X80570861Y-60432375D01*
X80482621Y-60317379D01*
X80367625Y-60229139D01*
X80367624Y-60229138D01*
X80367622Y-60229137D01*
X80233712Y-60173671D01*
X80233710Y-60173670D01*
X80233709Y-60173670D01*
X80161854Y-60164210D01*
X80090001Y-60154750D01*
X80089999Y-60154750D01*
X79946291Y-60173670D01*
X79946287Y-60173671D01*
X79812377Y-60229137D01*
X79697379Y-60317379D01*
X79609137Y-60432377D01*
X79553671Y-60566287D01*
X79553670Y-60566291D01*
X79534750Y-60710000D01*
X79534750Y-60718128D01*
X79531456Y-60718128D01*
X79522192Y-60772588D01*
X79498439Y-60805877D01*
X76519532Y-63784784D01*
X76519530Y-63784788D01*
X76510705Y-63800074D01*
X76492575Y-63831476D01*
X76473386Y-63864711D01*
X76449500Y-63953856D01*
X76449500Y-65198184D01*
X76429815Y-65265223D01*
X76377011Y-65310978D01*
X76307853Y-65320922D01*
X76278049Y-65312746D01*
X76236400Y-65295495D01*
X76183709Y-65273670D01*
X76111854Y-65264210D01*
X76040001Y-65254750D01*
X76039999Y-65254750D01*
X75896291Y-65273670D01*
X75896287Y-65273671D01*
X75762377Y-65329137D01*
X75647379Y-65417379D01*
X75559137Y-65532377D01*
X75503671Y-65666287D01*
X75503670Y-65666291D01*
X75486510Y-65796635D01*
X75484750Y-65810000D01*
X75499118Y-65919137D01*
X75503670Y-65953708D01*
X75503671Y-65953712D01*
X75559137Y-66087622D01*
X75559138Y-66087624D01*
X75559139Y-66087625D01*
X75647379Y-66202621D01*
X75762375Y-66290861D01*
X75896291Y-66346330D01*
X76023280Y-66363048D01*
X76039999Y-66365250D01*
X76040000Y-66365250D01*
X76040001Y-66365250D01*
X76054977Y-66363278D01*
X76183709Y-66346330D01*
X76278048Y-66307253D01*
X76347517Y-66299785D01*
X76409996Y-66331060D01*
X76445648Y-66391149D01*
X76449500Y-66421815D01*
X76449500Y-78776858D01*
X76429815Y-78843897D01*
X76377011Y-78889652D01*
X76307853Y-78899596D01*
X76244297Y-78870571D01*
X76227125Y-78852345D01*
X76217988Y-78840438D01*
X76192621Y-78807379D01*
X76077625Y-78719139D01*
X76077624Y-78719138D01*
X76077622Y-78719137D01*
X75943712Y-78663671D01*
X75943710Y-78663670D01*
X75943709Y-78663670D01*
X75871854Y-78654210D01*
X75800001Y-78644750D01*
X75799999Y-78644750D01*
X75656291Y-78663670D01*
X75656287Y-78663671D01*
X75522377Y-78719137D01*
X75407379Y-78807379D01*
X75319137Y-78922377D01*
X75263671Y-79056287D01*
X75263670Y-79056291D01*
X75244750Y-79199999D01*
X75244750Y-79200000D01*
X75263670Y-79343708D01*
X75263671Y-79343712D01*
X75319137Y-79477622D01*
X75319138Y-79477624D01*
X75319139Y-79477625D01*
X75407379Y-79592621D01*
X75522375Y-79680861D01*
X75656291Y-79736330D01*
X75783280Y-79753048D01*
X75799999Y-79755250D01*
X75800000Y-79755250D01*
X75800001Y-79755250D01*
X75814977Y-79753278D01*
X75943709Y-79736330D01*
X76077625Y-79680861D01*
X76192621Y-79592621D01*
X76227125Y-79547653D01*
X76283552Y-79506452D01*
X76353298Y-79502297D01*
X76414218Y-79536509D01*
X76446971Y-79598226D01*
X76449500Y-79623141D01*
X76449500Y-80452287D01*
X76429815Y-80519326D01*
X76377011Y-80565081D01*
X76307853Y-80575025D01*
X76244297Y-80546000D01*
X76227125Y-80527774D01*
X76211475Y-80507379D01*
X76192621Y-80482808D01*
X76077625Y-80394568D01*
X76077624Y-80394567D01*
X76077622Y-80394566D01*
X75943712Y-80339100D01*
X75943710Y-80339099D01*
X75943709Y-80339099D01*
X75871854Y-80329639D01*
X75800001Y-80320179D01*
X75799999Y-80320179D01*
X75656291Y-80339099D01*
X75656287Y-80339100D01*
X75522377Y-80394566D01*
X75407379Y-80482808D01*
X75319137Y-80597806D01*
X75263671Y-80731716D01*
X75263670Y-80731720D01*
X75244750Y-80875428D01*
X75244750Y-80875429D01*
X75263670Y-81019137D01*
X75263671Y-81019141D01*
X75319137Y-81153051D01*
X75319138Y-81153053D01*
X75319139Y-81153054D01*
X75407379Y-81268050D01*
X75522375Y-81356290D01*
X75656291Y-81411759D01*
X75783280Y-81428477D01*
X75799999Y-81430679D01*
X75800000Y-81430679D01*
X75800001Y-81430679D01*
X75814977Y-81428707D01*
X75943709Y-81411759D01*
X76077625Y-81356290D01*
X76192621Y-81268050D01*
X76227125Y-81223082D01*
X76283552Y-81181881D01*
X76353298Y-81177726D01*
X76414218Y-81211938D01*
X76446971Y-81273655D01*
X76449500Y-81298570D01*
X76449500Y-81503456D01*
X76429815Y-81570495D01*
X76413181Y-81591137D01*
X74779531Y-83224786D01*
X74779527Y-83224791D01*
X74733387Y-83304709D01*
X74733386Y-83304712D01*
X74709500Y-83393856D01*
X74709500Y-84970645D01*
X74689815Y-85037684D01*
X74637011Y-85083439D01*
X74630294Y-85086271D01*
X74567374Y-85110646D01*
X74567359Y-85110653D01*
X74393960Y-85218017D01*
X74393958Y-85218019D01*
X74243237Y-85355418D01*
X74120327Y-85518178D01*
X74029422Y-85700739D01*
X74029417Y-85700752D01*
X73973602Y-85896917D01*
X73954785Y-86099999D01*
X73620500Y-86099999D01*
X73620500Y-85225326D01*
X73620500Y-85225323D01*
X73620499Y-85225321D01*
X73605967Y-85152264D01*
X73605966Y-85152260D01*
X73550601Y-85069399D01*
X73467740Y-85014034D01*
X73467739Y-85014033D01*
X73467735Y-85014032D01*
X73394677Y-84999500D01*
X73394674Y-84999500D01*
X71645326Y-84999500D01*
X71645323Y-84999500D01*
X71572264Y-85014032D01*
X71572260Y-85014033D01*
X71489399Y-85069399D01*
X71434033Y-85152260D01*
X71434032Y-85152264D01*
X71419500Y-85225321D01*
X69877652Y-85225321D01*
X69935311Y-84873613D01*
X69952791Y-84551218D01*
X69955568Y-84500002D01*
X69955568Y-84499997D01*
X69935311Y-84126389D01*
X69930752Y-84098581D01*
X69874779Y-83757155D01*
X69831145Y-83599999D01*
X70344750Y-83599999D01*
X70344750Y-83600000D01*
X70363670Y-83743708D01*
X70363671Y-83743712D01*
X70419137Y-83877622D01*
X70419138Y-83877624D01*
X70419139Y-83877625D01*
X70507379Y-83992621D01*
X70622375Y-84080861D01*
X70756291Y-84136330D01*
X70883280Y-84153048D01*
X70899999Y-84155250D01*
X70900000Y-84155250D01*
X70900001Y-84155250D01*
X70914977Y-84153278D01*
X71043709Y-84136330D01*
X71177625Y-84080861D01*
X71283005Y-84000000D01*
X73344750Y-84000000D01*
X73362698Y-84136329D01*
X73363670Y-84143708D01*
X73363671Y-84143712D01*
X73419137Y-84277622D01*
X73419138Y-84277624D01*
X73419139Y-84277625D01*
X73507379Y-84392621D01*
X73622375Y-84480861D01*
X73756291Y-84536330D01*
X73883280Y-84553048D01*
X73899999Y-84555250D01*
X73900000Y-84555250D01*
X73900001Y-84555250D01*
X73914977Y-84553278D01*
X74043709Y-84536330D01*
X74177625Y-84480861D01*
X74292621Y-84392621D01*
X74380861Y-84277625D01*
X74436330Y-84143709D01*
X74455250Y-84000000D01*
X74436330Y-83856291D01*
X74380861Y-83722375D01*
X74292621Y-83607379D01*
X74177625Y-83519139D01*
X74177624Y-83519138D01*
X74177622Y-83519137D01*
X74043712Y-83463671D01*
X74043710Y-83463670D01*
X74043709Y-83463670D01*
X73971854Y-83454210D01*
X73900001Y-83444750D01*
X73899999Y-83444750D01*
X73756291Y-83463670D01*
X73756287Y-83463671D01*
X73622377Y-83519137D01*
X73507379Y-83607379D01*
X73419137Y-83722377D01*
X73363671Y-83856287D01*
X73363670Y-83856291D01*
X73345722Y-83992620D01*
X73344750Y-84000000D01*
X71283005Y-84000000D01*
X71292621Y-83992621D01*
X71380861Y-83877625D01*
X71436330Y-83743709D01*
X71455250Y-83600000D01*
X71436330Y-83456291D01*
X71386641Y-83336329D01*
X71380862Y-83322377D01*
X71380861Y-83322376D01*
X71380861Y-83322375D01*
X71292621Y-83207379D01*
X71177625Y-83119139D01*
X71177624Y-83119138D01*
X71177622Y-83119137D01*
X71043712Y-83063671D01*
X71043710Y-83063670D01*
X71043709Y-83063670D01*
X70932692Y-83049054D01*
X70900001Y-83044750D01*
X70899999Y-83044750D01*
X70756291Y-83063670D01*
X70756287Y-83063671D01*
X70622377Y-83119137D01*
X70507379Y-83207379D01*
X70419137Y-83322377D01*
X70363671Y-83456287D01*
X70363670Y-83456291D01*
X70344750Y-83599999D01*
X69831145Y-83599999D01*
X69808694Y-83519139D01*
X69774682Y-83396637D01*
X69774681Y-83396635D01*
X69750653Y-83336330D01*
X69725507Y-83273217D01*
X69636193Y-83049054D01*
X69636184Y-83049036D01*
X69591879Y-82965469D01*
X69504153Y-82800000D01*
X69460926Y-82718465D01*
X69318749Y-82508770D01*
X69267220Y-82432770D01*
X69245892Y-82366238D01*
X69263920Y-82298734D01*
X69315581Y-82251693D01*
X69384474Y-82240050D01*
X69385947Y-82240234D01*
X69476750Y-82252189D01*
X69499999Y-82255250D01*
X69500000Y-82255250D01*
X69500001Y-82255250D01*
X69523250Y-82252189D01*
X69643709Y-82236330D01*
X69777625Y-82180861D01*
X69892621Y-82092621D01*
X69980861Y-81977625D01*
X70036330Y-81843709D01*
X70055250Y-81700000D01*
X70036330Y-81556291D01*
X69986641Y-81436329D01*
X69980862Y-81422377D01*
X69980861Y-81422376D01*
X69980861Y-81422375D01*
X69892621Y-81307379D01*
X69777625Y-81219139D01*
X69777624Y-81219138D01*
X69777622Y-81219137D01*
X69643712Y-81163671D01*
X69643710Y-81163670D01*
X69643709Y-81163670D01*
X69563051Y-81153051D01*
X69500001Y-81144750D01*
X69499999Y-81144750D01*
X69356291Y-81163670D01*
X69356287Y-81163671D01*
X69222377Y-81219137D01*
X69107379Y-81307379D01*
X69019137Y-81422377D01*
X68963671Y-81556287D01*
X68963670Y-81556291D01*
X68944750Y-81699999D01*
X68944750Y-81700002D01*
X68953709Y-81768054D01*
X68942943Y-81837089D01*
X68896563Y-81889345D01*
X68829294Y-81908230D01*
X68762494Y-81887749D01*
X68745503Y-81874269D01*
X68737087Y-81866297D01*
X68439220Y-81639864D01*
X68439216Y-81639861D01*
X68439210Y-81639857D01*
X68439205Y-81639853D01*
X68118621Y-81446966D01*
X68118608Y-81446959D01*
X67779048Y-81289862D01*
X67779043Y-81289860D01*
X67779038Y-81289858D01*
X67580861Y-81223084D01*
X67424461Y-81170386D01*
X67059047Y-81089953D01*
X66687082Y-81049500D01*
X66687081Y-81049500D01*
X66312919Y-81049500D01*
X66312917Y-81049500D01*
X65940952Y-81089953D01*
X65575538Y-81170386D01*
X65301440Y-81262741D01*
X65220962Y-81289858D01*
X65220959Y-81289859D01*
X65220951Y-81289862D01*
X64881391Y-81446959D01*
X64881378Y-81446966D01*
X64560794Y-81639853D01*
X64560789Y-81639857D01*
X64262913Y-81866296D01*
X64262913Y-81866297D01*
X64229042Y-81898381D01*
X64166834Y-81930193D01*
X64097303Y-81923322D01*
X64042524Y-81879951D01*
X64019890Y-81813849D01*
X64029206Y-81760907D01*
X64036330Y-81743709D01*
X64055250Y-81600000D01*
X64036330Y-81456291D01*
X63980861Y-81322375D01*
X63892621Y-81207379D01*
X63777625Y-81119139D01*
X63777624Y-81119138D01*
X63777622Y-81119137D01*
X63643712Y-81063671D01*
X63643710Y-81063670D01*
X63643709Y-81063670D01*
X63571854Y-81054210D01*
X63500001Y-81044750D01*
X63499999Y-81044750D01*
X63356291Y-81063670D01*
X63356287Y-81063671D01*
X63222377Y-81119137D01*
X63107379Y-81207379D01*
X63019137Y-81322377D01*
X62963671Y-81456287D01*
X62963670Y-81456291D01*
X62945722Y-81592620D01*
X62944750Y-81600000D01*
X62500500Y-81600000D01*
X62500500Y-78200000D01*
X64744750Y-78200000D01*
X64752160Y-78256287D01*
X64763670Y-78343708D01*
X64763671Y-78343712D01*
X64819137Y-78477622D01*
X64819138Y-78477624D01*
X64819139Y-78477625D01*
X64907379Y-78592621D01*
X65022375Y-78680861D01*
X65156291Y-78736330D01*
X65283280Y-78753048D01*
X65299999Y-78755250D01*
X65300000Y-78755250D01*
X65300001Y-78755250D01*
X65314977Y-78753278D01*
X65443709Y-78736330D01*
X65577625Y-78680861D01*
X65692621Y-78592621D01*
X65780861Y-78477625D01*
X65836330Y-78343709D01*
X65855250Y-78200000D01*
X65836330Y-78056291D01*
X65780861Y-77922375D01*
X65692621Y-77807379D01*
X65577625Y-77719139D01*
X65577624Y-77719138D01*
X65577622Y-77719137D01*
X65443712Y-77663671D01*
X65443710Y-77663670D01*
X65443709Y-77663670D01*
X65371854Y-77654210D01*
X65300001Y-77644750D01*
X65299999Y-77644750D01*
X65156291Y-77663670D01*
X65156287Y-77663671D01*
X65022377Y-77719137D01*
X64907379Y-77807379D01*
X64819137Y-77922377D01*
X64763671Y-78056287D01*
X64763670Y-78056291D01*
X64744750Y-78200000D01*
X62500500Y-78200000D01*
X62500500Y-77299999D01*
X74844750Y-77299999D01*
X74844750Y-77300000D01*
X74863670Y-77443708D01*
X74863671Y-77443712D01*
X74919137Y-77577622D01*
X74919138Y-77577624D01*
X74919139Y-77577625D01*
X75007379Y-77692621D01*
X75122375Y-77780861D01*
X75256291Y-77836330D01*
X75383280Y-77853048D01*
X75399999Y-77855250D01*
X75400000Y-77855250D01*
X75400001Y-77855250D01*
X75414977Y-77853278D01*
X75543709Y-77836330D01*
X75677625Y-77780861D01*
X75792621Y-77692621D01*
X75880861Y-77577625D01*
X75936330Y-77443709D01*
X75955250Y-77300000D01*
X75936330Y-77156291D01*
X75880861Y-77022375D01*
X75792621Y-76907379D01*
X75677625Y-76819139D01*
X75677624Y-76819138D01*
X75677622Y-76819137D01*
X75543712Y-76763671D01*
X75543710Y-76763670D01*
X75543709Y-76763670D01*
X75471854Y-76754210D01*
X75400001Y-76744750D01*
X75399999Y-76744750D01*
X75256291Y-76763670D01*
X75256287Y-76763671D01*
X75122377Y-76819137D01*
X75007379Y-76907379D01*
X74919137Y-77022377D01*
X74863671Y-77156287D01*
X74863670Y-77156291D01*
X74844750Y-77299999D01*
X62500500Y-77299999D01*
X62500500Y-76000000D01*
X72644750Y-76000000D01*
X72662698Y-76136329D01*
X72663670Y-76143708D01*
X72663671Y-76143712D01*
X72719137Y-76277622D01*
X72719138Y-76277624D01*
X72719139Y-76277625D01*
X72807379Y-76392621D01*
X72922375Y-76480861D01*
X73056291Y-76536330D01*
X73183280Y-76553048D01*
X73199999Y-76555250D01*
X73200000Y-76555250D01*
X73200001Y-76555250D01*
X73214977Y-76553278D01*
X73343709Y-76536330D01*
X73477625Y-76480861D01*
X73592621Y-76392621D01*
X73680861Y-76277625D01*
X73736330Y-76143709D01*
X73755250Y-76000000D01*
X73736330Y-75856291D01*
X73680861Y-75722375D01*
X73592621Y-75607379D01*
X73477625Y-75519139D01*
X73477624Y-75519138D01*
X73477622Y-75519137D01*
X73343712Y-75463671D01*
X73343710Y-75463670D01*
X73343709Y-75463670D01*
X73271854Y-75454210D01*
X73200001Y-75444750D01*
X73199999Y-75444750D01*
X73056291Y-75463670D01*
X73056287Y-75463671D01*
X72922377Y-75519137D01*
X72807379Y-75607379D01*
X72719137Y-75722377D01*
X72663671Y-75856287D01*
X72663670Y-75856291D01*
X72645722Y-75992620D01*
X72644750Y-76000000D01*
X62500500Y-76000000D01*
X62500500Y-71299997D01*
X63395006Y-71299997D01*
X63395006Y-71300002D01*
X63414966Y-71668142D01*
X63414967Y-71668159D01*
X63474610Y-72031960D01*
X63474616Y-72031986D01*
X63573243Y-72387209D01*
X63573245Y-72387216D01*
X63709706Y-72729710D01*
X63709715Y-72729728D01*
X63882406Y-73055458D01*
X64089307Y-73360614D01*
X64225496Y-73520948D01*
X64225497Y-73520949D01*
X65077441Y-72669005D01*
X65142407Y-72753670D01*
X65346330Y-72957593D01*
X65430993Y-73022557D01*
X64576520Y-73877031D01*
X64576520Y-73877032D01*
X64595643Y-73895147D01*
X64595655Y-73895158D01*
X64889158Y-74118274D01*
X64889175Y-74118286D01*
X65205067Y-74308350D01*
X65205080Y-74308357D01*
X65539671Y-74463155D01*
X65889068Y-74580882D01*
X66249134Y-74660138D01*
X66615655Y-74699999D01*
X66615663Y-74700000D01*
X66984337Y-74700000D01*
X66984344Y-74699999D01*
X67350865Y-74660138D01*
X67710931Y-74580882D01*
X67950980Y-74499999D01*
X72694750Y-74499999D01*
X72694750Y-74500000D01*
X72713670Y-74643708D01*
X72713671Y-74643712D01*
X72769137Y-74777622D01*
X72769138Y-74777624D01*
X72769139Y-74777625D01*
X72857379Y-74892621D01*
X72972375Y-74980861D01*
X73106291Y-75036330D01*
X73233280Y-75053048D01*
X73249999Y-75055250D01*
X73250000Y-75055250D01*
X73250001Y-75055250D01*
X73264977Y-75053278D01*
X73393709Y-75036330D01*
X73527625Y-74980861D01*
X73642621Y-74892621D01*
X73730861Y-74777625D01*
X73786330Y-74643709D01*
X73805250Y-74500000D01*
X73786330Y-74356291D01*
X73730861Y-74222375D01*
X73642621Y-74107379D01*
X73527625Y-74019139D01*
X73527624Y-74019138D01*
X73527622Y-74019137D01*
X73393712Y-73963671D01*
X73393710Y-73963670D01*
X73393709Y-73963670D01*
X73321854Y-73954210D01*
X73250001Y-73944750D01*
X73249999Y-73944750D01*
X73106291Y-73963670D01*
X73106287Y-73963671D01*
X72972377Y-74019137D01*
X72857379Y-74107379D01*
X72769137Y-74222377D01*
X72713671Y-74356287D01*
X72713670Y-74356291D01*
X72694750Y-74499999D01*
X67950980Y-74499999D01*
X68060328Y-74463155D01*
X68394919Y-74308357D01*
X68394932Y-74308350D01*
X68710824Y-74118286D01*
X68710841Y-74118274D01*
X69004340Y-73895161D01*
X69023479Y-73877031D01*
X68169005Y-73022558D01*
X68253670Y-72957593D01*
X68457593Y-72753670D01*
X68522558Y-72669005D01*
X69374501Y-73520948D01*
X69374502Y-73520948D01*
X69510690Y-73360615D01*
X69510701Y-73360601D01*
X69717593Y-73055458D01*
X69890284Y-72729728D01*
X69890293Y-72729710D01*
X70026754Y-72387216D01*
X70026756Y-72387209D01*
X70125383Y-72031986D01*
X70125389Y-72031960D01*
X70185032Y-71668159D01*
X70185033Y-71668142D01*
X70204994Y-71300002D01*
X70204994Y-71299997D01*
X70185033Y-70931857D01*
X70185032Y-70931840D01*
X70125389Y-70568039D01*
X70125383Y-70568013D01*
X70026756Y-70212790D01*
X70026754Y-70212783D01*
X70021661Y-70200000D01*
X72944750Y-70200000D01*
X72953340Y-70265250D01*
X72963670Y-70343708D01*
X72963671Y-70343712D01*
X73019137Y-70477622D01*
X73019138Y-70477624D01*
X73019139Y-70477625D01*
X73107379Y-70592621D01*
X73222375Y-70680861D01*
X73356291Y-70736330D01*
X73483280Y-70753048D01*
X73499999Y-70755250D01*
X73500000Y-70755250D01*
X73500001Y-70755250D01*
X73514977Y-70753278D01*
X73643709Y-70736330D01*
X73777625Y-70680861D01*
X73892621Y-70592621D01*
X73980861Y-70477625D01*
X74036330Y-70343709D01*
X74055250Y-70200000D01*
X74036330Y-70056291D01*
X73980861Y-69922375D01*
X73892621Y-69807379D01*
X73777625Y-69719139D01*
X73777624Y-69719138D01*
X73777622Y-69719137D01*
X73643712Y-69663671D01*
X73643710Y-69663670D01*
X73643709Y-69663670D01*
X73571854Y-69654210D01*
X73500001Y-69644750D01*
X73499999Y-69644750D01*
X73356291Y-69663670D01*
X73356287Y-69663671D01*
X73222377Y-69719137D01*
X73107379Y-69807379D01*
X73019137Y-69922377D01*
X72963671Y-70056287D01*
X72963670Y-70056291D01*
X72944750Y-70200000D01*
X70021661Y-70200000D01*
X69890293Y-69870289D01*
X69890284Y-69870271D01*
X69717593Y-69544541D01*
X69510692Y-69239385D01*
X69374502Y-69079050D01*
X69374501Y-69079049D01*
X68522557Y-69930993D01*
X68457593Y-69846330D01*
X68253670Y-69642407D01*
X68169005Y-69577441D01*
X69023478Y-68722967D01*
X69023478Y-68722966D01*
X69004356Y-68704852D01*
X69004344Y-68704841D01*
X68710841Y-68481725D01*
X68710824Y-68481713D01*
X68394932Y-68291649D01*
X68394919Y-68291642D01*
X68060328Y-68136844D01*
X67710931Y-68019117D01*
X67350865Y-67939861D01*
X66984344Y-67900000D01*
X66615655Y-67900000D01*
X66249134Y-67939861D01*
X65889068Y-68019117D01*
X65539671Y-68136844D01*
X65205080Y-68291642D01*
X65205067Y-68291649D01*
X64889175Y-68481713D01*
X64889158Y-68481725D01*
X64595657Y-68704840D01*
X64595643Y-68704852D01*
X64576520Y-68722966D01*
X64576520Y-68722968D01*
X65430994Y-69577441D01*
X65346330Y-69642407D01*
X65142407Y-69846330D01*
X65077441Y-69930993D01*
X64225497Y-69079049D01*
X64225496Y-69079050D01*
X64089314Y-69239376D01*
X64089307Y-69239386D01*
X63882406Y-69544541D01*
X63709715Y-69870271D01*
X63709706Y-69870289D01*
X63573245Y-70212783D01*
X63573243Y-70212790D01*
X63474616Y-70568013D01*
X63474610Y-70568039D01*
X63414967Y-70931840D01*
X63414966Y-70931857D01*
X63395006Y-71299997D01*
X62500500Y-71299997D01*
X62500500Y-64100000D01*
X63644536Y-64100000D01*
X63664376Y-64453295D01*
X63664378Y-64453307D01*
X63723649Y-64802153D01*
X63723651Y-64802162D01*
X63821608Y-65142178D01*
X63957021Y-65469098D01*
X63957023Y-65469102D01*
X64128194Y-65778812D01*
X64128197Y-65778817D01*
X64332956Y-66067396D01*
X64332962Y-66067404D01*
X64568748Y-66331248D01*
X64568751Y-66331251D01*
X64832595Y-66567037D01*
X64832603Y-66567043D01*
X65121182Y-66771802D01*
X65121187Y-66771805D01*
X65121190Y-66771806D01*
X65121192Y-66771808D01*
X65318510Y-66880862D01*
X65430897Y-66942976D01*
X65430901Y-66942978D01*
X65460529Y-66955250D01*
X65757816Y-67078390D01*
X66097843Y-67176350D01*
X66446700Y-67235623D01*
X66800000Y-67255464D01*
X67153300Y-67235623D01*
X67502157Y-67176350D01*
X67842184Y-67078390D01*
X68169105Y-66942975D01*
X68478808Y-66771808D01*
X68478813Y-66771804D01*
X68478817Y-66771802D01*
X68611546Y-66677625D01*
X68767400Y-66567041D01*
X69031250Y-66331250D01*
X69267041Y-66067400D01*
X69449677Y-65809999D01*
X69471802Y-65778817D01*
X69471805Y-65778812D01*
X69471808Y-65778808D01*
X69642975Y-65469105D01*
X69733732Y-65249999D01*
X71444750Y-65249999D01*
X71444750Y-65250000D01*
X71463670Y-65393708D01*
X71463671Y-65393712D01*
X71519137Y-65527622D01*
X71519138Y-65527624D01*
X71519139Y-65527625D01*
X71607379Y-65642621D01*
X71722375Y-65730861D01*
X71722376Y-65730861D01*
X71722377Y-65730862D01*
X71767013Y-65749350D01*
X71856291Y-65786330D01*
X71983280Y-65803048D01*
X71999999Y-65805250D01*
X72000000Y-65805250D01*
X72000001Y-65805250D01*
X72014977Y-65803278D01*
X72143709Y-65786330D01*
X72277625Y-65730861D01*
X72392621Y-65642621D01*
X72480861Y-65527625D01*
X72536330Y-65393709D01*
X72555250Y-65250000D01*
X72536330Y-65106291D01*
X72481398Y-64973671D01*
X72480862Y-64972377D01*
X72480861Y-64972376D01*
X72480861Y-64972375D01*
X72392621Y-64857379D01*
X72277625Y-64769139D01*
X72277624Y-64769138D01*
X72277622Y-64769137D01*
X72143712Y-64713671D01*
X72143710Y-64713670D01*
X72143709Y-64713670D01*
X72039877Y-64700000D01*
X72000001Y-64694750D01*
X71999999Y-64694750D01*
X71856291Y-64713670D01*
X71856287Y-64713671D01*
X71722377Y-64769137D01*
X71607379Y-64857379D01*
X71519137Y-64972377D01*
X71463671Y-65106287D01*
X71463670Y-65106291D01*
X71444750Y-65249999D01*
X69733732Y-65249999D01*
X69778390Y-65142184D01*
X69876350Y-64802157D01*
X69935623Y-64453300D01*
X69955464Y-64100000D01*
X69935623Y-63746700D01*
X69876350Y-63397843D01*
X69778390Y-63057816D01*
X69678798Y-62817379D01*
X69642978Y-62730901D01*
X69642976Y-62730897D01*
X69611348Y-62673670D01*
X69471808Y-62421192D01*
X69471806Y-62421190D01*
X69471805Y-62421187D01*
X69471802Y-62421182D01*
X69267043Y-62132603D01*
X69267037Y-62132595D01*
X69031251Y-61868751D01*
X69031248Y-61868748D01*
X68767404Y-61632962D01*
X68767396Y-61632956D01*
X68478817Y-61428197D01*
X68478812Y-61428194D01*
X68169102Y-61257023D01*
X68169098Y-61257021D01*
X68055578Y-61210000D01*
X72284750Y-61210000D01*
X72302353Y-61343709D01*
X72303670Y-61353708D01*
X72303671Y-61353712D01*
X72359137Y-61487622D01*
X72359138Y-61487624D01*
X72359139Y-61487625D01*
X72447379Y-61602621D01*
X72562375Y-61690861D01*
X72696291Y-61746330D01*
X72820153Y-61762637D01*
X72839999Y-61765250D01*
X72840000Y-61765250D01*
X72840001Y-61765250D01*
X72859847Y-61762637D01*
X72983709Y-61746330D01*
X73117625Y-61690861D01*
X73232621Y-61602621D01*
X73320861Y-61487625D01*
X73376330Y-61353709D01*
X73395250Y-61210000D01*
X73393933Y-61200000D01*
X73390691Y-61175369D01*
X73376330Y-61066291D01*
X73334117Y-60964378D01*
X73320862Y-60932377D01*
X73320861Y-60932376D01*
X73320861Y-60932375D01*
X73232621Y-60817379D01*
X73117625Y-60729139D01*
X73117624Y-60729138D01*
X73117622Y-60729137D01*
X72983712Y-60673671D01*
X72983710Y-60673670D01*
X72983709Y-60673670D01*
X72911854Y-60664210D01*
X72840001Y-60654750D01*
X72839999Y-60654750D01*
X72696291Y-60673670D01*
X72696287Y-60673671D01*
X72562377Y-60729137D01*
X72447379Y-60817379D01*
X72359137Y-60932377D01*
X72303671Y-61066287D01*
X72303670Y-61066291D01*
X72286067Y-61200000D01*
X72284750Y-61210000D01*
X68055578Y-61210000D01*
X67928893Y-61157526D01*
X67842184Y-61121610D01*
X67842180Y-61121608D01*
X67842178Y-61121608D01*
X67502162Y-61023651D01*
X67502153Y-61023649D01*
X67153307Y-60964378D01*
X67153295Y-60964376D01*
X66800000Y-60944536D01*
X66446704Y-60964376D01*
X66446692Y-60964378D01*
X66097846Y-61023649D01*
X66097837Y-61023651D01*
X65757821Y-61121608D01*
X65430901Y-61257021D01*
X65430897Y-61257023D01*
X65121187Y-61428194D01*
X65121182Y-61428197D01*
X64832603Y-61632956D01*
X64832595Y-61632962D01*
X64568751Y-61868748D01*
X64568748Y-61868751D01*
X64332962Y-62132595D01*
X64332956Y-62132603D01*
X64128197Y-62421182D01*
X64128194Y-62421187D01*
X63957023Y-62730897D01*
X63957021Y-62730901D01*
X63821608Y-63057821D01*
X63723651Y-63397837D01*
X63723649Y-63397846D01*
X63664378Y-63746692D01*
X63664376Y-63746704D01*
X63644536Y-64100000D01*
X62500500Y-64100000D01*
X62500500Y-59210000D01*
X76534750Y-59210000D01*
X76536379Y-59222377D01*
X76553670Y-59353708D01*
X76553671Y-59353712D01*
X76609137Y-59487622D01*
X76609138Y-59487624D01*
X76609139Y-59487625D01*
X76697379Y-59602621D01*
X76812375Y-59690861D01*
X76812376Y-59690861D01*
X76812377Y-59690862D01*
X76857013Y-59709350D01*
X76946291Y-59746330D01*
X77073280Y-59763048D01*
X77089999Y-59765250D01*
X77090000Y-59765250D01*
X77090001Y-59765250D01*
X77104977Y-59763278D01*
X77233709Y-59746330D01*
X77367625Y-59690861D01*
X77482621Y-59602621D01*
X77570861Y-59487625D01*
X77570862Y-59487622D01*
X77574290Y-59483155D01*
X77630718Y-59441952D01*
X77700464Y-59437797D01*
X77761384Y-59472009D01*
X77794137Y-59533726D01*
X77795605Y-59542454D01*
X77803526Y-59602619D01*
X77803670Y-59603708D01*
X77803671Y-59603712D01*
X77859137Y-59737622D01*
X77859138Y-59737624D01*
X77859139Y-59737625D01*
X77947379Y-59852621D01*
X78062375Y-59940861D01*
X78196291Y-59996330D01*
X78323280Y-60013048D01*
X78339999Y-60015250D01*
X78340000Y-60015250D01*
X78340001Y-60015250D01*
X78354977Y-60013278D01*
X78483709Y-59996330D01*
X78617625Y-59940861D01*
X78732621Y-59852621D01*
X78741625Y-59840886D01*
X78798050Y-59799685D01*
X78867796Y-59795529D01*
X78928717Y-59829740D01*
X78938367Y-59840876D01*
X78947379Y-59852621D01*
X79062375Y-59940861D01*
X79196291Y-59996330D01*
X79323280Y-60013048D01*
X79339999Y-60015250D01*
X79340000Y-60015250D01*
X79340001Y-60015250D01*
X79354977Y-60013278D01*
X79483709Y-59996330D01*
X79617625Y-59940861D01*
X79732621Y-59852621D01*
X79811365Y-59750000D01*
X88194750Y-59750000D01*
X88208260Y-59852620D01*
X88213670Y-59893708D01*
X88213671Y-59893712D01*
X88269137Y-60027622D01*
X88269138Y-60027624D01*
X88269139Y-60027625D01*
X88357379Y-60142621D01*
X88472375Y-60230861D01*
X88472376Y-60230861D01*
X88472377Y-60230862D01*
X88517013Y-60249350D01*
X88606291Y-60286330D01*
X88733280Y-60303048D01*
X88749999Y-60305250D01*
X88750000Y-60305250D01*
X88750001Y-60305250D01*
X88764977Y-60303278D01*
X88893709Y-60286330D01*
X89027625Y-60230861D01*
X89142621Y-60142621D01*
X89230861Y-60027625D01*
X89242304Y-59999999D01*
X90694750Y-59999999D01*
X90694750Y-60000000D01*
X90713670Y-60143708D01*
X90713671Y-60143712D01*
X90769137Y-60277622D01*
X90769138Y-60277623D01*
X90769139Y-60277625D01*
X90857379Y-60392621D01*
X90972375Y-60480861D01*
X90972376Y-60480861D01*
X90972377Y-60480862D01*
X91017013Y-60499350D01*
X91106291Y-60536330D01*
X91233280Y-60553048D01*
X91249999Y-60555250D01*
X91250000Y-60555250D01*
X91250001Y-60555250D01*
X91264977Y-60553278D01*
X91393709Y-60536330D01*
X91527625Y-60480861D01*
X91642621Y-60392621D01*
X91730861Y-60277625D01*
X91786330Y-60143709D01*
X91805250Y-60000000D01*
X91786330Y-59856291D01*
X91748620Y-59765250D01*
X91730862Y-59722377D01*
X91730861Y-59722376D01*
X91730861Y-59722375D01*
X91642621Y-59607379D01*
X91527625Y-59519139D01*
X91527624Y-59519138D01*
X91527622Y-59519137D01*
X91481420Y-59500000D01*
X92444750Y-59500000D01*
X92458260Y-59602620D01*
X92463670Y-59643708D01*
X92463671Y-59643712D01*
X92519137Y-59777622D01*
X92519138Y-59777624D01*
X92519139Y-59777625D01*
X92607379Y-59892621D01*
X92722375Y-59980861D01*
X92856291Y-60036330D01*
X92983280Y-60053048D01*
X92999999Y-60055250D01*
X93000000Y-60055250D01*
X93000001Y-60055250D01*
X93014977Y-60053278D01*
X93143709Y-60036330D01*
X93277625Y-59980861D01*
X93392621Y-59892621D01*
X93480861Y-59777625D01*
X93536330Y-59643709D01*
X93555250Y-59500000D01*
X93536330Y-59356291D01*
X93499350Y-59267013D01*
X93480862Y-59222377D01*
X93480861Y-59222376D01*
X93480861Y-59222375D01*
X93392621Y-59107379D01*
X93277625Y-59019139D01*
X93277624Y-59019138D01*
X93277622Y-59019137D01*
X93143712Y-58963671D01*
X93143710Y-58963670D01*
X93143709Y-58963670D01*
X93071854Y-58954210D01*
X93000001Y-58944750D01*
X92999999Y-58944750D01*
X92856291Y-58963670D01*
X92856287Y-58963671D01*
X92722377Y-59019137D01*
X92607379Y-59107379D01*
X92519137Y-59222377D01*
X92463671Y-59356287D01*
X92463670Y-59356291D01*
X92444750Y-59500000D01*
X91481420Y-59500000D01*
X91393712Y-59463671D01*
X91393710Y-59463670D01*
X91393709Y-59463670D01*
X91321854Y-59454210D01*
X91250001Y-59444750D01*
X91249999Y-59444750D01*
X91106291Y-59463670D01*
X91106287Y-59463671D01*
X90972377Y-59519137D01*
X90857379Y-59607379D01*
X90769137Y-59722377D01*
X90713671Y-59856287D01*
X90713670Y-59856291D01*
X90694750Y-59999999D01*
X89242304Y-59999999D01*
X89286330Y-59893709D01*
X89305250Y-59750000D01*
X89286330Y-59606291D01*
X89249350Y-59517013D01*
X89230862Y-59472377D01*
X89230861Y-59472376D01*
X89230861Y-59472375D01*
X89142621Y-59357379D01*
X89027625Y-59269139D01*
X89027624Y-59269138D01*
X89027622Y-59269137D01*
X88893712Y-59213671D01*
X88893710Y-59213670D01*
X88893709Y-59213670D01*
X88821854Y-59204210D01*
X88750001Y-59194750D01*
X88749999Y-59194750D01*
X88606291Y-59213670D01*
X88606287Y-59213671D01*
X88472377Y-59269137D01*
X88357379Y-59357379D01*
X88269137Y-59472377D01*
X88213671Y-59606287D01*
X88213670Y-59606291D01*
X88194750Y-59750000D01*
X79811365Y-59750000D01*
X79820861Y-59737625D01*
X79876330Y-59603709D01*
X79895250Y-59460000D01*
X79876330Y-59316291D01*
X79833824Y-59213670D01*
X79820862Y-59182377D01*
X79820861Y-59182376D01*
X79820861Y-59182375D01*
X79732621Y-59067379D01*
X79617625Y-58979139D01*
X79617624Y-58979138D01*
X79617622Y-58979137D01*
X79483712Y-58923671D01*
X79483710Y-58923670D01*
X79483709Y-58923670D01*
X79411854Y-58914210D01*
X79340001Y-58904750D01*
X79339999Y-58904750D01*
X79196291Y-58923670D01*
X79196287Y-58923671D01*
X79062377Y-58979137D01*
X79044806Y-58992620D01*
X78947379Y-59067379D01*
X78947378Y-59067380D01*
X78947377Y-59067381D01*
X78938375Y-59079113D01*
X78881947Y-59120316D01*
X78812201Y-59124470D01*
X78751281Y-59090257D01*
X78741625Y-59079113D01*
X78739782Y-59076711D01*
X78732621Y-59067379D01*
X78617625Y-58979139D01*
X78617624Y-58979138D01*
X78617622Y-58979137D01*
X78483712Y-58923671D01*
X78483710Y-58923670D01*
X78483709Y-58923670D01*
X78411854Y-58914210D01*
X78340001Y-58904750D01*
X78339999Y-58904750D01*
X78196291Y-58923670D01*
X78196287Y-58923671D01*
X78062377Y-58979137D01*
X78044806Y-58992620D01*
X77947379Y-59067379D01*
X77947378Y-59067380D01*
X77947377Y-59067381D01*
X77855708Y-59186845D01*
X77799280Y-59228048D01*
X77729534Y-59232202D01*
X77668614Y-59197989D01*
X77635862Y-59136271D01*
X77634394Y-59127544D01*
X77626330Y-59066291D01*
X77570861Y-58932375D01*
X77482621Y-58817379D01*
X77367625Y-58729139D01*
X77367624Y-58729138D01*
X77367622Y-58729137D01*
X77233712Y-58673671D01*
X77233710Y-58673670D01*
X77233709Y-58673670D01*
X77161854Y-58664210D01*
X77090001Y-58654750D01*
X77089999Y-58654750D01*
X76946291Y-58673670D01*
X76946287Y-58673671D01*
X76812377Y-58729137D01*
X76697379Y-58817379D01*
X76609137Y-58932377D01*
X76553671Y-59066287D01*
X76553670Y-59066291D01*
X76534750Y-59210000D01*
X62500500Y-59210000D01*
X62500500Y-58599999D01*
X71044750Y-58599999D01*
X71044750Y-58600000D01*
X71063670Y-58743708D01*
X71063671Y-58743712D01*
X71119137Y-58877622D01*
X71119138Y-58877624D01*
X71119139Y-58877625D01*
X71207379Y-58992621D01*
X71322375Y-59080861D01*
X71456291Y-59136330D01*
X71583280Y-59153048D01*
X71599999Y-59155250D01*
X71600000Y-59155250D01*
X71600001Y-59155250D01*
X71614977Y-59153278D01*
X71743709Y-59136330D01*
X71877625Y-59080861D01*
X71992621Y-58992621D01*
X72080861Y-58877625D01*
X72136330Y-58743709D01*
X72155250Y-58600000D01*
X72136330Y-58456291D01*
X72080861Y-58322375D01*
X71992621Y-58207379D01*
X71877625Y-58119139D01*
X71877624Y-58119138D01*
X71877622Y-58119137D01*
X71743712Y-58063671D01*
X71743710Y-58063670D01*
X71743709Y-58063670D01*
X71671854Y-58054210D01*
X71600001Y-58044750D01*
X71599999Y-58044750D01*
X71456291Y-58063670D01*
X71456287Y-58063671D01*
X71322377Y-58119137D01*
X71207379Y-58207379D01*
X71119137Y-58322377D01*
X71063671Y-58456287D01*
X71063670Y-58456291D01*
X71044750Y-58599999D01*
X62500500Y-58599999D01*
X62500500Y-57499999D01*
X87694750Y-57499999D01*
X87694750Y-57500000D01*
X87713670Y-57643708D01*
X87713671Y-57643712D01*
X87769137Y-57777622D01*
X87769138Y-57777624D01*
X87769139Y-57777625D01*
X87857379Y-57892621D01*
X87972375Y-57980861D01*
X88106291Y-58036330D01*
X88233280Y-58053048D01*
X88249999Y-58055250D01*
X88250000Y-58055250D01*
X88250001Y-58055250D01*
X88264977Y-58053278D01*
X88393709Y-58036330D01*
X88527625Y-57980861D01*
X88642621Y-57892621D01*
X88730861Y-57777625D01*
X88786330Y-57643709D01*
X88805250Y-57500000D01*
X88786330Y-57356291D01*
X88743678Y-57253319D01*
X88730862Y-57222377D01*
X88730861Y-57222376D01*
X88730861Y-57222375D01*
X88713687Y-57199994D01*
X89544529Y-57199994D01*
X89544529Y-57200005D01*
X89564379Y-57439559D01*
X89623389Y-57672589D01*
X89719951Y-57892729D01*
X89831634Y-58063671D01*
X89851429Y-58093969D01*
X90014236Y-58270825D01*
X90014239Y-58270827D01*
X90014242Y-58270830D01*
X90203924Y-58418466D01*
X90203930Y-58418470D01*
X90203933Y-58418472D01*
X90415344Y-58532882D01*
X90415347Y-58532883D01*
X90642699Y-58610933D01*
X90642701Y-58610933D01*
X90642703Y-58610934D01*
X90879808Y-58650500D01*
X90879809Y-58650500D01*
X91120191Y-58650500D01*
X91120192Y-58650500D01*
X91357297Y-58610934D01*
X91584656Y-58532882D01*
X91796067Y-58418472D01*
X91985764Y-58270825D01*
X92148571Y-58093969D01*
X92280049Y-57892728D01*
X92376610Y-57672591D01*
X92435620Y-57439563D01*
X92442521Y-57356287D01*
X92449831Y-57268069D01*
X92462397Y-57235502D01*
X92685393Y-57235502D01*
X92694863Y-57253319D01*
X92696346Y-57262123D01*
X92713670Y-57393708D01*
X92713671Y-57393712D01*
X92769137Y-57527622D01*
X92769138Y-57527624D01*
X92769139Y-57527625D01*
X92857379Y-57642621D01*
X92972375Y-57730861D01*
X93106291Y-57786330D01*
X93233280Y-57803048D01*
X93249999Y-57805250D01*
X93250000Y-57805250D01*
X93250001Y-57805250D01*
X93264977Y-57803278D01*
X93393709Y-57786330D01*
X93527625Y-57730861D01*
X93642621Y-57642621D01*
X93730861Y-57527625D01*
X93786330Y-57393709D01*
X93805250Y-57250000D01*
X93786330Y-57106291D01*
X93749350Y-57017013D01*
X93730862Y-56972377D01*
X93730861Y-56972376D01*
X93730861Y-56972375D01*
X93642621Y-56857379D01*
X93527625Y-56769139D01*
X93527624Y-56769138D01*
X93527622Y-56769137D01*
X93393712Y-56713671D01*
X93393710Y-56713670D01*
X93393709Y-56713670D01*
X93321854Y-56704210D01*
X93250001Y-56694750D01*
X93249999Y-56694750D01*
X93106291Y-56713670D01*
X93106287Y-56713671D01*
X92972377Y-56769137D01*
X92857379Y-56857379D01*
X92769137Y-56972377D01*
X92713671Y-57106287D01*
X92713670Y-57106291D01*
X92701431Y-57199250D01*
X92685393Y-57235502D01*
X92462397Y-57235502D01*
X92466576Y-57224673D01*
X92455973Y-57202168D01*
X92454916Y-57193303D01*
X92435620Y-56960437D01*
X92376610Y-56727409D01*
X92280049Y-56507272D01*
X92275297Y-56499999D01*
X92157135Y-56319139D01*
X92148571Y-56306031D01*
X91985764Y-56129175D01*
X91985759Y-56129171D01*
X91985757Y-56129169D01*
X91796075Y-55981533D01*
X91796069Y-55981529D01*
X91784598Y-55975321D01*
X94549500Y-55975321D01*
X94549500Y-58424678D01*
X94564032Y-58497735D01*
X94564033Y-58497739D01*
X94564034Y-58497740D01*
X94619399Y-58580601D01*
X94702260Y-58635966D01*
X94702264Y-58635967D01*
X94775321Y-58650499D01*
X94775324Y-58650500D01*
X94775326Y-58650500D01*
X97224676Y-58650500D01*
X97224677Y-58650499D01*
X97297740Y-58635966D01*
X97380601Y-58580601D01*
X97435966Y-58497740D01*
X97450500Y-58424674D01*
X97450500Y-55975326D01*
X97450500Y-55975323D01*
X97450499Y-55975321D01*
X97435967Y-55902264D01*
X97435966Y-55902260D01*
X97380601Y-55819399D01*
X97297740Y-55764034D01*
X97297739Y-55764033D01*
X97297735Y-55764032D01*
X97224677Y-55749500D01*
X97224674Y-55749500D01*
X94775326Y-55749500D01*
X94775323Y-55749500D01*
X94702264Y-55764032D01*
X94702260Y-55764033D01*
X94619399Y-55819399D01*
X94564033Y-55902260D01*
X94564032Y-55902264D01*
X94549500Y-55975321D01*
X91784598Y-55975321D01*
X91584657Y-55867118D01*
X91584652Y-55867116D01*
X91357300Y-55789066D01*
X91197018Y-55762320D01*
X91134133Y-55731869D01*
X91097693Y-55672254D01*
X91099269Y-55602403D01*
X91138359Y-55544491D01*
X91169976Y-55525450D01*
X91277625Y-55480861D01*
X91392621Y-55392621D01*
X91480861Y-55277625D01*
X91492304Y-55249999D01*
X92694750Y-55249999D01*
X92694750Y-55250000D01*
X92713670Y-55393708D01*
X92713671Y-55393712D01*
X92769137Y-55527622D01*
X92769138Y-55527624D01*
X92769139Y-55527625D01*
X92857379Y-55642621D01*
X92972375Y-55730861D01*
X92972376Y-55730861D01*
X92972377Y-55730862D01*
X93017013Y-55749350D01*
X93106291Y-55786330D01*
X93233280Y-55803048D01*
X93249999Y-55805250D01*
X93250000Y-55805250D01*
X93250001Y-55805250D01*
X93264977Y-55803278D01*
X93393709Y-55786330D01*
X93527625Y-55730861D01*
X93642621Y-55642621D01*
X93730861Y-55527625D01*
X93786330Y-55393709D01*
X93805250Y-55250000D01*
X93786330Y-55106291D01*
X93749350Y-55017013D01*
X93730862Y-54972377D01*
X93730861Y-54972376D01*
X93730861Y-54972375D01*
X93642621Y-54857379D01*
X93527625Y-54769139D01*
X93527624Y-54769138D01*
X93527622Y-54769137D01*
X93393712Y-54713671D01*
X93393710Y-54713670D01*
X93393709Y-54713670D01*
X93321854Y-54704210D01*
X93250001Y-54694750D01*
X93249999Y-54694750D01*
X93106291Y-54713670D01*
X93106287Y-54713671D01*
X92972377Y-54769137D01*
X92857379Y-54857379D01*
X92769137Y-54972377D01*
X92713671Y-55106287D01*
X92713670Y-55106291D01*
X92694750Y-55249999D01*
X91492304Y-55249999D01*
X91536330Y-55143709D01*
X91555250Y-55000000D01*
X91536330Y-54856291D01*
X91480861Y-54722375D01*
X91392621Y-54607379D01*
X91277625Y-54519139D01*
X91277624Y-54519138D01*
X91277622Y-54519137D01*
X91143712Y-54463671D01*
X91143710Y-54463670D01*
X91143709Y-54463670D01*
X91071854Y-54454210D01*
X91000001Y-54444750D01*
X90999999Y-54444750D01*
X90856291Y-54463670D01*
X90856287Y-54463671D01*
X90722377Y-54519137D01*
X90607379Y-54607379D01*
X90519137Y-54722377D01*
X90463671Y-54856287D01*
X90463670Y-54856291D01*
X90444750Y-55000000D01*
X90453132Y-55063670D01*
X90463670Y-55143708D01*
X90463671Y-55143712D01*
X90519137Y-55277622D01*
X90519138Y-55277624D01*
X90519139Y-55277625D01*
X90607379Y-55392621D01*
X90722375Y-55480861D01*
X90722376Y-55480861D01*
X90722377Y-55480862D01*
X90830023Y-55525450D01*
X90884427Y-55569291D01*
X90906492Y-55635585D01*
X90889213Y-55703284D01*
X90838076Y-55750895D01*
X90802981Y-55762320D01*
X90642699Y-55789066D01*
X90415347Y-55867116D01*
X90415342Y-55867118D01*
X90203930Y-55981529D01*
X90203924Y-55981533D01*
X90014242Y-56129169D01*
X90014239Y-56129172D01*
X90014236Y-56129174D01*
X90014236Y-56129175D01*
X89990232Y-56155250D01*
X89851430Y-56306029D01*
X89851427Y-56306033D01*
X89719951Y-56507270D01*
X89623389Y-56727410D01*
X89564379Y-56960440D01*
X89544529Y-57199994D01*
X88713687Y-57199994D01*
X88642621Y-57107379D01*
X88527625Y-57019139D01*
X88527624Y-57019138D01*
X88527622Y-57019137D01*
X88393712Y-56963671D01*
X88393710Y-56963670D01*
X88393709Y-56963670D01*
X88321854Y-56954210D01*
X88250001Y-56944750D01*
X88249999Y-56944750D01*
X88106291Y-56963670D01*
X88106287Y-56963671D01*
X87972377Y-57019137D01*
X87857379Y-57107379D01*
X87769137Y-57222377D01*
X87713671Y-57356287D01*
X87713670Y-57356291D01*
X87694750Y-57499999D01*
X62500500Y-57499999D01*
X62500500Y-54502706D01*
X62500618Y-54497297D01*
X62506018Y-54373610D01*
X62517386Y-54113226D01*
X62518326Y-54102495D01*
X62531820Y-53999997D01*
X63044432Y-53999997D01*
X63044432Y-54000002D01*
X63064688Y-54373610D01*
X63100593Y-54592621D01*
X63121865Y-54722377D01*
X63125222Y-54742850D01*
X63125223Y-54742853D01*
X63225317Y-55103362D01*
X63225318Y-55103364D01*
X63363806Y-55450945D01*
X63363815Y-55450963D01*
X63539073Y-55781534D01*
X63674220Y-55980861D01*
X63742022Y-56080862D01*
X63749045Y-56091219D01*
X63749052Y-56091229D01*
X63974199Y-56356291D01*
X63991273Y-56376392D01*
X64262913Y-56633703D01*
X64560780Y-56860136D01*
X64560785Y-56860139D01*
X64560789Y-56860142D01*
X64560794Y-56860146D01*
X64853617Y-57036330D01*
X64881383Y-57053036D01*
X64881387Y-57053037D01*
X64881391Y-57053040D01*
X64998843Y-57107379D01*
X65220962Y-57210142D01*
X65575538Y-57329613D01*
X65940951Y-57410046D01*
X66312919Y-57450500D01*
X66312925Y-57450500D01*
X66687075Y-57450500D01*
X66687081Y-57450500D01*
X67059049Y-57410046D01*
X67424462Y-57329613D01*
X67779038Y-57210142D01*
X68118617Y-57053036D01*
X68272518Y-56960437D01*
X68439205Y-56860146D01*
X68439210Y-56860142D01*
X68439209Y-56860142D01*
X68439220Y-56860136D01*
X68737087Y-56633703D01*
X68878236Y-56500000D01*
X70944750Y-56500000D01*
X70963656Y-56643606D01*
X70963670Y-56643708D01*
X70963671Y-56643712D01*
X71019137Y-56777622D01*
X71019138Y-56777624D01*
X71019139Y-56777625D01*
X71107379Y-56892621D01*
X71222375Y-56980861D01*
X71356291Y-57036330D01*
X71483161Y-57053033D01*
X71499999Y-57055250D01*
X71500000Y-57055250D01*
X71500001Y-57055250D01*
X71516839Y-57053033D01*
X71643709Y-57036330D01*
X71777625Y-56980861D01*
X71892621Y-56892621D01*
X71963692Y-56800000D01*
X72544750Y-56800000D01*
X72552160Y-56856287D01*
X72563670Y-56943708D01*
X72563671Y-56943712D01*
X72619137Y-57077622D01*
X72619138Y-57077624D01*
X72619139Y-57077625D01*
X72707379Y-57192621D01*
X72822375Y-57280861D01*
X72956291Y-57336330D01*
X73083280Y-57353048D01*
X73099999Y-57355250D01*
X73100000Y-57355250D01*
X73100001Y-57355250D01*
X73114977Y-57353278D01*
X73243709Y-57336330D01*
X73377625Y-57280861D01*
X73492621Y-57192621D01*
X73580861Y-57077625D01*
X73636330Y-56943709D01*
X73655250Y-56800000D01*
X73636330Y-56656291D01*
X73580861Y-56522375D01*
X73492621Y-56407379D01*
X73377625Y-56319139D01*
X73377624Y-56319138D01*
X73377622Y-56319137D01*
X73331420Y-56300000D01*
X74144750Y-56300000D01*
X74152160Y-56356287D01*
X74163670Y-56443708D01*
X74163671Y-56443712D01*
X74219137Y-56577622D01*
X74219138Y-56577624D01*
X74219139Y-56577625D01*
X74307379Y-56692621D01*
X74422375Y-56780861D01*
X74556291Y-56836330D01*
X74683280Y-56853048D01*
X74699999Y-56855250D01*
X74700000Y-56855250D01*
X74700001Y-56855250D01*
X74714977Y-56853278D01*
X74843709Y-56836330D01*
X74977625Y-56780861D01*
X75092621Y-56692621D01*
X75180861Y-56577625D01*
X75236330Y-56443709D01*
X75255250Y-56300000D01*
X75236330Y-56156291D01*
X75186641Y-56036329D01*
X75180862Y-56022377D01*
X75180861Y-56022376D01*
X75180861Y-56022375D01*
X75092621Y-55907379D01*
X74977625Y-55819139D01*
X74977624Y-55819138D01*
X74977622Y-55819137D01*
X74843712Y-55763671D01*
X74843710Y-55763670D01*
X74843709Y-55763670D01*
X74746675Y-55750895D01*
X74700001Y-55744750D01*
X74699999Y-55744750D01*
X74556291Y-55763670D01*
X74556287Y-55763671D01*
X74422377Y-55819137D01*
X74307379Y-55907379D01*
X74219137Y-56022377D01*
X74163671Y-56156287D01*
X74163670Y-56156291D01*
X74144750Y-56300000D01*
X73331420Y-56300000D01*
X73243712Y-56263671D01*
X73243710Y-56263670D01*
X73243709Y-56263670D01*
X73171854Y-56254210D01*
X73100001Y-56244750D01*
X73099999Y-56244750D01*
X72956291Y-56263670D01*
X72956287Y-56263671D01*
X72822377Y-56319137D01*
X72707379Y-56407379D01*
X72619137Y-56522377D01*
X72563671Y-56656287D01*
X72563670Y-56656291D01*
X72547270Y-56780862D01*
X72544750Y-56800000D01*
X71963692Y-56800000D01*
X71980861Y-56777625D01*
X72036330Y-56643709D01*
X72055250Y-56500000D01*
X72036330Y-56356291D01*
X71980861Y-56222375D01*
X71892621Y-56107379D01*
X71777625Y-56019139D01*
X71777624Y-56019138D01*
X71777622Y-56019137D01*
X71643712Y-55963671D01*
X71643710Y-55963670D01*
X71643709Y-55963670D01*
X71571854Y-55954210D01*
X71500001Y-55944750D01*
X71499999Y-55944750D01*
X71356291Y-55963670D01*
X71356287Y-55963671D01*
X71222377Y-56019137D01*
X71107379Y-56107379D01*
X71019137Y-56222377D01*
X70963671Y-56356287D01*
X70963670Y-56356291D01*
X70949598Y-56463180D01*
X70944750Y-56500000D01*
X68878236Y-56500000D01*
X69008727Y-56376392D01*
X69250954Y-56091221D01*
X69460928Y-55781531D01*
X69557170Y-55600000D01*
X83244750Y-55600000D01*
X83261978Y-55730861D01*
X83263670Y-55743708D01*
X83263671Y-55743712D01*
X83319137Y-55877622D01*
X83319138Y-55877624D01*
X83319139Y-55877625D01*
X83407379Y-55992621D01*
X83522375Y-56080861D01*
X83522376Y-56080861D01*
X83522377Y-56080862D01*
X83547406Y-56091229D01*
X83656291Y-56136330D01*
X83783280Y-56153048D01*
X83799999Y-56155250D01*
X83800000Y-56155250D01*
X83800001Y-56155250D01*
X83814977Y-56153278D01*
X83943709Y-56136330D01*
X84077625Y-56080861D01*
X84192621Y-55992621D01*
X84280861Y-55877625D01*
X84336330Y-55743709D01*
X84355250Y-55600000D01*
X84336330Y-55456291D01*
X84280861Y-55322375D01*
X84192621Y-55207379D01*
X84077625Y-55119139D01*
X84077624Y-55119138D01*
X84077622Y-55119137D01*
X83943712Y-55063671D01*
X83943710Y-55063670D01*
X83943709Y-55063670D01*
X83871854Y-55054210D01*
X83800001Y-55044750D01*
X83799999Y-55044750D01*
X83656291Y-55063670D01*
X83656287Y-55063671D01*
X83522377Y-55119137D01*
X83407379Y-55207379D01*
X83319137Y-55322377D01*
X83263671Y-55456287D01*
X83263670Y-55456291D01*
X83250642Y-55555250D01*
X83244750Y-55600000D01*
X69557170Y-55600000D01*
X69636189Y-55450955D01*
X69774680Y-55103368D01*
X69874779Y-54742845D01*
X69935311Y-54373613D01*
X69950146Y-54100000D01*
X70744750Y-54100000D01*
X70757915Y-54200000D01*
X70763670Y-54243708D01*
X70763671Y-54243712D01*
X70819137Y-54377622D01*
X70819138Y-54377624D01*
X70819139Y-54377625D01*
X70907379Y-54492621D01*
X71022375Y-54580861D01*
X71022376Y-54580861D01*
X71022377Y-54580862D01*
X71067013Y-54599350D01*
X71156291Y-54636330D01*
X71283280Y-54653048D01*
X71299999Y-54655250D01*
X71300000Y-54655250D01*
X71300001Y-54655250D01*
X71314977Y-54653278D01*
X71443709Y-54636330D01*
X71577625Y-54580861D01*
X71692621Y-54492621D01*
X71780861Y-54377625D01*
X71836330Y-54243709D01*
X71855250Y-54100000D01*
X74444750Y-54100000D01*
X74457915Y-54200000D01*
X74463670Y-54243708D01*
X74463671Y-54243712D01*
X74519137Y-54377622D01*
X74519138Y-54377624D01*
X74519139Y-54377625D01*
X74607379Y-54492621D01*
X74722375Y-54580861D01*
X74722376Y-54580861D01*
X74722377Y-54580862D01*
X74767013Y-54599350D01*
X74856291Y-54636330D01*
X74983280Y-54653048D01*
X74999999Y-54655250D01*
X75000000Y-54655250D01*
X75000001Y-54655250D01*
X75014977Y-54653278D01*
X75143709Y-54636330D01*
X75277625Y-54580861D01*
X75392621Y-54492621D01*
X75480861Y-54377625D01*
X75536330Y-54243709D01*
X75555250Y-54100000D01*
X75536330Y-53956291D01*
X75480861Y-53822375D01*
X75392621Y-53707379D01*
X75277625Y-53619139D01*
X75277624Y-53619138D01*
X75277622Y-53619137D01*
X75143712Y-53563671D01*
X75143710Y-53563670D01*
X75143709Y-53563670D01*
X75071854Y-53554210D01*
X75000001Y-53544750D01*
X74999999Y-53544750D01*
X74856291Y-53563670D01*
X74856287Y-53563671D01*
X74722377Y-53619137D01*
X74607379Y-53707379D01*
X74519137Y-53822377D01*
X74463671Y-53956287D01*
X74463670Y-53956291D01*
X74450505Y-54056291D01*
X74444750Y-54100000D01*
X71855250Y-54100000D01*
X71836330Y-53956291D01*
X71780861Y-53822375D01*
X71692621Y-53707379D01*
X71577625Y-53619139D01*
X71577624Y-53619138D01*
X71577622Y-53619137D01*
X71443712Y-53563671D01*
X71443710Y-53563670D01*
X71443709Y-53563670D01*
X71371854Y-53554210D01*
X71300001Y-53544750D01*
X71299999Y-53544750D01*
X71156291Y-53563670D01*
X71156287Y-53563671D01*
X71022377Y-53619137D01*
X70907379Y-53707379D01*
X70819137Y-53822377D01*
X70763671Y-53956287D01*
X70763670Y-53956291D01*
X70750505Y-54056291D01*
X70744750Y-54100000D01*
X69950146Y-54100000D01*
X69955568Y-54000000D01*
X69954530Y-53980862D01*
X69940606Y-53724042D01*
X69935311Y-53626387D01*
X69874779Y-53257155D01*
X69808694Y-53019139D01*
X69774682Y-52896637D01*
X69774681Y-52896635D01*
X69636193Y-52549054D01*
X69636184Y-52549036D01*
X69609558Y-52498815D01*
X69460928Y-52218469D01*
X69460926Y-52218465D01*
X69312802Y-51999999D01*
X69250954Y-51908779D01*
X69250950Y-51908774D01*
X69250947Y-51908770D01*
X69158556Y-51800000D01*
X70944750Y-51800000D01*
X70962698Y-51936329D01*
X70963670Y-51943708D01*
X70963671Y-51943712D01*
X71019137Y-52077622D01*
X71019138Y-52077624D01*
X71019139Y-52077625D01*
X71107379Y-52192621D01*
X71222375Y-52280861D01*
X71356291Y-52336330D01*
X71483280Y-52353048D01*
X71499999Y-52355250D01*
X71500000Y-52355250D01*
X71500001Y-52355250D01*
X71514977Y-52353278D01*
X71643709Y-52336330D01*
X71777625Y-52280861D01*
X71883005Y-52200000D01*
X74444750Y-52200000D01*
X74462698Y-52336329D01*
X74463670Y-52343708D01*
X74463671Y-52343712D01*
X74519137Y-52477622D01*
X74519138Y-52477624D01*
X74519139Y-52477625D01*
X74607379Y-52592621D01*
X74722375Y-52680861D01*
X74856291Y-52736330D01*
X74983280Y-52753048D01*
X74999999Y-52755250D01*
X75000000Y-52755250D01*
X75000001Y-52755250D01*
X75014977Y-52753278D01*
X75143709Y-52736330D01*
X75277625Y-52680861D01*
X75392621Y-52592621D01*
X75480861Y-52477625D01*
X75536330Y-52343709D01*
X75555250Y-52200000D01*
X75536330Y-52056291D01*
X75486641Y-51936329D01*
X75480862Y-51922377D01*
X75480861Y-51922376D01*
X75480861Y-51922375D01*
X75392621Y-51807379D01*
X75277625Y-51719139D01*
X75277624Y-51719138D01*
X75277622Y-51719137D01*
X75143712Y-51663671D01*
X75143710Y-51663670D01*
X75143709Y-51663670D01*
X75071854Y-51654210D01*
X75000001Y-51644750D01*
X74999999Y-51644750D01*
X74856291Y-51663670D01*
X74856287Y-51663671D01*
X74722377Y-51719137D01*
X74607379Y-51807379D01*
X74519137Y-51922377D01*
X74463671Y-52056287D01*
X74463670Y-52056291D01*
X74445722Y-52192620D01*
X74444750Y-52200000D01*
X71883005Y-52200000D01*
X71892621Y-52192621D01*
X71980861Y-52077625D01*
X72036330Y-51943709D01*
X72055250Y-51800000D01*
X72036330Y-51656291D01*
X71980861Y-51522375D01*
X71892621Y-51407379D01*
X71883005Y-51400000D01*
X72544750Y-51400000D01*
X72553132Y-51463670D01*
X72563670Y-51543708D01*
X72563671Y-51543712D01*
X72619137Y-51677622D01*
X72619138Y-51677623D01*
X72619139Y-51677625D01*
X72707379Y-51792621D01*
X72822375Y-51880861D01*
X72956291Y-51936330D01*
X73083280Y-51953048D01*
X73099999Y-51955250D01*
X73100000Y-51955250D01*
X73100001Y-51955250D01*
X73114977Y-51953278D01*
X73243709Y-51936330D01*
X73377625Y-51880861D01*
X73492621Y-51792621D01*
X73580861Y-51677625D01*
X73636330Y-51543709D01*
X73655250Y-51400000D01*
X77044750Y-51400000D01*
X77053132Y-51463670D01*
X77063670Y-51543708D01*
X77063671Y-51543712D01*
X77119138Y-51677623D01*
X77119139Y-51677625D01*
X77155118Y-51724514D01*
X77180312Y-51789683D01*
X77166274Y-51858128D01*
X77155118Y-51875486D01*
X77119139Y-51922374D01*
X77119138Y-51922376D01*
X77063671Y-52056287D01*
X77063670Y-52056291D01*
X77045722Y-52192620D01*
X77044750Y-52200000D01*
X77062698Y-52336329D01*
X77063670Y-52343708D01*
X77063671Y-52343712D01*
X77119137Y-52477622D01*
X77119138Y-52477624D01*
X77119139Y-52477625D01*
X77207379Y-52592621D01*
X77322375Y-52680861D01*
X77333428Y-52685439D01*
X77387831Y-52729281D01*
X77409895Y-52795575D01*
X77392615Y-52863274D01*
X77341478Y-52910884D01*
X77333433Y-52914558D01*
X77322375Y-52919139D01*
X77207379Y-53007379D01*
X77119137Y-53122377D01*
X77063671Y-53256287D01*
X77063670Y-53256291D01*
X77050505Y-53356291D01*
X77044750Y-53400000D01*
X77057915Y-53500000D01*
X77063670Y-53543708D01*
X77063671Y-53543712D01*
X77119138Y-53677623D01*
X77119139Y-53677625D01*
X77155118Y-53724514D01*
X77180312Y-53789683D01*
X77166274Y-53858128D01*
X77155118Y-53875486D01*
X77119139Y-53922374D01*
X77119138Y-53922376D01*
X77063671Y-54056287D01*
X77063670Y-54056291D01*
X77044750Y-54199999D01*
X77044750Y-54200000D01*
X77063670Y-54343708D01*
X77063671Y-54343712D01*
X77119138Y-54477623D01*
X77119139Y-54477625D01*
X77155118Y-54524514D01*
X77180312Y-54589683D01*
X77166274Y-54658128D01*
X77155118Y-54675486D01*
X77119139Y-54722374D01*
X77119138Y-54722376D01*
X77063671Y-54856287D01*
X77063670Y-54856291D01*
X77044750Y-55000000D01*
X77053132Y-55063670D01*
X77063670Y-55143708D01*
X77063671Y-55143712D01*
X77119137Y-55277622D01*
X77119138Y-55277624D01*
X77119139Y-55277625D01*
X77207379Y-55392621D01*
X77322375Y-55480861D01*
X77456291Y-55536330D01*
X77583280Y-55553048D01*
X77599999Y-55555250D01*
X77600000Y-55555250D01*
X77600001Y-55555250D01*
X77614977Y-55553278D01*
X77743709Y-55536330D01*
X77877625Y-55480861D01*
X77992621Y-55392621D01*
X78080861Y-55277625D01*
X78136330Y-55143709D01*
X78155250Y-55000000D01*
X85944750Y-55000000D01*
X85953132Y-55063670D01*
X85963670Y-55143708D01*
X85963671Y-55143712D01*
X86019137Y-55277622D01*
X86019138Y-55277624D01*
X86019139Y-55277625D01*
X86107379Y-55392621D01*
X86222375Y-55480861D01*
X86356291Y-55536330D01*
X86483280Y-55553048D01*
X86499999Y-55555250D01*
X86500000Y-55555250D01*
X86500001Y-55555250D01*
X86514977Y-55553278D01*
X86643709Y-55536330D01*
X86731419Y-55500000D01*
X88194750Y-55500000D01*
X88212600Y-55635585D01*
X88213670Y-55643708D01*
X88213671Y-55643712D01*
X88269137Y-55777622D01*
X88269138Y-55777624D01*
X88269139Y-55777625D01*
X88357379Y-55892621D01*
X88472375Y-55980861D01*
X88472376Y-55980861D01*
X88472377Y-55980862D01*
X88517013Y-55999350D01*
X88606291Y-56036330D01*
X88733280Y-56053048D01*
X88749999Y-56055250D01*
X88750000Y-56055250D01*
X88750001Y-56055250D01*
X88764977Y-56053278D01*
X88893709Y-56036330D01*
X89027625Y-55980861D01*
X89142621Y-55892621D01*
X89230861Y-55777625D01*
X89286330Y-55643709D01*
X89305250Y-55500000D01*
X89286330Y-55356291D01*
X89249350Y-55267013D01*
X89230862Y-55222377D01*
X89230861Y-55222376D01*
X89230861Y-55222375D01*
X89142621Y-55107379D01*
X89027625Y-55019139D01*
X89027624Y-55019138D01*
X89027622Y-55019137D01*
X88893712Y-54963671D01*
X88893710Y-54963670D01*
X88893709Y-54963670D01*
X88821854Y-54954210D01*
X88750001Y-54944750D01*
X88749999Y-54944750D01*
X88606291Y-54963670D01*
X88606287Y-54963671D01*
X88472377Y-55019137D01*
X88357379Y-55107379D01*
X88269137Y-55222377D01*
X88213671Y-55356287D01*
X88213670Y-55356291D01*
X88197270Y-55480862D01*
X88194750Y-55500000D01*
X86731419Y-55500000D01*
X86777625Y-55480861D01*
X86892621Y-55392621D01*
X86980861Y-55277625D01*
X87036330Y-55143709D01*
X87055250Y-55000000D01*
X87036330Y-54856291D01*
X86980861Y-54722375D01*
X86892621Y-54607379D01*
X86777625Y-54519139D01*
X86777624Y-54519138D01*
X86777622Y-54519137D01*
X86643712Y-54463671D01*
X86643710Y-54463670D01*
X86643709Y-54463670D01*
X86571854Y-54454210D01*
X86500001Y-54444750D01*
X86499999Y-54444750D01*
X86356291Y-54463670D01*
X86356287Y-54463671D01*
X86222377Y-54519137D01*
X86107379Y-54607379D01*
X86019137Y-54722377D01*
X85963671Y-54856287D01*
X85963670Y-54856291D01*
X85944750Y-55000000D01*
X78155250Y-55000000D01*
X78136330Y-54856291D01*
X78080861Y-54722375D01*
X78044881Y-54675485D01*
X78019687Y-54610318D01*
X78033725Y-54541873D01*
X78044880Y-54524516D01*
X78080861Y-54477625D01*
X78136330Y-54343709D01*
X78155250Y-54200000D01*
X78136330Y-54056291D01*
X78113014Y-54000000D01*
X83244750Y-54000000D01*
X83257915Y-54100000D01*
X83263670Y-54143708D01*
X83263671Y-54143712D01*
X83319137Y-54277622D01*
X83319138Y-54277624D01*
X83319139Y-54277625D01*
X83407379Y-54392621D01*
X83522375Y-54480861D01*
X83522376Y-54480861D01*
X83522377Y-54480862D01*
X83562056Y-54497297D01*
X83656291Y-54536330D01*
X83783280Y-54553048D01*
X83799999Y-54555250D01*
X83800000Y-54555250D01*
X83800001Y-54555250D01*
X83814977Y-54553278D01*
X83943709Y-54536330D01*
X84077625Y-54480861D01*
X84192621Y-54392621D01*
X84280861Y-54277625D01*
X84336330Y-54143709D01*
X84355250Y-54000000D01*
X84336330Y-53856291D01*
X84281747Y-53724513D01*
X84280862Y-53722377D01*
X84280861Y-53722376D01*
X84280861Y-53722375D01*
X84192621Y-53607379D01*
X84077625Y-53519139D01*
X84077624Y-53519138D01*
X84077622Y-53519137D01*
X84031420Y-53500000D01*
X87194750Y-53500000D01*
X87211389Y-53626387D01*
X87213670Y-53643708D01*
X87213671Y-53643712D01*
X87269137Y-53777622D01*
X87269138Y-53777624D01*
X87269139Y-53777625D01*
X87357379Y-53892621D01*
X87472375Y-53980861D01*
X87606291Y-54036330D01*
X87733280Y-54053048D01*
X87749999Y-54055250D01*
X87750000Y-54055250D01*
X87750001Y-54055250D01*
X87764977Y-54053278D01*
X87893709Y-54036330D01*
X87981426Y-53999997D01*
X100544432Y-53999997D01*
X100544432Y-54000002D01*
X100564688Y-54373610D01*
X100600593Y-54592621D01*
X100621865Y-54722377D01*
X100625222Y-54742850D01*
X100625223Y-54742853D01*
X100725317Y-55103362D01*
X100725318Y-55103364D01*
X100863806Y-55450945D01*
X100863815Y-55450963D01*
X101039073Y-55781534D01*
X101174220Y-55980861D01*
X101242022Y-56080862D01*
X101249045Y-56091219D01*
X101249052Y-56091229D01*
X101407642Y-56277934D01*
X101436040Y-56341772D01*
X101425416Y-56410829D01*
X101379143Y-56463180D01*
X101311913Y-56482204D01*
X101265683Y-56472772D01*
X101243709Y-56463670D01*
X101171854Y-56454210D01*
X101100001Y-56444750D01*
X101099999Y-56444750D01*
X100956291Y-56463670D01*
X100956287Y-56463671D01*
X100822377Y-56519137D01*
X100707379Y-56607379D01*
X100619137Y-56722377D01*
X100563671Y-56856287D01*
X100563670Y-56856291D01*
X100547270Y-56980862D01*
X100544750Y-57000000D01*
X100551732Y-57053036D01*
X100563670Y-57143708D01*
X100563671Y-57143712D01*
X100619137Y-57277622D01*
X100619138Y-57277624D01*
X100619139Y-57277625D01*
X100707379Y-57392621D01*
X100822375Y-57480861D01*
X100956291Y-57536330D01*
X101083280Y-57553048D01*
X101099999Y-57555250D01*
X101100000Y-57555250D01*
X101100001Y-57555250D01*
X101114977Y-57553278D01*
X101243709Y-57536330D01*
X101377625Y-57480861D01*
X101492621Y-57392621D01*
X101580861Y-57277625D01*
X101636330Y-57143709D01*
X101655250Y-57000000D01*
X101636330Y-56856291D01*
X101619090Y-56814670D01*
X101611622Y-56745205D01*
X101642897Y-56682726D01*
X101702985Y-56647073D01*
X101772810Y-56649566D01*
X101808693Y-56668505D01*
X102060780Y-56860136D01*
X102060794Y-56860146D01*
X102353617Y-57036330D01*
X102381383Y-57053036D01*
X102381387Y-57053037D01*
X102381391Y-57053040D01*
X102498843Y-57107379D01*
X102720962Y-57210142D01*
X103075538Y-57329613D01*
X103440951Y-57410046D01*
X103812919Y-57450500D01*
X103812925Y-57450500D01*
X104187075Y-57450500D01*
X104187081Y-57450500D01*
X104559049Y-57410046D01*
X104924462Y-57329613D01*
X105279038Y-57210142D01*
X105618617Y-57053036D01*
X105772518Y-56960437D01*
X105939205Y-56860146D01*
X105939214Y-56860139D01*
X105939220Y-56860136D01*
X106131891Y-56713671D01*
X106191305Y-56668506D01*
X106256588Y-56643606D01*
X106324968Y-56657953D01*
X106374737Y-56706992D01*
X106390093Y-56775153D01*
X106380909Y-56814672D01*
X106363670Y-56856291D01*
X106347270Y-56980862D01*
X106344750Y-57000000D01*
X106351732Y-57053036D01*
X106363670Y-57143708D01*
X106363671Y-57143712D01*
X106419137Y-57277622D01*
X106419138Y-57277624D01*
X106419139Y-57277625D01*
X106507379Y-57392621D01*
X106622375Y-57480861D01*
X106756291Y-57536330D01*
X106883280Y-57553048D01*
X106899999Y-57555250D01*
X106900000Y-57555250D01*
X106900001Y-57555250D01*
X106914977Y-57553278D01*
X107043709Y-57536330D01*
X107177625Y-57480861D01*
X107292621Y-57392621D01*
X107380861Y-57277625D01*
X107436330Y-57143709D01*
X107455250Y-57000000D01*
X107436330Y-56856291D01*
X107380861Y-56722375D01*
X107292621Y-56607379D01*
X107177625Y-56519139D01*
X107177624Y-56519138D01*
X107177622Y-56519137D01*
X107043712Y-56463671D01*
X107043710Y-56463670D01*
X107043709Y-56463670D01*
X106971854Y-56454210D01*
X106900001Y-56444750D01*
X106899999Y-56444750D01*
X106756291Y-56463670D01*
X106756287Y-56463671D01*
X106734315Y-56472772D01*
X106664845Y-56480239D01*
X106602367Y-56448963D01*
X106566716Y-56388873D01*
X106569212Y-56319048D01*
X106592354Y-56277938D01*
X106750954Y-56091221D01*
X106960928Y-55781531D01*
X107136189Y-55450955D01*
X107274680Y-55103368D01*
X107374779Y-54742845D01*
X107435311Y-54373613D01*
X107455568Y-54000000D01*
X107454530Y-53980862D01*
X107440606Y-53724042D01*
X107435311Y-53626387D01*
X107374779Y-53257155D01*
X107308694Y-53019139D01*
X107274682Y-52896637D01*
X107274681Y-52896635D01*
X107136193Y-52549054D01*
X107136184Y-52549036D01*
X107109558Y-52498815D01*
X106960928Y-52218469D01*
X106960926Y-52218465D01*
X106812802Y-51999999D01*
X106750954Y-51908779D01*
X106750950Y-51908774D01*
X106750947Y-51908770D01*
X106508727Y-51623608D01*
X106237087Y-51366297D01*
X106237086Y-51366296D01*
X106092377Y-51256291D01*
X105939220Y-51139864D01*
X105939216Y-51139861D01*
X105939210Y-51139857D01*
X105939205Y-51139853D01*
X105618621Y-50946966D01*
X105618608Y-50946959D01*
X105279048Y-50789862D01*
X105279043Y-50789860D01*
X105279038Y-50789858D01*
X105106203Y-50731623D01*
X104924461Y-50670386D01*
X104559047Y-50589953D01*
X104187082Y-50549500D01*
X104187081Y-50549500D01*
X103812919Y-50549500D01*
X103812917Y-50549500D01*
X103440952Y-50589953D01*
X103075538Y-50670386D01*
X102801440Y-50762741D01*
X102720962Y-50789858D01*
X102720959Y-50789859D01*
X102720951Y-50789862D01*
X102381391Y-50946959D01*
X102381383Y-50946963D01*
X102335231Y-50974732D01*
X102267640Y-50992427D01*
X102201211Y-50970770D01*
X102157037Y-50916637D01*
X102148365Y-50852295D01*
X102155250Y-50800000D01*
X102155250Y-50799999D01*
X102153048Y-50783280D01*
X102136330Y-50656291D01*
X102080861Y-50522375D01*
X101992621Y-50407379D01*
X101877625Y-50319139D01*
X101877624Y-50319138D01*
X101877622Y-50319137D01*
X101743712Y-50263671D01*
X101743710Y-50263670D01*
X101743709Y-50263670D01*
X101620425Y-50247439D01*
X101603683Y-50240032D01*
X101598324Y-50243477D01*
X101579575Y-50247439D01*
X101456291Y-50263670D01*
X101456287Y-50263671D01*
X101322377Y-50319137D01*
X101207379Y-50407379D01*
X101119137Y-50522377D01*
X101063671Y-50656287D01*
X101063670Y-50656291D01*
X101044750Y-50800000D01*
X101053132Y-50863670D01*
X101063670Y-50943708D01*
X101063671Y-50943712D01*
X101119137Y-51077622D01*
X101119138Y-51077624D01*
X101119139Y-51077625D01*
X101207379Y-51192621D01*
X101322375Y-51280861D01*
X101322376Y-51280861D01*
X101322377Y-51280862D01*
X101367013Y-51299350D01*
X101456291Y-51336330D01*
X101495227Y-51341456D01*
X101559123Y-51369723D01*
X101597594Y-51428047D01*
X101598425Y-51497912D01*
X101564316Y-51554418D01*
X101491273Y-51623608D01*
X101249052Y-51908770D01*
X101249045Y-51908780D01*
X101039073Y-52218465D01*
X100863815Y-52549036D01*
X100863806Y-52549054D01*
X100725318Y-52896635D01*
X100725317Y-52896637D01*
X100625223Y-53257146D01*
X100625222Y-53257149D01*
X100564688Y-53626389D01*
X100544432Y-53999997D01*
X87981426Y-53999997D01*
X88027625Y-53980861D01*
X88142621Y-53892621D01*
X88230861Y-53777625D01*
X88286330Y-53643709D01*
X88305250Y-53500000D01*
X88286330Y-53356291D01*
X88230861Y-53222375D01*
X88142621Y-53107379D01*
X88027625Y-53019139D01*
X88027624Y-53019138D01*
X88027622Y-53019137D01*
X87893712Y-52963671D01*
X87893710Y-52963670D01*
X87893709Y-52963670D01*
X87821854Y-52954210D01*
X87750001Y-52944750D01*
X87749999Y-52944750D01*
X87606291Y-52963670D01*
X87606287Y-52963671D01*
X87472377Y-53019137D01*
X87357379Y-53107379D01*
X87269137Y-53222377D01*
X87213671Y-53356287D01*
X87213670Y-53356291D01*
X87194750Y-53500000D01*
X84031420Y-53500000D01*
X83943712Y-53463671D01*
X83943710Y-53463670D01*
X83943709Y-53463670D01*
X83871854Y-53454210D01*
X83800001Y-53444750D01*
X83799999Y-53444750D01*
X83656291Y-53463670D01*
X83656287Y-53463671D01*
X83522377Y-53519137D01*
X83407379Y-53607379D01*
X83319137Y-53722377D01*
X83263671Y-53856287D01*
X83263670Y-53856291D01*
X83247270Y-53980862D01*
X83244750Y-54000000D01*
X78113014Y-54000000D01*
X78080861Y-53922375D01*
X78044881Y-53875485D01*
X78019687Y-53810318D01*
X78033725Y-53741873D01*
X78044880Y-53724516D01*
X78080861Y-53677625D01*
X78136330Y-53543709D01*
X78155250Y-53400000D01*
X78136330Y-53256291D01*
X78080861Y-53122375D01*
X77992621Y-53007379D01*
X77877625Y-52919139D01*
X77866570Y-52914560D01*
X77812170Y-52870721D01*
X77790104Y-52804427D01*
X77807383Y-52736728D01*
X77858519Y-52689117D01*
X77866553Y-52685446D01*
X77877625Y-52680861D01*
X77992621Y-52592621D01*
X78080861Y-52477625D01*
X78136330Y-52343709D01*
X78155250Y-52200000D01*
X78136330Y-52056291D01*
X78080861Y-51922375D01*
X78044881Y-51875485D01*
X78019687Y-51810318D01*
X78033725Y-51741873D01*
X78044880Y-51724516D01*
X78080861Y-51677625D01*
X78136330Y-51543709D01*
X78155250Y-51400000D01*
X78136330Y-51256291D01*
X78080861Y-51122375D01*
X77992621Y-51007379D01*
X77877625Y-50919139D01*
X77877624Y-50919138D01*
X77877622Y-50919137D01*
X77743712Y-50863671D01*
X77743710Y-50863670D01*
X77743709Y-50863670D01*
X77657309Y-50852295D01*
X77600001Y-50844750D01*
X77599999Y-50844750D01*
X77456291Y-50863670D01*
X77456287Y-50863671D01*
X77322377Y-50919137D01*
X77207379Y-51007379D01*
X77119137Y-51122377D01*
X77063671Y-51256287D01*
X77063670Y-51256291D01*
X77048700Y-51370001D01*
X77044750Y-51400000D01*
X73655250Y-51400000D01*
X73636330Y-51256291D01*
X73580861Y-51122375D01*
X73492621Y-51007379D01*
X73377625Y-50919139D01*
X73377624Y-50919138D01*
X73377622Y-50919137D01*
X73243712Y-50863671D01*
X73243710Y-50863670D01*
X73243709Y-50863670D01*
X73157309Y-50852295D01*
X73100001Y-50844750D01*
X73099999Y-50844750D01*
X72956291Y-50863670D01*
X72956287Y-50863671D01*
X72822377Y-50919137D01*
X72707379Y-51007379D01*
X72619137Y-51122377D01*
X72563671Y-51256287D01*
X72563670Y-51256291D01*
X72548700Y-51370001D01*
X72544750Y-51400000D01*
X71883005Y-51400000D01*
X71777625Y-51319139D01*
X71777624Y-51319138D01*
X71777622Y-51319137D01*
X71643712Y-51263671D01*
X71643710Y-51263670D01*
X71643709Y-51263670D01*
X71571854Y-51254210D01*
X71500001Y-51244750D01*
X71499999Y-51244750D01*
X71356291Y-51263670D01*
X71356287Y-51263671D01*
X71222377Y-51319137D01*
X71107379Y-51407379D01*
X71019137Y-51522377D01*
X70963671Y-51656287D01*
X70963670Y-51656291D01*
X70945722Y-51792620D01*
X70944750Y-51800000D01*
X69158556Y-51800000D01*
X69008727Y-51623608D01*
X68737087Y-51366297D01*
X68737086Y-51366296D01*
X68592377Y-51256291D01*
X68439220Y-51139864D01*
X68439216Y-51139861D01*
X68439210Y-51139857D01*
X68439205Y-51139853D01*
X68118621Y-50946966D01*
X68118608Y-50946959D01*
X67800961Y-50800000D01*
X85804750Y-50800000D01*
X85813132Y-50863670D01*
X85823670Y-50943708D01*
X85823671Y-50943712D01*
X85879137Y-51077622D01*
X85879138Y-51077624D01*
X85879139Y-51077625D01*
X85967379Y-51192621D01*
X86082375Y-51280861D01*
X86082376Y-51280861D01*
X86082377Y-51280862D01*
X86127778Y-51299667D01*
X86172938Y-51318373D01*
X86176536Y-51319863D01*
X86230940Y-51363703D01*
X86253005Y-51429997D01*
X86235726Y-51497697D01*
X86204572Y-51532799D01*
X86107380Y-51607378D01*
X86019137Y-51722377D01*
X85963671Y-51856287D01*
X85963670Y-51856291D01*
X85950642Y-51955250D01*
X85944750Y-52000000D01*
X85952160Y-52056287D01*
X85963670Y-52143708D01*
X85963671Y-52143712D01*
X86019137Y-52277622D01*
X86019138Y-52277624D01*
X86019139Y-52277625D01*
X86107379Y-52392621D01*
X86222375Y-52480861D01*
X86356291Y-52536330D01*
X86483280Y-52553048D01*
X86499999Y-52555250D01*
X86500000Y-52555250D01*
X86500001Y-52555250D01*
X86514977Y-52553278D01*
X86643709Y-52536330D01*
X86777625Y-52480861D01*
X86892621Y-52392621D01*
X86980861Y-52277625D01*
X87036330Y-52143709D01*
X87055250Y-52000000D01*
X87036330Y-51856291D01*
X86980861Y-51722375D01*
X86892621Y-51607379D01*
X86777625Y-51519139D01*
X86777624Y-51519138D01*
X86777622Y-51519137D01*
X86683463Y-51480136D01*
X86629059Y-51436295D01*
X86606994Y-51370001D01*
X86624273Y-51302302D01*
X86655424Y-51267202D01*
X86752621Y-51192621D01*
X86840861Y-51077625D01*
X86896330Y-50943709D01*
X86915250Y-50800000D01*
X90884750Y-50800000D01*
X90893132Y-50863670D01*
X90903670Y-50943708D01*
X90903671Y-50943712D01*
X90959137Y-51077622D01*
X90959138Y-51077624D01*
X90959139Y-51077625D01*
X91047379Y-51192621D01*
X91162375Y-51280861D01*
X91162376Y-51280861D01*
X91162377Y-51280862D01*
X91207013Y-51299350D01*
X91296291Y-51336330D01*
X91423280Y-51353048D01*
X91439999Y-51355250D01*
X91440000Y-51355250D01*
X91440001Y-51355250D01*
X91454977Y-51353278D01*
X91583709Y-51336330D01*
X91717625Y-51280861D01*
X91832621Y-51192621D01*
X91920861Y-51077625D01*
X91976330Y-50943709D01*
X91995250Y-50800000D01*
X95964750Y-50800000D01*
X95973132Y-50863670D01*
X95983670Y-50943708D01*
X95983671Y-50943712D01*
X96039137Y-51077622D01*
X96039138Y-51077624D01*
X96039139Y-51077625D01*
X96127379Y-51192621D01*
X96242375Y-51280861D01*
X96242376Y-51280861D01*
X96242377Y-51280862D01*
X96287013Y-51299350D01*
X96376291Y-51336330D01*
X96503280Y-51353048D01*
X96519999Y-51355250D01*
X96520000Y-51355250D01*
X96520001Y-51355250D01*
X96534977Y-51353278D01*
X96663709Y-51336330D01*
X96797625Y-51280861D01*
X96912621Y-51192621D01*
X97000861Y-51077625D01*
X97056330Y-50943709D01*
X97075250Y-50800000D01*
X97056330Y-50656291D01*
X97000861Y-50522375D01*
X96912621Y-50407379D01*
X96797625Y-50319139D01*
X96797624Y-50319138D01*
X96797622Y-50319137D01*
X96663712Y-50263671D01*
X96663710Y-50263670D01*
X96663709Y-50263670D01*
X96540425Y-50247439D01*
X96523683Y-50240032D01*
X96518324Y-50243477D01*
X96499575Y-50247439D01*
X96376291Y-50263670D01*
X96376287Y-50263671D01*
X96242377Y-50319137D01*
X96127379Y-50407379D01*
X96039137Y-50522377D01*
X95983671Y-50656287D01*
X95983670Y-50656291D01*
X95964750Y-50800000D01*
X91995250Y-50800000D01*
X91976330Y-50656291D01*
X91920861Y-50522375D01*
X91832621Y-50407379D01*
X91717625Y-50319139D01*
X91717624Y-50319138D01*
X91717622Y-50319137D01*
X91583712Y-50263671D01*
X91583710Y-50263670D01*
X91583709Y-50263670D01*
X91460425Y-50247439D01*
X91443683Y-50240032D01*
X91438324Y-50243477D01*
X91419575Y-50247439D01*
X91296291Y-50263670D01*
X91296287Y-50263671D01*
X91162377Y-50319137D01*
X91047379Y-50407379D01*
X90959137Y-50522377D01*
X90903671Y-50656287D01*
X90903670Y-50656291D01*
X90884750Y-50800000D01*
X86915250Y-50800000D01*
X86896330Y-50656291D01*
X86840861Y-50522375D01*
X86752621Y-50407379D01*
X86637625Y-50319139D01*
X86637624Y-50319138D01*
X86637622Y-50319137D01*
X86503712Y-50263671D01*
X86503710Y-50263670D01*
X86503709Y-50263670D01*
X86380425Y-50247439D01*
X86363683Y-50240032D01*
X86358324Y-50243477D01*
X86339575Y-50247439D01*
X86216291Y-50263670D01*
X86216287Y-50263671D01*
X86082377Y-50319137D01*
X85967379Y-50407379D01*
X85879137Y-50522377D01*
X85823671Y-50656287D01*
X85823670Y-50656291D01*
X85804750Y-50800000D01*
X67800961Y-50800000D01*
X67779048Y-50789862D01*
X67779043Y-50789860D01*
X67779038Y-50789858D01*
X67606203Y-50731623D01*
X67424461Y-50670386D01*
X67059047Y-50589953D01*
X66687082Y-50549500D01*
X66687081Y-50549500D01*
X66312919Y-50549500D01*
X66312917Y-50549500D01*
X65940952Y-50589953D01*
X65575538Y-50670386D01*
X65301440Y-50762741D01*
X65220962Y-50789858D01*
X65220959Y-50789859D01*
X65220951Y-50789862D01*
X64881391Y-50946959D01*
X64881378Y-50946966D01*
X64560794Y-51139853D01*
X64560789Y-51139857D01*
X64262913Y-51366296D01*
X64262912Y-51366297D01*
X63991272Y-51623608D01*
X63749052Y-51908770D01*
X63749045Y-51908780D01*
X63539073Y-52218465D01*
X63363815Y-52549036D01*
X63363806Y-52549054D01*
X63225318Y-52896635D01*
X63225317Y-52896637D01*
X63125223Y-53257146D01*
X63125222Y-53257149D01*
X63064688Y-53626389D01*
X63044432Y-53999997D01*
X62531820Y-53999997D01*
X62568152Y-53724025D01*
X62570025Y-53713405D01*
X62652649Y-53340709D01*
X62655440Y-53330295D01*
X62770230Y-52966227D01*
X62773917Y-52956095D01*
X62920003Y-52603412D01*
X62924561Y-52593638D01*
X63100822Y-52255045D01*
X63106217Y-52245700D01*
X63311325Y-51923744D01*
X63317515Y-51914905D01*
X63549896Y-51612060D01*
X63556834Y-51603791D01*
X63814726Y-51322352D01*
X63822352Y-51314726D01*
X64103791Y-51056834D01*
X64112060Y-51049896D01*
X64414905Y-50817515D01*
X64423744Y-50811325D01*
X64745700Y-50606217D01*
X64755045Y-50600822D01*
X65093638Y-50424561D01*
X65103412Y-50420003D01*
X65456095Y-50273917D01*
X65466227Y-50270230D01*
X65830295Y-50155440D01*
X65840709Y-50152649D01*
X66213405Y-50070025D01*
X66224025Y-50068152D01*
X66602495Y-50018326D01*
X66613226Y-50017386D01*
X66997297Y-50000617D01*
X67002706Y-50000500D01*
X67065892Y-50000500D01*
X86323389Y-50000500D01*
X86358663Y-50010857D01*
G37*
%TD.AperFunction*%
%TD*%
M02*
