%TF.GenerationSoftware,KiCad,Pcbnew,8.0.6*%
%TF.CreationDate,2024-11-07T10:06:34+11:00*%
%TF.ProjectId,mppt-board,6d707074-2d62-46f6-9172-642e6b696361,rev?*%
%TF.SameCoordinates,Original*%
%TF.FileFunction,Copper,L4,Bot*%
%TF.FilePolarity,Positive*%
%FSLAX46Y46*%
G04 Gerber Fmt 4.6, Leading zero omitted, Abs format (unit mm)*
G04 Created by KiCad (PCBNEW 8.0.6) date 2024-11-07 10:06:34*
%MOMM*%
%LPD*%
G01*
G04 APERTURE LIST*
%TA.AperFunction,ComponentPad*%
%ADD10C,5.800000*%
%TD*%
%TA.AperFunction,ComponentPad*%
%ADD11C,6.400000*%
%TD*%
%TA.AperFunction,ComponentPad*%
%ADD12R,2.400000X2.400000*%
%TD*%
%TA.AperFunction,ComponentPad*%
%ADD13C,2.400000*%
%TD*%
%TA.AperFunction,ComponentPad*%
%ADD14R,1.700000X1.700000*%
%TD*%
%TA.AperFunction,ComponentPad*%
%ADD15O,1.700000X1.700000*%
%TD*%
%TA.AperFunction,ComponentPad*%
%ADD16C,5.520000*%
%TD*%
%TA.AperFunction,ViaPad*%
%ADD17C,0.600000*%
%TD*%
%TA.AperFunction,Conductor*%
%ADD18C,0.200000*%
%TD*%
G04 APERTURE END LIST*
D10*
%TO.P,U4,1,-*%
%TO.N,Net-(U4--)*%
X66800000Y-64100000D03*
%TO.P,U4,2,+*%
%TO.N,VBUS*%
X66800000Y-71300000D03*
%TD*%
D11*
%TO.P,H3,1,1*%
%TO.N,GND*%
X66500000Y-84500000D03*
%TD*%
D12*
%TO.P,C2,1*%
%TO.N,Net-(D1-K)*%
X96000000Y-57200000D03*
D13*
%TO.P,C2,2*%
%TO.N,GND*%
X91000000Y-57200000D03*
%TD*%
D11*
%TO.P,H2,1,1*%
%TO.N,GND*%
X104000000Y-54000000D03*
%TD*%
D14*
%TO.P,J2,1,Pin_1*%
%TO.N,VCC*%
X72520000Y-86100000D03*
D15*
%TO.P,J2,2,Pin_2*%
%TO.N,/swclk*%
X75060000Y-86100000D03*
%TO.P,J2,3,Pin_3*%
%TO.N,/swdio*%
X77600000Y-86100000D03*
%TO.P,J2,4,Pin_4*%
%TO.N,GND*%
X80140000Y-86100000D03*
%TD*%
D11*
%TO.P,H1,1,1*%
%TO.N,GND*%
X66500000Y-54000000D03*
%TD*%
%TO.P,H4,1,1*%
%TO.N,GND*%
X104000000Y-84600000D03*
%TD*%
D16*
%TO.P,U5,2,2*%
%TO.N,Net-(D1-K)*%
X103500000Y-70800000D03*
%TO.P,U5,1,1*%
%TO.N,GND*%
X103500000Y-63600000D03*
%TD*%
D17*
%TO.N,GND*%
X75400000Y-77300000D03*
X75800000Y-79200000D03*
X86300000Y-63600000D03*
X84500000Y-61200000D03*
X85700000Y-68000000D03*
X78600000Y-74400000D03*
X73500000Y-70200000D03*
X65300000Y-78200000D03*
X69500000Y-81700000D03*
X63500000Y-81600000D03*
X69500000Y-87400000D03*
X102400000Y-88300000D03*
X101000000Y-87700000D03*
X101100000Y-81700000D03*
X102600000Y-78400000D03*
X105800000Y-78200000D03*
X106900000Y-57000000D03*
X101100000Y-57000000D03*
X107000000Y-65200000D03*
X103500000Y-67200000D03*
X106000000Y-66400000D03*
X101000000Y-60800000D03*
X107200000Y-63600000D03*
X106400000Y-61200000D03*
%TO.N,VBUS*%
X67300000Y-76000000D03*
X69400000Y-74800000D03*
X71000000Y-77000000D03*
X69300000Y-78900000D03*
X68900000Y-77000000D03*
X86340000Y-70710000D03*
X85140000Y-70110000D03*
X83600000Y-57400000D03*
X83400000Y-58200000D03*
X77600000Y-56400000D03*
%TO.N,GND*%
X88900000Y-63500000D03*
X71500000Y-56500000D03*
X71300000Y-54100000D03*
X73100000Y-51400000D03*
X89500000Y-85200000D03*
X71500000Y-51800000D03*
X74700000Y-56300000D03*
X91000000Y-55000000D03*
X75800000Y-80875429D03*
X107000000Y-81200000D03*
X93000000Y-59500000D03*
X81840000Y-65110000D03*
X86360000Y-50800000D03*
X80500000Y-75600000D03*
X75000000Y-52200000D03*
X73200000Y-76000000D03*
X73900000Y-84000000D03*
X99500000Y-88000000D03*
X83800000Y-55600000D03*
X79540000Y-65510000D03*
X104600000Y-80200000D03*
X75000000Y-54100000D03*
X70900000Y-83600000D03*
X88250000Y-57500000D03*
X93250000Y-55250000D03*
X77600000Y-53400000D03*
X80040000Y-63210000D03*
X104800000Y-76600000D03*
X73100000Y-56800000D03*
X93250000Y-57250000D03*
X91440000Y-66040000D03*
X77600000Y-54200000D03*
X89000000Y-72000000D03*
X86500000Y-55000000D03*
X86360000Y-86360000D03*
X104000000Y-60000000D03*
X88750000Y-59750000D03*
X77600000Y-55000000D03*
X101600000Y-50800000D03*
X89800000Y-80900000D03*
X73250000Y-74500000D03*
X88750000Y-55500000D03*
X79340000Y-59460000D03*
X76040000Y-65810000D03*
X83800000Y-54000000D03*
X96520000Y-66040000D03*
X77090000Y-59210000D03*
X87750000Y-53500000D03*
X86500000Y-52000000D03*
X72000000Y-65250000D03*
X78340000Y-59460000D03*
X96520000Y-50800000D03*
X91440000Y-50800000D03*
X90000000Y-78000000D03*
X97800000Y-88100000D03*
X82700000Y-85600000D03*
X91250000Y-60000000D03*
X79340000Y-69710000D03*
X95600000Y-64700000D03*
X71600000Y-58600000D03*
X76800000Y-82800000D03*
%TO.N,VCC*%
X72840000Y-61210000D03*
X77600000Y-52200000D03*
X77600000Y-51400000D03*
%TO.N,/V_{drop}*%
X78943861Y-63925378D03*
X83340000Y-67910000D03*
%TO.N,/swdio*%
X80240000Y-61710000D03*
%TO.N,/swclk*%
X80090000Y-60710000D03*
%TD*%
D18*
%TO.N,/V_{drop}*%
X79355378Y-63925378D02*
X78943861Y-63925378D01*
X83340000Y-67910000D02*
X79355378Y-63925378D01*
%TD*%
%TA.AperFunction,Conductor*%
%TO.N,GND*%
G36*
X103502702Y-50000617D02*
G01*
X103886771Y-50017386D01*
X103897504Y-50018326D01*
X104191114Y-50056980D01*
X104255009Y-50085247D01*
X104293480Y-50143571D01*
X104294311Y-50213436D01*
X104257239Y-50272659D01*
X104194033Y-50302438D01*
X104168438Y-50303749D01*
X104000002Y-50294922D01*
X103999999Y-50294922D01*
X103612712Y-50315219D01*
X103229676Y-50375886D01*
X103229669Y-50375887D01*
X102855063Y-50476262D01*
X102493005Y-50615244D01*
X102147456Y-50791310D01*
X101822206Y-51002531D01*
X101564648Y-51211095D01*
X101564648Y-51211096D01*
X103059301Y-52705748D01*
X102957670Y-52779588D01*
X102779588Y-52957670D01*
X102705748Y-53059300D01*
X101211096Y-51564648D01*
X101211095Y-51564648D01*
X101002531Y-51822206D01*
X100791310Y-52147456D01*
X100615244Y-52493005D01*
X100476262Y-52855063D01*
X100375887Y-53229669D01*
X100375886Y-53229676D01*
X100315219Y-53612712D01*
X100294922Y-53999999D01*
X100294922Y-54000000D01*
X100315219Y-54387287D01*
X100375886Y-54770323D01*
X100375887Y-54770330D01*
X100476262Y-55144936D01*
X100615244Y-55506994D01*
X100791310Y-55852543D01*
X101002531Y-56177793D01*
X101211095Y-56435350D01*
X101211096Y-56435350D01*
X102705748Y-54940698D01*
X102779588Y-55042330D01*
X102957670Y-55220412D01*
X103059300Y-55294251D01*
X101564648Y-56788903D01*
X101564649Y-56788904D01*
X101822206Y-56997468D01*
X102147456Y-57208689D01*
X102493005Y-57384755D01*
X102855063Y-57523737D01*
X103229669Y-57624112D01*
X103229676Y-57624113D01*
X103612712Y-57684780D01*
X103999999Y-57705078D01*
X104000001Y-57705078D01*
X104387287Y-57684780D01*
X104770323Y-57624113D01*
X104770330Y-57624112D01*
X105144936Y-57523737D01*
X105506994Y-57384755D01*
X105852543Y-57208689D01*
X106177783Y-56997476D01*
X106177785Y-56997475D01*
X106435349Y-56788902D01*
X104940698Y-55294251D01*
X105042330Y-55220412D01*
X105220412Y-55042330D01*
X105294251Y-54940698D01*
X106788902Y-56435349D01*
X106997475Y-56177785D01*
X106997476Y-56177783D01*
X107208689Y-55852543D01*
X107384755Y-55506994D01*
X107523737Y-55144936D01*
X107624112Y-54770330D01*
X107624113Y-54770323D01*
X107684780Y-54387287D01*
X107705078Y-54000000D01*
X107705078Y-53999999D01*
X107696250Y-53831562D01*
X107712399Y-53763584D01*
X107762736Y-53715128D01*
X107831279Y-53701579D01*
X107896267Y-53727237D01*
X107937066Y-53783958D01*
X107943019Y-53808886D01*
X107981671Y-54102472D01*
X107982614Y-54113249D01*
X107999382Y-54497297D01*
X107999500Y-54502706D01*
X107999500Y-84161759D01*
X107999382Y-84167168D01*
X107982614Y-84551218D01*
X107981671Y-84561994D01*
X107937405Y-84898224D01*
X107909138Y-84962121D01*
X107850814Y-85000592D01*
X107780949Y-85001423D01*
X107721726Y-84964351D01*
X107691947Y-84901145D01*
X107690636Y-84875549D01*
X107705078Y-84600000D01*
X107705078Y-84599999D01*
X107684780Y-84212712D01*
X107624113Y-83829676D01*
X107624112Y-83829669D01*
X107523737Y-83455063D01*
X107384755Y-83093005D01*
X107208689Y-82747456D01*
X106997468Y-82422206D01*
X106788904Y-82164649D01*
X106788903Y-82164648D01*
X105294251Y-83659300D01*
X105220412Y-83557670D01*
X105042330Y-83379588D01*
X104940698Y-83305748D01*
X106435350Y-81811096D01*
X106435350Y-81811095D01*
X106177793Y-81602531D01*
X105852543Y-81391310D01*
X105506994Y-81215244D01*
X105144936Y-81076262D01*
X104770330Y-80975887D01*
X104770323Y-80975886D01*
X104387287Y-80915219D01*
X104000001Y-80894922D01*
X103999999Y-80894922D01*
X103612712Y-80915219D01*
X103229676Y-80975886D01*
X103229669Y-80975887D01*
X102855063Y-81076262D01*
X102493005Y-81215244D01*
X102147456Y-81391310D01*
X101822206Y-81602531D01*
X101564648Y-81811095D01*
X101564648Y-81811096D01*
X103059301Y-83305748D01*
X102957670Y-83379588D01*
X102779588Y-83557670D01*
X102705748Y-83659300D01*
X101211096Y-82164648D01*
X101211095Y-82164648D01*
X101002531Y-82422206D01*
X100791310Y-82747456D01*
X100615244Y-83093005D01*
X100476262Y-83455063D01*
X100375887Y-83829669D01*
X100375886Y-83829676D01*
X100315219Y-84212712D01*
X100294922Y-84599999D01*
X100294922Y-84600000D01*
X100315219Y-84987287D01*
X100375886Y-85370323D01*
X100375887Y-85370330D01*
X100476262Y-85744936D01*
X100615244Y-86106994D01*
X100791310Y-86452543D01*
X101002531Y-86777793D01*
X101211095Y-87035350D01*
X101211096Y-87035350D01*
X102705748Y-85540698D01*
X102779588Y-85642330D01*
X102957670Y-85820412D01*
X103059300Y-85894251D01*
X101564648Y-87388903D01*
X101564649Y-87388904D01*
X101822206Y-87597468D01*
X102147456Y-87808689D01*
X102493005Y-87984755D01*
X102855063Y-88123737D01*
X103229669Y-88224112D01*
X103229676Y-88224113D01*
X103612712Y-88284780D01*
X103999999Y-88305078D01*
X104000001Y-88305078D01*
X104387287Y-88284780D01*
X104735762Y-88229587D01*
X104805055Y-88238541D01*
X104858507Y-88283538D01*
X104879147Y-88350289D01*
X104860422Y-88417603D01*
X104808277Y-88464107D01*
X104792447Y-88470321D01*
X104669722Y-88509016D01*
X104659274Y-88511816D01*
X104286613Y-88594433D01*
X104275959Y-88596311D01*
X103897528Y-88646132D01*
X103886751Y-88647075D01*
X103502556Y-88663848D01*
X103497148Y-88663966D01*
X67002706Y-88663966D01*
X66997297Y-88663848D01*
X66613245Y-88647080D01*
X66602471Y-88646137D01*
X66413252Y-88621226D01*
X66224036Y-88596316D01*
X66213383Y-88594438D01*
X65840719Y-88511821D01*
X65830270Y-88509021D01*
X65466230Y-88394240D01*
X65456065Y-88390540D01*
X65103419Y-88244471D01*
X65093615Y-88239900D01*
X64755029Y-88063644D01*
X64745672Y-88058242D01*
X64574648Y-87949288D01*
X64528684Y-87896666D01*
X64518466Y-87827547D01*
X64547239Y-87763877D01*
X64605866Y-87725869D01*
X64675735Y-87725592D01*
X64697568Y-87734222D01*
X64993005Y-87884755D01*
X65355063Y-88023737D01*
X65729669Y-88124112D01*
X65729676Y-88124113D01*
X66112712Y-88184780D01*
X66499999Y-88205078D01*
X66500001Y-88205078D01*
X66887287Y-88184780D01*
X67270323Y-88124113D01*
X67270330Y-88124112D01*
X67644936Y-88023737D01*
X68006994Y-87884755D01*
X68352543Y-87708689D01*
X68677783Y-87497476D01*
X68677785Y-87497475D01*
X68935349Y-87288902D01*
X67440698Y-85794251D01*
X67542330Y-85720412D01*
X67720412Y-85542330D01*
X67794251Y-85440698D01*
X69288902Y-86935349D01*
X69497475Y-86677785D01*
X69497476Y-86677783D01*
X69708689Y-86352543D01*
X69884755Y-86006994D01*
X70023737Y-85644936D01*
X70124112Y-85270330D01*
X70124113Y-85270323D01*
X70131241Y-85225321D01*
X71419500Y-85225321D01*
X71419500Y-86974678D01*
X71434032Y-87047735D01*
X71434033Y-87047739D01*
X71434034Y-87047740D01*
X71489399Y-87130601D01*
X71572260Y-87185966D01*
X71572264Y-87185967D01*
X71645321Y-87200499D01*
X71645324Y-87200500D01*
X71645326Y-87200500D01*
X73394676Y-87200500D01*
X73394677Y-87200499D01*
X73467740Y-87185966D01*
X73550601Y-87130601D01*
X73605966Y-87047740D01*
X73620500Y-86974674D01*
X73620500Y-86099999D01*
X73954785Y-86099999D01*
X73954785Y-86100000D01*
X73973602Y-86303082D01*
X74029417Y-86499247D01*
X74029422Y-86499260D01*
X74120327Y-86681821D01*
X74243237Y-86844581D01*
X74393958Y-86981980D01*
X74393960Y-86981982D01*
X74480153Y-87035350D01*
X74567363Y-87089348D01*
X74757544Y-87163024D01*
X74958024Y-87200500D01*
X74958026Y-87200500D01*
X75161974Y-87200500D01*
X75161976Y-87200500D01*
X75362456Y-87163024D01*
X75552637Y-87089348D01*
X75726041Y-86981981D01*
X75876764Y-86844579D01*
X75999673Y-86681821D01*
X76090582Y-86499250D01*
X76146397Y-86303083D01*
X76165215Y-86100000D01*
X76165215Y-86099999D01*
X76494785Y-86099999D01*
X76494785Y-86100000D01*
X76513602Y-86303082D01*
X76569417Y-86499247D01*
X76569422Y-86499260D01*
X76660327Y-86681821D01*
X76783237Y-86844581D01*
X76933958Y-86981980D01*
X76933960Y-86981982D01*
X77020153Y-87035350D01*
X77107363Y-87089348D01*
X77297544Y-87163024D01*
X77498024Y-87200500D01*
X77498026Y-87200500D01*
X77701974Y-87200500D01*
X77701976Y-87200500D01*
X77902456Y-87163024D01*
X78092637Y-87089348D01*
X78266041Y-86981981D01*
X78416764Y-86844579D01*
X78539673Y-86681821D01*
X78626817Y-86506812D01*
X78674319Y-86455575D01*
X78741982Y-86438153D01*
X78808323Y-86460078D01*
X78852278Y-86514389D01*
X78857592Y-86529989D01*
X78866567Y-86563485D01*
X78866570Y-86563492D01*
X78966399Y-86777578D01*
X79101894Y-86971082D01*
X79268917Y-87138105D01*
X79462421Y-87273600D01*
X79676507Y-87373429D01*
X79676516Y-87373433D01*
X79890000Y-87430634D01*
X79890000Y-86533012D01*
X79947007Y-86565925D01*
X80074174Y-86600000D01*
X80205826Y-86600000D01*
X80332993Y-86565925D01*
X80390000Y-86533012D01*
X80390000Y-87430633D01*
X80603483Y-87373433D01*
X80603492Y-87373429D01*
X80817578Y-87273600D01*
X81011082Y-87138105D01*
X81178105Y-86971082D01*
X81313600Y-86777578D01*
X81413429Y-86563492D01*
X81413432Y-86563486D01*
X81470636Y-86350000D01*
X80573012Y-86350000D01*
X80605925Y-86292993D01*
X80640000Y-86165826D01*
X80640000Y-86034174D01*
X80605925Y-85907007D01*
X80573012Y-85850000D01*
X81470636Y-85850000D01*
X81470635Y-85849999D01*
X81413432Y-85636513D01*
X81413429Y-85636507D01*
X81313600Y-85422422D01*
X81313599Y-85422420D01*
X81178113Y-85228926D01*
X81178108Y-85228920D01*
X81011082Y-85061894D01*
X80817578Y-84926399D01*
X80603492Y-84826570D01*
X80603486Y-84826567D01*
X80390000Y-84769364D01*
X80390000Y-85666988D01*
X80332993Y-85634075D01*
X80205826Y-85600000D01*
X80074174Y-85600000D01*
X79947007Y-85634075D01*
X79890000Y-85666988D01*
X79890000Y-84769364D01*
X79889999Y-84769364D01*
X79676513Y-84826567D01*
X79676507Y-84826570D01*
X79462422Y-84926399D01*
X79462420Y-84926400D01*
X79268926Y-85061886D01*
X79268920Y-85061891D01*
X79101891Y-85228920D01*
X79101886Y-85228926D01*
X78966400Y-85422420D01*
X78966399Y-85422422D01*
X78866570Y-85636507D01*
X78866568Y-85636511D01*
X78857592Y-85670011D01*
X78821226Y-85729671D01*
X78758379Y-85760199D01*
X78689003Y-85751904D01*
X78635126Y-85707418D01*
X78626817Y-85693188D01*
X78580415Y-85600000D01*
X78539673Y-85518179D01*
X78428023Y-85370330D01*
X78416762Y-85355418D01*
X78266041Y-85218019D01*
X78266039Y-85218017D01*
X78092642Y-85110655D01*
X78092635Y-85110651D01*
X77966769Y-85061891D01*
X77902456Y-85036976D01*
X77701976Y-84999500D01*
X77498024Y-84999500D01*
X77297544Y-85036976D01*
X77297541Y-85036976D01*
X77297541Y-85036977D01*
X77107364Y-85110651D01*
X77107357Y-85110655D01*
X76933960Y-85218017D01*
X76933958Y-85218019D01*
X76783237Y-85355418D01*
X76660327Y-85518178D01*
X76569422Y-85700739D01*
X76569417Y-85700752D01*
X76513602Y-85896917D01*
X76494785Y-86099999D01*
X76165215Y-86099999D01*
X76159115Y-86034174D01*
X76146397Y-85896917D01*
X76133048Y-85850000D01*
X76090582Y-85700750D01*
X76090159Y-85699901D01*
X76040415Y-85600000D01*
X75999673Y-85518179D01*
X75888023Y-85370330D01*
X75876762Y-85355418D01*
X75726041Y-85218019D01*
X75726039Y-85218017D01*
X75552642Y-85110655D01*
X75552635Y-85110651D01*
X75426769Y-85061891D01*
X75362456Y-85036976D01*
X75161976Y-84999500D01*
X74958024Y-84999500D01*
X74757544Y-85036976D01*
X74757541Y-85036976D01*
X74757541Y-85036977D01*
X74567364Y-85110651D01*
X74567357Y-85110655D01*
X74393960Y-85218017D01*
X74393958Y-85218019D01*
X74243237Y-85355418D01*
X74120327Y-85518178D01*
X74029422Y-85700739D01*
X74029417Y-85700752D01*
X73973602Y-85896917D01*
X73954785Y-86099999D01*
X73620500Y-86099999D01*
X73620500Y-85225326D01*
X73620500Y-85225323D01*
X73620499Y-85225321D01*
X73605967Y-85152264D01*
X73605966Y-85152260D01*
X73550601Y-85069399D01*
X73467740Y-85014034D01*
X73467739Y-85014033D01*
X73467735Y-85014032D01*
X73394677Y-84999500D01*
X73394674Y-84999500D01*
X71645326Y-84999500D01*
X71645323Y-84999500D01*
X71572264Y-85014032D01*
X71572260Y-85014033D01*
X71489399Y-85069399D01*
X71434033Y-85152260D01*
X71434032Y-85152264D01*
X71419500Y-85225321D01*
X70131241Y-85225321D01*
X70184780Y-84887287D01*
X70205078Y-84500000D01*
X70205078Y-84499999D01*
X70184780Y-84112712D01*
X70124113Y-83729676D01*
X70124112Y-83729669D01*
X70023737Y-83355063D01*
X69884755Y-82993005D01*
X69708689Y-82647456D01*
X69497468Y-82322206D01*
X69288904Y-82064649D01*
X69288903Y-82064648D01*
X67794251Y-83559300D01*
X67720412Y-83457670D01*
X67542330Y-83279588D01*
X67440698Y-83205748D01*
X68935350Y-81711096D01*
X68935350Y-81711095D01*
X68677793Y-81502531D01*
X68352543Y-81291310D01*
X68006994Y-81115244D01*
X67644936Y-80976262D01*
X67270330Y-80875887D01*
X67270323Y-80875886D01*
X66887287Y-80815219D01*
X66500001Y-80794922D01*
X66499999Y-80794922D01*
X66112712Y-80815219D01*
X65729676Y-80875886D01*
X65729669Y-80875887D01*
X65355063Y-80976262D01*
X64993005Y-81115244D01*
X64647456Y-81291310D01*
X64322206Y-81502531D01*
X64064648Y-81711095D01*
X64064648Y-81711096D01*
X65559301Y-83205748D01*
X65457670Y-83279588D01*
X65279588Y-83457670D01*
X65205748Y-83559301D01*
X63711096Y-82064648D01*
X63711095Y-82064648D01*
X63502531Y-82322206D01*
X63291310Y-82647456D01*
X63115244Y-82993005D01*
X62976262Y-83355063D01*
X62875887Y-83729669D01*
X62875886Y-83729676D01*
X62815219Y-84112712D01*
X62794922Y-84499999D01*
X62794922Y-84500000D01*
X62815219Y-84887287D01*
X62829236Y-84975787D01*
X62820281Y-85045081D01*
X62775285Y-85098533D01*
X62708533Y-85119172D01*
X62641220Y-85100447D01*
X62594716Y-85048302D01*
X62585703Y-85022026D01*
X62583931Y-85014032D01*
X62569969Y-84951060D01*
X62568098Y-84940449D01*
X62518265Y-84561971D01*
X62517325Y-84551218D01*
X62500618Y-84168671D01*
X62500500Y-84163261D01*
X62500500Y-78899999D01*
X68744750Y-78899999D01*
X68744750Y-78900000D01*
X68763670Y-79043708D01*
X68763671Y-79043712D01*
X68819137Y-79177622D01*
X68819138Y-79177624D01*
X68819139Y-79177625D01*
X68907379Y-79292621D01*
X69022375Y-79380861D01*
X69156291Y-79436330D01*
X69283280Y-79453048D01*
X69299999Y-79455250D01*
X69300000Y-79455250D01*
X69300001Y-79455250D01*
X69314977Y-79453278D01*
X69443709Y-79436330D01*
X69577625Y-79380861D01*
X69692621Y-79292621D01*
X69780861Y-79177625D01*
X69836330Y-79043709D01*
X69855250Y-78900000D01*
X69836330Y-78756291D01*
X69780861Y-78622375D01*
X69692621Y-78507379D01*
X69577625Y-78419139D01*
X69577624Y-78419138D01*
X69577622Y-78419137D01*
X69443712Y-78363671D01*
X69443710Y-78363670D01*
X69443709Y-78363670D01*
X69371854Y-78354210D01*
X69300001Y-78344750D01*
X69299999Y-78344750D01*
X69156291Y-78363670D01*
X69156287Y-78363671D01*
X69022377Y-78419137D01*
X68907379Y-78507379D01*
X68819137Y-78622377D01*
X68763671Y-78756287D01*
X68763670Y-78756291D01*
X68744750Y-78899999D01*
X62500500Y-78899999D01*
X62500500Y-76999999D01*
X68344750Y-76999999D01*
X68344750Y-77000000D01*
X68363670Y-77143708D01*
X68363671Y-77143712D01*
X68419137Y-77277622D01*
X68419138Y-77277624D01*
X68419139Y-77277625D01*
X68507379Y-77392621D01*
X68622375Y-77480861D01*
X68756291Y-77536330D01*
X68883280Y-77553048D01*
X68899999Y-77555250D01*
X68900000Y-77555250D01*
X68900001Y-77555250D01*
X68914977Y-77553278D01*
X69043709Y-77536330D01*
X69177625Y-77480861D01*
X69292621Y-77392621D01*
X69380861Y-77277625D01*
X69436330Y-77143709D01*
X69455250Y-77000000D01*
X69455250Y-76999999D01*
X70444750Y-76999999D01*
X70444750Y-77000000D01*
X70463670Y-77143708D01*
X70463671Y-77143712D01*
X70519137Y-77277622D01*
X70519138Y-77277624D01*
X70519139Y-77277625D01*
X70607379Y-77392621D01*
X70722375Y-77480861D01*
X70856291Y-77536330D01*
X70983280Y-77553048D01*
X70999999Y-77555250D01*
X71000000Y-77555250D01*
X71000001Y-77555250D01*
X71014977Y-77553278D01*
X71143709Y-77536330D01*
X71277625Y-77480861D01*
X71392621Y-77392621D01*
X71480861Y-77277625D01*
X71536330Y-77143709D01*
X71555250Y-77000000D01*
X71536330Y-76856291D01*
X71480861Y-76722375D01*
X71392621Y-76607379D01*
X71277625Y-76519139D01*
X71277624Y-76519138D01*
X71277622Y-76519137D01*
X71143712Y-76463671D01*
X71143710Y-76463670D01*
X71143709Y-76463670D01*
X71071854Y-76454210D01*
X71000001Y-76444750D01*
X70999999Y-76444750D01*
X70856291Y-76463670D01*
X70856287Y-76463671D01*
X70722377Y-76519137D01*
X70607379Y-76607379D01*
X70519137Y-76722377D01*
X70463671Y-76856287D01*
X70463670Y-76856291D01*
X70444750Y-76999999D01*
X69455250Y-76999999D01*
X69436330Y-76856291D01*
X69380861Y-76722375D01*
X69292621Y-76607379D01*
X69177625Y-76519139D01*
X69177624Y-76519138D01*
X69177622Y-76519137D01*
X69043712Y-76463671D01*
X69043710Y-76463670D01*
X69043709Y-76463670D01*
X68971854Y-76454210D01*
X68900001Y-76444750D01*
X68899999Y-76444750D01*
X68756291Y-76463670D01*
X68756287Y-76463671D01*
X68622377Y-76519137D01*
X68507379Y-76607379D01*
X68419137Y-76722377D01*
X68363671Y-76856287D01*
X68363670Y-76856291D01*
X68344750Y-76999999D01*
X62500500Y-76999999D01*
X62500500Y-75999999D01*
X66744750Y-75999999D01*
X66744750Y-76000000D01*
X66763670Y-76143708D01*
X66763671Y-76143712D01*
X66819137Y-76277622D01*
X66819138Y-76277624D01*
X66819139Y-76277625D01*
X66907379Y-76392621D01*
X67022375Y-76480861D01*
X67156291Y-76536330D01*
X67283280Y-76553048D01*
X67299999Y-76555250D01*
X67300000Y-76555250D01*
X67300001Y-76555250D01*
X67314977Y-76553278D01*
X67443709Y-76536330D01*
X67577625Y-76480861D01*
X67692621Y-76392621D01*
X67780861Y-76277625D01*
X67836330Y-76143709D01*
X67855250Y-76000000D01*
X67836330Y-75856291D01*
X67780861Y-75722375D01*
X67692621Y-75607379D01*
X67577625Y-75519139D01*
X67577624Y-75519138D01*
X67577622Y-75519137D01*
X67443712Y-75463671D01*
X67443710Y-75463670D01*
X67443709Y-75463670D01*
X67371854Y-75454210D01*
X67300001Y-75444750D01*
X67299999Y-75444750D01*
X67156291Y-75463670D01*
X67156287Y-75463671D01*
X67022377Y-75519137D01*
X66907379Y-75607379D01*
X66819137Y-75722377D01*
X66763671Y-75856287D01*
X66763670Y-75856291D01*
X66744750Y-75999999D01*
X62500500Y-75999999D01*
X62500500Y-74799999D01*
X68844750Y-74799999D01*
X68844750Y-74800000D01*
X68863670Y-74943708D01*
X68863671Y-74943712D01*
X68919137Y-75077622D01*
X68919138Y-75077624D01*
X68919139Y-75077625D01*
X69007379Y-75192621D01*
X69122375Y-75280861D01*
X69256291Y-75336330D01*
X69383280Y-75353048D01*
X69399999Y-75355250D01*
X69400000Y-75355250D01*
X69400001Y-75355250D01*
X69414977Y-75353278D01*
X69543709Y-75336330D01*
X69677625Y-75280861D01*
X69792621Y-75192621D01*
X69880861Y-75077625D01*
X69936330Y-74943709D01*
X69955250Y-74800000D01*
X69936330Y-74656291D01*
X69880861Y-74522375D01*
X69792621Y-74407379D01*
X69677625Y-74319139D01*
X69677624Y-74319138D01*
X69677622Y-74319137D01*
X69543712Y-74263671D01*
X69543710Y-74263670D01*
X69543709Y-74263670D01*
X69471854Y-74254210D01*
X69400001Y-74244750D01*
X69399999Y-74244750D01*
X69256291Y-74263670D01*
X69256287Y-74263671D01*
X69122377Y-74319137D01*
X69007379Y-74407379D01*
X68919137Y-74522377D01*
X68863671Y-74656287D01*
X68863670Y-74656291D01*
X68844750Y-74799999D01*
X62500500Y-74799999D01*
X62500500Y-71300000D01*
X63644536Y-71300000D01*
X63664376Y-71653295D01*
X63664378Y-71653307D01*
X63723649Y-72002153D01*
X63723651Y-72002162D01*
X63821608Y-72342178D01*
X63957021Y-72669098D01*
X63957023Y-72669102D01*
X64128194Y-72978812D01*
X64128197Y-72978817D01*
X64332956Y-73267396D01*
X64332962Y-73267404D01*
X64568748Y-73531248D01*
X64568751Y-73531251D01*
X64832595Y-73767037D01*
X64832603Y-73767043D01*
X65121182Y-73971802D01*
X65121187Y-73971805D01*
X65430897Y-74142976D01*
X65430901Y-74142978D01*
X65537013Y-74186930D01*
X65757816Y-74278390D01*
X66097843Y-74376350D01*
X66446700Y-74435623D01*
X66800000Y-74455464D01*
X67153300Y-74435623D01*
X67502157Y-74376350D01*
X67842184Y-74278390D01*
X68169105Y-74142975D01*
X68478808Y-73971808D01*
X68478813Y-73971804D01*
X68478817Y-73971802D01*
X68569786Y-73907255D01*
X68767400Y-73767041D01*
X69031250Y-73531250D01*
X69267041Y-73267400D01*
X69471808Y-72978808D01*
X69642975Y-72669105D01*
X69778390Y-72342184D01*
X69876350Y-72002157D01*
X69935623Y-71653300D01*
X69955464Y-71300000D01*
X69935623Y-70946700D01*
X69895406Y-70709999D01*
X85784750Y-70709999D01*
X85784750Y-70710000D01*
X85803670Y-70853708D01*
X85803671Y-70853712D01*
X85859137Y-70987622D01*
X85859138Y-70987624D01*
X85859139Y-70987625D01*
X85947379Y-71102621D01*
X86062375Y-71190861D01*
X86196291Y-71246330D01*
X86323280Y-71263048D01*
X86339999Y-71265250D01*
X86340000Y-71265250D01*
X86340001Y-71265250D01*
X86354977Y-71263278D01*
X86483709Y-71246330D01*
X86617625Y-71190861D01*
X86732621Y-71102621D01*
X86820861Y-70987625D01*
X86876330Y-70853709D01*
X86883401Y-70800000D01*
X100484756Y-70800000D01*
X100503714Y-71137595D01*
X100503716Y-71137607D01*
X100560353Y-71470951D01*
X100560355Y-71470960D01*
X100653959Y-71795866D01*
X100783358Y-72108263D01*
X100946920Y-72404207D01*
X101142591Y-72679980D01*
X101367899Y-72932097D01*
X101367902Y-72932100D01*
X101620019Y-73157408D01*
X101620025Y-73157412D01*
X101620026Y-73157413D01*
X101895793Y-73353080D01*
X102191735Y-73516641D01*
X102504128Y-73646039D01*
X102829045Y-73739646D01*
X103162400Y-73796285D01*
X103500000Y-73815244D01*
X103837600Y-73796285D01*
X104170955Y-73739646D01*
X104495872Y-73646039D01*
X104808265Y-73516641D01*
X105104207Y-73353080D01*
X105379974Y-73157413D01*
X105632099Y-72932099D01*
X105857413Y-72679974D01*
X106053080Y-72404207D01*
X106216641Y-72108265D01*
X106346039Y-71795872D01*
X106439646Y-71470955D01*
X106496285Y-71137600D01*
X106515244Y-70800000D01*
X106496285Y-70462400D01*
X106439646Y-70129045D01*
X106346039Y-69804128D01*
X106216641Y-69491735D01*
X106053080Y-69195793D01*
X105857413Y-68920026D01*
X105857412Y-68920025D01*
X105857408Y-68920019D01*
X105632100Y-68667902D01*
X105632097Y-68667899D01*
X105379980Y-68442591D01*
X105104207Y-68246920D01*
X105062101Y-68223649D01*
X104808265Y-68083359D01*
X104736681Y-68053708D01*
X104726666Y-68049559D01*
X104495872Y-67953961D01*
X104495868Y-67953959D01*
X104495866Y-67953959D01*
X104170960Y-67860355D01*
X104170951Y-67860353D01*
X103837607Y-67803716D01*
X103837595Y-67803714D01*
X103500000Y-67784756D01*
X103162404Y-67803714D01*
X103162392Y-67803716D01*
X102829048Y-67860353D01*
X102829039Y-67860355D01*
X102504133Y-67953959D01*
X102191736Y-68083358D01*
X101895792Y-68246920D01*
X101620019Y-68442591D01*
X101367902Y-68667899D01*
X101367899Y-68667902D01*
X101142591Y-68920019D01*
X100946920Y-69195792D01*
X100783358Y-69491736D01*
X100653959Y-69804133D01*
X100560355Y-70129039D01*
X100560353Y-70129048D01*
X100503716Y-70462392D01*
X100503714Y-70462404D01*
X100484756Y-70800000D01*
X86883401Y-70800000D01*
X86895250Y-70710000D01*
X86876330Y-70566291D01*
X86820861Y-70432375D01*
X86732621Y-70317379D01*
X86617625Y-70229139D01*
X86617624Y-70229138D01*
X86617622Y-70229137D01*
X86483712Y-70173671D01*
X86483710Y-70173670D01*
X86483709Y-70173670D01*
X86411854Y-70164210D01*
X86340001Y-70154750D01*
X86339999Y-70154750D01*
X86196291Y-70173670D01*
X86196287Y-70173671D01*
X86062377Y-70229137D01*
X86024996Y-70257821D01*
X85947379Y-70317379D01*
X85947378Y-70317380D01*
X85947377Y-70317381D01*
X85874447Y-70412424D01*
X85821608Y-70451006D01*
X85825398Y-70458147D01*
X85819585Y-70527775D01*
X85818489Y-70530512D01*
X85803671Y-70566287D01*
X85803670Y-70566291D01*
X85784750Y-70709999D01*
X69895406Y-70709999D01*
X69876350Y-70597843D01*
X69778390Y-70257816D01*
X69717162Y-70110000D01*
X84584750Y-70110000D01*
X84593132Y-70173670D01*
X84603670Y-70253708D01*
X84603671Y-70253712D01*
X84659137Y-70387622D01*
X84659138Y-70387624D01*
X84659139Y-70387625D01*
X84747379Y-70502621D01*
X84862375Y-70590861D01*
X84862376Y-70590861D01*
X84862377Y-70590862D01*
X84907013Y-70609350D01*
X84996291Y-70646330D01*
X85123280Y-70663048D01*
X85139999Y-70665250D01*
X85140000Y-70665250D01*
X85140001Y-70665250D01*
X85154977Y-70663278D01*
X85283709Y-70646330D01*
X85417625Y-70590861D01*
X85532621Y-70502621D01*
X85605553Y-70407574D01*
X85658390Y-70368993D01*
X85654600Y-70361850D01*
X85660415Y-70292223D01*
X85661490Y-70289535D01*
X85676330Y-70253709D01*
X85695250Y-70110000D01*
X85676330Y-69966291D01*
X85620861Y-69832375D01*
X85532621Y-69717379D01*
X85417625Y-69629139D01*
X85417624Y-69629138D01*
X85417622Y-69629137D01*
X85283712Y-69573671D01*
X85283710Y-69573670D01*
X85283709Y-69573670D01*
X85211854Y-69564210D01*
X85140001Y-69554750D01*
X85139999Y-69554750D01*
X84996291Y-69573670D01*
X84996287Y-69573671D01*
X84862377Y-69629137D01*
X84747379Y-69717379D01*
X84659137Y-69832377D01*
X84603671Y-69966287D01*
X84603670Y-69966291D01*
X84584750Y-70110000D01*
X69717162Y-70110000D01*
X69686930Y-70037013D01*
X69642978Y-69930901D01*
X69642976Y-69930897D01*
X69471805Y-69621187D01*
X69471802Y-69621182D01*
X69267043Y-69332603D01*
X69267037Y-69332595D01*
X69031251Y-69068751D01*
X69031248Y-69068748D01*
X68767404Y-68832962D01*
X68767396Y-68832956D01*
X68478817Y-68628197D01*
X68478812Y-68628194D01*
X68169102Y-68457023D01*
X68169098Y-68457021D01*
X67942221Y-68363046D01*
X67842184Y-68321610D01*
X67842180Y-68321608D01*
X67842178Y-68321608D01*
X67502162Y-68223651D01*
X67502153Y-68223649D01*
X67153307Y-68164378D01*
X67153295Y-68164376D01*
X66800000Y-68144536D01*
X66446704Y-68164376D01*
X66446692Y-68164378D01*
X66097846Y-68223649D01*
X66097837Y-68223651D01*
X65757821Y-68321608D01*
X65430901Y-68457021D01*
X65430897Y-68457023D01*
X65121187Y-68628194D01*
X65121182Y-68628197D01*
X64832603Y-68832956D01*
X64832595Y-68832962D01*
X64568751Y-69068748D01*
X64568748Y-69068751D01*
X64332962Y-69332595D01*
X64332956Y-69332603D01*
X64128197Y-69621182D01*
X64128194Y-69621187D01*
X63957023Y-69930897D01*
X63957021Y-69930901D01*
X63821608Y-70257821D01*
X63723651Y-70597837D01*
X63723649Y-70597846D01*
X63664378Y-70946692D01*
X63664376Y-70946704D01*
X63644536Y-71300000D01*
X62500500Y-71300000D01*
X62500500Y-64100000D01*
X63644536Y-64100000D01*
X63664376Y-64453295D01*
X63664378Y-64453307D01*
X63723649Y-64802153D01*
X63723651Y-64802162D01*
X63821608Y-65142178D01*
X63957021Y-65469098D01*
X63957023Y-65469102D01*
X64128194Y-65778812D01*
X64128197Y-65778817D01*
X64332956Y-66067396D01*
X64332962Y-66067404D01*
X64568748Y-66331248D01*
X64568751Y-66331251D01*
X64832595Y-66567037D01*
X64832603Y-66567043D01*
X65121182Y-66771802D01*
X65121187Y-66771805D01*
X65121190Y-66771806D01*
X65121192Y-66771808D01*
X65430895Y-66942975D01*
X65430897Y-66942976D01*
X65430901Y-66942978D01*
X65537013Y-66986930D01*
X65757816Y-67078390D01*
X66097843Y-67176350D01*
X66446700Y-67235623D01*
X66800000Y-67255464D01*
X67153300Y-67235623D01*
X67502157Y-67176350D01*
X67842184Y-67078390D01*
X68169105Y-66942975D01*
X68478808Y-66771808D01*
X68478813Y-66771804D01*
X68478817Y-66771802D01*
X68569786Y-66707255D01*
X68767400Y-66567041D01*
X69031250Y-66331250D01*
X69267041Y-66067400D01*
X69471808Y-65778808D01*
X69642975Y-65469105D01*
X69778390Y-65142184D01*
X69876350Y-64802157D01*
X69935623Y-64453300D01*
X69955464Y-64100000D01*
X69945657Y-63925377D01*
X78388611Y-63925377D01*
X78388611Y-63925378D01*
X78407531Y-64069086D01*
X78407532Y-64069090D01*
X78462998Y-64203000D01*
X78462999Y-64203002D01*
X78463000Y-64203003D01*
X78551240Y-64317999D01*
X78666236Y-64406239D01*
X78800152Y-64461708D01*
X78927141Y-64478426D01*
X78943860Y-64480628D01*
X78943861Y-64480628D01*
X78943862Y-64480628D01*
X78958838Y-64478656D01*
X79087570Y-64461708D01*
X79221484Y-64406240D01*
X79228995Y-64403129D01*
X79230361Y-64406428D01*
X79282286Y-64393749D01*
X79348347Y-64416501D01*
X79364254Y-64429936D01*
X82748440Y-67814122D01*
X82781925Y-67875445D01*
X82783067Y-67901873D01*
X82784750Y-67901873D01*
X82784750Y-67910000D01*
X82803670Y-68053708D01*
X82803671Y-68053712D01*
X82859137Y-68187622D01*
X82859138Y-68187624D01*
X82859139Y-68187625D01*
X82947379Y-68302621D01*
X83062375Y-68390861D01*
X83196291Y-68446330D01*
X83323280Y-68463048D01*
X83339999Y-68465250D01*
X83340000Y-68465250D01*
X83340001Y-68465250D01*
X83354977Y-68463278D01*
X83483709Y-68446330D01*
X83617625Y-68390861D01*
X83732621Y-68302621D01*
X83820861Y-68187625D01*
X83876330Y-68053709D01*
X83895250Y-67910000D01*
X83876330Y-67766291D01*
X83820861Y-67632375D01*
X83732621Y-67517379D01*
X83617625Y-67429139D01*
X83617624Y-67429138D01*
X83617622Y-67429137D01*
X83483712Y-67373671D01*
X83483710Y-67373670D01*
X83483709Y-67373670D01*
X83392638Y-67361680D01*
X83340001Y-67354750D01*
X83331873Y-67354750D01*
X83331873Y-67351243D01*
X83278613Y-67342772D01*
X83244122Y-67318440D01*
X79570591Y-63644909D01*
X79570586Y-63644905D01*
X79492803Y-63599997D01*
X100235212Y-63599997D01*
X100235212Y-63600002D01*
X100254350Y-63952983D01*
X100254351Y-63953000D01*
X100311538Y-64301820D01*
X100311544Y-64301846D01*
X100406109Y-64642441D01*
X100406111Y-64642447D01*
X100536954Y-64970839D01*
X100536963Y-64970857D01*
X100702546Y-65283179D01*
X100702547Y-65283182D01*
X100900923Y-65575764D01*
X100900931Y-65575774D01*
X101024819Y-65721625D01*
X101024820Y-65721626D01*
X101740388Y-65006057D01*
X101802242Y-65086667D01*
X102010793Y-65295218D01*
X102094275Y-65359275D01*
X101375551Y-66077999D01*
X101375551Y-66078001D01*
X101386420Y-66088297D01*
X101667845Y-66302229D01*
X101970750Y-66484482D01*
X101970754Y-66484484D01*
X102291554Y-66632902D01*
X102291573Y-66632909D01*
X102626577Y-66745786D01*
X102971817Y-66821779D01*
X103323246Y-66859999D01*
X103323254Y-66860000D01*
X103676746Y-66860000D01*
X103676753Y-66859999D01*
X104028182Y-66821779D01*
X104373422Y-66745786D01*
X104708426Y-66632909D01*
X104708445Y-66632902D01*
X105029245Y-66484484D01*
X105029249Y-66484482D01*
X105332154Y-66302229D01*
X105613579Y-66088297D01*
X105624447Y-66078001D01*
X105624448Y-66078000D01*
X104905724Y-65359276D01*
X104989207Y-65295218D01*
X105197758Y-65086667D01*
X105259611Y-65006058D01*
X105975178Y-65721625D01*
X106099073Y-65575766D01*
X106099084Y-65575752D01*
X106297451Y-65283183D01*
X106297453Y-65283179D01*
X106463036Y-64970857D01*
X106463045Y-64970839D01*
X106593888Y-64642447D01*
X106593890Y-64642441D01*
X106688455Y-64301846D01*
X106688461Y-64301820D01*
X106745648Y-63953000D01*
X106745649Y-63952983D01*
X106764788Y-63600002D01*
X106764788Y-63599997D01*
X106745649Y-63247016D01*
X106745648Y-63246999D01*
X106688461Y-62898179D01*
X106688455Y-62898153D01*
X106593890Y-62557558D01*
X106593888Y-62557552D01*
X106463045Y-62229160D01*
X106463036Y-62229142D01*
X106297453Y-61916820D01*
X106297452Y-61916817D01*
X106099076Y-61624235D01*
X106099068Y-61624225D01*
X105975179Y-61478373D01*
X105975178Y-61478373D01*
X105259610Y-62193940D01*
X105197758Y-62113333D01*
X104989207Y-61904782D01*
X104905723Y-61840722D01*
X105624447Y-61121998D01*
X105624447Y-61121997D01*
X105613579Y-61111702D01*
X105332154Y-60897770D01*
X105029249Y-60715517D01*
X105029245Y-60715515D01*
X104708445Y-60567097D01*
X104708426Y-60567090D01*
X104373422Y-60454213D01*
X104028182Y-60378220D01*
X103676753Y-60340000D01*
X103323246Y-60340000D01*
X102971817Y-60378220D01*
X102626577Y-60454213D01*
X102291573Y-60567090D01*
X102291554Y-60567097D01*
X101970754Y-60715515D01*
X101970750Y-60715517D01*
X101667845Y-60897770D01*
X101386422Y-61111701D01*
X101386419Y-61111703D01*
X101375551Y-61121997D01*
X101375551Y-61121998D01*
X102094276Y-61840723D01*
X102010793Y-61904782D01*
X101802242Y-62113333D01*
X101740389Y-62193941D01*
X101024820Y-61478372D01*
X101024819Y-61478373D01*
X100900931Y-61624225D01*
X100900923Y-61624235D01*
X100702547Y-61916817D01*
X100702546Y-61916820D01*
X100536963Y-62229142D01*
X100536954Y-62229160D01*
X100406111Y-62557552D01*
X100406109Y-62557558D01*
X100311544Y-62898153D01*
X100311538Y-62898179D01*
X100254351Y-63246999D01*
X100254350Y-63247016D01*
X100235212Y-63599997D01*
X79492803Y-63599997D01*
X79490669Y-63598765D01*
X79490665Y-63598763D01*
X79485304Y-63597327D01*
X79485304Y-63597326D01*
X79400993Y-63574736D01*
X79341332Y-63538371D01*
X79337443Y-63533718D01*
X79336488Y-63532762D01*
X79336482Y-63532757D01*
X79221486Y-63444517D01*
X79221485Y-63444516D01*
X79221483Y-63444515D01*
X79087573Y-63389049D01*
X79087571Y-63389048D01*
X79087570Y-63389048D01*
X79015715Y-63379588D01*
X78943862Y-63370128D01*
X78943860Y-63370128D01*
X78800152Y-63389048D01*
X78800148Y-63389049D01*
X78666238Y-63444515D01*
X78551240Y-63532757D01*
X78462998Y-63647755D01*
X78407532Y-63781665D01*
X78407531Y-63781669D01*
X78388611Y-63925377D01*
X69945657Y-63925377D01*
X69935623Y-63746700D01*
X69876350Y-63397843D01*
X69778390Y-63057816D01*
X69686930Y-62837013D01*
X69642978Y-62730901D01*
X69642976Y-62730897D01*
X69547175Y-62557558D01*
X69471808Y-62421192D01*
X69471806Y-62421190D01*
X69471805Y-62421187D01*
X69471802Y-62421182D01*
X69267043Y-62132603D01*
X69267037Y-62132595D01*
X69031251Y-61868751D01*
X69031248Y-61868748D01*
X68767404Y-61632962D01*
X68767396Y-61632956D01*
X68478817Y-61428197D01*
X68478812Y-61428194D01*
X68169102Y-61257023D01*
X68169098Y-61257021D01*
X68055576Y-61209999D01*
X72284750Y-61209999D01*
X72284750Y-61210000D01*
X72303670Y-61353708D01*
X72303671Y-61353712D01*
X72359137Y-61487622D01*
X72359138Y-61487624D01*
X72359139Y-61487625D01*
X72447379Y-61602621D01*
X72562375Y-61690861D01*
X72696291Y-61746330D01*
X72823280Y-61763048D01*
X72839999Y-61765250D01*
X72840000Y-61765250D01*
X72840001Y-61765250D01*
X72854977Y-61763278D01*
X72983709Y-61746330D01*
X73117625Y-61690861D01*
X73232621Y-61602621D01*
X73320861Y-61487625D01*
X73376330Y-61353709D01*
X73395250Y-61210000D01*
X73376330Y-61066291D01*
X73334117Y-60964378D01*
X73320862Y-60932377D01*
X73320861Y-60932376D01*
X73320861Y-60932375D01*
X73232621Y-60817379D01*
X73117625Y-60729139D01*
X73117624Y-60729138D01*
X73117622Y-60729137D01*
X73071418Y-60709999D01*
X79534750Y-60709999D01*
X79534750Y-60710000D01*
X79553670Y-60853708D01*
X79553671Y-60853712D01*
X79609137Y-60987622D01*
X79609138Y-60987624D01*
X79609139Y-60987625D01*
X79697379Y-61102621D01*
X79797136Y-61179167D01*
X79838337Y-61235594D01*
X79842492Y-61305340D01*
X79820024Y-61353028D01*
X79759139Y-61432374D01*
X79759138Y-61432376D01*
X79703671Y-61566287D01*
X79703670Y-61566291D01*
X79684750Y-61709999D01*
X79684750Y-61710000D01*
X79703670Y-61853708D01*
X79703671Y-61853712D01*
X79759137Y-61987622D01*
X79759138Y-61987624D01*
X79759139Y-61987625D01*
X79847379Y-62102621D01*
X79962375Y-62190861D01*
X80096291Y-62246330D01*
X80223280Y-62263048D01*
X80239999Y-62265250D01*
X80240000Y-62265250D01*
X80240001Y-62265250D01*
X80254977Y-62263278D01*
X80383709Y-62246330D01*
X80517625Y-62190861D01*
X80632621Y-62102621D01*
X80720861Y-61987625D01*
X80776330Y-61853709D01*
X80795250Y-61710000D01*
X80776330Y-61566291D01*
X80720861Y-61432375D01*
X80632621Y-61317379D01*
X80553964Y-61257023D01*
X80532864Y-61240832D01*
X80491662Y-61184404D01*
X80487507Y-61114658D01*
X80509972Y-61066975D01*
X80570861Y-60987625D01*
X80626330Y-60853709D01*
X80645250Y-60710000D01*
X80626330Y-60566291D01*
X80589350Y-60477013D01*
X80570862Y-60432377D01*
X80570861Y-60432376D01*
X80570861Y-60432375D01*
X80482621Y-60317379D01*
X80367625Y-60229139D01*
X80367624Y-60229138D01*
X80367622Y-60229137D01*
X80233712Y-60173671D01*
X80233710Y-60173670D01*
X80233709Y-60173670D01*
X80161854Y-60164210D01*
X80090001Y-60154750D01*
X80089999Y-60154750D01*
X79946291Y-60173670D01*
X79946287Y-60173671D01*
X79812377Y-60229137D01*
X79697379Y-60317379D01*
X79609137Y-60432377D01*
X79553671Y-60566287D01*
X79553670Y-60566291D01*
X79534750Y-60709999D01*
X73071418Y-60709999D01*
X72983712Y-60673671D01*
X72983710Y-60673670D01*
X72983709Y-60673670D01*
X72911854Y-60664210D01*
X72840001Y-60654750D01*
X72839999Y-60654750D01*
X72696291Y-60673670D01*
X72696287Y-60673671D01*
X72562377Y-60729137D01*
X72447379Y-60817379D01*
X72359137Y-60932377D01*
X72303671Y-61066287D01*
X72303670Y-61066291D01*
X72284750Y-61209999D01*
X68055576Y-61209999D01*
X67942221Y-61163046D01*
X67842184Y-61121610D01*
X67842180Y-61121608D01*
X67842178Y-61121608D01*
X67502162Y-61023651D01*
X67502153Y-61023649D01*
X67153307Y-60964378D01*
X67153295Y-60964376D01*
X66800000Y-60944536D01*
X66446704Y-60964376D01*
X66446692Y-60964378D01*
X66097846Y-61023649D01*
X66097837Y-61023651D01*
X65757821Y-61121608D01*
X65430901Y-61257021D01*
X65430897Y-61257023D01*
X65121187Y-61428194D01*
X65121182Y-61428197D01*
X64832603Y-61632956D01*
X64832595Y-61632962D01*
X64568751Y-61868748D01*
X64568748Y-61868751D01*
X64332962Y-62132595D01*
X64332956Y-62132603D01*
X64128197Y-62421182D01*
X64128194Y-62421187D01*
X63957023Y-62730897D01*
X63957021Y-62730901D01*
X63821608Y-63057821D01*
X63723651Y-63397837D01*
X63723649Y-63397846D01*
X63664378Y-63746692D01*
X63664376Y-63746704D01*
X63644536Y-64100000D01*
X62500500Y-64100000D01*
X62500500Y-58199999D01*
X82844750Y-58199999D01*
X82844750Y-58200000D01*
X82863670Y-58343708D01*
X82863671Y-58343712D01*
X82919137Y-58477622D01*
X82919138Y-58477624D01*
X82919139Y-58477625D01*
X83007379Y-58592621D01*
X83122375Y-58680861D01*
X83256291Y-58736330D01*
X83383280Y-58753048D01*
X83399999Y-58755250D01*
X83400000Y-58755250D01*
X83400001Y-58755250D01*
X83414977Y-58753278D01*
X83543709Y-58736330D01*
X83677625Y-58680861D01*
X83792621Y-58592621D01*
X83880861Y-58477625D01*
X83936330Y-58343709D01*
X83955250Y-58200000D01*
X83936330Y-58056291D01*
X83903442Y-57976893D01*
X83895974Y-57907425D01*
X83927249Y-57844946D01*
X83942513Y-57831069D01*
X83992621Y-57792621D01*
X84080861Y-57677625D01*
X84136330Y-57543709D01*
X84155250Y-57400000D01*
X84136330Y-57256291D01*
X84113012Y-57199995D01*
X89295233Y-57199995D01*
X89295233Y-57200004D01*
X89314273Y-57454079D01*
X89370968Y-57702477D01*
X89370973Y-57702494D01*
X89464058Y-57939671D01*
X89464057Y-57939671D01*
X89591454Y-58160327D01*
X89591461Y-58160338D01*
X89633452Y-58212991D01*
X89633453Y-58212992D01*
X90435387Y-57411058D01*
X90440889Y-57431591D01*
X90519881Y-57568408D01*
X90631592Y-57680119D01*
X90768409Y-57759111D01*
X90788940Y-57764612D01*
X89986813Y-58566738D01*
X90147616Y-58676371D01*
X90147624Y-58676376D01*
X90377176Y-58786921D01*
X90377174Y-58786921D01*
X90620652Y-58862024D01*
X90620658Y-58862026D01*
X90872595Y-58899999D01*
X90872604Y-58900000D01*
X91127396Y-58900000D01*
X91127404Y-58899999D01*
X91379341Y-58862026D01*
X91379347Y-58862024D01*
X91622824Y-58786921D01*
X91852376Y-58676376D01*
X91852377Y-58676375D01*
X92013185Y-58566738D01*
X91211060Y-57764612D01*
X91231591Y-57759111D01*
X91368408Y-57680119D01*
X91480119Y-57568408D01*
X91559111Y-57431591D01*
X91564612Y-57411059D01*
X92366544Y-58212992D01*
X92366546Y-58212991D01*
X92408544Y-58160330D01*
X92535941Y-57939671D01*
X92629026Y-57702494D01*
X92629031Y-57702477D01*
X92685726Y-57454079D01*
X92704767Y-57200004D01*
X92704767Y-57199995D01*
X92685726Y-56945920D01*
X92629031Y-56697522D01*
X92629026Y-56697505D01*
X92535941Y-56460328D01*
X92535942Y-56460328D01*
X92408545Y-56239672D01*
X92366545Y-56187006D01*
X91564612Y-56988939D01*
X91559111Y-56968409D01*
X91480119Y-56831592D01*
X91368408Y-56719881D01*
X91231591Y-56640889D01*
X91211059Y-56635387D01*
X91871124Y-55975321D01*
X94549500Y-55975321D01*
X94549500Y-58424678D01*
X94564032Y-58497735D01*
X94564033Y-58497739D01*
X94564034Y-58497740D01*
X94619399Y-58580601D01*
X94702260Y-58635966D01*
X94702264Y-58635967D01*
X94775321Y-58650499D01*
X94775324Y-58650500D01*
X94775326Y-58650500D01*
X97224676Y-58650500D01*
X97224677Y-58650499D01*
X97297740Y-58635966D01*
X97380601Y-58580601D01*
X97435966Y-58497740D01*
X97450500Y-58424674D01*
X97450500Y-55975326D01*
X97450500Y-55975323D01*
X97450499Y-55975321D01*
X97435967Y-55902264D01*
X97435966Y-55902260D01*
X97410181Y-55863670D01*
X97380601Y-55819399D01*
X97297740Y-55764034D01*
X97297739Y-55764033D01*
X97297735Y-55764032D01*
X97224677Y-55749500D01*
X97224674Y-55749500D01*
X94775326Y-55749500D01*
X94775323Y-55749500D01*
X94702264Y-55764032D01*
X94702260Y-55764033D01*
X94619399Y-55819399D01*
X94564033Y-55902260D01*
X94564032Y-55902264D01*
X94549500Y-55975321D01*
X91871124Y-55975321D01*
X92013185Y-55833260D01*
X91852384Y-55723628D01*
X91852376Y-55723623D01*
X91622823Y-55613078D01*
X91622825Y-55613078D01*
X91379347Y-55537975D01*
X91379341Y-55537973D01*
X91127404Y-55500000D01*
X90872595Y-55500000D01*
X90620658Y-55537973D01*
X90620652Y-55537975D01*
X90377175Y-55613078D01*
X90147622Y-55723625D01*
X90147609Y-55723632D01*
X89986813Y-55833259D01*
X90788941Y-56635387D01*
X90768409Y-56640889D01*
X90631592Y-56719881D01*
X90519881Y-56831592D01*
X90440889Y-56968409D01*
X90435387Y-56988941D01*
X89633452Y-56187006D01*
X89591457Y-56239667D01*
X89464058Y-56460328D01*
X89370973Y-56697505D01*
X89370968Y-56697522D01*
X89314273Y-56945920D01*
X89295233Y-57199995D01*
X84113012Y-57199995D01*
X84080861Y-57122375D01*
X83992621Y-57007379D01*
X83877625Y-56919139D01*
X83877624Y-56919138D01*
X83877622Y-56919137D01*
X83743712Y-56863671D01*
X83743710Y-56863670D01*
X83743709Y-56863670D01*
X83671854Y-56854210D01*
X83600001Y-56844750D01*
X83599999Y-56844750D01*
X83456291Y-56863670D01*
X83456287Y-56863671D01*
X83322377Y-56919137D01*
X83207379Y-57007379D01*
X83119137Y-57122377D01*
X83063671Y-57256287D01*
X83063670Y-57256291D01*
X83044750Y-57399999D01*
X83044750Y-57400000D01*
X83063670Y-57543708D01*
X83063671Y-57543712D01*
X83096556Y-57623105D01*
X83104025Y-57692575D01*
X83072749Y-57755054D01*
X83057483Y-57768931D01*
X83007382Y-57807376D01*
X83007380Y-57807377D01*
X83007379Y-57807379D01*
X82978553Y-57844946D01*
X82919137Y-57922377D01*
X82863671Y-58056287D01*
X82863670Y-58056291D01*
X82844750Y-58199999D01*
X62500500Y-58199999D01*
X62500500Y-54502706D01*
X62500618Y-54497297D01*
X62506894Y-54353553D01*
X62517386Y-54113226D01*
X62518325Y-54102497D01*
X62556981Y-53808883D01*
X62585247Y-53744990D01*
X62643571Y-53706519D01*
X62713436Y-53705688D01*
X62772659Y-53742760D01*
X62802438Y-53805966D01*
X62803749Y-53831561D01*
X62794922Y-53999998D01*
X62794922Y-54000000D01*
X62815219Y-54387287D01*
X62875886Y-54770323D01*
X62875887Y-54770330D01*
X62976262Y-55144936D01*
X63115244Y-55506994D01*
X63291310Y-55852543D01*
X63502531Y-56177793D01*
X63711095Y-56435350D01*
X63711096Y-56435350D01*
X65205747Y-54940698D01*
X65279588Y-55042330D01*
X65457670Y-55220412D01*
X65559300Y-55294251D01*
X64064648Y-56788903D01*
X64064649Y-56788904D01*
X64322206Y-56997468D01*
X64647456Y-57208689D01*
X64993005Y-57384755D01*
X65355063Y-57523737D01*
X65729669Y-57624112D01*
X65729676Y-57624113D01*
X66112712Y-57684780D01*
X66499999Y-57705078D01*
X66500001Y-57705078D01*
X66887287Y-57684780D01*
X67270323Y-57624113D01*
X67270330Y-57624112D01*
X67644936Y-57523737D01*
X68006994Y-57384755D01*
X68352543Y-57208689D01*
X68677783Y-56997476D01*
X68677785Y-56997475D01*
X68935349Y-56788902D01*
X67440698Y-55294251D01*
X67542330Y-55220412D01*
X67720412Y-55042330D01*
X67794251Y-54940698D01*
X69288902Y-56435349D01*
X69317527Y-56400000D01*
X77044750Y-56400000D01*
X77052692Y-56460328D01*
X77063670Y-56543708D01*
X77063671Y-56543712D01*
X77119137Y-56677622D01*
X77119138Y-56677624D01*
X77119139Y-56677625D01*
X77207379Y-56792621D01*
X77322375Y-56880861D01*
X77456291Y-56936330D01*
X77583280Y-56953048D01*
X77599999Y-56955250D01*
X77600000Y-56955250D01*
X77600001Y-56955250D01*
X77614977Y-56953278D01*
X77743709Y-56936330D01*
X77877625Y-56880861D01*
X77992621Y-56792621D01*
X78080861Y-56677625D01*
X78136330Y-56543709D01*
X78155250Y-56400000D01*
X78136330Y-56256291D01*
X78080861Y-56122375D01*
X77992621Y-56007379D01*
X77877625Y-55919139D01*
X77877624Y-55919138D01*
X77877622Y-55919137D01*
X77743712Y-55863671D01*
X77743710Y-55863670D01*
X77743709Y-55863670D01*
X77659193Y-55852543D01*
X77600001Y-55844750D01*
X77599999Y-55844750D01*
X77456291Y-55863670D01*
X77456287Y-55863671D01*
X77322377Y-55919137D01*
X77207379Y-56007379D01*
X77119137Y-56122377D01*
X77063671Y-56256287D01*
X77063670Y-56256291D01*
X77044750Y-56400000D01*
X69317527Y-56400000D01*
X69497475Y-56177785D01*
X69497476Y-56177783D01*
X69708689Y-55852543D01*
X69884755Y-55506994D01*
X70023737Y-55144936D01*
X70124112Y-54770330D01*
X70124113Y-54770323D01*
X70184780Y-54387287D01*
X70205078Y-54000000D01*
X70205078Y-53999999D01*
X70184780Y-53612712D01*
X70124113Y-53229676D01*
X70124112Y-53229669D01*
X70023737Y-52855063D01*
X69884755Y-52493005D01*
X69708689Y-52147456D01*
X69497468Y-51822206D01*
X69288904Y-51564649D01*
X69288903Y-51564648D01*
X67794251Y-53059300D01*
X67720412Y-52957670D01*
X67542330Y-52779588D01*
X67440698Y-52705747D01*
X68746447Y-51399999D01*
X77044750Y-51399999D01*
X77044750Y-51400000D01*
X77063670Y-51543708D01*
X77063671Y-51543712D01*
X77119138Y-51677623D01*
X77119139Y-51677625D01*
X77155118Y-51724514D01*
X77180312Y-51789683D01*
X77166274Y-51858128D01*
X77155118Y-51875486D01*
X77119139Y-51922374D01*
X77119138Y-51922376D01*
X77063671Y-52056287D01*
X77063670Y-52056291D01*
X77044750Y-52199999D01*
X77044750Y-52200000D01*
X77063670Y-52343708D01*
X77063671Y-52343712D01*
X77119137Y-52477622D01*
X77119138Y-52477624D01*
X77119139Y-52477625D01*
X77207379Y-52592621D01*
X77322375Y-52680861D01*
X77456291Y-52736330D01*
X77583280Y-52753048D01*
X77599999Y-52755250D01*
X77600000Y-52755250D01*
X77600001Y-52755250D01*
X77614977Y-52753278D01*
X77743709Y-52736330D01*
X77877625Y-52680861D01*
X77992621Y-52592621D01*
X78080861Y-52477625D01*
X78136330Y-52343709D01*
X78155250Y-52200000D01*
X78136330Y-52056291D01*
X78080861Y-51922375D01*
X78044881Y-51875485D01*
X78019687Y-51810318D01*
X78033725Y-51741873D01*
X78044880Y-51724516D01*
X78080861Y-51677625D01*
X78136330Y-51543709D01*
X78155250Y-51400000D01*
X78136330Y-51256291D01*
X78080861Y-51122375D01*
X77992621Y-51007379D01*
X77877625Y-50919139D01*
X77877624Y-50919138D01*
X77877622Y-50919137D01*
X77743712Y-50863671D01*
X77743710Y-50863670D01*
X77743709Y-50863670D01*
X77671854Y-50854210D01*
X77600001Y-50844750D01*
X77599999Y-50844750D01*
X77456291Y-50863670D01*
X77456287Y-50863671D01*
X77322377Y-50919137D01*
X77207379Y-51007379D01*
X77119137Y-51122377D01*
X77063671Y-51256287D01*
X77063670Y-51256291D01*
X77044750Y-51399999D01*
X68746447Y-51399999D01*
X68935350Y-51211096D01*
X68935350Y-51211095D01*
X68677793Y-51002531D01*
X68352543Y-50791310D01*
X68006994Y-50615244D01*
X67644936Y-50476262D01*
X67270330Y-50375887D01*
X67270323Y-50375886D01*
X66887287Y-50315219D01*
X66500001Y-50294922D01*
X66499998Y-50294922D01*
X66331561Y-50303749D01*
X66263584Y-50287600D01*
X66215128Y-50237263D01*
X66201579Y-50168719D01*
X66227238Y-50103732D01*
X66283959Y-50062933D01*
X66308879Y-50056981D01*
X66602497Y-50018325D01*
X66613226Y-50017386D01*
X66997297Y-50000617D01*
X67002706Y-50000500D01*
X67065892Y-50000500D01*
X103434108Y-50000500D01*
X103497294Y-50000500D01*
X103502702Y-50000617D01*
G37*
%TD.AperFunction*%
%TD*%
M02*
