%TF.GenerationSoftware,KiCad,Pcbnew,8.0.6*%
%TF.CreationDate,2024-11-07T10:06:34+11:00*%
%TF.ProjectId,mppt-board,6d707074-2d62-46f6-9172-642e6b696361,rev?*%
%TF.SameCoordinates,Original*%
%TF.FileFunction,Soldermask,Top*%
%TF.FilePolarity,Negative*%
%FSLAX46Y46*%
G04 Gerber Fmt 4.6, Leading zero omitted, Abs format (unit mm)*
G04 Created by KiCad (PCBNEW 8.0.6) date 2024-11-07 10:06:34*
%MOMM*%
%LPD*%
G01*
G04 APERTURE LIST*
G04 Aperture macros list*
%AMRoundRect*
0 Rectangle with rounded corners*
0 $1 Rounding radius*
0 $2 $3 $4 $5 $6 $7 $8 $9 X,Y pos of 4 corners*
0 Add a 4 corners polygon primitive as box body*
4,1,4,$2,$3,$4,$5,$6,$7,$8,$9,$2,$3,0*
0 Add four circle primitives for the rounded corners*
1,1,$1+$1,$2,$3*
1,1,$1+$1,$4,$5*
1,1,$1+$1,$6,$7*
1,1,$1+$1,$8,$9*
0 Add four rect primitives between the rounded corners*
20,1,$1+$1,$2,$3,$4,$5,0*
20,1,$1+$1,$4,$5,$6,$7,0*
20,1,$1+$1,$6,$7,$8,$9,0*
20,1,$1+$1,$8,$9,$2,$3,0*%
G04 Aperture macros list end*
%ADD10R,2.950000X3.500000*%
%ADD11C,5.800000*%
%ADD12RoundRect,0.250000X-0.262500X-0.450000X0.262500X-0.450000X0.262500X0.450000X-0.262500X0.450000X0*%
%ADD13RoundRect,0.150000X-0.150000X0.512500X-0.150000X-0.512500X0.150000X-0.512500X0.150000X0.512500X0*%
%ADD14C,6.400000*%
%ADD15R,2.400000X2.400000*%
%ADD16C,2.400000*%
%ADD17RoundRect,0.150000X-0.825000X-0.150000X0.825000X-0.150000X0.825000X0.150000X-0.825000X0.150000X0*%
%ADD18RoundRect,0.250000X-0.475000X0.250000X-0.475000X-0.250000X0.475000X-0.250000X0.475000X0.250000X0*%
%ADD19R,1.700000X1.700000*%
%ADD20O,1.700000X1.700000*%
%ADD21RoundRect,0.250000X-2.050000X-0.300000X2.050000X-0.300000X2.050000X0.300000X-2.050000X0.300000X0*%
%ADD22RoundRect,0.250002X-4.449998X-5.149998X4.449998X-5.149998X4.449998X5.149998X-4.449998X5.149998X0*%
%ADD23RoundRect,0.250000X-0.850000X-0.350000X0.850000X-0.350000X0.850000X0.350000X-0.850000X0.350000X0*%
%ADD24RoundRect,0.249997X-2.950003X-2.650003X2.950003X-2.650003X2.950003X2.650003X-2.950003X2.650003X0*%
%ADD25RoundRect,0.250000X0.475000X-0.250000X0.475000X0.250000X-0.475000X0.250000X-0.475000X-0.250000X0*%
%ADD26RoundRect,0.375000X0.625000X0.375000X-0.625000X0.375000X-0.625000X-0.375000X0.625000X-0.375000X0*%
%ADD27RoundRect,0.500000X0.500000X1.400000X-0.500000X1.400000X-0.500000X-1.400000X0.500000X-1.400000X0*%
%ADD28RoundRect,0.250000X-1.425000X0.362500X-1.425000X-0.362500X1.425000X-0.362500X1.425000X0.362500X0*%
%ADD29C,5.520000*%
G04 APERTURE END LIST*
D10*
%TO.C,L1*%
X73375000Y-80100000D03*
X78825000Y-80100000D03*
%TD*%
D11*
%TO.C,U4*%
X66800000Y-64100000D03*
X66800000Y-71300000D03*
%TD*%
D12*
%TO.C,R2*%
X76427500Y-68210000D03*
X78252500Y-68210000D03*
%TD*%
D13*
%TO.C,U1*%
X82540000Y-68822500D03*
X81590000Y-68822500D03*
X80640000Y-68822500D03*
X80640000Y-71097500D03*
X82540000Y-71097500D03*
%TD*%
D12*
%TO.C,R5*%
X80677500Y-73210000D03*
X82502500Y-73210000D03*
%TD*%
%TO.C,R4*%
X80927500Y-66710000D03*
X82752500Y-66710000D03*
%TD*%
D14*
%TO.C,H3*%
X66500000Y-84500000D03*
%TD*%
D15*
%TO.C,C2*%
X96000000Y-57200000D03*
D16*
X91000000Y-57200000D03*
%TD*%
D12*
%TO.C,R3*%
X76427500Y-70710000D03*
X78252500Y-70710000D03*
%TD*%
D17*
%TO.C,U3*%
X76865000Y-60305000D03*
X76865000Y-61575000D03*
X76865000Y-62845000D03*
X76865000Y-64115000D03*
X81815000Y-64115000D03*
X81815000Y-62845000D03*
X81815000Y-61575000D03*
X81815000Y-60305000D03*
%TD*%
D18*
%TO.C,C1*%
X84940000Y-71160000D03*
X84940000Y-73060000D03*
%TD*%
D14*
%TO.C,H2*%
X104000000Y-54000000D03*
%TD*%
D19*
%TO.C,J2*%
X72520000Y-86100000D03*
D20*
X75060000Y-86100000D03*
X77600000Y-86100000D03*
X80140000Y-86100000D03*
%TD*%
D18*
%TO.C,C3*%
X74340000Y-61760000D03*
X74340000Y-63660000D03*
%TD*%
D21*
%TO.C,D1*%
X86050000Y-79160000D03*
D22*
X95200000Y-81700000D03*
D21*
X86050000Y-84240000D03*
%TD*%
D14*
%TO.C,H1*%
X66500000Y-54000000D03*
%TD*%
D23*
%TO.C,Q1*%
X89025000Y-68745000D03*
D24*
X95325000Y-71025000D03*
D23*
X89025000Y-73305000D03*
%TD*%
D25*
%TO.C,C4*%
X82000000Y-57350000D03*
X82000000Y-55450000D03*
%TD*%
D18*
%TO.C,C5*%
X82000000Y-51850000D03*
X82000000Y-53750000D03*
%TD*%
D14*
%TO.C,H4*%
X104000000Y-84600000D03*
%TD*%
D26*
%TO.C,U2*%
X79400000Y-56400000D03*
X79400000Y-54100000D03*
D27*
X73100000Y-54100000D03*
D26*
X79400000Y-51800000D03*
%TD*%
D28*
%TO.C,R1*%
X73500000Y-73162500D03*
X73500000Y-67237500D03*
%TD*%
D29*
%TO.C,U5*%
X103500000Y-70800000D03*
X103500000Y-63600000D03*
%TD*%
M02*
