%TF.GenerationSoftware,KiCad,Pcbnew,8.0.5*%
%TF.CreationDate,2024-09-18T15:37:43+10:00*%
%TF.ProjectId,mppt-board,6d707074-2d62-46f6-9172-642e6b696361,rev?*%
%TF.SameCoordinates,Original*%
%TF.FileFunction,Paste,Top*%
%TF.FilePolarity,Positive*%
%FSLAX46Y46*%
G04 Gerber Fmt 4.6, Leading zero omitted, Abs format (unit mm)*
G04 Created by KiCad (PCBNEW 8.0.5) date 2024-09-18 15:37:43*
%MOMM*%
%LPD*%
G01*
G04 APERTURE LIST*
G04 Aperture macros list*
%AMRoundRect*
0 Rectangle with rounded corners*
0 $1 Rounding radius*
0 $2 $3 $4 $5 $6 $7 $8 $9 X,Y pos of 4 corners*
0 Add a 4 corners polygon primitive as box body*
4,1,4,$2,$3,$4,$5,$6,$7,$8,$9,$2,$3,0*
0 Add four circle primitives for the rounded corners*
1,1,$1+$1,$2,$3*
1,1,$1+$1,$4,$5*
1,1,$1+$1,$6,$7*
1,1,$1+$1,$8,$9*
0 Add four rect primitives between the rounded corners*
20,1,$1+$1,$2,$3,$4,$5,0*
20,1,$1+$1,$4,$5,$6,$7,0*
20,1,$1+$1,$6,$7,$8,$9,0*
20,1,$1+$1,$8,$9,$2,$3,0*%
G04 Aperture macros list end*
%ADD10R,5.750000X20.000000*%
%ADD11R,1.200000X1.500000*%
%ADD12RoundRect,0.250000X-1.425000X0.362500X-1.425000X-0.362500X1.425000X-0.362500X1.425000X0.362500X0*%
%ADD13RoundRect,0.250000X-0.262500X-0.450000X0.262500X-0.450000X0.262500X0.450000X-0.262500X0.450000X0*%
%ADD14RoundRect,0.250000X0.262500X0.450000X-0.262500X0.450000X-0.262500X-0.450000X0.262500X-0.450000X0*%
%ADD15RoundRect,0.150000X-0.825000X-0.150000X0.825000X-0.150000X0.825000X0.150000X-0.825000X0.150000X0*%
%ADD16RoundRect,0.250000X-0.475000X0.250000X-0.475000X-0.250000X0.475000X-0.250000X0.475000X0.250000X0*%
%ADD17RoundRect,0.150000X-0.512500X-0.150000X0.512500X-0.150000X0.512500X0.150000X-0.512500X0.150000X0*%
%ADD18RoundRect,0.250000X0.475000X-0.250000X0.475000X0.250000X-0.475000X0.250000X-0.475000X-0.250000X0*%
%ADD19RoundRect,0.250000X-0.250000X-0.475000X0.250000X-0.475000X0.250000X0.475000X-0.250000X0.475000X0*%
%ADD20RoundRect,0.250000X-0.350000X0.850000X-0.350000X-0.850000X0.350000X-0.850000X0.350000X0.850000X0*%
%ADD21RoundRect,0.250000X-1.125000X1.275000X-1.125000X-1.275000X1.125000X-1.275000X1.125000X1.275000X0*%
%ADD22RoundRect,0.250000X0.250000X0.475000X-0.250000X0.475000X-0.250000X-0.475000X0.250000X-0.475000X0*%
%ADD23RoundRect,0.250000X-0.850000X-0.350000X0.850000X-0.350000X0.850000X0.350000X-0.850000X0.350000X0*%
%ADD24RoundRect,0.250000X-1.275000X-1.125000X1.275000X-1.125000X1.275000X1.125000X-1.275000X1.125000X0*%
G04 APERTURE END LIST*
D10*
%TO.C,L1*%
X75000000Y-86500000D03*
X93400000Y-86500000D03*
%TD*%
D11*
%TO.C,L2*%
X81500000Y-51150000D03*
X81500000Y-53850000D03*
%TD*%
D12*
%TO.C,R1*%
X69500000Y-68037500D03*
X69500000Y-73962500D03*
%TD*%
D13*
%TO.C,R2*%
X74087500Y-68500000D03*
X75912500Y-68500000D03*
%TD*%
D14*
%TO.C,R7*%
X77825000Y-58500000D03*
X76000000Y-58500000D03*
%TD*%
D13*
%TO.C,R5*%
X80175000Y-74000000D03*
X82000000Y-74000000D03*
%TD*%
%TO.C,R4*%
X81587500Y-66000000D03*
X83412500Y-66000000D03*
%TD*%
%TO.C,R3*%
X74087500Y-71000000D03*
X75912500Y-71000000D03*
%TD*%
D15*
%TO.C,U3*%
X74525000Y-60595000D03*
X74525000Y-61865000D03*
X74525000Y-63135000D03*
X74525000Y-64405000D03*
X79475000Y-64405000D03*
X79475000Y-63135000D03*
X79475000Y-61865000D03*
X79475000Y-60595000D03*
%TD*%
D16*
%TO.C,C1*%
X86000000Y-69750000D03*
X86000000Y-71650000D03*
%TD*%
D17*
%TO.C,U2*%
X75375000Y-52000000D03*
X75375000Y-52950000D03*
X75375000Y-53900000D03*
X77650000Y-53900000D03*
X77650000Y-52000000D03*
%TD*%
D18*
%TO.C,C3*%
X73000000Y-54950000D03*
X73000000Y-53050000D03*
%TD*%
D15*
%TO.C,U1*%
X78525000Y-68095000D03*
X78525000Y-69365000D03*
X78525000Y-70635000D03*
X78525000Y-71905000D03*
X83475000Y-71905000D03*
X83475000Y-70635000D03*
X83475000Y-69365000D03*
X83475000Y-68095000D03*
%TD*%
D19*
%TO.C,C7*%
X84550000Y-53500000D03*
X86450000Y-53500000D03*
%TD*%
D16*
%TO.C,C4*%
X72000000Y-62050000D03*
X72000000Y-63950000D03*
%TD*%
D20*
%TO.C,D1*%
X103280000Y-78460000D03*
D21*
X102525000Y-83085000D03*
X99475000Y-83085000D03*
X102525000Y-86435000D03*
X99475000Y-86435000D03*
D20*
X98720000Y-78460000D03*
%TD*%
D22*
%TO.C,C5*%
X81950000Y-56000000D03*
X80050000Y-56000000D03*
%TD*%
D23*
%TO.C,Q1*%
X89025000Y-68745000D03*
D24*
X93650000Y-69500000D03*
X93650000Y-72550000D03*
X97000000Y-69500000D03*
X97000000Y-72550000D03*
D23*
X89025000Y-73305000D03*
%TD*%
D14*
%TO.C,R6*%
X81912500Y-58500000D03*
X80087500Y-58500000D03*
%TD*%
D22*
%TO.C,C6*%
X77900000Y-56000000D03*
X76000000Y-56000000D03*
%TD*%
M02*
