%TF.GenerationSoftware,KiCad,Pcbnew,8.0.5*%
%TF.CreationDate,2024-09-18T15:37:43+10:00*%
%TF.ProjectId,mppt-board,6d707074-2d62-46f6-9172-642e6b696361,rev?*%
%TF.SameCoordinates,Original*%
%TF.FileFunction,Copper,L2,Inr*%
%TF.FilePolarity,Positive*%
%FSLAX46Y46*%
G04 Gerber Fmt 4.6, Leading zero omitted, Abs format (unit mm)*
G04 Created by KiCad (PCBNEW 8.0.5) date 2024-09-18 15:37:43*
%MOMM*%
%LPD*%
G01*
G04 APERTURE LIST*
%TA.AperFunction,ComponentPad*%
%ADD10C,6.400000*%
%TD*%
%TA.AperFunction,ComponentPad*%
%ADD11R,2.400000X2.400000*%
%TD*%
%TA.AperFunction,ComponentPad*%
%ADD12C,2.400000*%
%TD*%
%TA.AperFunction,ComponentPad*%
%ADD13R,1.700000X1.700000*%
%TD*%
%TA.AperFunction,ComponentPad*%
%ADD14O,1.700000X1.700000*%
%TD*%
%TA.AperFunction,ViaPad*%
%ADD15C,0.600000*%
%TD*%
G04 APERTURE END LIST*
D10*
%TO.N,GND*%
%TO.C,H3*%
X66500000Y-94000000D03*
%TD*%
D11*
%TO.N,Net-(D1-A)*%
%TO.C,C2*%
X96000000Y-57500000D03*
D12*
%TO.N,GND*%
X91000000Y-57500000D03*
%TD*%
D10*
%TO.N,GND*%
%TO.C,H2*%
X104000000Y-54000000D03*
%TD*%
D13*
%TO.N,VCC*%
%TO.C,J2*%
X66500000Y-77920000D03*
D14*
%TO.N,/swclk*%
X66500000Y-80460000D03*
%TO.N,/swdio*%
X66500000Y-83000000D03*
%TO.N,GND*%
X66500000Y-85540000D03*
%TD*%
D13*
%TO.N,VBUS*%
%TO.C,SC1*%
X65000000Y-64960000D03*
D14*
%TO.N,Net-(SC1--)*%
X65000000Y-67500000D03*
%TD*%
D10*
%TO.N,GND*%
%TO.C,H1*%
X66500000Y-54000000D03*
%TD*%
D13*
%TO.N,Net-(D1-A)*%
%TO.C,J1*%
X105725000Y-70250000D03*
D14*
%TO.N,GND*%
X105725000Y-67710000D03*
%TD*%
D10*
%TO.N,GND*%
%TO.C,H4*%
X104000000Y-94000000D03*
%TD*%
D15*
%TO.N,*%
X107500000Y-68500000D03*
X107500000Y-67250000D03*
X104750000Y-65750000D03*
X105750000Y-65750000D03*
%TO.N,GND*%
X106680000Y-60960000D03*
X88900000Y-63500000D03*
X66040000Y-60960000D03*
X98000000Y-93000000D03*
X81280000Y-96520000D03*
X87500000Y-71750000D03*
X91000000Y-55000000D03*
X66750000Y-75000000D03*
X81280000Y-81280000D03*
X106680000Y-88900000D03*
X71500000Y-53000000D03*
X85750000Y-55000000D03*
X99060000Y-91440000D03*
X93000000Y-59500000D03*
X86360000Y-50800000D03*
X81280000Y-76200000D03*
X87250000Y-73250000D03*
X70750000Y-65000000D03*
X101600000Y-88900000D03*
X89000000Y-74500000D03*
X86000000Y-72750000D03*
X106680000Y-66040000D03*
X103000000Y-80500000D03*
X71120000Y-91440000D03*
X88250000Y-57500000D03*
X93250000Y-55250000D03*
X86360000Y-66040000D03*
X66750000Y-74000000D03*
X86360000Y-96520000D03*
X86360000Y-81280000D03*
X93250000Y-57250000D03*
X70500000Y-64000000D03*
X91440000Y-66040000D03*
X67500000Y-75500000D03*
X75000000Y-58500000D03*
X89000000Y-72000000D03*
X76750000Y-72750000D03*
X86360000Y-60960000D03*
X86500000Y-55000000D03*
X97250000Y-83500000D03*
X86360000Y-86360000D03*
X81280000Y-86360000D03*
X83750000Y-64250000D03*
X88750000Y-59750000D03*
X84750000Y-65000000D03*
X74750000Y-56000000D03*
X72500000Y-71000000D03*
X93500000Y-97500000D03*
X97750000Y-80500000D03*
X76750000Y-73750000D03*
X73000000Y-51750000D03*
X101600000Y-50800000D03*
X74750000Y-57250000D03*
X71500000Y-72250000D03*
X71120000Y-55880000D03*
X73250000Y-74500000D03*
X68250000Y-75500000D03*
X88750000Y-55500000D03*
X100250000Y-80500000D03*
X71120000Y-76200000D03*
X77000000Y-59750000D03*
X69000000Y-75500000D03*
X96520000Y-66040000D03*
X74750000Y-59500000D03*
X81280000Y-91440000D03*
X87750000Y-53500000D03*
X75000000Y-97750000D03*
X86500000Y-52000000D03*
X72000000Y-65250000D03*
X84750000Y-66000000D03*
X104140000Y-88900000D03*
X76000000Y-59750000D03*
X103000000Y-75000000D03*
X71120000Y-86360000D03*
X71120000Y-81280000D03*
X96520000Y-50800000D03*
X72500000Y-70000000D03*
X91440000Y-50800000D03*
X86360000Y-91440000D03*
X99060000Y-88900000D03*
X71120000Y-50800000D03*
X86360000Y-76200000D03*
X70500000Y-96750000D03*
X78500000Y-73000000D03*
X99060000Y-96520000D03*
X91250000Y-60000000D03*
X66040000Y-71120000D03*
%TO.N,VCC*%
X81750000Y-60550000D03*
X70500000Y-61500000D03*
X82450000Y-60550000D03*
X81800000Y-59900000D03*
X82450000Y-59900000D03*
%TO.N,/V_{drop}*%
X76500000Y-61000000D03*
X81000000Y-70500000D03*
%TO.N,/swdio*%
X77900000Y-62000000D03*
%TO.N,/swclk*%
X77750000Y-61000000D03*
%TD*%
%TA.AperFunction,Conductor*%
%TO.N,VBUS*%
G36*
X70555099Y-50020185D02*
G01*
X70600854Y-50072989D01*
X70610798Y-50142147D01*
X70581773Y-50205703D01*
X70575741Y-50212181D01*
X70490184Y-50297737D01*
X70394211Y-50450476D01*
X70334631Y-50620745D01*
X70334630Y-50620750D01*
X70314435Y-50799996D01*
X70314435Y-50800003D01*
X70334630Y-50979249D01*
X70334631Y-50979254D01*
X70394211Y-51149523D01*
X70455924Y-51247738D01*
X70490184Y-51302262D01*
X70617738Y-51429816D01*
X70708080Y-51486582D01*
X70764807Y-51522226D01*
X70770478Y-51525789D01*
X70894637Y-51569234D01*
X70940745Y-51585368D01*
X70940750Y-51585369D01*
X71119996Y-51605565D01*
X71120000Y-51605565D01*
X71120004Y-51605565D01*
X71299249Y-51585369D01*
X71299252Y-51585368D01*
X71299255Y-51585368D01*
X71469522Y-51525789D01*
X71622262Y-51429816D01*
X71749816Y-51302262D01*
X71845789Y-51149522D01*
X71905368Y-50979255D01*
X71907016Y-50964630D01*
X71925565Y-50800003D01*
X71925565Y-50799996D01*
X71905369Y-50620750D01*
X71905368Y-50620745D01*
X71854645Y-50475788D01*
X71845789Y-50450478D01*
X71749816Y-50297738D01*
X71664259Y-50212181D01*
X71630774Y-50150858D01*
X71635758Y-50081166D01*
X71677630Y-50025233D01*
X71743094Y-50000816D01*
X71751940Y-50000500D01*
X85728060Y-50000500D01*
X85795099Y-50020185D01*
X85840854Y-50072989D01*
X85850798Y-50142147D01*
X85821773Y-50205703D01*
X85815741Y-50212181D01*
X85730184Y-50297737D01*
X85634211Y-50450476D01*
X85574631Y-50620745D01*
X85574630Y-50620750D01*
X85554435Y-50799996D01*
X85554435Y-50800003D01*
X85574630Y-50979249D01*
X85574631Y-50979254D01*
X85634211Y-51149523D01*
X85730184Y-51302262D01*
X85821667Y-51393745D01*
X85855152Y-51455068D01*
X85850168Y-51524760D01*
X85838980Y-51547398D01*
X85774211Y-51650476D01*
X85714631Y-51820745D01*
X85714630Y-51820750D01*
X85694435Y-51999996D01*
X85694435Y-52000003D01*
X85714630Y-52179249D01*
X85714631Y-52179254D01*
X85774211Y-52349523D01*
X85853549Y-52475788D01*
X85870184Y-52502262D01*
X85997738Y-52629816D01*
X86088080Y-52686582D01*
X86132721Y-52714632D01*
X86150478Y-52725789D01*
X86288860Y-52774211D01*
X86320745Y-52785368D01*
X86320750Y-52785369D01*
X86499996Y-52805565D01*
X86500000Y-52805565D01*
X86500004Y-52805565D01*
X86679249Y-52785369D01*
X86679252Y-52785368D01*
X86679255Y-52785368D01*
X86849522Y-52725789D01*
X87002262Y-52629816D01*
X87129816Y-52502262D01*
X87225789Y-52349522D01*
X87285368Y-52179255D01*
X87285369Y-52179249D01*
X87305565Y-52000003D01*
X87305565Y-51999996D01*
X87285369Y-51820750D01*
X87285368Y-51820745D01*
X87225788Y-51650476D01*
X87184878Y-51585368D01*
X87129816Y-51497738D01*
X87038332Y-51406254D01*
X87004847Y-51344931D01*
X87009831Y-51275239D01*
X87021017Y-51252605D01*
X87085789Y-51149522D01*
X87145368Y-50979255D01*
X87147016Y-50964630D01*
X87165565Y-50800003D01*
X87165565Y-50799996D01*
X87145369Y-50620750D01*
X87145368Y-50620745D01*
X87094645Y-50475788D01*
X87085789Y-50450478D01*
X86989816Y-50297738D01*
X86904259Y-50212181D01*
X86870774Y-50150858D01*
X86875758Y-50081166D01*
X86917630Y-50025233D01*
X86983094Y-50000816D01*
X86991940Y-50000500D01*
X90808060Y-50000500D01*
X90875099Y-50020185D01*
X90920854Y-50072989D01*
X90930798Y-50142147D01*
X90901773Y-50205703D01*
X90895741Y-50212181D01*
X90810184Y-50297737D01*
X90714211Y-50450476D01*
X90654631Y-50620745D01*
X90654630Y-50620750D01*
X90634435Y-50799996D01*
X90634435Y-50800003D01*
X90654630Y-50979249D01*
X90654631Y-50979254D01*
X90714211Y-51149523D01*
X90775924Y-51247738D01*
X90810184Y-51302262D01*
X90937738Y-51429816D01*
X91028080Y-51486582D01*
X91084807Y-51522226D01*
X91090478Y-51525789D01*
X91214637Y-51569234D01*
X91260745Y-51585368D01*
X91260750Y-51585369D01*
X91439996Y-51605565D01*
X91440000Y-51605565D01*
X91440004Y-51605565D01*
X91619249Y-51585369D01*
X91619252Y-51585368D01*
X91619255Y-51585368D01*
X91789522Y-51525789D01*
X91942262Y-51429816D01*
X92069816Y-51302262D01*
X92165789Y-51149522D01*
X92225368Y-50979255D01*
X92227016Y-50964630D01*
X92245565Y-50800003D01*
X92245565Y-50799996D01*
X92225369Y-50620750D01*
X92225368Y-50620745D01*
X92174645Y-50475788D01*
X92165789Y-50450478D01*
X92069816Y-50297738D01*
X91984259Y-50212181D01*
X91950774Y-50150858D01*
X91955758Y-50081166D01*
X91997630Y-50025233D01*
X92063094Y-50000816D01*
X92071940Y-50000500D01*
X95888060Y-50000500D01*
X95955099Y-50020185D01*
X96000854Y-50072989D01*
X96010798Y-50142147D01*
X95981773Y-50205703D01*
X95975741Y-50212181D01*
X95890184Y-50297737D01*
X95794211Y-50450476D01*
X95734631Y-50620745D01*
X95734630Y-50620750D01*
X95714435Y-50799996D01*
X95714435Y-50800003D01*
X95734630Y-50979249D01*
X95734631Y-50979254D01*
X95794211Y-51149523D01*
X95855924Y-51247738D01*
X95890184Y-51302262D01*
X96017738Y-51429816D01*
X96108080Y-51486582D01*
X96164807Y-51522226D01*
X96170478Y-51525789D01*
X96294637Y-51569234D01*
X96340745Y-51585368D01*
X96340750Y-51585369D01*
X96519996Y-51605565D01*
X96520000Y-51605565D01*
X96520004Y-51605565D01*
X96699249Y-51585369D01*
X96699252Y-51585368D01*
X96699255Y-51585368D01*
X96869522Y-51525789D01*
X97022262Y-51429816D01*
X97149816Y-51302262D01*
X97245789Y-51149522D01*
X97305368Y-50979255D01*
X97307016Y-50964630D01*
X97325565Y-50800003D01*
X97325565Y-50799996D01*
X97305369Y-50620750D01*
X97305368Y-50620745D01*
X97254645Y-50475788D01*
X97245789Y-50450478D01*
X97149816Y-50297738D01*
X97064259Y-50212181D01*
X97030774Y-50150858D01*
X97035758Y-50081166D01*
X97077630Y-50025233D01*
X97143094Y-50000816D01*
X97151940Y-50000500D01*
X100968060Y-50000500D01*
X101035099Y-50020185D01*
X101080854Y-50072989D01*
X101090798Y-50142147D01*
X101061773Y-50205703D01*
X101055741Y-50212181D01*
X100970184Y-50297737D01*
X100874211Y-50450476D01*
X100814631Y-50620745D01*
X100814630Y-50620750D01*
X100794435Y-50799996D01*
X100794435Y-50800003D01*
X100814630Y-50979249D01*
X100814631Y-50979254D01*
X100874211Y-51149523D01*
X100970184Y-51302262D01*
X101097739Y-51429817D01*
X101126432Y-51447846D01*
X101172722Y-51500180D01*
X101183370Y-51569234D01*
X101156825Y-51630874D01*
X101002126Y-51821912D01*
X100790877Y-52147206D01*
X100614787Y-52492802D01*
X100475788Y-52854905D01*
X100375397Y-53229570D01*
X100375397Y-53229572D01*
X100314722Y-53612660D01*
X100294422Y-53999999D01*
X100294422Y-54000000D01*
X100314722Y-54387339D01*
X100332566Y-54500000D01*
X100375398Y-54770433D01*
X100462266Y-55094631D01*
X100475788Y-55145094D01*
X100614787Y-55507197D01*
X100790877Y-55852793D01*
X101002122Y-56178082D01*
X101062089Y-56252135D01*
X101246219Y-56479516D01*
X101520484Y-56753781D01*
X101528302Y-56760112D01*
X101821917Y-56997877D01*
X102143877Y-57206960D01*
X102147211Y-57209125D01*
X102492806Y-57385214D01*
X102854913Y-57524214D01*
X103229567Y-57624602D01*
X103612662Y-57685278D01*
X103978576Y-57704455D01*
X103999999Y-57705578D01*
X104000000Y-57705578D01*
X104000001Y-57705578D01*
X104020301Y-57704514D01*
X104387338Y-57685278D01*
X104770433Y-57624602D01*
X105145087Y-57524214D01*
X105507194Y-57385214D01*
X105852789Y-57209125D01*
X106178084Y-56997876D01*
X106479516Y-56753781D01*
X106753781Y-56479516D01*
X106997876Y-56178084D01*
X107209125Y-55852789D01*
X107385214Y-55507194D01*
X107524214Y-55145087D01*
X107624602Y-54770433D01*
X107685278Y-54387338D01*
X107705578Y-54000000D01*
X107697080Y-53837867D01*
X107713229Y-53769893D01*
X107763565Y-53721437D01*
X107832108Y-53707887D01*
X107897096Y-53733545D01*
X107937895Y-53790265D01*
X107943849Y-53815194D01*
X107981671Y-54102472D01*
X107982614Y-54113249D01*
X107999382Y-54497297D01*
X107999500Y-54502706D01*
X107999500Y-66401928D01*
X107979815Y-66468967D01*
X107927011Y-66514722D01*
X107857853Y-66524666D01*
X107834546Y-66518970D01*
X107679257Y-66464632D01*
X107679250Y-66464630D01*
X107545389Y-66449548D01*
X107480975Y-66422481D01*
X107441420Y-66364886D01*
X107439283Y-66295049D01*
X107442227Y-66285386D01*
X107465368Y-66219255D01*
X107469876Y-66179249D01*
X107485565Y-66040003D01*
X107485565Y-66039996D01*
X107465369Y-65860750D01*
X107465368Y-65860745D01*
X107426618Y-65750003D01*
X107405789Y-65690478D01*
X107398383Y-65678692D01*
X107330559Y-65570750D01*
X107309816Y-65537738D01*
X107182262Y-65410184D01*
X107166812Y-65400476D01*
X107029523Y-65314211D01*
X106859254Y-65254631D01*
X106859249Y-65254630D01*
X106680004Y-65234435D01*
X106679996Y-65234435D01*
X106500746Y-65254631D01*
X106500745Y-65254631D01*
X106489809Y-65258458D01*
X106420030Y-65262019D01*
X106361175Y-65229097D01*
X106252262Y-65120184D01*
X106099523Y-65024211D01*
X105929254Y-64964631D01*
X105929249Y-64964630D01*
X105750004Y-64944435D01*
X105749996Y-64944435D01*
X105570750Y-64964630D01*
X105570737Y-64964633D01*
X105400479Y-65024209D01*
X105315971Y-65077309D01*
X105248734Y-65096309D01*
X105184029Y-65077309D01*
X105099520Y-65024209D01*
X104929262Y-64964633D01*
X104929249Y-64964630D01*
X104750004Y-64944435D01*
X104749996Y-64944435D01*
X104570750Y-64964630D01*
X104570745Y-64964631D01*
X104400476Y-65024211D01*
X104247737Y-65120184D01*
X104120184Y-65247737D01*
X104024211Y-65400476D01*
X103964631Y-65570745D01*
X103964630Y-65570750D01*
X103944435Y-65749996D01*
X103944435Y-65750003D01*
X103964630Y-65929249D01*
X103964631Y-65929254D01*
X104024211Y-66099523D01*
X104099444Y-66219254D01*
X104120184Y-66252262D01*
X104247738Y-66379816D01*
X104315639Y-66422481D01*
X104382721Y-66464632D01*
X104400478Y-66475789D01*
X104570745Y-66535368D01*
X104570750Y-66535369D01*
X104691436Y-66548967D01*
X104755850Y-66576033D01*
X104795406Y-66633628D01*
X104797543Y-66703465D01*
X104765235Y-66759868D01*
X104686503Y-66838600D01*
X104550965Y-67032169D01*
X104550964Y-67032171D01*
X104451098Y-67246335D01*
X104451094Y-67246344D01*
X104389938Y-67474586D01*
X104389936Y-67474596D01*
X104369341Y-67709999D01*
X104369341Y-67710000D01*
X104389936Y-67945403D01*
X104389938Y-67945413D01*
X104451094Y-68173655D01*
X104451096Y-68173659D01*
X104451097Y-68173663D01*
X104550965Y-68387830D01*
X104550967Y-68387834D01*
X104686501Y-68581395D01*
X104686506Y-68581402D01*
X104808430Y-68703326D01*
X104841915Y-68764649D01*
X104836931Y-68834341D01*
X104795059Y-68890274D01*
X104764083Y-68907189D01*
X104632669Y-68956203D01*
X104632664Y-68956206D01*
X104517455Y-69042452D01*
X104517452Y-69042455D01*
X104431206Y-69157664D01*
X104431202Y-69157671D01*
X104380908Y-69292517D01*
X104374501Y-69352116D01*
X104374500Y-69352135D01*
X104374500Y-71147870D01*
X104374501Y-71147876D01*
X104380908Y-71207483D01*
X104431202Y-71342328D01*
X104431206Y-71342335D01*
X104517452Y-71457544D01*
X104517455Y-71457547D01*
X104632664Y-71543793D01*
X104632671Y-71543797D01*
X104767517Y-71594091D01*
X104767516Y-71594091D01*
X104774444Y-71594835D01*
X104827127Y-71600500D01*
X106622872Y-71600499D01*
X106682483Y-71594091D01*
X106817331Y-71543796D01*
X106932546Y-71457546D01*
X107018796Y-71342331D01*
X107069091Y-71207483D01*
X107075500Y-71147873D01*
X107075499Y-69374313D01*
X107095184Y-69307275D01*
X107147987Y-69261520D01*
X107217146Y-69251576D01*
X107240452Y-69257272D01*
X107264154Y-69265566D01*
X107320740Y-69285367D01*
X107320750Y-69285369D01*
X107499996Y-69305565D01*
X107500000Y-69305565D01*
X107500004Y-69305565D01*
X107679249Y-69285369D01*
X107679251Y-69285368D01*
X107679255Y-69285368D01*
X107679258Y-69285366D01*
X107679262Y-69285366D01*
X107834545Y-69231030D01*
X107904324Y-69227468D01*
X107964951Y-69262196D01*
X107997179Y-69324190D01*
X107999500Y-69348071D01*
X107999500Y-93497293D01*
X107999382Y-93502702D01*
X107982614Y-93886750D01*
X107981671Y-93897527D01*
X107943849Y-94184805D01*
X107915582Y-94248701D01*
X107857258Y-94287172D01*
X107787393Y-94288003D01*
X107728170Y-94250931D01*
X107698391Y-94187725D01*
X107697080Y-94162137D01*
X107705578Y-94000000D01*
X107685278Y-93612662D01*
X107624602Y-93229567D01*
X107524214Y-92854913D01*
X107385214Y-92492806D01*
X107209125Y-92147211D01*
X107158864Y-92069816D01*
X106997877Y-91821917D01*
X106753784Y-91520488D01*
X106753781Y-91520484D01*
X106479516Y-91246219D01*
X106178084Y-91002124D01*
X106178082Y-91002122D01*
X105852793Y-90790877D01*
X105507197Y-90614787D01*
X105145094Y-90475788D01*
X105145087Y-90475786D01*
X104770433Y-90375398D01*
X104770429Y-90375397D01*
X104770428Y-90375397D01*
X104387339Y-90314722D01*
X104000001Y-90294422D01*
X103999999Y-90294422D01*
X103612660Y-90314722D01*
X103229572Y-90375397D01*
X103229570Y-90375397D01*
X102854905Y-90475788D01*
X102492802Y-90614787D01*
X102147206Y-90790877D01*
X101821917Y-91002122D01*
X101520488Y-91246215D01*
X101520480Y-91246222D01*
X101246222Y-91520480D01*
X101246215Y-91520488D01*
X101002122Y-91821917D01*
X100790877Y-92147206D01*
X100614787Y-92492802D01*
X100475788Y-92854905D01*
X100375397Y-93229570D01*
X100375397Y-93229572D01*
X100314722Y-93612660D01*
X100294422Y-93999999D01*
X100294422Y-94000000D01*
X100314722Y-94387339D01*
X100375397Y-94770427D01*
X100375397Y-94770429D01*
X100475788Y-95145094D01*
X100614787Y-95507197D01*
X100790877Y-95852793D01*
X101002122Y-96178082D01*
X101115451Y-96318031D01*
X101246219Y-96479516D01*
X101520484Y-96753781D01*
X101520488Y-96753784D01*
X101821917Y-96997877D01*
X102111255Y-97185775D01*
X102147211Y-97209125D01*
X102492806Y-97385214D01*
X102854913Y-97524214D01*
X103229567Y-97624602D01*
X103612662Y-97685278D01*
X103978576Y-97704455D01*
X103999999Y-97705578D01*
X103999999Y-97705577D01*
X104000000Y-97705578D01*
X104162131Y-97697080D01*
X104230106Y-97713228D01*
X104278562Y-97763565D01*
X104292112Y-97832108D01*
X104266454Y-97897096D01*
X104209734Y-97937895D01*
X104184805Y-97943849D01*
X103897527Y-97981671D01*
X103886750Y-97982614D01*
X103569564Y-97996462D01*
X103553160Y-97997179D01*
X103502703Y-97999382D01*
X103497294Y-97999500D01*
X94348072Y-97999500D01*
X94281033Y-97979815D01*
X94235278Y-97927011D01*
X94225334Y-97857853D01*
X94231030Y-97834546D01*
X94276157Y-97705578D01*
X94285368Y-97679255D01*
X94291526Y-97624602D01*
X94305565Y-97500003D01*
X94305565Y-97499996D01*
X94285369Y-97320750D01*
X94285368Y-97320745D01*
X94225788Y-97150476D01*
X94129903Y-96997877D01*
X94129816Y-96997738D01*
X94002262Y-96870184D01*
X94001208Y-96869522D01*
X93849523Y-96774211D01*
X93679254Y-96714631D01*
X93679249Y-96714630D01*
X93500004Y-96694435D01*
X93499996Y-96694435D01*
X93320750Y-96714630D01*
X93320745Y-96714631D01*
X93150476Y-96774211D01*
X92997737Y-96870184D01*
X92870184Y-96997737D01*
X92774211Y-97150476D01*
X92714631Y-97320745D01*
X92714630Y-97320750D01*
X92694435Y-97499996D01*
X92694435Y-97500003D01*
X92714630Y-97679249D01*
X92714632Y-97679257D01*
X92768970Y-97834546D01*
X92772531Y-97904324D01*
X92737802Y-97964952D01*
X92675809Y-97997179D01*
X92651928Y-97999500D01*
X75916209Y-97999500D01*
X75849170Y-97979815D01*
X75803415Y-97927011D01*
X75792989Y-97861616D01*
X75805565Y-97750002D01*
X75805565Y-97749996D01*
X75785369Y-97570750D01*
X75785368Y-97570745D01*
X75725788Y-97400476D01*
X75678718Y-97325565D01*
X75629816Y-97247738D01*
X75502262Y-97120184D01*
X75469379Y-97099522D01*
X75349523Y-97024211D01*
X75179254Y-96964631D01*
X75179249Y-96964630D01*
X75000004Y-96944435D01*
X74999996Y-96944435D01*
X74820750Y-96964630D01*
X74820745Y-96964631D01*
X74650476Y-97024211D01*
X74497737Y-97120184D01*
X74370184Y-97247737D01*
X74274211Y-97400476D01*
X74214631Y-97570745D01*
X74214630Y-97570750D01*
X74194435Y-97749996D01*
X74194435Y-97750002D01*
X74207011Y-97861616D01*
X74194957Y-97930438D01*
X74147608Y-97981818D01*
X74083791Y-97999500D01*
X67002706Y-97999500D01*
X66997297Y-97999382D01*
X66946840Y-97997179D01*
X66869281Y-97993792D01*
X66613249Y-97982614D01*
X66602474Y-97981671D01*
X66564316Y-97976647D01*
X66315194Y-97943849D01*
X66251298Y-97915582D01*
X66212827Y-97857258D01*
X66211996Y-97787393D01*
X66249068Y-97728170D01*
X66312274Y-97698391D01*
X66337861Y-97697080D01*
X66500000Y-97705578D01*
X66887338Y-97685278D01*
X67270433Y-97624602D01*
X67645087Y-97524214D01*
X68007194Y-97385214D01*
X68352789Y-97209125D01*
X68678084Y-96997876D01*
X68979516Y-96753781D01*
X68983301Y-96749996D01*
X69694435Y-96749996D01*
X69694435Y-96750003D01*
X69714630Y-96929249D01*
X69714631Y-96929254D01*
X69774211Y-97099523D01*
X69828407Y-97185775D01*
X69870184Y-97252262D01*
X69997738Y-97379816D01*
X70150478Y-97475789D01*
X70219678Y-97500003D01*
X70320745Y-97535368D01*
X70320750Y-97535369D01*
X70499996Y-97555565D01*
X70500000Y-97555565D01*
X70500004Y-97555565D01*
X70679249Y-97535369D01*
X70679252Y-97535368D01*
X70679255Y-97535368D01*
X70849522Y-97475789D01*
X71002262Y-97379816D01*
X71129816Y-97252262D01*
X71225789Y-97099522D01*
X71285368Y-96929255D01*
X71292098Y-96869523D01*
X71305565Y-96750003D01*
X71305565Y-96749996D01*
X71285369Y-96570750D01*
X71285368Y-96570745D01*
X71267613Y-96520003D01*
X71267611Y-96519996D01*
X80474435Y-96519996D01*
X80474435Y-96520003D01*
X80494630Y-96699249D01*
X80494631Y-96699254D01*
X80554211Y-96869523D01*
X80634861Y-96997876D01*
X80650184Y-97022262D01*
X80777738Y-97149816D01*
X80930478Y-97245789D01*
X81100745Y-97305368D01*
X81100750Y-97305369D01*
X81279996Y-97325565D01*
X81280000Y-97325565D01*
X81280004Y-97325565D01*
X81459249Y-97305369D01*
X81459252Y-97305368D01*
X81459255Y-97305368D01*
X81629522Y-97245789D01*
X81782262Y-97149816D01*
X81909816Y-97022262D01*
X82005789Y-96869522D01*
X82065368Y-96699255D01*
X82065911Y-96694435D01*
X82085565Y-96520003D01*
X82085565Y-96519996D01*
X85554435Y-96519996D01*
X85554435Y-96520003D01*
X85574630Y-96699249D01*
X85574631Y-96699254D01*
X85634211Y-96869523D01*
X85714861Y-96997876D01*
X85730184Y-97022262D01*
X85857738Y-97149816D01*
X86010478Y-97245789D01*
X86180745Y-97305368D01*
X86180750Y-97305369D01*
X86359996Y-97325565D01*
X86360000Y-97325565D01*
X86360004Y-97325565D01*
X86539249Y-97305369D01*
X86539252Y-97305368D01*
X86539255Y-97305368D01*
X86709522Y-97245789D01*
X86862262Y-97149816D01*
X86989816Y-97022262D01*
X87085789Y-96869522D01*
X87145368Y-96699255D01*
X87145911Y-96694435D01*
X87165565Y-96520003D01*
X87165565Y-96519996D01*
X98254435Y-96519996D01*
X98254435Y-96520003D01*
X98274630Y-96699249D01*
X98274631Y-96699254D01*
X98334211Y-96869523D01*
X98414861Y-96997876D01*
X98430184Y-97022262D01*
X98557738Y-97149816D01*
X98710478Y-97245789D01*
X98880745Y-97305368D01*
X98880750Y-97305369D01*
X99059996Y-97325565D01*
X99060000Y-97325565D01*
X99060004Y-97325565D01*
X99239249Y-97305369D01*
X99239252Y-97305368D01*
X99239255Y-97305368D01*
X99409522Y-97245789D01*
X99562262Y-97149816D01*
X99689816Y-97022262D01*
X99785789Y-96869522D01*
X99845368Y-96699255D01*
X99845911Y-96694435D01*
X99865565Y-96520003D01*
X99865565Y-96519996D01*
X99845369Y-96340750D01*
X99845368Y-96340745D01*
X99788450Y-96178084D01*
X99785789Y-96170478D01*
X99689816Y-96017738D01*
X99562262Y-95890184D01*
X99502755Y-95852793D01*
X99409523Y-95794211D01*
X99239254Y-95734631D01*
X99239249Y-95734630D01*
X99060004Y-95714435D01*
X99059996Y-95714435D01*
X98880750Y-95734630D01*
X98880745Y-95734631D01*
X98710476Y-95794211D01*
X98557737Y-95890184D01*
X98430184Y-96017737D01*
X98334211Y-96170476D01*
X98274631Y-96340745D01*
X98274630Y-96340750D01*
X98254435Y-96519996D01*
X87165565Y-96519996D01*
X87145369Y-96340750D01*
X87145368Y-96340745D01*
X87088450Y-96178084D01*
X87085789Y-96170478D01*
X86989816Y-96017738D01*
X86862262Y-95890184D01*
X86802755Y-95852793D01*
X86709523Y-95794211D01*
X86539254Y-95734631D01*
X86539249Y-95734630D01*
X86360004Y-95714435D01*
X86359996Y-95714435D01*
X86180750Y-95734630D01*
X86180745Y-95734631D01*
X86010476Y-95794211D01*
X85857737Y-95890184D01*
X85730184Y-96017737D01*
X85634211Y-96170476D01*
X85574631Y-96340745D01*
X85574630Y-96340750D01*
X85554435Y-96519996D01*
X82085565Y-96519996D01*
X82065369Y-96340750D01*
X82065368Y-96340745D01*
X82008450Y-96178084D01*
X82005789Y-96170478D01*
X81909816Y-96017738D01*
X81782262Y-95890184D01*
X81722755Y-95852793D01*
X81629523Y-95794211D01*
X81459254Y-95734631D01*
X81459249Y-95734630D01*
X81280004Y-95714435D01*
X81279996Y-95714435D01*
X81100750Y-95734630D01*
X81100745Y-95734631D01*
X80930476Y-95794211D01*
X80777737Y-95890184D01*
X80650184Y-96017737D01*
X80554211Y-96170476D01*
X80494631Y-96340745D01*
X80494630Y-96340750D01*
X80474435Y-96519996D01*
X71267611Y-96519996D01*
X71225789Y-96400478D01*
X71129816Y-96247738D01*
X71002262Y-96120184D01*
X70939594Y-96080807D01*
X70849523Y-96024211D01*
X70679254Y-95964631D01*
X70679249Y-95964630D01*
X70500004Y-95944435D01*
X70499996Y-95944435D01*
X70320750Y-95964630D01*
X70320745Y-95964631D01*
X70150476Y-96024211D01*
X69997737Y-96120184D01*
X69870184Y-96247737D01*
X69774211Y-96400476D01*
X69714631Y-96570745D01*
X69714630Y-96570750D01*
X69694435Y-96749996D01*
X68983301Y-96749996D01*
X69253781Y-96479516D01*
X69497876Y-96178084D01*
X69709125Y-95852789D01*
X69885214Y-95507194D01*
X70024214Y-95145087D01*
X70124602Y-94770433D01*
X70185278Y-94387338D01*
X70205578Y-94000000D01*
X70185278Y-93612662D01*
X70124602Y-93229567D01*
X70063089Y-92999996D01*
X97194435Y-92999996D01*
X97194435Y-93000003D01*
X97214630Y-93179249D01*
X97214631Y-93179254D01*
X97274211Y-93349523D01*
X97327360Y-93434108D01*
X97370184Y-93502262D01*
X97497738Y-93629816D01*
X97650478Y-93725789D01*
X97820745Y-93785368D01*
X97820750Y-93785369D01*
X97999996Y-93805565D01*
X98000000Y-93805565D01*
X98000004Y-93805565D01*
X98179249Y-93785369D01*
X98179252Y-93785368D01*
X98179255Y-93785368D01*
X98349522Y-93725789D01*
X98502262Y-93629816D01*
X98629816Y-93502262D01*
X98725789Y-93349522D01*
X98785368Y-93179255D01*
X98805565Y-93000000D01*
X98785368Y-92820745D01*
X98725789Y-92650478D01*
X98629816Y-92497738D01*
X98502262Y-92370184D01*
X98349523Y-92274211D01*
X98179254Y-92214631D01*
X98179249Y-92214630D01*
X98000004Y-92194435D01*
X97999996Y-92194435D01*
X97820750Y-92214630D01*
X97820745Y-92214631D01*
X97650476Y-92274211D01*
X97497737Y-92370184D01*
X97370184Y-92497737D01*
X97274211Y-92650476D01*
X97214631Y-92820745D01*
X97214630Y-92820750D01*
X97194435Y-92999996D01*
X70063089Y-92999996D01*
X70024214Y-92854913D01*
X69885214Y-92492806D01*
X69709125Y-92147211D01*
X69658864Y-92069816D01*
X69497877Y-91821917D01*
X69253784Y-91520488D01*
X69253781Y-91520484D01*
X69173293Y-91439996D01*
X70314435Y-91439996D01*
X70314435Y-91440003D01*
X70334630Y-91619249D01*
X70334631Y-91619254D01*
X70394211Y-91789523D01*
X70414566Y-91821917D01*
X70490184Y-91942262D01*
X70617738Y-92069816D01*
X70770478Y-92165789D01*
X70910063Y-92214632D01*
X70940745Y-92225368D01*
X70940750Y-92225369D01*
X71119996Y-92245565D01*
X71120000Y-92245565D01*
X71120004Y-92245565D01*
X71299249Y-92225369D01*
X71299252Y-92225368D01*
X71299255Y-92225368D01*
X71469522Y-92165789D01*
X71622262Y-92069816D01*
X71749816Y-91942262D01*
X71845789Y-91789522D01*
X71905368Y-91619255D01*
X71905369Y-91619249D01*
X71925565Y-91440003D01*
X71925565Y-91439996D01*
X80474435Y-91439996D01*
X80474435Y-91440003D01*
X80494630Y-91619249D01*
X80494631Y-91619254D01*
X80554211Y-91789523D01*
X80574566Y-91821917D01*
X80650184Y-91942262D01*
X80777738Y-92069816D01*
X80930478Y-92165789D01*
X81070063Y-92214632D01*
X81100745Y-92225368D01*
X81100750Y-92225369D01*
X81279996Y-92245565D01*
X81280000Y-92245565D01*
X81280004Y-92245565D01*
X81459249Y-92225369D01*
X81459252Y-92225368D01*
X81459255Y-92225368D01*
X81629522Y-92165789D01*
X81782262Y-92069816D01*
X81909816Y-91942262D01*
X82005789Y-91789522D01*
X82065368Y-91619255D01*
X82065369Y-91619249D01*
X82085565Y-91440003D01*
X82085565Y-91439996D01*
X85554435Y-91439996D01*
X85554435Y-91440003D01*
X85574630Y-91619249D01*
X85574631Y-91619254D01*
X85634211Y-91789523D01*
X85654566Y-91821917D01*
X85730184Y-91942262D01*
X85857738Y-92069816D01*
X86010478Y-92165789D01*
X86150063Y-92214632D01*
X86180745Y-92225368D01*
X86180750Y-92225369D01*
X86359996Y-92245565D01*
X86360000Y-92245565D01*
X86360004Y-92245565D01*
X86539249Y-92225369D01*
X86539252Y-92225368D01*
X86539255Y-92225368D01*
X86709522Y-92165789D01*
X86862262Y-92069816D01*
X86989816Y-91942262D01*
X87085789Y-91789522D01*
X87145368Y-91619255D01*
X87145369Y-91619249D01*
X87165565Y-91440003D01*
X87165565Y-91439996D01*
X98254435Y-91439996D01*
X98254435Y-91440003D01*
X98274630Y-91619249D01*
X98274631Y-91619254D01*
X98334211Y-91789523D01*
X98354566Y-91821917D01*
X98430184Y-91942262D01*
X98557738Y-92069816D01*
X98710478Y-92165789D01*
X98850063Y-92214632D01*
X98880745Y-92225368D01*
X98880750Y-92225369D01*
X99059996Y-92245565D01*
X99060000Y-92245565D01*
X99060004Y-92245565D01*
X99239249Y-92225369D01*
X99239252Y-92225368D01*
X99239255Y-92225368D01*
X99409522Y-92165789D01*
X99562262Y-92069816D01*
X99689816Y-91942262D01*
X99785789Y-91789522D01*
X99845368Y-91619255D01*
X99845369Y-91619249D01*
X99865565Y-91440003D01*
X99865565Y-91439996D01*
X99845369Y-91260750D01*
X99845368Y-91260745D01*
X99785788Y-91090476D01*
X99689815Y-90937737D01*
X99562262Y-90810184D01*
X99409523Y-90714211D01*
X99239254Y-90654631D01*
X99239249Y-90654630D01*
X99060004Y-90634435D01*
X99059996Y-90634435D01*
X98880750Y-90654630D01*
X98880745Y-90654631D01*
X98710476Y-90714211D01*
X98557737Y-90810184D01*
X98430184Y-90937737D01*
X98334211Y-91090476D01*
X98274631Y-91260745D01*
X98274630Y-91260750D01*
X98254435Y-91439996D01*
X87165565Y-91439996D01*
X87145369Y-91260750D01*
X87145368Y-91260745D01*
X87085788Y-91090476D01*
X86989815Y-90937737D01*
X86862262Y-90810184D01*
X86709523Y-90714211D01*
X86539254Y-90654631D01*
X86539249Y-90654630D01*
X86360004Y-90634435D01*
X86359996Y-90634435D01*
X86180750Y-90654630D01*
X86180745Y-90654631D01*
X86010476Y-90714211D01*
X85857737Y-90810184D01*
X85730184Y-90937737D01*
X85634211Y-91090476D01*
X85574631Y-91260745D01*
X85574630Y-91260750D01*
X85554435Y-91439996D01*
X82085565Y-91439996D01*
X82065369Y-91260750D01*
X82065368Y-91260745D01*
X82005788Y-91090476D01*
X81909815Y-90937737D01*
X81782262Y-90810184D01*
X81629523Y-90714211D01*
X81459254Y-90654631D01*
X81459249Y-90654630D01*
X81280004Y-90634435D01*
X81279996Y-90634435D01*
X81100750Y-90654630D01*
X81100745Y-90654631D01*
X80930476Y-90714211D01*
X80777737Y-90810184D01*
X80650184Y-90937737D01*
X80554211Y-91090476D01*
X80494631Y-91260745D01*
X80494630Y-91260750D01*
X80474435Y-91439996D01*
X71925565Y-91439996D01*
X71905369Y-91260750D01*
X71905368Y-91260745D01*
X71845788Y-91090476D01*
X71749815Y-90937737D01*
X71622262Y-90810184D01*
X71469523Y-90714211D01*
X71299254Y-90654631D01*
X71299249Y-90654630D01*
X71120004Y-90634435D01*
X71119996Y-90634435D01*
X70940750Y-90654630D01*
X70940745Y-90654631D01*
X70770476Y-90714211D01*
X70617737Y-90810184D01*
X70490184Y-90937737D01*
X70394211Y-91090476D01*
X70334631Y-91260745D01*
X70334630Y-91260750D01*
X70314435Y-91439996D01*
X69173293Y-91439996D01*
X68979516Y-91246219D01*
X68678084Y-91002124D01*
X68678082Y-91002122D01*
X68352793Y-90790877D01*
X68007197Y-90614787D01*
X67645094Y-90475788D01*
X67645087Y-90475786D01*
X67270433Y-90375398D01*
X67270429Y-90375397D01*
X67270428Y-90375397D01*
X66887339Y-90314722D01*
X66500001Y-90294422D01*
X66499999Y-90294422D01*
X66112660Y-90314722D01*
X65729572Y-90375397D01*
X65729570Y-90375397D01*
X65354905Y-90475788D01*
X64992802Y-90614787D01*
X64647206Y-90790877D01*
X64321917Y-91002122D01*
X64020488Y-91246215D01*
X64020480Y-91246222D01*
X63746222Y-91520480D01*
X63746215Y-91520488D01*
X63502122Y-91821917D01*
X63290877Y-92147206D01*
X63114787Y-92492802D01*
X62975788Y-92854905D01*
X62875397Y-93229570D01*
X62875397Y-93229572D01*
X62814722Y-93612660D01*
X62794422Y-93999999D01*
X62794422Y-94000000D01*
X62802919Y-94162129D01*
X62786770Y-94230107D01*
X62736433Y-94278563D01*
X62667890Y-94292112D01*
X62602902Y-94266453D01*
X62562103Y-94209733D01*
X62556150Y-94184805D01*
X62553165Y-94162129D01*
X62518326Y-93897504D01*
X62517386Y-93886771D01*
X62500618Y-93502702D01*
X62500500Y-93497293D01*
X62500500Y-88899996D01*
X98254435Y-88899996D01*
X98254435Y-88900003D01*
X98274630Y-89079249D01*
X98274631Y-89079254D01*
X98334211Y-89249523D01*
X98430184Y-89402262D01*
X98557738Y-89529816D01*
X98710478Y-89625789D01*
X98880745Y-89685368D01*
X98880750Y-89685369D01*
X99059996Y-89705565D01*
X99060000Y-89705565D01*
X99060004Y-89705565D01*
X99239249Y-89685369D01*
X99239252Y-89685368D01*
X99239255Y-89685368D01*
X99409522Y-89625789D01*
X99562262Y-89529816D01*
X99689816Y-89402262D01*
X99785789Y-89249522D01*
X99845368Y-89079255D01*
X99865565Y-88900000D01*
X99865565Y-88899996D01*
X100794435Y-88899996D01*
X100794435Y-88900003D01*
X100814630Y-89079249D01*
X100814631Y-89079254D01*
X100874211Y-89249523D01*
X100970184Y-89402262D01*
X101097738Y-89529816D01*
X101250478Y-89625789D01*
X101420745Y-89685368D01*
X101420750Y-89685369D01*
X101599996Y-89705565D01*
X101600000Y-89705565D01*
X101600004Y-89705565D01*
X101779249Y-89685369D01*
X101779252Y-89685368D01*
X101779255Y-89685368D01*
X101949522Y-89625789D01*
X102102262Y-89529816D01*
X102229816Y-89402262D01*
X102325789Y-89249522D01*
X102385368Y-89079255D01*
X102405565Y-88900000D01*
X102405565Y-88899996D01*
X103334435Y-88899996D01*
X103334435Y-88900003D01*
X103354630Y-89079249D01*
X103354631Y-89079254D01*
X103414211Y-89249523D01*
X103510184Y-89402262D01*
X103637738Y-89529816D01*
X103790478Y-89625789D01*
X103960745Y-89685368D01*
X103960750Y-89685369D01*
X104139996Y-89705565D01*
X104140000Y-89705565D01*
X104140004Y-89705565D01*
X104319249Y-89685369D01*
X104319252Y-89685368D01*
X104319255Y-89685368D01*
X104489522Y-89625789D01*
X104642262Y-89529816D01*
X104769816Y-89402262D01*
X104865789Y-89249522D01*
X104925368Y-89079255D01*
X104945565Y-88900000D01*
X104945565Y-88899996D01*
X105874435Y-88899996D01*
X105874435Y-88900003D01*
X105894630Y-89079249D01*
X105894631Y-89079254D01*
X105954211Y-89249523D01*
X106050184Y-89402262D01*
X106177738Y-89529816D01*
X106330478Y-89625789D01*
X106500745Y-89685368D01*
X106500750Y-89685369D01*
X106679996Y-89705565D01*
X106680000Y-89705565D01*
X106680004Y-89705565D01*
X106859249Y-89685369D01*
X106859252Y-89685368D01*
X106859255Y-89685368D01*
X107029522Y-89625789D01*
X107182262Y-89529816D01*
X107309816Y-89402262D01*
X107405789Y-89249522D01*
X107465368Y-89079255D01*
X107485565Y-88900000D01*
X107465368Y-88720745D01*
X107405789Y-88550478D01*
X107309816Y-88397738D01*
X107182262Y-88270184D01*
X107029523Y-88174211D01*
X106859254Y-88114631D01*
X106859249Y-88114630D01*
X106680004Y-88094435D01*
X106679996Y-88094435D01*
X106500750Y-88114630D01*
X106500745Y-88114631D01*
X106330476Y-88174211D01*
X106177737Y-88270184D01*
X106050184Y-88397737D01*
X105954211Y-88550476D01*
X105894631Y-88720745D01*
X105894630Y-88720750D01*
X105874435Y-88899996D01*
X104945565Y-88899996D01*
X104925368Y-88720745D01*
X104865789Y-88550478D01*
X104769816Y-88397738D01*
X104642262Y-88270184D01*
X104489523Y-88174211D01*
X104319254Y-88114631D01*
X104319249Y-88114630D01*
X104140004Y-88094435D01*
X104139996Y-88094435D01*
X103960750Y-88114630D01*
X103960745Y-88114631D01*
X103790476Y-88174211D01*
X103637737Y-88270184D01*
X103510184Y-88397737D01*
X103414211Y-88550476D01*
X103354631Y-88720745D01*
X103354630Y-88720750D01*
X103334435Y-88899996D01*
X102405565Y-88899996D01*
X102385368Y-88720745D01*
X102325789Y-88550478D01*
X102229816Y-88397738D01*
X102102262Y-88270184D01*
X101949523Y-88174211D01*
X101779254Y-88114631D01*
X101779249Y-88114630D01*
X101600004Y-88094435D01*
X101599996Y-88094435D01*
X101420750Y-88114630D01*
X101420745Y-88114631D01*
X101250476Y-88174211D01*
X101097737Y-88270184D01*
X100970184Y-88397737D01*
X100874211Y-88550476D01*
X100814631Y-88720745D01*
X100814630Y-88720750D01*
X100794435Y-88899996D01*
X99865565Y-88899996D01*
X99845368Y-88720745D01*
X99785789Y-88550478D01*
X99689816Y-88397738D01*
X99562262Y-88270184D01*
X99409523Y-88174211D01*
X99239254Y-88114631D01*
X99239249Y-88114630D01*
X99060004Y-88094435D01*
X99059996Y-88094435D01*
X98880750Y-88114630D01*
X98880745Y-88114631D01*
X98710476Y-88174211D01*
X98557737Y-88270184D01*
X98430184Y-88397737D01*
X98334211Y-88550476D01*
X98274631Y-88720745D01*
X98274630Y-88720750D01*
X98254435Y-88899996D01*
X62500500Y-88899996D01*
X62500500Y-80459999D01*
X65144341Y-80459999D01*
X65144341Y-80460000D01*
X65164936Y-80695403D01*
X65164938Y-80695413D01*
X65226094Y-80923655D01*
X65226096Y-80923659D01*
X65226097Y-80923663D01*
X65308672Y-81100745D01*
X65325965Y-81137830D01*
X65325967Y-81137834D01*
X65461501Y-81331395D01*
X65461506Y-81331402D01*
X65628597Y-81498493D01*
X65628603Y-81498498D01*
X65814158Y-81628425D01*
X65857783Y-81683002D01*
X65864977Y-81752500D01*
X65833454Y-81814855D01*
X65814158Y-81831575D01*
X65628597Y-81961505D01*
X65461505Y-82128597D01*
X65325965Y-82322169D01*
X65325964Y-82322171D01*
X65226098Y-82536335D01*
X65226094Y-82536344D01*
X65164938Y-82764586D01*
X65164936Y-82764596D01*
X65144341Y-82999999D01*
X65144341Y-83000000D01*
X65164936Y-83235403D01*
X65164938Y-83235413D01*
X65226094Y-83463655D01*
X65226096Y-83463659D01*
X65226097Y-83463663D01*
X65243043Y-83500003D01*
X65325965Y-83677830D01*
X65325967Y-83677834D01*
X65461501Y-83871395D01*
X65461506Y-83871402D01*
X65628597Y-84038493D01*
X65628603Y-84038498D01*
X65814158Y-84168425D01*
X65857783Y-84223002D01*
X65864977Y-84292500D01*
X65833454Y-84354855D01*
X65814158Y-84371575D01*
X65628597Y-84501505D01*
X65461505Y-84668597D01*
X65325965Y-84862169D01*
X65325964Y-84862171D01*
X65226098Y-85076335D01*
X65226094Y-85076344D01*
X65164938Y-85304586D01*
X65164936Y-85304596D01*
X65144341Y-85539999D01*
X65144341Y-85540000D01*
X65164936Y-85775403D01*
X65164938Y-85775413D01*
X65226094Y-86003655D01*
X65226096Y-86003659D01*
X65226097Y-86003663D01*
X65229274Y-86010476D01*
X65325965Y-86217830D01*
X65325967Y-86217834D01*
X65425511Y-86359996D01*
X65461505Y-86411401D01*
X65628599Y-86578495D01*
X65725384Y-86646265D01*
X65822165Y-86714032D01*
X65822167Y-86714033D01*
X65822170Y-86714035D01*
X66036337Y-86813903D01*
X66264592Y-86875063D01*
X66452918Y-86891539D01*
X66499999Y-86895659D01*
X66500000Y-86895659D01*
X66500001Y-86895659D01*
X66539234Y-86892226D01*
X66735408Y-86875063D01*
X66963663Y-86813903D01*
X67177830Y-86714035D01*
X67371401Y-86578495D01*
X67538495Y-86411401D01*
X67574489Y-86359996D01*
X70314435Y-86359996D01*
X70314435Y-86360003D01*
X70334630Y-86539249D01*
X70334631Y-86539254D01*
X70394211Y-86709523D01*
X70459797Y-86813901D01*
X70490184Y-86862262D01*
X70617738Y-86989816D01*
X70770478Y-87085789D01*
X70940745Y-87145368D01*
X70940750Y-87145369D01*
X71119996Y-87165565D01*
X71120000Y-87165565D01*
X71120004Y-87165565D01*
X71299249Y-87145369D01*
X71299252Y-87145368D01*
X71299255Y-87145368D01*
X71469522Y-87085789D01*
X71622262Y-86989816D01*
X71749816Y-86862262D01*
X71845789Y-86709522D01*
X71905368Y-86539255D01*
X71905369Y-86539249D01*
X71925565Y-86360003D01*
X71925565Y-86359996D01*
X80474435Y-86359996D01*
X80474435Y-86360003D01*
X80494630Y-86539249D01*
X80494631Y-86539254D01*
X80554211Y-86709523D01*
X80619797Y-86813901D01*
X80650184Y-86862262D01*
X80777738Y-86989816D01*
X80930478Y-87085789D01*
X81100745Y-87145368D01*
X81100750Y-87145369D01*
X81279996Y-87165565D01*
X81280000Y-87165565D01*
X81280004Y-87165565D01*
X81459249Y-87145369D01*
X81459252Y-87145368D01*
X81459255Y-87145368D01*
X81629522Y-87085789D01*
X81782262Y-86989816D01*
X81909816Y-86862262D01*
X82005789Y-86709522D01*
X82065368Y-86539255D01*
X82065369Y-86539249D01*
X82085565Y-86360003D01*
X82085565Y-86359996D01*
X85554435Y-86359996D01*
X85554435Y-86360003D01*
X85574630Y-86539249D01*
X85574631Y-86539254D01*
X85634211Y-86709523D01*
X85699797Y-86813901D01*
X85730184Y-86862262D01*
X85857738Y-86989816D01*
X86010478Y-87085789D01*
X86180745Y-87145368D01*
X86180750Y-87145369D01*
X86359996Y-87165565D01*
X86360000Y-87165565D01*
X86360004Y-87165565D01*
X86539249Y-87145369D01*
X86539252Y-87145368D01*
X86539255Y-87145368D01*
X86709522Y-87085789D01*
X86862262Y-86989816D01*
X86989816Y-86862262D01*
X87085789Y-86709522D01*
X87145368Y-86539255D01*
X87145369Y-86539249D01*
X87165565Y-86360003D01*
X87165565Y-86359996D01*
X87145369Y-86180750D01*
X87145368Y-86180745D01*
X87085788Y-86010476D01*
X86989815Y-85857737D01*
X86862262Y-85730184D01*
X86709523Y-85634211D01*
X86539254Y-85574631D01*
X86539249Y-85574630D01*
X86360004Y-85554435D01*
X86359996Y-85554435D01*
X86180750Y-85574630D01*
X86180745Y-85574631D01*
X86010476Y-85634211D01*
X85857737Y-85730184D01*
X85730184Y-85857737D01*
X85634211Y-86010476D01*
X85574631Y-86180745D01*
X85574630Y-86180750D01*
X85554435Y-86359996D01*
X82085565Y-86359996D01*
X82065369Y-86180750D01*
X82065368Y-86180745D01*
X82005788Y-86010476D01*
X81909815Y-85857737D01*
X81782262Y-85730184D01*
X81629523Y-85634211D01*
X81459254Y-85574631D01*
X81459249Y-85574630D01*
X81280004Y-85554435D01*
X81279996Y-85554435D01*
X81100750Y-85574630D01*
X81100745Y-85574631D01*
X80930476Y-85634211D01*
X80777737Y-85730184D01*
X80650184Y-85857737D01*
X80554211Y-86010476D01*
X80494631Y-86180745D01*
X80494630Y-86180750D01*
X80474435Y-86359996D01*
X71925565Y-86359996D01*
X71905369Y-86180750D01*
X71905368Y-86180745D01*
X71845788Y-86010476D01*
X71749815Y-85857737D01*
X71622262Y-85730184D01*
X71469523Y-85634211D01*
X71299254Y-85574631D01*
X71299249Y-85574630D01*
X71120004Y-85554435D01*
X71119996Y-85554435D01*
X70940750Y-85574630D01*
X70940745Y-85574631D01*
X70770476Y-85634211D01*
X70617737Y-85730184D01*
X70490184Y-85857737D01*
X70394211Y-86010476D01*
X70334631Y-86180745D01*
X70334630Y-86180750D01*
X70314435Y-86359996D01*
X67574489Y-86359996D01*
X67674035Y-86217830D01*
X67773903Y-86003663D01*
X67835063Y-85775408D01*
X67855659Y-85540000D01*
X67835063Y-85304592D01*
X67773903Y-85076337D01*
X67674035Y-84862171D01*
X67538495Y-84668599D01*
X67538494Y-84668597D01*
X67371402Y-84501506D01*
X67371396Y-84501501D01*
X67185842Y-84371575D01*
X67142217Y-84316998D01*
X67135023Y-84247500D01*
X67166546Y-84185145D01*
X67185842Y-84168425D01*
X67240983Y-84129815D01*
X67371401Y-84038495D01*
X67538495Y-83871401D01*
X67674035Y-83677830D01*
X67756961Y-83499996D01*
X96444435Y-83499996D01*
X96444435Y-83500003D01*
X96464630Y-83679249D01*
X96464631Y-83679254D01*
X96524211Y-83849523D01*
X96537959Y-83871402D01*
X96620184Y-84002262D01*
X96747738Y-84129816D01*
X96809184Y-84168425D01*
X96896042Y-84223002D01*
X96900478Y-84225789D01*
X97026826Y-84270000D01*
X97070745Y-84285368D01*
X97070750Y-84285369D01*
X97249996Y-84305565D01*
X97250000Y-84305565D01*
X97250004Y-84305565D01*
X97429249Y-84285369D01*
X97429252Y-84285368D01*
X97429255Y-84285368D01*
X97599522Y-84225789D01*
X97752262Y-84129816D01*
X97879816Y-84002262D01*
X97975789Y-83849522D01*
X98035368Y-83679255D01*
X98055565Y-83500000D01*
X98035368Y-83320745D01*
X97975789Y-83150478D01*
X97879816Y-82997738D01*
X97752262Y-82870184D01*
X97599523Y-82774211D01*
X97429254Y-82714631D01*
X97429249Y-82714630D01*
X97250004Y-82694435D01*
X97249996Y-82694435D01*
X97070750Y-82714630D01*
X97070745Y-82714631D01*
X96900476Y-82774211D01*
X96747737Y-82870184D01*
X96620184Y-82997737D01*
X96524211Y-83150476D01*
X96464631Y-83320745D01*
X96464630Y-83320750D01*
X96444435Y-83499996D01*
X67756961Y-83499996D01*
X67773903Y-83463663D01*
X67835063Y-83235408D01*
X67855659Y-83000000D01*
X67835063Y-82764592D01*
X67773903Y-82536337D01*
X67674035Y-82322171D01*
X67538495Y-82128599D01*
X67538494Y-82128597D01*
X67371402Y-81961506D01*
X67371396Y-81961501D01*
X67185842Y-81831575D01*
X67142217Y-81776998D01*
X67135023Y-81707500D01*
X67166546Y-81645145D01*
X67185842Y-81628425D01*
X67208026Y-81612891D01*
X67371401Y-81498495D01*
X67538495Y-81331401D01*
X67574489Y-81279996D01*
X70314435Y-81279996D01*
X70314435Y-81280003D01*
X70334630Y-81459249D01*
X70334631Y-81459254D01*
X70394211Y-81629523D01*
X70471483Y-81752500D01*
X70490184Y-81782262D01*
X70617738Y-81909816D01*
X70770478Y-82005789D01*
X70940745Y-82065368D01*
X70940750Y-82065369D01*
X71119996Y-82085565D01*
X71120000Y-82085565D01*
X71120004Y-82085565D01*
X71299249Y-82065369D01*
X71299252Y-82065368D01*
X71299255Y-82065368D01*
X71469522Y-82005789D01*
X71622262Y-81909816D01*
X71749816Y-81782262D01*
X71845789Y-81629522D01*
X71905368Y-81459255D01*
X71905369Y-81459249D01*
X71925565Y-81280003D01*
X71925565Y-81279996D01*
X80474435Y-81279996D01*
X80474435Y-81280003D01*
X80494630Y-81459249D01*
X80494631Y-81459254D01*
X80554211Y-81629523D01*
X80631483Y-81752500D01*
X80650184Y-81782262D01*
X80777738Y-81909816D01*
X80930478Y-82005789D01*
X81100745Y-82065368D01*
X81100750Y-82065369D01*
X81279996Y-82085565D01*
X81280000Y-82085565D01*
X81280004Y-82085565D01*
X81459249Y-82065369D01*
X81459252Y-82065368D01*
X81459255Y-82065368D01*
X81629522Y-82005789D01*
X81782262Y-81909816D01*
X81909816Y-81782262D01*
X82005789Y-81629522D01*
X82065368Y-81459255D01*
X82065369Y-81459249D01*
X82085565Y-81280003D01*
X82085565Y-81279996D01*
X85554435Y-81279996D01*
X85554435Y-81280003D01*
X85574630Y-81459249D01*
X85574631Y-81459254D01*
X85634211Y-81629523D01*
X85711483Y-81752500D01*
X85730184Y-81782262D01*
X85857738Y-81909816D01*
X86010478Y-82005789D01*
X86180745Y-82065368D01*
X86180750Y-82065369D01*
X86359996Y-82085565D01*
X86360000Y-82085565D01*
X86360004Y-82085565D01*
X86539249Y-82065369D01*
X86539252Y-82065368D01*
X86539255Y-82065368D01*
X86709522Y-82005789D01*
X86862262Y-81909816D01*
X86989816Y-81782262D01*
X87085789Y-81629522D01*
X87145368Y-81459255D01*
X87145369Y-81459249D01*
X87165565Y-81280003D01*
X87165565Y-81279996D01*
X87145369Y-81100750D01*
X87145368Y-81100745D01*
X87085788Y-80930476D01*
X87046582Y-80868080D01*
X86989816Y-80777738D01*
X86862262Y-80650184D01*
X86709523Y-80554211D01*
X86554586Y-80499996D01*
X96944435Y-80499996D01*
X96944435Y-80500003D01*
X96964630Y-80679249D01*
X96964631Y-80679254D01*
X97024211Y-80849523D01*
X97075078Y-80930476D01*
X97120184Y-81002262D01*
X97247738Y-81129816D01*
X97400478Y-81225789D01*
X97555393Y-81279996D01*
X97570745Y-81285368D01*
X97570750Y-81285369D01*
X97749996Y-81305565D01*
X97750000Y-81305565D01*
X97750004Y-81305565D01*
X97929249Y-81285369D01*
X97929252Y-81285368D01*
X97929255Y-81285368D01*
X98099522Y-81225789D01*
X98252262Y-81129816D01*
X98379816Y-81002262D01*
X98475789Y-80849522D01*
X98535368Y-80679255D01*
X98535369Y-80679249D01*
X98555565Y-80500003D01*
X98555565Y-80499996D01*
X99444435Y-80499996D01*
X99444435Y-80500003D01*
X99464630Y-80679249D01*
X99464631Y-80679254D01*
X99524211Y-80849523D01*
X99575078Y-80930476D01*
X99620184Y-81002262D01*
X99747738Y-81129816D01*
X99900478Y-81225789D01*
X100055393Y-81279996D01*
X100070745Y-81285368D01*
X100070750Y-81285369D01*
X100249996Y-81305565D01*
X100250000Y-81305565D01*
X100250004Y-81305565D01*
X100429249Y-81285369D01*
X100429252Y-81285368D01*
X100429255Y-81285368D01*
X100599522Y-81225789D01*
X100752262Y-81129816D01*
X100879816Y-81002262D01*
X100975789Y-80849522D01*
X101035368Y-80679255D01*
X101035369Y-80679249D01*
X101055565Y-80500003D01*
X101055565Y-80499996D01*
X102194435Y-80499996D01*
X102194435Y-80500003D01*
X102214630Y-80679249D01*
X102214631Y-80679254D01*
X102274211Y-80849523D01*
X102325078Y-80930476D01*
X102370184Y-81002262D01*
X102497738Y-81129816D01*
X102650478Y-81225789D01*
X102805393Y-81279996D01*
X102820745Y-81285368D01*
X102820750Y-81285369D01*
X102999996Y-81305565D01*
X103000000Y-81305565D01*
X103000004Y-81305565D01*
X103179249Y-81285369D01*
X103179252Y-81285368D01*
X103179255Y-81285368D01*
X103349522Y-81225789D01*
X103502262Y-81129816D01*
X103629816Y-81002262D01*
X103725789Y-80849522D01*
X103785368Y-80679255D01*
X103785369Y-80679249D01*
X103805565Y-80500003D01*
X103805565Y-80499996D01*
X103785369Y-80320750D01*
X103785368Y-80320745D01*
X103751724Y-80224596D01*
X103725789Y-80150478D01*
X103629816Y-79997738D01*
X103502262Y-79870184D01*
X103349523Y-79774211D01*
X103179254Y-79714631D01*
X103179249Y-79714630D01*
X103000004Y-79694435D01*
X102999996Y-79694435D01*
X102820750Y-79714630D01*
X102820745Y-79714631D01*
X102650476Y-79774211D01*
X102497737Y-79870184D01*
X102370184Y-79997737D01*
X102274211Y-80150476D01*
X102214631Y-80320745D01*
X102214630Y-80320750D01*
X102194435Y-80499996D01*
X101055565Y-80499996D01*
X101035369Y-80320750D01*
X101035368Y-80320745D01*
X101001724Y-80224596D01*
X100975789Y-80150478D01*
X100879816Y-79997738D01*
X100752262Y-79870184D01*
X100599523Y-79774211D01*
X100429254Y-79714631D01*
X100429249Y-79714630D01*
X100250004Y-79694435D01*
X100249996Y-79694435D01*
X100070750Y-79714630D01*
X100070745Y-79714631D01*
X99900476Y-79774211D01*
X99747737Y-79870184D01*
X99620184Y-79997737D01*
X99524211Y-80150476D01*
X99464631Y-80320745D01*
X99464630Y-80320750D01*
X99444435Y-80499996D01*
X98555565Y-80499996D01*
X98535369Y-80320750D01*
X98535368Y-80320745D01*
X98501724Y-80224596D01*
X98475789Y-80150478D01*
X98379816Y-79997738D01*
X98252262Y-79870184D01*
X98099523Y-79774211D01*
X97929254Y-79714631D01*
X97929249Y-79714630D01*
X97750004Y-79694435D01*
X97749996Y-79694435D01*
X97570750Y-79714630D01*
X97570745Y-79714631D01*
X97400476Y-79774211D01*
X97247737Y-79870184D01*
X97120184Y-79997737D01*
X97024211Y-80150476D01*
X96964631Y-80320745D01*
X96964630Y-80320750D01*
X96944435Y-80499996D01*
X86554586Y-80499996D01*
X86539254Y-80494631D01*
X86539249Y-80494630D01*
X86360004Y-80474435D01*
X86359996Y-80474435D01*
X86180750Y-80494630D01*
X86180745Y-80494631D01*
X86010476Y-80554211D01*
X85857737Y-80650184D01*
X85730184Y-80777737D01*
X85634211Y-80930476D01*
X85574631Y-81100745D01*
X85574630Y-81100750D01*
X85554435Y-81279996D01*
X82085565Y-81279996D01*
X82065369Y-81100750D01*
X82065368Y-81100745D01*
X82005788Y-80930476D01*
X81966582Y-80868080D01*
X81909816Y-80777738D01*
X81782262Y-80650184D01*
X81629523Y-80554211D01*
X81459254Y-80494631D01*
X81459249Y-80494630D01*
X81280004Y-80474435D01*
X81279996Y-80474435D01*
X81100750Y-80494630D01*
X81100745Y-80494631D01*
X80930476Y-80554211D01*
X80777737Y-80650184D01*
X80650184Y-80777737D01*
X80554211Y-80930476D01*
X80494631Y-81100745D01*
X80494630Y-81100750D01*
X80474435Y-81279996D01*
X71925565Y-81279996D01*
X71905369Y-81100750D01*
X71905368Y-81100745D01*
X71845788Y-80930476D01*
X71806582Y-80868080D01*
X71749816Y-80777738D01*
X71622262Y-80650184D01*
X71469523Y-80554211D01*
X71299254Y-80494631D01*
X71299249Y-80494630D01*
X71120004Y-80474435D01*
X71119996Y-80474435D01*
X70940750Y-80494630D01*
X70940745Y-80494631D01*
X70770476Y-80554211D01*
X70617737Y-80650184D01*
X70490184Y-80777737D01*
X70394211Y-80930476D01*
X70334631Y-81100745D01*
X70334630Y-81100750D01*
X70314435Y-81279996D01*
X67574489Y-81279996D01*
X67674035Y-81137830D01*
X67773903Y-80923663D01*
X67835063Y-80695408D01*
X67855659Y-80460000D01*
X67835063Y-80224592D01*
X67788626Y-80051285D01*
X67773905Y-79996344D01*
X67773904Y-79996343D01*
X67773903Y-79996337D01*
X67674035Y-79782171D01*
X67668461Y-79774211D01*
X67538496Y-79588600D01*
X67538495Y-79588599D01*
X67416567Y-79466671D01*
X67383084Y-79405351D01*
X67388068Y-79335659D01*
X67429939Y-79279725D01*
X67460915Y-79262810D01*
X67592331Y-79213796D01*
X67707546Y-79127546D01*
X67793796Y-79012331D01*
X67844091Y-78877483D01*
X67850500Y-78817873D01*
X67850499Y-77022128D01*
X67844091Y-76962517D01*
X67830392Y-76925789D01*
X67793797Y-76827671D01*
X67793793Y-76827664D01*
X67707547Y-76712455D01*
X67707544Y-76712452D01*
X67592335Y-76626206D01*
X67592328Y-76626202D01*
X67457482Y-76575908D01*
X67457483Y-76575908D01*
X67397883Y-76569501D01*
X67397881Y-76569500D01*
X67397873Y-76569500D01*
X67397864Y-76569500D01*
X65602129Y-76569500D01*
X65602123Y-76569501D01*
X65542516Y-76575908D01*
X65407671Y-76626202D01*
X65407664Y-76626206D01*
X65292455Y-76712452D01*
X65292452Y-76712455D01*
X65206206Y-76827664D01*
X65206202Y-76827671D01*
X65155908Y-76962517D01*
X65149501Y-77022116D01*
X65149501Y-77022123D01*
X65149500Y-77022135D01*
X65149500Y-78817870D01*
X65149501Y-78817876D01*
X65155908Y-78877483D01*
X65206202Y-79012328D01*
X65206206Y-79012335D01*
X65292452Y-79127544D01*
X65292455Y-79127547D01*
X65407664Y-79213793D01*
X65407671Y-79213797D01*
X65539081Y-79262810D01*
X65595015Y-79304681D01*
X65619432Y-79370145D01*
X65604580Y-79438418D01*
X65583430Y-79466673D01*
X65461503Y-79588600D01*
X65325965Y-79782169D01*
X65325964Y-79782171D01*
X65226098Y-79996335D01*
X65226094Y-79996344D01*
X65164938Y-80224586D01*
X65164936Y-80224596D01*
X65144341Y-80459999D01*
X62500500Y-80459999D01*
X62500500Y-73999996D01*
X65944435Y-73999996D01*
X65944435Y-74000003D01*
X65964630Y-74179249D01*
X65964633Y-74179262D01*
X66024209Y-74349520D01*
X66077309Y-74434029D01*
X66096309Y-74501266D01*
X66077309Y-74565971D01*
X66024209Y-74650479D01*
X65964633Y-74820737D01*
X65964630Y-74820750D01*
X65944435Y-74999996D01*
X65944435Y-75000003D01*
X65964630Y-75179249D01*
X65964631Y-75179254D01*
X66024211Y-75349523D01*
X66065122Y-75414632D01*
X66120184Y-75502262D01*
X66247738Y-75629816D01*
X66326410Y-75679249D01*
X66355833Y-75697737D01*
X66400478Y-75725789D01*
X66570745Y-75785368D01*
X66570750Y-75785369D01*
X66629219Y-75791956D01*
X66686990Y-75798465D01*
X66751404Y-75825531D01*
X66778101Y-75855713D01*
X66870184Y-76002262D01*
X66997738Y-76129816D01*
X67150478Y-76225789D01*
X67320739Y-76285366D01*
X67320745Y-76285368D01*
X67320750Y-76285369D01*
X67499996Y-76305565D01*
X67500000Y-76305565D01*
X67500004Y-76305565D01*
X67679249Y-76285369D01*
X67679251Y-76285368D01*
X67679255Y-76285368D01*
X67679258Y-76285366D01*
X67679262Y-76285366D01*
X67834045Y-76231205D01*
X67903824Y-76227643D01*
X67915955Y-76231205D01*
X68070737Y-76285366D01*
X68070743Y-76285367D01*
X68070745Y-76285368D01*
X68070746Y-76285368D01*
X68070750Y-76285369D01*
X68249996Y-76305565D01*
X68250000Y-76305565D01*
X68250004Y-76305565D01*
X68429249Y-76285369D01*
X68429251Y-76285368D01*
X68429255Y-76285368D01*
X68429258Y-76285366D01*
X68429262Y-76285366D01*
X68584045Y-76231205D01*
X68653824Y-76227643D01*
X68665955Y-76231205D01*
X68820737Y-76285366D01*
X68820743Y-76285367D01*
X68820745Y-76285368D01*
X68820746Y-76285368D01*
X68820750Y-76285369D01*
X68999996Y-76305565D01*
X69000000Y-76305565D01*
X69000004Y-76305565D01*
X69179249Y-76285369D01*
X69179252Y-76285368D01*
X69179255Y-76285368D01*
X69349522Y-76225789D01*
X69390571Y-76199996D01*
X70314435Y-76199996D01*
X70314435Y-76200003D01*
X70334630Y-76379249D01*
X70334631Y-76379254D01*
X70394211Y-76549523D01*
X70490184Y-76702262D01*
X70617738Y-76829816D01*
X70770478Y-76925789D01*
X70875438Y-76962516D01*
X70940745Y-76985368D01*
X70940750Y-76985369D01*
X71119996Y-77005565D01*
X71120000Y-77005565D01*
X71120004Y-77005565D01*
X71299249Y-76985369D01*
X71299252Y-76985368D01*
X71299255Y-76985368D01*
X71469522Y-76925789D01*
X71622262Y-76829816D01*
X71749816Y-76702262D01*
X71845789Y-76549522D01*
X71905368Y-76379255D01*
X71913671Y-76305565D01*
X71925565Y-76200003D01*
X71925565Y-76199996D01*
X80474435Y-76199996D01*
X80474435Y-76200003D01*
X80494630Y-76379249D01*
X80494631Y-76379254D01*
X80554211Y-76549523D01*
X80650184Y-76702262D01*
X80777738Y-76829816D01*
X80930478Y-76925789D01*
X81035438Y-76962516D01*
X81100745Y-76985368D01*
X81100750Y-76985369D01*
X81279996Y-77005565D01*
X81280000Y-77005565D01*
X81280004Y-77005565D01*
X81459249Y-76985369D01*
X81459252Y-76985368D01*
X81459255Y-76985368D01*
X81629522Y-76925789D01*
X81782262Y-76829816D01*
X81909816Y-76702262D01*
X82005789Y-76549522D01*
X82065368Y-76379255D01*
X82073671Y-76305565D01*
X82085565Y-76200003D01*
X82085565Y-76199996D01*
X85554435Y-76199996D01*
X85554435Y-76200003D01*
X85574630Y-76379249D01*
X85574631Y-76379254D01*
X85634211Y-76549523D01*
X85730184Y-76702262D01*
X85857738Y-76829816D01*
X86010478Y-76925789D01*
X86115438Y-76962516D01*
X86180745Y-76985368D01*
X86180750Y-76985369D01*
X86359996Y-77005565D01*
X86360000Y-77005565D01*
X86360004Y-77005565D01*
X86539249Y-76985369D01*
X86539252Y-76985368D01*
X86539255Y-76985368D01*
X86709522Y-76925789D01*
X86862262Y-76829816D01*
X86989816Y-76702262D01*
X87085789Y-76549522D01*
X87145368Y-76379255D01*
X87153671Y-76305565D01*
X87165565Y-76200003D01*
X87165565Y-76199996D01*
X87145369Y-76020750D01*
X87145368Y-76020745D01*
X87085789Y-75850478D01*
X87085188Y-75849522D01*
X87044878Y-75785368D01*
X86989816Y-75697738D01*
X86862262Y-75570184D01*
X86709523Y-75474211D01*
X86539254Y-75414631D01*
X86539249Y-75414630D01*
X86360004Y-75394435D01*
X86359996Y-75394435D01*
X86180750Y-75414630D01*
X86180745Y-75414631D01*
X86010476Y-75474211D01*
X85857737Y-75570184D01*
X85730184Y-75697737D01*
X85634211Y-75850476D01*
X85574631Y-76020745D01*
X85574630Y-76020750D01*
X85554435Y-76199996D01*
X82085565Y-76199996D01*
X82065369Y-76020750D01*
X82065368Y-76020745D01*
X82005789Y-75850478D01*
X82005188Y-75849522D01*
X81964878Y-75785368D01*
X81909816Y-75697738D01*
X81782262Y-75570184D01*
X81629523Y-75474211D01*
X81459254Y-75414631D01*
X81459249Y-75414630D01*
X81280004Y-75394435D01*
X81279996Y-75394435D01*
X81100750Y-75414630D01*
X81100745Y-75414631D01*
X80930476Y-75474211D01*
X80777737Y-75570184D01*
X80650184Y-75697737D01*
X80554211Y-75850476D01*
X80494631Y-76020745D01*
X80494630Y-76020750D01*
X80474435Y-76199996D01*
X71925565Y-76199996D01*
X71905369Y-76020750D01*
X71905368Y-76020745D01*
X71845789Y-75850478D01*
X71845188Y-75849522D01*
X71804878Y-75785368D01*
X71749816Y-75697738D01*
X71622262Y-75570184D01*
X71469523Y-75474211D01*
X71299254Y-75414631D01*
X71299249Y-75414630D01*
X71120004Y-75394435D01*
X71119996Y-75394435D01*
X70940750Y-75414630D01*
X70940745Y-75414631D01*
X70770476Y-75474211D01*
X70617737Y-75570184D01*
X70490184Y-75697737D01*
X70394211Y-75850476D01*
X70334631Y-76020745D01*
X70334630Y-76020750D01*
X70314435Y-76199996D01*
X69390571Y-76199996D01*
X69502262Y-76129816D01*
X69629816Y-76002262D01*
X69725789Y-75849522D01*
X69785368Y-75679255D01*
X69785369Y-75679249D01*
X69805565Y-75500003D01*
X69805565Y-75499996D01*
X69785369Y-75320750D01*
X69785368Y-75320745D01*
X69752141Y-75225788D01*
X69725789Y-75150478D01*
X69629816Y-74997738D01*
X69502262Y-74870184D01*
X69469379Y-74849522D01*
X69349523Y-74774211D01*
X69179254Y-74714631D01*
X69179249Y-74714630D01*
X69000004Y-74694435D01*
X68999996Y-74694435D01*
X68820750Y-74714630D01*
X68820742Y-74714632D01*
X68665954Y-74768795D01*
X68596176Y-74772356D01*
X68584046Y-74768795D01*
X68429257Y-74714632D01*
X68429249Y-74714630D01*
X68250004Y-74694435D01*
X68249996Y-74694435D01*
X68070750Y-74714630D01*
X68070742Y-74714632D01*
X67915954Y-74768795D01*
X67846176Y-74772356D01*
X67834046Y-74768795D01*
X67679257Y-74714632D01*
X67679250Y-74714630D01*
X67563008Y-74701533D01*
X67498594Y-74674466D01*
X67471899Y-74644286D01*
X67422691Y-74565973D01*
X67404046Y-74499996D01*
X72444435Y-74499996D01*
X72444435Y-74500003D01*
X72464630Y-74679249D01*
X72464631Y-74679254D01*
X72524211Y-74849523D01*
X72617341Y-74997737D01*
X72620184Y-75002262D01*
X72747738Y-75129816D01*
X72900478Y-75225789D01*
X73070745Y-75285368D01*
X73070750Y-75285369D01*
X73249996Y-75305565D01*
X73250000Y-75305565D01*
X73250004Y-75305565D01*
X73429249Y-75285369D01*
X73429252Y-75285368D01*
X73429255Y-75285368D01*
X73599522Y-75225789D01*
X73752262Y-75129816D01*
X73879816Y-75002262D01*
X73975789Y-74849522D01*
X74035368Y-74679255D01*
X74035908Y-74674466D01*
X74055565Y-74500003D01*
X74055565Y-74499996D01*
X74035369Y-74320750D01*
X74035368Y-74320745D01*
X73985861Y-74179262D01*
X73975789Y-74150478D01*
X73879816Y-73997738D01*
X73752262Y-73870184D01*
X73599523Y-73774211D01*
X73429254Y-73714631D01*
X73429249Y-73714630D01*
X73250004Y-73694435D01*
X73249996Y-73694435D01*
X73070750Y-73714630D01*
X73070745Y-73714631D01*
X72900476Y-73774211D01*
X72747737Y-73870184D01*
X72620184Y-73997737D01*
X72524211Y-74150476D01*
X72464631Y-74320745D01*
X72464630Y-74320750D01*
X72444435Y-74499996D01*
X67404046Y-74499996D01*
X67403690Y-74498736D01*
X67422691Y-74434027D01*
X67475788Y-74349524D01*
X67475789Y-74349522D01*
X67535368Y-74179255D01*
X67535369Y-74179249D01*
X67555565Y-74000003D01*
X67555565Y-73999996D01*
X67535369Y-73820750D01*
X67535368Y-73820745D01*
X67475788Y-73650476D01*
X67436582Y-73588080D01*
X67379816Y-73497738D01*
X67252262Y-73370184D01*
X67165983Y-73315971D01*
X67099523Y-73274211D01*
X66929254Y-73214631D01*
X66929249Y-73214630D01*
X66750004Y-73194435D01*
X66749996Y-73194435D01*
X66570750Y-73214630D01*
X66570745Y-73214631D01*
X66400476Y-73274211D01*
X66247737Y-73370184D01*
X66120184Y-73497737D01*
X66024211Y-73650476D01*
X65964631Y-73820745D01*
X65964630Y-73820750D01*
X65944435Y-73999996D01*
X62500500Y-73999996D01*
X62500500Y-72249996D01*
X70694435Y-72249996D01*
X70694435Y-72250003D01*
X70714630Y-72429249D01*
X70714631Y-72429254D01*
X70774211Y-72599523D01*
X70849703Y-72719667D01*
X70870184Y-72752262D01*
X70997738Y-72879816D01*
X71150478Y-72975789D01*
X71219678Y-73000003D01*
X71320745Y-73035368D01*
X71320750Y-73035369D01*
X71499996Y-73055565D01*
X71500000Y-73055565D01*
X71500004Y-73055565D01*
X71679249Y-73035369D01*
X71679252Y-73035368D01*
X71679255Y-73035368D01*
X71849522Y-72975789D01*
X72002262Y-72879816D01*
X72129816Y-72752262D01*
X72131240Y-72749996D01*
X75944435Y-72749996D01*
X75944435Y-72750003D01*
X75964630Y-72929249D01*
X75964633Y-72929262D01*
X76024209Y-73099520D01*
X76077309Y-73184029D01*
X76096309Y-73251266D01*
X76077309Y-73315971D01*
X76024209Y-73400479D01*
X75964633Y-73570737D01*
X75964630Y-73570750D01*
X75944435Y-73749996D01*
X75944435Y-73750003D01*
X75964630Y-73929249D01*
X75964631Y-73929254D01*
X76024211Y-74099523D01*
X76074315Y-74179262D01*
X76120184Y-74252262D01*
X76247738Y-74379816D01*
X76400478Y-74475789D01*
X76570745Y-74535368D01*
X76570750Y-74535369D01*
X76749996Y-74555565D01*
X76750000Y-74555565D01*
X76750004Y-74555565D01*
X76929249Y-74535369D01*
X76929252Y-74535368D01*
X76929255Y-74535368D01*
X77030342Y-74499996D01*
X88194435Y-74499996D01*
X88194435Y-74500003D01*
X88214630Y-74679249D01*
X88214631Y-74679254D01*
X88274211Y-74849523D01*
X88367341Y-74997737D01*
X88370184Y-75002262D01*
X88497738Y-75129816D01*
X88650478Y-75225789D01*
X88820745Y-75285368D01*
X88820750Y-75285369D01*
X88999996Y-75305565D01*
X89000000Y-75305565D01*
X89000004Y-75305565D01*
X89179249Y-75285369D01*
X89179252Y-75285368D01*
X89179255Y-75285368D01*
X89349522Y-75225789D01*
X89502262Y-75129816D01*
X89629816Y-75002262D01*
X89631240Y-74999996D01*
X102194435Y-74999996D01*
X102194435Y-75000003D01*
X102214630Y-75179249D01*
X102214631Y-75179254D01*
X102274211Y-75349523D01*
X102315122Y-75414632D01*
X102370184Y-75502262D01*
X102497738Y-75629816D01*
X102576410Y-75679249D01*
X102605833Y-75697737D01*
X102650478Y-75725789D01*
X102820745Y-75785368D01*
X102820750Y-75785369D01*
X102999996Y-75805565D01*
X103000000Y-75805565D01*
X103000004Y-75805565D01*
X103179249Y-75785369D01*
X103179252Y-75785368D01*
X103179255Y-75785368D01*
X103349522Y-75725789D01*
X103502262Y-75629816D01*
X103629816Y-75502262D01*
X103725789Y-75349522D01*
X103785368Y-75179255D01*
X103785369Y-75179249D01*
X103805565Y-75000003D01*
X103805565Y-74999996D01*
X103785369Y-74820750D01*
X103785368Y-74820745D01*
X103741170Y-74694435D01*
X103725789Y-74650478D01*
X103721898Y-74644286D01*
X103653461Y-74535369D01*
X103629816Y-74497738D01*
X103502262Y-74370184D01*
X103469379Y-74349522D01*
X103349523Y-74274211D01*
X103179254Y-74214631D01*
X103179249Y-74214630D01*
X103000004Y-74194435D01*
X102999996Y-74194435D01*
X102820750Y-74214630D01*
X102820745Y-74214631D01*
X102650476Y-74274211D01*
X102497737Y-74370184D01*
X102370184Y-74497737D01*
X102274211Y-74650476D01*
X102214631Y-74820745D01*
X102214630Y-74820750D01*
X102194435Y-74999996D01*
X89631240Y-74999996D01*
X89725789Y-74849522D01*
X89785368Y-74679255D01*
X89785908Y-74674466D01*
X89805565Y-74500003D01*
X89805565Y-74499996D01*
X89785369Y-74320750D01*
X89785368Y-74320745D01*
X89735861Y-74179262D01*
X89725789Y-74150478D01*
X89629816Y-73997738D01*
X89502262Y-73870184D01*
X89349523Y-73774211D01*
X89179254Y-73714631D01*
X89179249Y-73714630D01*
X89000004Y-73694435D01*
X88999996Y-73694435D01*
X88820750Y-73714630D01*
X88820745Y-73714631D01*
X88650476Y-73774211D01*
X88497737Y-73870184D01*
X88370184Y-73997737D01*
X88274211Y-74150476D01*
X88214631Y-74320745D01*
X88214630Y-74320750D01*
X88194435Y-74499996D01*
X77030342Y-74499996D01*
X77099522Y-74475789D01*
X77252262Y-74379816D01*
X77379816Y-74252262D01*
X77475789Y-74099522D01*
X77535368Y-73929255D01*
X77535369Y-73929249D01*
X77555565Y-73750003D01*
X77555565Y-73749996D01*
X77535369Y-73570750D01*
X77535368Y-73570745D01*
X77475788Y-73400475D01*
X77422691Y-73315973D01*
X77403690Y-73248736D01*
X77422691Y-73184027D01*
X77479495Y-73093625D01*
X77480793Y-73094440D01*
X77522130Y-73048650D01*
X77589556Y-73030332D01*
X77656182Y-73051375D01*
X77700854Y-73105097D01*
X77710256Y-73140422D01*
X77714630Y-73179250D01*
X77714631Y-73179254D01*
X77774211Y-73349523D01*
X77851307Y-73472219D01*
X77870184Y-73502262D01*
X77997738Y-73629816D01*
X78088080Y-73686582D01*
X78132721Y-73714632D01*
X78150478Y-73725789D01*
X78288860Y-73774211D01*
X78320745Y-73785368D01*
X78320750Y-73785369D01*
X78499996Y-73805565D01*
X78500000Y-73805565D01*
X78500004Y-73805565D01*
X78679249Y-73785369D01*
X78679252Y-73785368D01*
X78679255Y-73785368D01*
X78849522Y-73725789D01*
X79002262Y-73629816D01*
X79129816Y-73502262D01*
X79225789Y-73349522D01*
X79285368Y-73179255D01*
X79285369Y-73179249D01*
X79305565Y-73000003D01*
X79305565Y-72999996D01*
X79285369Y-72820750D01*
X79285368Y-72820745D01*
X79260612Y-72749996D01*
X85194435Y-72749996D01*
X85194435Y-72750003D01*
X85214630Y-72929249D01*
X85214631Y-72929254D01*
X85274211Y-73099523D01*
X85327309Y-73184027D01*
X85370184Y-73252262D01*
X85497738Y-73379816D01*
X85530623Y-73400479D01*
X85650466Y-73475782D01*
X85650478Y-73475789D01*
X85820742Y-73535367D01*
X85820745Y-73535368D01*
X85820750Y-73535369D01*
X85999996Y-73555565D01*
X86000000Y-73555565D01*
X86000004Y-73555565D01*
X86179249Y-73535369D01*
X86179252Y-73535368D01*
X86179255Y-73535368D01*
X86179256Y-73535367D01*
X86179259Y-73535367D01*
X86217045Y-73522144D01*
X86349522Y-73475789D01*
X86349527Y-73475785D01*
X86349538Y-73475782D01*
X86419317Y-73472219D01*
X86479945Y-73506948D01*
X86507535Y-73551868D01*
X86524209Y-73599519D01*
X86556229Y-73650478D01*
X86620184Y-73752262D01*
X86747738Y-73879816D01*
X86900478Y-73975789D01*
X86969678Y-74000003D01*
X87070745Y-74035368D01*
X87070750Y-74035369D01*
X87249996Y-74055565D01*
X87250000Y-74055565D01*
X87250004Y-74055565D01*
X87429249Y-74035369D01*
X87429252Y-74035368D01*
X87429255Y-74035368D01*
X87599522Y-73975789D01*
X87752262Y-73879816D01*
X87879816Y-73752262D01*
X87975789Y-73599522D01*
X88035368Y-73429255D01*
X88035369Y-73429249D01*
X88055565Y-73250003D01*
X88055565Y-73249996D01*
X88035369Y-73070750D01*
X88035368Y-73070745D01*
X87985861Y-72929262D01*
X87975789Y-72900478D01*
X87879816Y-72747738D01*
X87809990Y-72677912D01*
X87776505Y-72616589D01*
X87781489Y-72546897D01*
X87823361Y-72490964D01*
X87843875Y-72478508D01*
X87849514Y-72475791D01*
X87849522Y-72475789D01*
X88002262Y-72379816D01*
X88072090Y-72309987D01*
X88133409Y-72276505D01*
X88203101Y-72281489D01*
X88259035Y-72323360D01*
X88271487Y-72343867D01*
X88274209Y-72349519D01*
X88306229Y-72400478D01*
X88370184Y-72502262D01*
X88497738Y-72629816D01*
X88650478Y-72725789D01*
X88820745Y-72785368D01*
X88820750Y-72785369D01*
X88999996Y-72805565D01*
X89000000Y-72805565D01*
X89000004Y-72805565D01*
X89179249Y-72785369D01*
X89179252Y-72785368D01*
X89179255Y-72785368D01*
X89349522Y-72725789D01*
X89502262Y-72629816D01*
X89629816Y-72502262D01*
X89725789Y-72349522D01*
X89785368Y-72179255D01*
X89786921Y-72165476D01*
X89805565Y-72000003D01*
X89805565Y-71999996D01*
X89785369Y-71820750D01*
X89785368Y-71820745D01*
X89760549Y-71749816D01*
X89725789Y-71650478D01*
X89694384Y-71600498D01*
X89686582Y-71588080D01*
X89629816Y-71497738D01*
X89502262Y-71370184D01*
X89457941Y-71342335D01*
X89349523Y-71274211D01*
X89179254Y-71214631D01*
X89179249Y-71214630D01*
X89000004Y-71194435D01*
X88999996Y-71194435D01*
X88820750Y-71214630D01*
X88820745Y-71214631D01*
X88650476Y-71274211D01*
X88497739Y-71370183D01*
X88427912Y-71440010D01*
X88366588Y-71473494D01*
X88296897Y-71468509D01*
X88240963Y-71426638D01*
X88228510Y-71406128D01*
X88225789Y-71400477D01*
X88153461Y-71285369D01*
X88129816Y-71247738D01*
X88002262Y-71120184D01*
X88001963Y-71119996D01*
X87849523Y-71024211D01*
X87679254Y-70964631D01*
X87679249Y-70964630D01*
X87500004Y-70944435D01*
X87499996Y-70944435D01*
X87320750Y-70964630D01*
X87320745Y-70964631D01*
X87150476Y-71024211D01*
X86997737Y-71120184D01*
X86870184Y-71247737D01*
X86774211Y-71400476D01*
X86714631Y-71570745D01*
X86714630Y-71570750D01*
X86694435Y-71749996D01*
X86694435Y-71750003D01*
X86714630Y-71929249D01*
X86714632Y-71929257D01*
X86752277Y-72036841D01*
X86755838Y-72106620D01*
X86721109Y-72167247D01*
X86659115Y-72199474D01*
X86589540Y-72193068D01*
X86547554Y-72165476D01*
X86502262Y-72120184D01*
X86349523Y-72024211D01*
X86179254Y-71964631D01*
X86179249Y-71964630D01*
X86000004Y-71944435D01*
X85999996Y-71944435D01*
X85820750Y-71964630D01*
X85820745Y-71964631D01*
X85650476Y-72024211D01*
X85497737Y-72120184D01*
X85370184Y-72247737D01*
X85274211Y-72400476D01*
X85214631Y-72570745D01*
X85214630Y-72570750D01*
X85194435Y-72749996D01*
X79260612Y-72749996D01*
X79242631Y-72698609D01*
X79225789Y-72650478D01*
X79129816Y-72497738D01*
X79002262Y-72370184D01*
X78960379Y-72343867D01*
X78849523Y-72274211D01*
X78679254Y-72214631D01*
X78679249Y-72214630D01*
X78500004Y-72194435D01*
X78499996Y-72194435D01*
X78320750Y-72214630D01*
X78320745Y-72214631D01*
X78150476Y-72274211D01*
X77997737Y-72370184D01*
X77870184Y-72497737D01*
X77770506Y-72656374D01*
X77769211Y-72655560D01*
X77727845Y-72701364D01*
X77660415Y-72719667D01*
X77593794Y-72698609D01*
X77549134Y-72644876D01*
X77539743Y-72609580D01*
X77535368Y-72570745D01*
X77475789Y-72400478D01*
X77379816Y-72247738D01*
X77252262Y-72120184D01*
X77219379Y-72099522D01*
X77099523Y-72024211D01*
X76929254Y-71964631D01*
X76929249Y-71964630D01*
X76750004Y-71944435D01*
X76749996Y-71944435D01*
X76570750Y-71964630D01*
X76570745Y-71964631D01*
X76400476Y-72024211D01*
X76247737Y-72120184D01*
X76120184Y-72247737D01*
X76024211Y-72400476D01*
X75964631Y-72570745D01*
X75964630Y-72570750D01*
X75944435Y-72749996D01*
X72131240Y-72749996D01*
X72225789Y-72599522D01*
X72285368Y-72429255D01*
X72285369Y-72429249D01*
X72305565Y-72250003D01*
X72305565Y-72249996D01*
X72285369Y-72070750D01*
X72285366Y-72070737D01*
X72245139Y-71955776D01*
X72241577Y-71885997D01*
X72276305Y-71825370D01*
X72338298Y-71793142D01*
X72376064Y-71791601D01*
X72499997Y-71805565D01*
X72500000Y-71805565D01*
X72500004Y-71805565D01*
X72679249Y-71785369D01*
X72679252Y-71785368D01*
X72679255Y-71785368D01*
X72849522Y-71725789D01*
X73002262Y-71629816D01*
X73129816Y-71502262D01*
X73225789Y-71349522D01*
X73285368Y-71179255D01*
X73288904Y-71147872D01*
X73305565Y-71000003D01*
X73305565Y-70999996D01*
X73285369Y-70820750D01*
X73285368Y-70820745D01*
X73225788Y-70650475D01*
X73172691Y-70565973D01*
X73154046Y-70499996D01*
X80194435Y-70499996D01*
X80194435Y-70500003D01*
X80214630Y-70679249D01*
X80214631Y-70679254D01*
X80274211Y-70849523D01*
X80331530Y-70940745D01*
X80370184Y-71002262D01*
X80497738Y-71129816D01*
X80576410Y-71179249D01*
X80632721Y-71214632D01*
X80650478Y-71225789D01*
X80713202Y-71247737D01*
X80820745Y-71285368D01*
X80820750Y-71285369D01*
X80999996Y-71305565D01*
X81000000Y-71305565D01*
X81000004Y-71305565D01*
X81179249Y-71285369D01*
X81179252Y-71285368D01*
X81179255Y-71285368D01*
X81349522Y-71225789D01*
X81502262Y-71129816D01*
X81629816Y-71002262D01*
X81725789Y-70849522D01*
X81785368Y-70679255D01*
X81785369Y-70679249D01*
X81805565Y-70500003D01*
X81805565Y-70499996D01*
X81785369Y-70320750D01*
X81785368Y-70320745D01*
X81735861Y-70179262D01*
X81725789Y-70150478D01*
X81629816Y-69997738D01*
X81502262Y-69870184D01*
X81349523Y-69774211D01*
X81179254Y-69714631D01*
X81179249Y-69714630D01*
X81000004Y-69694435D01*
X80999996Y-69694435D01*
X80820750Y-69714630D01*
X80820745Y-69714631D01*
X80650476Y-69774211D01*
X80497737Y-69870184D01*
X80370184Y-69997737D01*
X80274211Y-70150476D01*
X80214631Y-70320745D01*
X80214630Y-70320750D01*
X80194435Y-70499996D01*
X73154046Y-70499996D01*
X73153690Y-70498736D01*
X73172691Y-70434027D01*
X73225788Y-70349524D01*
X73225789Y-70349522D01*
X73285368Y-70179255D01*
X73285369Y-70179249D01*
X73305565Y-70000003D01*
X73305565Y-69999996D01*
X73285369Y-69820750D01*
X73285368Y-69820745D01*
X73225788Y-69650476D01*
X73129815Y-69497737D01*
X73002262Y-69370184D01*
X72849523Y-69274211D01*
X72679254Y-69214631D01*
X72679249Y-69214630D01*
X72500004Y-69194435D01*
X72499996Y-69194435D01*
X72320750Y-69214630D01*
X72320745Y-69214631D01*
X72150476Y-69274211D01*
X71997737Y-69370184D01*
X71870184Y-69497737D01*
X71774211Y-69650476D01*
X71714631Y-69820745D01*
X71714630Y-69820750D01*
X71694435Y-69999996D01*
X71694435Y-70000003D01*
X71714630Y-70179249D01*
X71714633Y-70179262D01*
X71774209Y-70349520D01*
X71827309Y-70434029D01*
X71846309Y-70501266D01*
X71827309Y-70565971D01*
X71774209Y-70650479D01*
X71714633Y-70820737D01*
X71714630Y-70820750D01*
X71694435Y-70999996D01*
X71694435Y-71000003D01*
X71714630Y-71179249D01*
X71714631Y-71179254D01*
X71754861Y-71294223D01*
X71758422Y-71364002D01*
X71723693Y-71424630D01*
X71661700Y-71456857D01*
X71623936Y-71458398D01*
X71500004Y-71444435D01*
X71499996Y-71444435D01*
X71320750Y-71464630D01*
X71320745Y-71464631D01*
X71150476Y-71524211D01*
X70997737Y-71620184D01*
X70870184Y-71747737D01*
X70774211Y-71900476D01*
X70714631Y-72070745D01*
X70714630Y-72070750D01*
X70694435Y-72249996D01*
X62500500Y-72249996D01*
X62500500Y-71119996D01*
X65234435Y-71119996D01*
X65234435Y-71120003D01*
X65254630Y-71299249D01*
X65254631Y-71299254D01*
X65314211Y-71469523D01*
X65377817Y-71570750D01*
X65410184Y-71622262D01*
X65537738Y-71749816D01*
X65690478Y-71845789D01*
X65846770Y-71900478D01*
X65860745Y-71905368D01*
X65860750Y-71905369D01*
X66039996Y-71925565D01*
X66040000Y-71925565D01*
X66040004Y-71925565D01*
X66219249Y-71905369D01*
X66219252Y-71905368D01*
X66219255Y-71905368D01*
X66389522Y-71845789D01*
X66542262Y-71749816D01*
X66669816Y-71622262D01*
X66765789Y-71469522D01*
X66825368Y-71299255D01*
X66835708Y-71207483D01*
X66845565Y-71120003D01*
X66845565Y-71119996D01*
X66825369Y-70940750D01*
X66825368Y-70940745D01*
X66765788Y-70770476D01*
X66708466Y-70679249D01*
X66669816Y-70617738D01*
X66542262Y-70490184D01*
X66389523Y-70394211D01*
X66219254Y-70334631D01*
X66219249Y-70334630D01*
X66040004Y-70314435D01*
X66039996Y-70314435D01*
X65860750Y-70334630D01*
X65860745Y-70334631D01*
X65690476Y-70394211D01*
X65537737Y-70490184D01*
X65410184Y-70617737D01*
X65314211Y-70770476D01*
X65254631Y-70940745D01*
X65254630Y-70940750D01*
X65234435Y-71119996D01*
X62500500Y-71119996D01*
X62500500Y-67499999D01*
X63644341Y-67499999D01*
X63644341Y-67500000D01*
X63664936Y-67735403D01*
X63664938Y-67735413D01*
X63726094Y-67963655D01*
X63726096Y-67963659D01*
X63726097Y-67963663D01*
X63824018Y-68173655D01*
X63825965Y-68177830D01*
X63825967Y-68177834D01*
X63934281Y-68332521D01*
X63961505Y-68371401D01*
X64128599Y-68538495D01*
X64225384Y-68606265D01*
X64322165Y-68674032D01*
X64322167Y-68674033D01*
X64322170Y-68674035D01*
X64536337Y-68773903D01*
X64764592Y-68835063D01*
X64952918Y-68851539D01*
X64999999Y-68855659D01*
X65000000Y-68855659D01*
X65000001Y-68855659D01*
X65039234Y-68852226D01*
X65235408Y-68835063D01*
X65463663Y-68773903D01*
X65677830Y-68674035D01*
X65871401Y-68538495D01*
X66038495Y-68371401D01*
X66174035Y-68177830D01*
X66273903Y-67963663D01*
X66335063Y-67735408D01*
X66355659Y-67500000D01*
X66335063Y-67264592D01*
X66273903Y-67036337D01*
X66174035Y-66822171D01*
X66162407Y-66805565D01*
X66038496Y-66628600D01*
X65985929Y-66576033D01*
X65916179Y-66506283D01*
X65882696Y-66444963D01*
X65887680Y-66375271D01*
X65929551Y-66319337D01*
X65960529Y-66302422D01*
X66092086Y-66253354D01*
X66092093Y-66253350D01*
X66207187Y-66167190D01*
X66207190Y-66167187D01*
X66293350Y-66052093D01*
X66293354Y-66052086D01*
X66343596Y-65917379D01*
X66343598Y-65917372D01*
X66349999Y-65857844D01*
X66350000Y-65857827D01*
X66350000Y-65210000D01*
X65433012Y-65210000D01*
X65465925Y-65152993D01*
X65500000Y-65025826D01*
X65500000Y-64894174D01*
X65465925Y-64767007D01*
X65433012Y-64710000D01*
X66350000Y-64710000D01*
X66350000Y-64062172D01*
X66349999Y-64062155D01*
X66343598Y-64002627D01*
X66343596Y-64002620D01*
X66342617Y-63999996D01*
X69694435Y-63999996D01*
X69694435Y-64000003D01*
X69714630Y-64179249D01*
X69714631Y-64179254D01*
X69774211Y-64349523D01*
X69870184Y-64502262D01*
X69967610Y-64599688D01*
X70001095Y-64661011D01*
X69996971Y-64728323D01*
X69964632Y-64820742D01*
X69964630Y-64820750D01*
X69944435Y-64999996D01*
X69944435Y-65000003D01*
X69964630Y-65179249D01*
X69964631Y-65179254D01*
X70024211Y-65349523D01*
X70077309Y-65434027D01*
X70120184Y-65502262D01*
X70247738Y-65629816D01*
X70280623Y-65650479D01*
X70385449Y-65716346D01*
X70400478Y-65725789D01*
X70570745Y-65785368D01*
X70570750Y-65785369D01*
X70749996Y-65805565D01*
X70750000Y-65805565D01*
X70750004Y-65805565D01*
X70929249Y-65785369D01*
X70929252Y-65785368D01*
X70929255Y-65785368D01*
X71099522Y-65725789D01*
X71114551Y-65716346D01*
X71176650Y-65677326D01*
X71243887Y-65658325D01*
X71310722Y-65678692D01*
X71347616Y-65716346D01*
X71370182Y-65752260D01*
X71370184Y-65752262D01*
X71497738Y-65879816D01*
X71650478Y-65975789D01*
X71719678Y-66000003D01*
X71820745Y-66035368D01*
X71820750Y-66035369D01*
X71999996Y-66055565D01*
X72000000Y-66055565D01*
X72000004Y-66055565D01*
X72179249Y-66035369D01*
X72179252Y-66035368D01*
X72179255Y-66035368D01*
X72349522Y-65975789D01*
X72502262Y-65879816D01*
X72629816Y-65752262D01*
X72725789Y-65599522D01*
X72785368Y-65429255D01*
X72785369Y-65429249D01*
X72805565Y-65250003D01*
X72805565Y-65249996D01*
X72785369Y-65070750D01*
X72785368Y-65070745D01*
X72725788Y-64900476D01*
X72686582Y-64838080D01*
X72629816Y-64747738D01*
X72502262Y-64620184D01*
X72456889Y-64591674D01*
X72349523Y-64524211D01*
X72179254Y-64464631D01*
X72179249Y-64464630D01*
X72000004Y-64444435D01*
X71999996Y-64444435D01*
X71820750Y-64464630D01*
X71820745Y-64464631D01*
X71650474Y-64524212D01*
X71573347Y-64572674D01*
X71506110Y-64591674D01*
X71439275Y-64571306D01*
X71402382Y-64533652D01*
X71379816Y-64497738D01*
X71282389Y-64400311D01*
X71248904Y-64338988D01*
X71253029Y-64271674D01*
X71260615Y-64249996D01*
X82944435Y-64249996D01*
X82944435Y-64250003D01*
X82964630Y-64429249D01*
X82964631Y-64429254D01*
X83024211Y-64599523D01*
X83057809Y-64652993D01*
X83120184Y-64752262D01*
X83247738Y-64879816D01*
X83338080Y-64936582D01*
X83382721Y-64964632D01*
X83400478Y-64975789D01*
X83538860Y-65024211D01*
X83570745Y-65035368D01*
X83570750Y-65035369D01*
X83749996Y-65055565D01*
X83750000Y-65055565D01*
X83750002Y-65055565D01*
X83779862Y-65052200D01*
X83824959Y-65047119D01*
X83893780Y-65059173D01*
X83945159Y-65106522D01*
X83962062Y-65156453D01*
X83964631Y-65179251D01*
X83964633Y-65179262D01*
X84024209Y-65349520D01*
X84077309Y-65434029D01*
X84096309Y-65501266D01*
X84077309Y-65565971D01*
X84024209Y-65650479D01*
X83964633Y-65820737D01*
X83964630Y-65820750D01*
X83944435Y-65999996D01*
X83944435Y-66000003D01*
X83964630Y-66179249D01*
X83964631Y-66179254D01*
X84024211Y-66349523D01*
X84096538Y-66464630D01*
X84120184Y-66502262D01*
X84247738Y-66629816D01*
X84253805Y-66633628D01*
X84364949Y-66703465D01*
X84400478Y-66725789D01*
X84570745Y-66785368D01*
X84570750Y-66785369D01*
X84749996Y-66805565D01*
X84750000Y-66805565D01*
X84750004Y-66805565D01*
X84929249Y-66785369D01*
X84929252Y-66785368D01*
X84929255Y-66785368D01*
X85099522Y-66725789D01*
X85252262Y-66629816D01*
X85379816Y-66502262D01*
X85437439Y-66410554D01*
X85489774Y-66364264D01*
X85558827Y-66353616D01*
X85622676Y-66381991D01*
X85647426Y-66410554D01*
X85730184Y-66542262D01*
X85857738Y-66669816D01*
X85911290Y-66703465D01*
X86001054Y-66759868D01*
X86010478Y-66765789D01*
X86180745Y-66825368D01*
X86180750Y-66825369D01*
X86359996Y-66845565D01*
X86360000Y-66845565D01*
X86360004Y-66845565D01*
X86539249Y-66825369D01*
X86539252Y-66825368D01*
X86539255Y-66825368D01*
X86709522Y-66765789D01*
X86862262Y-66669816D01*
X86989816Y-66542262D01*
X87085789Y-66389522D01*
X87145368Y-66219255D01*
X87149876Y-66179249D01*
X87165565Y-66040003D01*
X87165565Y-66039996D01*
X90634435Y-66039996D01*
X90634435Y-66040003D01*
X90654630Y-66219249D01*
X90654631Y-66219254D01*
X90714211Y-66389523D01*
X90787579Y-66506286D01*
X90810184Y-66542262D01*
X90937738Y-66669816D01*
X90991290Y-66703465D01*
X91081054Y-66759868D01*
X91090478Y-66765789D01*
X91260745Y-66825368D01*
X91260750Y-66825369D01*
X91439996Y-66845565D01*
X91440000Y-66845565D01*
X91440004Y-66845565D01*
X91619249Y-66825369D01*
X91619252Y-66825368D01*
X91619255Y-66825368D01*
X91789522Y-66765789D01*
X91942262Y-66669816D01*
X92069816Y-66542262D01*
X92165789Y-66389522D01*
X92225368Y-66219255D01*
X92229876Y-66179249D01*
X92245565Y-66040003D01*
X92245565Y-66039996D01*
X95714435Y-66039996D01*
X95714435Y-66040003D01*
X95734630Y-66219249D01*
X95734631Y-66219254D01*
X95794211Y-66389523D01*
X95867579Y-66506286D01*
X95890184Y-66542262D01*
X96017738Y-66669816D01*
X96071290Y-66703465D01*
X96161054Y-66759868D01*
X96170478Y-66765789D01*
X96340745Y-66825368D01*
X96340750Y-66825369D01*
X96519996Y-66845565D01*
X96520000Y-66845565D01*
X96520004Y-66845565D01*
X96699249Y-66825369D01*
X96699252Y-66825368D01*
X96699255Y-66825368D01*
X96869522Y-66765789D01*
X97022262Y-66669816D01*
X97149816Y-66542262D01*
X97245789Y-66389522D01*
X97305368Y-66219255D01*
X97309876Y-66179249D01*
X97325565Y-66040003D01*
X97325565Y-66039996D01*
X97305369Y-65860750D01*
X97305368Y-65860745D01*
X97266618Y-65750003D01*
X97245789Y-65690478D01*
X97238383Y-65678692D01*
X97170559Y-65570750D01*
X97149816Y-65537738D01*
X97022262Y-65410184D01*
X97006812Y-65400476D01*
X96869523Y-65314211D01*
X96699254Y-65254631D01*
X96699249Y-65254630D01*
X96520004Y-65234435D01*
X96519996Y-65234435D01*
X96340750Y-65254630D01*
X96340745Y-65254631D01*
X96170476Y-65314211D01*
X96017737Y-65410184D01*
X95890184Y-65537737D01*
X95794211Y-65690476D01*
X95734631Y-65860745D01*
X95734630Y-65860750D01*
X95714435Y-66039996D01*
X92245565Y-66039996D01*
X92225369Y-65860750D01*
X92225368Y-65860745D01*
X92186618Y-65750003D01*
X92165789Y-65690478D01*
X92158383Y-65678692D01*
X92090559Y-65570750D01*
X92069816Y-65537738D01*
X91942262Y-65410184D01*
X91926812Y-65400476D01*
X91789523Y-65314211D01*
X91619254Y-65254631D01*
X91619249Y-65254630D01*
X91440004Y-65234435D01*
X91439996Y-65234435D01*
X91260750Y-65254630D01*
X91260745Y-65254631D01*
X91090476Y-65314211D01*
X90937737Y-65410184D01*
X90810184Y-65537737D01*
X90714211Y-65690476D01*
X90654631Y-65860745D01*
X90654630Y-65860750D01*
X90634435Y-66039996D01*
X87165565Y-66039996D01*
X87145369Y-65860750D01*
X87145368Y-65860745D01*
X87106618Y-65750003D01*
X87085789Y-65690478D01*
X87078383Y-65678692D01*
X87010559Y-65570750D01*
X86989816Y-65537738D01*
X86862262Y-65410184D01*
X86846812Y-65400476D01*
X86709523Y-65314211D01*
X86539254Y-65254631D01*
X86539249Y-65254630D01*
X86360004Y-65234435D01*
X86359996Y-65234435D01*
X86180750Y-65254630D01*
X86180745Y-65254631D01*
X86010476Y-65314211D01*
X85857737Y-65410184D01*
X85730184Y-65537737D01*
X85730182Y-65537740D01*
X85672559Y-65629445D01*
X85620224Y-65675736D01*
X85551170Y-65686383D01*
X85487322Y-65658007D01*
X85462572Y-65629444D01*
X85446990Y-65604646D01*
X85422689Y-65565971D01*
X85403690Y-65498735D01*
X85422691Y-65434027D01*
X85475788Y-65349524D01*
X85475789Y-65349522D01*
X85535368Y-65179255D01*
X85535368Y-65179252D01*
X85535369Y-65179249D01*
X85555565Y-65000003D01*
X85555565Y-64999996D01*
X85535369Y-64820750D01*
X85535368Y-64820745D01*
X85503028Y-64728323D01*
X85475789Y-64650478D01*
X85473974Y-64647590D01*
X85402382Y-64533652D01*
X85379816Y-64497738D01*
X85252262Y-64370184D01*
X85149422Y-64305565D01*
X85099523Y-64274211D01*
X84929254Y-64214631D01*
X84929249Y-64214630D01*
X84750004Y-64194435D01*
X84749996Y-64194435D01*
X84675040Y-64202880D01*
X84606218Y-64190825D01*
X84554839Y-64143476D01*
X84537936Y-64093542D01*
X84535368Y-64070745D01*
X84475789Y-63900478D01*
X84379816Y-63747738D01*
X84252262Y-63620184D01*
X84236054Y-63610000D01*
X84099523Y-63524211D01*
X84030321Y-63499996D01*
X88094435Y-63499996D01*
X88094435Y-63500003D01*
X88114630Y-63679249D01*
X88114631Y-63679254D01*
X88174211Y-63849523D01*
X88268760Y-63999996D01*
X88270184Y-64002262D01*
X88397738Y-64129816D01*
X88419478Y-64143476D01*
X88532721Y-64214632D01*
X88550478Y-64225789D01*
X88619678Y-64250003D01*
X88720745Y-64285368D01*
X88720750Y-64285369D01*
X88899996Y-64305565D01*
X88900000Y-64305565D01*
X88900004Y-64305565D01*
X89079249Y-64285369D01*
X89079252Y-64285368D01*
X89079255Y-64285368D01*
X89249522Y-64225789D01*
X89402262Y-64129816D01*
X89529816Y-64002262D01*
X89625789Y-63849522D01*
X89685368Y-63679255D01*
X89685369Y-63679249D01*
X89705565Y-63500003D01*
X89705565Y-63499996D01*
X89685369Y-63320750D01*
X89685368Y-63320745D01*
X89625788Y-63150476D01*
X89529815Y-62997737D01*
X89402262Y-62870184D01*
X89249523Y-62774211D01*
X89079254Y-62714631D01*
X89079249Y-62714630D01*
X88900004Y-62694435D01*
X88899996Y-62694435D01*
X88720750Y-62714630D01*
X88720745Y-62714631D01*
X88550476Y-62774211D01*
X88397737Y-62870184D01*
X88270184Y-62997737D01*
X88174211Y-63150476D01*
X88114631Y-63320745D01*
X88114630Y-63320750D01*
X88094435Y-63499996D01*
X84030321Y-63499996D01*
X83929254Y-63464631D01*
X83929249Y-63464630D01*
X83750004Y-63444435D01*
X83749996Y-63444435D01*
X83570750Y-63464630D01*
X83570745Y-63464631D01*
X83400476Y-63524211D01*
X83247737Y-63620184D01*
X83120184Y-63747737D01*
X83024211Y-63900476D01*
X82964631Y-64070745D01*
X82964630Y-64070750D01*
X82944435Y-64249996D01*
X71260615Y-64249996D01*
X71285367Y-64179259D01*
X71285369Y-64179249D01*
X71305565Y-64000003D01*
X71305565Y-63999996D01*
X71285369Y-63820750D01*
X71285368Y-63820745D01*
X71259821Y-63747737D01*
X71225789Y-63650478D01*
X71129816Y-63497738D01*
X71002262Y-63370184D01*
X70849523Y-63274211D01*
X70679254Y-63214631D01*
X70679249Y-63214630D01*
X70500004Y-63194435D01*
X70499996Y-63194435D01*
X70320750Y-63214630D01*
X70320745Y-63214631D01*
X70150476Y-63274211D01*
X69997737Y-63370184D01*
X69870184Y-63497737D01*
X69774211Y-63650476D01*
X69714631Y-63820745D01*
X69714630Y-63820750D01*
X69694435Y-63999996D01*
X66342617Y-63999996D01*
X66293354Y-63867913D01*
X66293350Y-63867906D01*
X66207190Y-63752812D01*
X66207187Y-63752809D01*
X66092093Y-63666649D01*
X66092086Y-63666645D01*
X65957379Y-63616403D01*
X65957372Y-63616401D01*
X65897844Y-63610000D01*
X65250000Y-63610000D01*
X65250000Y-64526988D01*
X65192993Y-64494075D01*
X65065826Y-64460000D01*
X64934174Y-64460000D01*
X64807007Y-64494075D01*
X64750000Y-64526988D01*
X64750000Y-63610000D01*
X64102155Y-63610000D01*
X64042627Y-63616401D01*
X64042620Y-63616403D01*
X63907913Y-63666645D01*
X63907906Y-63666649D01*
X63792812Y-63752809D01*
X63792809Y-63752812D01*
X63706649Y-63867906D01*
X63706645Y-63867913D01*
X63656403Y-64002620D01*
X63656401Y-64002627D01*
X63650000Y-64062155D01*
X63650000Y-64710000D01*
X64566988Y-64710000D01*
X64534075Y-64767007D01*
X64500000Y-64894174D01*
X64500000Y-65025826D01*
X64534075Y-65152993D01*
X64566988Y-65210000D01*
X63650000Y-65210000D01*
X63650000Y-65857844D01*
X63656401Y-65917372D01*
X63656403Y-65917379D01*
X63706645Y-66052086D01*
X63706649Y-66052093D01*
X63792809Y-66167187D01*
X63792812Y-66167190D01*
X63907906Y-66253350D01*
X63907913Y-66253354D01*
X64039470Y-66302421D01*
X64095403Y-66344292D01*
X64119821Y-66409756D01*
X64104970Y-66478029D01*
X64083819Y-66506284D01*
X63961503Y-66628600D01*
X63825965Y-66822169D01*
X63825964Y-66822171D01*
X63726098Y-67036335D01*
X63726094Y-67036344D01*
X63664938Y-67264586D01*
X63664936Y-67264596D01*
X63644341Y-67499999D01*
X62500500Y-67499999D01*
X62500500Y-60959996D01*
X65234435Y-60959996D01*
X65234435Y-60960003D01*
X65254630Y-61139249D01*
X65254631Y-61139254D01*
X65314211Y-61309523D01*
X65375690Y-61407365D01*
X65410184Y-61462262D01*
X65537738Y-61589816D01*
X65542223Y-61592634D01*
X65680077Y-61679254D01*
X65690478Y-61685789D01*
X65813028Y-61728671D01*
X65860745Y-61745368D01*
X65860750Y-61745369D01*
X66039996Y-61765565D01*
X66040000Y-61765565D01*
X66040004Y-61765565D01*
X66219249Y-61745369D01*
X66219252Y-61745368D01*
X66219255Y-61745368D01*
X66389522Y-61685789D01*
X66542262Y-61589816D01*
X66632082Y-61499996D01*
X69694435Y-61499996D01*
X69694435Y-61500003D01*
X69714630Y-61679249D01*
X69714631Y-61679254D01*
X69774211Y-61849523D01*
X69868760Y-61999996D01*
X69870184Y-62002262D01*
X69997738Y-62129816D01*
X70150478Y-62225789D01*
X70320745Y-62285368D01*
X70320750Y-62285369D01*
X70499996Y-62305565D01*
X70500000Y-62305565D01*
X70500004Y-62305565D01*
X70679249Y-62285369D01*
X70679252Y-62285368D01*
X70679255Y-62285368D01*
X70849522Y-62225789D01*
X71002262Y-62129816D01*
X71129816Y-62002262D01*
X71225789Y-61849522D01*
X71285368Y-61679255D01*
X71288097Y-61655037D01*
X71305565Y-61500003D01*
X71305565Y-61499996D01*
X71285369Y-61320750D01*
X71285368Y-61320745D01*
X71235860Y-61179259D01*
X71225789Y-61150478D01*
X71218736Y-61139254D01*
X71131237Y-61000000D01*
X71129816Y-60997738D01*
X71002262Y-60870184D01*
X70849523Y-60774211D01*
X70679254Y-60714631D01*
X70679249Y-60714630D01*
X70500004Y-60694435D01*
X70499996Y-60694435D01*
X70320750Y-60714630D01*
X70320745Y-60714631D01*
X70150476Y-60774211D01*
X69997737Y-60870184D01*
X69870184Y-60997737D01*
X69774211Y-61150476D01*
X69714631Y-61320745D01*
X69714630Y-61320750D01*
X69694435Y-61499996D01*
X66632082Y-61499996D01*
X66669816Y-61462262D01*
X66765789Y-61309522D01*
X66825368Y-61139255D01*
X66845565Y-60960000D01*
X66835445Y-60870184D01*
X66825369Y-60780750D01*
X66825368Y-60780745D01*
X66807351Y-60729255D01*
X66765789Y-60610478D01*
X66669816Y-60457738D01*
X66542262Y-60330184D01*
X66503081Y-60305565D01*
X66389523Y-60234211D01*
X66219254Y-60174631D01*
X66219249Y-60174630D01*
X66040004Y-60154435D01*
X66039996Y-60154435D01*
X65860750Y-60174630D01*
X65860745Y-60174631D01*
X65690476Y-60234211D01*
X65537737Y-60330184D01*
X65410184Y-60457737D01*
X65314211Y-60610476D01*
X65254631Y-60780745D01*
X65254630Y-60780750D01*
X65234435Y-60959996D01*
X62500500Y-60959996D01*
X62500500Y-54502706D01*
X62500618Y-54497297D01*
X62509659Y-54290219D01*
X62517386Y-54113226D01*
X62518325Y-54102497D01*
X62556150Y-53815193D01*
X62584417Y-53751298D01*
X62642741Y-53712827D01*
X62712606Y-53711996D01*
X62771829Y-53749068D01*
X62801608Y-53812274D01*
X62802919Y-53837870D01*
X62794422Y-53999999D01*
X62794422Y-54000000D01*
X62814722Y-54387339D01*
X62832566Y-54500000D01*
X62875398Y-54770433D01*
X62962266Y-55094631D01*
X62975788Y-55145094D01*
X63114787Y-55507197D01*
X63290877Y-55852793D01*
X63502122Y-56178082D01*
X63562089Y-56252135D01*
X63746219Y-56479516D01*
X64020484Y-56753781D01*
X64028302Y-56760112D01*
X64321917Y-56997877D01*
X64643877Y-57206960D01*
X64647211Y-57209125D01*
X64992806Y-57385214D01*
X65354913Y-57524214D01*
X65729567Y-57624602D01*
X66112662Y-57685278D01*
X66478576Y-57704455D01*
X66499999Y-57705578D01*
X66500000Y-57705578D01*
X66500001Y-57705578D01*
X66520301Y-57704514D01*
X66887338Y-57685278D01*
X67270433Y-57624602D01*
X67645087Y-57524214D01*
X68007194Y-57385214D01*
X68352789Y-57209125D01*
X68678084Y-56997876D01*
X68979516Y-56753781D01*
X69253781Y-56479516D01*
X69497876Y-56178084D01*
X69691457Y-55879996D01*
X70314435Y-55879996D01*
X70314435Y-55880003D01*
X70334630Y-56059249D01*
X70334631Y-56059254D01*
X70394211Y-56229523D01*
X70429301Y-56285368D01*
X70490184Y-56382262D01*
X70617738Y-56509816D01*
X70664802Y-56539388D01*
X70759103Y-56598642D01*
X70770478Y-56605789D01*
X70811614Y-56620183D01*
X70940745Y-56665368D01*
X70940750Y-56665369D01*
X71119996Y-56685565D01*
X71120000Y-56685565D01*
X71120004Y-56685565D01*
X71299249Y-56665369D01*
X71299252Y-56665368D01*
X71299255Y-56665368D01*
X71469522Y-56605789D01*
X71622262Y-56509816D01*
X71749816Y-56382262D01*
X71845789Y-56229522D01*
X71905368Y-56059255D01*
X71905369Y-56059249D01*
X71912045Y-55999996D01*
X73944435Y-55999996D01*
X73944435Y-56000003D01*
X73964630Y-56179249D01*
X73964631Y-56179254D01*
X74024211Y-56349523D01*
X74120184Y-56502262D01*
X74155241Y-56537319D01*
X74188726Y-56598642D01*
X74183742Y-56668334D01*
X74155241Y-56712681D01*
X74120184Y-56747737D01*
X74024211Y-56900476D01*
X73964631Y-57070745D01*
X73964630Y-57070750D01*
X73944435Y-57249996D01*
X73944435Y-57250003D01*
X73964630Y-57429249D01*
X73964631Y-57429254D01*
X74024211Y-57599523D01*
X74078094Y-57685277D01*
X74120184Y-57752262D01*
X74247738Y-57879816D01*
X74283652Y-57902382D01*
X74329943Y-57954717D01*
X74340591Y-58023770D01*
X74322674Y-58073347D01*
X74274212Y-58150474D01*
X74214631Y-58320745D01*
X74214630Y-58320750D01*
X74194435Y-58499996D01*
X74194435Y-58500003D01*
X74214630Y-58679249D01*
X74214633Y-58679262D01*
X74246970Y-58771674D01*
X74250532Y-58841453D01*
X74217611Y-58900309D01*
X74120185Y-58997736D01*
X74120184Y-58997737D01*
X74024211Y-59150476D01*
X73964631Y-59320745D01*
X73964630Y-59320750D01*
X73944435Y-59499996D01*
X73944435Y-59500003D01*
X73964630Y-59679249D01*
X73964631Y-59679254D01*
X74024211Y-59849523D01*
X74074315Y-59929262D01*
X74120184Y-60002262D01*
X74247738Y-60129816D01*
X74286919Y-60154435D01*
X74385449Y-60216346D01*
X74400478Y-60225789D01*
X74515269Y-60265956D01*
X74570745Y-60285368D01*
X74570750Y-60285369D01*
X74749996Y-60305565D01*
X74750000Y-60305565D01*
X74750004Y-60305565D01*
X74929249Y-60285369D01*
X74929252Y-60285368D01*
X74929255Y-60285368D01*
X75099522Y-60225789D01*
X75114551Y-60216346D01*
X75149305Y-60194508D01*
X75176650Y-60177325D01*
X75243887Y-60158325D01*
X75310722Y-60178692D01*
X75347616Y-60216346D01*
X75370182Y-60252260D01*
X75370184Y-60252262D01*
X75497738Y-60379816D01*
X75621750Y-60457738D01*
X75650478Y-60475789D01*
X75698129Y-60492463D01*
X75754905Y-60533185D01*
X75780653Y-60598138D01*
X75774217Y-60650459D01*
X75714632Y-60820742D01*
X75714630Y-60820750D01*
X75694435Y-60999996D01*
X75694435Y-61000003D01*
X75714630Y-61179249D01*
X75714631Y-61179254D01*
X75774211Y-61349523D01*
X75810556Y-61407365D01*
X75870184Y-61502262D01*
X75997738Y-61629816D01*
X76150478Y-61725789D01*
X76320745Y-61785368D01*
X76320750Y-61785369D01*
X76499996Y-61805565D01*
X76500000Y-61805565D01*
X76500004Y-61805565D01*
X76679249Y-61785369D01*
X76679252Y-61785368D01*
X76679255Y-61785368D01*
X76849522Y-61725789D01*
X76931884Y-61674037D01*
X76999118Y-61655037D01*
X77065954Y-61675404D01*
X77111168Y-61728671D01*
X77120407Y-61797928D01*
X77114899Y-61819977D01*
X77114634Y-61820731D01*
X77114630Y-61820750D01*
X77094435Y-61999996D01*
X77094435Y-62000003D01*
X77114630Y-62179249D01*
X77114631Y-62179254D01*
X77174211Y-62349523D01*
X77270184Y-62502262D01*
X77397738Y-62629816D01*
X77488080Y-62686582D01*
X77532721Y-62714632D01*
X77550478Y-62725789D01*
X77688860Y-62774211D01*
X77720745Y-62785368D01*
X77720750Y-62785369D01*
X77899996Y-62805565D01*
X77900000Y-62805565D01*
X77900004Y-62805565D01*
X78079249Y-62785369D01*
X78079252Y-62785368D01*
X78079255Y-62785368D01*
X78249522Y-62725789D01*
X78402262Y-62629816D01*
X78529816Y-62502262D01*
X78625789Y-62349522D01*
X78685368Y-62179255D01*
X78685369Y-62179249D01*
X78705565Y-62000003D01*
X78705565Y-61999996D01*
X78685369Y-61820750D01*
X78685368Y-61820745D01*
X78638145Y-61685789D01*
X78625789Y-61650478D01*
X78529816Y-61497738D01*
X78506467Y-61474389D01*
X78472982Y-61413066D01*
X78477106Y-61345756D01*
X78535368Y-61179255D01*
X78535369Y-61179249D01*
X78555565Y-61000003D01*
X78555565Y-60999996D01*
X78535369Y-60820750D01*
X78535368Y-60820745D01*
X78475788Y-60650476D01*
X78412652Y-60549996D01*
X80944435Y-60549996D01*
X80944435Y-60550003D01*
X80964630Y-60729249D01*
X80964631Y-60729254D01*
X81024211Y-60899523D01*
X81087347Y-61000003D01*
X81120184Y-61052262D01*
X81247738Y-61179816D01*
X81400478Y-61275789D01*
X81528955Y-61320745D01*
X81570745Y-61335368D01*
X81570750Y-61335369D01*
X81749996Y-61355565D01*
X81750000Y-61355565D01*
X81750004Y-61355565D01*
X81929249Y-61335369D01*
X81929251Y-61335368D01*
X81929255Y-61335368D01*
X81929258Y-61335366D01*
X81929262Y-61335366D01*
X82059045Y-61289953D01*
X82128824Y-61286391D01*
X82140955Y-61289953D01*
X82270737Y-61335366D01*
X82270743Y-61335367D01*
X82270745Y-61335368D01*
X82270746Y-61335368D01*
X82270750Y-61335369D01*
X82449996Y-61355565D01*
X82450000Y-61355565D01*
X82450004Y-61355565D01*
X82629249Y-61335369D01*
X82629252Y-61335368D01*
X82629255Y-61335368D01*
X82799522Y-61275789D01*
X82952262Y-61179816D01*
X83079816Y-61052262D01*
X83137791Y-60959996D01*
X85554435Y-60959996D01*
X85554435Y-60960003D01*
X85574630Y-61139249D01*
X85574631Y-61139254D01*
X85634211Y-61309523D01*
X85695690Y-61407365D01*
X85730184Y-61462262D01*
X85857738Y-61589816D01*
X85862223Y-61592634D01*
X86000077Y-61679254D01*
X86010478Y-61685789D01*
X86133028Y-61728671D01*
X86180745Y-61745368D01*
X86180750Y-61745369D01*
X86359996Y-61765565D01*
X86360000Y-61765565D01*
X86360004Y-61765565D01*
X86539249Y-61745369D01*
X86539252Y-61745368D01*
X86539255Y-61745368D01*
X86709522Y-61685789D01*
X86862262Y-61589816D01*
X86989816Y-61462262D01*
X87085789Y-61309522D01*
X87145368Y-61139255D01*
X87165565Y-60960000D01*
X87165565Y-60959996D01*
X105874435Y-60959996D01*
X105874435Y-60960003D01*
X105894630Y-61139249D01*
X105894631Y-61139254D01*
X105954211Y-61309523D01*
X106015690Y-61407365D01*
X106050184Y-61462262D01*
X106177738Y-61589816D01*
X106182223Y-61592634D01*
X106320077Y-61679254D01*
X106330478Y-61685789D01*
X106453028Y-61728671D01*
X106500745Y-61745368D01*
X106500750Y-61745369D01*
X106679996Y-61765565D01*
X106680000Y-61765565D01*
X106680004Y-61765565D01*
X106859249Y-61745369D01*
X106859252Y-61745368D01*
X106859255Y-61745368D01*
X107029522Y-61685789D01*
X107182262Y-61589816D01*
X107309816Y-61462262D01*
X107405789Y-61309522D01*
X107465368Y-61139255D01*
X107485565Y-60960000D01*
X107475445Y-60870184D01*
X107465369Y-60780750D01*
X107465368Y-60780745D01*
X107447351Y-60729255D01*
X107405789Y-60610478D01*
X107309816Y-60457738D01*
X107182262Y-60330184D01*
X107143081Y-60305565D01*
X107029523Y-60234211D01*
X106859254Y-60174631D01*
X106859249Y-60174630D01*
X106680004Y-60154435D01*
X106679996Y-60154435D01*
X106500750Y-60174630D01*
X106500745Y-60174631D01*
X106330476Y-60234211D01*
X106177737Y-60330184D01*
X106050184Y-60457737D01*
X105954211Y-60610476D01*
X105894631Y-60780745D01*
X105894630Y-60780750D01*
X105874435Y-60959996D01*
X87165565Y-60959996D01*
X87155445Y-60870184D01*
X87145369Y-60780750D01*
X87145368Y-60780745D01*
X87127351Y-60729255D01*
X87085789Y-60610478D01*
X86989816Y-60457738D01*
X86862262Y-60330184D01*
X86823081Y-60305565D01*
X86709523Y-60234211D01*
X86539254Y-60174631D01*
X86539249Y-60174630D01*
X86360004Y-60154435D01*
X86359996Y-60154435D01*
X86180750Y-60174630D01*
X86180745Y-60174631D01*
X86010476Y-60234211D01*
X85857737Y-60330184D01*
X85730184Y-60457737D01*
X85634211Y-60610476D01*
X85574631Y-60780745D01*
X85574630Y-60780750D01*
X85554435Y-60959996D01*
X83137791Y-60959996D01*
X83175789Y-60899522D01*
X83235368Y-60729255D01*
X83237016Y-60714630D01*
X83255565Y-60550003D01*
X83255565Y-60549996D01*
X83235369Y-60370750D01*
X83235368Y-60370748D01*
X83235368Y-60370745D01*
X83198698Y-60265951D01*
X83195136Y-60196177D01*
X83198692Y-60184067D01*
X83235368Y-60079255D01*
X83238538Y-60051120D01*
X83255565Y-59900003D01*
X83255565Y-59899996D01*
X83238664Y-59749996D01*
X87944435Y-59749996D01*
X87944435Y-59750003D01*
X87964630Y-59929249D01*
X87964631Y-59929254D01*
X88024211Y-60099523D01*
X88084943Y-60196177D01*
X88120184Y-60252262D01*
X88247738Y-60379816D01*
X88400478Y-60475789D01*
X88564506Y-60533185D01*
X88570745Y-60535368D01*
X88570750Y-60535369D01*
X88749996Y-60555565D01*
X88750000Y-60555565D01*
X88750004Y-60555565D01*
X88929249Y-60535369D01*
X88929252Y-60535368D01*
X88929255Y-60535368D01*
X89099522Y-60475789D01*
X89252262Y-60379816D01*
X89379816Y-60252262D01*
X89475789Y-60099522D01*
X89535368Y-59929255D01*
X89538664Y-59900003D01*
X89555565Y-59750003D01*
X89555565Y-59749996D01*
X89535369Y-59570750D01*
X89535368Y-59570745D01*
X89475788Y-59400476D01*
X89430325Y-59328123D01*
X89379816Y-59247738D01*
X89252262Y-59120184D01*
X89243426Y-59114632D01*
X89099523Y-59024211D01*
X88929254Y-58964631D01*
X88929249Y-58964630D01*
X88750004Y-58944435D01*
X88749996Y-58944435D01*
X88570750Y-58964630D01*
X88570745Y-58964631D01*
X88400476Y-59024211D01*
X88247737Y-59120184D01*
X88120184Y-59247737D01*
X88024211Y-59400476D01*
X87964631Y-59570745D01*
X87964630Y-59570750D01*
X87944435Y-59749996D01*
X83238664Y-59749996D01*
X83235369Y-59720750D01*
X83235368Y-59720745D01*
X83220848Y-59679249D01*
X83175789Y-59550478D01*
X83079816Y-59397738D01*
X82952262Y-59270184D01*
X82933277Y-59258255D01*
X82799523Y-59174211D01*
X82629254Y-59114631D01*
X82629249Y-59114630D01*
X82450004Y-59094435D01*
X82449996Y-59094435D01*
X82270747Y-59114631D01*
X82165954Y-59151299D01*
X82096175Y-59154860D01*
X82084046Y-59151299D01*
X81979252Y-59114631D01*
X81800004Y-59094435D01*
X81799996Y-59094435D01*
X81620750Y-59114630D01*
X81620745Y-59114631D01*
X81450476Y-59174211D01*
X81297737Y-59270184D01*
X81170184Y-59397737D01*
X81074211Y-59550476D01*
X81014631Y-59720745D01*
X81014630Y-59720750D01*
X80994435Y-59899996D01*
X80994435Y-59900003D01*
X81014631Y-60079253D01*
X81014632Y-60079257D01*
X81026299Y-60112602D01*
X81029860Y-60182381D01*
X81026299Y-60194508D01*
X80964632Y-60370742D01*
X80964630Y-60370750D01*
X80944435Y-60549996D01*
X78412652Y-60549996D01*
X78403461Y-60535369D01*
X78379816Y-60497738D01*
X78252262Y-60370184D01*
X78219379Y-60349522D01*
X78099523Y-60274211D01*
X77929254Y-60214631D01*
X77929250Y-60214630D01*
X77849269Y-60205619D01*
X77784855Y-60178552D01*
X77745300Y-60120957D01*
X77743163Y-60051120D01*
X77746112Y-60041444D01*
X77785366Y-59929262D01*
X77785369Y-59929249D01*
X77805565Y-59750003D01*
X77805565Y-59749996D01*
X77785369Y-59570750D01*
X77785368Y-59570745D01*
X77725788Y-59400476D01*
X77680325Y-59328123D01*
X77629816Y-59247738D01*
X77502262Y-59120184D01*
X77493426Y-59114632D01*
X77349523Y-59024211D01*
X77179254Y-58964631D01*
X77179249Y-58964630D01*
X77000004Y-58944435D01*
X76999996Y-58944435D01*
X76820750Y-58964630D01*
X76820737Y-58964633D01*
X76650479Y-59024209D01*
X76565971Y-59077309D01*
X76498734Y-59096309D01*
X76434029Y-59077309D01*
X76349520Y-59024209D01*
X76179262Y-58964633D01*
X76179249Y-58964630D01*
X76000004Y-58944435D01*
X75999996Y-58944435D01*
X75876063Y-58958398D01*
X75807241Y-58946343D01*
X75755862Y-58898994D01*
X75738238Y-58831383D01*
X75745139Y-58794223D01*
X75785366Y-58679262D01*
X75785369Y-58679249D01*
X75805565Y-58500003D01*
X75805565Y-58499996D01*
X75785369Y-58320750D01*
X75785368Y-58320745D01*
X75772989Y-58285368D01*
X75725789Y-58150478D01*
X75725786Y-58150474D01*
X75653461Y-58035369D01*
X75629816Y-57997738D01*
X75502262Y-57870184D01*
X75502260Y-57870182D01*
X75466346Y-57847616D01*
X75420056Y-57795281D01*
X75409408Y-57726228D01*
X75427326Y-57676650D01*
X75475788Y-57599524D01*
X75510613Y-57500000D01*
X75510614Y-57499996D01*
X87444435Y-57499996D01*
X87444435Y-57500003D01*
X87464630Y-57679249D01*
X87464631Y-57679254D01*
X87524211Y-57849523D01*
X87590309Y-57954717D01*
X87620184Y-58002262D01*
X87747738Y-58129816D01*
X87900478Y-58225789D01*
X88070745Y-58285368D01*
X88070750Y-58285369D01*
X88249996Y-58305565D01*
X88250000Y-58305565D01*
X88250004Y-58305565D01*
X88429249Y-58285369D01*
X88429252Y-58285368D01*
X88429255Y-58285368D01*
X88599522Y-58225789D01*
X88752262Y-58129816D01*
X88879816Y-58002262D01*
X88975789Y-57849522D01*
X89035368Y-57679255D01*
X89051144Y-57539233D01*
X89067308Y-57500763D01*
X89281203Y-57500763D01*
X89296504Y-57531723D01*
X89298017Y-57543851D01*
X89313777Y-57754155D01*
X89370490Y-58002630D01*
X89370492Y-58002637D01*
X89463607Y-58239888D01*
X89591041Y-58460612D01*
X89749950Y-58659877D01*
X89936783Y-58833232D01*
X90147366Y-58976805D01*
X90147371Y-58976807D01*
X90147372Y-58976808D01*
X90147373Y-58976809D01*
X90269328Y-59035538D01*
X90376992Y-59087387D01*
X90376993Y-59087387D01*
X90376996Y-59087389D01*
X90620542Y-59162513D01*
X90668662Y-59169766D01*
X90732017Y-59199221D01*
X90769391Y-59258255D01*
X90768916Y-59328123D01*
X90737861Y-59380061D01*
X90620183Y-59497739D01*
X90524211Y-59650476D01*
X90464631Y-59820745D01*
X90464630Y-59820750D01*
X90444435Y-59999996D01*
X90444435Y-60000003D01*
X90464630Y-60179249D01*
X90464631Y-60179254D01*
X90524211Y-60349523D01*
X90592207Y-60457737D01*
X90620184Y-60502262D01*
X90747738Y-60629816D01*
X90838080Y-60686582D01*
X90882721Y-60714632D01*
X90900478Y-60725789D01*
X91038860Y-60774211D01*
X91070745Y-60785368D01*
X91070750Y-60785369D01*
X91249996Y-60805565D01*
X91250000Y-60805565D01*
X91250004Y-60805565D01*
X91429249Y-60785369D01*
X91429252Y-60785368D01*
X91429255Y-60785368D01*
X91599522Y-60725789D01*
X91752262Y-60629816D01*
X91879816Y-60502262D01*
X91975789Y-60349522D01*
X92035368Y-60179255D01*
X92035369Y-60179249D01*
X92055565Y-60000003D01*
X92055565Y-59999997D01*
X92047960Y-59932503D01*
X92060014Y-59863681D01*
X92107363Y-59812301D01*
X92174973Y-59794677D01*
X92241379Y-59816403D01*
X92276174Y-59852647D01*
X92324315Y-59929262D01*
X92370184Y-60002262D01*
X92497738Y-60129816D01*
X92536919Y-60154435D01*
X92635449Y-60216346D01*
X92650478Y-60225789D01*
X92765269Y-60265956D01*
X92820745Y-60285368D01*
X92820750Y-60285369D01*
X92999996Y-60305565D01*
X93000000Y-60305565D01*
X93000004Y-60305565D01*
X93179249Y-60285369D01*
X93179252Y-60285368D01*
X93179255Y-60285368D01*
X93349522Y-60225789D01*
X93502262Y-60129816D01*
X93629816Y-60002262D01*
X93725789Y-59849522D01*
X93785368Y-59679255D01*
X93785369Y-59679249D01*
X93805565Y-59500003D01*
X93805565Y-59499996D01*
X93785369Y-59320750D01*
X93785368Y-59320745D01*
X93741050Y-59194091D01*
X93725789Y-59150478D01*
X93721590Y-59143796D01*
X93679814Y-59077309D01*
X93629816Y-58997738D01*
X93502262Y-58870184D01*
X93456537Y-58841453D01*
X93349523Y-58774211D01*
X93179254Y-58714631D01*
X93179249Y-58714630D01*
X93000004Y-58694435D01*
X92999996Y-58694435D01*
X92820750Y-58714630D01*
X92820745Y-58714631D01*
X92650476Y-58774211D01*
X92497737Y-58870184D01*
X92370184Y-58997737D01*
X92274211Y-59150476D01*
X92214631Y-59320745D01*
X92214630Y-59320750D01*
X92194435Y-59499996D01*
X92194435Y-59500004D01*
X92202039Y-59567497D01*
X92189984Y-59636319D01*
X92142635Y-59687698D01*
X92075024Y-59705322D01*
X92008618Y-59683595D01*
X91973825Y-59647352D01*
X91941152Y-59595354D01*
X91879816Y-59497738D01*
X91752262Y-59370184D01*
X91631360Y-59294216D01*
X91585070Y-59241882D01*
X91574422Y-59172829D01*
X91602797Y-59108980D01*
X91643532Y-59077503D01*
X91684972Y-59057547D01*
X91852634Y-58976805D01*
X92063217Y-58833232D01*
X92250050Y-58659877D01*
X92408959Y-58460612D01*
X92536393Y-58239888D01*
X92629508Y-58002637D01*
X92629964Y-58000637D01*
X92630321Y-57999998D01*
X92630879Y-57998192D01*
X92631265Y-57998311D01*
X92664069Y-57939657D01*
X92725729Y-57906796D01*
X92795366Y-57912486D01*
X92816829Y-57923229D01*
X92895351Y-57972568D01*
X92900478Y-57975789D01*
X93037600Y-58023770D01*
X93070745Y-58035368D01*
X93070750Y-58035369D01*
X93249996Y-58055565D01*
X93250000Y-58055565D01*
X93250004Y-58055565D01*
X93429249Y-58035369D01*
X93429252Y-58035368D01*
X93429255Y-58035368D01*
X93599522Y-57975789D01*
X93752262Y-57879816D01*
X93879816Y-57752262D01*
X93975789Y-57599522D01*
X94035368Y-57429255D01*
X94040331Y-57385212D01*
X94052280Y-57279155D01*
X94063424Y-57252633D01*
X94061665Y-57249896D01*
X94286892Y-57249896D01*
X94297640Y-57271643D01*
X94299500Y-57293038D01*
X94299500Y-58747870D01*
X94299501Y-58747876D01*
X94305908Y-58807483D01*
X94356202Y-58942328D01*
X94356206Y-58942335D01*
X94442452Y-59057544D01*
X94442455Y-59057547D01*
X94557664Y-59143793D01*
X94557671Y-59143797D01*
X94692517Y-59194091D01*
X94692516Y-59194091D01*
X94699444Y-59194835D01*
X94752127Y-59200500D01*
X97247872Y-59200499D01*
X97307483Y-59194091D01*
X97442331Y-59143796D01*
X97557546Y-59057546D01*
X97643796Y-58942331D01*
X97694091Y-58807483D01*
X97700500Y-58747873D01*
X97700499Y-56252128D01*
X97694091Y-56192517D01*
X97689144Y-56179254D01*
X97643797Y-56057671D01*
X97643793Y-56057664D01*
X97557547Y-55942455D01*
X97557544Y-55942452D01*
X97442335Y-55856206D01*
X97442328Y-55856202D01*
X97307482Y-55805908D01*
X97307483Y-55805908D01*
X97247883Y-55799501D01*
X97247881Y-55799500D01*
X97247873Y-55799500D01*
X97247864Y-55799500D01*
X94752129Y-55799500D01*
X94752123Y-55799501D01*
X94692516Y-55805908D01*
X94557671Y-55856202D01*
X94557664Y-55856206D01*
X94442455Y-55942452D01*
X94442452Y-55942455D01*
X94356206Y-56057664D01*
X94356202Y-56057671D01*
X94305908Y-56192517D01*
X94301930Y-56229522D01*
X94299501Y-56252123D01*
X94299500Y-56252135D01*
X94299500Y-57206960D01*
X94286892Y-57249896D01*
X94061665Y-57249896D01*
X94056523Y-57241895D01*
X94052280Y-57220843D01*
X94035369Y-57070750D01*
X94035368Y-57070745D01*
X94009821Y-56997737D01*
X93975789Y-56900478D01*
X93879816Y-56747738D01*
X93752262Y-56620184D01*
X93690961Y-56581666D01*
X93599523Y-56524211D01*
X93429254Y-56464631D01*
X93429249Y-56464630D01*
X93250004Y-56444435D01*
X93249996Y-56444435D01*
X93070750Y-56464630D01*
X93070745Y-56464631D01*
X92900476Y-56524211D01*
X92747739Y-56620183D01*
X92676801Y-56691121D01*
X92615477Y-56724605D01*
X92545786Y-56719620D01*
X92489852Y-56677749D01*
X92481743Y-56665454D01*
X92408959Y-56539388D01*
X92250050Y-56340123D01*
X92063217Y-56166768D01*
X91852634Y-56023195D01*
X91852630Y-56023193D01*
X91852627Y-56023191D01*
X91852626Y-56023190D01*
X91623006Y-55912612D01*
X91623008Y-55912612D01*
X91498441Y-55874188D01*
X91440182Y-55835617D01*
X91412024Y-55771672D01*
X91422908Y-55702656D01*
X91469017Y-55650705D01*
X91502262Y-55629816D01*
X91629816Y-55502262D01*
X91725789Y-55349522D01*
X91760615Y-55249996D01*
X92444435Y-55249996D01*
X92444435Y-55250003D01*
X92464630Y-55429249D01*
X92464631Y-55429254D01*
X92524211Y-55599523D01*
X92587817Y-55700750D01*
X92620184Y-55752262D01*
X92747738Y-55879816D01*
X92799934Y-55912613D01*
X92847422Y-55942452D01*
X92900478Y-55975789D01*
X93035942Y-56023190D01*
X93070745Y-56035368D01*
X93070750Y-56035369D01*
X93249996Y-56055565D01*
X93250000Y-56055565D01*
X93250004Y-56055565D01*
X93429249Y-56035369D01*
X93429252Y-56035368D01*
X93429255Y-56035368D01*
X93599522Y-55975789D01*
X93752262Y-55879816D01*
X93879816Y-55752262D01*
X93975789Y-55599522D01*
X94035368Y-55429255D01*
X94044352Y-55349522D01*
X94055565Y-55250003D01*
X94055565Y-55249996D01*
X94035369Y-55070750D01*
X94035368Y-55070745D01*
X93975788Y-54900476D01*
X93936582Y-54838080D01*
X93879816Y-54747738D01*
X93752262Y-54620184D01*
X93599523Y-54524211D01*
X93429254Y-54464631D01*
X93429249Y-54464630D01*
X93250004Y-54444435D01*
X93249996Y-54444435D01*
X93070750Y-54464630D01*
X93070745Y-54464631D01*
X92900476Y-54524211D01*
X92747737Y-54620184D01*
X92620184Y-54747737D01*
X92524211Y-54900476D01*
X92464631Y-55070745D01*
X92464630Y-55070750D01*
X92444435Y-55249996D01*
X91760615Y-55249996D01*
X91785368Y-55179255D01*
X91788190Y-55154211D01*
X91805565Y-55000003D01*
X91805565Y-54999996D01*
X91785369Y-54820750D01*
X91785368Y-54820745D01*
X91725788Y-54650476D01*
X91646450Y-54524211D01*
X91629816Y-54497738D01*
X91502262Y-54370184D01*
X91374999Y-54290219D01*
X91349523Y-54274211D01*
X91179254Y-54214631D01*
X91179249Y-54214630D01*
X91000004Y-54194435D01*
X90999996Y-54194435D01*
X90820750Y-54214630D01*
X90820745Y-54214631D01*
X90650476Y-54274211D01*
X90497737Y-54370184D01*
X90370184Y-54497737D01*
X90274211Y-54650476D01*
X90214631Y-54820745D01*
X90214630Y-54820750D01*
X90194435Y-54999996D01*
X90194435Y-55000003D01*
X90214630Y-55179249D01*
X90214631Y-55179254D01*
X90274211Y-55349523D01*
X90367341Y-55497737D01*
X90370184Y-55502262D01*
X90497738Y-55629816D01*
X90530980Y-55650703D01*
X90577271Y-55703038D01*
X90587919Y-55772091D01*
X90559544Y-55835940D01*
X90501559Y-55874188D01*
X90376990Y-55912613D01*
X90147373Y-56023190D01*
X90147372Y-56023191D01*
X90147366Y-56023194D01*
X90147366Y-56023195D01*
X90129510Y-56035369D01*
X89936782Y-56166768D01*
X89749952Y-56340121D01*
X89749950Y-56340123D01*
X89591041Y-56539388D01*
X89463608Y-56760109D01*
X89370492Y-56997362D01*
X89370490Y-56997369D01*
X89313777Y-57245844D01*
X89298017Y-57456148D01*
X89281203Y-57500763D01*
X89067308Y-57500763D01*
X89067715Y-57499795D01*
X89053109Y-57472827D01*
X89051144Y-57460764D01*
X89035369Y-57320749D01*
X89035368Y-57320745D01*
X89018186Y-57271643D01*
X88975789Y-57150478D01*
X88879816Y-56997738D01*
X88752262Y-56870184D01*
X88695594Y-56834577D01*
X88599523Y-56774211D01*
X88429254Y-56714631D01*
X88429249Y-56714630D01*
X88250004Y-56694435D01*
X88249996Y-56694435D01*
X88070750Y-56714630D01*
X88070745Y-56714631D01*
X87900476Y-56774211D01*
X87747737Y-56870184D01*
X87620184Y-56997737D01*
X87524211Y-57150476D01*
X87464631Y-57320745D01*
X87464630Y-57320750D01*
X87444435Y-57499996D01*
X75510614Y-57499996D01*
X75535368Y-57429255D01*
X75535369Y-57429249D01*
X75555565Y-57250003D01*
X75555565Y-57249996D01*
X75535369Y-57070750D01*
X75535368Y-57070745D01*
X75509821Y-56997737D01*
X75475789Y-56900478D01*
X75379816Y-56747738D01*
X75344759Y-56712681D01*
X75311274Y-56651358D01*
X75316258Y-56581666D01*
X75344759Y-56537319D01*
X75357867Y-56524211D01*
X75379816Y-56502262D01*
X75475789Y-56349522D01*
X75535368Y-56179255D01*
X75536775Y-56166768D01*
X75555565Y-56000003D01*
X75555565Y-55999996D01*
X75535369Y-55820750D01*
X75535368Y-55820745D01*
X75511405Y-55752262D01*
X75475789Y-55650478D01*
X75379816Y-55497738D01*
X75252262Y-55370184D01*
X75219379Y-55349522D01*
X75099523Y-55274211D01*
X74929254Y-55214631D01*
X74929249Y-55214630D01*
X74750004Y-55194435D01*
X74749996Y-55194435D01*
X74570750Y-55214630D01*
X74570745Y-55214631D01*
X74400476Y-55274211D01*
X74247737Y-55370184D01*
X74120184Y-55497737D01*
X74024211Y-55650476D01*
X73964631Y-55820745D01*
X73964630Y-55820750D01*
X73944435Y-55999996D01*
X71912045Y-55999996D01*
X71925565Y-55880003D01*
X71925565Y-55879996D01*
X71905369Y-55700750D01*
X71905368Y-55700745D01*
X71897846Y-55679249D01*
X71845789Y-55530478D01*
X71826638Y-55500000D01*
X71782186Y-55429254D01*
X71749816Y-55377738D01*
X71622262Y-55250184D01*
X71621963Y-55249996D01*
X71469523Y-55154211D01*
X71299254Y-55094631D01*
X71299249Y-55094630D01*
X71120004Y-55074435D01*
X71119996Y-55074435D01*
X70940750Y-55094630D01*
X70940745Y-55094631D01*
X70770476Y-55154211D01*
X70617737Y-55250184D01*
X70490184Y-55377737D01*
X70394211Y-55530476D01*
X70334631Y-55700745D01*
X70334630Y-55700750D01*
X70314435Y-55879996D01*
X69691457Y-55879996D01*
X69709125Y-55852789D01*
X69885214Y-55507194D01*
X70024214Y-55145087D01*
X70063091Y-54999996D01*
X84944435Y-54999996D01*
X84944435Y-55000003D01*
X84964630Y-55179249D01*
X84964631Y-55179254D01*
X85024211Y-55349523D01*
X85117341Y-55497737D01*
X85120184Y-55502262D01*
X85247738Y-55629816D01*
X85400478Y-55725789D01*
X85531604Y-55771672D01*
X85570745Y-55785368D01*
X85570750Y-55785369D01*
X85749996Y-55805565D01*
X85750000Y-55805565D01*
X85750004Y-55805565D01*
X85929249Y-55785369D01*
X85929251Y-55785368D01*
X85929255Y-55785368D01*
X85929258Y-55785366D01*
X85929262Y-55785366D01*
X86084045Y-55731205D01*
X86153824Y-55727643D01*
X86165955Y-55731205D01*
X86320737Y-55785366D01*
X86320743Y-55785367D01*
X86320745Y-55785368D01*
X86320746Y-55785368D01*
X86320750Y-55785369D01*
X86499996Y-55805565D01*
X86500000Y-55805565D01*
X86500004Y-55805565D01*
X86679249Y-55785369D01*
X86679252Y-55785368D01*
X86679255Y-55785368D01*
X86849522Y-55725789D01*
X87002262Y-55629816D01*
X87129816Y-55502262D01*
X87131240Y-55499996D01*
X87944435Y-55499996D01*
X87944435Y-55500003D01*
X87964630Y-55679249D01*
X87964631Y-55679254D01*
X88024211Y-55849523D01*
X88103549Y-55975788D01*
X88120184Y-56002262D01*
X88247738Y-56129816D01*
X88400478Y-56225789D01*
X88475771Y-56252135D01*
X88570745Y-56285368D01*
X88570750Y-56285369D01*
X88749996Y-56305565D01*
X88750000Y-56305565D01*
X88750004Y-56305565D01*
X88929249Y-56285369D01*
X88929252Y-56285368D01*
X88929255Y-56285368D01*
X89099522Y-56225789D01*
X89252262Y-56129816D01*
X89379816Y-56002262D01*
X89475789Y-55849522D01*
X89535368Y-55679255D01*
X89538585Y-55650702D01*
X89555565Y-55500003D01*
X89555565Y-55499996D01*
X89535369Y-55320750D01*
X89535368Y-55320745D01*
X89491170Y-55194435D01*
X89475789Y-55150478D01*
X89379816Y-54997738D01*
X89252262Y-54870184D01*
X89099523Y-54774211D01*
X88929254Y-54714631D01*
X88929249Y-54714630D01*
X88750004Y-54694435D01*
X88749996Y-54694435D01*
X88570750Y-54714630D01*
X88570745Y-54714631D01*
X88400476Y-54774211D01*
X88247737Y-54870184D01*
X88120184Y-54997737D01*
X88024211Y-55150476D01*
X87964631Y-55320745D01*
X87964630Y-55320750D01*
X87944435Y-55499996D01*
X87131240Y-55499996D01*
X87225789Y-55349522D01*
X87285368Y-55179255D01*
X87288190Y-55154211D01*
X87305565Y-55000003D01*
X87305565Y-54999996D01*
X87285369Y-54820750D01*
X87285368Y-54820745D01*
X87225788Y-54650476D01*
X87146450Y-54524211D01*
X87129816Y-54497738D01*
X87002262Y-54370184D01*
X86874999Y-54290219D01*
X86849523Y-54274211D01*
X86679254Y-54214631D01*
X86679249Y-54214630D01*
X86500004Y-54194435D01*
X86499996Y-54194435D01*
X86320750Y-54214630D01*
X86320742Y-54214632D01*
X86165954Y-54268795D01*
X86096176Y-54272356D01*
X86084046Y-54268795D01*
X85929257Y-54214632D01*
X85929249Y-54214630D01*
X85750004Y-54194435D01*
X85749996Y-54194435D01*
X85570750Y-54214630D01*
X85570745Y-54214631D01*
X85400476Y-54274211D01*
X85247737Y-54370184D01*
X85120184Y-54497737D01*
X85024211Y-54650476D01*
X84964631Y-54820745D01*
X84964630Y-54820750D01*
X84944435Y-54999996D01*
X70063091Y-54999996D01*
X70124602Y-54770433D01*
X70185278Y-54387338D01*
X70205578Y-54000000D01*
X70185278Y-53612662D01*
X70124602Y-53229567D01*
X70063089Y-52999996D01*
X70694435Y-52999996D01*
X70694435Y-53000003D01*
X70714630Y-53179249D01*
X70714631Y-53179254D01*
X70774211Y-53349523D01*
X70868760Y-53499996D01*
X70870184Y-53502262D01*
X70997738Y-53629816D01*
X71076410Y-53679249D01*
X71143551Y-53721437D01*
X71150478Y-53725789D01*
X71217006Y-53749068D01*
X71320745Y-53785368D01*
X71320750Y-53785369D01*
X71499996Y-53805565D01*
X71500000Y-53805565D01*
X71500004Y-53805565D01*
X71679249Y-53785369D01*
X71679252Y-53785368D01*
X71679255Y-53785368D01*
X71849522Y-53725789D01*
X72002262Y-53629816D01*
X72129816Y-53502262D01*
X72131240Y-53499996D01*
X86944435Y-53499996D01*
X86944435Y-53500003D01*
X86964630Y-53679249D01*
X86964631Y-53679254D01*
X87024211Y-53849523D01*
X87118762Y-53999999D01*
X87120184Y-54002262D01*
X87247738Y-54129816D01*
X87338080Y-54186582D01*
X87382721Y-54214632D01*
X87400478Y-54225789D01*
X87523382Y-54268795D01*
X87570745Y-54285368D01*
X87570750Y-54285369D01*
X87749996Y-54305565D01*
X87750000Y-54305565D01*
X87750004Y-54305565D01*
X87929249Y-54285369D01*
X87929252Y-54285368D01*
X87929255Y-54285368D01*
X88099522Y-54225789D01*
X88252262Y-54129816D01*
X88379816Y-54002262D01*
X88475789Y-53849522D01*
X88535368Y-53679255D01*
X88535369Y-53679249D01*
X88555565Y-53500003D01*
X88555565Y-53499996D01*
X88535369Y-53320750D01*
X88535368Y-53320745D01*
X88503463Y-53229567D01*
X88475789Y-53150478D01*
X88379816Y-52997738D01*
X88252262Y-52870184D01*
X88099523Y-52774211D01*
X87929254Y-52714631D01*
X87929249Y-52714630D01*
X87750004Y-52694435D01*
X87749996Y-52694435D01*
X87570750Y-52714630D01*
X87570745Y-52714631D01*
X87400476Y-52774211D01*
X87247737Y-52870184D01*
X87120184Y-52997737D01*
X87024211Y-53150476D01*
X86964631Y-53320745D01*
X86964630Y-53320750D01*
X86944435Y-53499996D01*
X72131240Y-53499996D01*
X72225789Y-53349522D01*
X72285368Y-53179255D01*
X72285369Y-53179249D01*
X72305565Y-53000003D01*
X72305565Y-52999996D01*
X72285369Y-52820750D01*
X72285368Y-52820745D01*
X72225788Y-52650476D01*
X72153461Y-52535369D01*
X72129816Y-52497738D01*
X72002262Y-52370184D01*
X71969379Y-52349522D01*
X71849523Y-52274211D01*
X71679254Y-52214631D01*
X71679249Y-52214630D01*
X71500004Y-52194435D01*
X71499996Y-52194435D01*
X71320750Y-52214630D01*
X71320745Y-52214631D01*
X71150476Y-52274211D01*
X70997737Y-52370184D01*
X70870184Y-52497737D01*
X70774211Y-52650476D01*
X70714631Y-52820745D01*
X70714630Y-52820750D01*
X70694435Y-52999996D01*
X70063089Y-52999996D01*
X70024214Y-52854913D01*
X69885214Y-52492806D01*
X69709125Y-52147211D01*
X69678156Y-52099523D01*
X69497877Y-51821917D01*
X69439636Y-51749996D01*
X72194435Y-51749996D01*
X72194435Y-51750003D01*
X72214630Y-51929249D01*
X72214631Y-51929254D01*
X72274211Y-52099523D01*
X72333849Y-52194435D01*
X72370184Y-52252262D01*
X72497738Y-52379816D01*
X72650478Y-52475789D01*
X72820745Y-52535368D01*
X72820750Y-52535369D01*
X72999996Y-52555565D01*
X73000000Y-52555565D01*
X73000004Y-52555565D01*
X73179249Y-52535369D01*
X73179252Y-52535368D01*
X73179255Y-52535368D01*
X73349522Y-52475789D01*
X73502262Y-52379816D01*
X73629816Y-52252262D01*
X73725789Y-52099522D01*
X73785368Y-51929255D01*
X73797463Y-51821912D01*
X73805565Y-51750003D01*
X73805565Y-51749996D01*
X73785369Y-51570750D01*
X73785368Y-51570745D01*
X73784839Y-51569234D01*
X73725789Y-51400478D01*
X73721558Y-51393745D01*
X73629815Y-51247737D01*
X73502262Y-51120184D01*
X73349523Y-51024211D01*
X73179254Y-50964631D01*
X73179249Y-50964630D01*
X73000004Y-50944435D01*
X72999996Y-50944435D01*
X72820750Y-50964630D01*
X72820745Y-50964631D01*
X72650476Y-51024211D01*
X72497737Y-51120184D01*
X72370184Y-51247737D01*
X72274211Y-51400476D01*
X72214631Y-51570745D01*
X72214630Y-51570750D01*
X72194435Y-51749996D01*
X69439636Y-51749996D01*
X69359048Y-51650478D01*
X69253781Y-51520484D01*
X68979516Y-51246219D01*
X68860108Y-51149524D01*
X68678082Y-51002122D01*
X68352793Y-50790877D01*
X68007197Y-50614787D01*
X67645094Y-50475788D01*
X67645087Y-50475786D01*
X67270433Y-50375398D01*
X67270429Y-50375397D01*
X67270428Y-50375397D01*
X66887339Y-50314722D01*
X66500001Y-50294422D01*
X66499999Y-50294422D01*
X66337870Y-50302919D01*
X66269892Y-50286770D01*
X66221436Y-50236433D01*
X66207887Y-50167890D01*
X66233546Y-50102902D01*
X66290266Y-50062103D01*
X66315191Y-50056150D01*
X66602497Y-50018325D01*
X66613226Y-50017386D01*
X66997297Y-50000617D01*
X67002706Y-50000500D01*
X67065892Y-50000500D01*
X70488060Y-50000500D01*
X70555099Y-50020185D01*
G37*
%TD.AperFunction*%
%TD*%
M02*
