%TF.GenerationSoftware,KiCad,Pcbnew,8.0.5*%
%TF.CreationDate,2024-09-18T15:37:43+10:00*%
%TF.ProjectId,mppt-board,6d707074-2d62-46f6-9172-642e6b696361,rev?*%
%TF.SameCoordinates,Original*%
%TF.FileFunction,Copper,L1,Top*%
%TF.FilePolarity,Positive*%
%FSLAX46Y46*%
G04 Gerber Fmt 4.6, Leading zero omitted, Abs format (unit mm)*
G04 Created by KiCad (PCBNEW 8.0.5) date 2024-09-18 15:37:43*
%MOMM*%
%LPD*%
G01*
G04 APERTURE LIST*
G04 Aperture macros list*
%AMRoundRect*
0 Rectangle with rounded corners*
0 $1 Rounding radius*
0 $2 $3 $4 $5 $6 $7 $8 $9 X,Y pos of 4 corners*
0 Add a 4 corners polygon primitive as box body*
4,1,4,$2,$3,$4,$5,$6,$7,$8,$9,$2,$3,0*
0 Add four circle primitives for the rounded corners*
1,1,$1+$1,$2,$3*
1,1,$1+$1,$4,$5*
1,1,$1+$1,$6,$7*
1,1,$1+$1,$8,$9*
0 Add four rect primitives between the rounded corners*
20,1,$1+$1,$2,$3,$4,$5,0*
20,1,$1+$1,$4,$5,$6,$7,0*
20,1,$1+$1,$6,$7,$8,$9,0*
20,1,$1+$1,$8,$9,$2,$3,0*%
G04 Aperture macros list end*
%TA.AperFunction,Conductor*%
%ADD10C,0.200000*%
%TD*%
%TA.AperFunction,SMDPad,CuDef*%
%ADD11R,5.750000X20.000000*%
%TD*%
%TA.AperFunction,SMDPad,CuDef*%
%ADD12R,1.200000X1.500000*%
%TD*%
%TA.AperFunction,SMDPad,CuDef*%
%ADD13RoundRect,0.250000X-1.425000X0.362500X-1.425000X-0.362500X1.425000X-0.362500X1.425000X0.362500X0*%
%TD*%
%TA.AperFunction,SMDPad,CuDef*%
%ADD14RoundRect,0.250000X-0.262500X-0.450000X0.262500X-0.450000X0.262500X0.450000X-0.262500X0.450000X0*%
%TD*%
%TA.AperFunction,SMDPad,CuDef*%
%ADD15RoundRect,0.250000X0.262500X0.450000X-0.262500X0.450000X-0.262500X-0.450000X0.262500X-0.450000X0*%
%TD*%
%TA.AperFunction,ComponentPad*%
%ADD16C,6.400000*%
%TD*%
%TA.AperFunction,ComponentPad*%
%ADD17R,2.400000X2.400000*%
%TD*%
%TA.AperFunction,ComponentPad*%
%ADD18C,2.400000*%
%TD*%
%TA.AperFunction,SMDPad,CuDef*%
%ADD19RoundRect,0.150000X-0.825000X-0.150000X0.825000X-0.150000X0.825000X0.150000X-0.825000X0.150000X0*%
%TD*%
%TA.AperFunction,SMDPad,CuDef*%
%ADD20RoundRect,0.250000X-0.475000X0.250000X-0.475000X-0.250000X0.475000X-0.250000X0.475000X0.250000X0*%
%TD*%
%TA.AperFunction,SMDPad,CuDef*%
%ADD21RoundRect,0.150000X-0.512500X-0.150000X0.512500X-0.150000X0.512500X0.150000X-0.512500X0.150000X0*%
%TD*%
%TA.AperFunction,SMDPad,CuDef*%
%ADD22RoundRect,0.250000X0.475000X-0.250000X0.475000X0.250000X-0.475000X0.250000X-0.475000X-0.250000X0*%
%TD*%
%TA.AperFunction,ComponentPad*%
%ADD23R,1.700000X1.700000*%
%TD*%
%TA.AperFunction,ComponentPad*%
%ADD24O,1.700000X1.700000*%
%TD*%
%TA.AperFunction,SMDPad,CuDef*%
%ADD25RoundRect,0.250000X-0.250000X-0.475000X0.250000X-0.475000X0.250000X0.475000X-0.250000X0.475000X0*%
%TD*%
%TA.AperFunction,SMDPad,CuDef*%
%ADD26RoundRect,0.250000X-0.350000X0.850000X-0.350000X-0.850000X0.350000X-0.850000X0.350000X0.850000X0*%
%TD*%
%TA.AperFunction,SMDPad,CuDef*%
%ADD27RoundRect,0.250000X-1.125000X1.275000X-1.125000X-1.275000X1.125000X-1.275000X1.125000X1.275000X0*%
%TD*%
%TA.AperFunction,SMDPad,CuDef*%
%ADD28RoundRect,0.249997X-2.650003X2.950003X-2.650003X-2.950003X2.650003X-2.950003X2.650003X2.950003X0*%
%TD*%
%TA.AperFunction,SMDPad,CuDef*%
%ADD29RoundRect,0.250000X0.250000X0.475000X-0.250000X0.475000X-0.250000X-0.475000X0.250000X-0.475000X0*%
%TD*%
%TA.AperFunction,SMDPad,CuDef*%
%ADD30RoundRect,0.250000X-0.850000X-0.350000X0.850000X-0.350000X0.850000X0.350000X-0.850000X0.350000X0*%
%TD*%
%TA.AperFunction,SMDPad,CuDef*%
%ADD31RoundRect,0.250000X-1.275000X-1.125000X1.275000X-1.125000X1.275000X1.125000X-1.275000X1.125000X0*%
%TD*%
%TA.AperFunction,SMDPad,CuDef*%
%ADD32RoundRect,0.249997X-2.950003X-2.650003X2.950003X-2.650003X2.950003X2.650003X-2.950003X2.650003X0*%
%TD*%
%TA.AperFunction,ViaPad*%
%ADD33C,0.600000*%
%TD*%
G04 APERTURE END LIST*
D10*
%TO.N,GND*%
X75250000Y-53250000D02*
X73000000Y-53500000D01*
X73000000Y-52750000D01*
X75250000Y-52750000D01*
X75250000Y-53250000D01*
%TA.AperFunction,Conductor*%
G36*
X75250000Y-53250000D02*
G01*
X73000000Y-53500000D01*
X73000000Y-52750000D01*
X75250000Y-52750000D01*
X75250000Y-53250000D01*
G37*
%TD.AperFunction*%
%TO.N,VBUS*%
X86000000Y-69250000D02*
X86000000Y-70250000D01*
X83500000Y-69750000D01*
X83500000Y-69000000D01*
X86000000Y-69250000D01*
%TA.AperFunction,Conductor*%
G36*
X86000000Y-69250000D02*
G01*
X86000000Y-70250000D01*
X83500000Y-69750000D01*
X83500000Y-69000000D01*
X86000000Y-69250000D01*
G37*
%TD.AperFunction*%
%TO.N,VCC*%
X84500000Y-54000000D02*
X81750000Y-54500000D01*
X81750000Y-53250000D01*
X84500000Y-53000000D01*
X84500000Y-54000000D01*
%TA.AperFunction,Conductor*%
G36*
X84500000Y-54000000D02*
G01*
X81750000Y-54500000D01*
X81750000Y-53250000D01*
X84500000Y-53000000D01*
X84500000Y-54000000D01*
G37*
%TD.AperFunction*%
X82500000Y-55500000D02*
X82500000Y-59000000D01*
X81500000Y-59000000D01*
X81500000Y-55500000D01*
X81000000Y-54000000D01*
X82000000Y-54000000D01*
X82500000Y-55500000D01*
%TA.AperFunction,Conductor*%
G36*
X82500000Y-55500000D02*
G01*
X82500000Y-59000000D01*
X81500000Y-59000000D01*
X81500000Y-55500000D01*
X81000000Y-54000000D01*
X82000000Y-54000000D01*
X82500000Y-55500000D01*
G37*
%TD.AperFunction*%
%TO.N,GND*%
X73750000Y-63250000D02*
X72000000Y-64250000D01*
X72000000Y-63500000D01*
X73750000Y-63000000D01*
X73750000Y-63250000D01*
%TA.AperFunction,Conductor*%
G36*
X73750000Y-63250000D02*
G01*
X72000000Y-64250000D01*
X72000000Y-63500000D01*
X73750000Y-63000000D01*
X73750000Y-63250000D01*
G37*
%TD.AperFunction*%
X76500000Y-59250000D02*
X75500000Y-59250000D01*
X75500000Y-55250000D01*
X76500000Y-55250000D01*
X76500000Y-59250000D01*
%TA.AperFunction,Conductor*%
G36*
X76500000Y-59250000D02*
G01*
X75500000Y-59250000D01*
X75500000Y-55250000D01*
X76500000Y-55250000D01*
X76500000Y-59250000D01*
G37*
%TD.AperFunction*%
%TO.N,Net-(U2-FB)*%
X79000000Y-54500000D02*
X80500000Y-55500000D01*
X80500000Y-59000000D01*
X77500000Y-59000000D01*
X77500000Y-55000000D01*
X77000000Y-54000000D01*
X78500000Y-54000000D01*
X79000000Y-54500000D01*
%TA.AperFunction,Conductor*%
G36*
X79000000Y-54500000D02*
G01*
X80500000Y-55500000D01*
X80500000Y-59000000D01*
X77500000Y-59000000D01*
X77500000Y-55000000D01*
X77000000Y-54000000D01*
X78500000Y-54000000D01*
X79000000Y-54500000D01*
G37*
%TD.AperFunction*%
%TO.N,VBUS*%
X75000000Y-54250000D02*
X73000000Y-55250000D01*
X73000000Y-54500000D01*
X75000000Y-53750000D01*
X75000000Y-54250000D01*
%TA.AperFunction,Conductor*%
G36*
X75000000Y-54250000D02*
G01*
X73000000Y-55250000D01*
X73000000Y-54500000D01*
X75000000Y-53750000D01*
X75000000Y-54250000D01*
G37*
%TD.AperFunction*%
%TO.N,Net-(U2-SW)*%
X81500000Y-52000000D02*
X77500000Y-52500000D01*
X77500000Y-51500000D01*
X81500000Y-50500000D01*
X81500000Y-52000000D01*
%TA.AperFunction,Conductor*%
G36*
X81500000Y-52000000D02*
G01*
X77500000Y-52500000D01*
X77500000Y-51500000D01*
X81500000Y-50500000D01*
X81500000Y-52000000D01*
G37*
%TD.AperFunction*%
%TO.N,Net-(D1-A)*%
X104000000Y-63000000D02*
X104000000Y-71000000D01*
X102000000Y-71000000D01*
X95000000Y-58500000D01*
X95000000Y-56500000D01*
X97000000Y-56500000D01*
X104000000Y-63000000D01*
%TA.AperFunction,Conductor*%
G36*
X104000000Y-63000000D02*
G01*
X104000000Y-71000000D01*
X102000000Y-71000000D01*
X95000000Y-58500000D01*
X95000000Y-56500000D01*
X97000000Y-56500000D01*
X104000000Y-63000000D01*
G37*
%TD.AperFunction*%
%TO.N,VCC*%
X82500000Y-60900000D02*
X81500000Y-60900000D01*
X81500000Y-59000000D01*
X82500000Y-59000000D01*
X82500000Y-60900000D01*
%TA.AperFunction,Conductor*%
G36*
X82500000Y-60900000D02*
G01*
X81500000Y-60900000D01*
X81500000Y-59000000D01*
X82500000Y-59000000D01*
X82500000Y-60900000D01*
G37*
%TD.AperFunction*%
%TO.N,Net-(D1-A)*%
X107900000Y-86500000D02*
X101000000Y-86500000D01*
X101002500Y-82660000D01*
X104500000Y-81500000D01*
X105250000Y-77250000D01*
X105250000Y-71500000D01*
X102000000Y-71250000D01*
X102000000Y-71000000D01*
X104000000Y-69250000D01*
X107900000Y-69250000D01*
X107900000Y-86500000D01*
%TA.AperFunction,Conductor*%
G36*
X107900000Y-86500000D02*
G01*
X101000000Y-86500000D01*
X101002500Y-82660000D01*
X104500000Y-81500000D01*
X105250000Y-77250000D01*
X105250000Y-71500000D01*
X102000000Y-71250000D01*
X102000000Y-71000000D01*
X104000000Y-69250000D01*
X107900000Y-69250000D01*
X107900000Y-86500000D01*
G37*
%TD.AperFunction*%
%TO.N,Net-(SC1--)*%
X68250000Y-67500000D02*
X71000000Y-67500000D01*
X74500000Y-67750000D01*
X74500000Y-69000000D01*
X73750000Y-69000000D01*
X71000000Y-68500000D01*
X68250000Y-68500000D01*
X65000000Y-68250000D01*
X65000000Y-66750000D01*
X68250000Y-67500000D01*
%TA.AperFunction,Conductor*%
G36*
X68250000Y-67500000D02*
G01*
X71000000Y-67500000D01*
X74500000Y-67750000D01*
X74500000Y-69000000D01*
X73750000Y-69000000D01*
X71000000Y-68500000D01*
X68250000Y-68500000D01*
X65000000Y-68250000D01*
X65000000Y-66750000D01*
X68250000Y-67500000D01*
G37*
%TD.AperFunction*%
%TO.N,VCC*%
X74500000Y-62000000D02*
X72000000Y-62500000D01*
X72000000Y-61750000D01*
X74500000Y-61750000D01*
X74500000Y-62000000D01*
%TA.AperFunction,Conductor*%
G36*
X74500000Y-62000000D02*
G01*
X72000000Y-62500000D01*
X72000000Y-61750000D01*
X74500000Y-61750000D01*
X74500000Y-62000000D01*
G37*
%TD.AperFunction*%
%TO.N,Net-(Q1-D)*%
X101000000Y-75000000D02*
X103750000Y-77500000D01*
X103750000Y-79500000D01*
X90750000Y-79500000D01*
X90500000Y-77000000D01*
X90500000Y-76750000D01*
X92250000Y-68250000D01*
X98500000Y-68250000D01*
X101000000Y-75000000D01*
%TA.AperFunction,Conductor*%
G36*
X101000000Y-75000000D02*
G01*
X103750000Y-77500000D01*
X103750000Y-79500000D01*
X90750000Y-79500000D01*
X90500000Y-77000000D01*
X90500000Y-76750000D01*
X92250000Y-68250000D01*
X98500000Y-68250000D01*
X101000000Y-75000000D01*
G37*
%TD.AperFunction*%
%TO.N,VBUS*%
X76600000Y-54000000D02*
X75750000Y-54000000D01*
X75750000Y-53750000D01*
X76350000Y-53500000D01*
X76350000Y-52400000D01*
X75750000Y-52150000D01*
X75750000Y-51750000D01*
X76600000Y-51750000D01*
X76600000Y-54000000D01*
%TA.AperFunction,Conductor*%
G36*
X76600000Y-54000000D02*
G01*
X75750000Y-54000000D01*
X75750000Y-53750000D01*
X76350000Y-53500000D01*
X76350000Y-52400000D01*
X75750000Y-52150000D01*
X75750000Y-51750000D01*
X76600000Y-51750000D01*
X76600000Y-54000000D01*
G37*
%TD.AperFunction*%
%TD*%
D11*
%TO.P,L1,1,1*%
%TO.N,VBUS*%
X75000000Y-86500000D03*
%TO.P,L1,2,2*%
%TO.N,Net-(Q1-D)*%
X93400000Y-86500000D03*
%TD*%
D12*
%TO.P,L2,1,1*%
%TO.N,Net-(U2-SW)*%
X81500000Y-51150000D03*
%TO.P,L2,2,2*%
%TO.N,VCC*%
X81500000Y-53850000D03*
%TD*%
D13*
%TO.P,R1,1*%
%TO.N,Net-(SC1--)*%
X69500000Y-68037500D03*
%TO.P,R1,2*%
%TO.N,GND*%
X69500000Y-73962500D03*
%TD*%
D14*
%TO.P,R2,1*%
%TO.N,Net-(SC1--)*%
X74087500Y-68500000D03*
%TO.P,R2,2*%
%TO.N,Net-(U1-+)*%
X75912500Y-68500000D03*
%TD*%
D15*
%TO.P,R7,1*%
%TO.N,Net-(U2-FB)*%
X77825000Y-58500000D03*
%TO.P,R7,2*%
%TO.N,GND*%
X76000000Y-58500000D03*
%TD*%
D14*
%TO.P,R5,1*%
%TO.N,Net-(U1--)*%
X80175000Y-74000000D03*
%TO.P,R5,2*%
%TO.N,/V_{drop}*%
X82000000Y-74000000D03*
%TD*%
%TO.P,R4,1*%
%TO.N,Net-(U1-+)*%
X81587500Y-66000000D03*
%TO.P,R4,2*%
%TO.N,GND*%
X83412500Y-66000000D03*
%TD*%
D16*
%TO.P,H3,1,1*%
%TO.N,GND*%
X66500000Y-94000000D03*
%TD*%
D17*
%TO.P,C2,1*%
%TO.N,Net-(D1-A)*%
X96000000Y-57500000D03*
D18*
%TO.P,C2,2*%
%TO.N,GND*%
X91000000Y-57500000D03*
%TD*%
D14*
%TO.P,R3,1*%
%TO.N,GND*%
X74087500Y-71000000D03*
%TO.P,R3,2*%
%TO.N,Net-(U1--)*%
X75912500Y-71000000D03*
%TD*%
D19*
%TO.P,U3,1,PC14/PB7/PB8/PB9*%
%TO.N,/V_{drop}*%
X74525000Y-60595000D03*
%TO.P,U3,2,VDD*%
%TO.N,VCC*%
X74525000Y-61865000D03*
%TO.P,U3,3,VSS*%
%TO.N,GND*%
X74525000Y-63135000D03*
%TO.P,U3,4,NRST/PA0/PA1/PA2*%
%TO.N,unconnected-(U3-NRST{slash}PA0{slash}PA1{slash}PA2-Pad4)*%
X74525000Y-64405000D03*
%TO.P,U3,5,PB0/PB1/PA8/PA11/PA9*%
%TO.N,unconnected-(U3-PB0{slash}PB1{slash}PA8{slash}PA11{slash}PA9-Pad5)*%
X79475000Y-64405000D03*
%TO.P,U3,6,PA12/PA10*%
%TO.N,/pwm*%
X79475000Y-63135000D03*
%TO.P,U3,7,PA13*%
%TO.N,/swdio*%
X79475000Y-61865000D03*
%TO.P,U3,8,PA14/PA15/PB5/PB6*%
%TO.N,/swclk*%
X79475000Y-60595000D03*
%TD*%
D20*
%TO.P,C1,1*%
%TO.N,VBUS*%
X86000000Y-69750000D03*
%TO.P,C1,2*%
%TO.N,GND*%
X86000000Y-71650000D03*
%TD*%
D21*
%TO.P,U2,1,Vin*%
%TO.N,VBUS*%
X75375000Y-52000000D03*
%TO.P,U2,2,GND*%
%TO.N,GND*%
X75375000Y-52950000D03*
%TO.P,U2,3,EN*%
%TO.N,VBUS*%
X75375000Y-53900000D03*
%TO.P,U2,4,FB*%
%TO.N,Net-(U2-FB)*%
X77650000Y-53900000D03*
%TO.P,U2,5,SW*%
%TO.N,Net-(U2-SW)*%
X77650000Y-52000000D03*
%TD*%
D16*
%TO.P,H2,1,1*%
%TO.N,GND*%
X104000000Y-54000000D03*
%TD*%
D22*
%TO.P,C3,1*%
%TO.N,VBUS*%
X73000000Y-54950000D03*
%TO.P,C3,2*%
%TO.N,GND*%
X73000000Y-53050000D03*
%TD*%
D23*
%TO.P,J2,1,Pin_1*%
%TO.N,VCC*%
X66500000Y-77920000D03*
D24*
%TO.P,J2,2,Pin_2*%
%TO.N,/swclk*%
X66500000Y-80460000D03*
%TO.P,J2,3,Pin_3*%
%TO.N,/swdio*%
X66500000Y-83000000D03*
%TO.P,J2,4,Pin_4*%
%TO.N,GND*%
X66500000Y-85540000D03*
%TD*%
D19*
%TO.P,U1,1,+*%
%TO.N,Net-(U1-+)*%
X78525000Y-68095000D03*
%TO.P,U1,2,-*%
%TO.N,Net-(U1--)*%
X78525000Y-69365000D03*
%TO.P,U1,3*%
%TO.N,unconnected-(U1-Pad3)*%
X78525000Y-70635000D03*
%TO.P,U1,4,4*%
%TO.N,GND*%
X78525000Y-71905000D03*
%TO.P,U1,5*%
%TO.N,unconnected-(U1-Pad5)*%
X83475000Y-71905000D03*
%TO.P,U1,6*%
%TO.N,/V_{drop}*%
X83475000Y-70635000D03*
%TO.P,U1,7,V+*%
%TO.N,VBUS*%
X83475000Y-69365000D03*
%TO.P,U1,8*%
%TO.N,N/C*%
X83475000Y-68095000D03*
%TD*%
D25*
%TO.P,C7,1*%
%TO.N,VCC*%
X84550000Y-53500000D03*
%TO.P,C7,2*%
%TO.N,GND*%
X86450000Y-53500000D03*
%TD*%
D20*
%TO.P,C4,1*%
%TO.N,VCC*%
X72000000Y-62050000D03*
%TO.P,C4,2*%
%TO.N,GND*%
X72000000Y-63950000D03*
%TD*%
D26*
%TO.P,D1,1,K*%
%TO.N,Net-(Q1-D)*%
X103280000Y-78460000D03*
D27*
%TO.P,D1,2,A*%
%TO.N,Net-(D1-A)*%
X102525000Y-83085000D03*
X99475000Y-83085000D03*
D28*
X101000000Y-84760000D03*
D27*
X102525000Y-86435000D03*
X99475000Y-86435000D03*
D26*
%TO.P,D1,3,K*%
%TO.N,Net-(Q1-D)*%
X98720000Y-78460000D03*
%TD*%
D23*
%TO.P,SC1,1,+*%
%TO.N,VBUS*%
X65000000Y-64960000D03*
D24*
%TO.P,SC1,2,-*%
%TO.N,Net-(SC1--)*%
X65000000Y-67500000D03*
%TD*%
D16*
%TO.P,H1,1,1*%
%TO.N,GND*%
X66500000Y-54000000D03*
%TD*%
D29*
%TO.P,C5,1*%
%TO.N,VCC*%
X81950000Y-56000000D03*
%TO.P,C5,2*%
%TO.N,Net-(U2-FB)*%
X80050000Y-56000000D03*
%TD*%
D30*
%TO.P,Q1,1,G*%
%TO.N,/pwm*%
X89025000Y-68745000D03*
D31*
%TO.P,Q1,2,D*%
%TO.N,Net-(Q1-D)*%
X93650000Y-69500000D03*
X93650000Y-72550000D03*
D32*
X95325000Y-71025000D03*
D31*
X97000000Y-69500000D03*
X97000000Y-72550000D03*
D30*
%TO.P,Q1,3,S*%
%TO.N,GND*%
X89025000Y-73305000D03*
%TD*%
D15*
%TO.P,R6,1*%
%TO.N,VCC*%
X81912500Y-58500000D03*
%TO.P,R6,2*%
%TO.N,Net-(U2-FB)*%
X80087500Y-58500000D03*
%TD*%
D29*
%TO.P,C6,1*%
%TO.N,Net-(U2-FB)*%
X77900000Y-56000000D03*
%TO.P,C6,2*%
%TO.N,GND*%
X76000000Y-56000000D03*
%TD*%
D23*
%TO.P,J1,1,Pin_1*%
%TO.N,Net-(D1-A)*%
X105725000Y-70250000D03*
D24*
%TO.P,J1,2,Pin_2*%
%TO.N,GND*%
X105725000Y-67710000D03*
%TD*%
D16*
%TO.P,H4,1,1*%
%TO.N,GND*%
X104000000Y-94000000D03*
%TD*%
D33*
%TO.N,*%
X107500000Y-68500000D03*
X107500000Y-67250000D03*
X104750000Y-65750000D03*
X105750000Y-65750000D03*
%TO.N,GND*%
X106680000Y-60960000D03*
X88900000Y-63500000D03*
X66040000Y-60960000D03*
X98000000Y-93000000D03*
X81280000Y-96520000D03*
X87500000Y-71750000D03*
X91000000Y-55000000D03*
X66750000Y-75000000D03*
X81280000Y-81280000D03*
X106680000Y-88900000D03*
X71500000Y-53000000D03*
X85750000Y-55000000D03*
X99060000Y-91440000D03*
X93000000Y-59500000D03*
X86360000Y-50800000D03*
X81280000Y-76200000D03*
X87250000Y-73250000D03*
X70750000Y-65000000D03*
X101600000Y-88900000D03*
X89000000Y-74500000D03*
X86000000Y-72750000D03*
X106680000Y-66040000D03*
X103000000Y-80500000D03*
X71120000Y-91440000D03*
X88250000Y-57500000D03*
X93250000Y-55250000D03*
X86360000Y-66040000D03*
X66750000Y-74000000D03*
X86360000Y-96520000D03*
X86360000Y-81280000D03*
X93250000Y-57250000D03*
X70500000Y-64000000D03*
X91440000Y-66040000D03*
X67500000Y-75500000D03*
X75000000Y-58500000D03*
X89000000Y-72000000D03*
X76750000Y-72750000D03*
X86360000Y-60960000D03*
X86500000Y-55000000D03*
X97250000Y-83500000D03*
X86360000Y-86360000D03*
X81280000Y-86360000D03*
X83750000Y-64250000D03*
X88750000Y-59750000D03*
X84750000Y-65000000D03*
X74750000Y-56000000D03*
X72500000Y-71000000D03*
X93500000Y-97500000D03*
X97750000Y-80500000D03*
X76750000Y-73750000D03*
X73000000Y-51750000D03*
X101600000Y-50800000D03*
X74750000Y-57250000D03*
X71500000Y-72250000D03*
X71120000Y-55880000D03*
X73250000Y-74500000D03*
X68250000Y-75500000D03*
X88750000Y-55500000D03*
X100250000Y-80500000D03*
X71120000Y-76200000D03*
X77000000Y-59750000D03*
X69000000Y-75500000D03*
X96520000Y-66040000D03*
X74750000Y-59500000D03*
X81280000Y-91440000D03*
X87750000Y-53500000D03*
X75000000Y-97750000D03*
X86500000Y-52000000D03*
X72000000Y-65250000D03*
X84750000Y-66000000D03*
X104140000Y-88900000D03*
X76000000Y-59750000D03*
X103000000Y-75000000D03*
X71120000Y-86360000D03*
X71120000Y-81280000D03*
X96520000Y-50800000D03*
X72500000Y-70000000D03*
X91440000Y-50800000D03*
X86360000Y-91440000D03*
X99060000Y-88900000D03*
X71120000Y-50800000D03*
X86360000Y-76200000D03*
X70500000Y-96750000D03*
X78500000Y-73000000D03*
X99060000Y-96520000D03*
X91250000Y-60000000D03*
X66040000Y-71120000D03*
%TO.N,VCC*%
X81750000Y-60550000D03*
X70500000Y-61500000D03*
X82450000Y-60550000D03*
X81800000Y-59900000D03*
X82450000Y-59900000D03*
%TO.N,/V_{drop}*%
X76500000Y-61000000D03*
X81000000Y-70500000D03*
%TO.N,/swdio*%
X77900000Y-62000000D03*
%TO.N,/swclk*%
X77750000Y-61000000D03*
%TD*%
D10*
%TO.N,VCC*%
X71123093Y-61865000D02*
X74525000Y-61865000D01*
X70682500Y-61682500D02*
X70500000Y-61500000D01*
X70682500Y-61682500D02*
G75*
G03*
X71123093Y-61865002I440600J440600D01*
G01*
%TO.N,Net-(U1-+)*%
X81587500Y-66929899D02*
X81587500Y-66000000D01*
X78525000Y-68095000D02*
X76603878Y-68095000D01*
X76115000Y-68297500D02*
X75912500Y-68500000D01*
X80422399Y-68095000D02*
X78525000Y-68095000D01*
X76603878Y-68095000D02*
G75*
G03*
X76115006Y-68297506I22J-691400D01*
G01*
X81587500Y-66929899D02*
G75*
G02*
X81246250Y-67753750I-1165100J-1D01*
G01*
X81246250Y-67753750D02*
G75*
G02*
X80422399Y-68095000I-823850J823850D01*
G01*
%TO.N,Net-(U1--)*%
X79012499Y-69365000D02*
X78037500Y-69365000D01*
X77201901Y-69710598D02*
X75912500Y-71000000D01*
X79022701Y-69365000D02*
X79012499Y-69365000D01*
X78036250Y-69365000D02*
X78037500Y-69365000D01*
X80175000Y-70517298D02*
X80175000Y-74000000D01*
X79837499Y-69702500D02*
G75*
G02*
X80175001Y-70517298I-814799J-814800D01*
G01*
X78036250Y-69365000D02*
G75*
G03*
X77201886Y-69710583I-50J-1179900D01*
G01*
X79837499Y-69702500D02*
G75*
G03*
X79022701Y-69364999I-814799J-814800D01*
G01*
%TO.N,/V_{drop}*%
X82853555Y-70635000D02*
X82987500Y-70635000D01*
X75808621Y-60595000D02*
X74525000Y-60595000D01*
X81230459Y-70635000D02*
X82987500Y-70635000D01*
X81067500Y-70567500D02*
X81000000Y-70500000D01*
X82000000Y-71488555D02*
X82000000Y-74000000D01*
X76297500Y-60797500D02*
X76500000Y-61000000D01*
X82853555Y-70635000D02*
G75*
G03*
X82249984Y-70884984I-55J-853500D01*
G01*
X81067500Y-70567500D02*
G75*
G03*
X81230459Y-70635017I163000J163000D01*
G01*
X82250000Y-70885000D02*
G75*
G03*
X82000022Y-71488555I603500J-603500D01*
G01*
X82987500Y-70635000D02*
X82987500Y-70635000D01*
X76297500Y-60797500D02*
G75*
G03*
X75808621Y-60594991I-488900J-488900D01*
G01*
%TO.N,/swdio*%
X78130459Y-61865000D02*
X79475000Y-61865000D01*
X77967500Y-61932500D02*
X77900000Y-62000000D01*
X78130459Y-61865000D02*
G75*
G03*
X77967533Y-61932533I41J-230400D01*
G01*
%TO.N,/swclk*%
X77952500Y-60797500D02*
X77750000Y-61000000D01*
X78441378Y-60595000D02*
X79475000Y-60595000D01*
X78441378Y-60595000D02*
G75*
G03*
X77952506Y-60797506I22J-691400D01*
G01*
%TD*%
%TA.AperFunction,Conductor*%
%TO.N,GND*%
G36*
X80061231Y-50020185D02*
G01*
X80106986Y-50072989D01*
X80116930Y-50142147D01*
X80087905Y-50205703D01*
X80029127Y-50243477D01*
X80024266Y-50244798D01*
X77353123Y-50912584D01*
X77343282Y-50915132D01*
X77197253Y-50975620D01*
X77197250Y-50975621D01*
X77197250Y-50975622D01*
X77071847Y-51071847D01*
X77071846Y-51071848D01*
X77071845Y-51071849D01*
X76999448Y-51166198D01*
X76943020Y-51207400D01*
X76873274Y-51211555D01*
X76853624Y-51205273D01*
X76756715Y-51165132D01*
X76737125Y-51162553D01*
X76600007Y-51144500D01*
X76600000Y-51144500D01*
X75750000Y-51144500D01*
X75749992Y-51144500D01*
X75593285Y-51165132D01*
X75593284Y-51165132D01*
X75533102Y-51190061D01*
X75485649Y-51199500D01*
X74796798Y-51199500D01*
X74759932Y-51202401D01*
X74759926Y-51202402D01*
X74602106Y-51248254D01*
X74602103Y-51248255D01*
X74460637Y-51331917D01*
X74460629Y-51331923D01*
X74344423Y-51448129D01*
X74344417Y-51448137D01*
X74260755Y-51589603D01*
X74260754Y-51589606D01*
X74214902Y-51747426D01*
X74214901Y-51747432D01*
X74212000Y-51784298D01*
X74212000Y-52176977D01*
X74192315Y-52244016D01*
X74139511Y-52289771D01*
X74070353Y-52299715D01*
X74006797Y-52270690D01*
X74000319Y-52264658D01*
X73943345Y-52207684D01*
X73794124Y-52115643D01*
X73794119Y-52115641D01*
X73627697Y-52060494D01*
X73627690Y-52060493D01*
X73524986Y-52050000D01*
X73250000Y-52050000D01*
X73250000Y-52800000D01*
X74169500Y-52800000D01*
X74179476Y-52790023D01*
X74189185Y-52756961D01*
X74241989Y-52711206D01*
X74293500Y-52700000D01*
X74480685Y-52700000D01*
X74543806Y-52717268D01*
X74602102Y-52751744D01*
X74620059Y-52756961D01*
X74759926Y-52797597D01*
X74759929Y-52797597D01*
X74759931Y-52797598D01*
X74796806Y-52800500D01*
X75501000Y-52800500D01*
X75568039Y-52820185D01*
X75613794Y-52872989D01*
X75625000Y-52924500D01*
X75625000Y-52975500D01*
X75605315Y-53042539D01*
X75552511Y-53088294D01*
X75501000Y-53099500D01*
X74796798Y-53099500D01*
X74759932Y-53102401D01*
X74759926Y-53102402D01*
X74602106Y-53148254D01*
X74602103Y-53148255D01*
X74543806Y-53182732D01*
X74480685Y-53200000D01*
X74268000Y-53200000D01*
X74258023Y-53209976D01*
X74248315Y-53243039D01*
X74195511Y-53288794D01*
X74144000Y-53300000D01*
X71775001Y-53300000D01*
X71775001Y-53349986D01*
X71785494Y-53452697D01*
X71840641Y-53619119D01*
X71840643Y-53619124D01*
X71932684Y-53768345D01*
X72056655Y-53892316D01*
X72056659Y-53892319D01*
X72059656Y-53894168D01*
X72061279Y-53895972D01*
X72062323Y-53896798D01*
X72062181Y-53896976D01*
X72106381Y-53946116D01*
X72117602Y-54015079D01*
X72089759Y-54079161D01*
X72059661Y-54105241D01*
X72056349Y-54107283D01*
X72056343Y-54107288D01*
X71932289Y-54231342D01*
X71840187Y-54380663D01*
X71840185Y-54380668D01*
X71819416Y-54443345D01*
X71785001Y-54547203D01*
X71785001Y-54547204D01*
X71785000Y-54547204D01*
X71774500Y-54649983D01*
X71774500Y-55250001D01*
X71774501Y-55250019D01*
X71785000Y-55352796D01*
X71785001Y-55352799D01*
X71821759Y-55463726D01*
X71840186Y-55519334D01*
X71932288Y-55668656D01*
X72056344Y-55792712D01*
X72205666Y-55884814D01*
X72372203Y-55939999D01*
X72474991Y-55950500D01*
X73525008Y-55950499D01*
X73525016Y-55950498D01*
X73525019Y-55950498D01*
X73603754Y-55942455D01*
X73627797Y-55939999D01*
X73794334Y-55884814D01*
X73943656Y-55792712D01*
X74067712Y-55668656D01*
X74159814Y-55519334D01*
X74212040Y-55361726D01*
X74251812Y-55304283D01*
X74274287Y-55289825D01*
X74953906Y-54950016D01*
X75022669Y-54937642D01*
X75087208Y-54964410D01*
X75127030Y-55021820D01*
X75129492Y-55091646D01*
X75114897Y-55126022D01*
X75065645Y-55205871D01*
X75065641Y-55205880D01*
X75010494Y-55372302D01*
X75010493Y-55372309D01*
X75000000Y-55475013D01*
X75000000Y-55750000D01*
X76126000Y-55750000D01*
X76193039Y-55769685D01*
X76238794Y-55822489D01*
X76250000Y-55874000D01*
X76250000Y-59699999D01*
X76312472Y-59699999D01*
X76312486Y-59699998D01*
X76415197Y-59689505D01*
X76581619Y-59634358D01*
X76581624Y-59634356D01*
X76730842Y-59542317D01*
X76824464Y-59448695D01*
X76885787Y-59415210D01*
X76955479Y-59420194D01*
X76999827Y-59448695D01*
X77093844Y-59542712D01*
X77243166Y-59634814D01*
X77409703Y-59689999D01*
X77512491Y-59700500D01*
X78137508Y-59700499D01*
X78172198Y-59696955D01*
X78240889Y-59709724D01*
X78291774Y-59757604D01*
X78308695Y-59825394D01*
X78286280Y-59891570D01*
X78253854Y-59921559D01*
X78254302Y-59922136D01*
X78248134Y-59926919D01*
X78174554Y-60000498D01*
X78125195Y-60030745D01*
X77945462Y-60089147D01*
X77945461Y-60089148D01*
X77759941Y-60183678D01*
X77759538Y-60182887D01*
X77714172Y-60198470D01*
X77570750Y-60214630D01*
X77400478Y-60274210D01*
X77247737Y-60370184D01*
X77212681Y-60405241D01*
X77151358Y-60438726D01*
X77081666Y-60433742D01*
X77037319Y-60405241D01*
X77002262Y-60370184D01*
X76849521Y-60274210D01*
X76679249Y-60214630D01*
X76535806Y-60198468D01*
X76490459Y-60182887D01*
X76490053Y-60183685D01*
X76304534Y-60089156D01*
X76304529Y-60089154D01*
X76111148Y-60026317D01*
X75910306Y-59994502D01*
X75895294Y-59994502D01*
X75895258Y-59994500D01*
X75887678Y-59994500D01*
X75870808Y-59994500D01*
X75803769Y-59974815D01*
X75783126Y-59958180D01*
X75751870Y-59926923D01*
X75751859Y-59926914D01*
X75745695Y-59923269D01*
X75698014Y-59872198D01*
X75685513Y-59803455D01*
X75712162Y-59738867D01*
X75721140Y-59728859D01*
X75750000Y-59699999D01*
X75750000Y-58750000D01*
X74987501Y-58750000D01*
X74987501Y-58999986D01*
X74997994Y-59102697D01*
X75053141Y-59269119D01*
X75053143Y-59269124D01*
X75145184Y-59418345D01*
X75269156Y-59542317D01*
X75305868Y-59564961D01*
X75352593Y-59616909D01*
X75363816Y-59685871D01*
X75335973Y-59749953D01*
X75277904Y-59788810D01*
X75240772Y-59794500D01*
X73634298Y-59794500D01*
X73597432Y-59797401D01*
X73597426Y-59797402D01*
X73439606Y-59843254D01*
X73439603Y-59843255D01*
X73298137Y-59926917D01*
X73298129Y-59926923D01*
X73181923Y-60043129D01*
X73181917Y-60043137D01*
X73098255Y-60184603D01*
X73098254Y-60184606D01*
X73052402Y-60342426D01*
X73052401Y-60342432D01*
X73049500Y-60379298D01*
X73049500Y-60810701D01*
X73052401Y-60847567D01*
X73052402Y-60847573D01*
X73092592Y-60985905D01*
X73092393Y-61055774D01*
X73054451Y-61114444D01*
X72990813Y-61143288D01*
X72973516Y-61144500D01*
X72877026Y-61144500D01*
X72811930Y-61126039D01*
X72794340Y-61115189D01*
X72794335Y-61115187D01*
X72794334Y-61115186D01*
X72627797Y-61060001D01*
X72627795Y-61060000D01*
X72525010Y-61049500D01*
X71474998Y-61049500D01*
X71474980Y-61049501D01*
X71372203Y-61060000D01*
X71372200Y-61060001D01*
X71296244Y-61085171D01*
X71226415Y-61087573D01*
X71166374Y-61051841D01*
X71152249Y-61033440D01*
X71129816Y-60997738D01*
X71002262Y-60870184D01*
X70966277Y-60847573D01*
X70849523Y-60774211D01*
X70679254Y-60714631D01*
X70679249Y-60714630D01*
X70500004Y-60694435D01*
X70499996Y-60694435D01*
X70320750Y-60714630D01*
X70320745Y-60714631D01*
X70150476Y-60774211D01*
X69997737Y-60870184D01*
X69870184Y-60997737D01*
X69774211Y-61150476D01*
X69714631Y-61320745D01*
X69714630Y-61320750D01*
X69694435Y-61499996D01*
X69694435Y-61500003D01*
X69714630Y-61679249D01*
X69714631Y-61679254D01*
X69774211Y-61849523D01*
X69868760Y-61999996D01*
X69870184Y-62002262D01*
X69997738Y-62129816D01*
X70150478Y-62225789D01*
X70320745Y-62285368D01*
X70320750Y-62285369D01*
X70428707Y-62297532D01*
X70497474Y-62305280D01*
X70539882Y-62318014D01*
X70653394Y-62375852D01*
X70712652Y-62395106D01*
X70770325Y-62434542D01*
X70792036Y-62474030D01*
X70840186Y-62619334D01*
X70932288Y-62768656D01*
X71056344Y-62892712D01*
X71059628Y-62894737D01*
X71059653Y-62894753D01*
X71061445Y-62896746D01*
X71062011Y-62897193D01*
X71061934Y-62897289D01*
X71106379Y-62946699D01*
X71117603Y-63015661D01*
X71089761Y-63079744D01*
X71059665Y-63105826D01*
X71056660Y-63107679D01*
X71056655Y-63107683D01*
X70932684Y-63231654D01*
X70840643Y-63380875D01*
X70840641Y-63380880D01*
X70785494Y-63547302D01*
X70785493Y-63547309D01*
X70775000Y-63650013D01*
X70775000Y-63700000D01*
X72126000Y-63700000D01*
X72193039Y-63719685D01*
X72238794Y-63772489D01*
X72250000Y-63824000D01*
X72250000Y-64949999D01*
X72524972Y-64949999D01*
X72524986Y-64949998D01*
X72627697Y-64939505D01*
X72794119Y-64884358D01*
X72794130Y-64884353D01*
X72939327Y-64794794D01*
X73006719Y-64776353D01*
X73073383Y-64797275D01*
X73111156Y-64837211D01*
X73127971Y-64865643D01*
X73181919Y-64956865D01*
X73181921Y-64956867D01*
X73181923Y-64956870D01*
X73298129Y-65073076D01*
X73298133Y-65073079D01*
X73298135Y-65073081D01*
X73439602Y-65156744D01*
X73481224Y-65168836D01*
X73597426Y-65202597D01*
X73597429Y-65202597D01*
X73597431Y-65202598D01*
X73634306Y-65205500D01*
X73634314Y-65205500D01*
X75415686Y-65205500D01*
X75415694Y-65205500D01*
X75452569Y-65202598D01*
X75452571Y-65202597D01*
X75452573Y-65202597D01*
X75499304Y-65189020D01*
X75610398Y-65156744D01*
X75751865Y-65073081D01*
X75868081Y-64956865D01*
X75951744Y-64815398D01*
X75997598Y-64657569D01*
X76000500Y-64620694D01*
X76000500Y-64189306D01*
X75997598Y-64152431D01*
X75951744Y-63994602D01*
X75868081Y-63853135D01*
X75868078Y-63853132D01*
X75863298Y-63846969D01*
X75865635Y-63845155D01*
X75838798Y-63796050D01*
X75843756Y-63726356D01*
X75864554Y-63693998D01*
X75862903Y-63692717D01*
X75867686Y-63686550D01*
X75951281Y-63545198D01*
X75997100Y-63387486D01*
X75997295Y-63385001D01*
X75997295Y-63385000D01*
X74399000Y-63385000D01*
X74331961Y-63365315D01*
X74286206Y-63312511D01*
X74275000Y-63261000D01*
X74275000Y-63009000D01*
X74294685Y-62941961D01*
X74347489Y-62896206D01*
X74399000Y-62885000D01*
X75997295Y-62885000D01*
X75997295Y-62884998D01*
X75997100Y-62882513D01*
X75951281Y-62724801D01*
X75867685Y-62583447D01*
X75862900Y-62577278D01*
X75865366Y-62575364D01*
X75838802Y-62526776D01*
X75843749Y-62457082D01*
X75864856Y-62424232D01*
X75863301Y-62423026D01*
X75868077Y-62416868D01*
X75868081Y-62416865D01*
X75951744Y-62275398D01*
X75997598Y-62117569D01*
X76000500Y-62080694D01*
X76000500Y-61848071D01*
X76020185Y-61781032D01*
X76072989Y-61735277D01*
X76142147Y-61725333D01*
X76165455Y-61731030D01*
X76320737Y-61785366D01*
X76320743Y-61785367D01*
X76320745Y-61785368D01*
X76320746Y-61785368D01*
X76320750Y-61785369D01*
X76499996Y-61805565D01*
X76500000Y-61805565D01*
X76500004Y-61805565D01*
X76679249Y-61785369D01*
X76679252Y-61785368D01*
X76679255Y-61785368D01*
X76849522Y-61725789D01*
X76931884Y-61674037D01*
X76999118Y-61655037D01*
X77065954Y-61675404D01*
X77111168Y-61728671D01*
X77120407Y-61797928D01*
X77114899Y-61819977D01*
X77114634Y-61820731D01*
X77114630Y-61820750D01*
X77094435Y-61999996D01*
X77094435Y-62000003D01*
X77114630Y-62179249D01*
X77114631Y-62179254D01*
X77174211Y-62349523D01*
X77239103Y-62452797D01*
X77270184Y-62502262D01*
X77397738Y-62629816D01*
X77488080Y-62686582D01*
X77548905Y-62724801D01*
X77550478Y-62725789D01*
X77672985Y-62768656D01*
X77720745Y-62785368D01*
X77720750Y-62785369D01*
X77889383Y-62804369D01*
X77953797Y-62831435D01*
X77993352Y-62889030D01*
X77999500Y-62927589D01*
X77999500Y-63350701D01*
X78002401Y-63387567D01*
X78002402Y-63387573D01*
X78048254Y-63545393D01*
X78048255Y-63545396D01*
X78131917Y-63686862D01*
X78136702Y-63693031D01*
X78134256Y-63694927D01*
X78160857Y-63743642D01*
X78155873Y-63813334D01*
X78135069Y-63845703D01*
X78136702Y-63846969D01*
X78131917Y-63853137D01*
X78048255Y-63994603D01*
X78048254Y-63994606D01*
X78002402Y-64152426D01*
X78002401Y-64152432D01*
X77999500Y-64189298D01*
X77999500Y-64620701D01*
X78002401Y-64657567D01*
X78002402Y-64657573D01*
X78048254Y-64815393D01*
X78048255Y-64815396D01*
X78131917Y-64956862D01*
X78131923Y-64956870D01*
X78248129Y-65073076D01*
X78248133Y-65073079D01*
X78248135Y-65073081D01*
X78389602Y-65156744D01*
X78431224Y-65168836D01*
X78547426Y-65202597D01*
X78547429Y-65202597D01*
X78547431Y-65202598D01*
X78584306Y-65205500D01*
X78584314Y-65205500D01*
X80365686Y-65205500D01*
X80365694Y-65205500D01*
X80402569Y-65202598D01*
X80449304Y-65189020D01*
X80519169Y-65189218D01*
X80577840Y-65227159D01*
X80606684Y-65290797D01*
X80601604Y-65347098D01*
X80585000Y-65397205D01*
X80574500Y-65499983D01*
X80574500Y-66500001D01*
X80574501Y-66500019D01*
X80585000Y-66602796D01*
X80585001Y-66602799D01*
X80633030Y-66747738D01*
X80640186Y-66769334D01*
X80732288Y-66918656D01*
X80856344Y-67042712D01*
X80864579Y-67047791D01*
X80911303Y-67099737D01*
X80922526Y-67168699D01*
X80908840Y-67211782D01*
X80897604Y-67232803D01*
X80884099Y-67253015D01*
X80829378Y-67319692D01*
X80812189Y-67336881D01*
X80745512Y-67391600D01*
X80725302Y-67405104D01*
X80649235Y-67445763D01*
X80626775Y-67455066D01*
X80544233Y-67480104D01*
X80520395Y-67484846D01*
X80455901Y-67491199D01*
X80428447Y-67493903D01*
X80416299Y-67494500D01*
X79870808Y-67494500D01*
X79803769Y-67474815D01*
X79783126Y-67458180D01*
X79751870Y-67426923D01*
X79751862Y-67426917D01*
X79610396Y-67343255D01*
X79610393Y-67343254D01*
X79452573Y-67297402D01*
X79452567Y-67297401D01*
X79415701Y-67294500D01*
X79415694Y-67294500D01*
X77634306Y-67294500D01*
X77634298Y-67294500D01*
X77597432Y-67297401D01*
X77597426Y-67297402D01*
X77439606Y-67343254D01*
X77439603Y-67343255D01*
X77298137Y-67426917D01*
X77298129Y-67426923D01*
X77266874Y-67458180D01*
X77205552Y-67491666D01*
X77179192Y-67494500D01*
X76732230Y-67494500D01*
X76665191Y-67474815D01*
X76644549Y-67458181D01*
X76643657Y-67457289D01*
X76643656Y-67457288D01*
X76526712Y-67385157D01*
X76494336Y-67365187D01*
X76494331Y-67365185D01*
X76458881Y-67353438D01*
X76327797Y-67310001D01*
X76327795Y-67310000D01*
X76225010Y-67299500D01*
X75599998Y-67299500D01*
X75599980Y-67299501D01*
X75497203Y-67310000D01*
X75497200Y-67310001D01*
X75330668Y-67365185D01*
X75330663Y-67365187D01*
X75275282Y-67399347D01*
X75181344Y-67457288D01*
X75181341Y-67457290D01*
X75175198Y-67461080D01*
X75173797Y-67458810D01*
X75120442Y-67480300D01*
X75051807Y-67467220D01*
X75004894Y-67425172D01*
X74957570Y-67353440D01*
X74946093Y-67343255D01*
X74839343Y-67248525D01*
X74839339Y-67248523D01*
X74697989Y-67177785D01*
X74697988Y-67177784D01*
X74697987Y-67177784D01*
X74543140Y-67146039D01*
X74543139Y-67146038D01*
X74543135Y-67146038D01*
X71043132Y-66896038D01*
X71000003Y-66894500D01*
X71000000Y-66894500D01*
X68333084Y-66894500D01*
X68305201Y-66891324D01*
X66223007Y-66410817D01*
X66162111Y-66376563D01*
X66129401Y-66314822D01*
X66135263Y-66245199D01*
X66176578Y-66190728D01*
X66207546Y-66167546D01*
X66293796Y-66052331D01*
X66344091Y-65917483D01*
X66350500Y-65857873D01*
X66350499Y-64249986D01*
X70775001Y-64249986D01*
X70785494Y-64352697D01*
X70840641Y-64519119D01*
X70840643Y-64519124D01*
X70932684Y-64668345D01*
X71056654Y-64792315D01*
X71205875Y-64884356D01*
X71205880Y-64884358D01*
X71372302Y-64939505D01*
X71372309Y-64939506D01*
X71475019Y-64949999D01*
X71749999Y-64949999D01*
X71750000Y-64949998D01*
X71750000Y-64200000D01*
X70775001Y-64200000D01*
X70775001Y-64249986D01*
X66350499Y-64249986D01*
X66350499Y-64062128D01*
X66344091Y-64002517D01*
X66341140Y-63994606D01*
X66293797Y-63867671D01*
X66293793Y-63867664D01*
X66207547Y-63752455D01*
X66207544Y-63752452D01*
X66092335Y-63666206D01*
X66092328Y-63666202D01*
X65957482Y-63615908D01*
X65957483Y-63615908D01*
X65897883Y-63609501D01*
X65897881Y-63609500D01*
X65897873Y-63609500D01*
X65897864Y-63609500D01*
X64102129Y-63609500D01*
X64102123Y-63609501D01*
X64042516Y-63615908D01*
X63907671Y-63666202D01*
X63907664Y-63666206D01*
X63792455Y-63752452D01*
X63792452Y-63752455D01*
X63706206Y-63867664D01*
X63706202Y-63867671D01*
X63655908Y-64002517D01*
X63649501Y-64062116D01*
X63649501Y-64062123D01*
X63649500Y-64062135D01*
X63649500Y-65857870D01*
X63649501Y-65857876D01*
X63655908Y-65917483D01*
X63706202Y-66052328D01*
X63706206Y-66052335D01*
X63792452Y-66167544D01*
X63792455Y-66167547D01*
X63907664Y-66253793D01*
X63907671Y-66253797D01*
X64039081Y-66302810D01*
X64095015Y-66344681D01*
X64119432Y-66410145D01*
X64104580Y-66478418D01*
X64083430Y-66506673D01*
X63961503Y-66628600D01*
X63825965Y-66822169D01*
X63825964Y-66822171D01*
X63726098Y-67036335D01*
X63726094Y-67036344D01*
X63664938Y-67264586D01*
X63664936Y-67264596D01*
X63644341Y-67499999D01*
X63644341Y-67500000D01*
X63664936Y-67735403D01*
X63664938Y-67735413D01*
X63726094Y-67963655D01*
X63726096Y-67963659D01*
X63726097Y-67963663D01*
X63796795Y-68115274D01*
X63825965Y-68177830D01*
X63825967Y-68177834D01*
X63883638Y-68260196D01*
X63961505Y-68371401D01*
X64128599Y-68538495D01*
X64224129Y-68605386D01*
X64322165Y-68674032D01*
X64322167Y-68674033D01*
X64322170Y-68674035D01*
X64536337Y-68773903D01*
X64764592Y-68835063D01*
X64928913Y-68849439D01*
X64943655Y-68851628D01*
X64953560Y-68853716D01*
X67696870Y-69064739D01*
X67752455Y-69082834D01*
X67754589Y-69084149D01*
X67755666Y-69084814D01*
X67922203Y-69139999D01*
X68024991Y-69150500D01*
X70975008Y-69150499D01*
X70975016Y-69150498D01*
X70975019Y-69150498D01*
X70995051Y-69148451D01*
X71077797Y-69139999D01*
X71077806Y-69139995D01*
X71080125Y-69139500D01*
X71083144Y-69139452D01*
X71084534Y-69139311D01*
X71084546Y-69139431D01*
X71128277Y-69138749D01*
X73335955Y-69540145D01*
X73378869Y-69556606D01*
X73505659Y-69634810D01*
X73505661Y-69634810D01*
X73505666Y-69634814D01*
X73505671Y-69634815D01*
X73512209Y-69637864D01*
X73510804Y-69640876D01*
X73556146Y-69672113D01*
X73583120Y-69736565D01*
X73570967Y-69805370D01*
X73523544Y-69856681D01*
X73512287Y-69862653D01*
X73505882Y-69865639D01*
X73356654Y-69957684D01*
X73232684Y-70081654D01*
X73140643Y-70230875D01*
X73140641Y-70230880D01*
X73085494Y-70397302D01*
X73085493Y-70397309D01*
X73075000Y-70500013D01*
X73075000Y-70750000D01*
X74213500Y-70750000D01*
X74280539Y-70769685D01*
X74326294Y-70822489D01*
X74337500Y-70874000D01*
X74337500Y-72199999D01*
X74399972Y-72199999D01*
X74399986Y-72199998D01*
X74502697Y-72189505D01*
X74669119Y-72134358D01*
X74669124Y-72134356D01*
X74818342Y-72042317D01*
X74911964Y-71948695D01*
X74973287Y-71915210D01*
X75042979Y-71920194D01*
X75087327Y-71948695D01*
X75181344Y-72042712D01*
X75330666Y-72134814D01*
X75497203Y-72189999D01*
X75599991Y-72200500D01*
X76225008Y-72200499D01*
X76225016Y-72200498D01*
X76225019Y-72200498D01*
X76281302Y-72194748D01*
X76327797Y-72189999D01*
X76433414Y-72155001D01*
X77052704Y-72155001D01*
X77052899Y-72157486D01*
X77098718Y-72315198D01*
X77182314Y-72456552D01*
X77182321Y-72456561D01*
X77298438Y-72572678D01*
X77298447Y-72572685D01*
X77439803Y-72656282D01*
X77439806Y-72656283D01*
X77597504Y-72702099D01*
X77597510Y-72702100D01*
X77634350Y-72704999D01*
X77634366Y-72705000D01*
X78275000Y-72705000D01*
X78275000Y-72155000D01*
X77052705Y-72155000D01*
X77052704Y-72155001D01*
X76433414Y-72155001D01*
X76494334Y-72134814D01*
X76643656Y-72042712D01*
X76767712Y-71918656D01*
X76859814Y-71769334D01*
X76872497Y-71731056D01*
X76912269Y-71673613D01*
X76976785Y-71646789D01*
X77022641Y-71655000D01*
X78651000Y-71655000D01*
X78718039Y-71674685D01*
X78763794Y-71727489D01*
X78775000Y-71779000D01*
X78775000Y-72705000D01*
X79415630Y-72705000D01*
X79482669Y-72724685D01*
X79528424Y-72777489D01*
X79538368Y-72846647D01*
X79509343Y-72910203D01*
X79480729Y-72934537D01*
X79454959Y-72950431D01*
X79443842Y-72957289D01*
X79319789Y-73081342D01*
X79227687Y-73230663D01*
X79227686Y-73230666D01*
X79172501Y-73397203D01*
X79172501Y-73397204D01*
X79172500Y-73397204D01*
X79162000Y-73499983D01*
X79162000Y-74500001D01*
X79162001Y-74500019D01*
X79172500Y-74602796D01*
X79172501Y-74602799D01*
X79195301Y-74671604D01*
X79227686Y-74769334D01*
X79319788Y-74918656D01*
X79443844Y-75042712D01*
X79593166Y-75134814D01*
X79759703Y-75189999D01*
X79862491Y-75200500D01*
X80487508Y-75200499D01*
X80487516Y-75200498D01*
X80487519Y-75200498D01*
X80543802Y-75194748D01*
X80590297Y-75189999D01*
X80756834Y-75134814D01*
X80906156Y-75042712D01*
X80999819Y-74949049D01*
X81061142Y-74915564D01*
X81130834Y-74920548D01*
X81175181Y-74949049D01*
X81268844Y-75042712D01*
X81418166Y-75134814D01*
X81584703Y-75189999D01*
X81687491Y-75200500D01*
X82312508Y-75200499D01*
X82312516Y-75200498D01*
X82312519Y-75200498D01*
X82368802Y-75194748D01*
X82415297Y-75189999D01*
X82581834Y-75134814D01*
X82731156Y-75042712D01*
X82855212Y-74918656D01*
X82947314Y-74769334D01*
X83002499Y-74602797D01*
X83013000Y-74500009D01*
X83012999Y-73704986D01*
X87425001Y-73704986D01*
X87435494Y-73807697D01*
X87490641Y-73974119D01*
X87490643Y-73974124D01*
X87582684Y-74123345D01*
X87706654Y-74247315D01*
X87855875Y-74339356D01*
X87855880Y-74339358D01*
X88022302Y-74394505D01*
X88022309Y-74394506D01*
X88125019Y-74404999D01*
X88774999Y-74404999D01*
X88775000Y-74404998D01*
X88775000Y-73555000D01*
X87425001Y-73555000D01*
X87425001Y-73704986D01*
X83012999Y-73704986D01*
X83012999Y-73499992D01*
X83002499Y-73397203D01*
X82947314Y-73230666D01*
X82855212Y-73081344D01*
X82731156Y-72957288D01*
X82695083Y-72935038D01*
X82668077Y-72905013D01*
X87425000Y-72905013D01*
X87425000Y-73055000D01*
X88775000Y-73055000D01*
X88775000Y-72205000D01*
X88125028Y-72205000D01*
X88125012Y-72205001D01*
X88022302Y-72215494D01*
X87855880Y-72270641D01*
X87855875Y-72270643D01*
X87706654Y-72362684D01*
X87582684Y-72486654D01*
X87490643Y-72635875D01*
X87490641Y-72635880D01*
X87435494Y-72802302D01*
X87435493Y-72802309D01*
X87425000Y-72905013D01*
X82668077Y-72905013D01*
X82648359Y-72883091D01*
X82637138Y-72814128D01*
X82664981Y-72750046D01*
X82723050Y-72711190D01*
X82760181Y-72705500D01*
X84365686Y-72705500D01*
X84365694Y-72705500D01*
X84402569Y-72702598D01*
X84402571Y-72702597D01*
X84402573Y-72702597D01*
X84444191Y-72690505D01*
X84560398Y-72656744D01*
X84701865Y-72573081D01*
X84818081Y-72456865D01*
X84818084Y-72456858D01*
X84820603Y-72453613D01*
X84823234Y-72451712D01*
X84823598Y-72451349D01*
X84823656Y-72451407D01*
X84877244Y-72412704D01*
X84947011Y-72408911D01*
X85006267Y-72441928D01*
X85056654Y-72492315D01*
X85205875Y-72584356D01*
X85205880Y-72584358D01*
X85372302Y-72639505D01*
X85372309Y-72639506D01*
X85475019Y-72649999D01*
X85749999Y-72649999D01*
X86250000Y-72649999D01*
X86524972Y-72649999D01*
X86524986Y-72649998D01*
X86627697Y-72639505D01*
X86794119Y-72584358D01*
X86794124Y-72584356D01*
X86943345Y-72492315D01*
X87067315Y-72368345D01*
X87159356Y-72219124D01*
X87159358Y-72219119D01*
X87214505Y-72052697D01*
X87214506Y-72052690D01*
X87224999Y-71949986D01*
X87225000Y-71949973D01*
X87225000Y-71900000D01*
X86250000Y-71900000D01*
X86250000Y-72649999D01*
X85749999Y-72649999D01*
X85750000Y-72649998D01*
X85750000Y-71524000D01*
X85769685Y-71456961D01*
X85822489Y-71411206D01*
X85874000Y-71400000D01*
X87224999Y-71400000D01*
X87224999Y-71350028D01*
X87224998Y-71350013D01*
X87214505Y-71247302D01*
X87159358Y-71080880D01*
X87159356Y-71080875D01*
X87067315Y-70931654D01*
X86943344Y-70807683D01*
X86943341Y-70807681D01*
X86940339Y-70805829D01*
X86938713Y-70804021D01*
X86937677Y-70803202D01*
X86937817Y-70803024D01*
X86893617Y-70753880D01*
X86882397Y-70684917D01*
X86910243Y-70620836D01*
X86940344Y-70594754D01*
X86943656Y-70592712D01*
X87067712Y-70468656D01*
X87159814Y-70319334D01*
X87214999Y-70152797D01*
X87225500Y-70050009D01*
X87225499Y-69449992D01*
X87217326Y-69369985D01*
X87225903Y-69323848D01*
X87194504Y-69284458D01*
X87191609Y-69276618D01*
X87189797Y-69271151D01*
X87424095Y-69271151D01*
X87455495Y-69310540D01*
X87458390Y-69318380D01*
X87490186Y-69414333D01*
X87490187Y-69414336D01*
X87492852Y-69418656D01*
X87582288Y-69563656D01*
X87706344Y-69687712D01*
X87855666Y-69779814D01*
X88022203Y-69834999D01*
X88124991Y-69845500D01*
X89925008Y-69845499D01*
X90027797Y-69834999D01*
X90194334Y-69779814D01*
X90343656Y-69687712D01*
X90467712Y-69563656D01*
X90559814Y-69414334D01*
X90614999Y-69247797D01*
X90625500Y-69145009D01*
X90625499Y-68344992D01*
X90621995Y-68310694D01*
X90614999Y-68242203D01*
X90614998Y-68242200D01*
X90603987Y-68208970D01*
X90559814Y-68075666D01*
X90467712Y-67926344D01*
X90343656Y-67802288D01*
X90219357Y-67725620D01*
X90194336Y-67710187D01*
X90194331Y-67710185D01*
X90192862Y-67709698D01*
X90027797Y-67655001D01*
X90027795Y-67655000D01*
X89925010Y-67644500D01*
X88124998Y-67644500D01*
X88124981Y-67644501D01*
X88022203Y-67655000D01*
X88022200Y-67655001D01*
X87855668Y-67710185D01*
X87855663Y-67710187D01*
X87706342Y-67802289D01*
X87582289Y-67926342D01*
X87490187Y-68075663D01*
X87490185Y-68075668D01*
X87478776Y-68110099D01*
X87435001Y-68242203D01*
X87435001Y-68242204D01*
X87435000Y-68242204D01*
X87424500Y-68344983D01*
X87424500Y-69145001D01*
X87424501Y-69145019D01*
X87432673Y-69225013D01*
X87424095Y-69271151D01*
X87189797Y-69271151D01*
X87159814Y-69180666D01*
X87067712Y-69031344D01*
X86943656Y-68907288D01*
X86794334Y-68815186D01*
X86627797Y-68760001D01*
X86627795Y-68760000D01*
X86525016Y-68749500D01*
X86525009Y-68749500D01*
X86368089Y-68749500D01*
X86309472Y-68734771D01*
X86214136Y-68683629D01*
X86214135Y-68683628D01*
X86214134Y-68683628D01*
X86060250Y-68647505D01*
X86060248Y-68647504D01*
X86060245Y-68647504D01*
X85042657Y-68545745D01*
X84977909Y-68519487D01*
X84937636Y-68462392D01*
X84934623Y-68392588D01*
X84935920Y-68387764D01*
X84947598Y-68347569D01*
X84950500Y-68310694D01*
X84950500Y-67879306D01*
X84947598Y-67842431D01*
X84935935Y-67802288D01*
X84901745Y-67684606D01*
X84901744Y-67684603D01*
X84901744Y-67684602D01*
X84818081Y-67543135D01*
X84818079Y-67543133D01*
X84818076Y-67543129D01*
X84701870Y-67426923D01*
X84701862Y-67426917D01*
X84560396Y-67343255D01*
X84560393Y-67343254D01*
X84402573Y-67297402D01*
X84402567Y-67297401D01*
X84365701Y-67294500D01*
X84365694Y-67294500D01*
X84171728Y-67294500D01*
X84104689Y-67274815D01*
X84058934Y-67222011D01*
X84048990Y-67152853D01*
X84078015Y-67089297D01*
X84106632Y-67064961D01*
X84143343Y-67042317D01*
X84267315Y-66918345D01*
X84359356Y-66769124D01*
X84359358Y-66769119D01*
X84414505Y-66602697D01*
X84414506Y-66602690D01*
X84424999Y-66499986D01*
X84425000Y-66499973D01*
X84425000Y-66250000D01*
X83286500Y-66250000D01*
X83219461Y-66230315D01*
X83173706Y-66177511D01*
X83162500Y-66126000D01*
X83162500Y-65750000D01*
X83662500Y-65750000D01*
X84424999Y-65750000D01*
X84424999Y-65500028D01*
X84424998Y-65500013D01*
X84414505Y-65397302D01*
X84359358Y-65230880D01*
X84359356Y-65230875D01*
X84267315Y-65081654D01*
X84143345Y-64957684D01*
X83994124Y-64865643D01*
X83994119Y-64865641D01*
X83827697Y-64810494D01*
X83827690Y-64810493D01*
X83724986Y-64800000D01*
X83662500Y-64800000D01*
X83662500Y-65750000D01*
X83162500Y-65750000D01*
X83162500Y-64800000D01*
X83162499Y-64799999D01*
X83100028Y-64800000D01*
X83100011Y-64800001D01*
X82997302Y-64810494D01*
X82830880Y-64865641D01*
X82830875Y-64865643D01*
X82681657Y-64957682D01*
X82588034Y-65051305D01*
X82526710Y-65084789D01*
X82457019Y-65079805D01*
X82412672Y-65051304D01*
X82318657Y-64957289D01*
X82318656Y-64957288D01*
X82169334Y-64865186D01*
X82002797Y-64810001D01*
X82002795Y-64810000D01*
X81900010Y-64799500D01*
X81274998Y-64799500D01*
X81274980Y-64799501D01*
X81172203Y-64810000D01*
X81172199Y-64810001D01*
X81098549Y-64834407D01*
X81028720Y-64836809D01*
X80968678Y-64801077D01*
X80937486Y-64738556D01*
X80940468Y-64682107D01*
X80947598Y-64657569D01*
X80950500Y-64620694D01*
X80950500Y-64189306D01*
X80947598Y-64152431D01*
X80901744Y-63994602D01*
X80818081Y-63853135D01*
X80818078Y-63853132D01*
X80813298Y-63846969D01*
X80815750Y-63845066D01*
X80789155Y-63796421D01*
X80794104Y-63726726D01*
X80814940Y-63694304D01*
X80813298Y-63693031D01*
X80818075Y-63686870D01*
X80818081Y-63686865D01*
X80901744Y-63545398D01*
X80947598Y-63387569D01*
X80950500Y-63350694D01*
X80950500Y-62919306D01*
X80947598Y-62882431D01*
X80929966Y-62821743D01*
X80902089Y-62725789D01*
X80901744Y-62724602D01*
X80818081Y-62583135D01*
X80818078Y-62583132D01*
X80813298Y-62576969D01*
X80815750Y-62575066D01*
X80789155Y-62526421D01*
X80794104Y-62456726D01*
X80814940Y-62424304D01*
X80813298Y-62423031D01*
X80818075Y-62416870D01*
X80818081Y-62416865D01*
X80901744Y-62275398D01*
X80947598Y-62117569D01*
X80950500Y-62080694D01*
X80950500Y-61649306D01*
X80947598Y-61612431D01*
X80947597Y-61612426D01*
X80911200Y-61487147D01*
X80911399Y-61417278D01*
X80949341Y-61358608D01*
X81012980Y-61329764D01*
X81082109Y-61339905D01*
X81105759Y-61354174D01*
X81155371Y-61392243D01*
X81197248Y-61424377D01*
X81197250Y-61424378D01*
X81343285Y-61484868D01*
X81500000Y-61505500D01*
X81500007Y-61505500D01*
X82499993Y-61505500D01*
X82500000Y-61505500D01*
X82656715Y-61484868D01*
X82802750Y-61424378D01*
X82928153Y-61328153D01*
X83024378Y-61202750D01*
X83084868Y-61056715D01*
X83084869Y-61056704D01*
X83085864Y-61052994D01*
X83100647Y-61019108D01*
X83175789Y-60899522D01*
X83235368Y-60729255D01*
X83237016Y-60714630D01*
X83255565Y-60550003D01*
X83255565Y-60549996D01*
X83235369Y-60370750D01*
X83235368Y-60370748D01*
X83235368Y-60370745D01*
X83198698Y-60265951D01*
X83195136Y-60196177D01*
X83198692Y-60184067D01*
X83235368Y-60079255D01*
X83235369Y-60079249D01*
X83255565Y-59900003D01*
X83255565Y-59899996D01*
X83235369Y-59720750D01*
X83235366Y-59720737D01*
X83175790Y-59550479D01*
X83124506Y-59468860D01*
X83105500Y-59402889D01*
X83105500Y-57499995D01*
X89295233Y-57499995D01*
X89295233Y-57500004D01*
X89314273Y-57754079D01*
X89370968Y-58002477D01*
X89370973Y-58002494D01*
X89464058Y-58239671D01*
X89464057Y-58239671D01*
X89591454Y-58460327D01*
X89591461Y-58460338D01*
X89633452Y-58512991D01*
X89633453Y-58512992D01*
X90435387Y-57711058D01*
X90440889Y-57731591D01*
X90519881Y-57868408D01*
X90631592Y-57980119D01*
X90768409Y-58059111D01*
X90788940Y-58064612D01*
X89986813Y-58866738D01*
X90147616Y-58976371D01*
X90147624Y-58976376D01*
X90377176Y-59086921D01*
X90377174Y-59086921D01*
X90620652Y-59162024D01*
X90620658Y-59162026D01*
X90872595Y-59199999D01*
X90872604Y-59200000D01*
X91127396Y-59200000D01*
X91127404Y-59199999D01*
X91379341Y-59162026D01*
X91379347Y-59162024D01*
X91622824Y-59086921D01*
X91852376Y-58976376D01*
X91852377Y-58976375D01*
X92013185Y-58866738D01*
X91211060Y-58064612D01*
X91231591Y-58059111D01*
X91368408Y-57980119D01*
X91480119Y-57868408D01*
X91559111Y-57731591D01*
X91564612Y-57711059D01*
X92366544Y-58512992D01*
X92366546Y-58512991D01*
X92408544Y-58460330D01*
X92535941Y-58239671D01*
X92629026Y-58002494D01*
X92629031Y-58002477D01*
X92685726Y-57754079D01*
X92704767Y-57500004D01*
X92704767Y-57499995D01*
X92685726Y-57245920D01*
X92629031Y-56997522D01*
X92629026Y-56997505D01*
X92535941Y-56760328D01*
X92535942Y-56760328D01*
X92408545Y-56539672D01*
X92366545Y-56487006D01*
X91564612Y-57288939D01*
X91559111Y-57268409D01*
X91480119Y-57131592D01*
X91368408Y-57019881D01*
X91231591Y-56940889D01*
X91211059Y-56935387D01*
X92013185Y-56133260D01*
X91852384Y-56023628D01*
X91852376Y-56023623D01*
X91622823Y-55913078D01*
X91622825Y-55913078D01*
X91379347Y-55837975D01*
X91379341Y-55837973D01*
X91127404Y-55800000D01*
X90872595Y-55800000D01*
X90620658Y-55837973D01*
X90620652Y-55837975D01*
X90377175Y-55913078D01*
X90147622Y-56023625D01*
X90147609Y-56023632D01*
X89986813Y-56133259D01*
X90788941Y-56935387D01*
X90768409Y-56940889D01*
X90631592Y-57019881D01*
X90519881Y-57131592D01*
X90440889Y-57268409D01*
X90435387Y-57288941D01*
X89633452Y-56487006D01*
X89591457Y-56539667D01*
X89464058Y-56760328D01*
X89370973Y-56997505D01*
X89370968Y-56997522D01*
X89314273Y-57245920D01*
X89295233Y-57499995D01*
X83105500Y-57499995D01*
X83105500Y-55499989D01*
X83104412Y-55463726D01*
X83104412Y-55463721D01*
X83074428Y-55308524D01*
X82983268Y-55035047D01*
X82980744Y-54965227D01*
X83016369Y-54905122D01*
X83078722Y-54873839D01*
X84047030Y-54697784D01*
X84108212Y-54702078D01*
X84147203Y-54714999D01*
X84249991Y-54725500D01*
X84850008Y-54725499D01*
X84850016Y-54725498D01*
X84850019Y-54725498D01*
X84906302Y-54719748D01*
X84952797Y-54714999D01*
X85119334Y-54659814D01*
X85268656Y-54567712D01*
X85392712Y-54443656D01*
X85394752Y-54440347D01*
X85396745Y-54438555D01*
X85397193Y-54437989D01*
X85397289Y-54438065D01*
X85446694Y-54393623D01*
X85515656Y-54382395D01*
X85579740Y-54410234D01*
X85605829Y-54440339D01*
X85607681Y-54443341D01*
X85607683Y-54443344D01*
X85731654Y-54567315D01*
X85880875Y-54659356D01*
X85880880Y-54659358D01*
X86047302Y-54714505D01*
X86047309Y-54714506D01*
X86150019Y-54724999D01*
X86700000Y-54724999D01*
X86749972Y-54724999D01*
X86749986Y-54724998D01*
X86852697Y-54714505D01*
X87019119Y-54659358D01*
X87019124Y-54659356D01*
X87168345Y-54567315D01*
X87292315Y-54443345D01*
X87384356Y-54294124D01*
X87384358Y-54294119D01*
X87439505Y-54127697D01*
X87439506Y-54127690D01*
X87449999Y-54024986D01*
X87450000Y-54024973D01*
X87450000Y-53750000D01*
X86700000Y-53750000D01*
X86700000Y-54724999D01*
X86150019Y-54724999D01*
X86199999Y-54724998D01*
X86200000Y-54724998D01*
X86200000Y-53250000D01*
X86700000Y-53250000D01*
X87449999Y-53250000D01*
X87449999Y-52975028D01*
X87449998Y-52975013D01*
X87439505Y-52872302D01*
X87384358Y-52705880D01*
X87384356Y-52705875D01*
X87292315Y-52556654D01*
X87168345Y-52432684D01*
X87019124Y-52340643D01*
X87019119Y-52340641D01*
X86852697Y-52285494D01*
X86852690Y-52285493D01*
X86749986Y-52275000D01*
X86700000Y-52275000D01*
X86700000Y-53250000D01*
X86200000Y-53250000D01*
X86200000Y-52275000D01*
X86199999Y-52274999D01*
X86150029Y-52275000D01*
X86150011Y-52275001D01*
X86047302Y-52285494D01*
X85880880Y-52340641D01*
X85880875Y-52340643D01*
X85731654Y-52432684D01*
X85607683Y-52556655D01*
X85607679Y-52556660D01*
X85605826Y-52559665D01*
X85604018Y-52561290D01*
X85603202Y-52562323D01*
X85603025Y-52562183D01*
X85553874Y-52606385D01*
X85484911Y-52617601D01*
X85420831Y-52589752D01*
X85394753Y-52559653D01*
X85394737Y-52559628D01*
X85392712Y-52556344D01*
X85268656Y-52432288D01*
X85119334Y-52340186D01*
X84952797Y-52285001D01*
X84952795Y-52285000D01*
X84850010Y-52274500D01*
X84249998Y-52274500D01*
X84249980Y-52274501D01*
X84147203Y-52285000D01*
X84147200Y-52285001D01*
X83980668Y-52340185D01*
X83980659Y-52340189D01*
X83831342Y-52432288D01*
X83830975Y-52432579D01*
X83830675Y-52432699D01*
X83825197Y-52436079D01*
X83824619Y-52435142D01*
X83766176Y-52458710D01*
X83765303Y-52458793D01*
X82397864Y-52583106D01*
X82329318Y-52569572D01*
X82278971Y-52521127D01*
X82262807Y-52453153D01*
X82285958Y-52387230D01*
X82335054Y-52348979D01*
X82334546Y-52348047D01*
X82340247Y-52344933D01*
X82341075Y-52344289D01*
X82342264Y-52343832D01*
X82342326Y-52343797D01*
X82342331Y-52343796D01*
X82457546Y-52257546D01*
X82543796Y-52142331D01*
X82594091Y-52007483D01*
X82600500Y-51947873D01*
X82600499Y-50352128D01*
X82594091Y-50292517D01*
X82586684Y-50272659D01*
X82547587Y-50167833D01*
X82542603Y-50098141D01*
X82576088Y-50036818D01*
X82637411Y-50003334D01*
X82663769Y-50000500D01*
X103434108Y-50000500D01*
X103497294Y-50000500D01*
X103502702Y-50000617D01*
X103886771Y-50017386D01*
X103897504Y-50018326D01*
X104191114Y-50056980D01*
X104255009Y-50085247D01*
X104293480Y-50143571D01*
X104294311Y-50213436D01*
X104257239Y-50272659D01*
X104194033Y-50302438D01*
X104168438Y-50303749D01*
X104000002Y-50294922D01*
X103999999Y-50294922D01*
X103612712Y-50315219D01*
X103229676Y-50375886D01*
X103229669Y-50375887D01*
X102855063Y-50476262D01*
X102493005Y-50615244D01*
X102147456Y-50791310D01*
X101822206Y-51002531D01*
X101564648Y-51211095D01*
X101564648Y-51211096D01*
X103059301Y-52705748D01*
X102957670Y-52779588D01*
X102779588Y-52957670D01*
X102705748Y-53059300D01*
X101211096Y-51564648D01*
X101211095Y-51564648D01*
X101002531Y-51822206D01*
X100791310Y-52147456D01*
X100615244Y-52493005D01*
X100476262Y-52855063D01*
X100375887Y-53229669D01*
X100375886Y-53229676D01*
X100315219Y-53612712D01*
X100294922Y-53999999D01*
X100294922Y-54000000D01*
X100315219Y-54387287D01*
X100375886Y-54770323D01*
X100375887Y-54770330D01*
X100476262Y-55144936D01*
X100615244Y-55506994D01*
X100791310Y-55852543D01*
X101002531Y-56177793D01*
X101211095Y-56435350D01*
X101211096Y-56435350D01*
X102705748Y-54940698D01*
X102779588Y-55042330D01*
X102957670Y-55220412D01*
X103059300Y-55294251D01*
X101564648Y-56788903D01*
X101564649Y-56788904D01*
X101822206Y-56997468D01*
X102147456Y-57208689D01*
X102493005Y-57384755D01*
X102855063Y-57523737D01*
X103229669Y-57624112D01*
X103229676Y-57624113D01*
X103612712Y-57684780D01*
X103999999Y-57705078D01*
X104000001Y-57705078D01*
X104387287Y-57684780D01*
X104770323Y-57624113D01*
X104770330Y-57624112D01*
X105144936Y-57523737D01*
X105506994Y-57384755D01*
X105852543Y-57208689D01*
X106177783Y-56997476D01*
X106177785Y-56997475D01*
X106435349Y-56788902D01*
X104940698Y-55294251D01*
X105042330Y-55220412D01*
X105220412Y-55042330D01*
X105294251Y-54940698D01*
X106788902Y-56435349D01*
X106997475Y-56177785D01*
X106997476Y-56177783D01*
X107208689Y-55852543D01*
X107384755Y-55506994D01*
X107523737Y-55144936D01*
X107624112Y-54770330D01*
X107624113Y-54770323D01*
X107684780Y-54387287D01*
X107705078Y-54000000D01*
X107705078Y-53999999D01*
X107696250Y-53831562D01*
X107712399Y-53763584D01*
X107762736Y-53715128D01*
X107831279Y-53701579D01*
X107896267Y-53727237D01*
X107937066Y-53783958D01*
X107943019Y-53808886D01*
X107959366Y-53933053D01*
X107975622Y-54056530D01*
X107981671Y-54102472D01*
X107982614Y-54113249D01*
X107999382Y-54497297D01*
X107999500Y-54502706D01*
X107999500Y-66401928D01*
X107979815Y-66468967D01*
X107927011Y-66514722D01*
X107857853Y-66524666D01*
X107834546Y-66518970D01*
X107679257Y-66464632D01*
X107679249Y-66464630D01*
X107500004Y-66444435D01*
X107499996Y-66444435D01*
X107320750Y-66464630D01*
X107320745Y-66464631D01*
X107150476Y-66524211D01*
X106997737Y-66620184D01*
X106870181Y-66747740D01*
X106868731Y-66749559D01*
X106867497Y-66750424D01*
X106865260Y-66752662D01*
X106864867Y-66752269D01*
X106811539Y-66789695D01*
X106741728Y-66792540D01*
X106684109Y-66759921D01*
X106596078Y-66671891D01*
X106402578Y-66536399D01*
X106353774Y-66513642D01*
X106301335Y-66467470D01*
X106282183Y-66400276D01*
X106302399Y-66333395D01*
X106318489Y-66313588D01*
X106379816Y-66252262D01*
X106475789Y-66099522D01*
X106535368Y-65929255D01*
X106536695Y-65917483D01*
X106555565Y-65750000D01*
X106555565Y-65749996D01*
X106535369Y-65570750D01*
X106535368Y-65570745D01*
X106475788Y-65400476D01*
X106379815Y-65247737D01*
X106252262Y-65120184D01*
X106099523Y-65024211D01*
X105929254Y-64964631D01*
X105929249Y-64964630D01*
X105750004Y-64944435D01*
X105749996Y-64944435D01*
X105570750Y-64964630D01*
X105570737Y-64964633D01*
X105400479Y-65024209D01*
X105315971Y-65077309D01*
X105248734Y-65096309D01*
X105184029Y-65077309D01*
X105099520Y-65024209D01*
X104929262Y-64964633D01*
X104929249Y-64964630D01*
X104750004Y-64944435D01*
X104749995Y-64944435D01*
X104743382Y-64945180D01*
X104674561Y-64933125D01*
X104623182Y-64885775D01*
X104605500Y-64821960D01*
X104605500Y-63000013D01*
X104605500Y-63000000D01*
X104605085Y-62977589D01*
X104578667Y-62821746D01*
X104561996Y-62785369D01*
X104512815Y-62678051D01*
X104512812Y-62678046D01*
X104412019Y-62556300D01*
X104412016Y-62556298D01*
X104412013Y-62556294D01*
X100000984Y-58460338D01*
X97740123Y-56360966D01*
X97704391Y-56300925D01*
X97700499Y-56270100D01*
X97700499Y-56252129D01*
X97700498Y-56252123D01*
X97700497Y-56252116D01*
X97694091Y-56192517D01*
X97688599Y-56177793D01*
X97643797Y-56057671D01*
X97643793Y-56057664D01*
X97557547Y-55942455D01*
X97557544Y-55942452D01*
X97442335Y-55856206D01*
X97442328Y-55856202D01*
X97307482Y-55805908D01*
X97307483Y-55805908D01*
X97247883Y-55799501D01*
X97247881Y-55799500D01*
X97247873Y-55799500D01*
X97247864Y-55799500D01*
X94752129Y-55799500D01*
X94752123Y-55799501D01*
X94692516Y-55805908D01*
X94557671Y-55856202D01*
X94557664Y-55856206D01*
X94442455Y-55942452D01*
X94442452Y-55942455D01*
X94356206Y-56057664D01*
X94356202Y-56057671D01*
X94305908Y-56192517D01*
X94299501Y-56252116D01*
X94299501Y-56252123D01*
X94299500Y-56252135D01*
X94299500Y-58747870D01*
X94299501Y-58747876D01*
X94305908Y-58807483D01*
X94356202Y-58942328D01*
X94356206Y-58942335D01*
X94442452Y-59057544D01*
X94442455Y-59057547D01*
X94557664Y-59143793D01*
X94557673Y-59143798D01*
X94652664Y-59179227D01*
X94708598Y-59221098D01*
X94717521Y-59234819D01*
X101243061Y-70887569D01*
X101378691Y-71129764D01*
X101394500Y-71190351D01*
X101394500Y-71250000D01*
X101404835Y-71361399D01*
X101453945Y-71511640D01*
X101540269Y-71644053D01*
X101657925Y-71749615D01*
X101798887Y-71821125D01*
X101798889Y-71821126D01*
X101953560Y-71853716D01*
X104530010Y-72051904D01*
X104595343Y-72076673D01*
X104636913Y-72132830D01*
X104644500Y-72175539D01*
X104644500Y-77186128D01*
X104642613Y-77207678D01*
X104604494Y-77423683D01*
X104573458Y-77486281D01*
X104513506Y-77522163D01*
X104443672Y-77519936D01*
X104386128Y-77480308D01*
X104364676Y-77441140D01*
X104333886Y-77348224D01*
X104329568Y-77331253D01*
X104326752Y-77315643D01*
X104259385Y-77172651D01*
X104259383Y-77172648D01*
X104157307Y-77051971D01*
X104157303Y-77051966D01*
X102048436Y-75134814D01*
X101538905Y-74671604D01*
X101506035Y-74622918D01*
X101414208Y-74374986D01*
X99067807Y-68039701D01*
X99024378Y-67947250D01*
X98928153Y-67821847D01*
X98802750Y-67725622D01*
X98802749Y-67725621D01*
X98802747Y-67725620D01*
X98681366Y-67675343D01*
X98656715Y-67665132D01*
X98637125Y-67662553D01*
X98500007Y-67644500D01*
X98500000Y-67644500D01*
X98476475Y-67644500D01*
X98437472Y-67638206D01*
X98427800Y-67635001D01*
X98427798Y-67635000D01*
X98325019Y-67624500D01*
X98325012Y-67624500D01*
X92324988Y-67624500D01*
X92324980Y-67624500D01*
X92222199Y-67635001D01*
X92164925Y-67653979D01*
X92149301Y-67658048D01*
X92059212Y-67675342D01*
X91916980Y-67744304D01*
X91916980Y-67744305D01*
X91797445Y-67847725D01*
X91797444Y-67847726D01*
X91708750Y-67978562D01*
X91708748Y-67978565D01*
X91656937Y-68127905D01*
X91643126Y-68194984D01*
X91639384Y-68208970D01*
X91635000Y-68222201D01*
X91633154Y-68240271D01*
X91631250Y-68252668D01*
X90749409Y-72535896D01*
X90716610Y-72597589D01*
X90655664Y-72631756D01*
X90585921Y-72627549D01*
X90529524Y-72586304D01*
X90522417Y-72575988D01*
X90467315Y-72486654D01*
X90343345Y-72362684D01*
X90194124Y-72270643D01*
X90194119Y-72270641D01*
X90027697Y-72215494D01*
X90027690Y-72215493D01*
X89924986Y-72205000D01*
X89275000Y-72205000D01*
X89275000Y-74404999D01*
X89924972Y-74404999D01*
X89924986Y-74404998D01*
X90027695Y-74394506D01*
X90187840Y-74341438D01*
X90257669Y-74339036D01*
X90317711Y-74374767D01*
X90348904Y-74437287D01*
X90348298Y-74484149D01*
X90006883Y-76142455D01*
X89907289Y-76626202D01*
X89906938Y-76627905D01*
X89894500Y-76749981D01*
X89894500Y-77000000D01*
X89897091Y-77051963D01*
X89897505Y-77060250D01*
X89947479Y-77559992D01*
X90023885Y-78324049D01*
X90024500Y-78336387D01*
X90024500Y-96547870D01*
X90024501Y-96547876D01*
X90030908Y-96607483D01*
X90081202Y-96742328D01*
X90081206Y-96742335D01*
X90167452Y-96857544D01*
X90167455Y-96857547D01*
X90282664Y-96943793D01*
X90282671Y-96943797D01*
X90417517Y-96994091D01*
X90417516Y-96994091D01*
X90424444Y-96994835D01*
X90477127Y-97000500D01*
X96322872Y-97000499D01*
X96382483Y-96994091D01*
X96517331Y-96943796D01*
X96632546Y-96857546D01*
X96718796Y-96742331D01*
X96769091Y-96607483D01*
X96775500Y-96547873D01*
X96775499Y-80229499D01*
X96795184Y-80162461D01*
X96847988Y-80116706D01*
X96899499Y-80105500D01*
X103749993Y-80105500D01*
X103750000Y-80105500D01*
X103906715Y-80084868D01*
X103944014Y-80069417D01*
X104013482Y-80061949D01*
X104075961Y-80093224D01*
X104111614Y-80153312D01*
X104113579Y-80205528D01*
X103979352Y-80966152D01*
X103948317Y-81028751D01*
X103896276Y-81062298D01*
X103876962Y-81068704D01*
X103809503Y-81071042D01*
X103809423Y-81071418D01*
X103807925Y-81071097D01*
X103807134Y-81071125D01*
X103804653Y-81070397D01*
X103802806Y-81070001D01*
X103700019Y-81059500D01*
X103700012Y-81059500D01*
X98299988Y-81059500D01*
X98299980Y-81059500D01*
X98197198Y-81070001D01*
X98030666Y-81125184D01*
X98030655Y-81125189D01*
X97881346Y-81217285D01*
X97881342Y-81217288D01*
X97757288Y-81341342D01*
X97757285Y-81341346D01*
X97665189Y-81490655D01*
X97665184Y-81490666D01*
X97610001Y-81657198D01*
X97599500Y-81759980D01*
X97599500Y-87760019D01*
X97610001Y-87862801D01*
X97665184Y-88029333D01*
X97665189Y-88029344D01*
X97757285Y-88178653D01*
X97757288Y-88178657D01*
X97881342Y-88302711D01*
X97881346Y-88302714D01*
X98030655Y-88394810D01*
X98030658Y-88394811D01*
X98030664Y-88394815D01*
X98197200Y-88449999D01*
X98299988Y-88460500D01*
X98299991Y-88460500D01*
X98299993Y-88460500D01*
X103700007Y-88460500D01*
X103700012Y-88460500D01*
X103802800Y-88449999D01*
X103969336Y-88394815D01*
X104118657Y-88302712D01*
X104242712Y-88178657D01*
X104334815Y-88029336D01*
X104389999Y-87862800D01*
X104400500Y-87760012D01*
X104400500Y-87229500D01*
X104420185Y-87162461D01*
X104472989Y-87116706D01*
X104524500Y-87105500D01*
X107875500Y-87105500D01*
X107942539Y-87125185D01*
X107988294Y-87177989D01*
X107999500Y-87229500D01*
X107999500Y-93497293D01*
X107999382Y-93502702D01*
X107982614Y-93886750D01*
X107981671Y-93897527D01*
X107943019Y-94191113D01*
X107914752Y-94255009D01*
X107856428Y-94293480D01*
X107786563Y-94294311D01*
X107727340Y-94257239D01*
X107697561Y-94194033D01*
X107696250Y-94168437D01*
X107705078Y-94000000D01*
X107705078Y-93999999D01*
X107684780Y-93612712D01*
X107624113Y-93229676D01*
X107624112Y-93229669D01*
X107523737Y-92855063D01*
X107384755Y-92493005D01*
X107208689Y-92147456D01*
X106997468Y-91822206D01*
X106788904Y-91564649D01*
X106788903Y-91564648D01*
X105294251Y-93059300D01*
X105220412Y-92957670D01*
X105042330Y-92779588D01*
X104940698Y-92705748D01*
X106435350Y-91211096D01*
X106435350Y-91211095D01*
X106177793Y-91002531D01*
X105852543Y-90791310D01*
X105506994Y-90615244D01*
X105144936Y-90476262D01*
X104770330Y-90375887D01*
X104770323Y-90375886D01*
X104387287Y-90315219D01*
X104000001Y-90294922D01*
X103999999Y-90294922D01*
X103612712Y-90315219D01*
X103229676Y-90375886D01*
X103229669Y-90375887D01*
X102855063Y-90476262D01*
X102493005Y-90615244D01*
X102147456Y-90791310D01*
X101822206Y-91002531D01*
X101564648Y-91211095D01*
X101564648Y-91211096D01*
X103059301Y-92705748D01*
X102957670Y-92779588D01*
X102779588Y-92957670D01*
X102705748Y-93059300D01*
X101211096Y-91564648D01*
X101211095Y-91564648D01*
X101002531Y-91822206D01*
X100791310Y-92147456D01*
X100615244Y-92493005D01*
X100476262Y-92855063D01*
X100375887Y-93229669D01*
X100375886Y-93229676D01*
X100315219Y-93612712D01*
X100294922Y-93999999D01*
X100294922Y-94000000D01*
X100315219Y-94387287D01*
X100375886Y-94770323D01*
X100375887Y-94770330D01*
X100476262Y-95144936D01*
X100615244Y-95506994D01*
X100791310Y-95852543D01*
X101002531Y-96177793D01*
X101211095Y-96435350D01*
X101211096Y-96435350D01*
X102705748Y-94940698D01*
X102779588Y-95042330D01*
X102957670Y-95220412D01*
X103059300Y-95294251D01*
X101564648Y-96788903D01*
X101564649Y-96788904D01*
X101822206Y-96997468D01*
X102147456Y-97208689D01*
X102493005Y-97384755D01*
X102855063Y-97523737D01*
X103229669Y-97624112D01*
X103229676Y-97624113D01*
X103612712Y-97684780D01*
X103999999Y-97705078D01*
X104000001Y-97705078D01*
X104168437Y-97696250D01*
X104236415Y-97712399D01*
X104284871Y-97762736D01*
X104298420Y-97831279D01*
X104272762Y-97896267D01*
X104216041Y-97937066D01*
X104191113Y-97943019D01*
X103897527Y-97981671D01*
X103886750Y-97982614D01*
X103502703Y-97999382D01*
X103497294Y-97999500D01*
X67002706Y-97999500D01*
X66997297Y-97999382D01*
X66613249Y-97982614D01*
X66602474Y-97981671D01*
X66513376Y-97969941D01*
X66308886Y-97943019D01*
X66244990Y-97914752D01*
X66206519Y-97856428D01*
X66205688Y-97786563D01*
X66242760Y-97727340D01*
X66305966Y-97697561D01*
X66331562Y-97696250D01*
X66499999Y-97705078D01*
X66500001Y-97705078D01*
X66887287Y-97684780D01*
X67270323Y-97624113D01*
X67270330Y-97624112D01*
X67644936Y-97523737D01*
X68006994Y-97384755D01*
X68352543Y-97208689D01*
X68677783Y-96997476D01*
X68677785Y-96997475D01*
X68935349Y-96788902D01*
X67440698Y-95294251D01*
X67542330Y-95220412D01*
X67720412Y-95042330D01*
X67794251Y-94940698D01*
X69288902Y-96435349D01*
X69497475Y-96177785D01*
X69497476Y-96177783D01*
X69708689Y-95852543D01*
X69884755Y-95506994D01*
X70023737Y-95144936D01*
X70124112Y-94770330D01*
X70124113Y-94770323D01*
X70184780Y-94387287D01*
X70205078Y-94000000D01*
X70205078Y-93999999D01*
X70184780Y-93612712D01*
X70124113Y-93229676D01*
X70124112Y-93229669D01*
X70023737Y-92855063D01*
X69884755Y-92493005D01*
X69708689Y-92147456D01*
X69497468Y-91822206D01*
X69288904Y-91564649D01*
X69288903Y-91564648D01*
X67794251Y-93059300D01*
X67720412Y-92957670D01*
X67542330Y-92779588D01*
X67440698Y-92705748D01*
X68935350Y-91211096D01*
X68935350Y-91211095D01*
X68677793Y-91002531D01*
X68352543Y-90791310D01*
X68006994Y-90615244D01*
X67644936Y-90476262D01*
X67270330Y-90375887D01*
X67270323Y-90375886D01*
X66887287Y-90315219D01*
X66500001Y-90294922D01*
X66499999Y-90294922D01*
X66112712Y-90315219D01*
X65729676Y-90375886D01*
X65729669Y-90375887D01*
X65355063Y-90476262D01*
X64993005Y-90615244D01*
X64647456Y-90791310D01*
X64322206Y-91002531D01*
X64064648Y-91211095D01*
X64064648Y-91211096D01*
X65559301Y-92705748D01*
X65457670Y-92779588D01*
X65279588Y-92957670D01*
X65205748Y-93059301D01*
X63711096Y-91564648D01*
X63711095Y-91564648D01*
X63502531Y-91822206D01*
X63291310Y-92147456D01*
X63115244Y-92493005D01*
X62976262Y-92855063D01*
X62875887Y-93229669D01*
X62875886Y-93229676D01*
X62815219Y-93612712D01*
X62794922Y-93999999D01*
X62794922Y-94000001D01*
X62803749Y-94168438D01*
X62787600Y-94236415D01*
X62737263Y-94284871D01*
X62668719Y-94298420D01*
X62603732Y-94272761D01*
X62562933Y-94216040D01*
X62556981Y-94191118D01*
X62518326Y-93897504D01*
X62517386Y-93886771D01*
X62500618Y-93502702D01*
X62500500Y-93497293D01*
X62500500Y-80459999D01*
X65144341Y-80459999D01*
X65144341Y-80460000D01*
X65164936Y-80695403D01*
X65164938Y-80695413D01*
X65226094Y-80923655D01*
X65226096Y-80923659D01*
X65226097Y-80923663D01*
X65299766Y-81081646D01*
X65325965Y-81137830D01*
X65325967Y-81137834D01*
X65461501Y-81331395D01*
X65461506Y-81331402D01*
X65628597Y-81498493D01*
X65628603Y-81498498D01*
X65814158Y-81628425D01*
X65857783Y-81683002D01*
X65864977Y-81752500D01*
X65833454Y-81814855D01*
X65814158Y-81831575D01*
X65628597Y-81961505D01*
X65461505Y-82128597D01*
X65325965Y-82322169D01*
X65325964Y-82322171D01*
X65226098Y-82536335D01*
X65226094Y-82536344D01*
X65164938Y-82764586D01*
X65164936Y-82764596D01*
X65144341Y-82999999D01*
X65144341Y-83000000D01*
X65164936Y-83235403D01*
X65164938Y-83235413D01*
X65226094Y-83463655D01*
X65226096Y-83463659D01*
X65226097Y-83463663D01*
X65325965Y-83677830D01*
X65325967Y-83677834D01*
X65461501Y-83871395D01*
X65461506Y-83871402D01*
X65628597Y-84038493D01*
X65628603Y-84038498D01*
X65814594Y-84168730D01*
X65858219Y-84223307D01*
X65865413Y-84292805D01*
X65833890Y-84355160D01*
X65814595Y-84371880D01*
X65628922Y-84501890D01*
X65628920Y-84501891D01*
X65461891Y-84668920D01*
X65461886Y-84668926D01*
X65326400Y-84862420D01*
X65326399Y-84862422D01*
X65226570Y-85076507D01*
X65226567Y-85076513D01*
X65169364Y-85289999D01*
X65169364Y-85290000D01*
X66066988Y-85290000D01*
X66034075Y-85347007D01*
X66000000Y-85474174D01*
X66000000Y-85605826D01*
X66034075Y-85732993D01*
X66066988Y-85790000D01*
X65169364Y-85790000D01*
X65226567Y-86003486D01*
X65226570Y-86003492D01*
X65326399Y-86217578D01*
X65461894Y-86411082D01*
X65628917Y-86578105D01*
X65822421Y-86713600D01*
X66036507Y-86813429D01*
X66036516Y-86813433D01*
X66250000Y-86870634D01*
X66250000Y-85973012D01*
X66307007Y-86005925D01*
X66434174Y-86040000D01*
X66565826Y-86040000D01*
X66692993Y-86005925D01*
X66750000Y-85973012D01*
X66750000Y-86870633D01*
X66963483Y-86813433D01*
X66963492Y-86813429D01*
X67177578Y-86713600D01*
X67371082Y-86578105D01*
X67538105Y-86411082D01*
X67673600Y-86217578D01*
X67773429Y-86003492D01*
X67773432Y-86003486D01*
X67830636Y-85790000D01*
X66933012Y-85790000D01*
X66965925Y-85732993D01*
X67000000Y-85605826D01*
X67000000Y-85474174D01*
X66965925Y-85347007D01*
X66933012Y-85290000D01*
X67830636Y-85290000D01*
X67830635Y-85289999D01*
X67773432Y-85076513D01*
X67773429Y-85076507D01*
X67673600Y-84862422D01*
X67673599Y-84862420D01*
X67538113Y-84668926D01*
X67538108Y-84668920D01*
X67371078Y-84501890D01*
X67185405Y-84371879D01*
X67141780Y-84317302D01*
X67134588Y-84247804D01*
X67166110Y-84185449D01*
X67185406Y-84168730D01*
X67371401Y-84038495D01*
X67538495Y-83871401D01*
X67674035Y-83677830D01*
X67773903Y-83463663D01*
X67835063Y-83235408D01*
X67855659Y-83000000D01*
X67835063Y-82764592D01*
X67773903Y-82536337D01*
X67674035Y-82322171D01*
X67538495Y-82128599D01*
X67538494Y-82128597D01*
X67371402Y-81961506D01*
X67371396Y-81961501D01*
X67185842Y-81831575D01*
X67142217Y-81776998D01*
X67135023Y-81707500D01*
X67166546Y-81645145D01*
X67185842Y-81628425D01*
X67208026Y-81612891D01*
X67371401Y-81498495D01*
X67538495Y-81331401D01*
X67674035Y-81137830D01*
X67773903Y-80923663D01*
X67835063Y-80695408D01*
X67855659Y-80460000D01*
X67835063Y-80224592D01*
X67788626Y-80051285D01*
X67773905Y-79996344D01*
X67773904Y-79996343D01*
X67773903Y-79996337D01*
X67674035Y-79782171D01*
X67538495Y-79588599D01*
X67416567Y-79466671D01*
X67383084Y-79405351D01*
X67388068Y-79335659D01*
X67429939Y-79279725D01*
X67460915Y-79262810D01*
X67592331Y-79213796D01*
X67707546Y-79127546D01*
X67793796Y-79012331D01*
X67844091Y-78877483D01*
X67850500Y-78817873D01*
X67850499Y-77022128D01*
X67844091Y-76962517D01*
X67793796Y-76827669D01*
X67793795Y-76827668D01*
X67793793Y-76827664D01*
X67707547Y-76712455D01*
X67707544Y-76712452D01*
X67592335Y-76626206D01*
X67592328Y-76626202D01*
X67457482Y-76575908D01*
X67457483Y-76575908D01*
X67397883Y-76569501D01*
X67397881Y-76569500D01*
X67397873Y-76569500D01*
X67397864Y-76569500D01*
X65602129Y-76569500D01*
X65602123Y-76569501D01*
X65542516Y-76575908D01*
X65407671Y-76626202D01*
X65407664Y-76626206D01*
X65292455Y-76712452D01*
X65292452Y-76712455D01*
X65206206Y-76827664D01*
X65206202Y-76827671D01*
X65155908Y-76962517D01*
X65151879Y-77000000D01*
X65149501Y-77022123D01*
X65149500Y-77022135D01*
X65149500Y-78817870D01*
X65149501Y-78817876D01*
X65155908Y-78877483D01*
X65206202Y-79012328D01*
X65206206Y-79012335D01*
X65292452Y-79127544D01*
X65292455Y-79127547D01*
X65407664Y-79213793D01*
X65407671Y-79213797D01*
X65539081Y-79262810D01*
X65595015Y-79304681D01*
X65619432Y-79370145D01*
X65604580Y-79438418D01*
X65583430Y-79466673D01*
X65461503Y-79588600D01*
X65325965Y-79782169D01*
X65325964Y-79782171D01*
X65226098Y-79996335D01*
X65226094Y-79996344D01*
X65164938Y-80224586D01*
X65164936Y-80224596D01*
X65144341Y-80459999D01*
X62500500Y-80459999D01*
X62500500Y-76452135D01*
X71624500Y-76452135D01*
X71624500Y-96547870D01*
X71624501Y-96547876D01*
X71630908Y-96607483D01*
X71681202Y-96742328D01*
X71681206Y-96742335D01*
X71767452Y-96857544D01*
X71767455Y-96857547D01*
X71882664Y-96943793D01*
X71882671Y-96943797D01*
X72017517Y-96994091D01*
X72017516Y-96994091D01*
X72024444Y-96994835D01*
X72077127Y-97000500D01*
X77922872Y-97000499D01*
X77982483Y-96994091D01*
X78117331Y-96943796D01*
X78232546Y-96857546D01*
X78318796Y-96742331D01*
X78369091Y-96607483D01*
X78375500Y-96547873D01*
X78375499Y-76452128D01*
X78369091Y-76392517D01*
X78318796Y-76257669D01*
X78318795Y-76257668D01*
X78318793Y-76257664D01*
X78232547Y-76142455D01*
X78232544Y-76142452D01*
X78117335Y-76056206D01*
X78117328Y-76056202D01*
X77982482Y-76005908D01*
X77982483Y-76005908D01*
X77922883Y-75999501D01*
X77922881Y-75999500D01*
X77922873Y-75999500D01*
X77922864Y-75999500D01*
X72077129Y-75999500D01*
X72077123Y-75999501D01*
X72017516Y-76005908D01*
X71882671Y-76056202D01*
X71882664Y-76056206D01*
X71767455Y-76142452D01*
X71767452Y-76142455D01*
X71681206Y-76257664D01*
X71681202Y-76257671D01*
X71630908Y-76392517D01*
X71624501Y-76452116D01*
X71624501Y-76452123D01*
X71624500Y-76452135D01*
X62500500Y-76452135D01*
X62500500Y-74374986D01*
X67325001Y-74374986D01*
X67335494Y-74477697D01*
X67390641Y-74644119D01*
X67390643Y-74644124D01*
X67482684Y-74793345D01*
X67606654Y-74917315D01*
X67755875Y-75009356D01*
X67755880Y-75009358D01*
X67922302Y-75064505D01*
X67922309Y-75064506D01*
X68025019Y-75074999D01*
X69249999Y-75074999D01*
X69750000Y-75074999D01*
X70974972Y-75074999D01*
X70974986Y-75074998D01*
X71077697Y-75064505D01*
X71244119Y-75009358D01*
X71244124Y-75009356D01*
X71393345Y-74917315D01*
X71517315Y-74793345D01*
X71609356Y-74644124D01*
X71609358Y-74644119D01*
X71664505Y-74477697D01*
X71664506Y-74477690D01*
X71674999Y-74374986D01*
X71675000Y-74374973D01*
X71675000Y-74212500D01*
X69750000Y-74212500D01*
X69750000Y-75074999D01*
X69249999Y-75074999D01*
X69250000Y-75074998D01*
X69250000Y-74212500D01*
X67325001Y-74212500D01*
X67325001Y-74374986D01*
X62500500Y-74374986D01*
X62500500Y-73550013D01*
X67325000Y-73550013D01*
X67325000Y-73712500D01*
X69250000Y-73712500D01*
X69750000Y-73712500D01*
X71674999Y-73712500D01*
X71674999Y-73550028D01*
X71674998Y-73550013D01*
X71664505Y-73447302D01*
X71609358Y-73280880D01*
X71609356Y-73280875D01*
X71517315Y-73131654D01*
X71393345Y-73007684D01*
X71244124Y-72915643D01*
X71244119Y-72915641D01*
X71077697Y-72860494D01*
X71077690Y-72860493D01*
X70974986Y-72850000D01*
X69750000Y-72850000D01*
X69750000Y-73712500D01*
X69250000Y-73712500D01*
X69250000Y-72850000D01*
X68025028Y-72850000D01*
X68025012Y-72850001D01*
X67922302Y-72860494D01*
X67755880Y-72915641D01*
X67755875Y-72915643D01*
X67606654Y-73007684D01*
X67482684Y-73131654D01*
X67390643Y-73280875D01*
X67390641Y-73280880D01*
X67335494Y-73447302D01*
X67335493Y-73447309D01*
X67325000Y-73550013D01*
X62500500Y-73550013D01*
X62500500Y-71499986D01*
X73075001Y-71499986D01*
X73085494Y-71602697D01*
X73140641Y-71769119D01*
X73140643Y-71769124D01*
X73232684Y-71918345D01*
X73356654Y-72042315D01*
X73505875Y-72134356D01*
X73505880Y-72134358D01*
X73672302Y-72189505D01*
X73672309Y-72189506D01*
X73775019Y-72199999D01*
X73837499Y-72199998D01*
X73837500Y-72199998D01*
X73837500Y-71250000D01*
X73075001Y-71250000D01*
X73075001Y-71499986D01*
X62500500Y-71499986D01*
X62500500Y-58000013D01*
X74987500Y-58000013D01*
X74987500Y-58250000D01*
X75750000Y-58250000D01*
X75750000Y-56250000D01*
X75000001Y-56250000D01*
X75000001Y-56524986D01*
X75010494Y-56627697D01*
X75065641Y-56794119D01*
X75065643Y-56794124D01*
X75157684Y-56943345D01*
X75281654Y-57067315D01*
X75420742Y-57153105D01*
X75467466Y-57205053D01*
X75478689Y-57274015D01*
X75450845Y-57338098D01*
X75420743Y-57364182D01*
X75269156Y-57457682D01*
X75145184Y-57581654D01*
X75053143Y-57730875D01*
X75053141Y-57730880D01*
X74997994Y-57897302D01*
X74997993Y-57897309D01*
X74987500Y-58000013D01*
X62500500Y-58000013D01*
X62500500Y-54502706D01*
X62500618Y-54497297D01*
X62502960Y-54443656D01*
X62517386Y-54113226D01*
X62518325Y-54102497D01*
X62556981Y-53808883D01*
X62585247Y-53744990D01*
X62643571Y-53706519D01*
X62713436Y-53705688D01*
X62772659Y-53742760D01*
X62802438Y-53805966D01*
X62803749Y-53831561D01*
X62794922Y-53999998D01*
X62794922Y-54000000D01*
X62815219Y-54387287D01*
X62875886Y-54770323D01*
X62875887Y-54770330D01*
X62976262Y-55144936D01*
X63115244Y-55506994D01*
X63291310Y-55852543D01*
X63502531Y-56177793D01*
X63711095Y-56435350D01*
X63711096Y-56435350D01*
X65205747Y-54940698D01*
X65279588Y-55042330D01*
X65457670Y-55220412D01*
X65559300Y-55294251D01*
X64064648Y-56788903D01*
X64064649Y-56788904D01*
X64322206Y-56997468D01*
X64647456Y-57208689D01*
X64993005Y-57384755D01*
X65355063Y-57523737D01*
X65729669Y-57624112D01*
X65729676Y-57624113D01*
X66112712Y-57684780D01*
X66499999Y-57705078D01*
X66500001Y-57705078D01*
X66887287Y-57684780D01*
X67270323Y-57624113D01*
X67270330Y-57624112D01*
X67644936Y-57523737D01*
X68006994Y-57384755D01*
X68352543Y-57208689D01*
X68677783Y-56997476D01*
X68677785Y-56997475D01*
X68935349Y-56788902D01*
X67440698Y-55294251D01*
X67542330Y-55220412D01*
X67720412Y-55042330D01*
X67794251Y-54940698D01*
X69288902Y-56435349D01*
X69497475Y-56177785D01*
X69497476Y-56177783D01*
X69708689Y-55852543D01*
X69884755Y-55506994D01*
X70023737Y-55144936D01*
X70124112Y-54770330D01*
X70124113Y-54770323D01*
X70184780Y-54387287D01*
X70205078Y-54000000D01*
X70205078Y-53999999D01*
X70184780Y-53612712D01*
X70124113Y-53229676D01*
X70124112Y-53229669D01*
X70023737Y-52855063D01*
X69983412Y-52750013D01*
X71775000Y-52750013D01*
X71775000Y-52800000D01*
X72750000Y-52800000D01*
X72750000Y-52050000D01*
X72475029Y-52050000D01*
X72475012Y-52050001D01*
X72372302Y-52060494D01*
X72205880Y-52115641D01*
X72205875Y-52115643D01*
X72056654Y-52207684D01*
X71932684Y-52331654D01*
X71840643Y-52480875D01*
X71840641Y-52480880D01*
X71785494Y-52647302D01*
X71785493Y-52647309D01*
X71775000Y-52750013D01*
X69983412Y-52750013D01*
X69884755Y-52493005D01*
X69708689Y-52147456D01*
X69497468Y-51822206D01*
X69288904Y-51564649D01*
X69288903Y-51564648D01*
X67794251Y-53059300D01*
X67720412Y-52957670D01*
X67542330Y-52779588D01*
X67440698Y-52705747D01*
X68935350Y-51211096D01*
X68935350Y-51211095D01*
X68677793Y-51002531D01*
X68352543Y-50791310D01*
X68006994Y-50615244D01*
X67644936Y-50476262D01*
X67270330Y-50375887D01*
X67270323Y-50375886D01*
X66887287Y-50315219D01*
X66500001Y-50294922D01*
X66499998Y-50294922D01*
X66331561Y-50303749D01*
X66263584Y-50287600D01*
X66215128Y-50237263D01*
X66201579Y-50168719D01*
X66227238Y-50103732D01*
X66283959Y-50062933D01*
X66308879Y-50056981D01*
X66602497Y-50018325D01*
X66613226Y-50017386D01*
X66997297Y-50000617D01*
X67002706Y-50000500D01*
X67065892Y-50000500D01*
X79994192Y-50000500D01*
X80061231Y-50020185D01*
G37*
%TD.AperFunction*%
%TD*%
M02*
